<?xml version="1.0" standalone="no"?>
<!DOCTYPE svg PUBLIC "-//W3C//DTD SVG 1.1//EN" "http://www.w3.org/Graphics/SVG/1.1/DTD/svg11.dtd" >
<svg xmlns="http://www.w3.org/2000/svg" xmlns:xlink="http://www.w3.org/1999/xlink" version="1.1">
<metadata>
Created by FontForge 20170731 at Sun Jul 10 00:27:37 2016
 By Aleksey,,,
Copyright (c) 2016 by Russian Fonts. All rights reserved.
</metadata>
<defs>
<font id="GoraFree-Regular" horiz-adv-x="1171" >
  <font-face 
    font-family="Gora Free"
    font-weight="400"
    font-stretch="normal"
    units-per-em="1000"
    panose-1="2 0 5 7 0 0 0 2 0 4"
    ascent="750"
    descent="-250"
    x-height="683"
    cap-height="701.5"
    bbox="0 -196.133 1389 987.562"
    underline-thickness="50"
    underline-position="-150"
    unicode-range="U+000D-20BD"
  />
<missing-glyph horiz-adv-x="373" 
 />
    <glyph glyph-name=".notdef" horiz-adv-x="373" 
 />
    <glyph glyph-name=".null" horiz-adv-x="0" 
 />
    <glyph glyph-name="nonmarkingreturn" unicode="&#xd;" horiz-adv-x="373" 
 />
    <glyph glyph-name="NULL" horiz-adv-x="0" 
 />
    <glyph glyph-name="NULL" horiz-adv-x="0" 
 />
    <glyph glyph-name="space" unicode=" " horiz-adv-x="270" 
 />
    <glyph glyph-name="exclam" unicode="!" horiz-adv-x="419" 
d="M161 442q-3 34 -5.5 67.5t-4.5 67.5q-1 15 0 30.5t3 30.5q4 29 17.5 50t51.5 21q19 0 31 -7t19 -16.5t9.5 -19.5t3.5 -16q6 -35 7 -69t2 -69q-2 -33 -3 -66.5t-5 -65.5q-5 -35 -10.5 -70t-11.5 -70q-2 -14 -6 -16.5t-18 -2.5h-10t-10 1q-12 3 -21 9.5t-11 20.5
q-2 13 -4 25t-4 25l-10 70zM271 114q10 -12 18 -24.5t10 -29.5q2 -26 -14 -46.5t-40 -23.5q-12 -2 -23.5 -2t-23.5 1q-20 2 -37 16.5t-22 33.5q-7 26 6.5 47.5t40.5 28.5q6 1 19 3t26.5 2.5t25 -1t14.5 -5.5z" />
    <glyph glyph-name="quotedbl" unicode="&#x22;" horiz-adv-x="367" 
d="M136 726q17 0 26 -9.5t10 -17.5v-17.5t-0.5 -25t-1 -25t-0.5 -17.5q-2 -26 -9.5 -51t-13.5 -50q-1 -2 -1 -3t-1 -3q0 -1 -7 -1.5t-10 -0.5q-8 2 -13 5t-6 11q-2 15 -6.5 30t-6.5 30q0 7 -0.5 21t-1 29t-1 28.5t-0.5 21.5q-1 18 12.5 32t30.5 13zM256 726q17 1 30.5 -13
t12.5 -32q0 -8 -0.5 -21.5t-1 -28.5t-1 -29t-0.5 -21q-2 -15 -6.5 -30t-6.5 -30q-1 -8 -6 -11t-13 -5q-3 0 -10 0.5t-7 1.5q-1 2 -1 3t-1 3q-6 25 -14 50t-9 51q0 6 -0.5 17.5t-1 25t-0.5 25v17.5q1 8 10 17.5t26 9.5z" />
    <glyph glyph-name="numbersign" unicode="#" horiz-adv-x="739" 
d="M230 449q13 0 16.5 2.5t6.5 13.5q6 20 11 40l10 40q5 21 9 42t9 42q3 11 8 13.5t18 2.5q11 1 23 1.5t23 2.5t14 -1.5t0 -13.5q-6 -20 -14.5 -48t-16 -53.5t-13 -44l-5.5 -18.5q-3 -14 0 -18t19 -5q3 0 15.5 0.5t28 1t31.5 1t25 0.5q14 1 18 4.5t8 17.5q8 35 16.5 71
t16.5 72q1 5 1.5 9t2.5 9q5 14 18 11q15 -5 30 -5.5t30 7.5q5 3 10 -2t2 -12q-17 -38 -27 -79t-24 -81q-5 -14 -1.5 -18.5t17.5 -4.5q18 -1 36 0t35 3q8 0 15 0.5t15 1.5q17 2 17 -15q1 -5 0.5 -11t-1.5 -12q-5 -20 -13 -25.5t-25 -7.5q-25 -2 -49 -1.5t-49 1.5
q-15 0 -18.5 -2.5t-7.5 -16.5q-5 -18 -9.5 -36t-9.5 -36q-3 -14 0 -18t19 -4q19 0 38 1t39 1h32q8 -1 11.5 -5t1.5 -10q-5 -13 -9 -26t-18 -21q-6 -3 -11 -5t-11 -2q-23 1 -45.5 1.5t-45.5 0.5q-8 0 -12.5 -0.5t-7.5 -2.5t-4.5 -6.5t-3.5 -12.5q-3 -12 -10 -33.5t-13.5 -44
t-11 -41.5t-2.5 -26q2 -6 -2.5 -11.5t-12.5 -7.5q-12 -2 -24.5 -4t-24.5 -4q-7 -1 -11.5 3t-2.5 11q3 20 9 40q8 27 15.5 54t15.5 54l3 12q1 14 -14 14q-8 0 -23 -1t-31 -1.5t-29 -0.5h-17q-19 1 -25.5 -4t-11.5 -23q-5 -20 -9 -40.5t-9 -40.5q-3 -14 -7.5 -28.5t-8.5 -28.5
q-6 -18 -23 -19l-22 -2l-22 -2q-6 0 -9 3.5t-1 10.5q2 5 3.5 11t3.5 11q9 33 17.5 66t17.5 65q3 11 0 14.5t-14 3.5q-26 1 -51.5 1h-51.5h-39q-12 0 -10 12q2 11 4 21.5t5 21.5q2 4 6.5 7.5t8.5 3.5q9 -1 30 -1h44.5t44.5 0.5t31 0.5q13 -1 18 16q5 22 10.5 44t10.5 45
q3 10 -9 12q-1 0 -20 0.5t-42 0.5h-42.5h-21.5q-22 1 -24.5 4.5t2.5 25.5q2 5 2 10v10q0 13 3.5 17.5t15.5 4.5h20.5t41.5 -0.5t44.5 -0.5h29.5zM347 266h59q16 0 20 14q5 21 10.5 42.5t11.5 42.5q2 8 -2 9.5t-10 1.5q-17 0 -33.5 0.5t-33.5 0.5q-12 0 -24 0.5t-24 -0.5
q-4 -1 -8 -3t-6 -5l-27 -90q-3 -13 11 -13h56z" />
    <glyph glyph-name="dollar" unicode="$" horiz-adv-x="854" 
d="M390 208q0 23 0.5 46t-0.5 46q0 13 -3 16.5t-14 5.5q-8 1 -33.5 3.5t-58 9t-68.5 18.5t-66.5 32.5t-50 51t-19.5 73.5q0 41 19 72.5t48 54.5t64 38.5t66.5 25.5t55.5 14.5t32 5.5q11 1 17 2.5t9 4.5t3 9v18q0 16 -0.5 31.5t-0.5 30.5q0 17 4.5 21.5t21.5 4.5h24t23 -1
q15 0 18 -13q2 -9 3 -18.5t1 -19.5q1 -14 1 -29v-30t14 -18q6 -2 12 -3.5t11 -3.5q55 -17 94 -55l19.5 -19.5t20.5 -18.5q4 -4 8 -6.5t8 -5.5q2 5 4 9.5t3 9.5q4 14 6.5 29t5.5 29q4 17 8.5 20t21.5 4q5 1 15 1q17 1 20 -2t2 -20q0 -38 -1 -75.5t-2 -75.5q-1 -8 0 -15t1 -14
q-1 -16 -6.5 -21.5t-20.5 -6.5q-4 0 -7.5 0.5t-7.5 -0.5q-23 -3 -39.5 6t-31.5 29q-28 38 -66.5 64.5t-86.5 38.5q-2 1 -5.5 -1.5t-5.5 -4.5q-3 -9 -3 -20q-1 -10 -1.5 -32t-0.5 -47v-48v-33q1 -11 4.5 -15.5t14.5 -6.5l50 -10t51 -11q21 -5 55.5 -18.5t67.5 -35.5t57 -51.5
t24 -65.5q0 -55 -19.5 -92.5t-49.5 -62t-65.5 -38t-68.5 -19.5t-58 -7t-33 -1q-5 0 -9 -0.5t-9 -1.5q-12 -2 -12 -14q0 -11 -0.5 -22t-0.5 -22v-18t-2 -17q-1 -11 -4.5 -14t-14.5 -2q-13 0 -25.5 1t-24.5 3q-15 1 -15 18q1 19 0.5 38t0.5 38q1 12 -11 14q-4 0 -7.5 1.5
t-6.5 1.5q-26 0 -49.5 10t-46.5 18t-42.5 23t-38.5 30q-20 17 -25.5 15t-10.5 -29q-2 -9 -1.5 -18.5t-0.5 -19.5q0 -12 -3 -16t-15 -6q-9 -2 -18.5 -2.5t-19.5 -1.5q-18 0 -19 18q-2 8 -1.5 17t-0.5 18q-2 23 -3 44.5t-3 43.5q-2 19 -3 37t-2 37q-2 21 21 23q5 0 10.5 -0.5
t10.5 1.5q41 9 67.5 -9.5t46.5 -49.5q12 -19 29.5 -30.5t36.5 -22.5q39 -22 86 -30q13 -2 16.5 0.5t4.5 16.5q1 12 0.5 24t-0.5 24q1 11 0.5 23t-0.5 24zM475 103q0 -15 3.5 -18.5t19.5 -3.5q11 0 30 1.5t40.5 6.5t44 13t40.5 21t29.5 31.5t11.5 42.5q0 19 -13 34.5
t-32.5 26.5t-43.5 19t-46 13.5t-39 8.5t-23 4q-17 4 -21.5 0.5t-5.5 -20.5v-14.5t0.5 -30.5t1 -39.5t1.5 -41t1.5 -34.5t0.5 -20zM391 596q0 12 -3 15.5t-13 4.5q-23 2 -55.5 -4t-62 -19.5t-50.5 -34.5t-21 -48t23 -43.5t52.5 -25t58.5 -12t41 -4.5q21 -3 25.5 1.5t5.5 25.5
v29v42.5t-0.5 43t-0.5 29.5z" />
    <glyph glyph-name="quotesingle" unicode="'" horiz-adv-x="243" 
d="M175 699q0 -6 -0.5 -17.5t-1.5 -25t-2 -25t-1 -17.5q-2 -26 -9.5 -51t-13.5 -50q-1 -2 -1 -3t-1 -3q0 -1 -7 -1.5t-10 -0.5q-8 2 -13 5t-6 11q-2 15 -6.5 30t-6.5 30q0 7 -0.5 21t-1 29t-1 28.5t-0.5 21.5q-1 18 12.5 32t30.5 13q17 0 27.5 -9.5t11.5 -17.5z" />
    <glyph glyph-name="parenleft" unicode="(" horiz-adv-x="324" 
d="M55 269q-3 45 3.5 87.5t17.5 84.5q13 45 29 87t37 84q12 24 26.5 47t29.5 46q21 32 58 31q8 -1 15 0.5t14 1.5q10 0 13 -5q2 -2 1 -6t-2 -7q-5 -10 -10 -15q-34 -39 -52 -85.5t-32 -94.5q-10 -35 -17 -70.5t-15 -70.5q-13 -50 -14.5 -99.5t3.5 -99.5q12 -128 60 -246
q10 -26 22.5 -51t32.5 -46q5 -5 6 -10q2 -5 1 -9.5t-8 -6.5q-9 -2 -18.5 -3.5t-18.5 -3.5q-22 -3 -36 16q-24 30 -44 62.5t-34 68.5q-20 54 -35 107t-24 109q-5 24 -6 48.5t-3 48.5z" />
    <glyph glyph-name="parenright" unicode=")" horiz-adv-x="317" 
d="M152 265q-2 29 -3.5 56.5t-6.5 55.5q-8 46 -16.5 91.5t-20.5 90.5q-11 35 -28 65.5t-34 61.5q-4 7 -8 13.5t-7 14.5q-7 17 12 21q2 0 3 0.5t3 0.5q16 1 27.5 1.5t21 -3t18 -12t19.5 -25.5q23 -37 40 -76.5t33 -80.5q4 -9 7 -18t8 -18q11 -22 17 -45t10 -48
q2 -16 5.5 -31.5t5.5 -32.5q11 -94 -4.5 -183t-52.5 -177q-22 -52 -51 -106q-8 -16 -18.5 -31t-21.5 -31q-10 -14 -25 -11q-10 1 -19.5 1t-18.5 1q-16 3 -11 17q2 7 5 12.5t6 11.5q16 41 32.5 80.5t30.5 81.5q21 61 31 124t11 128z" />
    <glyph glyph-name="comma" unicode="," horiz-adv-x="403" 
d="M228 121q25 -9 41.5 -30.5t13.5 -45.5q-2 -23 -5.5 -43.5t-13.5 -40.5q-14 -29 -33.5 -53t-45.5 -42q-14 -10 -24 -15.5t-28 2.5q18 33 37 65.5t21 68.5q-37 9 -55 27q-17 17 -16 42t17 43q17 20 42.5 26t48.5 -4z" />
    <glyph glyph-name="hyphen" unicode="-" horiz-adv-x="582" 
d="M81 280q-2 8 -4.5 15.5t-3.5 15.5q-2 28 6 36.5t36 8.5q26 1 40 1.5t25 1t25 0.5h40h63h40t40 -0.5t63 -0.5q15 0 29.5 -2.5t26.5 -16.5q1 -5 2 -10.5t1 -12.5q1 -27 -7.5 -36t-35.5 -8q-34 1 -48 2t-24.5 1.5t-24.5 1.5t-48 1h-60.5h-46h-46h-60.5q-6 0 -13 0.5t-15 1.5
z" />
    <glyph glyph-name="period" unicode="." horiz-adv-x="401" 
d="M180 -8q-30 6 -46 24.5t-14 43.5q3 32 23 49.5t53 17.5q71 -2 84 -54q3 -15 -1 -28q-5 -13 -15.5 -24t-25 -18.5t-30 -10.5t-28.5 0z" />
    <glyph glyph-name="zero" unicode="0" horiz-adv-x="765" 
d="M718 337q-4 -28 -7 -56t-7 -56q-3 -13 -10 -27q-18 -32 -39 -62t-47 -57q-7 -7 -14.5 -12.5t-15.5 -10.5q-26 -17 -51.5 -34t-57.5 -25q-8 -2 -15.5 -3.5t-15.5 -3.5q-42 -7 -83.5 -6t-83.5 8q-6 1 -23 8t-38.5 20t-46 32t-46.5 43q-15 21 -27 43.5t-17 48.5
q-2 11 -5.5 21.5t-5.5 21.5q-11 48 -15 96t8 96q9 36 19.5 71t33.5 66q13 17 25 35t28 32q14 14 32 25t36 21q16 9 33 16t34 13q53 21 111 13q43 -6 85 -16.5t81 -31.5q37 -21 61 -55q11 -15 21 -30t19 -32q11 -20 16.5 -42t10.5 -44q7 -32 13 -63t4 -63zM607 327v23
q-1 50 -13.5 95t-40.5 86q-8 13 -20.5 28t-33.5 28t-53 22t-79 9q-36 0 -66 -18.5t-51.5 -42t-35 -46t-17.5 -29.5q-25 -51 -30 -105.5t-1 -110.5q0 -11 4.5 -21t6.5 -21q3 -19 11.5 -33.5t20.5 -28.5q19 -21 41 -35.5t50 -20.5q28 -5 55.5 -9t56.5 1q31 6 51.5 13.5
t34 14.5t20.5 13t10 9q43 35 62 80t17 99z" />
    <glyph glyph-name="one" unicode="1" horiz-adv-x="635" 
d="M386 682v-30v-62.5t0.5 -84.5t0.5 -96t0.5 -97t0.5 -87v-66v-35q3 -19 20 -20q32 -3 65.5 -6.5t65.5 -7.5q4 0 15.5 -5t9.5 -10v-19.5t-0.5 -13.5t-1 -12.5t-1.5 -18.5q2 -7 -0.5 -9.5t-11.5 -2.5q-32 1 -63 1.5t-63 0.5q-25 -1 -49 -1.5t-49 0.5q-35 2 -69.5 -0.5
t-69.5 -0.5h-56q-6 1 -12 1t-12 2q-14 3 -18 8.5t-4 19.5q0 11 -0.5 24.5t0.5 24.5q10 2 20 3t20 3q33 5 69 9t69 9q14 2 17 5t4 17q1 13 1 50v80.5v85.5v64q1 26 0 53t-2 53q0 14 -3.5 18t-16.5 4q-21 0 -41.5 -1t-41.5 -2q-14 0 -28 -0.5t-28 1.5q-13 2 -17 7t-6 18
q-2 15 -1 24.5t5.5 14.5t14 7.5t25.5 2.5h33.5t33.5 5q24 5 43.5 18t37.5 29q3 4 5 8.5t5 9.5q6 9 13.5 16t21.5 4q5 -1 13.5 -0.5t16.5 0t13.5 -3t5.5 -9.5z" />
    <glyph glyph-name="two" unicode="2" horiz-adv-x="718" 
d="M666 111v-35t-1 -36q-2 -23 -12 -32t-34 -8q-46 1 -92 1.5t-93 0.5t-93 -1.5t-93 -1.5q-42 0 -82.5 1t-82.5 3q-22 1 -29 8t-10 29q-5 38 6 71t34 64q23 30 50.5 53.5t58.5 44.5q29 20 61 34t64 31q38 21 77.5 39.5t72.5 48.5q8 7 18 12t18 12q14 12 20 29.5t4.5 35.5
t-10.5 34t-24 26q-45 28 -96 21q-10 -2 -20 -2t-21 -2q-32 -3 -60 -14.5t-54 -29.5q-19 -13 -33 -27t-25 -34q-5 -11 -13.5 -15t-20.5 -3q-14 2 -29 0q-20 -2 -26.5 3.5t-8.5 26.5q-2 15 -2 30.5v31.5q-1 24 -1 48.5t-1 48.5q-1 20 2.5 24.5t23.5 6.5q8 1 15 1.5t15 0.5
q16 0 22 -5t9 -21q2 -8 3.5 -17t3.5 -18q4 -15 17 -4q24 20 52.5 34t56.5 30q7 4 15 5l16 2q12 2 24.5 3t24.5 3q52 10 99 2.5t92 -38.5q18 -13 29 -27.5t19 -33.5q11 -25 16.5 -50.5t5.5 -52.5q0 -39 -15 -70.5t-40 -59.5q-14 -15 -30 -28t-36 -21q-42 -19 -82.5 -38.5
t-82.5 -39.5q-35 -16 -69 -31.5t-66 -35.5q-16 -11 -29 -24t-20 -33q-3 -9 -1.5 -12t10.5 -3l46 -2t46 1q42 2 82.5 0t82.5 -4q16 -1 32 -0.5t32 0.5q10 0 19.5 0.5t19.5 0.5q16 1 19.5 3.5t8.5 18.5q4 14 6.5 27.5t6.5 27.5q2 6 3.5 12.5t4.5 12.5q5 11 13.5 16.5t22.5 3.5
q4 -1 7.5 -1t7.5 -1q14 -2 16.5 -4t4.5 -16q2 -23 2 -46t1 -46h-1z" />
    <glyph glyph-name="three" unicode="3" horiz-adv-x="735" 
d="M448 412q46 -4 89 -19t76 -40.5t52.5 -60.5t19.5 -79q0 -57 -17.5 -96.5t-43.5 -65t-57.5 -40t-58.5 -21.5q-29 -8 -57.5 -10.5t-59.5 -2.5q-84 0 -143 21t-96.5 49t-55.5 55.5t-21 39.5q-1 5 -2.5 10t-3.5 10q6 2 12 4.5t13 3.5q17 2 33.5 2t33.5 1q11 1 20 -10
l16.5 -16.5t17.5 -16.5q25 -23 60 -30q49 -11 97.5 -14t98.5 5q7 2 13 3t13 3q35 7 53.5 29.5t25.5 55.5q8 37 -16 67q-41 51 -106 59q-35 4 -70 9.5t-71 2.5q-28 -3 -36 27q-1 5 -2 9l-2 8q-2 20 4 35t23 26q20 12 39 25.5t38 27.5q13 8 25 16t25 15q27 14 52 31t51 33
q2 2 2.5 5t2.5 5q-2 2 -5 3.5t-5 1.5q-37 -1 -73.5 -2t-73.5 -2q-29 0 -56.5 0.5t-55.5 0.5h-25.5t-24.5 1q-17 0 -20 -17q-4 -26 -8 -52.5t-7 -52.5q-3 -17 -17 -17q-9 -1 -18.5 -1h-19.5q-17 2 -20 18q-4 24 -6 47q-1 33 -1.5 66.5t-1.5 66.5v12q2 17 6.5 22.5t21.5 6.5
q23 2 44.5 1.5t44.5 0.5q32 1 63.5 1.5t63.5 1.5q20 1 41 1.5t41 0.5q41 1 81 1t82 1h11q29 2 36 -7.5t3 -32.5q-1 -5 0.5 -10t1.5 -10q2 -22 3 -43t0 -43q0 -21 -23 -36q-24 -14 -48.5 -29.5t-49.5 -29.5q-14 -9 -29.5 -16.5t-30.5 -15.5q-3 -2 -5.5 -4.5t-6.5 -4.5z" />
    <glyph glyph-name="four" unicode="4" horiz-adv-x="774" 
d="M596 510l-2 -74l-2 -74v-12q0 -11 1 -17t4.5 -9t10 -4t17.5 -1q26 0 53 -3q8 -1 19 -5q14 -4 21.5 -11.5t3.5 -23.5q-1 -4 1 -12q5 -43 -37 -44q-14 -1 -26.5 -1h-26.5h-10.5t-10.5 -1q-17 0 -19 -18q-1 -6 -1 -12.5v-13.5q1 -14 -0.5 -27t-0.5 -26q1 -16 3.5 -19.5
t18.5 -8.5q20 -5 49 -10.5t49 -10.5q9 -2 12 -12.5t3.5 -22.5t-1 -21.5l-1.5 -9.5q-3 -4 -8 -6q-4 -1 -35.5 -1t-73.5 1t-86 1.5t-73 0.5q-13 0 -25 -0.5t-25 -1.5q-4 0 -7.5 -1t-7.5 0q-16 2 -20 5t-5 15l-3 12q-5 21 2.5 31.5t27.5 15.5q23 5 47 11.5t46 13.5q16 5 16 21
q1 20 -0.5 40t0.5 40q0 15 -14 15h-109q-26 -1 -51.5 -2t-51.5 -1q-33 0 -66 0.5t-66 0.5q-16 0 -31 0.5t-31 1.5q-26 2 -34 27q-9 27 -2 58q1 11 12 20q35 36 70.5 71.5t70.5 71.5l46 46t44 47q14 15 27 29.5t30 25.5q14 9 24 22.5t21 26.5q5 6 9 9.5t12 3.5q35 2 70.5 3.5
t70.5 3.5q13 0 26 5q12 3 19.5 -2.5t7.5 -17.5v-159h-2zM191 314q13 0 25 -0.5t23 0.5q52 2 103.5 0t102.5 0q18 1 26.5 0.5t12.5 3.5t4 13.5t2 29.5q4 44 5 90t1 90v27q-2 14 -15 14q-12 1 -25.5 -2.5t-21.5 -12.5q-26 -27 -52.5 -53.5t-52.5 -54.5q-35 -35 -69 -71
t-69 -74z" />
    <glyph glyph-name="five" unicode="5" horiz-adv-x="720" 
d="M73 428q3 58 6 115.5t5 114.5q0 2 0.5 3t0.5 3q2 7 3 14.5t4 13.5q5 7 11.5 4t13.5 -3q8 1 16 2.5t16 1.5h38h61t72 -0.5t72.5 -0.5h61.5h39q27 0 53.5 1t52.5 1q20 0 25.5 -6t6.5 -26q1 -31 1 -62t1 -62v-10.5t-1 -10.5q-4 -14 -17 -13h-18.5t-19.5 2q-30 5 -39 32
q-4 11 -7.5 22.5t-5.5 22.5q-4 15 -19 15h-70q-31 0 -61 0.5t-60 -0.5q-28 -1 -55 -2.5t-54 -3.5q-15 -2 -18 -5.5t-5 -18.5q-2 -26 -3 -51.5t-3 -51.5q-1 -8 -1 -15v-15q0 -13 12 -9q2 0 3 1q49 23 100.5 30.5t104.5 5.5q107 -5 196 -65q23 -16 38.5 -38.5t26.5 -47.5
q15 -31 16.5 -63t-4.5 -64q-1 -7 -5.5 -25t-15 -42t-29.5 -49.5t-49 -46.5t-73.5 -35t-102.5 -14q-63 0 -113.5 13t-88.5 31t-62 36t-34 29q-14 16 -20 34.5t-10 38.5q-4 14 11 21q12 5 23 6t20.5 1t20.5 1q18 1 26.5 -4.5t14.5 -22.5q2 -5 3.5 -9t5.5 -7q12 -10 25 -21
t27 -16q29 -9 58.5 -14.5t59.5 -9.5q26 -4 51.5 0.5t50.5 11.5q19 5 35.5 14.5t32.5 20.5q25 18 32.5 43.5t6.5 53.5q0 12 -3 23.5t-5 23.5q-1 6 -9 22.5t-30 33.5t-61.5 30t-104.5 13q-36 0 -60.5 -4.5t-42.5 -11t-33 -14.5t-33 -15q-7 -3 -14 -10q-8 -10 -18.5 -12
t-21.5 0q-9 2 -17.5 3.5t-17.5 3.5q-17 4 -23 12t-6 25v23t0.5 25t1.5 20.5z" />
    <glyph glyph-name="six" unicode="6" horiz-adv-x="757" 
d="M620 586q1 -12 1.5 -25.5t0.5 -27.5q1 -23 -21 -27q-7 -2 -13 -2h-13q-17 -2 -22.5 2t-9.5 21q-2 11 -3.5 22t-3.5 22q-2 14 -6.5 17.5t-17.5 7.5q-32 9 -63 6t-62 -8q-28 -5 -54.5 -14t-49.5 -26q-28 -21 -52.5 -46t-35.5 -61q-3 -12 -7.5 -24t-8.5 -24q-1 -4 1 -11
q2 -1 5 -1t5 2q21 11 43.5 15t44.5 9q32 9 64 11.5t64 1.5q20 0 39 1t38 -1q137 -8 207 -126q18 -31 20.5 -64.5t-7.5 -67.5q-9 -29 -23 -55.5t-36 -48.5q-32 -31 -73 -49q-17 -8 -34.5 -15t-34.5 -10q-33 -5 -66 -9t-66 -3q-48 0 -103 20t-101.5 58t-77.5 94.5t-31 129.5
q0 78 15.5 138.5t40.5 105.5t57 76.5t65 53.5q2 1 2.5 1.5t2.5 1.5q53 20 106.5 38t112.5 14q26 -2 50.5 -4.5t49.5 -6.5q12 -2 23.5 -7t23.5 -10q10 -4 11.5 -13t2.5 -17q1 -16 0.5 -31.5t-0.5 -33.5zM422 330q-6 -1 -17.5 -2.5t-23.5 -2.5q-38 -1 -79.5 -8.5t-76.5 -20.5
q-11 -4 -21 -8t-20 -9q-18 -7 -13 -27q3 -12 5 -24.5t6 -24.5q15 -45 49 -74.5t79 -43.5q29 -9 58.5 -12t60.5 2q27 5 53 13t50 22q62 37 63 106q1 26 -9 47.5t-32 32.5q-28 16 -60 24.5t-72 9.5z" />
    <glyph glyph-name="seven" unicode="7" horiz-adv-x="727" 
d="M37 655q0 4 -0.5 7.5t1.5 7.5q1 5 3.5 8t10.5 2h64t99 -0.5t116 -0.5h116h98.5h63.5q9 0 18 -1t17 0q17 0 18 -15q8 -53 0 -106q-9 -60 -54 -102q-19 -17 -38 -32.5t-39 -32.5q-29 -24 -57.5 -48.5t-46.5 -58.5q-15 -29 -27.5 -58t-24.5 -58q-21 -54 -19 -116v-9t-1 -9
q-1 -8 -1 -17.5t-5 -15.5q-6 -8 -15.5 -3.5t-17.5 4.5t-16 -0.5t-16 -0.5q-14 1 -18 5.5t-5 17.5q-5 48 1.5 93.5t20.5 90.5q48 159 184 259q9 6 21.5 18t24.5 24t21 21.5t10 10.5q5 7 11 14.5t2 16.5q-5 8 -14.5 8.5t-17.5 -0.5h-27h-64.5h-84.5h-87h-71h-38q-14 0 -19 -4
t-8 -18q-1 -6 -4.5 -19.5t-7.5 -29t-8 -29t-6 -18.5q-12 1 -24 0.5t-23 1.5q-3 0 -6 4t-5 8q-4 11 -4 26q-1 10 -1 32v46v45.5v30.5z" />
    <glyph glyph-name="eight" unicode="8" horiz-adv-x="757" 
d="M201 385q-3 3 -15.5 6t-28 12t-31.5 26t-28 47q-8 23 -4.5 46t12.5 46q20 52 60.5 79t90.5 41q7 2 13.5 2.5t12.5 2.5q29 10 58 13t57.5 1.5t57.5 -6t59 -10.5q39 -9 64 -32t40 -48.5t21 -48t6 -30.5q-3 -44 -16.5 -70.5t-31 -41t-36 -21t-31.5 -11.5q13 -2 31 -7
t37.5 -15.5t39 -26t37.5 -38.5q4 -5 8.5 -19t7 -32.5t2 -40t-7.5 -42.5q-14 -41 -38 -74.5t-61 -57t-88 -36t-120 -12.5q-19 0 -46.5 4t-56 10t-55.5 13.5t-45 15.5q-7 3 -19.5 11.5t-27 20.5t-28 27.5t-22.5 32.5q-10 32 -14.5 64.5t6.5 66.5q6 19 18.5 35.5t28 31.5
t33.5 28.5t34 24.5q4 2 7.5 5t8.5 7zM394 91q26 -2 50.5 2.5t49.5 14.5q56 20 80 74q22 48 -16 86q-19 17 -40.5 28.5t-47.5 16.5q-30 6 -60.5 12t-60.5 14q-12 3 -23 3.5t-22 -4.5q-7 -3 -14 -5t-14 -5q-26 -10 -48.5 -25t-42.5 -34q-10 -9 -14.5 -24t-4 -31t5.5 -30.5
t14 -22.5q17 -15 35.5 -27.5t41.5 -20.5q32 -11 64.5 -15.5t66.5 -6.5zM219 567q-12 -10 -17 -24t-2.5 -28.5t11 -27t22.5 -19.5q10 -5 20 -8.5t21 -5.5q31 -7 61 -12t61 -10q37 -7 67 5.5t55 38.5q12 13 17 28t2.5 30t-11 28.5t-23.5 22.5q-11 6 -42 18t-82 12
q-19 0 -41.5 -3.5t-44.5 -10t-41.5 -15.5t-32.5 -19z" />
    <glyph glyph-name="nine" unicode="9" horiz-adv-x="752" 
d="M600 313q-21 -11 -40 -20t-37 -18q-38 -20 -84 -27t-89 -7q-25 0 -66 3.5t-84.5 17.5t-82.5 43t-60 79q-11 39 -10.5 77.5t17.5 76.5q8 21 21.5 38t28.5 34q35 35 77 56.5t90 32.5q34 8 68 13t69 3q44 0 94.5 -19t93.5 -62t71.5 -113t28.5 -172q0 -59 -20 -111.5
t-48 -93.5t-58 -69.5t-50 -40.5q-19 -11 -42 -21t-47 -17.5t-47 -11.5t-43 -4q-40 0 -95.5 7.5t-105.5 21.5q-18 5 -25.5 14.5t-8.5 26.5q-1 20 -1.5 39.5t-2.5 39.5v13.5t-2 13.5q-4 16 12 19q15 3 29 3q18 1 24 -4t11 -22q0 -3 2 -9q5 -17 8.5 -26.5t9.5 -14.5t16 -7
t28 -3q52 -5 102.5 -3.5t101.5 18.5q42 14 73 44.5t47 72.5q4 11 10.5 22.5t8.5 22.5zM344 334q76 -2 143 31q23 11 47 25t44 28q13 10 14.5 16.5t-1.5 22.5q-6 34 -24 62.5t-44 49.5t-58.5 33t-69.5 13q-22 0 -49 -4.5t-54 -12.5t-51 -19t-40 -24q-26 -20 -41.5 -46
t-9.5 -61q5 -29 23.5 -49t38.5 -34q14 -11 31 -15l34 -8q16 -5 33 -5.5t34 -2.5z" />
    <glyph glyph-name="colon" unicode=":" horiz-adv-x="402" 
d="M228 130q29 -8 43.5 -27.5t10.5 -48.5q-4 -27 -23.5 -45t-47.5 -16q-18 1 -34.5 5.5t-30.5 17.5q-41 37 -8 81q14 18 41 28t49 5zM146 400q-7 2 -11.5 10.5t-6 19t-0.5 20.5t5 16q11 17 33 28.5t42 7.5q23 -3 46 -12q10 -3 17 -14q9 -12 10 -26.5t-4 -28t-15.5 -23.5
t-25.5 -13q-5 -2 -11 -2.5t-12 -2.5q-18 0 -34 7t-33 13z" />
    <glyph glyph-name="semicolon" unicode=";" horiz-adv-x="411" 
d="M237 127q26 -12 41 -39t13 -61q-1 -30 -14 -59t-30 -52t-34 -39t-26 -22q-8 -5 -17.5 -5h-19.5q-8 0 -10.5 6t2.5 13q1 2 4 5q21 22 35 49.5t23 56.5q2 8 -5.5 12.5t-15.5 6.5q-23 6 -40 24q-16 18 -15.5 42.5t18.5 42.5q22 21 43.5 25.5t47.5 -6.5zM160 393
q-33 14 -35 51q-3 32 29 50q63 37 119 -12q8 -7 10 -14.5t2 -22.5q2 -24 -22 -40q-50 -34 -103 -12z" />
    <glyph glyph-name="question" unicode="?" horiz-adv-x="703" 
d="M594 625q21 -29 26.5 -62.5t-2.5 -70.5q-8 -36 -26.5 -58.5t-39.5 -36.5t-40.5 -21.5t-28.5 -12.5q-17 -10 -34.5 -19.5t-34.5 -20.5q-23 -15 -40.5 -35.5t-25.5 -49.5q0 -2 -1 -3q-8 -12 -18.5 -10.5t-21.5 -0.5q-8 -2 -14.5 -0.5t-11.5 9.5q-2 3 -2 7v7q2 19 8.5 36
t16.5 33q18 32 43 56.5t55 43.5q22 14 44 25.5t44 22.5q19 10 31 26t12 44q0 13 -9.5 26.5t-28.5 24t-47.5 17t-67.5 6.5q-13 0 -30 -2t-35.5 -6t-37.5 -9.5t-35 -12.5q-18 -8 -35.5 -20t-18.5 -32q0 -2 -0.5 -8.5t-1.5 -15t-2.5 -16t-2.5 -11.5q-5 -14 -5.5 -18.5
t-14.5 -4.5q-33 -1 -43.5 9.5t-11.5 43.5q0 7 -0.5 22t-0.5 31.5t2.5 30.5t8.5 20q50 44 111 65q30 10 58.5 16.5t58 9.5t61 1.5t66.5 -5.5q37 -5 68.5 -23t54.5 -48zM270 97q16 11 33 14t33 0t30 -10.5t24 -17.5q8 -8 9.5 -21t-3.5 -24q-9 -25 -25 -34.5t-53 -10.5
q-16 3 -35 8.5t-31 27.5q-11 20 -5.5 37.5t23.5 30.5z" />
    <glyph glyph-name="A" unicode="A" horiz-adv-x="1036" 
d="M327 604q-26 3 -48.5 6t-45.5 6q-5 1 -9 0.5t-9 0.5q-14 2 -18.5 7t-5.5 20q0 12 -0.5 23.5t-0.5 23.5q0 11 13 11q51 1 101.5 -2.5t101.5 1.5q28 2 55 2h54q24 0 47.5 -1.5t47.5 -1.5l96 2t96 3q8 0 17 3q13 4 16 2t3 -14q-1 -14 -1 -28t-1 -28q-1 -11 -14 -13
q-17 -3 -33 -6.5t-33 -7.5q-5 -1 -10 -1.5t-10 -2.5q-7 -2 -14.5 -4t-12.5 -7q-2 -2 1.5 -9.5t5.5 -13.5t3.5 -12.5t3.5 -13.5q4 -13 7.5 -25.5t7.5 -24.5q5 -14 9.5 -27t9.5 -26q8 -21 16.5 -42.5t18.5 -41.5q22 -47 39.5 -94t29.5 -97q4 -13 8.5 -25.5t8.5 -25.5
q7 -25 34 -28q9 -1 18.5 -2t19.5 -2q14 -1 28 -1t28 -2q4 0 9 -3.5t6 -6.5q4 -12 6.5 -24.5t1.5 -24.5q0 -11 -8 -17.5t-19 -10.5q-5 -2 -10.5 -2h-10.5q-29 -2 -58.5 -3.5t-59.5 -2.5q-17 -1 -35 0.5t-35 1.5q-31 -1 -61 -2t-60 -3q-23 -1 -31 15q-4 9 -6.5 18t-3.5 19
q-2 17 4 23.5t23 9.5q8 2 16 3.5t16 3.5q12 3 24 5.5t25 5.5q7 2 14 3t15 3q12 4 15 9.5t-1 16.5q-9 26 -19 51t-20 51q-6 14 -20 13q-13 0 -25.5 -0.5t-24.5 -0.5q-20 -2 -40 -2.5t-40 -2.5q-58 -2 -114 0t-114 0q-15 -1 -29.5 -1t-29.5 -1q-14 -1 -20 -15
q-8 -22 -16.5 -47t-16.5 -47q-6 -16 12 -17q25 -4 50 -7.5t50 -6.5q12 -1 13 -12t2 -21t1 -20q1 -18 -4 -23t-22 -6q-15 -1 -29.5 -1.5t-29.5 -0.5q-56 -4 -122.5 -6t-129.5 3q-29 -3 -35 22q-2 10 -2.5 20t-0.5 21q0 3 3.5 6.5t6.5 5.5q13 6 26.5 7.5l27 3t27 5t27.5 14.5
q25 11 35 36q13 36 26.5 81t27.5 80q9 24 18 47.5t17 47.5q10 24 19 52t19 55.5t20 52.5t21 45zM596 325q23 1 44.5 1.5t44.5 0.5q13 1 9 14q-1 2 -3 8q-20 54 -40 106.5t-40 106.5q-2 5 -4 9.5t-4 9.5q-6 16 -25 16q-35 -2 -69 -3t-69 -2q-16 -1 -22 -16q-5 -15 -9.5 -30
t-9.5 -29q-15 -40 -30.5 -80t-30.5 -80q-5 -12 -8 -22q-3 -11 0.5 -15.5t15.5 -3.5q75 4 134 6.5t116 2.5z" />
    <glyph glyph-name="B" unicode="B" horiz-adv-x="998" 
d="M419 -1q-21 0 -41.5 -0.5t-41.5 0.5q-47 1 -93.5 2t-94.5 3q-12 0 -24 -1t-23 -2q-18 0 -26.5 7.5t-10.5 24.5q-1 4 -0.5 7.5t-0.5 7.5q-5 18 -2.5 21.5t20.5 8.5q29 8 58.5 16t58.5 16q15 5 15 21q-2 38 -3.5 75.5t-3.5 75.5q-1 9 -1 17.5v17.5q-2 60 -3.5 119.5
t-2.5 119.5q-1 15 0 25t-13 14q-19 6 -44.5 11t-45.5 10q-11 3 -18 5t-11 5.5t-5.5 10.5t-2.5 22v6q-6 43 39 43q25 1 49 0.5t49 -1.5q48 -1 95.5 -2.5t95.5 -1.5q42 -1 82.5 2t82.5 1q48 -2 95.5 -4.5t95.5 -14.5q30 -8 58 -29t45 -45q20 -30 27 -57t4 -65
q-2 -31 -18 -57.5t-60 -46.5q-4 -5 -2 -6t0 -4q38 -8 62 -15.5t41 -18.5q10 -7 19.5 -18.5t16 -23.5t11 -24t6.5 -20q9 -56 -8 -105.5t-62 -87.5q-23 -20 -50 -28t-55 -16q-21 -5 -34 -8t-27.5 -4.5t-33.5 -2.5t-51 -1q-45 -3 -89 -4t-89 -3q-8 -1 -17 -0.5t-18 0.5v2z
M654 108q32 0 62.5 4t60.5 13q29 9 47 38q21 36 19.5 64t-21.5 47.5t-56.5 29t-85.5 9.5q-39 0 -77.5 -0.5t-77.5 1.5q-57 -1 -102 0t-92 -5q-18 -2 -19.5 -4t-0.5 -20q2 -36 3.5 -76.5t3.5 -76.5q2 -14 4.5 -17t16.5 -7q5 -1 10 -1.5t10 -0.5q51 1 86 1.5t66.5 0.5h64h78.5
zM405 595q-20 -1 -40 -1.5t-40 -1.5q-14 -2 -17 -4.5t-3 -16.5q1 -35 2 -71t2 -71q1 -14 3.5 -17t16.5 -3q27 -1 50.5 -2.5t50.5 -1.5q32 1 59.5 1t60.5 -1q20 0 49 1t49 2q26 1 48 9t40 27q35 35 29 80q-2 18 -16.5 33t-32.5 20q-14 3 -25 6.5t-24.5 6.5t-31.5 5t-45 2
q-42 0 -91 2.5t-94 -4.5z" />
    <glyph glyph-name="C" unicode="C" horiz-adv-x="921" 
d="M870 502v-12t-2 -11q-2 -16 -17 -17q-13 -1 -25 -2t-25 -3q-15 -1 -22 12q-10 14 -14.5 29t-15.5 29q-6 8 -14 15t-17 13q-38 23 -82.5 37.5t-89.5 17.5q-17 2 -33.5 4t-33.5 2q-142 0 -245 -101q-76 -76 -79 -185q0 -8 1.5 -15.5t3.5 -13.5q18 -59 55.5 -97.5
t89.5 -61.5t116 -33t134 -12q21 -1 42 3.5t42 9.5q27 6 54.5 13.5t53.5 16.5q14 5 27.5 13t26.5 17q8 5 17 10t14 15q3 5 10 3.5t9 -7.5q5 -12 9.5 -24.5t2.5 -26.5q0 -2 -0.5 -3t-0.5 -3q6 -27 -8.5 -42.5t-34.5 -25.5q-148 -76 -316 -78q-64 -1 -125 10.5t-115 35
t-98 60.5t-73 87q-25 44 -37.5 90t-6.5 97q8 61 31.5 115.5t65.5 101.5q35 39 84 66t104 43.5t110.5 22t103.5 0.5l14 -2t15 -3q32 -8 63 -16.5t62 -17.5q13 -5 25 -11.5t25 -12.5q14 -8 18.5 -6.5t9.5 15.5q2 8 4 14.5t4 14.5q4 16 21 16q9 -1 18 -0.5t18 -1.5
q17 -2 21.5 -7t4.5 -22q0 -44 0.5 -71.5t0.5 -46.5v-31.5t-1 -25.5z" />
    <glyph glyph-name="D" unicode="D" horiz-adv-x="1046" 
d="M443 -1q-31 2 -67.5 2h-74.5q-40 0 -79.5 -1.5t-79.5 -3.5q-15 -1 -30.5 -1t-31.5 -1q-13 0 -16 14q-3 12 -1.5 24t-1.5 24q-2 7 1.5 10t8.5 5q18 5 31.5 9t31.5 9q22 6 32.5 8.5t14 7.5t2.5 15.5t-1 31.5q1 27 1.5 53.5t0.5 53.5q0 23 -0.5 47t-0.5 47q-1 13 -1.5 25.5
t-1.5 24.5q-1 42 -2 82.5t-2 82.5q-1 14 -3 17t-16 7q-20 6 -40 11l-40 10q-3 1 -6.5 2.5t-5.5 3.5q-7 13 -7 26t3 26q1 3 5.5 6t7.5 3q17 -2 34.5 -0.5t38.5 3.5h45q18 1 32 1t26.5 -0.5t26.5 -1t32 -0.5q35 2 69.5 2.5t69.5 1.5q10 0 19 1t19 1q31 -1 62 -1.5t62 -3.5
q33 -3 65.5 -7.5t64.5 -11.5q22 -5 42.5 -13.5t40.5 -19.5q26 -14 52.5 -29t46.5 -38q39 -42 53.5 -84.5t24.5 -88.5q-1 -23 -1 -47t-1 -47q-5 -30 -11 -51.5t-14 -39t-18 -33.5t-23 -35q-29 -37 -64.5 -65.5t-80.5 -45.5q-33 -11 -66.5 -17t-68.5 -9q-50 -5 -101 -1
t-108 -1zM661 105q25 0 47.5 8t45.5 17q10 3 18.5 8.5t16.5 12.5q23 21 43 46.5t33 54.5q5 10 7.5 20.5t5.5 21.5q8 28 6 56t-7 55q-4 26 -15 53t-32 43q-15 10 -26.5 21t-24 20t-27.5 16t-36 10q-23 11 -49 10.5t-51 2.5q-17 1 -37 2.5t-41 2.5t-41 0.5t-37 -1.5
q-21 -2 -38 -3t-33 -1t-33 0.5t-38 0.5q-17 0 -21 -4.5t-4 -21.5q-1 -20 -3 -42.5t0 -42.5q3 -47 3 -100t-3 -127q1 -29 1.5 -60.5t2.5 -60.5q0 -12 2.5 -14t14.5 -3q35 -2 75.5 -2t76.5 -1q29 0 53.5 -0.5t48 0t46.5 1t50 1.5z" />
    <glyph glyph-name="E" unicode="E" horiz-adv-x="935" 
d="M536 112l195 3h9q21 1 25.5 5t9.5 24l10 42t10 41q4 14 9 17.5t19 2.5q15 -1 23 -2t12 -5t5.5 -12t2.5 -23q2 -32 2.5 -69.5t2.5 -69.5v-20q0 -10 2 -20.5t-2 -16.5q-3 -5 -7 -5t-9 1t-10 2.5t-9 1.5q-60 -4 -119.5 -2.5t-119.5 -1.5q-57 -3 -112.5 -3t-111.5 -1
q-25 -1 -49 0.5t-49 2.5q-43 2 -85.5 2t-84.5 -9q-22 -4 -31 4t-10 30v15q0 11 0.5 17.5t3.5 10.5t9.5 7t17.5 6q21 6 42.5 12t42.5 12q15 5 18 8t3 18q0 29 -0.5 57.5t-0.5 57.5q-1 38 -1.5 77t-2.5 77q-2 35 -3.5 70.5t-3.5 70.5q0 3 -0.5 6t0.5 6q6 36 -29 46q-7 2 -13 6
t-13 7q-12 5 -23.5 11.5t-26.5 4.5q-8 0 -12 6q-18 26 -12 56q1 2 4.5 5t5.5 2q85 -8 170 -5t170 2q93 -2 186 0q37 0 73.5 1.5t73.5 2.5q22 0 43.5 -1t42.5 -3q18 -1 24 -8t6 -26q1 -41 1.5 -81t0.5 -82v-11q-2 -7 -5.5 -11t-10.5 -2q-23 7 -47 1q-2 -1 -6.5 2.5t-5.5 6.5
q-6 25 -17 47.5t-20 45.5q-6 16 -22 15q-18 -1 -33 -1t-30 1t-32 1t-40 -1q-22 -1 -44 0t-44 1q-44 -1 -87.5 -1.5t-87.5 -1.5q-3 -1 -8 -1q-18 -2 -21.5 -5t-2.5 -21q1 -35 2 -69.5t3 -69.5q0 -11 3.5 -14t14.5 -3q23 0 45.5 0.5t45.5 1.5q29 0 56.5 -0.5t56.5 0.5
q29 0 57.5 1t57.5 2q20 0 25.5 -5.5t7.5 -24.5q1 -10 2 -19t3 -19q3 -18 -3 -25t-25 -8q-57 -1 -112.5 -0.5t-112.5 -0.5q-23 -1 -46 -0.5t-46 -0.5q-18 -1 -21.5 -4.5t-3.5 -20.5q0 -37 0.5 -74t1.5 -74q0 -11 1 -16.5t4 -8t9.5 -3t17.5 -0.5q49 1 97.5 0.5t97.5 -0.5v-1z
" />
    <glyph glyph-name="F" unicode="F" horiz-adv-x="904" 
d="M374 399q46 -1 91.5 -1t91.5 -1q23 0 47 -0.5t47 -0.5q19 0 19 -18q2 -26 10 -49q2 -5 1 -11t-3 -12q-1 -2 -4.5 -5t-5.5 -2q-17 8 -33.5 5.5t-33.5 -1.5q-32 2 -65 3.5t-65 1.5q-32 -1 -65 -2t-65 -3q-10 -1 -15.5 -2t-8 -4t-3 -8.5t-0.5 -15.5q0 -16 -0.5 -31.5
t2.5 -30.5v-82q0 -23 24 -29l77 -8q15 -5 16 -22q1 -11 2.5 -22t2.5 -22q1 -12 -7 -20.5t-21 -8.5q-34 2 -71 1t-72 1q-43 1 -85.5 1h-85.5q-15 0 -18.5 2.5t-5.5 17.5q-2 9 -3 18.5t-2 19.5t3 14.5t15 7.5q23 7 46.5 13.5t46.5 14.5q10 4 15.5 6.5t7 5.5t1.5 7.5v13.5v88
t-1 87v106.5t-1 106.5q0 6 -0.5 12.5t-1.5 13.5q-2 17 -9.5 27.5t-25.5 15.5q-20 5 -39.5 12.5t-40.5 6.5q-14 0 -17 14q-4 12 -6 26q-3 24 3 30.5t32 4.5q14 -1 26.5 -0.5t26.5 0.5q25 0 50 0.5t50 -0.5q86 -2 171 0.5t171 6.5q44 2 87.5 1.5t87.5 -0.5q11 0 22 0.5
t22 -0.5q10 -1 19 -1.5t19 -1.5q14 -1 17 -18v-11q2 -45 1.5 -85.5t-0.5 -79.5q-2 -6 0 -14q3 -13 1 -16t-13 -3q-12 -1 -23.5 -0.5t-23.5 1.5q-20 2 -26 21q-5 19 -5.5 38t-5.5 38q-2 7 -5 11.5t-12 -1.5q-89 0 -177 -0.5t-178 -1.5h-35t-35 -1q-14 -1 -17.5 -4.5
t-3.5 -17.5q0 -10 -0.5 -20.5t0 -24t1.5 -30.5t4 -41q-4 -28 1 -34t33 -4q8 0 14.5 0.5t14.5 0.5v-1z" />
    <glyph glyph-name="G" unicode="G" horiz-adv-x="941" 
d="M544 97q38 -3 75.5 1.5t75.5 11.5q21 4 39.5 16.5t35.5 23.5q3 2 4.5 6t1.5 9q1 17 0.5 34t-1.5 34q0 14 -4 19t-17 7q-37 4 -75 13.5t-75 11.5q-14 1 -17 4.5t-4 16.5l-2 22t-1 22q-1 17 18 17q54 1 107 1t107 1h27q41 -4 44 -45v-62.5t0.5 -52.5t0.5 -49t-1 -52
q-1 -10 -7 -17t-14 -11q-11 -6 -21 -13.5t-20 -15.5q-48 -38 -103 -52.5t-116 -17.5q-48 -2 -97 2t-95 13q-88 16 -163.5 53t-137.5 98q-15 23 -28 45.5t-21 48.5q-20 66 -12.5 128.5t35.5 123.5q17 38 43.5 68t60.5 55q31 23 64 39.5t68 30.5q52 20 105 30t108 3
q61 -8 120 -23.5t111 -51.5q6 -5 9.5 -2.5t5.5 8.5q2 9 5 18t5 19q4 17 22 20q12 1 23.5 3t22.5 4q17 1 17 -15q-1 -43 -1.5 -85t-0.5 -84q-1 -8 -1 -17t-1 -18q0 -17 -18 -20q-8 -2 -17 -4t-17 -1q-28 2 -44 22q-18 24 -41 42.5t-47 35.5q-11 8 -24.5 12.5t-26.5 9.5
q-23 10 -48 12l-50 4q-43 5 -84 -1.5t-82 -20.5q-28 -9 -55 -20.5t-52 -28.5q-19 -14 -34 -29t-26 -35q-24 -42 -35 -85.5t0 -92.5q12 -51 51 -90q32 -32 70.5 -48.5t79.5 -30.5q14 -5 28.5 -9t28.5 -8q58 -17 118 -11z" />
    <glyph glyph-name="H" unicode="H" 
d="M249 0h-150q-17 0 -22 17q-6 21 -9 42q-2 9 5.5 17.5t16.5 8.5q24 0 46.5 6.5t45.5 13.5q8 2 9.5 6.5t1.5 11.5q1 42 1.5 82.5t-0.5 82.5q-2 65 -3.5 128.5t-3.5 128.5q0 8 -1 12q0 14 -1 22t-4.5 12.5t-10.5 7.5t-20 7l-34 10l-34 10q-8 3 -13.5 8t-6.5 15q0 5 -1 8.5
t-2 8.5q-1 17 5 23.5t23 5.5q48 -2 95.5 -3.5t95.5 -3.5q4 0 7.5 -0.5t7.5 -0.5q27 1 54.5 1t54.5 1q26 1 32 -5t7 -32q0 -17 -6 -25.5t-23 -12.5q-16 -4 -32 -6.5t-32 -6.5q-21 -4 -31.5 -6.5t-14 -7.5t-3.5 -14.5v-27.5v-109q0 -5 0.5 -10.5t0.5 -10.5q0 -13 13 -13
q37 -2 73.5 0t74.5 1q26 0 52.5 -1t53.5 1q19 1 38 1.5t38 2.5q34 -1 58.5 -1t45 1t38.5 2t41 2q14 -2 18.5 2t4.5 19q1 38 1.5 76.5t0.5 76.5q0 18 -4.5 22.5t-22.5 8.5q-16 3 -31 4.5t-31 3.5q-17 3 -25.5 11t-10.5 25q-3 15 -1 35q0 15 16 12q23 -5 46.5 -3.5t46.5 3.5
q15 2 30 0.5t29 -2.5q7 0 13.5 -1t13.5 0h47.5h35.5t31 -0.5t33 -1.5q15 0 18 -3.5t3 -19.5q0 -8 -0.5 -16t-0.5 -16q-1 -17 -6.5 -24t-22.5 -9q-20 -3 -38.5 -4.5t-38.5 -3.5q-11 -1 -14 -3.5t-4 -13.5q-1 -17 -1.5 -32.5t-0.5 -32.5q2 -50 3.5 -99t2.5 -99q1 -39 0 -78
t-1 -79q0 -11 0.5 -23t0.5 -24q0 -18 19 -22q24 -5 48.5 -11t48.5 -11q12 -2 18.5 -8t8.5 -18q0 -6 1.5 -12t1.5 -11q-1 -20 -7.5 -26.5t-26.5 -7.5q-59 -2 -118 0q-53 1 -105 2t-105 1q-9 0 -15 2.5t-9 12.5q-3 9 -6.5 18.5t-5.5 20.5q-3 25 25 29q15 3 30.5 5.5t30.5 4.5
q11 2 23 5t23 6q13 3 13 17q-1 11 -0.5 22.5t-0.5 22.5q-1 29 -1.5 59t-2.5 59q-1 13 -2 20.5t-5 11t-12 4t-22 -0.5q-20 -2 -39.5 -2.5t-39.5 -2.5q-21 -1 -41.5 -2.5t-41.5 -2.5q-44 -1 -87 -1h-87q-15 -1 -29.5 -2t-29.5 -1q-25 0 -50 0.5t-50 1.5q-11 0 -14.5 -2.5
t-3.5 -13.5q0 -41 0.5 -80.5t1.5 -79.5q0 -17 4.5 -20.5t21.5 -7.5q23 -5 44.5 -10t44.5 -10q3 -1 7 -4.5t4 -7.5q2 -14 3.5 -27.5t1.5 -27.5q0 -3 -3.5 -6.5t-7.5 -5.5q-11 -3 -23 -3h-151v1z" />
    <glyph glyph-name="I" unicode="I" horiz-adv-x="510" 
d="M315 128q0 -18 3 -22t20 -9q17 -6 39.5 -9t41.5 0q35 6 32 -29q-1 -11 -2 -21t-3 -20q-2 -11 -6 -15t-15 -4q-35 0 -70.5 1t-70.5 -1q-29 -2 -56 0.5t-55 3.5q-14 1 -27 -1t-26 -2q-9 -1 -18 -0.5t-18 0.5q-15 2 -17 17q-1 5 -1 15q1 12 0.5 24.5t4.5 21.5q6 10 19 10.5
t24 2.5q39 7 78 18q16 4 19.5 8t2.5 20v63.5t-2 63.5q-2 47 -1.5 93t-2.5 93q-1 24 0 47.5t-1 46.5v30q-1 10 -3.5 14t-12.5 6q-22 5 -49.5 10t-49.5 10q-17 4 -24 12t-8 26q-1 10 -1 20.5t9 18.5q4 4 8 6.5t9 -1.5q11 1 17 1t10 -0.5t7.5 -0.5h8.5q48 5 94.5 0.5t94.5 -3.5
q29 0 58.5 -5t58.5 3q13 3 13 -11l-2 -34t-3 -34q-1 -12 -16 -13q-15 -2 -34.5 -4t-34.5 -6q-19 -5 -28 -7.5t-12.5 -7t-3 -13t0.5 -26.5q0 -36 1 -72l2 -72v-77q-2 -47 -2 -93v-93z" />
    <glyph glyph-name="J" unicode="J" horiz-adv-x="517" 
d="M230 502q-1 17 -1.5 33.5t-0.5 33.5q0 14 -14 19q-25 8 -49.5 16.5t-48.5 16.5q-17 5 -18 20q-1 8 -2 15t-2 15q-3 31 26 31q28 0 55.5 -1t56.5 -3q8 0 15 -0.5t14 0.5q41 3 80 -1.5t79 -4.5q9 0 18 -0.5t17 4.5q5 3 9 0.5t4 -7.5q2 -14 2.5 -27.5t-0.5 -27.5
q0 -8 -5 -11t-13 -5q-45 -11 -90 -26q-15 -5 -18.5 -10.5t-3.5 -22.5q0 -73 0.5 -146t4.5 -146q1 -17 1.5 -37.5t-1.5 -37.5q-2 -34 -6.5 -62.5t-7.5 -62.5q-2 -10 -3.5 -19.5t-4.5 -18.5q-12 -41 -31 -77.5t-50 -67.5q-2 -2 -3 -3.5t-3 -3.5q-37 -25 -76 -44t-84 -26
q-20 -3 -39 -3q-13 -1 -21.5 5.5t-10.5 17.5q-2 18 -3 36.5t-2 36.5q0 15 16 15q8 0 17 0.5t18 -0.5q28 -2 51.5 8.5t43.5 25.5q26 20 44 45.5t26 57.5q8 28 12.5 56t5.5 57t0.5 57.5t1.5 57.5q0 20 -0.5 40t-0.5 40q-3 35 -3 71t-2 71z" />
    <glyph glyph-name="K" unicode="K" horiz-adv-x="1129" 
d="M316 294q16 11 28.5 19t24.5 16q66 48 136 95.5t136 95.5q25 18 51 35l52 34q9 5 23 15q-6 2 -10 3l-8 2q-21 3 -42.5 6t-42.5 6q-17 2 -22 6.5t-10 21.5l-2 12t-1 11q0 18 4.5 22t23.5 3q11 -1 22 -0.5t22 0.5q15 0 30 1.5t29 -0.5q35 -4 70.5 -0.5t70.5 2.5
q27 -1 53.5 0t53.5 0q11 0 23 -1t24 -3q13 -2 13 -13q1 -24 0 -47q0 -5 -2.5 -9.5t-9.5 -5.5q-23 -1 -44.5 -7.5t-44.5 -8.5q-9 -2 -18.5 -4.5t-18.5 -2.5q-15 0 -26 -6.5t-22 -14.5q-48 -36 -95 -72t-95 -72q-11 -9 -12 -12t9 -15q15 -19 30.5 -37.5t30.5 -38.5
q23 -30 45.5 -61t47.5 -60l40 -46t43 -42q17 -14 34 -18q26 -6 52.5 -12t53.5 -11q18 -3 20 -21q2 -11 3 -22t1 -22q1 -17 -18 -17q-16 0 -32 -0.5t-32 -1.5q-13 -1 -25.5 -1.5t-25.5 0.5q-48 1 -94.5 2t-94.5 3q-15 0 -30.5 1.5t-31.5 0.5q-21 0 -30 20q-5 12 -4 24t4 24
q1 3 5.5 4.5t8.5 2.5q20 5 44 8t44 7q14 3 16 8t-6 16q-23 32 -50.5 64t-50.5 64q-8 12 -16.5 24t-16.5 25q-11 18 -25 32.5t-28 29.5q-9 10 -21 1q-20 -12 -39 -27q-46 -35 -96.5 -69t-96.5 -69q-12 -9 -19.5 -16t-10.5 -14.5t-2.5 -17.5t2.5 -25q3 -12 13 -18
q11 -8 23 -10.5t24 -4.5q14 -2 32.5 -3.5t32.5 -3.5t17.5 -6t3.5 -18q0 -10 -1 -15q0 -9 1 -18.5t-4 -14.5t-14.5 -5.5t-18.5 -1.5q-32 -2 -63 -5t-63 -5q-8 0 -12 1q-25 3 -49.5 2.5t-49.5 -2t-49.5 -3t-49.5 -0.5q-25 0 -29 22q-2 10 -2.5 20t-1.5 21q0 19 18 24
q20 5 40 9.5t40 9.5q11 3 21.5 5t21.5 5q16 3 16 18q0 8 0.5 15t0.5 15q1 63 1.5 126.5t0.5 127.5q0 36 -4 72t-4 73q-1 16 -4.5 19.5t-17.5 9.5q-26 9 -50.5 18.5t-48.5 19.5q-16 6 -13 23q2 7 1.5 14t-2.5 15q-2 13 3.5 21t18.5 9q19 1 38 0.5t39 -0.5h44t44 1
q34 2 68 0.5t68 -5.5q8 -1 16 0.5t16 2.5q17 2 22.5 -2.5t4.5 -22.5v-17t-1 -18q-1 -15 -17 -16q-25 -2 -52 -9t-50 -16q-18 -8 -19 -24q-1 -8 -2 -15t-1 -15q-2 -51 0 -101.5t0 -101.5q0 -11 0.5 -21.5t0.5 -24.5z" />
    <glyph glyph-name="L" unicode="L" horiz-adv-x="851" 
d="M203 0h-59t-59 -1q-14 0 -17 3t-4 17q-2 21 -2 31t3 14.5t11.5 6t24.5 6.5q18 5 35.5 11.5t34.5 12.5q14 5 17.5 10t2.5 21q0 10 -1.5 19.5t-1.5 19.5q-2 59 -3.5 117.5t-3.5 118.5q-1 36 0 72t1 73q0 5 -0.5 10t-0.5 10q0 23 -23 29q-20 5 -38.5 11t-38.5 11
q-19 5 -20 22q-1 11 -2 23t-1 24q0 9 3.5 12t12.5 3q21 -1 41.5 -2.5t41.5 -2.5q26 0 53 0.5t53 0.5l66 -2t67 -3q12 0 14 -15q1 -11 0 -21.5t7 -21.5q4 -4 0 -7t-9 -5l-34 -10l-34 -10q-11 -3 -21 -6.5t-21 -7.5q-14 -5 -14 -20v-56q0 -17 2 -35t2 -54q2 -75 3.5 -148
t3.5 -148q1 -14 3.5 -16.5t17.5 -2.5q38 -1 75.5 -0.5t75.5 -0.5l78 -2l78 -2q17 0 34 0.5t34 0.5q18 1 24 17q8 19 14 37.5t9 38.5q1 4 2 7.5t2 7.5q3 12 6.5 14.5t15.5 3.5q8 1 16 1h16q14 0 19.5 -4.5t5.5 -19.5q1 -24 1 -47.5v-46.5v-89q-1 -17 -5.5 -22.5t-22.5 -6.5
q-31 -1 -62 -1h-62q-124 -2 -238 -2t-229 2z" />
    <glyph glyph-name="M" unicode="M" horiz-adv-x="1390" 
d="M320 212q1 -25 2 -41.5t3 -41.5q0 -11 11 -14q26 -8 58.5 -15t58.5 -14q8 -2 11.5 -5.5t2.5 -12.5q0 -11 1 -23l2 -24t-2.5 -16.5t-17.5 -3.5q-84 2 -162.5 4.5t-158.5 -10.5q-10 -2 -20 -1t-21 0q-18 -2 -23 15q-2 10 -4.5 20t-1.5 20q2 15 7.5 19t21.5 5q3 0 6 -0.5
t6 0.5q23 5 47 10.5t47 11.5q13 3 15.5 6.5t3.5 15.5v33v98t-1 99q0 17 -1 34t-1 34q0 30 0.5 59.5t1.5 58.5v15q-1 17 -5 23t-20 11q-20 8 -40.5 15t-40.5 14q-15 4 -18 20q-2 8 -4 15.5t-4 15.5q-8 26 19 28q71 2 141 4.5t142 4.5q21 2 46.5 0t42.5 -9q3 0 0.5 -2t-2.5 -4
q12 -14 16.5 -28.5t12.5 -30.5l93 -234q27 -67 54 -133.5t55 -134.5q2 -5 4.5 -12t10.5 -7q10 0 11.5 7.5t3.5 14.5q25 85 52 167.5t58 165.5q17 44 32 87.5t30 87.5q5 14 7 24.5t6 24.5q3 12 7.5 15.5t16.5 2.5h37.5t36.5 -1q10 -1 19 0.5t19 0.5h112h41q14 0 27 0.5
t26 0.5q9 1 18 1.5t18 0.5q26 0 35 -25q5 -13 3.5 -25t-7.5 -23q-3 -4 -13 -6q-25 -8 -53.5 -15.5t-54.5 -15.5q-9 -2 -13 -14q-5 -17 -8.5 -34.5t-4.5 -34.5q0 -22 -0.5 -39.5t-0.5 -34.5v-35.5t1 -43.5q1 -14 3.5 -29.5t2.5 -29.5v-86.5t1 -85.5q0 -17 3 -20.5t20 -6.5
q20 -3 40.5 -5.5t40.5 -5.5q5 0 9 -0.5t9 -1.5q12 -3 14 -17q0 -12 1 -23.5t1 -23.5q-1 -12 -5.5 -16.5t-16.5 -5.5q-26 -1 -52 -1h-52q-48 -1 -94.5 -0.5t-94.5 -0.5q-11 0 -23 1t-23 -1q-15 -3 -17 8q-2 14 -7.5 26.5t-3.5 27.5q0 12 12 17q17 4 33 5t33 5q13 4 25.5 7
t26.5 6q11 3 11 15q1 6 1 11.5v11.5q0 48 0.5 94.5t0.5 94.5q0 14 -1.5 28t-1.5 28q-1 32 -1 62.5v62.5v22t-2 22q-2 15 -3.5 23t-6 11.5t-12.5 4t-24 0.5q-17 0 -23 -18q-25 -65 -50.5 -129t-45.5 -131q-3 -11 -7 -22.5t-8 -22.5l-24 -74l-24 -74q-9 -26 -18 -50.5
t-18 -49.5q-6 -17 -18.5 -24.5t-28.5 -8.5q-26 -2 -51.5 -1.5t-51.5 1.5q-10 0 -18.5 6.5t-10.5 14.5q-9 25 -17 50t-19 49q-33 70 -61.5 141t-57.5 142q-16 38 -32.5 85.5t-32.5 85.5q-7 15 -16.5 22t-26.5 5q-2 -1 -4 -0.5t-4 0.5q-18 1 -29 -3t-11 -21v-194
q3 -40 3 -79.5t1 -79.5z" />
    <glyph glyph-name="N" unicode="N" horiz-adv-x="1149" 
d="M304 591q-1 -14 -1.5 -23t-0.5 -18q0 -50 -0.5 -108.5t-0.5 -108.5q0 -51 -0.5 -102t-0.5 -102q0 -16 4.5 -20t21.5 -7q28 -5 55.5 -10t55.5 -10q10 -3 10 -13q0 -14 -0.5 -28t-0.5 -28q0 -13 -12 -14q-12 -3 -24 -3q-38 1 -75 1t-75 1q-30 1 -60.5 -1.5t-60.5 2.5
q-10 2 -20 0.5t-21 -2.5q-25 -3 -29 22q-2 11 -2.5 23t-1.5 23q-1 12 12 14q12 3 23.5 5.5t22.5 5.5q14 3 27.5 6t27.5 6q12 3 12 14q0 9 0.5 18t0.5 18q1 58 1 116t1 117q0 28 0.5 56t-1.5 56q-1 21 -3 41.5t-5 40.5q0 4 -3 7.5t-6 5.5q-11 5 -22.5 8t-22.5 7q-2 1 -6 1
l-55 16q-3 1 -5.5 5.5t-3.5 8.5q-2 11 -2 22v22q2 7 12 11q17 5 32 5q28 1 55.5 0.5t56.5 -0.5q26 -1 53 -1h53q9 0 16 2t13 2.5t12 -1.5t12 -10q17 -20 32 -41t31 -41q22 -28 43 -56t44 -56q24 -29 48.5 -57t49.5 -57l114 -129q15 -17 29.5 -33t29.5 -33q17 -20 33.5 -40
t35.5 -43q0 10 0.5 17t1.5 14q0 7 0.5 13.5t0.5 13.5q-4 64 -5 127t-9 126q-5 38 -5.5 76.5t-4.5 76.5q-2 14 -5 18.5t-17 6.5q-23 4 -49.5 8.5t-49.5 9.5q-11 3 -11 12q1 13 1 25t1 25q1 11 5 15t15 5q6 1 12 1h12q42 -2 83.5 -3.5t83.5 -2.5q32 -1 63.5 -0.5t63.5 1.5
q7 0 13 2.5t13 4.5q12 3 12 -8q1 -9 3 -17.5t-3 -17.5q-2 -5 -1.5 -11.5t-0.5 -11.5q-2 -11 -8 -15t-18 -3q-6 1 -12 0.5t-11 -1.5q-17 -4 -32.5 -8t-30.5 -9q-14 -4 -17 -8t-3 -17q2 -45 2.5 -88.5t2.5 -88.5q2 -38 3 -76.5t2 -76.5q2 -42 2.5 -83t1.5 -83q0 -5 1.5 -9.5
t3.5 -9.5q1 -6 2.5 -11.5t2.5 -11.5q6 -49 -41 -43q-21 3 -41.5 3.5t-40.5 -4.5q-18 -3 -29 10q-26 27 -51.5 53.5t-51.5 53.5q-23 23 -45.5 46t-44.5 47q-28 29 -55 59.5t-53 61.5q-10 11 -18.5 21t-18.5 21q-48 57 -91.5 115t-92.5 116z" />
    <glyph glyph-name="O" unicode="O" horiz-adv-x="1022" 
d="M527 -24q-9 1 -18.5 2t-20.5 2q-32 4 -63 7t-63 7q-34 8 -69.5 20.5t-67.5 30t-59.5 39.5t-46.5 49q-14 22 -27 44t-24 45q-14 33 -19 72t-0.5 78t18 75.5t36.5 66.5q37 45 69 75t66.5 51t75.5 36.5t95 30.5q6 2 12.5 2.5t13.5 1.5q19 2 38 3.5t38 3.5q22 2 38 -1
q99 -13 176.5 -36t131.5 -64.5t84 -105t34 -156.5q2 -53 -8 -96.5t-26.5 -77.5t-36 -58t-35.5 -38q-7 -6 -14 -11.5t-15 -9.5q-18 -11 -36 -20.5t-36 -19.5q-40 -20 -82 -28.5t-86 -12.5q-18 -2 -35.5 -3.5t-37.5 -3.5zM550 601q-11 -2 -32 -3.5t-44 -3.5q-31 -5 -54 -10.5
t-41 -11.5t-32.5 -12.5t-27.5 -13.5q-11 -6 -22 -11t-22 -12q-10 -6 -19.5 -13t-18.5 -15q-17 -16 -29 -40.5t-22 -45.5q-20 -45 -13.5 -88.5t21.5 -87.5q4 -12 16.5 -25.5t27.5 -25.5t31 -21.5t27 -14.5q22 -9 52.5 -18t63.5 -15.5t66.5 -10.5t60.5 -2q24 1 44 1.5t39 3
t37 6t38 10.5q31 12 61.5 32.5t54 47t36.5 57.5t10 65v20.5t-2 19.5q-7 54 -24.5 90.5t-42.5 61.5t-56 41.5t-64 29.5q-25 10 -53.5 10.5t-66.5 4.5z" />
    <glyph glyph-name="P" unicode="P" horiz-adv-x="948" 
d="M190 475q0 23 -1.5 45.5t-3.5 45.5q-1 16 -3.5 20t-22.5 6q-21 2 -42 5l-42 6q-13 0 -14 12t-2 23.5t-1 23.5t5 17t16 7q3 0 6 0.5t6 0.5q71 10 142 6.5t142 -3.5q25 -2 49 -1t49 1q55 -1 109.5 -0.5t110.5 -5.5q72 -12 125.5 -43t80.5 -92q12 -31 13 -66.5t-5 -66.5
q-8 -35 -25.5 -63.5t-46.5 -51.5q-51 -39 -108 -50.5t-118 -9.5q-26 0 -50.5 -0.5t-50.5 0.5q-23 0 -47 0.5t-47 1.5q-21 1 -41.5 1t-40.5 1q-5 0 -9 -1t-9 -2q-15 -3 -14 -16q1 -26 1.5 -50.5t2.5 -49.5q1 -11 8 -17.5t17 -8.5q22 -3 41.5 -12.5t41.5 -14.5q16 -3 16 -22
q0 -8 -0.5 -16t0.5 -16q0 -8 -4 -11t-11 -4h-36.5t-36.5 -1q-24 0 -47.5 -1t-47.5 -2q-26 -1 -51.5 -1h-51.5q-14 0 -28 -0.5t-28 0.5q-12 1 -16 4.5t-6 14.5q-1 5 -1.5 11t-0.5 12q-2 27 25 35q20 7 39.5 13t39.5 13q7 2 11.5 3.5t6.5 4t2.5 7t0.5 12.5q-2 101 1.5 183.5
t1.5 162.5zM619 339q21 2 41.5 4.5t40.5 7.5q32 8 54 25t39 48q10 17 14 33.5t-7 33.5q-5 7 -8.5 14t-8.5 14q-5 8 -10.5 15.5t-13.5 13.5q-20 15 -42.5 23.5t-46.5 11.5q-30 3 -60.5 3.5t-60.5 2.5q-14 1 -28 1.5t-28 -0.5q-26 0 -50.5 -1t-49.5 -3q-15 -2 -29.5 -4.5
t-29.5 0.5q-6 2 -12.5 0.5t-13.5 -3.5q-3 -1 -6 -4t-3 -5q-3 -29 -3 -56q0 -35 0.5 -70.5t1.5 -71.5q0 -20 3.5 -24t23.5 -5h24q55 -1 95 -1t71 -0.5t55.5 -1t47.5 -1.5z" />
    <glyph glyph-name="Q" unicode="Q" horiz-adv-x="1069" 
d="M779 43q27 -23 53 -45t53 -43q14 -11 30 -20.5t33 -17.5q20 -9 40.5 -11t41.5 10q11 5 18 -5q11 -15 20 -29q2 -7 -2 -13q-4 -5 -8 -8.5t-8 -8.5q-23 -31 -53 -40.5t-65 -2.5q-49 8 -89.5 31t-72.5 62q-39 47 -74 92q-9 10 -21 7q-10 -2 -20 -3.5t-20 -3.5
q-22 -4 -43.5 -8t-44.5 -6q-14 -2 -27.5 0t-27.5 3q-17 1 -51 7t-70.5 14.5t-69 18.5t-45.5 19q-35 23 -71 45.5t-59 51.5q-44 50 -66.5 109t-8.5 124q15 78 53 146t101 113q30 20 62 33t64 22t65 16t66 16q38 5 75 3.5t75 -6.5q31 -4 61 -11t59 -15q30 -4 62 -24.5t61 -49
t53 -62t36 -62.5q9 -21 12.5 -39.5t4.5 -39t0.5 -44t-0.5 -53.5q-1 -32 -8.5 -56t-18.5 -44t-24.5 -38t-26.5 -39q-17 -28 -41.5 -47.5t-50.5 -38.5q-3 -3 -12 -9zM459 310q8 -2 19 -2.5t22 -4.5q43 -15 80.5 -36.5t67.5 -56.5q14 -16 27.5 -31.5t27.5 -30.5q11 -11 16 -11
t18 8q54 37 86 93t32 118q-10 56 -25 99.5t-54 78.5q-19 16 -43 32.5t-54 28.5t-67 18.5t-81 4.5q-95 -2 -176.5 -33.5t-138.5 -104.5q-8 -10 -17.5 -23.5t-18 -28.5t-14.5 -30t-6 -28v-14.5t1.5 -21t5.5 -31t12 -45.5q9 -18 24 -32.5t29 -24.5q5 -6 13 -9.5t16 -8.5
q5 6 9 11.5t8 11.5q1 1 1 1.5t1 1.5q56 101 179 101zM553 98h45q5 1 7 5t-1 8q-17 21 -29 38.5t-28.5 31t-41 23t-65.5 13.5q-13 3 -27.5 -1t-28 -12t-23.5 -19.5t-14 -24.5q-6 -17 9 -24q3 -2 6.5 -3t6.5 -3q45 -18 90.5 -25t93.5 -7z" />
    <glyph glyph-name="R" unicode="R" horiz-adv-x="1002" 
d="M613 274q33 -22 52.5 -40t31.5 -34.5t20 -34.5t19 -40q14 -29 27.5 -58.5t32.5 -56.5q54 -81 151 -90q5 -1 9 -0.5t9 -1.5q19 -3 25 -22q2 -8 4.5 -15.5t4.5 -15.5q5 -17 0 -29.5t-22 -17.5q-28 -10 -54 -10q-37 -1 -70 8t-62 35q-24 22 -43.5 47t-36.5 54
q-17 28 -30 57.5t-24 60.5q-27 71 -83 124q-35 32 -76.5 53.5t-91.5 23.5q-24 1 -49.5 -0.5t-49.5 -3.5q-9 0 -12 -5t-2 -13q2 -28 1 -55t1 -54q0 -28 9.5 -37t38.5 -12q11 -1 25 -2.5t25 -3.5q14 -2 17.5 -6t5.5 -19q1 -6 1.5 -11.5t1.5 -11.5q2 -17 -6.5 -26t-25.5 -8
q-23 1 -47 0.5t-47 -0.5h-41q-25 -2 -49 -3.5t-48 -3.5q-19 -1 -37.5 -0.5t-36.5 1.5q-5 0 -10 3t-7 6q-11 25 -2 49q2 7 8.5 9t13.5 4q23 5 48 11t48 12q9 2 12 6.5t2 14.5q-3 107 -4 209t-4 205q0 11 -1 22.5t0 22.5q0 18 -15 17q-23 0 -43 8.5t-42 13.5q-12 3 -15 6
t-4 15v9q0 15 0.5 24t5 14.5t13 7.5t24.5 2q20 1 40.5 0t41.5 0q64 -1 121.5 0t111.5 1.5t107 1t108 -1.5q10 0 20 -0.5t21 -2.5q23 -5 45.5 -11t45.5 -14q73 -26 104 -98q8 -19 10.5 -39t1.5 -42q-3 -52 -28 -90t-60 -72q-5 -5 -10.5 -8t-11.5 -6q-14 -6 -33 -11
t-39.5 -8.5t-40 -6t-35.5 -3.5q-3 -1 -6 -1.5t-10 -1.5zM293 499q3 -26 2.5 -51.5t-0.5 -51.5q0 -16 4 -20.5t20 -4.5q31 0 62.5 -0.5t63.5 1.5q44 2 87.5 0t88.5 3q23 2 44.5 3t42.5 9q55 20 69.5 59.5t-13.5 84.5q-15 24 -35 39q-11 7 -24 10t-26 7q-23 8 -47.5 6.5
t-48.5 -1.5q-35 0 -69.5 -1.5t-69.5 -3.5q-33 -2 -66 -2.5t-66 -1.5q-13 -1 -15.5 -3.5t-3.5 -16.5v-64z" />
    <glyph glyph-name="S" unicode="S" horiz-adv-x="844" 
d="M156 68q-2 -11 -3.5 -19t-2.5 -16q0 -29 -29 -28q-8 1 -15 0.5t-15 0.5q-11 1 -16 5t-8 16q-2 8 -2 15v14q-1 28 -1 55v55q0 18 -3 38q-2 17 3.5 23.5t23.5 8.5q13 1 25.5 0.5t25.5 0.5q15 0 24 -13q8 -11 16 -21.5t16 -21.5q10 -14 23.5 -24.5t27.5 -18.5
q34 -21 70 -33.5t77 -16.5q43 -3 85.5 0t84.5 8q21 3 40.5 10.5t35.5 20.5q17 14 28 30.5t13 38.5q1 19 -19.5 32t-47.5 24q-56 18 -109 30t-114 26q-52 15 -101.5 26t-98.5 31q-21 10 -41.5 19t-33.5 23q-14 16 -24.5 35t-15 39t-2 41.5t16.5 43.5q14 25 33 52q14 21 34 33
t41 23q32 17 66 25t70 12q24 3 48 4t49 -2q38 -6 76 -16t74 -26q17 -8 32.5 -19t31.5 -22q9 -6 12.5 -5.5t6.5 11.5t5 21.5t5 21.5q3 13 6.5 15.5t17.5 4.5h14t15 1q17 1 20.5 -1.5t5.5 -19.5q2 -13 2 -26v-27q2 -28 2.5 -55.5t2.5 -56.5q1 -17 -5 -26.5t-32 -8.5q-2 0 -3 1
t-3 0q-20 -5 -34.5 4t-27.5 21q-21 20 -46.5 33.5t-51.5 24.5q-7 3 -14.5 4t-14.5 3q-22 6 -43.5 12.5t-44.5 10.5q-54 8 -105 2t-100 -29q-4 -2 -10 -6q-14 -9 -21.5 -21.5t-5.5 -28.5t11.5 -27.5t26.5 -16.5t34.5 -9t34.5 -8q51 -12 100 -24.5t100 -23.5t99.5 -27.5
t96.5 -37.5q28 -13 47.5 -33t29.5 -44t10.5 -50.5t-7.5 -52.5q-13 -49 -40 -79t-62.5 -48.5t-77 -28.5t-84.5 -17q-17 -2 -34.5 -5t-35.5 -3q-59 0 -115.5 11t-110.5 35q-14 7 -26 14.5t-23 18.5q-2 3 -6 6t-10 8z" />
    <glyph glyph-name="T" unicode="T" horiz-adv-x="974" 
d="M498 0h-135q-13 -1 -26 -1t-26 -2q-15 -2 -20.5 2t-6.5 19v41q0 16 18 19q28 4 55 8.5t55 9.5l15 3q11 3 13 5.5t3 16.5q3 110 3 214.5t-2 210.5v6q-2 19 -2.5 29t-5 14t-15.5 4h-33q-11 1 -21 -0.5t-21 -1.5q-45 -2 -90 -2.5t-90 -2.5q-14 0 -18 -3.5t-8 -17.5l-15 -63
q-3 -16 -7.5 -20t-21.5 -5h-16t-16 1q-19 1 -20 21v3q-2 37 -3.5 73.5t-3.5 73.5v22t3.5 11.5t11.5 4.5t22 1q27 1 54.5 3t53.5 1q129 -3 250.5 -2t242.5 -1q46 0 91.5 0.5t91.5 -0.5q17 -1 33.5 -3t33.5 -4q6 -1 10 -4t2 -10q-7 -26 -3.5 -51t2.5 -51q0 -13 0.5 -25.5
t0.5 -25.5q-1 -10 -4.5 -13t-14.5 -2q-17 0 -35 -3q-15 -3 -20 12q-5 11 -8 21t-7 21q-1 5 -1.5 9t-2.5 8q-6 16 -10.5 18.5t-21.5 2.5q-42 1 -82 1t-81 1q-20 1 -39.5 2t-39.5 1q-12 0 -15.5 -3t-3.5 -14q-1 -66 -1.5 -124.5t-0.5 -114v-110t-1 -111.5q-2 -17 14 -18
q34 -5 63.5 -15t64.5 -11q15 0 15 -14q1 -5 1 -15q0 -16 -0.5 -25t-5 -13.5t-13.5 -6t-25 -1.5q-20 0 -40 -0.5t-40 -0.5q-20 -1 -40.5 -1.5t-43.5 -1.5z" />
    <glyph glyph-name="U" unicode="U" horiz-adv-x="1052" 
d="M795 560v8.5t-1 8.5q0 9 -0.5 13.5t-3 7t-6.5 3.5l-12 3q-23 6 -45.5 12t-45.5 12q-12 3 -12 15q0 10 -0.5 20t0.5 21q1 14 5 18t18 5q18 1 36 0.5t35 -0.5h71t71 -1q25 -1 49.5 -2t50.5 -3q14 -2 18.5 -7.5t3.5 -19.5q-1 -6 -1 -12t-2 -12q-2 -14 -6 -17t-20 -7
q-11 -2 -22 -6.5t-22 -7.5q-11 -4 -23 -6.5t-23 -5.5q-12 -4 -14.5 -6.5t-3.5 -15.5v-189q0 -33 0.5 -55t0.5 -37.5t-1.5 -29t-4.5 -30.5q-3 -13 -11 -31.5t-17.5 -37t-20 -36t-19.5 -28.5q-21 -26 -42 -43.5t-44.5 -30.5t-49.5 -22.5t-57 -17.5q-24 -6 -53.5 -9t-60 -2
t-60 5.5t-53.5 12.5q-24 7 -40.5 13.5t-30.5 14t-28 17t-33 21.5q-35 30 -56.5 67.5t-34 78.5t-16.5 84t-3 83q0 35 0.5 69.5t0.5 69.5v62q-1 16 -4.5 20t-19.5 7q-23 3 -45.5 6t-45.5 6q-11 2 -13.5 4t-3.5 13q0 10 1 15q0 20 1 29.5t5.5 13t15 3.5h29.5q68 -5 136.5 -1
t136.5 2h18q13 -2 16.5 -6t3.5 -17v-27.5t-3 -14.5t-12 -8t-28 -7q-17 -4 -33 -8t-32 -9q-8 -2 -12 -4t-5.5 -5t-1 -8t0.5 -14q-2 -37 -2 -69t0.5 -61t2 -57.5t2.5 -57.5q2 -29 8 -58t20 -55q12 -22 27 -40.5t36 -32.5q32 -20 62.5 -34.5t68.5 -16.5l68 -2t66 10q19 6 40 17
t38 20q17 10 29.5 24.5t22.5 32t18 35.5t15 35q1 4 3.5 15t5 25t4.5 29t1 27v15q-2 48 -2 96v96z" />
    <glyph glyph-name="V" unicode="V" horiz-adv-x="959" 
d="M165 689q46 2 91.5 3.5t91.5 3.5q13 1 27 0q9 -2 14 -8t5.5 -15.5t-1.5 -18.5t-7.5 -16.5t-12.5 -10.5q-10 -5 -20.5 -7.5t-21.5 -5.5q-13 -4 -25.5 -7t-25.5 -7t-10 -19q1 -2 1.5 -4t1.5 -4q22 -62 43 -123t43 -122q18 -49 36 -97t37 -97q2 -4 3.5 -7.5t2.5 -8.5
q5 -15 10.5 -20.5t29.5 -5.5q16 1 25.5 2t15 5t9 13t9.5 25q34 84 59 147t43.5 113.5t33 91t28.5 78.5q5 13 7.5 20.5t0.5 11.5t-9 5.5t-20 4.5q-20 5 -40.5 8.5t-40.5 8.5q-17 3 -19 6.5t0 20.5q1 7 1 14v15q0 15 15 15q5 1 10 0.5t10 0.5q26 1 51.5 2t51.5 1q28 1 55 1.5
t55 0.5h45.5t45.5 -1q15 0 19 -3.5t5 -17.5q1 -17 0 -28t-5.5 -18t-14.5 -11.5t-27 -9.5q-12 -3 -24.5 -6t-24.5 -5q-17 -4 -24 -20q-7 -18 -14.5 -35.5t-14.5 -35.5q-28 -74 -55.5 -147.5t-56.5 -147.5q-13 -27 -23 -57t-20.5 -59t-23.5 -56.5t-31 -48.5q-24 2 -48.5 2.5
t-48.5 1.5h-100q-14 1 -19.5 4.5t-9.5 15.5q-23 67 -46.5 133.5t-46.5 134.5q-22 66 -45.5 130.5t-47.5 130.5q-5 15 -13.5 23.5t-24.5 12.5q-25 6 -49 14t-49 15q-19 6 -20 23q-1 7 -1.5 13.5t-0.5 13.5q-1 18 3.5 22.5t22.5 4.5h124v-2z" />
    <glyph glyph-name="W" unicode="W" horiz-adv-x="1384" 
d="M705 393q-6 -15 -11.5 -26.5t-10.5 -23.5q-24 -60 -48 -119t-47 -119q-8 -21 -15.5 -41.5t-15.5 -41.5q-7 -20 -28 -20q-35 -1 -71 -1.5t-71 -0.5q-17 0 -21.5 2.5t-10.5 18.5q-8 22 -15.5 43.5t-15.5 43.5q-13 34 -26.5 67t-26.5 67q-19 48 -36.5 96.5t-36.5 96.5
q-12 32 -25.5 63t-22.5 64q-9 35 -46 39q-15 2 -30 5.5t-30 7.5q-27 7 -29 39v23t4 11.5t12 4t23 0.5q63 -1 126.5 -0.5t127.5 0.5q14 0 28 -0.5t28 -0.5q12 0 14 -12q2 -16 1 -30.5t-17 -25.5q-5 -3 -10 -5.5t-10 -4.5q-19 -4 -37.5 -6.5t-37.5 -6.5q-5 -1 -8.5 -4
t-1.5 -10q8 -29 15.5 -57t17.5 -57q29 -84 60 -166.5t64 -164.5q2 -4 2.5 -7t2.5 -7q4 -7 5 -15.5t10 -10.5q11 -2 22 -1.5t22 2.5q3 0 6 4.5t5 8.5q9 21 17.5 42t17.5 42q21 54 42.5 106t42.5 105q8 23 16 44.5t16 44.5q5 14 8.5 28.5t8.5 28.5q2 5 3.5 9.5t2.5 9.5
q2 14 -2 19.5t-19 7.5q-27 5 -54 9.5t-53 9.5q-9 2 -13 11q-9 21 -1 43q4 16 21 18q5 1 10 1h10l234 -3h20.5t43.5 2q11 -2 12.5 -5t-0.5 -14q-1 -7 -1 -13.5v-12.5q0 -17 -3.5 -22t-19.5 -9q-17 -5 -33 -8t-33 -8q-14 -3 -15.5 -6.5t-2.5 -17.5q-2 -23 3 -45t13 -44
q21 -63 41.5 -126t41.5 -126q10 -29 21 -58l22 -58q9 -26 35 -23q10 0 16 1t9.5 4t6.5 8.5t6 14.5q36 106 72 211t71 211q4 10 6.5 19.5t5.5 20.5q2 6 -1 10t-9 3q-23 -3 -43 5t-41 9q-12 1 -16 5.5t-4 15.5v36.5t4.5 15.5t15 3.5t32.5 0.5q90 4 180 -3q23 -2 46 -1t46 1
q13 2 18 1t6 -6t-1 -14.5t-2 -23.5v-9q0 -18 -4 -21.5t-21 -2.5q-10 1 -19 -1t-18 -4.5t-18 -4t-19 0.5q-14 -2 -18 -14l-8 -24q-5 -16 -11 -31.5t-12 -31.5q-26 -64 -44 -124t-43 -118q-11 -23 -19.5 -47.5t-17.5 -48.5q-11 -29 -20.5 -58.5t-22.5 -57.5q-8 -17 -12 -25
t-9 -11.5t-13.5 -3t-26.5 0.5q-35 1 -68.5 1t-67.5 -5q-8 0 -15 7q-7 6 -12.5 13.5t-7.5 17.5q-16 62 -37.5 121.5t-41.5 119.5q-8 21 -13.5 42.5t-12.5 42.5q-2 5 -4 10.5t-5 13.5z" />
    <glyph glyph-name="X" unicode="X" horiz-adv-x="1011" 
d="M703 92q-14 17 -26 31.5t-26 28.5q-31 32 -62 62t-62 61q-2 2 -3.5 3t-3.5 3q-11 11 -22 0q-26 -27 -53 -53.5t-54 -52.5q-11 -11 -21 -23t-21 -23q-6 -7 -11.5 -14t-12.5 -15q22 -8 42.5 -12.5t41.5 -6.5q20 -3 25.5 -8.5t7.5 -25.5q1 -3 1 -9v-21.5t-3.5 -11
t-11.5 -4.5t-22 -1q-14 -1 -28 -2.5t-28 -1.5q-31 1 -61 3t-60 3q-16 1 -32 0.5t-33 -1.5q-16 0 -32 1t-32 0q-14 0 -28 -1.5t-28 -2.5q-17 -1 -22.5 4.5t-6.5 22.5v12q-1 18 -0.5 26.5t4.5 12t12 4t22 3.5q26 5 53.5 8t53.5 8q8 2 16.5 6.5t14.5 9.5q17 16 32.5 32.5
t32.5 32.5q35 32 69.5 64t69.5 64l4 4l4 4q10 10 1 21q-14 16 -29 31.5t-29 31.5q-21 23 -41.5 45.5t-42.5 45.5t-44 44t-44 43q-8 8 -12 9q-18 3 -36 6.5t-37 4.5q-12 0 -27 5q-9 3 -13.5 5t-7 4.5t-3 7t-0.5 12.5v29q1 11 4.5 14t14.5 3q31 1 61.5 1t62.5 1q38 1 77 2
t78 1q21 0 41.5 -1.5t41.5 -2.5q13 -1 15 -15v-14.5t-1 -14.5q-2 -17 -5.5 -20t-21.5 -6q-22 -4 -43.5 -8t-43.5 -9q-13 -3 -4 -15q32 -35 64 -69.5t64 -69.5q12 -14 24.5 -27t25.5 -27q11 -13 23 0q48 51 100 97.5t98 100.5l3 8q-23 4 -45.5 8.5t-45.5 6.5q-12 1 -18.5 2
t-9.5 4t-4 9t-2 17q-2 28 4.5 35t35.5 7q22 0 44 -0.5t44 -0.5q14 0 28 1.5t28 0.5q19 0 38 -2t38 -3q31 -1 62 -1h62q9 0 12 -2.5t5 -11.5q3 -15 3.5 -24t-2.5 -13.5t-11.5 -7.5t-23.5 -6q-17 -4 -33.5 -6t-33.5 -4q-17 -3 -32 -10t-26 -21q-35 -43 -76.5 -79.5
t-79.5 -77.5q-16 -17 -31 -35.5t-31 -35.5q-11 -13 2 -26q23 -22 45 -44.5t45 -44.5q34 -32 67.5 -63.5t68.5 -62.5q10 -10 23 -13q51 -10 107 -18q15 -2 16 -14q2 -4 2 -8q-2 -18 -1.5 -28.5t-3 -16t-13.5 -6.5t-31 0q-48 -5 -97 -1.5t-95 6.5q-29 1 -58.5 0t-59.5 -2h-17
q-12 2 -16 6.5t-5 17.5q-1 8 -1.5 16t-2.5 16q-2 10 1 13.5t14 5.5q7 1 13.5 1.5t13.5 0.5q17 -2 33.5 3t36.5 14z" />
    <glyph glyph-name="Y" unicode="Y" horiz-adv-x="1016" 
d="M272 598q11 -12 19 -20.5t16 -16.5q29 -26 51 -55.5t51 -53.5q18 -16 35.5 -31.5t33.5 -33.5q10 -12 14.5 -12.5t16.5 9.5q60 54 108.5 101t96.5 94q2 2 4.5 4t4.5 4q6 9 -4 11q-23 3 -46.5 5.5t-47.5 5.5q-11 2 -15 5.5t-6 14.5q-1 9 -1.5 18.5t-0.5 19.5q0 12 5 16.5
t17 4.5q20 1 41 2t41 0h59.5t58.5 5q13 2 26 2t27 -1q50 0 100 -3q14 -1 17.5 -3t5.5 -16q1 -3 1 -8q1 -13 1 -20t-3 -11t-9 -6t-18 -5q-23 -7 -47 -12.5t-47 -12.5q-14 -5 -25 -14q-46 -42 -91.5 -82t-90.5 -82q-26 -24 -51.5 -48.5t-51.5 -48.5q-8 -8 -13 -17t-2 -22
l3 -159q0 -16 4 -21t20 -5q30 -2 59.5 -9.5t59.5 -10.5q9 -1 14.5 -5t4.5 -15q-1 -5 1 -8.5t3 -8.5q4 -27 -22 -34q-23 -7 -45.5 -7.5t-45.5 1.5q-59 3 -115 -0.5t-112 -5.5q-30 0 -58 3q-11 1 -15 7t-4 17v14.5t-1 14.5q-2 19 14 22q11 3 22 5l22 4l42 8t41 9q4 1 7 4.5
t5 6.5q4 11 4 24q1 35 0 70.5t-7 70.5q-2 8 -6.5 16t-10.5 14q-23 23 -45.5 46t-47.5 44q-32 29 -60.5 60.5t-56.5 63.5q-8 9 -17 17q-11 11 -23 22t-23 24q-14 17 -32 24.5t-40 8.5q-14 0 -27 2t-26 5q-20 4 -23 26q-2 15 -1.5 23.5t5 13t13.5 6t24 1.5q12 0 24 1.5t23 0.5
q59 -5 116 -5.5t117 1.5q15 0 30 2.5t31 -2.5q13 -3 15.5 -9.5t4.5 -20.5q1 -5 1.5 -10.5t-0.5 -10.5q-1 -11 -5 -13t-15 -3q-30 -4 -61 -11t-66 -16z" />
    <glyph glyph-name="Z" unicode="Z" horiz-adv-x="896" 
d="M223 99q18 0 36 -0.5t37 -0.5q8 0 17 1t18 1h82.5t82.5 -2q43 -2 85.5 0.5t85.5 1.5q12 -1 24 -0.5t23 1.5q14 2 19 5.5t7 17.5q3 13 4.5 26t3.5 26q1 10 2 19.5t11 14.5q13 7 26.5 10t27.5 -2q11 -4 16 -13t6 -20q1 -10 0 -20t-2 -21q-1 -24 -1.5 -48.5t-2.5 -48.5
q-1 -10 -2 -15.5t-4 -8.5t-8.5 -5t-14.5 -5q-63 -6 -125.5 -6.5t-124.5 0.5t-124 1.5t-125 -3.5q-41 -3 -81 -4t-81 -3q-13 -1 -25.5 -1.5t-24.5 -2.5q-31 -3 -36 26v6q-3 22 -4.5 34t2 20.5t12.5 16.5t27 23q40 33 75.5 66.5t72.5 68.5q26 22 51 43t51 42l126 102
q17 14 33.5 26.5t33.5 25.5q24 18 54.5 41.5t50.5 46.5q2 2 2.5 5t1.5 5q-2 1 -4.5 2.5t-5.5 0.5q-37 -1 -71.5 -6t-70.5 -2q-72 5 -137 3t-131 0q-21 0 -32.5 -1t-17.5 -6.5t-8 -16t-3 -30.5q-2 -12 -3 -24t-3 -23q-3 -18 -22 -21h-3h-28t-17.5 4.5t-9.5 14.5t-4 30
q-2 33 -3.5 66t-3.5 66v10.5t1 10.5q1 12 4.5 14t15.5 2q44 0 87 0.5t87 -0.5q128 1 255 3t255 -4q9 0 18 0.5t18 -0.5q11 0 13.5 -3t2.5 -15v-17t-1 -18q-2 -15 -7.5 -28t-18.5 -23q-59 -48 -104.5 -86.5t-87 -73.5t-84 -69.5t-95.5 -74.5q-54 -41 -102.5 -85.5
t-100.5 -85.5q1 -2 1 -7z" />
    <glyph glyph-name="a" unicode="a" horiz-adv-x="1036" 
d="M327 604q-26 3 -48.5 6t-45.5 6q-5 1 -9 0.5t-9 0.5q-14 2 -18.5 7t-5.5 20q0 12 -0.5 23.5t-0.5 23.5q0 11 13 11q51 1 101.5 -2.5t101.5 1.5q28 2 55 2h54q24 0 47.5 -1.5t47.5 -1.5l96 2t96 3q8 0 17 3q13 4 16 2t3 -14q-1 -14 -1 -28t-1 -28q-1 -11 -14 -13
q-17 -3 -33 -6.5t-33 -7.5q-5 -1 -10 -1.5t-10 -2.5q-7 -2 -14.5 -4t-12.5 -7q-2 -2 1.5 -9.5t5.5 -13.5t3.5 -12.5t3.5 -13.5q4 -13 7.5 -25.5t7.5 -24.5q5 -14 9.5 -27t9.5 -26q8 -21 16.5 -42.5t18.5 -41.5q22 -47 39.5 -94t29.5 -97q4 -13 8.5 -25.5t8.5 -25.5
q7 -25 34 -28q9 -1 18.5 -2t19.5 -2q14 -1 28 -1t28 -2q4 0 9 -3.5t6 -6.5q4 -12 6.5 -24.5t1.5 -24.5q0 -11 -8 -17.5t-19 -10.5q-5 -2 -10.5 -2h-10.5q-29 -2 -58.5 -3.5t-59.5 -2.5q-17 -1 -35 0.5t-35 1.5q-31 -1 -61 -2t-60 -3q-23 -1 -31 15q-4 9 -6.5 18t-3.5 19
q-2 17 4 23.5t23 9.5q8 2 16 3.5t16 3.5q12 3 24 5.5t25 5.5q7 2 14 3t15 3q12 4 15 9.5t-1 16.5q-9 26 -19 51t-20 51q-6 14 -20 13q-13 0 -25.5 -0.5t-24.5 -0.5q-20 -2 -40 -2.5t-40 -2.5q-58 -2 -114 0t-114 0q-15 -1 -29.5 -1t-29.5 -1q-14 -1 -20 -15
q-8 -22 -16.5 -47t-16.5 -47q-6 -16 12 -17q25 -4 50 -7.5t50 -6.5q12 -1 13 -12t2 -21t1 -20q1 -18 -4 -23t-22 -6q-15 -1 -29.5 -1.5t-29.5 -0.5q-56 -4 -122.5 -6t-129.5 3q-29 -3 -35 22q-2 10 -2.5 20t-0.5 21q0 3 3.5 6.5t6.5 5.5q13 6 26.5 7.5l27 3t27 5t27.5 14.5
q25 11 35 36q13 36 26.5 81t27.5 80q9 24 18 47.5t17 47.5q10 24 19 52t19 55.5t20 52.5t21 45zM596 325q23 1 44.5 1.5t44.5 0.5q13 1 9 14q-1 2 -3 8q-20 54 -40 106.5t-40 106.5q-2 5 -4 9.5t-4 9.5q-6 16 -25 16q-35 -2 -69 -3t-69 -2q-16 -1 -22 -16q-5 -15 -9.5 -30
t-9.5 -29q-15 -40 -30.5 -80t-30.5 -80q-5 -12 -8 -22q-3 -11 0.5 -15.5t15.5 -3.5q75 4 134 6.5t116 2.5z" />
    <glyph glyph-name="b" unicode="b" horiz-adv-x="998" 
d="M419 -1q-21 0 -41.5 -0.5t-41.5 0.5q-47 1 -93.5 2t-94.5 3q-12 0 -24 -1t-23 -2q-18 0 -26.5 7.5t-10.5 24.5q-1 4 -0.5 7.5t-0.5 7.5q-5 18 -2.5 21.5t20.5 8.5q29 8 58.5 16t58.5 16q15 5 15 21q-2 38 -3.5 75.5t-3.5 75.5q-1 9 -1 17.5v17.5q-2 60 -3.5 119.5
t-2.5 119.5q-1 15 0 25t-13 14q-19 6 -44.5 11t-45.5 10q-11 3 -18 5t-11 5.5t-5.5 10.5t-2.5 22v6q-6 43 39 43q25 1 49 0.5t49 -1.5q48 -1 95.5 -2.5t95.5 -1.5q42 -1 82.5 2t82.5 1q48 -2 95.5 -4.5t95.5 -14.5q30 -8 58 -29t45 -45q20 -30 27 -57t4 -65
q-2 -31 -18 -57.5t-60 -46.5q-4 -5 -2 -6t0 -4q38 -8 62 -15.5t41 -18.5q10 -7 19.5 -18.5t16 -23.5t11 -24t6.5 -20q9 -56 -8 -105.5t-62 -87.5q-23 -20 -50 -28t-55 -16q-21 -5 -34 -8t-27.5 -4.5t-33.5 -2.5t-51 -1q-45 -3 -89 -4t-89 -3q-8 -1 -17 -0.5t-18 0.5v2z
M654 108q32 0 62.5 4t60.5 13q29 9 47 38q21 36 19.5 64t-21.5 47.5t-56.5 29t-85.5 9.5q-39 0 -77.5 -0.5t-77.5 1.5q-57 -1 -102 0t-92 -5q-18 -2 -19.5 -4t-0.5 -20q2 -36 3.5 -76.5t3.5 -76.5q2 -14 4.5 -17t16.5 -7q5 -1 10 -1.5t10 -0.5q51 1 86 1.5t66.5 0.5h64h78.5
zM405 595q-20 -1 -40 -1.5t-40 -1.5q-14 -2 -17 -4.5t-3 -16.5q1 -35 2 -71t2 -71q1 -14 3.5 -17t16.5 -3q27 -1 50.5 -2.5t50.5 -1.5q32 1 59.5 1t60.5 -1q20 0 49 1t49 2q26 1 48 9t40 27q35 35 29 80q-2 18 -16.5 33t-32.5 20q-14 3 -25 6.5t-24.5 6.5t-31.5 5t-45 2
q-42 0 -91 2.5t-94 -4.5z" />
    <glyph glyph-name="c" unicode="c" horiz-adv-x="921" 
d="M870 502v-12t-2 -11q-2 -16 -17 -17q-13 -1 -25 -2t-25 -3q-15 -1 -22 12q-10 14 -14.5 29t-15.5 29q-6 8 -14 15t-17 13q-38 23 -82.5 37.5t-89.5 17.5q-17 2 -33.5 4t-33.5 2q-142 0 -245 -101q-76 -76 -79 -185q0 -8 1.5 -15.5t3.5 -13.5q18 -59 55.5 -97.5
t89.5 -61.5t116 -33t134 -12q21 -1 42 3.5t42 9.5q27 6 54.5 13.5t53.5 16.5q14 5 27.5 13t26.5 17q8 5 17 10t14 15q3 5 10 3.5t9 -7.5q5 -12 9.5 -24.5t2.5 -26.5q0 -2 -0.5 -3t-0.5 -3q6 -27 -8.5 -42.5t-34.5 -25.5q-148 -76 -316 -78q-64 -1 -125 10.5t-115 35
t-98 60.5t-73 87q-25 44 -37.5 90t-6.5 97q8 61 31.5 115.5t65.5 101.5q35 39 84 66t104 43.5t110.5 22t103.5 0.5l14 -2t15 -3q32 -8 63 -16.5t62 -17.5q13 -5 25 -11.5t25 -12.5q14 -8 18.5 -6.5t9.5 15.5q2 8 4 14.5t4 14.5q4 16 21 16q9 -1 18 -0.5t18 -1.5
q17 -2 21.5 -7t4.5 -22q0 -44 0.5 -71.5t0.5 -46.5v-31.5t-1 -25.5z" />
    <glyph glyph-name="d" unicode="d" horiz-adv-x="1046" 
d="M443 -1q-31 2 -67.5 2h-74.5q-40 0 -79.5 -1.5t-79.5 -3.5q-15 -1 -30.5 -1t-31.5 -1q-13 0 -16 14q-3 12 -1.5 24t-1.5 24q-2 7 1.5 10t8.5 5q18 5 31.5 9t31.5 9q22 6 32.5 8.5t14 7.5t2.5 15.5t-1 31.5q1 27 1.5 53.5t0.5 53.5q0 23 -0.5 47t-0.5 47q-1 13 -1.5 25.5
t-1.5 24.5q-1 42 -2 82.5t-2 82.5q-1 14 -3 17t-16 7q-20 6 -40 11l-40 10q-3 1 -6.5 2.5t-5.5 3.5q-7 13 -7 26t3 26q1 3 5.5 6t7.5 3q17 -2 34.5 -0.5t38.5 3.5h45q18 1 32 1t26.5 -0.5t26.5 -1t32 -0.5q35 2 69.5 2.5t69.5 1.5q10 0 19 1t19 1q31 -1 62 -1.5t62 -3.5
q33 -3 65.5 -7.5t64.5 -11.5q22 -5 42.5 -13.5t40.5 -19.5q26 -14 52.5 -29t46.5 -38q39 -42 53.5 -84.5t24.5 -88.5q-1 -23 -1 -47t-1 -47q-5 -30 -11 -51.5t-14 -39t-18 -33.5t-23 -35q-29 -37 -64.5 -65.5t-80.5 -45.5q-33 -11 -66.5 -17t-68.5 -9q-50 -5 -101 -1
t-108 -1zM661 105q25 0 47.5 8t45.5 17q10 3 18.5 8.5t16.5 12.5q23 21 43 46.5t33 54.5q5 10 7.5 20.5t5.5 21.5q8 28 6 56t-7 55q-4 26 -15 53t-32 43q-15 10 -26.5 21t-24 20t-27.5 16t-36 10q-23 11 -49 10.5t-51 2.5q-17 1 -37 2.5t-41 2.5t-41 0.5t-37 -1.5
q-21 -2 -38 -3t-33 -1t-33 0.5t-38 0.5q-17 0 -21 -4.5t-4 -21.5q-1 -20 -3 -42.5t0 -42.5q3 -47 3 -100t-3 -127q1 -29 1.5 -60.5t2.5 -60.5q0 -12 2.5 -14t14.5 -3q35 -2 75.5 -2t76.5 -1q29 0 53.5 -0.5t48 0t46.5 1t50 1.5z" />
    <glyph glyph-name="e" unicode="e" horiz-adv-x="935" 
d="M536 112l195 3h9q21 1 25.5 5t9.5 24l10 42t10 41q4 14 9 17.5t19 2.5q15 -1 23 -2t12 -5t5.5 -12t2.5 -23q2 -32 2.5 -69.5t2.5 -69.5v-20q0 -10 2 -20.5t-2 -16.5q-3 -5 -7 -5t-9 1t-10 2.5t-9 1.5q-60 -4 -119.5 -2.5t-119.5 -1.5q-57 -3 -112.5 -3t-111.5 -1
q-25 -1 -49 0.5t-49 2.5q-43 2 -85.5 2t-84.5 -9q-22 -4 -31 4t-10 30v15q0 11 0.5 17.5t3.5 10.5t9.5 7t17.5 6q21 6 42.5 12t42.5 12q15 5 18 8t3 18q0 29 -0.5 57.5t-0.5 57.5q-1 38 -1.5 77t-2.5 77q-2 35 -3.5 70.5t-3.5 70.5q0 3 -0.5 6t0.5 6q6 36 -29 46q-7 2 -13 6
t-13 7q-12 5 -23.5 11.5t-26.5 4.5q-8 0 -12 6q-18 26 -12 56q1 2 4.5 5t5.5 2q85 -8 170 -5t170 2q93 -2 186 0q37 0 73.5 1.5t73.5 2.5q22 0 43.5 -1t42.5 -3q18 -1 24 -8t6 -26q1 -41 1.5 -81t0.5 -82v-11q-2 -7 -5.5 -11t-10.5 -2q-23 7 -47 1q-2 -1 -6.5 2.5t-5.5 6.5
q-6 25 -17 47.5t-20 45.5q-6 16 -22 15q-18 -1 -33 -1t-30 1t-32 1t-40 -1q-22 -1 -44 0t-44 1q-44 -1 -87.5 -1.5t-87.5 -1.5q-3 -1 -8 -1q-18 -2 -21.5 -5t-2.5 -21q1 -35 2 -69.5t3 -69.5q0 -11 3.5 -14t14.5 -3q23 0 45.5 0.5t45.5 1.5q29 0 56.5 -0.5t56.5 0.5
q29 0 57.5 1t57.5 2q20 0 25.5 -5.5t7.5 -24.5q1 -10 2 -19t3 -19q3 -18 -3 -25t-25 -8q-57 -1 -112.5 -0.5t-112.5 -0.5q-23 -1 -46 -0.5t-46 -0.5q-18 -1 -21.5 -4.5t-3.5 -20.5q0 -37 0.5 -74t1.5 -74q0 -11 1 -16.5t4 -8t9.5 -3t17.5 -0.5q49 1 97.5 0.5t97.5 -0.5v-1z
" />
    <glyph glyph-name="f" unicode="f" horiz-adv-x="904" 
d="M374 399q46 -1 91.5 -1t91.5 -1q23 0 47 -0.5t47 -0.5q19 0 19 -18q2 -26 10 -49q2 -5 1 -11t-3 -12q-1 -2 -4.5 -5t-5.5 -2q-17 8 -33.5 5.5t-33.5 -1.5q-32 2 -65 3.5t-65 1.5q-32 -1 -65 -2t-65 -3q-10 -1 -15.5 -2t-8 -4t-3 -8.5t-0.5 -15.5q0 -16 -0.5 -31.5
t2.5 -30.5v-82q0 -23 24 -29l77 -8q15 -5 16 -22q1 -11 2.5 -22t2.5 -22q1 -12 -7 -20.5t-21 -8.5q-34 2 -71 1t-72 1q-43 1 -85.5 1h-85.5q-15 0 -18.5 2.5t-5.5 17.5q-2 9 -3 18.5t-2 19.5t3 14.5t15 7.5q23 7 46.5 13.5t46.5 14.5q10 4 15.5 6.5t7 5.5t1.5 7.5v13.5v88
t-1 87v106.5t-1 106.5q0 6 -0.5 12.5t-1.5 13.5q-2 17 -9.5 27.5t-25.5 15.5q-20 5 -39.5 12.5t-40.5 6.5q-14 0 -17 14q-4 12 -6 26q-3 24 3 30.5t32 4.5q14 -1 26.5 -0.5t26.5 0.5q25 0 50 0.5t50 -0.5q86 -2 171 0.5t171 6.5q44 2 87.5 1.5t87.5 -0.5q11 0 22 0.5
t22 -0.5q10 -1 19 -1.5t19 -1.5q14 -1 17 -18v-11q2 -45 1.5 -85.5t-0.5 -79.5q-2 -6 0 -14q3 -13 1 -16t-13 -3q-12 -1 -23.5 -0.5t-23.5 1.5q-20 2 -26 21q-5 19 -5.5 38t-5.5 38q-2 7 -5 11.5t-12 -1.5q-89 0 -177 -0.5t-178 -1.5h-35t-35 -1q-14 -1 -17.5 -4.5
t-3.5 -17.5q0 -10 -0.5 -20.5t0 -24t1.5 -30.5t4 -41q-4 -28 1 -34t33 -4q8 0 14.5 0.5t14.5 0.5v-1z" />
    <glyph glyph-name="g" unicode="g" horiz-adv-x="941" 
d="M544 97q38 -3 75.5 1.5t75.5 11.5q21 4 39.5 16.5t35.5 23.5q3 2 4.5 6t1.5 9q1 17 0.5 34t-1.5 34q0 14 -4 19t-17 7q-37 4 -75 13.5t-75 11.5q-14 1 -17 4.5t-4 16.5l-2 22t-1 22q-1 17 18 17q54 1 107 1t107 1h27q41 -4 44 -45v-62.5t0.5 -52.5t0.5 -49t-1 -52
q-1 -10 -7 -17t-14 -11q-11 -6 -21 -13.5t-20 -15.5q-48 -38 -103 -52.5t-116 -17.5q-48 -2 -97 2t-95 13q-88 16 -163.5 53t-137.5 98q-15 23 -28 45.5t-21 48.5q-20 66 -12.5 128.5t35.5 123.5q17 38 43.5 68t60.5 55q31 23 64 39.5t68 30.5q52 20 105 30t108 3
q61 -8 120 -23.5t111 -51.5q6 -5 9.5 -2.5t5.5 8.5q2 9 5 18t5 19q4 17 22 20q12 1 23.5 3t22.5 4q17 1 17 -15q-1 -43 -1.5 -85t-0.5 -84q-1 -8 -1 -17t-1 -18q0 -17 -18 -20q-8 -2 -17 -4t-17 -1q-28 2 -44 22q-18 24 -41 42.5t-47 35.5q-11 8 -24.5 12.5t-26.5 9.5
q-23 10 -48 12l-50 4q-43 5 -84 -1.5t-82 -20.5q-28 -9 -55 -20.5t-52 -28.5q-19 -14 -34 -29t-26 -35q-24 -42 -35 -85.5t0 -92.5q12 -51 51 -90q32 -32 70.5 -48.5t79.5 -30.5q14 -5 28.5 -9t28.5 -8q58 -17 118 -11z" />
    <glyph glyph-name="h" unicode="h" 
d="M249 0h-150q-17 0 -22 17q-6 21 -9 42q-2 9 5.5 17.5t16.5 8.5q24 0 46.5 6.5t45.5 13.5q8 2 9.5 6.5t1.5 11.5q1 42 1.5 82.5t-0.5 82.5q-2 65 -3.5 128.5t-3.5 128.5q0 8 -1 12q0 14 -1 22t-4.5 12.5t-10.5 7.5t-20 7l-34 10l-34 10q-8 3 -13.5 8t-6.5 15q0 5 -1 8.5
t-2 8.5q-1 17 5 23.5t23 5.5q48 -2 95.5 -3.5t95.5 -3.5q4 0 7.5 -0.5t7.5 -0.5q27 1 54.5 1t54.5 1q26 1 32 -5t7 -32q0 -17 -6 -25.5t-23 -12.5q-16 -4 -32 -6.5t-32 -6.5q-21 -4 -31.5 -6.5t-14 -7.5t-3.5 -14.5v-27.5v-109q0 -5 0.5 -10.5t0.5 -10.5q0 -13 13 -13
q37 -2 73.5 0t74.5 1q26 0 52.5 -1t53.5 1q19 1 38 1.5t38 2.5q34 -1 58.5 -1t45 1t38.5 2t41 2q14 -2 18.5 2t4.5 19q1 38 1.5 76.5t0.5 76.5q0 18 -4.5 22.5t-22.5 8.5q-16 3 -31 4.5t-31 3.5q-17 3 -25.5 11t-10.5 25q-3 15 -1 35q0 15 16 12q23 -5 46.5 -3.5t46.5 3.5
q15 2 30 0.5t29 -2.5q7 0 13.5 -1t13.5 0h47.5h35.5t31 -0.5t33 -1.5q15 0 18 -3.5t3 -19.5q0 -8 -0.5 -16t-0.5 -16q-1 -17 -6.5 -24t-22.5 -9q-20 -3 -38.5 -4.5t-38.5 -3.5q-11 -1 -14 -3.5t-4 -13.5q-1 -17 -1.5 -32.5t-0.5 -32.5q2 -50 3.5 -99t2.5 -99q1 -39 0 -78
t-1 -79q0 -11 0.5 -23t0.5 -24q0 -18 19 -22q24 -5 48.5 -11t48.5 -11q12 -2 18.5 -8t8.5 -18q0 -6 1.5 -12t1.5 -11q-1 -20 -7.5 -26.5t-26.5 -7.5q-59 -2 -118 0q-53 1 -105 2t-105 1q-9 0 -15 2.5t-9 12.5q-3 9 -6.5 18.5t-5.5 20.5q-3 25 25 29q15 3 30.5 5.5t30.5 4.5
q11 2 23 5t23 6q13 3 13 17q-1 11 -0.5 22.5t-0.5 22.5q-1 29 -1.5 59t-2.5 59q-1 13 -2 20.5t-5 11t-12 4t-22 -0.5q-20 -2 -39.5 -2.5t-39.5 -2.5q-21 -1 -41.5 -2.5t-41.5 -2.5q-44 -1 -87 -1h-87q-15 -1 -29.5 -2t-29.5 -1q-25 0 -50 0.5t-50 1.5q-11 0 -14.5 -2.5
t-3.5 -13.5q0 -41 0.5 -80.5t1.5 -79.5q0 -17 4.5 -20.5t21.5 -7.5q23 -5 44.5 -10t44.5 -10q3 -1 7 -4.5t4 -7.5q2 -14 3.5 -27.5t1.5 -27.5q0 -3 -3.5 -6.5t-7.5 -5.5q-11 -3 -23 -3h-151v1z" />
    <glyph glyph-name="i" unicode="i" horiz-adv-x="510" 
d="M315 128q0 -18 3 -22t20 -9q17 -6 39.5 -9t41.5 0q35 6 32 -29q-1 -11 -2 -21t-3 -20q-2 -11 -6 -15t-15 -4q-35 0 -70.5 1t-70.5 -1q-29 -2 -56 0.5t-55 3.5q-14 1 -27 -1t-26 -2q-9 -1 -18 -0.5t-18 0.5q-15 2 -17 17q-1 5 -1 15q1 12 0.5 24.5t4.5 21.5q6 10 19 10.5
t24 2.5q39 7 78 18q16 4 19.5 8t2.5 20v63.5t-2 63.5q-2 47 -1.5 93t-2.5 93q-1 24 0 47.5t-1 46.5v30q-1 10 -3.5 14t-12.5 6q-22 5 -49.5 10t-49.5 10q-17 4 -24 12t-8 26q-1 10 -1 20.5t9 18.5q4 4 8 6.5t9 -1.5q11 1 17 1t10 -0.5t7.5 -0.5h8.5q48 5 94.5 0.5t94.5 -3.5
q29 0 58.5 -5t58.5 3q13 3 13 -11l-2 -34t-3 -34q-1 -12 -16 -13q-15 -2 -34.5 -4t-34.5 -6q-19 -5 -28 -7.5t-12.5 -7t-3 -13t0.5 -26.5q0 -36 1 -72l2 -72v-77q-2 -47 -2 -93v-93z" />
    <glyph glyph-name="j" unicode="j" horiz-adv-x="517" 
d="M234 502q-1 17 -1.5 33.5t-0.5 33.5q0 14 -14 19q-25 8 -51.5 16.5t-50.5 16.5q-17 5 -18 20q-1 8 -2 15t-2 15q-3 31 26 31q28 0 55.5 -1t56.5 -3q8 0 15 -0.5t14 0.5q41 3 80 -1.5t79 -4.5q9 0 18 -0.5t17 4.5q5 3 9 0.5t4 -7.5q2 -14 2.5 -27.5t-0.5 -27.5
q0 -8 -5 -11t-13 -5q-45 -11 -90 -26q-15 -5 -18.5 -10.5t-3.5 -22.5q0 -73 0.5 -146t4.5 -146q1 -17 1.5 -37.5t-1.5 -37.5q-2 -34 -6.5 -62.5t-7.5 -62.5q-2 -10 -3.5 -19.5t-4.5 -18.5q-12 -41 -31 -77.5t-50 -67.5q-2 -2 -3 -3.5t-3 -3.5q-37 -25 -76 -44t-84 -26
q-20 -3 -39 -3q-13 -1 -21.5 5.5t-10.5 17.5q-2 18 -3 36.5t-2 36.5q0 15 16 15q8 0 17 0.5t18 -0.5q28 -2 51.5 8.5t43.5 25.5q26 20 44 45.5t26 57.5q8 28 12.5 56t5.5 57t0.5 57.5t1.5 57.5q0 20 -0.5 40t-0.5 40q-3 35 -1 71t0 71z" />
    <glyph glyph-name="k" unicode="k" horiz-adv-x="1129" 
d="M316 294q16 11 28.5 19t24.5 16q66 48 136 95.5t136 95.5q25 18 51 35l52 34q9 5 23 15q-6 2 -10 3l-8 2q-21 3 -42.5 6t-42.5 6q-17 2 -22 6.5t-10 21.5l-2 12t-1 11q0 18 4.5 22t23.5 3q11 -1 22 -0.5t22 0.5q15 0 30 1.5t29 -0.5q35 -4 70.5 -0.5t70.5 2.5
q27 -1 53.5 0t53.5 0q11 0 23 -1t24 -3q13 -2 13 -13q1 -24 0 -47q0 -5 -2.5 -9.5t-9.5 -5.5q-23 -1 -44.5 -7.5t-44.5 -8.5q-9 -2 -18.5 -4.5t-18.5 -2.5q-15 0 -26 -6.5t-22 -14.5q-48 -36 -95 -72t-95 -72q-11 -9 -12 -12t9 -15q15 -19 30.5 -37.5t30.5 -38.5
q23 -30 45.5 -61t47.5 -60l40 -46t43 -42q17 -14 34 -18q26 -6 52.5 -12t53.5 -11q18 -3 20 -21q2 -11 3 -22t1 -22q1 -17 -18 -17q-16 0 -32 -0.5t-32 -1.5q-13 -1 -25.5 -1.5t-25.5 0.5q-48 1 -94.5 2t-94.5 3q-15 0 -30.5 1.5t-31.5 0.5q-21 0 -30 20q-5 12 -4 24t4 24
q1 3 5.5 4.5t8.5 2.5q20 5 44 8t44 7q14 3 16 8t-6 16q-23 32 -50.5 64t-50.5 64q-8 12 -16.5 24t-16.5 25q-11 18 -25 32.5t-28 29.5q-9 10 -21 1q-20 -12 -39 -27q-46 -35 -96.5 -69t-96.5 -69q-12 -9 -19.5 -16t-10.5 -14.5t-2.5 -17.5t2.5 -25q3 -12 13 -18
q11 -8 23 -10.5t24 -4.5q14 -2 32.5 -3.5t32.5 -3.5t17.5 -6t3.5 -18q0 -10 -1 -15q0 -9 1 -18.5t-4 -14.5t-14.5 -5.5t-18.5 -1.5q-32 -2 -63 -5t-63 -5q-8 0 -12 1q-25 3 -49.5 2.5t-49.5 -2t-49.5 -3t-49.5 -0.5q-25 0 -29 22q-2 10 -2.5 20t-1.5 21q0 19 18 24
q20 5 40 9.5t40 9.5q11 3 21.5 5t21.5 5q16 3 16 18q0 8 0.5 15t0.5 15q1 63 1.5 126.5t0.5 127.5q0 36 -4 72t-4 73q-1 16 -4.5 19.5t-17.5 9.5q-26 9 -50.5 18.5t-48.5 19.5q-16 6 -13 23q2 7 1.5 14t-2.5 15q-2 13 3.5 21t18.5 9q19 1 38 0.5t39 -0.5h44t44 1
q34 2 68 0.5t68 -5.5q8 -1 16 0.5t16 2.5q17 2 22.5 -2.5t4.5 -22.5v-17t-1 -18q-1 -15 -17 -16q-25 -2 -52 -9t-50 -16q-18 -8 -19 -24q-1 -8 -2 -15t-1 -15q-2 -51 0 -101.5t0 -101.5q0 -11 0.5 -21.5t0.5 -24.5z" />
    <glyph glyph-name="l" unicode="l" horiz-adv-x="851" 
d="M203 0h-59t-59 -1q-14 0 -17 3t-4 17q-2 21 -2 31t3 14.5t11.5 6t24.5 6.5q18 5 35.5 11.5t34.5 12.5q14 5 17.5 10t2.5 21q0 10 -1.5 19.5t-1.5 19.5q-2 59 -3.5 117.5t-3.5 118.5q-1 36 0 72t1 73q0 5 -0.5 10t-0.5 10q0 23 -23 29q-20 5 -38.5 11t-38.5 11
q-19 5 -20 22q-1 11 -2 23t-1 24q0 9 3.5 12t12.5 3q21 -1 41.5 -2.5t41.5 -2.5q26 0 53 0.5t53 0.5l66 -2t67 -3q12 0 14 -15q1 -11 0 -21.5t7 -21.5q4 -4 0 -7t-9 -5l-34 -10l-34 -10q-11 -3 -21 -6.5t-21 -7.5q-14 -5 -14 -20v-56q0 -17 2 -35t2 -54q2 -75 3.5 -148
t3.5 -148q1 -14 3.5 -16.5t17.5 -2.5q38 -1 75.5 -0.5t75.5 -0.5l78 -2l78 -2q17 0 34 0.5t34 0.5q18 1 24 17q8 19 14 37.5t9 38.5q1 4 2 7.5t2 7.5q3 12 6.5 14.5t15.5 3.5q8 1 16 1h16q14 0 19.5 -4.5t5.5 -19.5q1 -24 1 -47.5v-46.5v-89q-1 -17 -5.5 -22.5t-22.5 -6.5
q-31 -1 -62 -1h-62q-124 -2 -238 -2t-229 2z" />
    <glyph glyph-name="m" unicode="m" horiz-adv-x="1390" 
d="M320 212q1 -25 2 -41.5t3 -41.5q0 -11 11 -14q26 -8 58.5 -15t58.5 -14q8 -2 11.5 -5.5t2.5 -12.5q0 -11 1 -23l2 -24t-2.5 -16.5t-17.5 -3.5q-84 2 -162.5 4.5t-158.5 -10.5q-10 -2 -20 -1t-21 0q-18 -2 -23 15q-2 10 -4.5 20t-1.5 20q2 15 7.5 19t21.5 5q3 0 6 -0.5
t6 0.5q23 5 47 10.5t47 11.5q13 3 15.5 6.5t3.5 15.5v33v98t-1 99q0 17 -1 34t-1 34q0 30 0.5 59.5t1.5 58.5v15q-1 17 -5 23t-20 11q-20 8 -40.5 15t-40.5 14q-15 4 -18 20q-2 8 -4 15.5t-4 15.5q-8 26 19 28q71 2 141 4.5t142 4.5q21 2 46.5 0t42.5 -9q3 0 0.5 -2t-2.5 -4
q12 -14 16.5 -28.5t12.5 -30.5l93 -234q27 -67 54 -133.5t55 -134.5q2 -5 4.5 -12t10.5 -7q10 0 11.5 7.5t3.5 14.5q25 85 52 167.5t58 165.5q17 44 32 87.5t30 87.5q5 14 7 24.5t6 24.5q3 12 7.5 15.5t16.5 2.5h37.5t36.5 -1q10 -1 19 0.5t19 0.5h112h41q14 0 27 0.5
t26 0.5q9 1 18 1.5t18 0.5q26 0 35 -25q5 -13 3.5 -25t-7.5 -23q-3 -4 -13 -6q-25 -8 -53.5 -15.5t-54.5 -15.5q-9 -2 -13 -14q-5 -17 -8.5 -34.5t-4.5 -34.5q0 -22 -0.5 -39.5t-0.5 -34.5v-35.5t1 -43.5q1 -14 3.5 -29.5t2.5 -29.5v-86.5t1 -85.5q0 -17 3 -20.5t20 -6.5
q20 -3 40.5 -5.5t40.5 -5.5q5 0 9 -0.5t9 -1.5q12 -3 14 -17q0 -12 1 -23.5t1 -23.5q-1 -12 -5.5 -16.5t-16.5 -5.5q-26 -1 -52 -1h-52q-48 -1 -94.5 -0.5t-94.5 -0.5q-11 0 -23 1t-23 -1q-15 -3 -17 8q-2 14 -7.5 26.5t-3.5 27.5q0 12 12 17q17 4 33 5t33 5q13 4 25.5 7
t26.5 6q11 3 11 15q1 6 1 11.5v11.5q0 48 0.5 94.5t0.5 94.5q0 14 -1.5 28t-1.5 28q-1 32 -1 62.5v62.5v22t-2 22q-2 15 -3.5 23t-6 11.5t-12.5 4t-24 0.5q-17 0 -23 -18q-25 -65 -50.5 -129t-45.5 -131q-3 -11 -7 -22.5t-8 -22.5l-24 -74l-24 -74q-9 -26 -18 -50.5
t-18 -49.5q-6 -17 -18.5 -24.5t-28.5 -8.5q-26 -2 -51.5 -1.5t-51.5 1.5q-10 0 -18.5 6.5t-10.5 14.5q-9 25 -17 50t-19 49q-33 70 -61.5 141t-57.5 142q-16 38 -32.5 85.5t-32.5 85.5q-7 15 -16.5 22t-26.5 5q-2 -1 -4 -0.5t-4 0.5q-18 1 -29 -3t-11 -21v-194
q3 -40 3 -79.5t1 -79.5z" />
    <glyph glyph-name="n" unicode="n" horiz-adv-x="1149" 
d="M304 591q-1 -14 -1.5 -23t-0.5 -18q0 -50 -0.5 -108.5t-0.5 -108.5q0 -51 -0.5 -102t-0.5 -102q0 -16 4.5 -20t21.5 -7q28 -5 55.5 -10t55.5 -10q10 -3 10 -13q0 -14 -0.5 -28t-0.5 -28q0 -13 -12 -14q-12 -3 -24 -3q-38 1 -75 1t-75 1q-30 1 -60.5 -1.5t-60.5 2.5
q-10 2 -20 0.5t-21 -2.5q-25 -3 -29 22q-2 11 -2.5 23t-1.5 23q-1 12 12 14q12 3 23.5 5.5t22.5 5.5q14 3 27.5 6t27.5 6q12 3 12 14q0 9 0.5 18t0.5 18q1 58 1 116t1 117q0 28 0.5 56t-1.5 56q-1 21 -3 41.5t-5 40.5q0 4 -3 7.5t-6 5.5q-11 5 -22.5 8t-22.5 7q-2 1 -6 1
l-55 16q-3 1 -5.5 5.5t-3.5 8.5q-2 11 -2 22v22q2 7 12 11q17 5 32 5q28 1 55.5 0.5t56.5 -0.5q26 -1 53 -1h53q9 0 16 2t13 2.5t12 -1.5t12 -10q17 -20 32 -41t31 -41q22 -28 43 -56t44 -56q24 -29 48.5 -57t49.5 -57l114 -129q15 -17 29.5 -33t29.5 -33q17 -20 33.5 -40
t35.5 -43q0 10 0.5 17t1.5 14q0 7 0.5 13.5t0.5 13.5q-4 64 -5 127t-9 126q-5 38 -5.5 76.5t-4.5 76.5q-2 14 -5 18.5t-17 6.5q-23 4 -49.5 8.5t-49.5 9.5q-11 3 -11 12q1 13 1 25t1 25q1 11 5 15t15 5q6 1 12 1h12q42 -2 83.5 -3.5t83.5 -2.5q32 -1 63.5 -0.5t63.5 1.5
q7 0 13 2.5t13 4.5q12 3 12 -8q1 -9 3 -17.5t-3 -17.5q-2 -5 -1.5 -11.5t-0.5 -11.5q-2 -11 -8 -15t-18 -3q-6 1 -12 0.5t-11 -1.5q-17 -4 -32.5 -8t-30.5 -9q-14 -4 -17 -8t-3 -17q2 -45 2.5 -88.5t2.5 -88.5q2 -38 3 -76.5t2 -76.5q2 -42 2.5 -83t1.5 -83q0 -5 1.5 -9.5
t3.5 -9.5q1 -6 2.5 -11.5t2.5 -11.5q6 -49 -41 -43q-21 3 -41.5 3.5t-40.5 -4.5q-18 -3 -29 10q-26 27 -51.5 53.5t-51.5 53.5q-23 23 -45.5 46t-44.5 47q-28 29 -55 59.5t-53 61.5q-10 11 -18.5 21t-18.5 21q-48 57 -91.5 115t-92.5 116z" />
    <glyph glyph-name="o" unicode="o" horiz-adv-x="1022" 
d="M527 -24q-9 1 -18.5 2t-20.5 2q-32 4 -63 7t-63 7q-34 8 -69.5 20.5t-67.5 30t-59.5 39.5t-46.5 49q-14 22 -27 44t-24 45q-14 33 -19 72t-0.5 78t18 75.5t36.5 66.5q37 45 69 75t66.5 51t75.5 36.5t95 30.5q6 2 12.5 2.5t13.5 1.5q19 2 38 3.5t38 3.5q22 2 38 -1
q99 -13 176.5 -36t131.5 -64.5t84 -105t34 -156.5q2 -53 -8 -96.5t-26.5 -77.5t-36 -58t-35.5 -38q-7 -6 -14 -11.5t-15 -9.5q-18 -11 -36 -20.5t-36 -19.5q-40 -20 -82 -28.5t-86 -12.5q-18 -2 -35.5 -3.5t-37.5 -3.5zM550 601q-11 -2 -32 -3.5t-44 -3.5q-31 -5 -54 -10.5
t-41 -11.5t-32.5 -12.5t-27.5 -13.5q-11 -6 -22 -11t-22 -12q-10 -6 -19.5 -13t-18.5 -15q-17 -16 -29 -40.5t-22 -45.5q-20 -45 -13.5 -88.5t21.5 -87.5q4 -12 16.5 -25.5t27.5 -25.5t31 -21.5t27 -14.5q22 -9 52.5 -18t63.5 -15.5t66.5 -10.5t60.5 -2q24 1 44 1.5t39 3
t37 6t38 10.5q31 12 61.5 32.5t54 47t36.5 57.5t10 65v20.5t-2 19.5q-7 54 -24.5 90.5t-42.5 61.5t-56 41.5t-64 29.5q-25 10 -53.5 10.5t-66.5 4.5z" />
    <glyph glyph-name="p" unicode="p" horiz-adv-x="948" 
d="M190 475q0 23 -1.5 45.5t-3.5 45.5q-1 16 -3.5 20t-22.5 6q-21 2 -42 5l-42 6q-13 0 -14 12t-2 23.5t-1 23.5t5 17t16 7q3 0 6 0.5t6 0.5q71 10 142 6.5t142 -3.5q25 -2 49 -1t49 1q55 -1 109.5 -0.5t110.5 -5.5q72 -12 125.5 -43t80.5 -92q12 -31 13 -66.5t-5 -66.5
q-8 -35 -25.5 -63.5t-46.5 -51.5q-51 -39 -108 -50.5t-118 -9.5q-26 0 -50.5 -0.5t-50.5 0.5q-23 0 -47 0.5t-47 1.5q-21 1 -41.5 1t-40.5 1q-5 0 -9 -1t-9 -2q-15 -3 -14 -16q1 -26 1.5 -50.5t2.5 -49.5q1 -11 8 -17.5t17 -8.5q22 -3 41.5 -12.5t41.5 -14.5q16 -3 16 -22
q0 -8 -0.5 -16t0.5 -16q0 -8 -4 -11t-11 -4h-36.5t-36.5 -1q-24 0 -47.5 -1t-47.5 -2q-26 -1 -51.5 -1h-51.5q-14 0 -28 -0.5t-28 0.5q-12 1 -16 4.5t-6 14.5q-1 5 -1.5 11t-0.5 12q-2 27 25 35q20 7 39.5 13t39.5 13q7 2 11.5 3.5t6.5 4t2.5 7t0.5 12.5q-2 101 1.5 183.5
t1.5 162.5zM619 339q21 2 41.5 4.5t40.5 7.5q32 8 54 25t39 48q10 17 14 33.5t-7 33.5q-5 7 -8.5 14t-8.5 14q-5 8 -10.5 15.5t-13.5 13.5q-20 15 -42.5 23.5t-46.5 11.5q-30 3 -60.5 3.5t-60.5 2.5q-14 1 -28 1.5t-28 -0.5q-26 0 -50.5 -1t-49.5 -3q-15 -2 -29.5 -4.5
t-29.5 0.5q-6 2 -12.5 0.5t-13.5 -3.5q-3 -1 -6 -4t-3 -5q-3 -29 -3 -56q0 -35 0.5 -70.5t1.5 -71.5q0 -20 3.5 -24t23.5 -5h24q55 -1 95 -1t71 -0.5t55.5 -1t47.5 -1.5z" />
    <glyph glyph-name="q" unicode="q" horiz-adv-x="1069" 
d="M779 43q27 -23 53 -45t53 -43q14 -11 30 -20.5t33 -17.5q20 -9 40.5 -11t41.5 10q11 5 18 -5q11 -15 20 -29q2 -7 -2 -13q-4 -5 -8 -8.5t-8 -8.5q-23 -31 -53 -40.5t-65 -2.5q-49 8 -89.5 31t-72.5 62q-39 47 -74 92q-9 10 -21 7q-10 -2 -20 -3.5t-20 -3.5
q-22 -4 -43.5 -8t-44.5 -6q-14 -2 -27.5 0t-27.5 3q-17 1 -51 7t-70.5 14.5t-69 18.5t-45.5 19q-35 23 -71 45.5t-59 51.5q-44 50 -66.5 109t-8.5 124q15 78 53 146t101 113q30 20 62 33t64 22t65 16t66 16q38 5 75 3.5t75 -6.5q31 -4 61 -11t59 -15q30 -4 62 -24.5t61 -49
t53 -62t36 -62.5q9 -21 12.5 -39.5t4.5 -39t0.5 -44t-0.5 -53.5q-1 -32 -8.5 -56t-18.5 -44t-24.5 -38t-26.5 -39q-17 -28 -41.5 -47.5t-50.5 -38.5q-3 -3 -12 -9zM459 310q8 -2 19 -2.5t22 -4.5q43 -15 80.5 -36.5t67.5 -56.5q14 -16 27.5 -31.5t27.5 -30.5q11 -11 16 -11
t18 8q54 37 86 93t32 118q-10 56 -25 99.5t-54 78.5q-19 16 -43 32.5t-54 28.5t-67 18.5t-81 4.5q-95 -2 -176.5 -33.5t-138.5 -104.5q-8 -10 -17.5 -23.5t-18 -28.5t-14.5 -30t-6 -28v-14.5t1.5 -21t5.5 -31t12 -45.5q9 -18 24 -32.5t29 -24.5q5 -6 13 -9.5t16 -8.5
q5 6 9 11.5t8 11.5q1 1 1 1.5t1 1.5q56 101 179 101zM553 98h45q5 1 7 5t-1 8q-17 21 -29 38.5t-28.5 31t-41 23t-65.5 13.5q-13 3 -27.5 -1t-28 -12t-23.5 -19.5t-14 -24.5q-6 -17 9 -24q3 -2 6.5 -3t6.5 -3q45 -18 90.5 -25t93.5 -7z" />
    <glyph glyph-name="r" unicode="r" horiz-adv-x="1002" 
d="M613 274q33 -22 52.5 -40t31.5 -34.5t20 -34.5t19 -40q14 -29 27.5 -58.5t32.5 -56.5q54 -81 151 -90q5 -1 9 -0.5t9 -1.5q19 -3 25 -22q2 -8 4.5 -15.5t4.5 -15.5q5 -17 0 -29.5t-22 -17.5q-28 -10 -54 -10q-37 -1 -70 8t-62 35q-24 22 -43.5 47t-36.5 54
q-17 28 -30 57.5t-24 60.5q-27 71 -83 124q-35 32 -76.5 53.5t-91.5 23.5q-24 1 -49.5 -0.5t-49.5 -3.5q-9 0 -12 -5t-2 -13q2 -28 1 -55t1 -54q0 -28 9.5 -37t38.5 -12q11 -1 25 -2.5t25 -3.5q14 -2 17.5 -6t5.5 -19q1 -6 1.5 -11.5t1.5 -11.5q2 -17 -6.5 -26t-25.5 -8
q-23 1 -47 0.5t-47 -0.5h-41q-25 -2 -49 -3.5t-48 -3.5q-19 -1 -37.5 -0.5t-36.5 1.5q-5 0 -10 3t-7 6q-11 25 -2 49q2 7 8.5 9t13.5 4q23 5 48 11t48 12q9 2 12 6.5t2 14.5q-3 107 -4 209t-4 205q0 11 -1 22.5t0 22.5q0 18 -15 17q-23 0 -43 8.5t-42 13.5q-12 3 -15 6
t-4 15v9q0 15 0.5 24t5 14.5t13 7.5t24.5 2q20 1 40.5 0t41.5 0q64 -1 121.5 0t111.5 1.5t107 1t108 -1.5q10 0 20 -0.5t21 -2.5q23 -5 45.5 -11t45.5 -14q73 -26 104 -98q8 -19 10.5 -39t1.5 -42q-3 -52 -28 -90t-60 -72q-5 -5 -10.5 -8t-11.5 -6q-14 -6 -33 -11
t-39.5 -8.5t-40 -6t-35.5 -3.5q-3 -1 -6 -1.5t-10 -1.5zM293 499q3 -26 2.5 -51.5t-0.5 -51.5q0 -16 4 -20.5t20 -4.5q31 0 62.5 -0.5t63.5 1.5q44 2 87.5 0t88.5 3q23 2 44.5 3t42.5 9q55 20 69.5 59.5t-13.5 84.5q-15 24 -35 39q-11 7 -24 10t-26 7q-23 8 -47.5 6.5
t-48.5 -1.5q-35 0 -69.5 -1.5t-69.5 -3.5q-33 -2 -66 -2.5t-66 -1.5q-13 -1 -15.5 -3.5t-3.5 -16.5v-64z" />
    <glyph glyph-name="s" unicode="s" horiz-adv-x="844" 
d="M156 68q-2 -11 -3.5 -19t-2.5 -16q0 -29 -29 -28q-8 1 -15 0.5t-15 0.5q-11 1 -16 5t-8 16q-2 8 -2 15v14q-1 28 -1 55v55q0 18 -3 38q-2 17 3.5 23.5t23.5 8.5q13 1 25.5 0.5t25.5 0.5q15 0 24 -13q8 -11 16 -21.5t16 -21.5q10 -14 23.5 -24.5t27.5 -18.5
q34 -21 70 -33.5t77 -16.5q43 -3 85.5 0t84.5 8q21 3 40.5 10.5t35.5 20.5q17 14 28 30.5t13 38.5q1 19 -19.5 32t-47.5 24q-56 18 -109 30t-114 26q-52 15 -101.5 26t-98.5 31q-21 10 -41.5 19t-33.5 23q-14 16 -24.5 35t-15 39t-2 41.5t16.5 43.5q14 25 33 52q14 21 34 33
t41 23q32 17 66 25t70 12q24 3 48 4t49 -2q38 -6 76 -16t74 -26q17 -8 32.5 -19t31.5 -22q9 -6 12.5 -5.5t6.5 11.5t5 21.5t5 21.5q3 13 6.5 15.5t17.5 4.5h14t15 1q17 1 20.5 -1.5t5.5 -19.5q2 -13 2 -26v-27q2 -28 2.5 -55.5t2.5 -56.5q1 -17 -5 -26.5t-32 -8.5q-2 0 -3 1
t-3 0q-20 -5 -34.5 4t-27.5 21q-21 20 -46.5 33.5t-51.5 24.5q-7 3 -14.5 4t-14.5 3q-22 6 -43.5 12.5t-44.5 10.5q-54 8 -105 2t-100 -29q-4 -2 -10 -6q-14 -9 -21.5 -21.5t-5.5 -28.5t11.5 -27.5t26.5 -16.5t34.5 -9t34.5 -8q51 -12 100 -24.5t100 -23.5t99.5 -27.5
t96.5 -37.5q28 -13 47.5 -33t29.5 -44t10.5 -50.5t-7.5 -52.5q-13 -49 -40 -79t-62.5 -48.5t-77 -28.5t-84.5 -17q-17 -2 -34.5 -5t-35.5 -3q-59 0 -115.5 11t-110.5 35q-14 7 -26 14.5t-23 18.5q-2 3 -6 6t-10 8z" />
    <glyph glyph-name="t" unicode="t" horiz-adv-x="974" 
d="M498 0h-135q-13 -1 -26 -1t-26 -2q-15 -2 -20.5 2t-6.5 19v41q0 16 18 19q28 4 55 8.5t55 9.5l15 3q11 3 13 5.5t3 16.5q3 110 3 214.5t-2 210.5v6q-2 19 -2.5 29t-5 14t-15.5 4h-33q-11 1 -21 -0.5t-21 -1.5q-45 -2 -90 -2.5t-90 -2.5q-14 0 -18 -3.5t-8 -17.5l-15 -63
q-3 -16 -7.5 -20t-21.5 -5h-16t-16 1q-19 1 -20 21v3q-2 37 -3.5 73.5t-3.5 73.5v22t3.5 11.5t11.5 4.5t22 1q27 1 54.5 3t53.5 1q129 -3 250.5 -2t242.5 -1q46 0 91.5 0.5t91.5 -0.5q17 -1 33.5 -3t33.5 -4q6 -1 10 -4t2 -10q-7 -26 -3.5 -51t2.5 -51q0 -13 0.5 -25.5
t0.5 -25.5q-1 -10 -4.5 -13t-14.5 -2q-17 0 -35 -3q-15 -3 -20 12q-5 11 -8 21t-7 21q-1 5 -1.5 9t-2.5 8q-6 16 -10.5 18.5t-21.5 2.5q-42 1 -82 1t-81 1q-20 1 -39.5 2t-39.5 1q-12 0 -15.5 -3t-3.5 -14q-1 -66 -1.5 -124.5t-0.5 -114v-110t-1 -111.5q-2 -17 14 -18
q34 -5 63.5 -15t64.5 -11q15 0 15 -14q1 -5 1 -15q0 -16 -0.5 -25t-5 -13.5t-13.5 -6t-25 -1.5q-20 0 -40 -0.5t-40 -0.5q-20 -1 -40.5 -1.5t-43.5 -1.5z" />
    <glyph glyph-name="u" unicode="u" horiz-adv-x="1052" 
d="M795 560v8.5t-1 8.5q0 9 -0.5 13.5t-3 7t-6.5 3.5l-12 3q-23 6 -45.5 12t-45.5 12q-12 3 -12 15q0 10 -0.5 20t0.5 21q1 14 5 18t18 5q18 1 36 0.5t35 -0.5h71t71 -1q25 -1 49.5 -2t50.5 -3q14 -2 18.5 -7.5t3.5 -19.5q-1 -6 -1 -12t-2 -12q-2 -14 -6 -17t-20 -7
q-11 -2 -22 -6.5t-22 -7.5q-11 -4 -23 -6.5t-23 -5.5q-12 -4 -14.5 -6.5t-3.5 -15.5v-189q0 -33 0.5 -55t0.5 -37.5t-1.5 -29t-4.5 -30.5q-3 -13 -11 -31.5t-17.5 -37t-20 -36t-19.5 -28.5q-21 -26 -42 -43.5t-44.5 -30.5t-49.5 -22.5t-57 -17.5q-24 -6 -53.5 -9t-60 -2
t-60 5.5t-53.5 12.5q-24 7 -40.5 13.5t-30.5 14t-28 17t-33 21.5q-35 30 -56.5 67.5t-34 78.5t-16.5 84t-3 83q0 35 0.5 69.5t0.5 69.5v62q-1 16 -4.5 20t-19.5 7q-23 3 -45.5 6t-45.5 6q-11 2 -13.5 4t-3.5 13q0 10 1 15q0 20 1 29.5t5.5 13t15 3.5h29.5q68 -5 136.5 -1
t136.5 2h18q13 -2 16.5 -6t3.5 -17v-27.5t-3 -14.5t-12 -8t-28 -7q-17 -4 -33 -8t-32 -9q-8 -2 -12 -4t-5.5 -5t-1 -8t0.5 -14q-2 -37 -2 -69t0.5 -61t2 -57.5t2.5 -57.5q2 -29 8 -58t20 -55q12 -22 27 -40.5t36 -32.5q32 -20 62.5 -34.5t68.5 -16.5l68 -2t66 10q19 6 40 17
t38 20q17 10 29.5 24.5t22.5 32t18 35.5t15 35q1 4 3.5 15t5 25t4.5 29t1 27v15q-2 48 -2 96v96z" />
    <glyph glyph-name="v" unicode="v" horiz-adv-x="959" 
d="M165 689q46 2 91.5 3.5t91.5 3.5q13 1 27 0q9 -2 14 -8t5.5 -15.5t-1.5 -18.5t-7.5 -16.5t-12.5 -10.5q-10 -5 -20.5 -7.5t-21.5 -5.5q-13 -4 -25.5 -7t-25.5 -7t-10 -19q1 -2 1.5 -4t1.5 -4q22 -62 43 -123t43 -122q18 -49 36 -97t37 -97q2 -4 3.5 -7.5t2.5 -8.5
q5 -15 10.5 -20.5t29.5 -5.5q16 1 25.5 2t15 5t9 13t9.5 25q34 84 59 147t43.5 113.5t33 91t28.5 78.5q5 13 7.5 20.5t0.5 11.5t-9 5.5t-20 4.5q-20 5 -40.5 8.5t-40.5 8.5q-17 3 -19 6.5t0 20.5q1 7 1 14v15q0 15 15 15q5 1 10 0.5t10 0.5q26 1 51.5 2t51.5 1q28 1 55 1.5
t55 0.5h45.5t45.5 -1q15 0 19 -3.5t5 -17.5q1 -17 0 -28t-5.5 -18t-14.5 -11.5t-27 -9.5q-12 -3 -24.5 -6t-24.5 -5q-17 -4 -24 -20q-7 -18 -14.5 -35.5t-14.5 -35.5q-28 -74 -55.5 -147.5t-56.5 -147.5q-13 -27 -23 -57t-20.5 -59t-23.5 -56.5t-31 -48.5q-24 2 -48.5 2.5
t-48.5 1.5h-100q-14 1 -19.5 4.5t-9.5 15.5q-23 67 -46.5 133.5t-46.5 134.5q-22 66 -45.5 130.5t-47.5 130.5q-5 15 -13.5 23.5t-24.5 12.5q-25 6 -49 14t-49 15q-19 6 -20 23q-1 7 -1.5 13.5t-0.5 13.5q-1 18 3.5 22.5t22.5 4.5h124v-2z" />
    <glyph glyph-name="w" unicode="w" horiz-adv-x="1384" 
d="M705 393q-6 -15 -11.5 -26.5t-10.5 -23.5q-24 -60 -48 -119t-47 -119q-8 -21 -15.5 -41.5t-15.5 -41.5q-7 -20 -28 -20q-35 -1 -71 -1.5t-71 -0.5q-17 0 -21.5 2.5t-10.5 18.5q-8 22 -15.5 43.5t-15.5 43.5q-13 34 -26.5 67t-26.5 67q-19 48 -36.5 96.5t-36.5 96.5
q-12 32 -25.5 63t-22.5 64q-9 35 -46 39q-15 2 -30 5.5t-30 7.5q-27 7 -29 39v23t4 11.5t12 4t23 0.5q63 -1 126.5 -0.5t127.5 0.5q14 0 28 -0.5t28 -0.5q12 0 14 -12q2 -16 1 -30.5t-17 -25.5q-5 -3 -10 -5.5t-10 -4.5q-19 -4 -37.5 -6.5t-37.5 -6.5q-5 -1 -8.5 -4
t-1.5 -10q8 -29 15.5 -57t17.5 -57q29 -84 60 -166.5t64 -164.5q2 -4 2.5 -7t2.5 -7q4 -7 5 -15.5t10 -10.5q11 -2 22 -1.5t22 2.5q3 0 6 4.5t5 8.5q9 21 17.5 42t17.5 42q21 54 42.5 106t42.5 105q8 23 16 44.5t16 44.5q5 14 8.5 28.5t8.5 28.5q2 5 3.5 9.5t2.5 9.5
q2 14 -2 19.5t-19 7.5q-27 5 -54 9.5t-53 9.5q-9 2 -13 11q-9 21 -1 43q4 16 21 18q5 1 10 1h10l234 -3h20.5t43.5 2q11 -2 12.5 -5t-0.5 -14q-1 -7 -1 -13.5v-12.5q0 -17 -3.5 -22t-19.5 -9q-17 -5 -33 -8t-33 -8q-14 -3 -15.5 -6.5t-2.5 -17.5q-2 -23 3 -45t13 -44
q21 -63 41.5 -126t41.5 -126q10 -29 21 -58l22 -58q9 -26 35 -23q10 0 16 1t9.5 4t6.5 8.5t6 14.5q36 106 72 211t71 211q4 10 6.5 19.5t5.5 20.5q2 6 -1 10t-9 3q-23 -3 -43 5t-41 9q-12 1 -16 5.5t-4 15.5v36.5t4.5 15.5t15 3.5t32.5 0.5q90 4 180 -3q23 -2 46 -1t46 1
q13 2 18 1t6 -6t-1 -14.5t-2 -23.5v-9q0 -18 -4 -21.5t-21 -2.5q-10 1 -19 -1t-18 -4.5t-18 -4t-19 0.5q-14 -2 -18 -14l-8 -24q-5 -16 -11 -31.5t-12 -31.5q-26 -64 -44 -124t-43 -118q-11 -23 -19.5 -47.5t-17.5 -48.5q-11 -29 -20.5 -58.5t-22.5 -57.5q-8 -17 -12 -25
t-9 -11.5t-13.5 -3t-26.5 0.5q-35 1 -68.5 1t-67.5 -5q-8 0 -15 7q-7 6 -12.5 13.5t-7.5 17.5q-16 62 -37.5 121.5t-41.5 119.5q-8 21 -13.5 42.5t-12.5 42.5q-2 5 -4 10.5t-5 13.5z" />
    <glyph glyph-name="x" unicode="x" horiz-adv-x="1011" 
d="M703 92q-14 17 -26 31.5t-26 28.5q-31 32 -62 62t-62 61q-2 2 -3.5 3t-3.5 3q-11 11 -22 0q-26 -27 -53 -53.5t-54 -52.5q-11 -11 -21 -23t-21 -23q-6 -7 -11.5 -14t-12.5 -15q22 -8 42.5 -12.5t41.5 -6.5q20 -3 25.5 -8.5t7.5 -25.5q1 -3 1 -9v-21.5t-3.5 -11
t-11.5 -4.5t-22 -1q-14 -1 -28 -2.5t-28 -1.5q-31 1 -61 3t-60 3q-16 1 -32 0.5t-33 -1.5q-16 0 -32 1t-32 0q-14 0 -28 -1.5t-28 -2.5q-17 -1 -22.5 4.5t-6.5 22.5v12q-1 18 -0.5 26.5t4.5 12t12 4t22 3.5q26 5 53.5 8t53.5 8q8 2 16.5 6.5t14.5 9.5q17 16 32.5 32.5
t32.5 32.5q35 32 69.5 64t69.5 64l4 4l4 4q10 10 1 21q-14 16 -29 31.5t-29 31.5q-21 23 -41.5 45.5t-42.5 45.5t-44 44t-44 43q-8 8 -12 9q-18 3 -36 6.5t-37 4.5q-12 0 -27 5q-9 3 -13.5 5t-7 4.5t-3 7t-0.5 12.5v29q1 11 4.5 14t14.5 3q31 1 61.5 1t62.5 1q38 1 77 2
t78 1q21 0 41.5 -1.5t41.5 -2.5q13 -1 15 -15v-14.5t-1 -14.5q-2 -17 -5.5 -20t-21.5 -6q-22 -4 -43.5 -8t-43.5 -9q-13 -3 -4 -15q32 -35 64 -69.5t64 -69.5q12 -14 24.5 -27t25.5 -27q11 -13 23 0q48 51 100 97.5t98 100.5l3 8q-23 4 -45.5 8.5t-45.5 6.5q-12 1 -18.5 2
t-9.5 4t-4 9t-2 17q-2 28 4.5 35t35.5 7q22 0 44 -0.5t44 -0.5q14 0 28 1.5t28 0.5q19 0 38 -2t38 -3q31 -1 62 -1h62q9 0 12 -2.5t5 -11.5q3 -15 3.5 -24t-2.5 -13.5t-11.5 -7.5t-23.5 -6q-17 -4 -33.5 -6t-33.5 -4q-17 -3 -32 -10t-26 -21q-35 -43 -76.5 -79.5
t-79.5 -77.5q-16 -17 -31 -35.5t-31 -35.5q-11 -13 2 -26q23 -22 45 -44.5t45 -44.5q34 -32 67.5 -63.5t68.5 -62.5q10 -10 23 -13q51 -10 107 -18q15 -2 16 -14q2 -4 2 -8q-2 -18 -1.5 -28.5t-3 -16t-13.5 -6.5t-31 0q-48 -5 -97 -1.5t-95 6.5q-29 1 -58.5 0t-59.5 -2h-17
q-12 2 -16 6.5t-5 17.5q-1 8 -1.5 16t-2.5 16q-2 10 1 13.5t14 5.5q7 1 13.5 1.5t13.5 0.5q17 -2 33.5 3t36.5 14z" />
    <glyph glyph-name="y" unicode="y" horiz-adv-x="1016" 
d="M272 598q11 -12 19 -20.5t16 -16.5q29 -26 51 -55.5t51 -53.5q18 -16 35.5 -31.5t33.5 -33.5q10 -12 14.5 -12.5t16.5 9.5q60 54 108.5 101t96.5 94q2 2 4.5 4t4.5 4q6 9 -4 11q-23 3 -46.5 5.5t-47.5 5.5q-11 2 -15 5.5t-6 14.5q-1 9 -1.5 18.5t-0.5 19.5q0 12 5 16.5
t17 4.5q20 1 41 2t41 0h59.5t58.5 5q13 2 26 2t27 -1q50 0 100 -3q14 -1 17.5 -3t5.5 -16q1 -3 1 -8q1 -13 1 -20t-3 -11t-9 -6t-18 -5q-23 -7 -47 -12.5t-47 -12.5q-14 -5 -25 -14q-46 -42 -91.5 -82t-90.5 -82q-26 -24 -51.5 -52.5t-51.5 -52.5q-8 -8 -13 -17t-2 -22
l3 -151q0 -16 4 -21t20 -5q30 -2 59.5 -9.5t59.5 -10.5q9 -1 14.5 -5t4.5 -15q-1 -5 1 -8.5t3 -8.5q4 -27 -22 -34q-23 -7 -45.5 -7.5t-45.5 1.5q-59 3 -115 -0.5t-112 -5.5q-30 0 -58 3q-11 1 -15 7t-4 17v14.5t-1 14.5q-2 19 14 22q11 3 22 5l22 4l42 8t41 9q4 1 7 4.5
t5 6.5q4 11 4 24q1 35 0 65.5t-7 65.5q-2 8 -6.5 16t-10.5 14q-23 23 -45.5 46t-47.5 44q-32 29 -60.5 65.5t-56.5 68.5q-8 9 -17 17q-11 11 -23 22t-23 24q-14 17 -32 24.5t-40 8.5q-14 0 -27 2t-26 5q-20 4 -23 26q-2 15 -1.5 23.5t5 13t13.5 6t24 1.5q12 0 24 1.5t23 0.5
q59 -5 116 -5.5t117 1.5q15 0 30 2.5t31 -2.5q13 -3 15.5 -9.5t4.5 -20.5q1 -5 1.5 -10.5t-0.5 -10.5q-1 -11 -5 -13t-15 -3q-30 -4 -61 -11t-66 -16z" />
    <glyph glyph-name="z" unicode="z" horiz-adv-x="896" 
d="M223 99q18 0 36 -0.5t37 -0.5q8 0 17 1t18 1h82.5t82.5 -2q43 -2 85.5 0.5t85.5 1.5q12 -1 24 -0.5t23 1.5q14 2 19 5.5t7 17.5q3 13 4.5 26t3.5 26q1 10 2 19.5t11 14.5q13 7 26.5 10t27.5 -2q11 -4 16 -13t6 -20q1 -10 0 -20t-2 -21q-1 -24 -1.5 -48.5t-2.5 -48.5
q-1 -10 -2 -15.5t-4 -8.5t-8.5 -5t-14.5 -5q-63 -6 -125.5 -6.5t-124.5 0.5t-124 1.5t-125 -3.5q-41 -3 -81 -4t-81 -3q-13 -1 -25.5 -1.5t-24.5 -2.5q-31 -3 -36 26v6q-3 22 -4.5 34t2 20.5t12.5 16.5t27 23q40 33 75.5 66.5t72.5 68.5q26 22 51 43t51 42l126 102
q17 14 33.5 26.5t33.5 25.5q24 18 54.5 41.5t50.5 46.5q2 2 2.5 5t1.5 5q-2 1 -4.5 2.5t-5.5 0.5q-37 -1 -71.5 -6t-70.5 -2q-72 5 -137 3t-131 0q-21 0 -32.5 -1t-17.5 -6.5t-8 -16t-3 -30.5q-2 -12 -3 -24t-3 -23q-3 -18 -22 -21h-3h-28t-17.5 4.5t-9.5 14.5t-4 30
q-2 33 -3.5 66t-3.5 66v10.5t1 10.5q1 12 4.5 14t15.5 2q44 0 87 0.5t87 -0.5q128 1 255 3t255 -4q9 0 18 0.5t18 -0.5q11 0 13.5 -3t2.5 -15v-17t-1 -18q-2 -15 -7.5 -28t-18.5 -23q-59 -48 -104.5 -86.5t-87 -73.5t-84 -69.5t-95.5 -74.5q-54 -41 -102.5 -85.5
t-100.5 -85.5q1 -2 1 -7z" />
    <glyph glyph-name="currency" unicode="&#xa4;" horiz-adv-x="964" 
d="M732 246q8 0 11 -3t5 -11q3 -11 4.5 -17t-0.5 -18q-2 -11 -6 -14t-16 -2q-7 0 -35 0.5t-68 0.5h-85.5h-87.5h-74h-45h-10.5t-10.5 -2q-3 -1 -6 -4t-3 -5q-1 -18 -0.5 -37.5t1.5 -37.5q0 -8 5 -10t11 -3q16 -2 31.5 -4t30.5 -4q12 -2 18.5 -4.5t10 -7t5 -12t4.5 -19.5
q5 -22 1 -27.5t-27 -5.5h-46.5t-58 0.5t-61.5 0.5t-57 0.5t-45 0.5h-24q-20 0 -25 0.5t-12 14.5q-2 6 -2 16.5t2 20.5q-2 11 2 15t15 5q23 2 45.5 4t45.5 5q14 2 17.5 5.5t3.5 18.5q1 28 0 57q-1 12 -4.5 16t-17.5 4q-6 0 -17.5 -0.5t-24.5 -1t-24.5 -1t-15.5 -0.5
q-21 1 -27 24q0 13 -1 20.5t0.5 11t8 4.5t20.5 1q20 0 38.5 0.5t38.5 0.5q18 1 21 4t4 21q-1 85 3 155t0 137q-2 15 -5 18t-18 5q-20 2 -45.5 11t-45.5 11q-11 -2 -17.5 5t-7.5 18v3q0 18 0.5 27.5t5 14.5t14 6.5t27.5 1.5q9 1 18 0.5t18 -1.5q18 -2 62.5 -2.5t102 -0.5
h120.5h117.5h93.5h48q44 0 88 -10.5t79 -33t57 -58t22 -86.5q0 -39 -14.5 -68.5t-36.5 -50.5t-49 -34.5t-52 -21.5t-45 -11t-29 -3q-11 0 -33 0.5t-49.5 0.5h-57.5t-56.5 -0.5t-47 -0.5h-27.5q-31 0 -61 -1t-60 -3q-17 0 -16 -16v-15q1 -11 4 -14t14 -4h29h70.5h93.5h97
h80.5h45.5zM714 396q23 2 48 12t44 26q14 13 20 30.5t3 35t-14 33t-30 23.5q-14 6 -34 9.5t-34 5.5q-4 0 -32 0.5t-67.5 1t-86 0.5h-87.5t-71.5 -0.5t-38.5 -1.5q-14 -1 -21.5 -2.5t-11.5 -5.5t-4.5 -12t-0.5 -22q0 -27 1.5 -53.5t-0.5 -53.5q0 -11 1 -17t4.5 -8t9 -2.5
t13.5 -0.5h27h65.5t87 -0.5t90.5 0t75.5 1t43.5 1.5z" />
    <glyph glyph-name="guillemotleft" unicode="&#xab;" horiz-adv-x="575" 
d="M302 132q8 -6 8.5 -10t-4.5 -11q-4 -5 -8 -9t-8 -9q-8 -9 -14 -13.5t-11 -4.5t-11.5 4t-15.5 13q-13 12 -26.5 23t-27.5 22t-27.5 22t-27.5 22q-14 9 -27 18t-27 17q-12 7 -16 24.5t6 27.5q34 34 70 67q22 21 43.5 42t44.5 41q5 5 11 8t13 7q11 -4 20 -6.5t17 -6.5
q14 -6 5 -19l-8 -10t-9 -10q-25 -26 -49.5 -51t-48.5 -51q-2 -2 -4 -4.5t-4 -4.5q-10 -11 0 -21q10 -11 20 -21.5t21 -20.5q23 -20 47 -38t48 -37zM491 150q11 -11 11 -18.5t-13 -16.5q-16 -10 -24 -15.5t-14 -5.5t-13.5 6.5t-20.5 21.5q-26 28 -53.5 54t-57.5 51
q-22 18 -21.5 29.5t21.5 31.5l138 132q11 11 17 11t17 -11q8 -8 16 -21q-2 -3 -3 -5.5t-3 -4.5l-60 -72q-8 -9 -15 -18.5t-13 -19.5q-16 -24 4 -45q1 -1 13 -12.5t27.5 -26.5t29 -28t17.5 -17z" />
    <glyph glyph-name="guillemotright" unicode="&#xbb;" horiz-adv-x="592" 
d="M511 306q23 -16 22.5 -26t-23.5 -27q-16 -11 -29.5 -23.5t-27.5 -26.5q-26 -29 -53.5 -57t-53.5 -57q-12 -14 -28 -6q-18 9 -27 14t-10.5 10t5 12.5t18.5 22.5q28 33 54.5 67t53.5 69q4 6 7 10q-5 7 -9 12q-24 21 -47.5 42.5t-47.5 41.5q-6 5 -10 10t-6 13q-3 15 10 22
q5 2 8.5 4t7.5 4q17 11 32 -4q11 -11 23 -20.5t23 -19.5q26 -22 53 -43t53 -43q1 -1 2 -1zM277 288q2 -2 3.5 -4.5t3.5 -4.5q-3 -5 -5.5 -9.5t-6.5 -8.5q-23 -30 -48 -60q-23 -29 -47.5 -56t-43.5 -59q-2 -2 -6 -3.5t-7 -0.5q-15 5 -32 14q-26 11 -9 33q17 23 35 44t36 43
q8 11 16.5 21t16.5 21t6.5 15t-9.5 15q-20 23 -43 42.5t-46 38.5q-8 6 -11 9q-11 13 0 24q5 5 10 10.5t11 9.5q3 2 7.5 3t8.5 1q4 1 8 -3q37 -35 78 -65.5t74 -69.5z" />
    <glyph glyph-name="uni0401" unicode="&#x401;" horiz-adv-x="928" 
d="M866 43q0 -5 0.5 -10.5t0.5 -10.5q0 -16 -3.5 -18t-20.5 -2q-57 0 -113.5 -2t-116.5 0q-119 0 -236 0.5t-242 -6.5q-11 -1 -22 -1h-22t-14 3t-5 14q-1 4 -0.5 7.5t-0.5 7.5q-4 20 -1.5 25.5t19.5 13.5q18 8 41.5 16t42.5 16q5 2 12.5 2.5t8.5 6.5q2 23 3 54.5t1 66v69
t-0.5 64.5t-1.5 53t-1 33q-1 30 -2.5 65t-2.5 65q-1 20 -5.5 25t-23.5 7t-37.5 5.5t-36.5 10.5q-23 10 -26.5 25t1.5 36q2 6 7 7.5t10 1.5q187 0 362.5 1.5t351.5 -2.5h30q39 0 39 -38v-98q1 -13 1 -25t2 -25q4 -22 -15 -35q-15 -10 -35.5 -6t-28.5 20q-5 11 -9 27
q-5 17 -8 33.5t-8 32.5q-3 14 -6.5 16.5t-17.5 2.5q-91 3 -187.5 0.5t-190.5 -2.5q-13 0 -26 -1.5t-26 -2.5q-13 -2 -13 -13q-1 -11 -1 -21v-21q0 -31 0.5 -61.5t0.5 -61.5q0 -8 2.5 -11.5t10.5 -3.5q76 -2 154.5 -2t158.5 2q18 0 25 -6.5t9 -24.5q2 -8 3 -16t3 -16
q2 -11 -2 -18.5t-15 -9.5q-9 -3 -18.5 -4t-19.5 -2q-54 -2 -111.5 -3.5t-112.5 -2.5q-17 -1 -32 -0.5t-32 -0.5q-12 0 -15.5 -3.5t-3.5 -15.5q1 -40 0 -79.5t1 -79.5q1 -11 4 -13.5t15 -2.5q19 1 38 2.5t38 1.5q38 2 78.5 2.5t78.5 1.5q48 2 96 2.5t99 2.5q12 0 15.5 2.5
t6.5 15.5q4 16 6.5 31.5t6.5 31.5q5 20 12 25t27 5h17t17 -4q10 -5 6 -15t-3 -18q3 -36 5 -72zM367 773q-60 -3 -81 46q-11 21 -4 39.5t29 28.5q9 5 18.5 8.5t19.5 7.5q3 1 7 2t7 0q19 -5 36 -13.5t27 -25.5q11 -17 9 -35.5t-16 -35.5q-8 -11 -23 -16q-8 -3 -16 -4t-13 -2z
M700 785q-17 -11 -33.5 -14t-31.5 0.5t-28.5 13t-22.5 22.5q-11 15 -4 33q16 36 54 45q17 3 31.5 0.5t29.5 -7.5q16 -6 23.5 -17t7.5 -22q-1 -38 -26 -54z" />
    <glyph glyph-name="uni0410" unicode="&#x410;" horiz-adv-x="1036" 
d="M327 604q-26 3 -48.5 6t-45.5 6q-5 1 -9 0.5t-9 0.5q-14 2 -18.5 7t-5.5 20q0 12 -0.5 23.5t-0.5 23.5q0 11 13 11q51 1 101.5 -2.5t101.5 1.5q28 2 55 2h54q24 0 47.5 -1.5t47.5 -1.5l96 2t96 3q8 0 17 3q13 4 16 2t3 -14q-1 -14 -1 -28t-1 -28q-1 -11 -14 -13
q-17 -3 -33 -6.5t-33 -7.5q-5 -1 -10 -1.5t-10 -2.5q-7 -2 -14.5 -4t-12.5 -7q-2 -2 1.5 -9.5t5.5 -13.5t3.5 -12.5t3.5 -13.5q4 -13 7.5 -25.5t7.5 -24.5q5 -14 9.5 -27t9.5 -26q8 -21 16.5 -42.5t18.5 -41.5q22 -47 39.5 -94t29.5 -97q4 -13 8.5 -25.5t8.5 -25.5
q7 -25 34 -28q9 -1 18.5 -2t19.5 -2q14 -1 28 -1t28 -2q4 0 9 -3.5t6 -6.5q4 -12 6.5 -24.5t1.5 -24.5q0 -11 -8 -17.5t-19 -10.5q-5 -2 -10.5 -2h-10.5q-29 -2 -58.5 -3.5t-59.5 -2.5q-17 -1 -35 0.5t-35 1.5q-31 -1 -61 -2t-60 -3q-23 -1 -31 15q-4 9 -6.5 18t-3.5 19
q-2 17 4 23.5t23 9.5q8 2 16 3.5t16 3.5q12 3 24 5.5t25 5.5q7 2 14 3t15 3q12 4 15 9.5t-1 16.5q-9 26 -19 51t-20 51q-6 14 -20 13q-13 0 -25.5 -0.5t-24.5 -0.5q-20 -2 -40 -2.5t-40 -2.5q-58 -2 -114 0t-114 0q-15 -1 -29.5 -1t-29.5 -1q-14 -1 -20 -15
q-8 -22 -16.5 -47t-16.5 -47q-6 -16 12 -17q25 -4 50 -7.5t50 -6.5q12 -1 13 -12t2 -21t1 -20q1 -18 -4 -23t-22 -6q-15 -1 -29.5 -1.5t-29.5 -0.5q-56 -4 -122.5 -6t-129.5 3q-29 -3 -35 22q-2 10 -2.5 20t-0.5 21q0 3 3.5 6.5t6.5 5.5q13 6 26.5 10.5l27 9t27 11
t27.5 17.5q25 11 35 36q13 36 26.5 72t27.5 71q9 24 18 47.5t17 47.5q10 24 19 52t19 55.5t20 52.5t21 45zM596 325q23 1 44.5 1.5t44.5 0.5q13 1 9 14q-1 2 -3 8q-20 54 -40 106.5t-40 106.5q-2 5 -4 9.5t-4 9.5q-6 16 -25 16q-35 -2 -69 -3t-69 -2q-16 -1 -22 -16
q-5 -15 -9.5 -30t-9.5 -29q-15 -40 -30.5 -80t-30.5 -80q-5 -12 -8 -22q-3 -11 0.5 -15.5t15.5 -3.5q75 4 134 6.5t116 2.5z" />
    <glyph glyph-name="uni0411" unicode="&#x411;" horiz-adv-x="978" 
d="M413 699q37 0 74 -2t74 -2q63 -1 125.5 -1t125.5 -1q6 0 12 0.5t11 -0.5q19 -5 26.5 -12.5t8.5 -24.5q0 -17 -0.5 -34t1.5 -34q3 -18 2.5 -36.5t-0.5 -36.5q0 -23 -7.5 -29t-30.5 -5q-5 1 -6.5 1.5l-7.5 2.5q-11 2 -17 3.5t-9 4.5t-4.5 9t-3.5 17q-3 14 -7.5 28.5
t-6.5 29.5q-3 15 -17 16q-17 1 -36 2t-36 1q-43 1 -85.5 1h-85.5h-75t-75 -1q-12 0 -24 0.5t-23 -0.5q-16 0 -14 -15q4 -32 1 -64.5t-1 -64.5q0 -12 1 -19t4.5 -10t10.5 -3.5t19 -0.5q33 1 66.5 1t66.5 1h147q25 0 50 1t50 -1q34 -2 68 -8t62.5 -19t50 -34.5t32.5 -54.5
q27 -95 -17 -186q-12 -26 -33 -44t-47 -30q-17 -8 -34 -15.5t-34 -12.5q-35 -8 -69 -14.5t-70 -1.5h-12q-35 -1 -65.5 -1h-59h-56h-57.5q-37 0 -74 -1t-74 2q-35 2 -69 1.5t-69 -2.5q-17 -1 -24 5t-8 23q0 7 0.5 13.5t1.5 12.5q2 13 4.5 15t16.5 6q27 7 54 14.5t54 15.5
q12 3 12 15v26q5 103 2 205t0 205q0 2 0.5 3t0.5 3q0 16 -0.5 24.5t-4.5 13t-13 6.5t-25 4q-13 2 -25 3t-25 2q-23 2 -30 9t-7 31q1 5 1 9t1 8q1 14 6 19.5t19 6.5q7 1 14 0.5t15 -0.5h91h73.5t62 0.5t56.5 0.5zM303 132q0 -14 3 -15.5t15 -3.5q23 -2 45.5 -1.5t45.5 0.5
t46 -2t46 -1q31 0 61.5 1.5t61.5 3.5q16 1 31.5 2.5t30.5 0.5q44 -2 79 14.5t55 56.5q12 21 14.5 44.5t-9 43.5t-40 33t-77.5 15q-14 2 -27 2t-26 1q-38 1 -77 1t-77 1q-24 0 -41 -1.5t-32 -1.5q-29 -2 -56.5 -3t-55.5 -3q-13 -1 -15.5 -3.5t-2.5 -16.5q1 -48 0.5 -88.5
t1.5 -79.5z" />
    <glyph glyph-name="uni0412" unicode="&#x412;" horiz-adv-x="998" 
d="M419 -1q-21 0 -41.5 -0.5t-41.5 0.5q-47 1 -93.5 2t-94.5 3q-12 0 -24 -1t-23 -2q-18 0 -26.5 7.5t-10.5 24.5q-1 4 -0.5 7.5t-0.5 7.5q-5 18 -2.5 21.5t20.5 8.5q29 8 58.5 16t58.5 16q15 5 15 21q-2 38 -3.5 75.5t-3.5 75.5q-1 9 -1 17.5v17.5q-2 60 -3.5 119.5
t-2.5 119.5q-1 15 0 25t-13 14q-19 6 -44.5 11t-45.5 10q-11 3 -18 5t-11 5.5t-5.5 10.5t-2.5 22v6q-6 43 39 43q25 1 49 0.5t49 -1.5q48 -1 95.5 -2.5t95.5 -1.5q42 -1 82.5 2t82.5 1q48 -2 95.5 -4.5t95.5 -14.5q30 -8 58 -29t45 -45q20 -30 27 -57t4 -65
q-2 -31 -18 -57.5t-60 -46.5q-4 -5 -2 -6t0 -4q38 -8 62 -15.5t41 -18.5q10 -7 19.5 -18.5t16 -23.5t11 -24t6.5 -20q9 -56 -8 -105.5t-62 -87.5q-23 -20 -50 -28t-55 -16q-21 -5 -34 -8t-27.5 -4.5t-33.5 -2.5t-51 -1q-45 -3 -89 -4t-89 -3q-8 -1 -17 -0.5t-18 0.5v2z
M654 108q32 0 62.5 4t60.5 13q29 9 47 38q21 36 19.5 64t-21.5 47.5t-56.5 29t-85.5 9.5q-39 0 -77.5 -0.5t-77.5 1.5q-57 -1 -102 0t-92 -5q-18 -2 -19.5 -4t-0.5 -20q2 -36 3.5 -76.5t3.5 -76.5q2 -14 4.5 -17t16.5 -7q5 -1 10 -1.5t10 -0.5q51 1 86 1.5t66.5 0.5h64h78.5
zM405 595q-20 -1 -40 -1.5t-40 -1.5q-14 -2 -17 -4.5t-3 -16.5q1 -35 2 -71t2 -71q1 -14 3.5 -17t16.5 -3q27 -1 50.5 -2.5t50.5 -1.5q32 1 59.5 1t60.5 -1q20 0 49 1t49 2q26 1 48 9t40 27q35 35 29 80q-2 18 -16.5 33t-32.5 20q-14 3 -25 6.5t-24.5 6.5t-31.5 5t-45 2
q-42 0 -91 2.5t-94 -4.5z" />
    <glyph glyph-name="uni0413" unicode="&#x413;" horiz-adv-x="848" 
d="M294 2q-35 0 -70.5 0.5t-70.5 -0.5q-17 0 -34 -1.5t-34 -1.5q-17 -1 -21.5 3.5t-5.5 21.5v15t1 14q1 15 5.5 19.5t18.5 7.5q23 5 45 10t45 9q17 4 17 23v103q-1 88 0.5 166.5t3.5 165.5q0 7 -0.5 13.5t-0.5 13.5q1 12 -10 15q-21 8 -42 15t-42 13q-12 4 -19.5 10t-9.5 18
q-2 5 -2 11t-2 12q-2 15 1.5 20t18.5 6q19 1 38 0.5t38 0.5h22.5t22.5 2q81 1 153 -3.5t144 -4.5q58 -1 116 -0.5t117 1.5q12 0 23.5 -1t23.5 -3q13 -2 16.5 -5t5.5 -17q2 -12 3.5 -24.5t1.5 -25.5q1 -29 1 -58.5v-59.5q0 -37 -38 -40q-37 -3 -45 32q-2 12 -4 24.5t-5 24.5
q-1 7 -2.5 13t-3.5 13q-8 20 -29 21q-24 0 -48 0.5t-49 1.5q-51 1 -100 2t-100 3q-15 1 -35 0.5t-34 -0.5q-19 -1 -23 -5t-3 -23q4 -78 0.5 -148.5t-3.5 -140.5q1 -38 1 -76.5t1 -76.5q0 -14 3.5 -18.5t17.5 -8.5q14 -3 33.5 -5t34.5 -4q5 -2 11 -2.5t11 -2.5q14 -4 16 -20
q1 -10 1.5 -19t0.5 -19q-2 -20 -8.5 -26t-26.5 -7h-9h-83v3z" />
    <glyph glyph-name="uni0414" unicode="&#x414;" horiz-adv-x="1005" 
d="M872 694q26 0 53 -3q17 -1 18 -18q1 -6 1 -12v-12q-1 -15 -3.5 -18.5t-18.5 -8.5q-21 -6 -42.5 -11t-43.5 -10q-16 -4 -19.5 -7t-2.5 -19q2 -94 0 -178.5t-4 -169.5q0 -28 1.5 -55t3.5 -54q1 -12 4 -15t16 -4q9 0 19 -0.5t19 1.5q18 5 35.5 2t34.5 -2q17 0 17 -16
q1 -14 2 -26.5t2 -26.5q1 -23 1.5 -46t0.5 -46v-30.5t-2 -30.5q-3 -25 -25 -28q-15 -3 -33 -1q-24 3 -27 26q-2 17 -5 33.5t-6 33.5q-2 10 -3.5 19t-3.5 19q-4 15 -7 17.5t-17 4.5q-5 1 -9 1.5t-9 -0.5q-32 -2 -64.5 -4t-65.5 -4q-24 -1 -48.5 0.5t-48.5 1.5q-69 2 -137.5 3
t-137.5 2q-42 1 -83.5 0t-83.5 -2q-19 -1 -24 -5.5t-7 -24.5q-4 -25 -7 -49.5t-8 -49.5q-2 -14 -6.5 -17t-18.5 -2h-12t-12 -1q-24 0 -27 24q-2 24 -5 47.5t-1 46.5q3 28 -0.5 55t-2.5 54q1 17 4 21.5t19 9.5q12 3 23.5 4.5t23.5 -0.5q6 -2 13 -1t13 0q20 -3 31 17
q14 29 29 57t28 57q23 51 40.5 103.5t28.5 108.5q7 33 8 66t1 67q0 18 -17 19q-20 3 -40.5 6.5t-41.5 5.5q-14 2 -19.5 5.5t-10.5 23.5q-2 5 -1.5 10t0.5 10v15.5t2.5 8.5t7.5 4t15 2q23 2 45.5 3.5t45.5 3.5q152 -5 302.5 -7.5t302.5 -3.5zM704 358h2v83q0 31 0.5 62
t-0.5 62q0 16 -3.5 20t-17.5 5q-41 4 -81 5.5t-81 -2.5q-23 -2 -45.5 -2h-45.5q-5 0 -10.5 -0.5t-10.5 -0.5q-9 1 -12.5 -3t-5.5 -14q-5 -35 -8 -70t-12 -70l-28 -108t-37 -106q-9 -21 -19 -48t-19 -48q-4 -9 -2 -12.5t13 -3.5q35 0 70.5 0.5t70.5 0.5q71 -2 138 -2h135
q12 -1 14.5 2t1.5 14q-2 60 -3.5 118.5t-3.5 117.5z" />
    <glyph glyph-name="uni0415" unicode="&#x415;" horiz-adv-x="935" 
d="M536 112l195 3h9q21 1 25.5 5t9.5 24l10 42t10 41q4 14 9 17.5t19 2.5q15 -1 23 -2t12 -5t5.5 -12t2.5 -23q2 -32 2.5 -69.5t2.5 -69.5v-20q0 -10 2 -20.5t-2 -16.5q-3 -5 -7 -5t-9 1t-10 2.5t-9 1.5q-60 -4 -119.5 -2.5t-119.5 -1.5q-57 -3 -112.5 -3t-111.5 -1
q-25 -1 -49 0.5t-49 2.5q-43 2 -85.5 2t-84.5 -9q-22 -4 -31 4t-10 30v15q0 11 0.5 17.5t3.5 10.5t9.5 7t17.5 6q21 6 42.5 12t42.5 12q15 5 18 8t3 18q0 29 -0.5 57.5t-0.5 57.5q-1 38 -1.5 77t-2.5 77q-2 35 -3.5 70.5t-3.5 70.5q0 3 -0.5 6t0.5 6q6 36 -29 46q-7 2 -13 6
t-13 7q-12 5 -23.5 11.5t-26.5 4.5q-8 0 -12 6q-18 26 -12 56q1 2 4.5 5t5.5 2q85 -8 170 -5t170 2q93 -2 186 0q37 0 73.5 1.5t73.5 2.5q22 0 43.5 -1t42.5 -3q18 -1 24 -8t6 -26q1 -41 1.5 -81t0.5 -82v-11q-2 -7 -5.5 -11t-10.5 -2q-23 7 -47 1q-2 -1 -6.5 2.5t-5.5 6.5
q-6 25 -17 47.5t-20 45.5q-6 16 -22 15q-18 -1 -33 -1t-30 1t-32 1t-40 -1q-22 -1 -44 0t-44 1q-44 -1 -87.5 -1.5t-87.5 -1.5q-3 -1 -8 -1q-18 -2 -21.5 -5t-2.5 -21q1 -35 2 -69.5t3 -69.5q0 -11 3.5 -14t14.5 -3q23 0 45.5 0.5t45.5 1.5q29 0 56.5 -0.5t56.5 0.5
q29 0 57.5 1t57.5 2q20 0 25.5 -5.5t7.5 -24.5q1 -10 2 -19t3 -19q3 -18 -3 -25t-25 -8q-57 -1 -112.5 -0.5t-112.5 -0.5q-23 -1 -46 -0.5t-46 -0.5q-18 -1 -21.5 -4.5t-3.5 -20.5q0 -37 0.5 -74t1.5 -74q0 -11 1 -16.5t4 -8t9.5 -3t17.5 -0.5q49 1 97.5 0.5t97.5 -0.5v-1z
" />
    <glyph glyph-name="uni0416" unicode="&#x416;" horiz-adv-x="1423" 
d="M1046 361q29 -15 49 -39.5t37 -50.5q18 -27 33.5 -55t32.5 -57q16 -29 40.5 -45.5t54.5 -23.5q15 -3 31.5 -0.5t32.5 3.5l15 3q7 1 12 -1.5t5 -10.5q0 -15 -0.5 -30.5t-1.5 -30.5q-1 -9 -6 -14.5t-13 -9.5q-19 -10 -44 -14t-50.5 -2t-50 11t-42.5 26q-11 9 -21.5 17.5
t-20.5 18.5q-14 15 -23 34q-11 26 -22 53t-22 53q-25 59 -76 91q-10 7 -22 10q-16 4 -31.5 7.5t-31.5 5.5q-35 2 -69 6t-69 0q-15 -1 -14 -13q1 -44 2 -82.5t1 -94.5q0 -16 5 -20t20 -7q24 -4 49 -7.5t49 -8.5q11 -2 13.5 -5t3.5 -14q0 -8 0.5 -15t1.5 -14q3 -31 -26 -31
q-90 -5 -180 -6q-32 -1 -64.5 -0.5t-65.5 1.5q-5 0 -9 -0.5t-8 0.5q-16 2 -19 16q-2 10 -3 19t0 19q0 5 2.5 11t5.5 11q4 5 9 3t10 0q23 4 46 9l46 10q16 3 14 20v29t-1 30q-2 34 -1 64t1 60q-2 11 -4.5 14.5t-13.5 2.5q-40 -3 -82.5 -4.5t-80.5 -13.5q-44 -13 -71 -49
q-25 -33 -46 -67.5t-41 -69.5q-22 -35 -49.5 -64t-69.5 -43q-17 -6 -33 -9q-29 -5 -58.5 -5.5t-58.5 7.5q-4 1 -8 4t-4 6l-4 36t-3 37q0 18 19 14q91 -18 157 53q22 23 39 48.5t33 52.5q18 30 39.5 56t53.5 45q11 6 11.5 10t-6.5 12q-26 32 -51.5 63t-52.5 62
q-16 18 -33.5 41t-35.5 40q-10 8 -21 11q-32 8 -63.5 11t-65.5 7q-10 2 -14 5.5t-4 13.5q0 13 0.5 25t1.5 25q2 16 17 15q23 0 44.5 0.5t44.5 0.5q40 0 79.5 -0.5t79.5 -0.5q19 0 37 1t37 1q11 0 22 -1t22 -1q13 -1 15 -15v-3q5 -32 -4.5 -45t-41.5 -21l-30 -6t-32 -6
q7 -14 13 -23q28 -37 56 -73l56 -72q13 -16 30 -16q10 0 20 -0.5t21 -0.5h54.5t54.5 1q14 1 17.5 4t3.5 17q0 37 -0.5 74t-0.5 74q0 12 -13 14q-29 4 -50 11t-56 16q-4 1 -6.5 5.5t-3.5 8.5q-2 21 0 44q1 8 9 12.5t19 4.5q23 0 47 -0.5t48 -1.5h55q32 2 63.5 3.5t63.5 2.5
q6 1 12 -0.5t11 -2.5q17 -4 17 -21q-1 -11 -1 -22.5t-2 -22.5t-11 -14t-19 -5q-14 -2 -27.5 -4t-27.5 -5q-20 -5 -25.5 -12t-4.5 -27q0 -17 1 -35t1 -35q0 -14 -1 -28l-2 -28q-1 -16 3 -20.5t19 -4.5q24 0 47.5 0.5t47.5 1.5q22 1 43 2t43 2q23 0 34 18q5 8 11.5 15t11.5 15
q19 26 36.5 52t36.5 52q14 20 10.5 26.5t-27.5 9.5q-14 2 -29 4.5t-29 5.5q-5 2 -9.5 5t-5.5 7q-2 14 -2.5 27.5t-0.5 27.5q0 5 3.5 8t8.5 1q18 -6 36.5 -3.5t36.5 1.5q25 -1 49 -0.5t49 0.5q27 1 54 1.5t55 2.5q20 1 39.5 1.5t39.5 -6.5q8 -2 12.5 -6.5t4.5 -13.5
q0 -8 1 -16t3 -16q3 -15 -11 -18q-8 -3 -16 -4.5t-16 -3.5q-21 -4 -42 -7.5t-42 -6.5q-20 -4 -34 -21q-25 -31 -49.5 -61t-49.5 -60q-20 -24 -39.5 -48t-39.5 -48z" />
    <glyph glyph-name="uni0417" unicode="&#x417;" horiz-adv-x="901" 
d="M189 601q7 4 13 7t11 7q37 25 78.5 44t85.5 30t89 14.5t89 -1.5q37 -5 75.5 -13t72 -23.5t59.5 -40.5t40 -63q5 -15 7 -31t1 -33q-2 -23 -7 -44.5t-18 -41.5q-7 -10 -17 -18.5t-18 -16.5q-4 -4 -8 -7t-9 -8q11 -5 20 -10t19 -8q40 -13 66 -47q38 -49 24 -105
q-4 -14 -7 -28.5t-8 -28.5q-8 -28 -26.5 -48t-41.5 -35q-31 -20 -63.5 -37t-69.5 -25q-12 -2 -24.5 -4t-24.5 -4q-51 -7 -101.5 -7.5t-101.5 2.5q-57 4 -111.5 15.5t-108.5 24.5q-18 5 -34.5 13t-32.5 17q-10 5 -14.5 16t-5.5 21q-2 26 -2.5 52t0.5 52q0 14 4 16.5t18 0.5
l22 -2l22 -2q14 -1 19 -15q3 -10 5.5 -19t4.5 -18q5 -23 26 -30q35 -12 70 -21.5t72 -14.5q40 -5 80 -7t80 0q44 2 86 9.5t84 24.5q13 5 24.5 13t22.5 16q18 14 21.5 33t1.5 40q-12 37 -38 56t-58.5 26.5t-67 8t-61.5 -0.5q-41 0 -73 -1.5t-68 -2.5q-28 0 -53 -3
q-24 -1 -32 21q-2 6 -3 12.5t-2 13.5q-1 5 0 10t1 10q0 16 2 25t6.5 13.5t13.5 5t24 -0.5q18 -2 36 -2h35q26 -1 52 -1h52q18 1 35.5 5t34.5 2q27 -1 49 9.5t44 24.5q4 2 10 10q7 11 9 25t-1 27.5t-10 25.5t-18 19q-17 10 -33 19t-35 16t-41.5 11t-52.5 4q-54 2 -104.5 -6.5
t-99.5 -31.5q-10 -5 -19.5 -12t-19.5 -14q-2 -2 -4.5 -4t-4.5 -3q-23 -8 -36.5 -23.5t-21.5 -36.5q-8 -19 -25 -22l-22 -4t-22 -1q-32 1 -34 36q-2 32 -3 62.5t-3 61.5q-1 16 -2.5 31t-3.5 31q-1 10 2 14.5t13 6.5q16 3 31 1.5t30 -5.5q4 -1 7 -5.5t5 -9.5q4 -11 6.5 -22.5
t6.5 -22.5l4 -10z" />
    <glyph glyph-name="uni0418" unicode="&#x418;" 
d="M979 105q67 -13 134 -28v-76q-65 -2 -132 -3q-47 -2 -93.5 -3t-94.5 -2q-12 -1 -25 1t-27 4q-2 17 -4 33l-4 32q35 10 67.5 19t68.5 20q0 117 1.5 229.5t-9.5 228.5q-7 -5 -12 -7t-9 -7q-12 -13 -24.5 -27t-32.5 -37l-50 -57.5t-76 -88t-110.5 -128.5t-153.5 -178
q-13 -15 -28 -24.5t-36 -10.5q-56 0 -111 -1t-111 -2q-6 0 -12 2.5t-12 4.5q-6 17 -9 33t6 36q29 7 59.5 14t63.5 15q1 16 2 30.5t0 28.5v186.5t-1 186.5q0 7 0.5 13t-0.5 12q-1 15 -2.5 23t-5.5 12.5t-12 7.5t-22 7q-26 7 -51 14t-53 15q1 14 2 30t2 34q95 3 187.5 3
t186.5 -1q2 -9 2.5 -16t1.5 -15q1 -7 1.5 -14t0.5 -14q-5 -9 -12.5 -13t-15.5 -6t-16.5 -3t-15.5 -4q-14 -7 -30 -11.5t-33 -9.5q-2 -118 -3 -237t-3 -244q21 22 39 40t35 36q103 112 207 239.5t215 254.5q11 14 24.5 17t28.5 3q36 1 72 1.5t72 -0.5q24 0 47.5 -1.5
t45.5 -3.5q14 -19 12.5 -36.5t-10.5 -37.5q-27 -6 -55.5 -12.5t-56.5 -13.5q-11 -22 -13.5 -43.5t-1.5 -43.5q1 -54 0 -107t0 -107q0 -48 1.5 -95t3.5 -97z" />
    <glyph glyph-name="uni0419" unicode="&#x419;" horiz-adv-x="1158" 
d="M980 601q-15 -3 -15 -17q0 -60 -0.5 -109.5t-1 -94.5t-0.5 -88.5t2 -90.5q0 -20 -0.5 -38t0.5 -38v-13.5t1.5 -7t5.5 -4t12 -2.5q23 -4 46.5 -8t46.5 -8q14 -2 16 -4.5t2 -15.5q-1 -11 -1 -22v-22q1 -15 -13 -15q-42 3 -82.5 0.5t-82.5 -1.5q-36 1 -72 -1l-72 -4h-15
t-15 1q-17 3 -18 23q-1 8 -1 16t-1 16q-1 16 17 19q23 5 45 9.5t44 9.5q18 4 21 8.5t4 21.5q1 35 0.5 70.5t0.5 70.5q0 16 1 31.5t1 30.5q-1 57 -2 112.5t-3 112.5q0 7 -1 8q-5 5 -9 3q-5 -2 -8.5 -5.5l-7.5 -7.5l-52 -56l-52 -56q-90 -98 -176 -197.5t-171 -204.5
q-11 -14 -25 -22.5t-34 -10.5q-35 -4 -69 -4h-69h-40t-40 1q-19 0 -25 6.5t-8 24.5q-1 15 -0.5 24t5 14t13.5 7t24 4q18 2 35.5 6.5t34.5 7.5q14 3 14 19q1 17 1 33v32q0 35 0.5 69.5t0.5 69.5q1 63 1.5 125.5t1.5 125.5q0 4 -0.5 7.5t-0.5 7.5q1 17 -17 20q-27 6 -54.5 12
t-54.5 13q-3 1 -6 4.5t-3 7.5q-1 22 0 44q0 11 11 11t22.5 1t22.5 0q72 -2 143.5 -1t146.5 6q15 1 20.5 -4t4.5 -22q-1 -5 -1.5 -10t0.5 -10q2 -14 0.5 -17t-12.5 -7q-7 -3 -13.5 -5t-14.5 -4q-17 -5 -34 -10.5t-34 -10.5q-14 -3 -14 -19l-2 -32t-2 -33q-2 -48 -2.5 -94
t-1.5 -94q-2 -48 -2.5 -96t-1.5 -96q0 -5 0.5 -9t1.5 -9q8 4 9 5l78 84q-1 -1 13 14.5t38 42t55.5 61.5t66 74.5t69.5 81t66 80.5q8 13 19.5 23.5t21.5 22.5q10 11 18.5 23t17.5 23q4 5 8 8.5t9 7.5q3 3 7.5 5t6.5 5q11 15 25 18t30 4q28 0 55 1t54 0q26 -1 51 -3t51 -4
q2 0 3 -0.5t3 -0.5q5 -1 11.5 1t9.5 -6t6 -15.5t-1 -15.5q-2 -5 -2.5 -9t-1.5 -8q-5 -14 -22 -17q-23 -5 -46 -10.5t-46 -10.5zM353 857q-1 14 -1.5 26.5t-1.5 23.5q0 13 -0.5 23.5t0.5 20.5q2 14 6 26q5 13 19 10q11 -2 22.5 -2.5t23.5 -2.5l2 -22t3 -22q2 -10 3.5 -20
t2.5 -20t5.5 -15t12.5 -9q20 -10 41.5 -14t43.5 -7q34 -5 67 -3t66 8q11 2 21.5 7.5t21.5 10.5q15 8 16 24q2 12 3.5 24.5t3.5 24.5q1 8 2 16.5t9 12.5q11 5 22.5 7.5t23.5 -1.5q3 -1 5 -4l4 -6q1 -4 3 -20.5t3 -35t1 -35t-1 -20.5q-4 -10 -9 -15q-28 -26 -60 -47t-70 -30
q-33 -8 -66.5 -10.5t-67.5 5.5q-22 5 -44 6.5t-42 10.5q-17 8 -34 15t-33 16q-11 7 -19 17.5t-8 25.5z" />
    <glyph glyph-name="uni041A" unicode="&#x41a;" horiz-adv-x="1044" 
d="M635 361q10 -6 18.5 -10.5t15.5 -10.5q22 -18 43 -37.5t33 -47.5q3 -8 8 -15.5t10 -14.5q14 -23 28.5 -45t30.5 -43q34 -49 92 -52q15 -1 29.5 1.5t29.5 4.5q12 2 18.5 2t10.5 -3t5 -9.5t2 -18.5q1 -14 0 -27.5t-3 -27.5q-2 -7 -8 -11q-8 -4 -16.5 -8t-16.5 -5
q-42 -5 -81 0.5t-77 26.5q-16 8 -28 20.5t-23 27.5q-15 22 -29.5 44t-28.5 45q-8 11 -16 22.5t-16 23.5q-5 7 -9.5 13t-7.5 14q-9 23 -30 35q-9 6 -18 13t-19 12q-11 6 -23.5 11.5t-25.5 5.5q-20 0 -43 5q-36 7 -74 5.5t-73 -3.5q-10 0 -19 -1t-19 -2q-11 -2 -11 -12v-50
q1 -27 -0.5 -53.5t0.5 -53.5q0 -26 7 -33.5t25 -10.5t38 -7t38 -8q17 -3 16 -21q0 -9 1 -18.5t1 -19.5q0 -12 -13 -11q-8 1 -16 1.5t-16 -0.5l-96 -2t-96 -3l-44 -2t-44 -1q-15 -1 -20 4.5t-6 21.5q-1 5 -1 9v9q2 14 7 20.5t19 10.5q15 4 30 6.5t30 6.5q9 1 20 5t13.5 8
t2.5 16v119.5v111t-0.5 109.5t-3.5 117q-1 11 -6 14.5t-14 5.5q-23 5 -45 10l-44 10q-10 2 -14 8.5t-5 14.5v13.5t2 13.5q2 19 6.5 22.5t24.5 5.5q17 1 35 0.5t35 -0.5q50 2 98.5 3t96.5 2q13 1 26 -0.5t27 -1.5t15 -14l2 -10l2 -10q1 -12 1.5 -19.5t-2.5 -12t-9.5 -7
t-19.5 -5.5q-19 -5 -38 -11.5t-39 -7.5q-18 -2 -22.5 -7t-4.5 -23q0 -25 0.5 -50t0.5 -50q0 -12 -0.5 -24t-0.5 -24t12 -13q13 -2 25.5 -3.5t26.5 0.5q40 2 77.5 1t73.5 -1q2 0 3 1t3 0q12 -4 20.5 -2t16 7t13.5 12t13 14l33 33q25 28 49 55t48 55q4 4 6 10q3 9 -6 11h-13.5
t-13.5 1q-15 2 -30.5 3.5t-30.5 3.5q-14 3 -15 16l-2 24t-2 23t2.5 14.5t13.5 3.5q31 1 62 1h62q32 1 63.5 1h63.5h103q15 0 19.5 -4.5t2.5 -19.5q0 -8 -1 -12q-2 -8 -2.5 -17t-2.5 -17q-11 -4 -22 -7.5t-22 -6.5q-9 -2 -18 -2t-17 -2q-54 -8 -87 -45q-29 -35 -59.5 -68
t-60.5 -67q-8 -8 -15 -16t-15 -16q-8 -7 -16.5 -12.5t-19.5 -13.5z" />
    <glyph glyph-name="uni041B" unicode="&#x41b;" horiz-adv-x="1024" 
d="M545 584q-29 0 -59 -1t-59 1q-17 1 -20.5 -5t-5.5 -18q-2 -11 -2 -23t-2 -24q-9 -81 -20.5 -158t-34.5 -167q-11 -25 -22.5 -50t-25.5 -48q-21 -34 -52 -55.5t-69 -33.5q-61 -19 -123 -6q-17 4 -24 11t-8 24v22t2 22q2 20 21 19q16 -1 35 -6q17 -4 32.5 -2t29.5 12
q11 8 22.5 13t21.5 16q26 29 40 68q16 48 28 92t19.5 88.5t12 92t7.5 101.5q1 18 -2.5 23t-21.5 8l-52 10l-52 10q-3 1 -6.5 4.5t-4.5 6.5q-2 19 0 39q0 4 3 8t6 5q8 3 15.5 5.5t15.5 2.5q35 0 69 -1t69 -2h33h194t146.5 -0.5t118.5 -0.5t111 1q15 1 16 -12q2 -11 2 -22.5
t8 -22.5q1 -1 0.5 -3.5t-2.5 -3.5q-7 -3 -13 -6t-13 -5q-24 -4 -52 -7t-51 -7q-14 -2 -17.5 -7t-3.5 -20q0 -52 1.5 -99t3 -93.5t3 -94.5t1.5 -102q1 -16 1.5 -31.5t2.5 -30.5q1 -14 4 -17t18 -5q23 -4 45 -6.5t45 -4.5q8 -1 15 -3t12 -7q5 -7 7 -15q1 -5 0.5 -9t0.5 -8
q6 -45 -40 -42q-20 0 -40 0.5t-40 0.5q-48 -2 -95.5 -4t-95.5 -3q-17 -1 -32.5 0.5t-32.5 3.5q-13 1 -15 15q-1 7 -1.5 13.5t0.5 13.5q0 29 28 35q18 5 36 8t37 6q4 1 7 1t7 1q16 3 16 18q0 8 0.5 15t-0.5 14q-2 72 -2 136.5t-2 129.5l-3 153q0 17 -3 20t-20 4h-129v-1z" />
    <glyph glyph-name="uni041C" unicode="&#x41c;" horiz-adv-x="1390" 
d="M320 212q1 -25 2 -41.5t3 -41.5q0 -11 11 -14q26 -8 58.5 -15t58.5 -14q8 -2 11.5 -5.5t2.5 -12.5q0 -11 1 -23l2 -24t-2.5 -16.5t-17.5 -3.5q-84 2 -162 0t-159 -6q-10 -1 -20 -0.5t-21 -0.5q-18 -2 -23 15q-2 10 -4.5 20t-1.5 20q2 15 7.5 19t21.5 5q3 0 6 -0.5t6 0.5
q23 5 47 10.5t47 11.5q13 3 15.5 6.5t3.5 15.5v33v98t-1 99q0 17 -1 34t-1 34q0 41 1 72.5t1 60.5q-1 17 -5 23t-20 11q-20 8 -40.5 15t-40.5 14q-15 4 -18 20q-2 8 -4 15.5t-4 15.5q-8 26 19 28q71 2 141 4.5t142 4.5q21 2 46.5 0t42.5 -9q3 0 0.5 -2t-2.5 -4
q12 -14 16.5 -28.5t12.5 -30.5l93 -234q27 -67 54 -133.5t55 -134.5q2 -5 4.5 -12t10.5 -7q10 0 11.5 7.5t3.5 14.5q25 85 52 167.5t58 165.5q17 44 32 87.5t30 87.5q5 14 7 24.5t6 24.5q3 12 7.5 15.5t16.5 2.5h37.5t36.5 -1q10 -1 19 0.5t19 0.5h101.5t58.5 0.5t30 0.5h16
q9 1 18 1.5t18 0.5q26 0 35 -25q5 -13 3.5 -25t-7.5 -23q-3 -4 -13 -6q-25 -8 -53.5 -15.5t-54.5 -15.5q-12 -3 -13 -14q-3 -50 -4.5 -87t-2 -68.5t-0.5 -61v-64.5v-86.5t1 -85.5q0 -17 3 -20.5t20 -6.5q20 -3 40.5 -5.5t40.5 -5.5q5 0 9 -0.5t9 -1.5q12 -3 14 -17
q0 -12 1 -23.5t1 -23.5q-1 -12 -5.5 -16.5t-16.5 -5.5q-26 -1 -52 -1h-52q-48 -1 -94.5 -0.5t-94.5 -0.5q-11 0 -23 1t-23 -1q-15 -3 -17 8q-2 14 -7.5 26.5t-3.5 27.5q0 12 12 17q17 4 33 5t33 5q13 4 25.5 7t26.5 6q11 3 11 15q1 6 1 11.5v11.5q0 48 0.5 94.5t0.5 94.5
q0 14 -1.5 28t-1.5 28q-1 32 -1 62.5v62.5v22t-2 22q-2 15 -3.5 23t-6 11.5t-12.5 4t-24 0.5q-17 0 -23 -18q-25 -65 -50.5 -129t-45.5 -131q-3 -11 -7 -22.5t-8 -22.5l-24 -74l-24 -74q-9 -26 -18 -50.5t-18 -49.5q-6 -17 -18.5 -24.5t-28.5 -8.5q-26 -2 -51.5 -1.5
t-51.5 1.5q-10 0 -18.5 6.5t-10.5 14.5q-9 25 -17 50t-19 49q-33 70 -61.5 141t-57.5 142q-16 38 -32.5 85.5t-32.5 85.5q-7 15 -16.5 22t-26.5 5q-2 -1 -4 -0.5t-4 0.5q-18 1 -29 -3t-11 -21v-194q3 -40 3 -79.5t1 -79.5z" />
    <glyph glyph-name="uni041D" unicode="&#x41d;" 
d="M249 0h-150q-17 0 -22 17q-6 21 -9 42q-2 9 5.5 17.5t16.5 8.5q24 0 46.5 6.5t45.5 13.5q8 2 9.5 6.5t1.5 11.5q1 42 1.5 82.5t-0.5 82.5q-2 65 -3.5 128.5t-3.5 128.5q0 8 -1 12q0 14 -1 22t-4.5 12.5t-10.5 7.5t-20 7l-34 10l-34 10q-8 3 -13.5 8t-6.5 15q0 5 -1 8.5
t-2 8.5q-1 17 5 23.5t23 5.5q48 -2 95.5 -3.5t95.5 -3.5q4 0 7.5 -0.5t7.5 -0.5q27 1 54.5 1t54.5 1q26 1 32 -5t7 -32q0 -17 -6 -25.5t-23 -12.5q-16 -4 -32 -6.5t-32 -6.5q-21 -4 -31.5 -6.5t-14 -7.5t-3.5 -14.5v-27.5v-109q0 -5 0.5 -10.5t0.5 -10.5q0 -13 13 -13
q37 -2 73.5 0t74.5 1q26 0 52.5 -1t53.5 1q19 1 38 1.5t38 2.5q34 -1 58.5 -1t45 1t38.5 2t41 2q14 -2 18.5 2t4.5 19q1 38 1.5 76.5t0.5 76.5q0 18 -4.5 22.5t-22.5 8.5q-16 3 -31 4.5t-31 3.5q-17 3 -25.5 11t-10.5 25q-3 15 -1 35q0 15 16 12q23 -5 46.5 -3.5t46.5 3.5
q15 2 30 0.5t29 -2.5q7 0 13.5 -1t13.5 0h47.5h35.5t31 -0.5t33 -1.5q15 0 18 -3.5t3 -19.5q0 -8 -0.5 -16t-0.5 -16q-1 -17 -6.5 -24t-22.5 -9q-20 -3 -38.5 -4.5t-38.5 -3.5q-11 -1 -14 -3.5t-4 -13.5q-1 -17 -1.5 -32.5t-0.5 -32.5q2 -50 3.5 -99t2.5 -99q1 -39 0 -78
t-1 -79q0 -11 0.5 -23t0.5 -24q0 -18 19 -22q24 -5 48.5 -11t48.5 -11q12 -2 18.5 -8t8.5 -18q0 -6 1.5 -12t1.5 -11q-1 -20 -7.5 -26.5t-26.5 -7.5q-59 -2 -118 0q-53 1 -105 2t-105 1q-9 0 -15 2.5t-9 12.5q-3 9 -6.5 18.5t-5.5 20.5q-3 25 25 29q15 3 30.5 5.5t30.5 4.5
q11 2 23 5t23 6q13 3 13 17q-1 11 -0.5 22.5t-0.5 22.5q-1 29 -1.5 59t-2.5 59q-1 13 -2 20.5t-5 11t-12 4t-22 -0.5q-20 -2 -39.5 -2.5t-39.5 -2.5q-21 -1 -41.5 -2.5t-41.5 -2.5q-44 -1 -87 -1h-87q-15 -1 -29.5 -2t-29.5 -1q-25 0 -50 0.5t-50 1.5q-11 0 -14.5 -2.5
t-3.5 -13.5q0 -41 0.5 -80.5t1.5 -79.5q0 -17 4.5 -20.5t21.5 -7.5q23 -5 44.5 -10t44.5 -10q3 -1 7 -4.5t4 -7.5q2 -14 3.5 -27.5t1.5 -27.5q0 -3 -3.5 -6.5t-7.5 -5.5q-11 -3 -23 -3h-151v1z" />
    <glyph glyph-name="uni041E" unicode="&#x41e;" horiz-adv-x="1022" 
d="M527 -24q-9 1 -18.5 2t-20.5 2q-32 4 -63 7t-63 7q-34 8 -69.5 20.5t-67.5 30t-59.5 39.5t-46.5 49q-14 22 -27 44t-24 45q-14 33 -19 72t-0.5 78t18 75.5t36.5 66.5q37 45 69 75t66.5 51t75.5 36.5t95 30.5q6 2 12.5 2.5t13.5 1.5q19 2 38 3.5t38 3.5q22 2 38 -1
q99 -13 176.5 -36t131.5 -64.5t84 -105t34 -156.5q2 -53 -8 -96.5t-26.5 -77.5t-36 -58t-35.5 -38q-7 -6 -14 -11.5t-15 -9.5q-18 -11 -36 -20.5t-36 -19.5q-40 -20 -82 -28.5t-86 -12.5q-18 -2 -35.5 -3.5t-37.5 -3.5zM550 601q-11 -2 -32 -3.5t-44 -3.5q-31 -5 -54 -10.5
t-41 -11.5t-32.5 -12.5t-27.5 -13.5q-11 -6 -22 -11t-22 -12q-10 -6 -19.5 -13t-18.5 -15q-17 -16 -29 -40.5t-22 -45.5q-20 -45 -13.5 -88.5t21.5 -87.5q4 -12 16.5 -25.5t27.5 -25.5t31 -21.5t27 -14.5q22 -9 52.5 -18t63.5 -15.5t66.5 -10.5t60.5 -2q24 1 44 1.5t39 3
t37 6t38 10.5q31 12 61.5 32.5t54 47t36.5 57.5t10 65v20.5t-2 19.5q-7 54 -24.5 90.5t-42.5 61.5t-56 41.5t-64 29.5q-25 10 -53.5 10.5t-66.5 4.5z" />
    <glyph glyph-name="uni041F" unicode="&#x41f;" horiz-adv-x="1104" 
d="M297 134v-18q2 -17 16 -18q13 -1 25 -2.5t25 -2.5q28 0 58 -11q12 -5 16 -9.5t4 -17.5v-13.5t-1 -13.5q-1 -15 -5.5 -19.5t-19.5 -4.5q-26 -1 -52 -0.5t-52 -0.5q-58 -2 -116 -4.5t-117 -4.5q-10 0 -14.5 3t-4.5 13q-1 14 -1 27t2 26q1 5 5.5 9.5t9.5 6.5q14 5 28.5 8
t28.5 6q11 2 22 3.5t22 3.5q12 3 14.5 6t2.5 16v78.5t-1 78.5q-1 56 -2 110.5t-2 110.5q-1 16 -1 31.5v30.5q-1 17 -4 21t-18 8q-19 5 -37.5 8.5t-37.5 7.5q-17 3 -21.5 8t-4.5 23t1.5 28t6.5 15.5t15.5 7t27.5 1.5q24 -1 47.5 0t46.5 1q73 1 134.5 0t117.5 -2t110 -1t113 2
q49 1 97.5 1t97.5 1q29 1 59 2t59 3q12 0 23 3q12 3 18 1.5t7 -12.5q1 -16 0 -32t-3 -32q0 -5 -4 -6.5t-9 -2.5q-27 -5 -53.5 -10t-53.5 -10q-18 -5 -22 -9t-3 -23q1 -81 3 -162t0 -163q1 -31 2 -61.5t2 -62.5q1 -8 5.5 -11t12.5 -5q20 -5 41 -9t42 -9q26 -5 34 -15t5 -36
q-3 -19 -23 -22q-20 -2 -40 -3.5t-40 2.5q-15 3 -31.5 1.5t-32.5 -2.5q-40 -1 -79.5 -2t-79.5 -1q-15 0 -23 1t-11.5 4.5t-4.5 11.5t-1 23q-1 20 3 26t24 11q19 5 38 9.5t39 9.5q8 2 12 5.5t4 13.5q-6 149 -9 301q-1 33 0 65.5t1 64.5q0 15 -0.5 22.5t-4 11.5t-11.5 4h-23
q-58 -2 -115 -3t-115 -3q-48 -1 -94.5 -1.5t-94.5 -2.5q-14 0 -21.5 -1t-11 -5t-4 -11.5t-0.5 -21.5q0 -117 0.5 -188.5t0.5 -113.5t0.5 -63.5t0.5 -38.5z" />
    <glyph glyph-name="uni0420" unicode="&#x420;" horiz-adv-x="948" 
d="M190 475q0 23 -1.5 45.5t-3.5 45.5q-1 16 -3.5 20t-22.5 6q-21 2 -42 5l-42 6q-13 0 -14 12t-2 23.5t-1 23.5t5 17t16 7q3 0 6 0.5t6 0.5q71 10 142 6.5t142 -3.5q25 -2 49 -1t49 1q55 -1 109.5 -0.5t110.5 -5.5q72 -12 125.5 -43t80.5 -92q12 -31 13 -66.5t-5 -66.5
q-8 -35 -25.5 -63.5t-46.5 -51.5q-51 -39 -108 -50.5t-118 -9.5q-26 0 -50.5 -0.5t-50.5 0.5q-23 0 -47 0.5t-47 1.5q-21 1 -41.5 1t-40.5 1q-5 0 -9 -1t-9 -2q-15 -3 -14 -16q1 -26 1.5 -50.5t2.5 -49.5q1 -11 8 -17.5t17 -8.5q22 -3 41.5 -12.5t41.5 -14.5q16 -3 16 -22
q0 -8 -0.5 -16t0.5 -16q0 -8 -4 -11t-11 -4h-36.5t-36.5 -1q-24 0 -47.5 -1t-47.5 -2q-26 -1 -51.5 -1h-51.5q-14 0 -28 -0.5t-28 0.5q-12 1 -16 4.5t-6 14.5q-1 5 -1.5 11t-0.5 12q-2 27 25 35q20 7 39.5 13t39.5 13q7 2 11.5 3.5t6.5 4t2.5 7t0.5 12.5q-2 101 1.5 183.5
t1.5 162.5zM619 339q21 2 41.5 4.5t40.5 7.5q32 8 54 25t39 48q10 17 14 33.5t-7 33.5q-5 7 -8.5 14t-8.5 14q-5 8 -10.5 15.5t-13.5 13.5q-20 15 -42.5 23.5t-46.5 11.5q-30 3 -60.5 3.5t-60.5 2.5q-14 1 -28 1.5t-28 -0.5q-26 0 -50.5 -1t-49.5 -3q-15 -2 -29.5 -4.5
t-29.5 0.5q-6 2 -12.5 0.5t-13.5 -3.5q-3 -1 -6 -4t-3 -5q-3 -29 -3 -56q0 -35 0.5 -70.5t1.5 -71.5q0 -20 3.5 -24t23.5 -5h24q55 -1 95 -1t71 -0.5t55.5 -1t47.5 -1.5z" />
    <glyph glyph-name="uni0421" unicode="&#x421;" horiz-adv-x="921" 
d="M870 502v-12t-2 -11q-2 -16 -17 -17q-13 -1 -25 -2t-25 -3q-15 -1 -22 12q-10 14 -14.5 29t-15.5 29q-6 8 -14 15t-17 13q-38 23 -82.5 37.5t-89.5 17.5q-17 2 -33.5 4t-33.5 2q-142 0 -245 -101q-76 -76 -79 -185q0 -8 1.5 -15.5t3.5 -13.5q18 -59 55.5 -97.5
t89.5 -61.5t116 -33t134 -12q21 -1 42 3.5t42 9.5q27 6 54.5 13.5t53.5 16.5q14 5 27.5 13t26.5 17q8 5 17 10t14 15q3 5 10 3.5t9 -7.5q5 -12 9.5 -24.5t2.5 -26.5q0 -2 -0.5 -3t-0.5 -3q6 -27 -8.5 -42.5t-34.5 -25.5q-148 -76 -316 -78q-64 -1 -125 10.5t-115 35
t-98 60.5t-73 87q-25 44 -37.5 90t-6.5 97q8 61 31.5 115.5t65.5 101.5q35 39 84 66t104 43.5t110.5 22t103.5 0.5l14 -2t15 -3q32 -8 63 -16.5t62 -17.5q13 -5 25 -11.5t25 -12.5q14 -8 18.5 -6.5t9.5 15.5q2 8 4 14.5t4 14.5q4 16 21 16q9 -1 18 -0.5t18 -1.5
q17 -2 21.5 -7t4.5 -22q0 -44 0.5 -71.5t0.5 -46.5v-31.5t-1 -25.5z" />
    <glyph glyph-name="uni0422" unicode="&#x422;" horiz-adv-x="974" 
d="M498 0h-135q-13 -1 -26 -1t-26 -2q-15 -2 -20.5 2t-6.5 19v41q0 16 18 19q28 4 55 8.5t55 9.5l15 3q11 3 13 5.5t3 16.5q3 110 3 214.5t-2 210.5v6q-2 19 -2.5 29t-5 14t-15.5 4h-33q-11 1 -21 -0.5t-21 -1.5q-45 -2 -90 -2.5t-90 -2.5q-14 0 -18 -3.5t-8 -17.5l-15 -63
q-3 -16 -7.5 -20t-21.5 -5h-16t-16 1q-19 1 -20 21v3q-2 37 -3.5 73.5t-3.5 73.5v22t3.5 11.5t11.5 4.5t22 1q27 1 54.5 3t53.5 1q129 -3 250.5 -2t242.5 -1q46 0 91.5 0.5t91.5 -0.5q17 -1 33.5 -3t33.5 -4q6 -1 10 -4t2 -10q-7 -26 -3.5 -51t2.5 -51q0 -13 0.5 -25.5
t0.5 -25.5q-1 -10 -4.5 -13t-14.5 -2q-17 0 -35 -3q-15 -3 -20 12q-5 11 -8 21t-7 21q-1 5 -1.5 9t-2.5 8q-6 16 -10.5 18.5t-21.5 2.5q-42 1 -82 1t-81 1q-20 1 -39.5 2t-39.5 1q-12 0 -15.5 -3t-3.5 -14q-1 -66 -1.5 -124.5t-0.5 -114v-110t-1 -111.5q-2 -17 14 -18
q34 -5 63.5 -15t64.5 -11q15 0 15 -14q1 -5 1 -15q0 -16 -0.5 -25t-5 -13.5t-13.5 -6t-25 -1.5q-20 0 -40 -0.5t-40 -0.5q-20 -1 -40.5 -1.5t-43.5 -1.5z" />
    <glyph glyph-name="uni0423" unicode="&#x423;" horiz-adv-x="1008" 
d="M612 257q-19 0 -39 0.5t-37 -0.5h-40.5h-37.5t-39 0.5t-45 0.5q-17 -2 -29.5 3.5t-20.5 20.5q-29 52 -57 100.5t-56 100.5q-5 10 -9.5 17.5t-9.5 16t-11 18t-15 23.5q-6 24 -22.5 32t-38.5 10q-20 2 -39 5.5t-39 6.5q-15 3 -18 17q-1 8 -1.5 16.5t-0.5 16.5q-1 16 5 23.5
t23 10.5q11 2 22 2.5t22 -0.5q74 -8 144.5 -4t143.5 1q4 1 8 1h9q20 0 18 -18q0 -11 -1 -22l-2 -22q-1 -7 -3.5 -11.5t-10.5 -3.5q-28 3 -53 -7t-51 -13q-5 0 -6 -3t1 -7q3 -12 8 -19q24 -46 48.5 -91.5t48.5 -91.5q11 -22 37 -22h215q12 0 18 5.5t10 15.5q16 42 31.5 82.5
t32.5 82.5q2 7 4.5 14t5.5 14q5 15 5 18t-21 7q-42 7 -84 12q-16 3 -16 17q-1 10 -2.5 19.5t-2.5 18.5q-2 12 1 16.5t14 6.5q5 1 9 1.5t9 0.5q42 0 84 -0.5t84 -0.5h127q13 0 25.5 -1t24.5 -3q10 -2 9 -12t-1 -19.5t-2 -18.5q-1 -12 -6 -16.5t-16 -6.5l-38 -4l-38 -4
q-17 -1 -28 -8t-18 -25q-17 -38 -30 -78t-27 -80q-10 -26 -20.5 -52t-21.5 -52q-16 -40 -32 -79.5t-36 -77.5q-42 -86 -117 -131t-199 -36q-15 2 -30 6.5t-30 9.5q-20 6 -20 29q0 11 -1 22t-1 22q0 29 28 23q32 -8 64.5 -8t64.5 5q20 3 38.5 11t36.5 16q13 8 28 24.5
t27.5 35.5t22.5 38t13 32z" />
    <glyph glyph-name="uni0424" unicode="&#x424;" horiz-adv-x="1087" 
d="M317 158q-47 -1 -90.5 11.5t-85.5 33.5q-50 29 -78 81t-28 105q0 75 28 123.5t75 78t110 42t134 14.5q23 -1 45.5 -1.5t45.5 -0.5q12 0 14.5 3t3.5 14q0 15 -3.5 30t-19.5 19l-87 6q-19 9 -20 29v12t1 12q2 16 7 19.5t22 3.5q75 2 143.5 2.5t136.5 0.5h21t20 -2
q3 0 6.5 -3.5t5.5 -7.5q2 -8 2.5 -16t1.5 -16v-12.5t-2 -7.5t-6.5 -4.5l-13.5 -4.5q-22 -6 -51.5 -9.5t-51.5 -10.5q-6 -2 -9.5 -8.5t-3.5 -14.5t2 -16t6 -13q2 -2 6.5 -3t9.5 -1q22 0 47.5 1t47.5 2q61 1 111 -5t90.5 -23.5t71.5 -48t54 -78.5q42 -120 -29 -218
q-29 -41 -60.5 -66t-78.5 -34q-38 -9 -76.5 -10.5t-76.5 -3.5q-25 -2 -50 -2t-50 -1q-9 0 -12 -3t-4 -13q-1 -16 -0.5 -26.5t4.5 -17t13 -10.5t25 -7q17 -3 33 -3t33 -3q11 -2 18.5 -12t7.5 -23q1 -11 -4 -23t-16 -17q-17 -8 -34.5 -3.5t-35.5 3.5q-69 -2 -133.5 0t-127.5 1
q-15 0 -15 15q-1 9 -1.5 18.5t-1.5 19.5q0 18 16 21q17 4 33 5t33 5q5 1 10 1t10 2q18 3 22 10.5t5 25.5q1 5 1 15q0 13 -2 15.5t-16 2.5q-24 1 -48 0.5t-49 -0.5q-10 1 -26 -0.5t-36 0.5zM494 530q0 13 -3 15.5t-16 3.5q-11 0 -27.5 0.5t-34.5 0.5t-34.5 0.5t-27.5 0.5
q-47 -2 -85.5 -9.5t-66.5 -25t-43.5 -47.5t-15.5 -78q3 -61 56 -98q23 -12 43 -18.5t39 -10t38.5 -4t41.5 -0.5q27 0 57 -2.5t58 -1.5q13 0 17 4t6 16q-2 37 -2.5 67.5t-0.5 59.5t0.5 59t0.5 68zM596 273q0 -16 16 -16q53 2 102.5 3t93.5 3q28 2 52 10q29 9 51.5 33t34.5 52
q12 33 6.5 65t-20.5 57.5t-36 41t-40 14.5q-32 10 -71.5 12t-73.5 4q-23 2 -47 2t-47 -1q-14 0 -17 -3.5t-3 -17.5q2 -61 0.5 -128.5t-1.5 -130.5z" />
    <glyph glyph-name="uni0425" unicode="&#x425;" horiz-adv-x="1011" 
d="M703 92q-14 17 -26 31.5t-26 28.5q-31 32 -62 62t-62 61q-2 2 -3.5 3t-3.5 3q-11 11 -22 0q-26 -27 -53 -53.5t-54 -52.5q-11 -11 -21 -23t-21 -23q-6 -7 -11.5 -14t-12.5 -15q22 -8 42.5 -12.5t41.5 -6.5q20 -3 25.5 -8.5t7.5 -25.5q1 -3 1 -9v-21.5t-3.5 -11
t-11.5 -4.5t-22 -1q-14 -1 -28 -2.5t-28 -1.5q-31 1 -61 3t-60 3q-16 1 -32 0.5t-33 -1.5q-16 0 -32 1t-32 0q-14 0 -28 -1.5t-28 -2.5q-17 -1 -22.5 4.5t-6.5 22.5v12q-1 18 -0.5 26.5t4.5 12t12 4t22 3.5q26 5 53.5 8t53.5 8q8 2 16.5 6.5t14.5 9.5q17 16 32.5 32.5
t32.5 32.5q35 32 69.5 64t69.5 64l4 4l4 4q10 10 1 21q-14 16 -29 31.5t-29 31.5q-21 23 -41.5 45.5t-42.5 45.5t-44 44t-44 43q-8 8 -12 9q-18 3 -36 6.5t-37 4.5q-12 0 -27 5q-9 3 -13.5 5t-7 4.5t-3 7t-0.5 12.5v29q1 11 4.5 14t14.5 3q31 1 61.5 1t62.5 1q38 1 77 2
t78 1q21 0 41.5 -1.5t41.5 -2.5q13 -1 15 -15v-14.5t-1 -14.5q-2 -17 -5.5 -20t-21.5 -6q-22 -4 -43.5 -8t-43.5 -9q-13 -3 -4 -15q32 -35 64 -69.5t64 -69.5q12 -14 24.5 -27t25.5 -27q11 -13 23 0q48 51 100 97.5t98 100.5l3 8q-23 4 -45.5 8.5t-45.5 6.5q-12 1 -18.5 2
t-9.5 4t-4 9t-2 17q-2 28 4.5 35t35.5 7q22 0 44 -0.5t44 -0.5q14 0 28 1.5t28 0.5q19 0 38 -2t38 -3q31 -1 62 -1h62q9 0 12 -2.5t5 -11.5q3 -15 3.5 -24t-2.5 -13.5t-11.5 -7.5t-23.5 -6q-17 -4 -33.5 -6t-33.5 -4q-17 -3 -32 -10t-26 -21q-35 -43 -76.5 -79.5
t-79.5 -77.5q-16 -17 -31 -35.5t-31 -35.5q-11 -13 2 -26q23 -22 45 -44.5t45 -44.5q34 -32 67.5 -63.5t68.5 -62.5q10 -10 23 -13q51 -10 107 -18q15 -2 16 -14q2 -4 2 -8q-2 -18 -1.5 -28.5t-3 -16t-13.5 -6.5t-31 0q-48 -5 -97 -1.5t-95 6.5q-29 1 -58.5 0t-59.5 -2h-17
q-12 2 -16 6.5t-5 17.5q-1 8 -1.5 16t-2.5 16q-2 10 1 13.5t14 5.5q7 1 13.5 1.5t13.5 0.5q17 -2 33.5 3t36.5 14z" />
    <glyph glyph-name="uni0426" unicode="&#x426;" horiz-adv-x="1067" 
d="M767 287v147v30t-0.5 34t-0.5 33.5v29.5q0 5 -0.5 9t-1.5 9q-2 14 -4.5 17t-16.5 5q-26 5 -51 9.5t-51 6.5q-8 2 -12.5 4.5t-5.5 10.5q-2 11 -2.5 22t0.5 22q1 21 24 21l310 -3q10 2 21 0.5t22 -2.5q1 -11 2 -21.5t0 -21.5q-1 -19 -6.5 -25t-24.5 -10q-16 -4 -32 -6
t-32 -5q-11 -2 -17 -3.5t-8.5 -4.5t-2.5 -9v-16v-423q0 -15 1 -23.5t5 -12t12.5 -4.5t23.5 -1h77q16 -1 20.5 -5.5t5.5 -21.5v-6q2 -51 3 -101.5t3 -101.5q0 -19 -10 -33q-2 -5 -14.5 -7t-27 -0.5t-27.5 6t-15 13.5q-8 29 -12.5 58t-12.5 58q-2 5 -3.5 11t-3.5 12
q-3 14 -19 14q-17 0 -38 1t-38 0q-174 -5 -344 -3t-343 -3q-8 0 -16 -1l-16 -2q-20 0 -27 19q-1 3 -1 11q-2 12 -2 19t2.5 11t8.5 6.5t17 6.5q23 7 45.5 14t45.5 14q14 4 20.5 11.5t6.5 23.5l-4 369q-1 22 -3.5 43t-4.5 43q-3 17 -18 20q-8 2 -16 3t-16 3q-15 3 -30.5 6
t-30.5 6q-14 3 -14 20v35q0 16 16 17q84 2 163 1t157 1q14 0 19.5 -4.5t7.5 -18.5q1 -7 1.5 -13.5t0.5 -13.5q1 -9 -2 -14t-12 -7l-36 -8l-36 -8q-6 -2 -11.5 -3t-11.5 -3q-15 -5 -16 -19q-1 -13 -2 -25.5t-1 -24.5q3 -96 3.5 -195t1.5 -187q0 -18 1 -26.5t5.5 -12t13 -3.5
h23.5q98 -6 198 -6h197q14 0 17.5 2.5t3.5 16.5q1 41 0.5 81.5t-0.5 81.5h-1z" />
    <glyph glyph-name="uni0427" unicode="&#x427;" horiz-adv-x="1005" 
d="M377 705q11 0 14.5 -3.5t5.5 -14.5q2 -17 -2.5 -31.5t-9.5 -29.5q-14 -5 -30 -6.5t-31.5 -2.5t-28 -2t-17.5 -5q-6 -2 -10.5 -5t-5.5 -10v-140q0 -29 15 -48.5t41 -30.5q44 -12 91 -15t94.5 -2t94.5 3.5t92 0.5q17 0 20.5 3.5t3.5 18.5q-2 49 -2 104t-4 104q-2 14 -14 17
q-17 3 -40 6.5t-40 6.5q-14 2 -22.5 7.5t-10.5 19.5q-2 11 -1.5 22t1.5 22q0 2 3.5 5t6.5 4q12 3 26 3q41 -3 80 -3h77t75.5 -1.5t76.5 -6.5q18 -6 15 -21q-2 -10 -3.5 -19.5t-4.5 -18.5q-2 -5 -7 -8.5t-12 0.5q-23 -2 -42 -5.5t-35 -5.5q-18 -3 -19 -19q-2 -9 -3 -18.5
t-1 -19.5l1 -393v-25.5t1 -24.5t4 -15.5t15 -5.5q18 -4 36.5 -6.5t36.5 -4.5q4 -1 7.5 -0.5t7.5 -1.5q6 -2 12.5 -4t10.5 -7q2 -3 -0.5 -9.5t-3.5 -11.5q-2 -9 -2.5 -17.5t-2.5 -17.5q-1 -17 -19 -17q-34 -1 -75.5 -1.5t-84 -0.5t-84 -0.5t-75.5 -0.5l-18 3t-8.5 4t-3.5 8.5
t-2 15.5q0 12 -3 24q-2 13 1.5 18.5t16.5 8.5q26 6 57.5 12t57.5 11q12 3 15.5 6.5t3.5 14.5q0 27 -0.5 59.5t-1.5 59.5q-1 12 -4.5 14.5t-16.5 2.5q-94 -5 -182.5 -6t-178.5 6q-24 2 -46.5 10t-42.5 19q-81 47 -90 142q-3 40 -2.5 79t0.5 77q0 14 -2.5 16.5t-17.5 4.5
q-18 2 -42.5 4t-42.5 5q-15 2 -21 7.5t-9 19.5q-1 5 -1 9v8q-1 14 -0.5 22t4 12.5t11.5 5.5t22 1q84 2 164 2.5t161 2.5z" />
    <glyph glyph-name="uni0428" unicode="&#x428;" horiz-adv-x="1397" 
d="M864 -2q-189 2 -378 1l-378 -2q-26 -2 -38.5 17t-9.5 42q2 8 8 10.5t12 4.5q19 5 37.5 10t36.5 10q5 1 9 1.5t9 2.5q14 5 14 19v132q0 29 0.5 56.5t-0.5 56.5q-2 52 -3.5 110t-3.5 111q-1 17 -4 21t-21 8q-16 3 -31.5 5.5t-32.5 5.5q-8 2 -17.5 3.5t-11.5 11.5
q-3 12 -3 24.5t1 25.5q0 2 7.5 5t12.5 4q75 5 143 4t140 1q23 0 30.5 -7t6.5 -30q-1 -20 -5.5 -27t-23.5 -13q-12 -3 -23.5 -6.5t-22.5 -5.5t-17.5 -3.5t-9.5 -5t-3.5 -9.5t-0.5 -17q0 -61 -0.5 -115.5t-1 -104.5t-0.5 -97.5v-93.5q0 -11 0.5 -22t1.5 -22t4 -13t14 -4
q82 -2 159 -4t139 0q19 0 28 1t13 5t3.5 13.5t-0.5 26.5q-2 93 -2 191t2 187q1 14 0.5 28t-2.5 28q-2 17 -5.5 21.5t-19.5 8.5l-28 6t-28 5q-19 2 -25 8t-8 24q-1 6 -1.5 12.5t0.5 13.5q2 17 7.5 21t19.5 4q83 -2 158.5 1t150.5 -3q4 0 8.5 -3t4.5 -6q3 -19 1 -44
q0 -11 -15 -15q-25 -6 -49 -13.5t-49 -14.5q-15 -5 -15 -23q-3 -107 -3 -211.5t1 -210.5q0 -12 1 -24.5t6 -21.5q3 -6 8.5 -7.5t11.5 -1.5t12 0.5t12 0.5q74 -2 143 -0.5t141 -0.5q11 0 14.5 3.5t3.5 15.5q1 23 0.5 46t-1.5 46q-1 37 0.5 73.5t-0.5 74.5q-1 24 -1.5 53
t-1.5 59t-1.5 59t-1.5 53q0 8 -2.5 12t-10.5 6q-19 5 -40 9.5t-40 7.5q-15 1 -15 13q-1 11 -1.5 21t-0.5 20q0 9 1 14t3.5 7t8 3t15.5 1q44 0 82.5 -0.5t74 -0.5h70h70.5q11 0 14 -2.5t5 -13.5q0 -6 0.5 -12t0.5 -12q0 -8 1.5 -16.5t-2.5 -11.5q-7 -6 -16 -9t-18 -5
q-20 -5 -39 -8.5t-39 -7.5q-13 -3 -13 -17q3 -122 2.5 -242t3.5 -223q0 -16 14 -20q10 -2 19.5 -5t20.5 -4q26 -3 46 -16q13 -9 13 -22q-1 -4 -1 -11q-1 -15 -2.5 -23t-5 -12t-11.5 -5t-23 -1q-48 -1 -96 -0.5t-96 0.5q-66 0 -121.5 -2t-109.5 -2z" />
    <glyph glyph-name="uni0429" unicode="&#x429;" horiz-adv-x="1412" 
d="M653 583q0 8 -3 13t-11 9q-17 8 -34.5 14.5t-37.5 9.5q-14 2 -19.5 9.5t-6.5 20.5q-2 29 5 37t35 6q63 -2 119.5 -4t113.5 0q18 0 27 -0.5t13 -5t4.5 -14.5t0.5 -29q0 -8 -0.5 -16.5t-5.5 -14.5q-3 -4 -11.5 -2.5t-15.5 -0.5q-14 -3 -27.5 -6.5t-27.5 -6.5
q-11 -2 -14.5 -9t-4.5 -17q-2 -109 -3.5 -220.5t2.5 -218.5q0 -5 0.5 -10.5t0.5 -10.5q2 -12 13 -9q37 -2 84 -2.5t93.5 0t87 1.5t65.5 1q16 0 18.5 3t1.5 19q-2 16 -2 27.5t-1 28.5q0 105 -1 211.5t-1 196.5q-1 10 -15 12q-12 2 -24.5 3t-24.5 3l-36 -1q0 -1 -4 0.5t-5 3.5
q-5 17 -7.5 35t0.5 35q2 5 6.5 9.5t9.5 6.5q15 5 29 2q68 -3 130 -2.5t128 -8.5q16 -2 25.5 -2t13.5 -3.5t4 -13t-1 -29.5q-2 -15 -5 -18.5t-17 -7.5q-18 -5 -36 -9t-36 -7q-19 -4 -23.5 -8.5t-2.5 -24.5q-2 -109 2 -221t4 -213v-18.5t3 -9.5t10 -3h20h91q17 0 18 -14
q1 -7 2 -13.5t1 -13.5q0 -26 -1 -52.5t0 -53.5q0 -23 1 -47t2 -47t-8.5 -30.5t-31.5 -5.5q-14 2 -21 3.5t-11.5 5t-7 10.5t-5.5 20q-2 5 -3 10t-1 10q0 27 -8.5 52t-16.5 50q-5 14 -21 14q-18 1 -36.5 1.5t-36.5 -0.5l-932 -7q-51 -6 -82.5 -6.5t-49 2t-24 7.5t-7.5 11
q-2 17 0 35q1 12 4 15t15 6q24 6 48 12.5t49 13.5q14 5 16.5 8t2.5 19q0 26 -0.5 51.5t-1.5 51.5q0 56 -0.5 103.5t-1.5 89.5t-2.5 80t-3.5 75q-1 17 -4.5 21t-20.5 7q-44 7 -87 12q-14 1 -18 12q-7 14 -6 29t5 29q1 3 5 5.5t8 4.5q15 3 29 3q24 0 47.5 -1t47.5 -1
q12 1 23.5 2.5t23.5 2.5q11 1 23 1h23q25 -1 49 -1.5t48 -0.5q17 0 26 -10.5t5 -27.5q-1 -8 -1.5 -14.5t-0.5 -14.5q-1 -11 -3 -14t-13 -5q-17 -3 -35 -6t-35 -6q-17 -4 -21.5 -9t-4.5 -23q0 -82 0.5 -142t1 -103t0.5 -72.5t0.5 -49.5t1 -34t0.5 -26q0 -5 0.5 -10.5
t0.5 -10.5q1 -12 14 -12q14 -1 29 -1h30h254q15 1 15 17q-1 31 -1 66v66q-1 24 -1 48.5v48.5q-1 57 0 118.5t1 115.5z" />
    <glyph glyph-name="uni042A" unicode="&#x42a;" horiz-adv-x="899" 
d="M247 699q66 0 122 1.5t111 4.5q9 1 14.5 -4.5t5.5 -14.5q0 -6 -1 -9q-1 -9 -1 -19t-5 -18q-4 -5 -14 -5.5t-18 -2.5l-87 -27q-14 -4 -14 -19v-139q1 -11 3 -13t13 -2q36 1 72 2.5t72 0.5q44 -1 87 -3t87 -5q26 -2 48.5 -13.5t42.5 -26.5q14 -11 24.5 -25.5t18.5 -30.5
q11 -20 17 -36.5t8.5 -35t1 -41.5t-5.5 -55q-2 -11 -6 -21t-10 -20q-54 -78 -143 -103q-10 -3 -20 -4t-21 -2q-23 -2 -45.5 -5t-45.5 -1q-51 -2 -101.5 -3t-102.5 0h-186h-10t-10 1q-18 3 -18 20v6q-2 17 -2.5 26.5t3.5 14.5t12.5 8t25.5 8q33 7 66 18q14 5 17.5 10.5
t3.5 19.5q0 29 0.5 59t-0.5 59q-2 63 -1 134.5t-1 134.5v26.5t-2 26.5q-1 14 -4.5 17.5t-15.5 4.5q-26 0 -44 -0.5t-44 0.5q-23 0 -30 -23q-4 -13 -7 -25.5t-6 -25.5q-5 -19 -6.5 -29t-5 -14.5t-12 -5.5t-26.5 -1q-4 0 -8.5 -2t-6.5 0q-5 5 -8.5 11t-4.5 11q-5 59 -6 115
q-1 11 -0.5 21t0.5 21q0 4 -1 7.5t1 6.5q3 12 5 19t5 11t9.5 5t20.5 1q21 0 39.5 -0.5t39.5 -1t47.5 -1t63.5 -0.5v1zM634 114q18 0 39.5 5t40.5 18t32 35t14 57q-1 22 -5.5 40.5t-18 33t-37 24t-61.5 12.5q-36 1 -72 1.5t-72 0.5q-26 -1 -51.5 0t-51.5 -1q-5 0 -10.5 -1
t-10.5 -2q-11 -1 -11 -15v-14q2 -49 2 -92.5v-86.5q2 -12 5.5 -15t15.5 -3q67 1 129.5 1t122.5 2z" />
    <glyph glyph-name="uni042B" unicode="&#x42b;" horiz-adv-x="1233" 
d="M1139 691q26 1 31.5 -4t3.5 -31q-1 -5 -1 -10.5t-1 -10.5q-2 -5 -3 -9.5t-4 -8.5q-5 -6 -9.5 -2t-9.5 3q-20 -3 -39 -6t-39 -7q-3 0 -5 -3.5t-4 -6.5q-1 -2 -1 -6q-1 -112 -1.5 -212.5t-2.5 -200.5v-29.5t1 -29.5q1 -12 5.5 -16t15.5 -2q34 -11 52 -17t26.5 -11
t10.5 -10.5t2 -14.5q0 -15 -0.5 -23.5t-4.5 -12.5t-12 -5t-23 -1q-55 -1 -106.5 -1h-105.5l-24 -2t-24 -1q-12 -1 -16.5 3.5t-4.5 17.5v3q2 11 1 22.5t4 20.5q3 6 7.5 8t10 2t11.5 -0.5t11 1.5q10 4 20 5.5t20 4.5q8 2 12.5 3.5t6.5 4.5t2 7.5v12.5q0 48 -1 94.5t0 94.5
q0 64 0.5 127t1.5 127q0 6 -0.5 12t-0.5 12q1 17 -17 23q-17 7 -35.5 9t-36.5 4q-14 2 -18 5.5t-5 17.5q-2 15 0 32q1 11 4 14t14 4h65q12 0 41 -0.5t62.5 -0.5h64.5h48zM118 687q20 0 38.5 -0.5t38.5 0.5h57.5t57.5 1q14 0 28 2.5t28 0.5q20 -2 30.5 -3.5t15 -6.5t4 -15.5
t-1.5 -29.5q-1 -14 -5.5 -19t-18.5 -9t-27.5 -6t-27.5 -6q-18 -5 -26.5 -7.5t-11.5 -7.5t-3 -13.5v-24.5q-1 -20 -1 -39.5v-39.5q1 -14 4.5 -17.5t17.5 -2.5q36 0 66.5 -0.5t59 0t58 1t63.5 1.5q63 -6 116.5 -23t95.5 -65q8 -8 12.5 -17.5t9.5 -19.5q20 -45 14 -88t-23 -84
q-16 -40 -42 -68.5t-58.5 -46.5t-70 -25.5t-76.5 -5.5q-54 -3 -100.5 -2.5t-90 2.5l-87 4t-92.5 2q-15 0 -29.5 -1t-29.5 -2q-5 -1 -10.5 -1.5t-10.5 -0.5q-17 0 -20 18q-2 6 -2 12.5v13.5q0 15 2.5 17.5t17.5 6.5q20 4 40.5 9t40.5 10q11 2 16.5 8t5.5 18q-3 116 -3.5 231
t-0.5 229q0 9 -5 12.5t-13 5.5l-93 18q-11 2 -14.5 6.5t-2.5 15.5q1 8 1 16t1 16q2 10 5 14t14 5q9 1 18.5 0.5t19.5 -0.5v1zM573 116q71 -1 113 52q16 20 20.5 46.5t-3.5 51.5q-8 23 -23.5 37t-36.5 23q-14 5 -25 8q-8 2 -17 4t-17 2q-69 -3 -137.5 -3t-136.5 -2
q-17 -2 -16 -16q2 -48 0.5 -94.5t0.5 -94.5q1 -12 13 -12q71 -2 135.5 -1t129.5 -1z" />
    <glyph glyph-name="uni042C" unicode="&#x42c;" horiz-adv-x="851" 
d="M601 426q57 1 103.5 -23.5t74.5 -72.5q17 -28 24.5 -54t-0.5 -56q-7 -33 -19 -64t-31.5 -58t-48 -47t-68.5 -30q-57 -15 -121.5 -19.5t-131.5 -4.5t-134.5 1.5t-131.5 -0.5q-16 -1 -24.5 -0.5t-13 4t-6 12t-2.5 24.5q-1 5 -1.5 9t1.5 9q2 9 9 13q10 5 20 8t21 6l34 10
l34 10q10 2 11.5 8.5t0.5 14.5q-2 108 -2.5 219.5t-3.5 238.5q-2 17 -16 17q-20 1 -41.5 6.5t-42.5 1.5q-12 -3 -22 6.5t-11 22.5q-1 7 -1.5 13.5t-1.5 12.5q-1 16 5 23t21 8q78 5 155.5 3t159.5 -2q25 -1 31.5 -7.5t5.5 -30.5q0 -5 -0.5 -9t-1.5 -9q-3 -13 -17 -16
q-23 -5 -46 -10.5t-46 -10.5q-22 -6 -23 -26v-15.5t-0.5 -22.5t-0.5 -36.5v-58.5q0 -13 3 -15.5t16 -2.5h280zM607 125q51 16 72.5 53t7.5 89q-6 20 -16.5 31.5t-24 17.5t-29 8.5t-29.5 4.5q-50 10 -107 5.5t-123 -6.5q-7 0 -13.5 0.5t-13.5 -0.5q-17 -2 -21 -6t-4 -21
v-84.5t3 -92.5q1 -11 3.5 -13.5t13.5 -4.5h12q29 1 63.5 1t70.5 1.5t71 5t64 11.5z" />
    <glyph glyph-name="uni042D" unicode="&#x42d;" horiz-adv-x="922" 
d="M173 616q8 8 16 14.5t16 13.5q16 14 42.5 27t55 23.5t56.5 17.5t48 9q53 5 106 3q81 3 148 -29t115 -87t74 -127t25 -147q-2 -86 -33 -150.5t-86.5 -108t-134.5 -66.5t-176 -27q-49 -2 -89.5 5t-78 19t-74 29t-76.5 35l-21 12q-20 11 -30 27.5t-8 40.5q1 8 -0.5 17
t-1.5 18q0 14 15 14q21 1 39 -9q100 -62 199 -87t210 -13q42 6 83.5 26.5t75 50.5t54.5 67t21 76q0 11 -10 11q-14 1 -27 2t-26 0q-93 -2 -191 -2t-192 -8q-23 -2 -31.5 5t-9.5 30v24.5t1 25.5q2 14 16 14h11q116 2 221 2t210 5q6 0 9 1q11 1 8 14q-9 41 -37.5 74.5
t-66 57.5t-79 37.5t-75.5 14.5q-55 3 -107.5 -9.5t-103.5 -32.5q-34 -14 -60 -37t-46 -53q-4 -5 -7 -9.5t-10 -4.5q-14 -1 -28 -1.5t-28 -0.5t-18.5 4t-5.5 18q-2 43 -3 85.5t-3 86.5v11q2 20 7.5 26t24.5 6l22 2t18 -4q6 -5 7.5 -16t4.5 -21q3 -13 5 -26t10 -26z" />
    <glyph glyph-name="uni042E" unicode="&#x42e;" horiz-adv-x="1387" 
d="M235 692q46 -2 91.5 -3t91.5 -2q18 0 16 -16q0 -12 0.5 -19.5t-1 -12t-8 -7.5t-21.5 -8q-20 -8 -40.5 -13t-41.5 -11q-15 -5 -18 -8.5t-3 -18.5q0 -35 0.5 -69t1.5 -69q0 -5 2 -15q3 -15 18 -15q48 1 96 1t96 1q15 1 18 4t7 18q19 77 69.5 134t117 92.5t142 49t146.5 2.5
q8 -2 16 -2.5t16 -2.5q10 -2 19.5 -4.5t19.5 -5.5q129 -48 193.5 -133t60.5 -215q-3 -69 -27.5 -130.5t-66.5 -108.5t-99 -76.5t-124 -36.5q-19 -3 -37.5 -6t-38.5 -1q-81 11 -136 23.5t-96.5 34.5t-76.5 57t-76 91q-13 22 -17.5 45.5t-11.5 46.5q-5 19 -28 22
q-32 5 -64.5 4t-64.5 0q-14 1 -28 0t-28 -1q-17 0 -17 -16v-17q-1 -37 -1 -73t-1 -72v-9q1 -13 4 -17t16 -6q18 -3 35.5 -5.5t34.5 -5.5q4 -1 7.5 -0.5t7.5 -1.5q8 -3 18 -5.5t13 -8.5q5 -11 8.5 -23.5t-1.5 -26.5q-4 -16 -18 -16q-86 -1 -167 -1.5t-166 0.5q-17 0 -20 17
q-1 3 -1 6t-1 6q-1 13 0 21.5t4.5 13.5t11 8t20.5 6q21 4 42 7t42 8q14 3 16.5 6.5t2.5 17.5l-3 186q-1 17 -0.5 32.5t0.5 32.5q0 35 0.5 69.5t-0.5 69.5q-1 19 -3 38l-4 38q-1 9 -6 12t-12 5l-42 8l-42 8q-23 4 -34 23.5t-2 40.5q3 7 8 8.5t12 1.5q40 -1 77.5 -1.5
t75.5 -0.5zM955 98q10 0 19.5 0.5t18.5 0.5q26 0 52.5 6.5t51 18.5t45.5 28.5t36 37.5q31 42 43 85.5t11 94.5q-11 75 -49 126.5t-91.5 80t-116 33t-120.5 -15.5q-44 -14 -86 -37t-74 -54.5t-50 -71t-14 -87.5q-6 -60 24 -108t78.5 -80t108 -47.5t113.5 -10.5z" />
    <glyph glyph-name="uni042F" unicode="&#x42f;" horiz-adv-x="1005" 
d="M766 -4l-162 6q-11 1 -13.5 3t-4.5 13q-2 10 0 21q0 10 1 16.5t4 10t9 5.5t17 4l42 8t42 9q14 3 16.5 6.5t1.5 17.5q-1 32 -1.5 63.5t-1.5 63.5q-1 14 -3.5 16t-17.5 2q-35 1 -69.5 1t-69.5 1q-6 0 -17 -0.5t-23.5 -2t-24 -3.5t-16.5 -4q-29 -13 -53.5 -34.5t-47.5 -48
t-47 -56.5t-51 -59q-24 -32 -56 -46t-69 -17q-24 -2 -48.5 -1.5t-47.5 12.5q-2 2 -5.5 5t-2.5 5q5 12 1.5 23.5t-3.5 23.5q0 2 -0.5 4t-0.5 4q2 25 28 22q45 -6 83.5 7t71.5 43q28 26 54 52.5t52 53.5q8 8 6 15q-2 3 -6 5t-8 3q-26 4 -51 9.5t-49 15.5q-26 11 -53 32.5
t-37 47.5q-5 11 -9 22.5t-6 22.5q-16 55 0.5 102t52 83t84 58t96.5 27q73 6 145.5 6t144 -2t142 -5t140.5 -3q11 1 14.5 -1.5t3.5 -13.5q-2 -10 -2 -15v-17.5t-3 -10.5t-9 -6.5t-17 -5.5q-19 -5 -38.5 -8.5t-39.5 -8.5q-14 -3 -16.5 -5.5t-2.5 -16.5q1 -86 2 -175.5
t2 -175.5q1 -21 1 -42.5v-43.5v-16t2 -16q0 -4 3 -8t6 -4q23 -5 45.5 -12.5t46.5 -4.5q15 0 18 -12q1 -8 2.5 -16t2.5 -16q3 -35 -32 -36q-20 -1 -40 -1h-40q-17 -1 -34 -0.5t-34 0.5v-1zM444 597q-35 0 -70 -2t-69 -16q-48 -20 -68.5 -59.5t-6.5 -90.5q13 -33 44 -48
t61 -21q11 -2 20.5 -4.5t20.5 -3.5q80 -7 159 -3.5t159 9.5q14 2 18.5 5t3.5 19q-2 45 -2.5 97.5t-0.5 101.5q0 16 -16 17q-67 -3 -131 -1.5t-122 0.5z" />
    <glyph glyph-name="uni0430" unicode="&#x430;" horiz-adv-x="1036" 
d="M327 604q-26 3 -48.5 6t-45.5 6q-5 1 -9 0.5t-9 0.5q-14 2 -18.5 7t-5.5 20q0 12 -0.5 23.5t-0.5 23.5q0 11 13 11q51 1 101.5 -2.5t101.5 1.5q28 2 55 2h54q24 0 47.5 -1.5t47.5 -1.5l96 2t96 3q8 0 17 3q13 4 16 2t3 -14q-1 -14 -1 -28t-1 -28q-1 -11 -14 -13
q-17 -3 -33 -6.5t-33 -7.5q-5 -1 -10 -1.5t-10 -2.5q-7 -2 -14.5 -4t-12.5 -7q-2 -2 1.5 -9.5t5.5 -13.5t3.5 -12.5t3.5 -13.5q4 -13 7.5 -25.5t7.5 -24.5q5 -14 9.5 -27t9.5 -26q8 -21 16.5 -42.5t18.5 -41.5q22 -47 39.5 -94t29.5 -97q4 -13 8.5 -25.5t8.5 -25.5
q7 -25 34 -28q9 -1 18.5 -2t19.5 -2q14 -1 28 -1t28 -2q4 0 9 -3.5t6 -6.5q4 -12 6.5 -24.5t1.5 -24.5q0 -11 -8 -17.5t-19 -10.5q-5 -2 -10.5 -2h-10.5q-29 -2 -58.5 -3.5t-59.5 -2.5q-17 -1 -35 0.5t-35 1.5q-31 -1 -61 -2t-60 -3q-23 -1 -31 15q-4 9 -6.5 18t-3.5 19
q-2 17 4 23.5t23 9.5q8 2 16 3.5t16 3.5q12 3 24 5.5t25 5.5q7 2 14 3t15 3q12 4 15 9.5t-1 16.5q-9 26 -19 51t-20 51q-6 14 -20 13q-13 0 -25.5 -0.5t-24.5 -0.5q-20 -2 -40 -2.5t-40 -2.5q-58 -2 -114 0t-114 0q-15 -1 -29.5 -1t-29.5 -1q-14 -1 -20 -15
q-8 -22 -16.5 -47t-16.5 -47q-6 -16 12 -17q25 -4 50 -7.5t50 -6.5q12 -1 13 -12t2 -21t1 -20q1 -18 -4 -23t-22 -6q-15 -1 -29.5 -1.5t-29.5 -0.5q-56 -4 -122.5 -6t-129.5 3q-29 -3 -35 22q-2 10 -2.5 20t-0.5 21q0 3 3.5 6.5t6.5 5.5q13 6 26.5 7.5l27 3t27 5t27.5 14.5
q25 11 35 36q13 36 26.5 81t27.5 80q9 24 18 47.5t17 47.5q10 24 19 52t19 55.5t20 52.5t21 45zM596 325q23 1 44.5 1.5t44.5 0.5q13 1 9 14q-1 2 -3 8q-20 54 -40 106.5t-40 106.5q-2 5 -4 9.5t-4 9.5q-6 16 -25 16q-35 -2 -69 -3t-69 -2q-16 -1 -22 -16q-5 -15 -9.5 -30
t-9.5 -29q-15 -40 -30.5 -80t-30.5 -80q-5 -12 -8 -22q-3 -11 0.5 -15.5t15.5 -3.5q75 4 134 6.5t116 2.5z" />
    <glyph glyph-name="uni0431" unicode="&#x431;" horiz-adv-x="978" 
d="M413 699q37 0 74 -2t74 -2q63 -1 125.5 -1t125.5 -1q6 0 12 0.5t11 -0.5q19 -5 26.5 -12.5t8.5 -24.5q0 -17 -0.5 -34t1.5 -34q3 -18 2.5 -36.5t-0.5 -36.5q0 -23 -7.5 -29t-30.5 -5q-5 1 -6.5 1.5l-7.5 2.5q-11 2 -17 3.5t-9 4.5t-4.5 9t-3.5 17q-3 14 -7.5 28.5
t-6.5 29.5q-3 15 -17 16q-17 1 -36 2t-36 1q-43 1 -85.5 1h-85.5h-75t-75 -1q-12 0 -24 0.5t-23 -0.5q-16 0 -14 -15q4 -32 1 -64.5t-1 -64.5q0 -12 1 -19t4.5 -10t10.5 -3.5t19 -0.5q33 1 66.5 1t66.5 1h147q25 0 50 1t50 -1q34 -2 68 -8t62.5 -19t50 -34.5t32.5 -54.5
q27 -95 -17 -186q-12 -26 -33 -44t-47 -30q-17 -8 -34 -15.5t-34 -12.5q-35 -8 -69 -14.5t-70 -1.5h-12q-35 -1 -65.5 -1h-59h-56h-57.5q-37 0 -74 -1t-74 2q-35 2 -69 1.5t-69 -2.5q-17 -1 -24 5t-8 23q0 7 0.5 13.5t1.5 12.5q2 13 4.5 15t16.5 6q27 7 54 14.5t54 15.5
q12 3 12 15v26q5 103 2 205t0 205q0 2 0.5 3t0.5 3q0 16 -0.5 24.5t-4.5 13t-13 6.5t-25 4q-13 2 -25 3t-25 2q-23 2 -30 9t-7 31q1 5 1 9t1 8q1 14 6 19.5t19 6.5q7 1 14 0.5t15 -0.5h91h73.5t62 0.5t56.5 0.5zM303 132q0 -14 3 -15.5t15 -3.5q23 -2 45.5 -1.5t45.5 0.5
t46 -2t46 -1q31 0 61.5 1.5t61.5 3.5q16 1 31.5 2.5t30.5 0.5q44 -2 79 14.5t55 56.5q12 21 14.5 44.5t-9 43.5t-40 33t-77.5 15q-14 2 -27 2t-26 1q-38 1 -77 1t-77 1q-24 0 -41 -1.5t-32 -1.5q-29 -2 -56.5 -3t-55.5 -3q-13 -1 -15.5 -3.5t-2.5 -16.5q1 -48 0.5 -88.5
t1.5 -79.5z" />
    <glyph glyph-name="uni0432" unicode="&#x432;" horiz-adv-x="998" 
d="M419 -1q-21 0 -41.5 -0.5t-41.5 0.5q-47 1 -93.5 2t-94.5 3q-12 0 -24 -1t-23 -2q-18 0 -26.5 7.5t-10.5 24.5q-1 4 -0.5 7.5t-0.5 7.5q-5 18 -2.5 21.5t20.5 8.5q29 8 58.5 16t58.5 16q15 5 15 21q-2 38 -3.5 75.5t-3.5 75.5q-1 9 -1 17.5v17.5q-2 60 -3.5 119.5
t-2.5 119.5q-1 15 0 25t-13 14q-19 6 -44.5 11t-45.5 10q-11 3 -18 5t-11 5.5t-5.5 10.5t-2.5 22v6q-6 43 39 43q25 1 49 0.5t49 -1.5q48 -1 95.5 -2.5t95.5 -1.5q42 -1 82.5 2t82.5 1q48 -2 95.5 -4.5t95.5 -14.5q30 -8 58 -29t45 -45q20 -30 27 -57t4 -65
q-2 -31 -18 -57.5t-60 -46.5q-4 -5 -2 -6t0 -4q38 -8 62 -15.5t41 -18.5q10 -7 19.5 -18.5t16 -23.5t11 -24t6.5 -20q9 -56 -8 -105.5t-62 -87.5q-23 -20 -50 -28t-55 -16q-21 -5 -34 -8t-27.5 -4.5t-33.5 -2.5t-51 -1q-45 -3 -89 -4t-89 -3q-8 -1 -17 -0.5t-18 0.5v2z
M654 108q32 0 62.5 4t60.5 13q29 9 47 38q21 36 19.5 64t-21.5 47.5t-56.5 29t-85.5 9.5q-39 0 -77.5 -0.5t-77.5 1.5q-57 -1 -102 0t-92 -5q-18 -2 -19.5 -4t-0.5 -20q2 -36 3.5 -76.5t3.5 -76.5q2 -14 4.5 -17t16.5 -7q5 -1 10 -1.5t10 -0.5q51 1 86 1.5t66.5 0.5h64h78.5
zM405 595q-20 -1 -40 -1.5t-40 -1.5q-14 -2 -17 -4.5t-3 -16.5q1 -35 2 -71t2 -71q1 -14 3.5 -17t16.5 -3q27 -1 50.5 -2.5t50.5 -1.5q32 1 59.5 1t60.5 -1q20 0 49 1t49 2q26 1 48 9t40 27q35 35 29 80q-2 18 -16.5 33t-32.5 20q-14 3 -25 6.5t-24.5 6.5t-31.5 5t-45 2
q-42 0 -91 2.5t-94 -4.5z" />
    <glyph glyph-name="uni0433" unicode="&#x433;" horiz-adv-x="848" 
d="M294 2q-35 0 -70.5 0.5t-70.5 -0.5q-17 0 -34 -1.5t-34 -1.5q-17 -1 -21.5 3.5t-5.5 21.5v15t1 14q1 15 5.5 19.5t18.5 7.5q23 5 45 10t45 9q17 4 17 23v103q-1 88 0.5 166.5t3.5 165.5q0 7 -0.5 13.5t-0.5 13.5q1 12 -10 15q-21 8 -42 15t-42 13q-12 4 -19.5 10t-9.5 18
q-2 5 -2 11t-2 12q-2 15 1.5 20t18.5 6q19 1 38 0.5t38 0.5h22.5t22.5 2q81 1 153 -3.5t144 -4.5q58 -1 116 -0.5t117 1.5q12 0 23.5 -1t23.5 -3q13 -2 16.5 -5t5.5 -17q2 -12 3.5 -24.5t1.5 -25.5q1 -29 1 -58.5v-59.5q0 -37 -38 -40q-37 -3 -45 32q-2 12 -4 24.5t-5 24.5
q-1 7 -2.5 13t-3.5 13q-8 20 -29 21q-24 0 -48 0.5t-49 1.5q-51 1 -100 2t-100 3q-15 1 -35 0.5t-34 -0.5q-19 -1 -23 -5t-3 -23q4 -78 0.5 -148.5t-3.5 -140.5q1 -38 1 -76.5t1 -76.5q0 -14 3.5 -18.5t17.5 -8.5q14 -3 33.5 -5t34.5 -4q5 -2 11 -2.5t11 -2.5q14 -4 16 -20
q1 -10 1.5 -19t0.5 -19q-2 -20 -8.5 -26t-26.5 -7h-9h-83v3z" />
    <glyph glyph-name="uni0434" unicode="&#x434;" horiz-adv-x="1005" 
d="M872 694q26 0 53 -3q17 -1 18 -18q1 -6 1 -12v-12q-1 -15 -3.5 -18.5t-18.5 -8.5q-21 -6 -42.5 -11t-43.5 -10q-16 -4 -19.5 -7t-2.5 -19q2 -94 0 -178.5t-4 -169.5q0 -28 1.5 -55t3.5 -54q1 -12 4 -15t16 -4q9 0 19 -0.5t19 1.5q18 5 35.5 2t34.5 -2q17 0 17 -16
q1 -14 2 -26.5t2 -26.5q1 -23 1.5 -46t0.5 -46v-30.5t-2 -30.5q-3 -25 -25 -28q-15 -3 -33 -1q-24 3 -27 26q-2 17 -5 33.5t-6 33.5q-2 10 -3.5 19t-3.5 19q-4 15 -7 17.5t-17 4.5q-5 1 -9 1.5t-9 -0.5q-32 -2 -64.5 -4t-65.5 -4q-24 -1 -48.5 0.5t-48.5 1.5q-69 2 -137.5 3
t-137.5 2q-42 1 -83.5 0t-83.5 -2q-19 -1 -24 -5.5t-7 -24.5q-4 -25 -7 -49.5t-8 -49.5q-2 -14 -6.5 -17t-18.5 -2h-12t-12 -1q-24 0 -27 24q-2 24 -5 47.5t-1 46.5q3 28 -0.5 55t-2.5 54q1 17 4 21.5t19 9.5q12 3 23.5 4.5t23.5 -0.5q6 -2 13 -1t13 0q20 -3 31 17
q14 29 29 57t28 57q23 51 40.5 103.5t28.5 108.5q7 33 8 66t1 67q0 18 -17 19q-20 3 -40.5 6.5t-41.5 5.5q-14 2 -19.5 5.5t-10.5 23.5q-2 5 -1.5 10t0.5 10v15.5t2.5 8.5t7.5 4t15 2q23 2 45.5 3.5t45.5 3.5q152 -5 302.5 -7.5t302.5 -3.5zM704 358h2v83q0 31 0.5 62
t-0.5 62q0 16 -3.5 20t-17.5 5q-41 4 -81 5.5t-81 -2.5q-23 -2 -45.5 -2h-45.5q-5 0 -10.5 -0.5t-10.5 -0.5q-9 1 -12.5 -3t-5.5 -14q-5 -35 -8 -70t-12 -70l-28 -108t-37 -106q-9 -21 -19 -48t-19 -48q-4 -9 -2 -12.5t13 -3.5q35 0 70.5 0.5t70.5 0.5q71 -2 138 -2h135
q12 -1 14.5 2t1.5 14q-2 60 -3.5 118.5t-3.5 117.5z" />
    <glyph glyph-name="uni0435" unicode="&#x435;" horiz-adv-x="935" 
d="M536 112l195 3h9q21 1 25.5 5t9.5 24l10 42t10 41q4 14 9 17.5t19 2.5q15 -1 23 -2t12 -5t5.5 -12t2.5 -23q2 -32 2.5 -69.5t2.5 -69.5v-20q0 -10 2 -20.5t-2 -16.5q-3 -5 -7 -5t-9 1t-10 2.5t-9 1.5q-60 -4 -119.5 -2.5t-119.5 -1.5q-57 -3 -112.5 -3t-111.5 -1
q-25 -1 -49 0.5t-49 2.5q-43 2 -85.5 2t-84.5 -9q-22 -4 -31 4t-10 30v15q0 11 0.5 17.5t3.5 10.5t9.5 7t17.5 6q21 6 42.5 12t42.5 12q15 5 18 8t3 18q0 29 -0.5 57.5t-0.5 57.5q-1 38 -1.5 77t-2.5 77q-2 35 -3.5 70.5t-3.5 70.5q0 3 -0.5 6t0.5 6q6 36 -29 46q-7 2 -13 6
t-13 7q-12 5 -23.5 11.5t-26.5 4.5q-8 0 -12 6q-18 26 -12 56q1 2 4.5 5t5.5 2q85 -8 170 -5t170 2q93 -2 186 0q37 0 73.5 1.5t73.5 2.5q22 0 43.5 -1t42.5 -3q18 -1 24 -8t6 -26q1 -41 1.5 -81t0.5 -82v-11q-2 -7 -5.5 -11t-10.5 -2q-23 7 -47 1q-2 -1 -6.5 2.5t-5.5 6.5
q-6 25 -17 47.5t-20 45.5q-6 16 -22 15q-18 -1 -33 -1t-30 1t-32 1t-40 -1q-22 -1 -44 0t-44 1q-44 -1 -87.5 -1.5t-87.5 -1.5q-3 -1 -8 -1q-18 -2 -21.5 -5t-2.5 -21q1 -35 2 -69.5t3 -69.5q0 -11 3.5 -14t14.5 -3q23 0 45.5 0.5t45.5 1.5q29 0 56.5 -0.5t56.5 0.5
q29 0 57.5 1t57.5 2q20 0 25.5 -5.5t7.5 -24.5q1 -10 2 -19t3 -19q3 -18 -3 -25t-25 -8q-57 -1 -112.5 -0.5t-112.5 -0.5q-23 -1 -46 -0.5t-46 -0.5q-18 -1 -21.5 -4.5t-3.5 -20.5q0 -37 0.5 -74t1.5 -74q0 -11 1 -16.5t4 -8t9.5 -3t17.5 -0.5q49 1 97.5 0.5t97.5 -0.5v-1z
" />
    <glyph glyph-name="uni0436" unicode="&#x436;" horiz-adv-x="1423" 
d="M1046 361q29 -15 49 -39.5t37 -50.5q18 -27 33.5 -55t32.5 -57q16 -29 40.5 -45.5t54.5 -23.5q15 -3 31.5 -0.5t32.5 3.5l15 3q7 1 12 -1.5t5 -10.5q0 -15 -0.5 -30.5t-1.5 -30.5q-1 -9 -6 -14.5t-13 -9.5q-19 -10 -44 -14t-50.5 -2t-50 11t-42.5 26q-11 9 -21.5 17.5
t-20.5 18.5q-14 15 -23 34q-11 26 -22 53t-22 53q-25 59 -76 91q-10 7 -22 10q-16 4 -31.5 7.5t-31.5 5.5q-35 2 -69 6t-69 0q-15 -1 -14 -13q1 -44 2 -82.5t1 -94.5q0 -16 5 -20t20 -7q24 -4 49 -7.5t49 -8.5q11 -2 13.5 -5t3.5 -14q0 -8 0.5 -15t1.5 -14q3 -31 -26 -31
q-90 -5 -180 -6q-32 -1 -64.5 -0.5t-65.5 1.5q-5 0 -9 -0.5t-8 0.5q-16 2 -19 16q-2 10 -3 19t0 19q0 5 2.5 11t5.5 11q4 5 9 3t10 0q23 4 46 9l46 10q16 3 14 20v29t-1 30q-2 34 -1 64t1 60q-2 11 -4.5 14.5t-13.5 2.5q-40 -3 -82.5 -4.5t-80.5 -13.5q-44 -13 -71 -49
q-25 -33 -46 -67.5t-41 -69.5q-22 -35 -49.5 -64t-69.5 -43q-17 -6 -33 -9q-29 -5 -58.5 -5.5t-58.5 7.5q-4 1 -8 4t-4 6l-4 36t-3 37q0 18 19 14q91 -18 157 53q22 23 39 48.5t33 52.5q18 30 39.5 56t53.5 45q11 6 11.5 10t-6.5 12q-26 32 -51.5 63t-52.5 62
q-16 18 -33.5 41t-35.5 40q-10 8 -21 11q-32 8 -63.5 11t-65.5 7q-10 2 -14 5.5t-4 13.5q0 13 0.5 25t1.5 25q2 16 17 15q23 0 44.5 0.5t44.5 0.5q40 0 79.5 -0.5t79.5 -0.5q19 0 37 1t37 1q11 0 22 -1t22 -1q13 -1 15 -15v-3q5 -32 -4.5 -45t-41.5 -21l-30 -6t-32 -6
q7 -14 13 -23q28 -37 56 -73l56 -72q13 -16 30 -16q10 0 20 -0.5t21 -0.5h54.5t54.5 1q14 1 17.5 4t3.5 17q0 37 -0.5 74t-0.5 74q0 12 -13 14q-29 4 -50 11t-56 16q-4 1 -6.5 5.5t-3.5 8.5q-2 21 0 44q1 8 9 12.5t19 4.5q23 0 47 -0.5t48 -1.5h55q32 2 63.5 3.5t63.5 2.5
q6 1 12 -0.5t11 -2.5q17 -4 17 -21q-1 -11 -1 -22.5t-2 -22.5t-11 -14t-19 -5q-14 -2 -27.5 -4t-27.5 -5q-20 -5 -25.5 -12t-4.5 -27q0 -17 1 -35t1 -35q0 -14 -1 -28l-2 -28q-1 -16 3 -20.5t19 -4.5q24 0 47.5 0.5t47.5 1.5q22 1 43 2t43 2q23 0 34 18q5 8 11.5 15t11.5 15
q19 26 36.5 52t36.5 52q14 20 10.5 26.5t-27.5 9.5q-14 2 -29 4.5t-29 5.5q-5 2 -9.5 5t-5.5 7q-2 14 -2.5 27.5t-0.5 27.5q0 5 3.5 8t8.5 1q18 -6 36.5 -3.5t36.5 1.5q25 -1 49 -0.5t49 0.5q27 1 54 1.5t55 2.5q20 1 39.5 1.5t39.5 -6.5q8 -2 12.5 -6.5t4.5 -13.5
q0 -8 1 -16t3 -16q3 -15 -11 -18q-8 -3 -16 -4.5t-16 -3.5q-21 -4 -42 -7.5t-42 -6.5q-20 -4 -34 -21q-25 -31 -49.5 -61t-49.5 -60q-20 -24 -39.5 -48t-39.5 -48z" />
    <glyph glyph-name="uni0437" unicode="&#x437;" horiz-adv-x="901" 
d="M189 601q7 4 13 7t11 7q37 25 78.5 44t85.5 30t89 14.5t89 -1.5q37 -5 75.5 -13t72 -23.5t59.5 -40.5t40 -63q5 -15 7 -31t1 -33q-2 -23 -7 -44.5t-18 -41.5q-7 -10 -17 -18.5t-18 -16.5q-4 -4 -8 -7t-9 -8q11 -5 20 -10t19 -8q40 -13 66 -47q38 -49 24 -105
q-4 -14 -7 -28.5t-8 -28.5q-8 -28 -26.5 -48t-41.5 -35q-31 -20 -63.5 -37t-69.5 -25q-12 -2 -24.5 -4t-24.5 -4q-51 -7 -101.5 -7.5t-101.5 2.5q-57 4 -111.5 15.5t-108.5 24.5q-18 5 -34.5 13t-32.5 17q-10 5 -14.5 16t-5.5 21q-2 26 -2.5 52t0.5 52q0 14 4 16.5t18 0.5
l22 -2l22 -2q14 -1 19 -15q3 -10 5.5 -19t4.5 -18q5 -23 26 -30q35 -12 70 -21.5t72 -14.5q40 -5 80 -7t80 0q44 2 86 9.5t84 24.5q13 5 24.5 13t22.5 16q18 14 21.5 33t1.5 40q-12 37 -38 56t-58.5 26.5t-67 8t-61.5 -0.5q-41 0 -73 -1.5t-68 -2.5q-28 0 -53 -3
q-24 -1 -32 21q-2 6 -3 12.5t-2 13.5q-1 5 0 10t1 10q0 16 2 25t6.5 13.5t13.5 5t24 -0.5q18 -2 36 -2h35q26 -1 52 -1h52q18 1 35.5 5t34.5 2q27 -1 49 9.5t44 24.5q4 2 10 10q7 11 9 25t-1 27.5t-10 25.5t-18 19q-17 10 -33 19t-35 16t-41.5 11t-52.5 4q-54 2 -104.5 -6.5
t-99.5 -31.5q-10 -5 -19.5 -12t-19.5 -14q-2 -2 -4.5 -4t-4.5 -3q-23 -8 -36.5 -23.5t-21.5 -36.5q-8 -19 -25 -22l-22 -4t-22 -1q-32 1 -34 36q-2 32 -3 62.5t-3 61.5q-1 16 -2.5 31t-3.5 31q-1 10 2 14.5t13 6.5q16 3 31 1.5t30 -5.5q4 -1 7 -5.5t5 -9.5q4 -11 6.5 -22.5
t6.5 -22.5l4 -10z" />
    <glyph glyph-name="uni0438" unicode="&#x438;" 
d="M979 105q67 -13 134 -28v-76q-65 -2 -132 -3q-47 -2 -93.5 -3t-94.5 -2q-12 -1 -25 1t-27 4q-2 17 -4 33l-4 32q35 10 67.5 19t68.5 20q0 117 1.5 229.5t-9.5 228.5q-7 -5 -12 -7t-9 -7q-12 -13 -24.5 -27t-32.5 -37l-50 -57.5t-76 -88t-110.5 -128.5t-153.5 -178
q-13 -15 -28 -24.5t-36 -10.5q-56 0 -111 -1t-111 -2q-6 0 -12 2.5t-12 4.5q-6 17 -9 33t6 36q29 7 59.5 14t63.5 15q1 16 2 30.5t0 28.5v186.5t-1 186.5q0 7 0.5 13t-0.5 12q-1 15 -2.5 23t-5.5 12.5t-12 7.5t-22 7q-26 7 -51 14t-53 15q1 14 2 30t2 34q95 3 187.5 3
t186.5 -1q2 -9 2.5 -16t1.5 -15q1 -7 1.5 -14t0.5 -14q-5 -9 -12.5 -13t-15.5 -6t-16.5 -3t-15.5 -4q-14 -7 -30 -11.5t-33 -9.5q-2 -118 -3 -237t-3 -244q21 22 39 40t35 36q103 112 207 239.5t215 254.5q11 14 24.5 17t28.5 3q36 1 72 1.5t72 -0.5q24 0 47.5 -1.5
t45.5 -3.5q14 -19 12.5 -36.5t-10.5 -37.5q-27 -6 -55.5 -12.5t-56.5 -13.5q-11 -22 -13.5 -43.5t-1.5 -43.5q1 -54 0 -107t0 -107q0 -48 1.5 -95t3.5 -97z" />
    <glyph glyph-name="uni0439" unicode="&#x439;" horiz-adv-x="1158" 
d="M980 601q-15 -3 -15 -17q0 -60 -0.5 -109.5t-1 -94.5t-0.5 -88.5t2 -90.5q0 -20 -0.5 -38t0.5 -38v-13.5t1.5 -7t5.5 -4t12 -2.5q23 -4 46.5 -8t46.5 -8q14 -2 16 -4.5t2 -15.5q-1 -11 -1 -22v-22q1 -15 -13 -15q-42 3 -82.5 0.5t-82.5 -1.5q-36 1 -72 -1l-72 -4h-15
t-15 1q-17 3 -18 23q-1 8 -1 16t-1 16q-1 16 17 19q23 5 45 9.5t44 9.5q18 4 21 8.5t4 21.5q1 35 0.5 70.5t0.5 70.5q0 16 1 31.5t1 30.5q-1 57 -2 112.5t-3 112.5q0 7 -1 8q-5 5 -9 3q-5 -2 -8.5 -5.5l-7.5 -7.5l-52 -56l-52 -56q-90 -98 -176 -197.5t-171 -204.5
q-11 -14 -25 -22.5t-34 -10.5q-35 -4 -69 -4h-69h-40t-40 1q-19 0 -25 6.5t-8 24.5q-1 15 -0.5 24t5 14t13.5 7t24 4q18 2 35.5 6.5t34.5 7.5q14 3 14 19q1 17 1 33v32q0 35 0.5 69.5t0.5 69.5q1 63 1.5 125.5t1.5 125.5q0 4 -0.5 7.5t-0.5 7.5q1 17 -17 20q-27 6 -54.5 12
t-54.5 13q-3 1 -6 4.5t-3 7.5q-1 22 0 44q0 11 11 11t22.5 1t22.5 0q72 -2 143.5 -1t146.5 6q15 1 20.5 -4t4.5 -22q-1 -5 -1.5 -10t0.5 -10q2 -14 0.5 -17t-12.5 -7q-7 -3 -13.5 -5t-14.5 -4q-17 -5 -34 -10.5t-34 -10.5q-14 -3 -14 -19l-2 -32t-2 -33q-2 -48 -2.5 -94
t-1.5 -94q-2 -48 -2.5 -96t-1.5 -96q0 -5 0.5 -9t1.5 -9q8 4 9 5l78 84q-1 -1 13 14.5t38 42t55.5 61.5t66 74.5t69.5 81t66 80.5q8 13 19.5 23.5t21.5 22.5q10 11 18.5 23t17.5 23q4 5 8 8.5t9 7.5q3 3 7.5 5t6.5 5q11 15 25 18t30 4q28 0 55 1t54 0q26 -1 51 -3t51 -4
q2 0 3 -0.5t3 -0.5q5 -1 11.5 1t9.5 -6t6 -15.5t-1 -15.5q-2 -5 -2.5 -9t-1.5 -8q-5 -14 -22 -17q-23 -5 -46 -10.5t-46 -10.5zM353 857q-1 14 -1.5 26.5t-1.5 23.5q0 13 -0.5 23.5t0.5 20.5q2 14 6 26q5 13 19 10q11 -2 22.5 -2.5t23.5 -2.5l2 -22t3 -22q2 -10 3.5 -20
t2.5 -20t5.5 -15t12.5 -9q20 -10 41.5 -14t43.5 -7q34 -5 67 -3t66 8q11 2 21.5 7.5t21.5 10.5q15 8 16 24q2 12 3.5 24.5t3.5 24.5q1 8 2 16.5t9 12.5q11 5 22.5 7.5t23.5 -1.5q3 -1 5 -4l4 -6q1 -4 3 -20.5t3 -35t1 -35t-1 -20.5q-4 -10 -9 -15q-28 -26 -60 -47t-70 -30
q-33 -8 -66.5 -10.5t-67.5 5.5q-22 5 -44 6.5t-42 10.5q-17 8 -34 15t-33 16q-11 7 -19 17.5t-8 25.5z" />
    <glyph glyph-name="uni043A" unicode="&#x43a;" horiz-adv-x="1044" 
d="M635 361q10 -6 18.5 -10.5t15.5 -10.5q22 -18 43 -37.5t33 -47.5q3 -8 8 -15.5t10 -14.5q14 -23 28.5 -45t30.5 -43q34 -49 92 -52q15 -1 29.5 1.5t29.5 4.5q12 2 18.5 2t10.5 -3t5 -9.5t2 -18.5q1 -14 0 -27.5t-3 -27.5q-2 -7 -8 -11q-8 -4 -16.5 -8t-16.5 -5
q-42 -5 -81 0.5t-77 26.5q-16 8 -28 20.5t-23 27.5q-15 22 -29.5 44t-28.5 45q-8 11 -16 22.5t-16 23.5q-5 7 -9.5 13t-7.5 14q-9 23 -30 35q-9 6 -18 13t-19 12q-11 6 -23.5 11.5t-25.5 5.5q-20 0 -43 5q-36 7 -74 5.5t-73 -3.5q-10 0 -19 -1t-19 -2q-11 -2 -11 -12v-50
q1 -27 -0.5 -53.5t0.5 -53.5q0 -26 7 -33.5t25 -10.5t38 -7t38 -8q17 -3 16 -21q0 -9 1 -18.5t1 -19.5q0 -12 -13 -11q-8 1 -16 1.5t-16 -0.5l-96 -2t-96 -3l-44 -2t-44 -1q-15 -1 -20 4.5t-6 21.5q-1 5 -1 9v9q2 14 7 20.5t19 10.5q15 4 30 6.5t30 6.5q9 1 20 5t13.5 8
t2.5 16v119.5v111t-0.5 109.5t-3.5 117q-1 11 -6 14.5t-14 5.5q-23 5 -45 10l-44 10q-10 2 -14 8.5t-5 14.5v13.5t2 13.5q2 19 6.5 22.5t24.5 5.5q17 1 35 0.5t35 -0.5q50 2 98.5 3t96.5 2q13 1 26 -0.5t27 -1.5t15 -14l2 -10l2 -10q1 -12 1.5 -19.5t-2.5 -12t-9.5 -7
t-19.5 -5.5q-19 -5 -38 -11.5t-39 -7.5q-18 -2 -22.5 -7t-4.5 -23q0 -25 0.5 -50t0.5 -50q0 -12 -0.5 -24t-0.5 -24t12 -13q13 -2 25.5 -3.5t26.5 0.5q40 2 77.5 1t73.5 -1q2 0 3 1t3 0q12 -4 20.5 -2t16 7t13.5 12t13 14l33 33q25 28 49 55t48 55q4 4 6 10q3 9 -6 11h-13.5
t-13.5 1q-15 2 -30.5 3.5t-30.5 3.5q-14 3 -15 16l-2 24t-2 23t2.5 14.5t13.5 3.5q31 1 62 1h62q32 1 63.5 1h63.5h103q15 0 19.5 -4.5t2.5 -19.5q0 -8 -1 -12q-2 -8 -2.5 -17t-2.5 -17q-11 -4 -22 -7.5t-22 -6.5q-9 -2 -18 -2t-17 -2q-54 -8 -87 -45q-29 -35 -59.5 -68
t-60.5 -67q-8 -8 -15 -16t-15 -16q-8 -7 -16.5 -12.5t-19.5 -13.5z" />
    <glyph glyph-name="uni043B" unicode="&#x43b;" horiz-adv-x="1024" 
d="M545 584q-29 0 -59 -1t-59 1q-17 1 -20.5 -5t-5.5 -18q-2 -11 -2 -23t-2 -24q-9 -81 -20.5 -158t-34.5 -167q-11 -25 -22.5 -50t-25.5 -48q-21 -34 -52 -55.5t-69 -33.5q-61 -19 -123 -6q-17 4 -24 11t-8 24v22t2 22q2 20 21 19q16 -1 35 -6q17 -4 32.5 -2t29.5 12
q11 8 22.5 13t21.5 16q26 29 40 68q16 48 28 92t19.5 88.5t12 92t7.5 101.5q1 18 -2.5 23t-21.5 8l-52 10l-52 10q-3 1 -6.5 4.5t-4.5 6.5q-2 19 0 39q0 4 3 8t6 5q8 3 15.5 5.5t15.5 2.5q35 0 69 -1t69 -2h33h194t146.5 -0.5t118.5 -0.5t111 1q15 1 16 -12q2 -11 2 -22.5
t8 -22.5q1 -1 0.5 -3.5t-2.5 -3.5q-7 -3 -13 -6t-13 -5q-24 -4 -52 -7t-51 -7q-14 -2 -17.5 -7t-3.5 -20q0 -52 1.5 -99t3 -93.5t3 -94.5t1.5 -102q1 -16 1.5 -31.5t2.5 -30.5q1 -14 4 -17t18 -5q23 -4 45 -6.5t45 -4.5q8 -1 15 -3t12 -7q5 -7 7 -15q1 -5 0.5 -9t0.5 -8
q6 -45 -40 -42q-20 0 -40 0.5t-40 0.5q-48 -2 -95.5 -4t-95.5 -3q-17 -1 -32.5 0.5t-32.5 3.5q-13 1 -15 15q-1 7 -1.5 13.5t0.5 13.5q0 29 28 35q18 5 36 8t37 6q4 1 7 1t7 1q16 3 16 18q0 8 0.5 15t-0.5 14q-2 72 -2 136.5t-2 129.5l-3 153q0 17 -3 20t-20 4h-129v-1z" />
    <glyph glyph-name="uni043C" unicode="&#x43c;" horiz-adv-x="1390" 
d="M320 212q1 -25 2 -41.5t3 -41.5q0 -11 11 -14q26 -8 58.5 -15t58.5 -14q8 -2 11.5 -5.5t2.5 -12.5q0 -11 1 -23l2 -24t-2.5 -16.5t-17.5 -3.5q-84 2 -162 0t-159 -6q-10 -1 -20 -0.5t-21 -0.5q-18 -2 -23 15q-2 10 -4.5 20t-1.5 20q2 15 7.5 19t21.5 5q3 0 6 -0.5t6 0.5
q23 5 47 10.5t47 11.5q13 3 15.5 6.5t3.5 15.5v33v98t-1 99q0 17 -1 34t-1 34q0 41 1 72.5t1 60.5q-1 17 -5 23t-20 11q-20 8 -40.5 15t-40.5 14q-15 4 -18 20q-2 8 -4 15.5t-4 15.5q-8 26 19 28q71 2 141 4.5t142 4.5q21 2 46.5 0t42.5 -9q3 0 0.5 -2t-2.5 -4
q12 -14 16.5 -28.5t12.5 -30.5l93 -234q27 -67 54 -133.5t55 -134.5q2 -5 4.5 -12t10.5 -7q10 0 11.5 7.5t3.5 14.5q25 85 52 167.5t58 165.5q17 44 32 87.5t30 87.5q5 14 7 24.5t6 24.5q3 12 7.5 15.5t16.5 2.5h37.5t36.5 -1q10 -1 19 0.5t19 0.5h101.5t58.5 0.5t30 0.5h16
q9 1 18 1.5t18 0.5q26 0 35 -25q5 -13 3.5 -25t-7.5 -23q-3 -4 -13 -6q-25 -8 -53.5 -15.5t-54.5 -15.5q-12 -3 -13 -14q-3 -50 -4.5 -87t-2 -68.5t-0.5 -61v-64.5v-86.5t1 -85.5q0 -17 3 -20.5t20 -6.5q20 -3 40.5 -5.5t40.5 -5.5q5 0 9 -0.5t9 -1.5q12 -3 14 -17
q0 -12 1 -23.5t1 -23.5q-1 -12 -5.5 -16.5t-16.5 -5.5q-26 -1 -52 -1h-52q-48 -1 -94.5 -0.5t-94.5 -0.5q-11 0 -23 1t-23 -1q-15 -3 -17 8q-2 14 -7.5 26.5t-3.5 27.5q0 12 12 17q17 4 33 5t33 5q13 4 25.5 7t26.5 6q11 3 11 15q1 6 1 11.5v11.5q0 48 0.5 94.5t0.5 94.5
q0 14 -1.5 28t-1.5 28q-1 32 -1 62.5v62.5v22t-2 22q-2 15 -3.5 23t-6 11.5t-12.5 4t-24 0.5q-17 0 -23 -18q-25 -65 -50.5 -129t-45.5 -131q-3 -11 -7 -22.5t-8 -22.5l-24 -74l-24 -74q-9 -26 -18 -50.5t-18 -49.5q-6 -17 -18.5 -24.5t-28.5 -8.5q-26 -2 -51.5 -1.5
t-51.5 1.5q-10 0 -18.5 6.5t-10.5 14.5q-9 25 -17 50t-19 49q-33 70 -61.5 141t-57.5 142q-16 38 -32.5 85.5t-32.5 85.5q-7 15 -16.5 22t-26.5 5q-2 -1 -4 -0.5t-4 0.5q-18 1 -29 -3t-11 -21v-194q3 -40 3 -79.5t1 -79.5z" />
    <glyph glyph-name="uni043D" unicode="&#x43d;" 
d="M249 0h-150q-17 0 -22 17q-6 21 -9 42q-2 9 5.5 17.5t16.5 8.5q24 0 46.5 6.5t45.5 13.5q8 2 9.5 6.5t1.5 11.5q1 42 1.5 82.5t-0.5 82.5q-2 65 -3.5 128.5t-3.5 128.5q0 8 -1 12q0 14 -1 22t-4.5 12.5t-10.5 7.5t-20 7l-34 10l-34 10q-8 3 -13.5 8t-6.5 15q0 5 -1 8.5
t-2 8.5q-1 17 5 23.5t23 5.5q48 -2 95.5 -3.5t95.5 -3.5q4 0 7.5 -0.5t7.5 -0.5q27 1 54.5 1t54.5 1q26 1 32 -5t7 -32q0 -17 -6 -25.5t-23 -12.5q-16 -4 -32 -6.5t-32 -6.5q-21 -4 -31.5 -6.5t-14 -7.5t-3.5 -14.5v-27.5v-109q0 -5 0.5 -10.5t0.5 -10.5q0 -13 13 -13
q37 -2 73.5 0t74.5 1q26 0 52.5 -1t53.5 1q19 1 38 1.5t38 2.5q34 -1 58.5 -1t45 1t38.5 2t41 2q14 -2 18.5 2t4.5 19q1 38 1.5 76.5t0.5 76.5q0 18 -4.5 22.5t-22.5 8.5q-16 3 -31 4.5t-31 3.5q-17 3 -25.5 11t-10.5 25q-3 15 -1 35q0 15 16 12q23 -5 46.5 -3.5t46.5 3.5
q15 2 30 0.5t29 -2.5q7 0 13.5 -1t13.5 0h47.5h35.5t31 -0.5t33 -1.5q15 0 18 -3.5t3 -19.5q0 -8 -0.5 -16t-0.5 -16q-1 -17 -6.5 -24t-22.5 -9q-20 -3 -38.5 -4.5t-38.5 -3.5q-11 -1 -14 -3.5t-4 -13.5q-1 -17 -1.5 -32.5t-0.5 -32.5q2 -50 3.5 -99t2.5 -99q1 -39 0 -78
t-1 -79q0 -11 0.5 -23t0.5 -24q0 -18 19 -22q24 -5 48.5 -11t48.5 -11q12 -2 18.5 -8t8.5 -18q0 -6 1.5 -12t1.5 -11q-1 -20 -7.5 -26.5t-26.5 -7.5q-59 -2 -118 0q-53 1 -105 2t-105 1q-9 0 -15 2.5t-9 12.5q-3 9 -6.5 18.5t-5.5 20.5q-3 25 25 29q15 3 30.5 5.5t30.5 4.5
q11 2 23 5t23 6q13 3 13 17q-1 11 -0.5 22.5t-0.5 22.5q-1 29 -1.5 59t-2.5 59q-1 13 -2 20.5t-5 11t-12 4t-22 -0.5q-20 -2 -39.5 -2.5t-39.5 -2.5q-21 -1 -41.5 -2.5t-41.5 -2.5q-44 -1 -87 -1h-87q-15 -1 -29.5 -2t-29.5 -1q-25 0 -50 0.5t-50 1.5q-11 0 -14.5 -2.5
t-3.5 -13.5q0 -41 0.5 -80.5t1.5 -79.5q0 -17 4.5 -20.5t21.5 -7.5q23 -5 44.5 -10t44.5 -10q3 -1 7 -4.5t4 -7.5q2 -14 3.5 -27.5t1.5 -27.5q0 -3 -3.5 -6.5t-7.5 -5.5q-11 -3 -23 -3h-151v1z" />
    <glyph glyph-name="uni043E" unicode="&#x43e;" horiz-adv-x="1022" 
d="M527 -24q-9 1 -18.5 2t-20.5 2q-32 4 -63 7t-63 7q-34 8 -69.5 20.5t-67.5 30t-59.5 39.5t-46.5 49q-14 22 -27 44t-24 45q-14 33 -19 72t-0.5 78t18 75.5t36.5 66.5q37 45 69 75t66.5 51t75.5 36.5t95 30.5q6 2 12.5 2.5t13.5 1.5q19 2 38 3.5t38 3.5q22 2 38 -1
q99 -13 176.5 -36t131.5 -64.5t84 -105t34 -156.5q2 -53 -8 -96.5t-26.5 -77.5t-36 -58t-35.5 -38q-7 -6 -14 -11.5t-15 -9.5q-18 -11 -36 -20.5t-36 -19.5q-40 -20 -82 -28.5t-86 -12.5q-18 -2 -35.5 -3.5t-37.5 -3.5zM550 601q-11 -2 -32 -3.5t-44 -3.5q-31 -5 -54 -10.5
t-41 -11.5t-32.5 -12.5t-27.5 -13.5q-11 -6 -22 -11t-22 -12q-10 -6 -19.5 -13t-18.5 -15q-17 -16 -29 -40.5t-22 -45.5q-20 -45 -13.5 -88.5t21.5 -87.5q4 -12 16.5 -25.5t27.5 -25.5t31 -21.5t27 -14.5q22 -9 52.5 -18t63.5 -15.5t66.5 -10.5t60.5 -2q24 1 44 1.5t39 3
t37 6t38 10.5q31 12 61.5 32.5t54 47t36.5 57.5t10 65v20.5t-2 19.5q-7 54 -24.5 90.5t-42.5 61.5t-56 41.5t-64 29.5q-25 10 -53.5 10.5t-66.5 4.5z" />
    <glyph glyph-name="uni043F" unicode="&#x43f;" horiz-adv-x="1104" 
d="M297 134v-18q2 -17 16 -18q13 -1 25 -2.5t25 -2.5q28 0 58 -11q12 -5 16 -9.5t4 -17.5v-13.5t-1 -13.5q-1 -15 -5.5 -19.5t-19.5 -4.5q-26 -1 -52 -0.5t-52 -0.5q-58 -2 -116 -4.5t-117 -4.5q-10 0 -14.5 3t-4.5 13q-1 14 -1 27t2 26q1 5 5.5 9.5t9.5 6.5q14 5 28.5 8
t28.5 6q11 2 22 3.5t22 3.5q12 3 14.5 6t2.5 16v78.5t-1 78.5q-1 56 -2 110.5t-2 110.5q-1 16 -1 31.5v30.5q-1 17 -4 21t-18 8q-19 5 -37.5 8.5t-37.5 7.5q-17 3 -21.5 8t-4.5 23t1.5 28t6.5 15.5t15.5 7t27.5 1.5q24 -1 47.5 0t46.5 1q73 1 134.5 0t117.5 -2t110 -1t113 2
q49 1 97.5 1t97.5 1q29 1 59 2t59 3q12 0 23 3q12 3 18 1.5t7 -12.5q1 -16 0 -32t-3 -32q0 -5 -4 -6.5t-9 -2.5q-27 -5 -53.5 -10t-53.5 -10q-18 -5 -22 -9t-3 -23q1 -81 3 -162t0 -163q1 -31 2 -61.5t2 -62.5q1 -8 5.5 -11t12.5 -5q20 -5 41 -9t42 -9q26 -5 34 -15t5 -36
q-3 -19 -23 -22q-20 -2 -40 -3.5t-40 2.5q-15 3 -31.5 1.5t-32.5 -2.5q-40 -1 -79.5 -2t-79.5 -1q-15 0 -23 1t-11.5 4.5t-4.5 11.5t-1 23q-1 20 3 26t24 11q19 5 38 9.5t39 9.5q8 2 12 5.5t4 13.5q-6 149 -9 301q-1 33 0 65.5t1 64.5q0 15 -0.5 22.5t-4 11.5t-11.5 4h-23
q-58 -2 -115 -3t-115 -3q-48 -1 -94.5 -1.5t-94.5 -2.5q-14 0 -21.5 -1t-11 -5t-4 -11.5t-0.5 -21.5q0 -117 0.5 -188.5t0.5 -113.5t0.5 -63.5t0.5 -38.5z" />
    <glyph glyph-name="uni0440" unicode="&#x440;" horiz-adv-x="948" 
d="M190 475q0 23 -1.5 45.5t-3.5 45.5q-1 16 -3.5 20t-22.5 6q-21 2 -42 5l-42 6q-13 0 -14 12t-2 23.5t-1 23.5t5 17t16 7q3 0 6 0.5t6 0.5q71 10 142 6.5t142 -3.5q25 -2 49 -1t49 1q55 -1 109.5 -0.5t110.5 -5.5q72 -12 125.5 -43t80.5 -92q12 -31 13 -66.5t-5 -66.5
q-8 -35 -25.5 -63.5t-46.5 -51.5q-51 -39 -108 -50.5t-118 -9.5q-26 0 -50.5 -0.5t-50.5 0.5q-23 0 -47 0.5t-47 1.5q-21 1 -41.5 1t-40.5 1q-5 0 -9 -1t-9 -2q-15 -3 -14 -16q1 -26 1.5 -50.5t2.5 -49.5q1 -11 8 -17.5t17 -8.5q22 -3 41.5 -12.5t41.5 -14.5q16 -3 16 -22
q0 -8 -0.5 -16t0.5 -16q0 -8 -4 -11t-11 -4h-36.5t-36.5 -1q-24 0 -47.5 -1t-47.5 -2q-26 -1 -51.5 -1h-51.5q-14 0 -28 -0.5t-28 0.5q-12 1 -16 4.5t-6 14.5q-1 5 -1.5 11t-0.5 12q-2 27 25 35q20 7 39.5 13t39.5 13q7 2 11.5 3.5t6.5 4t2.5 7t0.5 12.5q-2 101 1.5 183.5
t1.5 162.5zM619 339q21 2 41.5 4.5t40.5 7.5q32 8 54 25t39 48q10 17 14 33.5t-7 33.5q-5 7 -8.5 14t-8.5 14q-5 8 -10.5 15.5t-13.5 13.5q-20 15 -42.5 23.5t-46.5 11.5q-30 3 -60.5 3.5t-60.5 2.5q-14 1 -28 1.5t-28 -0.5q-26 0 -50.5 -1t-49.5 -3q-15 -2 -29.5 -4.5
t-29.5 0.5q-6 2 -12.5 0.5t-13.5 -3.5q-3 -1 -6 -4t-3 -5q-3 -29 -3 -56q0 -35 0.5 -70.5t1.5 -71.5q0 -20 3.5 -24t23.5 -5h24q55 -1 95 -1t71 -0.5t55.5 -1t47.5 -1.5z" />
    <glyph glyph-name="uni0441" unicode="&#x441;" horiz-adv-x="921" 
d="M870 502v-12t-2 -11q-2 -16 -17 -17q-13 -1 -25 -2t-25 -3q-15 -1 -22 12q-10 14 -14.5 29t-15.5 29q-6 8 -14 15t-17 13q-38 23 -82.5 37.5t-89.5 17.5q-17 2 -33.5 4t-33.5 2q-142 0 -245 -101q-76 -76 -79 -185q0 -8 1.5 -15.5t3.5 -13.5q18 -59 55.5 -97.5
t89.5 -61.5t116 -33t134 -12q21 -1 42 3.5t42 9.5q27 6 54.5 13.5t53.5 16.5q14 5 27.5 13t26.5 17q8 5 17 10t14 15q3 5 10 3.5t9 -7.5q5 -12 9.5 -24.5t2.5 -26.5q0 -2 -0.5 -3t-0.5 -3q6 -27 -8.5 -42.5t-34.5 -25.5q-148 -76 -316 -78q-64 -1 -125 10.5t-115 35
t-98 60.5t-73 87q-25 44 -37.5 90t-6.5 97q8 61 31.5 115.5t65.5 101.5q35 39 84 66t104 43.5t110.5 22t103.5 0.5l14 -2t15 -3q32 -8 63 -16.5t62 -17.5q13 -5 25 -11.5t25 -12.5q14 -8 18.5 -6.5t9.5 15.5q2 8 4 14.5t4 14.5q4 16 21 16q9 -1 18 -0.5t18 -1.5
q17 -2 21.5 -7t4.5 -22q0 -44 0.5 -71.5t0.5 -46.5v-31.5t-1 -25.5z" />
    <glyph glyph-name="uni0442" unicode="&#x442;" horiz-adv-x="974" 
d="M498 0h-135q-13 -1 -26 -1t-26 -2q-15 -2 -20.5 2t-6.5 19v41q0 16 18 19q28 4 55 8.5t55 9.5l15 3q11 3 13 5.5t3 16.5q3 110 3 214.5t-2 210.5v6q-2 19 -2.5 29t-5 14t-15.5 4h-33q-11 1 -21 -0.5t-21 -1.5q-45 -2 -90 -2.5t-90 -2.5q-14 0 -18 -3.5t-8 -17.5l-15 -63
q-3 -16 -7.5 -20t-21.5 -5h-16t-16 1q-19 1 -20 21v3q-2 37 -3.5 73.5t-3.5 73.5v22t3.5 11.5t11.5 4.5t22 1q27 1 54.5 3t53.5 1q129 -3 250.5 -2t242.5 -1q46 0 91.5 0.5t91.5 -0.5q17 -1 33.5 -3t33.5 -4q6 -1 10 -4t2 -10q-7 -26 -3.5 -51t2.5 -51q0 -13 0.5 -25.5
t0.5 -25.5q-1 -10 -4.5 -13t-14.5 -2q-17 0 -35 -3q-15 -3 -20 12q-5 11 -8 21t-7 21q-1 5 -1.5 9t-2.5 8q-6 16 -10.5 18.5t-21.5 2.5q-42 1 -82 1t-81 1q-20 1 -39.5 2t-39.5 1q-12 0 -15.5 -3t-3.5 -14q-1 -66 -1.5 -124.5t-0.5 -114v-110t-1 -111.5q-2 -17 14 -18
q34 -5 63.5 -15t64.5 -11q15 0 15 -14q1 -5 1 -15q0 -16 -0.5 -25t-5 -13.5t-13.5 -6t-25 -1.5q-20 0 -40 -0.5t-40 -0.5q-20 -1 -40.5 -1.5t-43.5 -1.5z" />
    <glyph glyph-name="uni0443" unicode="&#x443;" horiz-adv-x="1008" 
d="M612 257q-19 0 -39 0.5t-37 -0.5h-40.5h-37.5t-39 0.5t-45 0.5q-17 -2 -29.5 3.5t-20.5 20.5q-29 52 -57 100.5t-56 100.5q-5 10 -9.5 17.5t-9.5 16t-11 18t-15 23.5q-6 24 -22.5 32t-38.5 10q-20 2 -39 5.5t-39 6.5q-15 3 -18 17q-1 8 -1.5 16.5t-0.5 16.5q-1 16 5 23.5
t23 10.5q11 2 22 2.5t22 -0.5q74 -8 144.5 -4t143.5 1q4 1 8 1h9q20 0 18 -18q0 -11 -1 -22l-2 -22q-1 -7 -3.5 -11.5t-10.5 -3.5q-28 3 -53 -7t-51 -13q-5 0 -6 -3t1 -7q3 -12 8 -19q24 -46 48.5 -91.5t48.5 -91.5q11 -22 37 -22h215q12 0 18 5.5t10 15.5q16 42 31.5 82.5
t32.5 82.5q2 7 4.5 14t5.5 14q5 15 5 18t-21 7q-42 7 -84 12q-16 3 -16 17q-1 10 -2.5 19.5t-2.5 18.5q-2 12 1 16.5t14 6.5q5 1 9 1.5t9 0.5q42 0 84 -0.5t84 -0.5h127q13 0 25.5 -1t24.5 -3q10 -2 9 -12t-1 -19.5t-2 -18.5q-1 -12 -6 -16.5t-16 -6.5l-38 -4l-38 -4
q-17 -1 -28 -8t-18 -25q-17 -38 -30 -78t-27 -80q-10 -26 -20.5 -52t-21.5 -52q-16 -40 -32 -79.5t-36 -77.5q-42 -86 -117 -131t-199 -36q-15 2 -30 6.5t-30 9.5q-20 6 -20 29q0 11 -1 22t-1 22q0 29 28 23q32 -8 64.5 -8t64.5 5q20 3 38.5 11t36.5 16q13 8 28 24.5
t27.5 35.5t22.5 38t13 32z" />
    <glyph glyph-name="uni0444" unicode="&#x444;" horiz-adv-x="1087" 
d="M317 158q-47 -1 -90.5 11.5t-85.5 33.5q-50 29 -78 81t-28 105q0 75 28 123.5t75 78t110 42t134 14.5q23 -1 45.5 -1.5t45.5 -0.5q12 0 14.5 3t3.5 14q0 15 -3.5 19.5t-19.5 8.5l-87 27q-19 9 -20 29v12t1 12q2 16 7 19.5t22 3.5q75 2 143.5 2.5t136.5 0.5h21t20 -2
q3 0 6.5 -3.5t5.5 -7.5q2 -8 2.5 -16t1.5 -16v-12.5t-2 -7.5t-6.5 -4.5l-13.5 -4.5q-22 -6 -51.5 -12.5t-51.5 -13.5q-13 -4 -9.5 -20t11.5 -26q2 -2 6.5 -3t9.5 -1q22 0 44 1l44 2q61 1 111 -5t90.5 -23.5t71.5 -48t54 -78.5q42 -120 -29 -218q-29 -41 -60.5 -66t-78.5 -34
q-38 -9 -76.5 -10.5t-76.5 -3.5q-25 -2 -50 -2t-50 -1q-9 0 -12 -3t-4 -13q-1 -16 -0.5 -25.5t4.5 -15t13 -8.5t25 -6l66 -12q11 -2 18.5 -12t7.5 -23q1 -22 -20 -31q-17 -8 -34.5 -8t-35.5 -1q-69 -2 -133.5 0t-127.5 1q-15 0 -15 15q-1 9 -1.5 18.5t-1.5 19.5q0 18 16 21
q17 4 33 8t33 8q5 1 10 1t10 2q18 3 22 7.5t5 22.5q1 5 1 15q0 13 -2 15.5t-16 2.5q-24 1 -48 0.5t-49 -0.5q-10 1 -26 -0.5t-36 0.5zM494 530q0 13 -3 15.5t-16 3.5q-11 0 -27.5 0.5t-34.5 0.5t-34.5 0.5t-27.5 0.5q-47 -2 -85.5 -9.5t-66.5 -25t-43.5 -47.5t-15.5 -78
q3 -61 56 -98q23 -12 43 -18.5t39 -10t38.5 -4t41.5 -0.5q27 0 57 3t58 4q13 0 17 4t6 16q-2 37 -2.5 65.5t-0.5 55.5t0.5 55.5t0.5 66.5zM596 273q0 -16 16 -16q53 2 102.5 3t93.5 3q28 2 52 10q29 9 51.5 33t34.5 52q12 33 6.5 65t-20.5 57.5t-36 41t-40 14.5
q-32 10 -71.5 12t-73.5 4q-23 2 -47 2t-47 -1q-14 0 -17 -3.5t-3 -17.5q2 -61 0.5 -128.5t-1.5 -130.5z" />
    <glyph glyph-name="uni0445" unicode="&#x445;" horiz-adv-x="1011" 
d="M703 92q-14 17 -26 31.5t-26 28.5q-31 32 -62 62t-62 61q-2 2 -3.5 3t-3.5 3q-11 11 -22 0q-26 -27 -53 -53.5t-54 -52.5q-11 -11 -21 -23t-21 -23q-6 -7 -11.5 -14t-12.5 -15q22 -8 42.5 -12.5t41.5 -6.5q20 -3 25.5 -8.5t7.5 -25.5q1 -3 1 -9v-21.5t-3.5 -11
t-11.5 -4.5t-22 -1q-14 -1 -28 -2.5t-28 -1.5q-31 1 -61 3t-60 3q-16 1 -32 0.5t-33 -1.5q-16 0 -32 1t-32 0q-14 0 -28 -1.5t-28 -2.5q-17 -1 -22.5 4.5t-6.5 22.5v12q-1 18 -0.5 26.5t4.5 12t12 4t22 3.5q26 5 53.5 8t53.5 8q8 2 16.5 6.5t14.5 9.5q17 16 32.5 32.5
t32.5 32.5q35 32 69.5 64t69.5 64l4 4l4 4q10 10 1 21q-14 16 -29 31.5t-29 31.5q-21 23 -41.5 45.5t-42.5 45.5t-44 44t-44 43q-8 8 -12 9q-18 3 -36 6.5t-37 4.5q-12 0 -27 5q-9 3 -13.5 5t-7 4.5t-3 7t-0.5 12.5v29q1 11 4.5 14t14.5 3q31 1 61.5 1t62.5 1q38 1 77 2
t78 1q21 0 41.5 -1.5t41.5 -2.5q13 -1 15 -15v-14.5t-1 -14.5q-2 -17 -5.5 -20t-21.5 -6q-22 -4 -43.5 -8t-43.5 -9q-13 -3 -4 -15q32 -35 64 -69.5t64 -69.5q12 -14 24.5 -27t25.5 -27q11 -13 23 0q48 51 100 97.5t98 100.5l3 8q-23 4 -45.5 8.5t-45.5 6.5q-12 1 -18.5 2
t-9.5 4t-4 9t-2 17q-2 28 4.5 35t35.5 7q22 0 44 -0.5t44 -0.5q14 0 28 1.5t28 0.5q19 0 38 -2t38 -3q31 -1 62 -1h62q9 0 12 -2.5t5 -11.5q3 -15 3.5 -24t-2.5 -13.5t-11.5 -7.5t-23.5 -6q-17 -4 -33.5 -6t-33.5 -4q-17 -3 -32 -10t-26 -21q-35 -43 -76.5 -79.5
t-79.5 -77.5q-16 -17 -31 -35.5t-31 -35.5q-11 -13 2 -26q23 -22 45 -44.5t45 -44.5q34 -32 67.5 -63.5t68.5 -62.5q10 -10 23 -13q51 -10 107 -18q15 -2 16 -14q2 -4 2 -8q-2 -18 -1.5 -28.5t-3 -16t-13.5 -6.5t-31 0q-48 -5 -97 -1.5t-95 6.5q-29 1 -58.5 0t-59.5 -2h-17
q-12 2 -16 6.5t-5 17.5q-1 8 -1.5 16t-2.5 16q-2 10 1 13.5t14 5.5q7 1 13.5 1.5t13.5 0.5q17 -2 33.5 3t36.5 14z" />
    <glyph glyph-name="uni0446" unicode="&#x446;" horiz-adv-x="1067" 
d="M767 287v147v30t-0.5 34t-0.5 33.5v29.5q0 5 -0.5 9t-1.5 9q-2 14 -4.5 17t-16.5 5q-26 5 -51 9.5t-51 6.5q-8 2 -12.5 4.5t-5.5 10.5q-2 11 -2.5 22t0.5 22q1 21 24 21l310 -3q10 2 21 0.5t22 -2.5q1 -11 2 -21.5t0 -21.5q-1 -19 -6.5 -25t-24.5 -10q-16 -4 -32 -6
t-32 -5q-11 -2 -17 -3.5t-8.5 -4.5t-2.5 -9v-16v-423q0 -15 1 -23.5t5 -12t12.5 -4.5t23.5 -1h77q16 -1 20.5 -5.5t5.5 -21.5v-6q2 -51 3 -101.5t3 -101.5q0 -19 -10 -33q-2 -5 -14.5 -7t-27 -0.5t-27.5 6t-15 13.5q-8 29 -12.5 58t-12.5 58q-2 5 -3.5 11t-3.5 12
q-3 14 -19 14q-17 0 -38 1t-38 0q-174 -5 -344 -3t-343 -3q-8 0 -16 -1l-16 -2q-20 0 -27 19q-1 3 -1 11q-2 12 -2 19t2.5 11t8.5 6.5t17 6.5q23 7 45.5 14t45.5 14q14 4 20.5 11.5t6.5 23.5l-4 369q-1 22 -3.5 43t-4.5 43q-3 17 -18 20q-8 2 -16 3t-16 3q-15 3 -30.5 6
t-30.5 6q-14 3 -14 20v35q0 16 16 17q84 2 163 1t157 1q14 0 19.5 -4.5t7.5 -18.5q1 -7 1.5 -13.5t0.5 -13.5q1 -9 -2 -14t-12 -7l-36 -8l-36 -8q-6 -2 -11.5 -3t-11.5 -3q-15 -5 -16 -19q-1 -13 -2 -25.5t-1 -24.5q3 -96 3.5 -195t1.5 -187q0 -18 1 -26.5t5.5 -12t13 -3.5
h23.5q98 -6 198 -6h197q14 0 17.5 2.5t3.5 16.5q1 41 0.5 81.5t-0.5 81.5h-1z" />
    <glyph glyph-name="uni0447" unicode="&#x447;" horiz-adv-x="1005" 
d="M377 705q11 0 14.5 -3.5t5.5 -14.5q2 -17 -2.5 -31.5t-9.5 -29.5q-14 -5 -30 -6.5t-31.5 -2.5t-28 -2t-17.5 -5q-6 -2 -10.5 -5t-5.5 -10v-140q0 -29 15 -48.5t41 -30.5q44 -12 91 -15t94.5 -2t94.5 3.5t92 0.5q17 0 20.5 3.5t3.5 18.5q-2 49 -2 104t-4 104q-2 14 -14 17
q-17 3 -40 6.5t-40 6.5q-14 2 -22.5 7.5t-10.5 19.5q-2 11 -1.5 22t1.5 22q0 2 3.5 5t6.5 4q12 3 26 3q41 -3 80 -3h77t75.5 -1.5t76.5 -6.5q18 -6 15 -21q-2 -10 -3.5 -19.5t-4.5 -18.5q-2 -5 -7 -8.5t-12 0.5q-23 -2 -42 -5.5t-35 -5.5q-18 -3 -19 -19q-2 -9 -3 -18.5
t-1 -19.5l1 -393v-25.5t1 -24.5t4 -15.5t15 -5.5q18 -4 36.5 -6.5t36.5 -4.5q4 -1 7.5 -0.5t7.5 -1.5q6 -2 12.5 -4t10.5 -7q2 -3 -0.5 -9.5t-3.5 -11.5q-2 -9 -2.5 -17.5t-2.5 -17.5q-1 -17 -19 -17q-34 -1 -75.5 -1.5t-84 -0.5t-84 -0.5t-75.5 -0.5l-18 3t-8.5 4t-3.5 8.5
t-2 15.5q0 12 -3 24q-2 13 1.5 18.5t16.5 8.5q26 6 57.5 12t57.5 11q12 3 15.5 6.5t3.5 14.5q0 27 -0.5 59.5t-1.5 59.5q-1 12 -4.5 14.5t-16.5 2.5q-94 -5 -182.5 -6t-178.5 6q-24 2 -46.5 10t-42.5 19q-81 47 -90 142q-3 40 -2.5 79t0.5 77q0 14 -2.5 16.5t-17.5 4.5
q-18 2 -42.5 4t-42.5 5q-15 2 -21 7.5t-9 19.5q-1 5 -1 9v8q-1 14 -0.5 22t4 12.5t11.5 5.5t22 1q84 2 164 2.5t161 2.5z" />
    <glyph glyph-name="uni0448" unicode="&#x448;" horiz-adv-x="1397" 
d="M864 -2q-189 2 -378 1l-378 -2q-26 -2 -38.5 17t-9.5 42q2 8 8 10.5t12 4.5q19 5 37.5 10t36.5 10q5 1 9 1.5t9 2.5q14 5 14 19v132q0 29 0.5 56.5t-0.5 56.5q-2 52 -3.5 110t-3.5 111q-1 17 -4 21t-21 8q-16 3 -31.5 5.5t-32.5 5.5q-8 2 -17.5 3.5t-11.5 11.5
q-3 12 -3 24.5t1 25.5q0 2 7.5 5t12.5 4q75 5 143 4t140 1q23 0 30.5 -7t6.5 -30q-1 -20 -5.5 -27t-23.5 -13q-12 -3 -23.5 -6.5t-22.5 -5.5t-17.5 -3.5t-9.5 -5t-3.5 -9.5t-0.5 -17q0 -61 -0.5 -115.5t-1 -104.5t-0.5 -97.5v-93.5q0 -11 0.5 -22t1.5 -22t4 -13t14 -4
q82 -2 159 -4t139 0q19 0 28 1t13 5t3.5 13.5t-0.5 26.5q-2 93 -2 191t2 187q1 14 0.5 28t-2.5 28q-2 17 -5.5 21.5t-19.5 8.5l-28 6t-28 5q-19 2 -25 8t-8 24q-1 6 -1.5 12.5t0.5 13.5q2 17 7.5 21t19.5 4q83 -2 158.5 1t150.5 -3q4 0 8.5 -3t4.5 -6q3 -19 1 -44
q0 -11 -15 -15q-25 -6 -49 -13.5t-49 -14.5q-15 -5 -15 -23q-3 -107 -3 -211.5t1 -210.5q0 -12 1 -24.5t6 -21.5q3 -6 8.5 -7.5t11.5 -1.5t12 0.5t12 0.5q74 -2 143 -0.5t141 -0.5q11 0 14.5 3.5t3.5 15.5q1 23 0.5 46t-1.5 46q-1 37 0.5 73.5t-0.5 74.5q-1 24 -1.5 53
t-1.5 59t-1.5 59t-1.5 53q0 8 -2.5 12t-10.5 6q-19 5 -40 9.5t-40 7.5q-15 1 -15 13q-1 11 -1.5 21t-0.5 20q0 9 1 14t3.5 7t8 3t15.5 1q44 0 82.5 -0.5t74 -0.5h70h70.5q11 0 14 -2.5t5 -13.5q0 -6 0.5 -12t0.5 -12q0 -8 1.5 -16.5t-2.5 -11.5q-7 -6 -16 -9t-18 -5
q-20 -5 -39 -8.5t-39 -7.5q-13 -3 -13 -17q3 -122 2.5 -242t3.5 -223q0 -16 14 -20q10 -2 19.5 -5t20.5 -4q26 -3 46 -16q13 -9 13 -22q-1 -4 -1 -11q-1 -15 -2.5 -23t-5 -12t-11.5 -5t-23 -1q-48 -1 -96 -0.5t-96 0.5q-66 0 -121.5 -2t-109.5 -2z" />
    <glyph glyph-name="uni0449" unicode="&#x449;" horiz-adv-x="1412" 
d="M653 583q0 8 -3 13t-11 9q-17 8 -34.5 14.5t-37.5 9.5q-14 2 -19.5 9.5t-6.5 20.5q-2 29 5 37t35 6q63 -2 119.5 -4t113.5 0q18 0 27 -0.5t13 -5t4.5 -14.5t0.5 -29q0 -8 -0.5 -16.5t-5.5 -14.5q-3 -4 -11.5 -2.5t-15.5 -0.5q-14 -3 -27.5 -6.5t-27.5 -6.5
q-11 -2 -14.5 -9t-4.5 -17q-2 -109 -3.5 -220.5t2.5 -218.5q0 -5 0.5 -10.5t0.5 -10.5q2 -12 13 -9q37 -2 84 -2.5t93.5 0t87 1.5t65.5 1q16 0 18.5 3t1.5 19q-2 16 -2 27.5t-1 28.5q0 105 -1 211.5t-1 196.5q-1 10 -15 12q-12 2 -24.5 3t-24.5 3l-36 -1q0 -1 -4 0.5t-5 3.5
q-5 17 -7.5 35t0.5 35q2 5 6.5 9.5t9.5 6.5q15 5 29 2q68 -3 130 -2.5t128 -8.5q16 -2 25.5 -2t13.5 -3.5t4 -13t-1 -29.5q-2 -15 -5 -18.5t-17 -7.5q-18 -5 -36 -9t-36 -7q-19 -4 -23.5 -8.5t-2.5 -24.5q-2 -109 2 -221t4 -213v-18.5t3 -9.5t10 -3h20h91q17 0 18 -14
q1 -7 2 -13.5t1 -13.5q0 -26 -1 -52.5t0 -53.5q0 -23 1 -47t2 -47t-8.5 -30.5t-31.5 -5.5q-14 2 -21 3.5t-11.5 5t-7 10.5t-5.5 20q-2 5 -3 10t-1 10q0 27 -8.5 52t-16.5 50q-5 14 -21 14q-18 1 -36.5 1.5t-36.5 -0.5l-932 -7q-51 -6 -82.5 -6.5t-49 2t-24 7.5t-7.5 11
q-2 17 0 35q1 12 4 15t15 6q24 6 48 12.5t49 13.5q14 5 16.5 8t2.5 19q0 26 -0.5 51.5t-1.5 51.5q0 56 -0.5 103.5t-1.5 89.5t-2.5 80t-3.5 75q-1 17 -4.5 21t-20.5 7q-44 7 -87 12q-14 1 -18 12q-7 14 -6 29t5 29q1 3 5 5.5t8 4.5q15 3 29 3q24 0 47.5 -1t47.5 -1
q12 1 23.5 2.5t23.5 2.5q11 1 23 1h23q25 -1 49 -1.5t48 -0.5q17 0 26 -10.5t5 -27.5q-1 -8 -1.5 -14.5t-0.5 -14.5q-1 -11 -3 -14t-13 -5q-17 -3 -35 -6t-35 -6q-17 -4 -21.5 -9t-4.5 -23q0 -82 0.5 -142t1 -103t0.5 -72.5t0.5 -49.5t1 -34t0.5 -26q0 -5 0.5 -10.5
t0.5 -10.5q1 -12 14 -12q14 -1 29 -1h30h254q15 1 15 17q-1 31 -1 66v66q-1 24 -1 48.5v48.5q-1 57 0 118.5t1 115.5z" />
    <glyph glyph-name="uni044A" unicode="&#x44a;" horiz-adv-x="899" 
d="M247 699q66 0 122 1.5t111 4.5q9 1 14.5 -4.5t5.5 -14.5q0 -6 -1 -9q-1 -9 -1 -19t-5 -18q-4 -5 -14 -5.5t-18 -2.5l-87 -27q-14 -4 -14 -19v-139q1 -11 3 -13t13 -2q36 1 72 2.5t72 0.5q44 -1 87 -3t87 -5q26 -2 48.5 -13.5t42.5 -26.5q14 -11 24.5 -25.5t18.5 -30.5
q11 -20 17 -36.5t8.5 -35t1 -41.5t-5.5 -55q-2 -11 -6 -21t-10 -20q-54 -78 -143 -103q-10 -3 -20 -4t-21 -2q-23 -2 -45.5 -5t-45.5 -1q-51 -2 -101.5 -3t-102.5 0h-186h-10t-10 1q-18 3 -18 20v6q-2 17 -2.5 26.5t3.5 14.5t12.5 8t25.5 8q33 7 66 18q14 5 17.5 10.5
t3.5 19.5q0 29 0.5 59t-0.5 59q-2 63 -1 134.5t-1 134.5v26.5t-2 26.5q-1 14 -4.5 17.5t-15.5 4.5q-26 0 -44 -0.5t-44 0.5q-23 0 -30 -23q-4 -13 -7 -25.5t-6 -25.5q-5 -19 -6.5 -29t-5 -14.5t-12 -5.5t-26.5 -1q-4 0 -8.5 -2t-6.5 0q-5 5 -8.5 11t-4.5 11q-5 59 -6 115
q-1 11 -0.5 21t0.5 21q0 4 -1 7.5t1 6.5q3 12 5 19t5 11t9.5 5t20.5 1q21 0 39.5 -0.5t39.5 -1t47.5 -1t63.5 -0.5v1zM634 114q18 0 39.5 5t40.5 18t32 35t14 57q-1 22 -5.5 40.5t-18 33t-37 24t-61.5 12.5q-36 1 -72 1.5t-72 0.5q-26 -1 -51.5 0t-51.5 -1q-5 0 -10.5 -1
t-10.5 -2q-11 -1 -11 -15v-14q2 -49 2 -92.5v-86.5q2 -12 5.5 -15t15.5 -3q67 1 129.5 1t122.5 2z" />
    <glyph glyph-name="uni044B" unicode="&#x44b;" horiz-adv-x="1233" 
d="M1139 691q26 1 31.5 -4t3.5 -31q-1 -5 -1 -10.5t-1 -10.5q-2 -5 -3 -9.5t-4 -8.5q-5 -6 -9.5 -2t-9.5 3q-20 -3 -39 -6t-39 -7q-3 0 -5 -3.5t-4 -6.5q-1 -2 -1 -6q-1 -112 -1.5 -212.5t-2.5 -200.5v-29.5t1 -29.5q1 -12 5.5 -16t15.5 -2q34 -11 52 -17t26.5 -11
t10.5 -10.5t2 -14.5q0 -15 -0.5 -23.5t-4.5 -12.5t-12 -5t-23 -1q-55 -1 -106.5 -1h-105.5l-24 -2t-24 -1q-12 -1 -16.5 3.5t-4.5 17.5v3q2 11 1 22.5t4 20.5q3 6 7.5 8t10 2t11.5 -0.5t11 1.5q10 4 20 5.5t20 4.5q8 2 12.5 3.5t6.5 4.5t2 7.5v12.5q0 48 -1 94.5t0 94.5
q0 64 0.5 127t1.5 127q0 6 -0.5 12t-0.5 12q1 17 -17 23q-17 7 -35.5 9t-36.5 4q-14 2 -18 5.5t-5 17.5q-2 15 0 32q1 11 4 14t14 4h65q12 0 41 -0.5t62.5 -0.5h64.5h48zM118 687q20 0 38.5 -0.5t38.5 0.5h57.5t57.5 1q14 0 28 2.5t28 0.5q20 -2 30.5 -3.5t15 -6.5t4 -15.5
t-1.5 -29.5q-1 -14 -5.5 -19t-18.5 -9t-27.5 -6t-27.5 -6q-18 -5 -26.5 -7.5t-11.5 -7.5t-3 -13.5v-24.5q-1 -20 -1 -39.5v-39.5q1 -14 4.5 -17.5t17.5 -2.5q36 0 66.5 -0.5t59 0t58 1t63.5 1.5q63 -6 116.5 -23t95.5 -65q8 -8 12.5 -17.5t9.5 -19.5q20 -45 14 -88t-23 -84
q-16 -40 -42 -68.5t-58.5 -46.5t-70 -25.5t-76.5 -5.5q-54 -3 -100.5 -2.5t-90 2.5l-87 4t-92.5 2q-15 0 -29.5 -1t-29.5 -2q-5 -1 -10.5 -1.5t-10.5 -0.5q-17 0 -20 18q-2 6 -2 12.5v13.5q0 15 2.5 17.5t17.5 6.5q20 4 40.5 9t40.5 10q11 2 16.5 8t5.5 18q-3 116 -3.5 231
t-0.5 229q0 9 -5 12.5t-13 5.5l-93 18q-11 2 -14.5 6.5t-2.5 15.5q1 8 1 16t1 16q2 10 5 14t14 5q9 1 18.5 0.5t19.5 -0.5v1zM573 116q71 -1 113 52q16 20 20.5 46.5t-3.5 51.5q-8 23 -23.5 37t-36.5 23q-14 5 -25 8q-8 2 -17 4t-17 2q-69 -3 -137.5 -3t-136.5 -2
q-17 -2 -16 -16q2 -48 0.5 -94.5t0.5 -94.5q1 -12 13 -12q71 -2 135.5 -1t129.5 -1z" />
    <glyph glyph-name="uni044C" unicode="&#x44c;" horiz-adv-x="851" 
d="M601 426q57 1 103.5 -23.5t74.5 -72.5q17 -28 24.5 -54t-0.5 -56q-7 -33 -19 -64t-31.5 -58t-48 -47t-68.5 -30q-57 -15 -121.5 -19.5t-131.5 -4.5t-134.5 1.5t-131.5 -0.5q-16 -1 -24.5 -0.5t-13 4t-6 12t-2.5 24.5q-1 5 -1.5 9t1.5 9q2 9 9 13q10 5 20 8t21 6l34 10
l34 10q10 2 11.5 8.5t0.5 14.5q-2 108 -2.5 219.5t-3.5 238.5q-2 17 -16 17q-20 1 -41.5 6.5t-42.5 1.5q-12 -3 -22 6.5t-11 22.5q-1 7 -1.5 13.5t-1.5 12.5q-1 16 5 23t21 8q78 5 155.5 3t159.5 -2q25 -1 31.5 -7.5t5.5 -30.5q0 -5 -0.5 -9t-1.5 -9q-3 -13 -17 -16
q-23 -5 -46 -10.5t-46 -10.5q-22 -6 -23 -26v-15.5t-0.5 -22.5t-0.5 -36.5v-58.5q0 -13 3 -15.5t16 -2.5h280zM607 125q51 16 72.5 53t7.5 89q-6 20 -16.5 31.5t-24 17.5t-29 8.5t-29.5 4.5q-50 10 -107 5.5t-123 -6.5q-7 0 -13.5 0.5t-13.5 -0.5q-17 -2 -21 -6t-4 -21
v-84.5t3 -92.5q1 -11 3.5 -13.5t13.5 -4.5h12q29 1 63.5 1t70.5 1.5t71 5t64 11.5z" />
    <glyph glyph-name="uni044D" unicode="&#x44d;" horiz-adv-x="922" 
d="M173 616q8 8 16 14.5t16 13.5q16 14 42.5 27t55 23.5t56.5 17.5t48 9q53 5 106 3q81 3 148 -29t115 -87t74 -127t25 -147q-2 -86 -33 -150.5t-86.5 -108t-134.5 -66.5t-176 -27q-49 -2 -89.5 5t-78 19t-74 29t-76.5 35l-21 12q-20 11 -30 27.5t-8 40.5q1 8 -0.5 17
t-1.5 18q0 14 15 14q21 1 39 -9q100 -62 210 -82.5t221 -8.5q42 6 80 23.5t67.5 44.5t47 63t17.5 80q0 11 -10 11q-14 1 -27 2t-26 0q-93 -2 -191 -2t-192 -8q-23 -2 -31.5 5t-9.5 30v24.5t1 25.5q2 14 16 14h11q116 2 221 2t210 5q6 0 9 1q11 1 8 14q-9 41 -37.5 73.5
t-66 55t-79 35t-75.5 13.5q-55 3 -107.5 -6t-103.5 -29q-34 -14 -60 -37t-46 -53q-4 -5 -7 -9.5t-10 -4.5q-14 -1 -28 -1.5t-28 -0.5t-18.5 4t-5.5 18q-2 43 -3 85.5t-3 86.5v11q2 20 7.5 26t24.5 6l22 2t18 -4q6 -5 7.5 -16t4.5 -21q3 -13 5 -26t10 -26z" />
    <glyph glyph-name="uni044E" unicode="&#x44e;" horiz-adv-x="1387" 
d="M235 692q46 -2 91.5 -3t91.5 -2q18 0 16 -16q0 -12 0.5 -19.5t-1 -12t-8 -7.5t-21.5 -8q-20 -8 -40.5 -13t-41.5 -11q-15 -5 -18 -8.5t-3 -18.5q0 -35 0.5 -69t1.5 -69q0 -5 2 -15q3 -15 18 -15q48 1 96 1t96 1q15 1 18 4t7 18q19 77 69.5 134t117 92.5t142 49t146.5 2.5
q8 -2 16 -2.5t16 -2.5q10 -2 19.5 -4.5t19.5 -5.5q129 -48 193.5 -133t60.5 -215q-3 -69 -27.5 -130.5t-66.5 -108.5t-99 -76.5t-124 -36.5q-19 -3 -37.5 -6t-38.5 -1q-81 11 -136 23.5t-96.5 34.5t-76.5 57t-76 91q-13 22 -17.5 45.5t-11.5 46.5q-5 19 -28 22
q-32 5 -64.5 4t-64.5 0q-14 1 -28 0t-28 -1q-17 0 -17 -16v-17q-1 -37 -1 -73t-1 -72v-9q1 -13 4 -17t16 -6q18 -3 35.5 -5.5t34.5 -5.5q4 -1 7.5 -0.5t7.5 -1.5q8 -3 18 -5.5t13 -8.5q5 -11 8.5 -23.5t-1.5 -26.5q-4 -16 -18 -16q-86 -1 -167 -1.5t-166 0.5q-17 0 -20 17
q-1 3 -1 6t-1 6q-1 13 0 21.5t4.5 13.5t11 8t20.5 6q21 4 42 7t42 8q14 3 16.5 6.5t2.5 17.5l-3 186q-1 17 -0.5 32.5t0.5 32.5q0 35 0.5 69.5t-0.5 69.5q-1 19 -3 38l-4 38q-1 9 -6 12t-12 5l-42 8l-42 8q-23 4 -34 23.5t-2 40.5q3 7 8 8.5t12 1.5q40 -1 77.5 -1.5
t75.5 -0.5zM955 98q10 0 19.5 0.5t18.5 0.5q26 0 52.5 6.5t51 18.5t45.5 28.5t36 37.5q31 42 43 85.5t11 94.5q-11 75 -49 126.5t-91.5 80t-116 33t-120.5 -15.5q-44 -14 -86 -37t-74 -54.5t-50 -71t-14 -87.5q-6 -60 24 -108t78.5 -80t108 -47.5t113.5 -10.5z" />
    <glyph glyph-name="uni044F" unicode="&#x44f;" horiz-adv-x="1005" 
d="M766 -4l-162 6q-11 1 -13.5 3t-4.5 13q-2 10 0 21q0 10 1 16.5t4 10t9 5.5t17 4l42 8t42 9q14 3 16.5 6.5t1.5 17.5q-1 32 -1.5 63.5t-1.5 63.5q-1 14 -3.5 16t-17.5 2q-35 1 -69.5 1t-69.5 1q-6 0 -17 -0.5t-23.5 -2t-24 -3.5t-16.5 -4q-29 -13 -53.5 -34.5t-47.5 -48
t-47 -56.5t-51 -59q-24 -32 -56 -46t-69 -17q-24 -2 -48.5 -1.5t-47.5 12.5q-2 2 -5.5 5t-2.5 5q5 12 1.5 23.5t-3.5 23.5q0 2 -0.5 4t-0.5 4q2 25 28 22q45 -6 83.5 7t71.5 43q28 26 54 52.5t52 53.5q8 8 6 15q-2 3 -6 5t-8 3q-26 4 -51 9.5t-49 15.5q-26 11 -53 32.5
t-37 47.5q-5 11 -9 22.5t-6 22.5q-16 55 0.5 102t52 83t84 58t96.5 27q73 6 145.5 6t144 -2t142 -5t140.5 -3q11 1 14.5 -1.5t3.5 -13.5q-2 -10 -2 -15v-17.5t-3 -10.5t-9 -6.5t-17 -5.5q-19 -5 -38.5 -8.5t-39.5 -8.5q-14 -3 -16.5 -5.5t-2.5 -16.5q1 -86 2 -175.5
t2 -175.5q1 -21 1 -42.5v-43.5v-16t2 -16q0 -4 3 -8t6 -4q23 -5 45.5 -12.5t46.5 -4.5q15 0 18 -12q1 -8 2.5 -16t2.5 -16q3 -35 -32 -36q-20 -1 -40 -1h-40q-17 -1 -34 -0.5t-34 0.5v-1zM444 597q-35 0 -70 -2t-69 -16q-48 -20 -68.5 -59.5t-6.5 -90.5q13 -33 44 -48
t61 -21q11 -2 20.5 -4.5t20.5 -3.5q80 -7 159 -3.5t159 9.5q14 2 18.5 5t3.5 19q-2 45 -2.5 97.5t-0.5 101.5q0 16 -16 17q-67 -3 -131 -1.5t-122 0.5z" />
    <glyph glyph-name="uni0451" unicode="&#x451;" horiz-adv-x="928" 
d="M866 43q0 -5 0.5 -10.5t0.5 -10.5q0 -16 -3.5 -18t-20.5 -2q-57 0 -113.5 -2t-116.5 0q-119 0 -236 0.5t-242 -6.5q-11 -1 -22 -1h-22t-14 3t-5 14q-1 4 -0.5 7.5t-0.5 7.5q-4 20 -1.5 25.5t19.5 13.5q18 8 41.5 16t42.5 16q5 2 12.5 2.5t8.5 6.5q2 23 3 54.5t1 66v69
t-0.5 64.5t-1.5 53t-1 33q-1 30 -2.5 65t-2.5 65q-1 20 -5.5 25t-23.5 7t-37.5 5.5t-36.5 10.5q-23 10 -26.5 25t1.5 36q2 6 7 7.5t10 1.5q187 0 362.5 1.5t351.5 -2.5h30q39 0 39 -38v-98q1 -13 1 -25t2 -25q4 -22 -15 -35q-15 -10 -35.5 -6t-28.5 20q-5 11 -9 27
q-5 17 -8 33.5t-8 32.5q-3 14 -6.5 16.5t-17.5 2.5q-91 3 -187.5 0.5t-190.5 -2.5q-13 0 -26 -1.5t-26 -2.5q-13 -2 -13 -13q-1 -11 -1 -21v-21q0 -31 0.5 -61.5t0.5 -61.5q0 -8 2.5 -11.5t10.5 -3.5q76 -2 154.5 -2t158.5 2q18 0 25 -6.5t9 -24.5q2 -8 3 -16t3 -16
q2 -11 -2 -18.5t-15 -9.5q-9 -3 -18.5 -4t-19.5 -2q-54 -2 -111.5 -3.5t-112.5 -2.5q-17 -1 -32 -0.5t-32 -0.5q-12 0 -15.5 -3.5t-3.5 -15.5q1 -40 0 -79.5t1 -79.5q1 -11 4 -13.5t15 -2.5q19 1 38 2.5t38 1.5q38 2 78.5 2.5t78.5 1.5q48 2 96 2.5t99 2.5q12 0 15.5 2.5
t6.5 15.5q4 16 6.5 31.5t6.5 31.5q5 20 12 25t27 5h17t17 -4q10 -5 6 -15t-3 -18q3 -36 5 -72zM367 773q-60 -3 -81 46q-11 21 -4 39.5t29 28.5q9 5 18.5 8.5t19.5 7.5q3 1 7 2t7 0q19 -5 36 -13.5t27 -25.5q11 -17 9 -35.5t-16 -35.5q-8 -11 -23 -16q-8 -3 -16 -4t-13 -2z
M700 785q-17 -11 -33.5 -14t-31.5 0.5t-28.5 13t-22.5 22.5q-11 15 -4 33q16 36 54 45q17 3 31.5 0.5t29.5 -7.5q16 -6 23.5 -17t7.5 -22q-1 -38 -26 -54z" />
    <glyph glyph-name="endash" unicode="&#x2013;" horiz-adv-x="678" 
d="M340 295q58 2 115 3.5t115 3.5q6 1 12 0t11 -3q8 -3 10 -13q4 -13 4 -32q0 -12 -0.5 -18t-4 -9t-10 -3.5t-18.5 -0.5q-42 -1 -84 -3t-84 -2q-49 -1 -97.5 0.5t-97.5 1.5q-20 0 -39.5 -1.5t-39.5 -2.5q-5 0 -9 -1t-9 0q-19 2 -26 8t-12 25q-6 30 1 38.5t38 8.5h225z" />
    <glyph glyph-name="emdash" unicode="&#x2014;" horiz-adv-x="785" 
d="M441 312q42 1 84 -0.5t84 -1.5q14 0 28 0.5t28 0.5q8 -1 15 -2t14 -3q18 -5 18 -24q0 -8 1 -15t1 -15q-1 -13 -9.5 -20t-21.5 -7q-22 0 -44 -1t-44 0q-35 0 -68.5 0.5t-67.5 1.5t-67 1t-66 1q-32 1 -65 1h-65q-10 0 -25.5 -0.5t-31.5 -0.5h-28h-15q-22 0 -23 21
q-2 15 0 32q1 14 6 19t19 6h57.5t57.5 1q1 0 26.5 0.5t61 1.5t74.5 2t66 1z" />
    <glyph glyph-name="quoteleft" unicode="&#x2018;" horiz-adv-x="315" 
d="M161 495q-24 0 -43 6.5t-36 13.5q-5 2 -9.5 8t-7.5 12q-11 26 -8.5 52.5t13.5 52.5q14 35 36 61q34 39 86 37q12 0 15.5 -7t-3.5 -17q-8 -10 -20.5 -15t-20.5 -14q-9 -11 -15.5 -26.5t-6.5 -29.5q0 -7 4.5 -9.5t12 -3t17 -0.5t18.5 -2q19 -6 28 -16.5t10.5 -23.5
t-2.5 -27t-11 -27q-5 -10 -14 -15t-19 -7q-8 -2 -14.5 -2.5t-9.5 -0.5z" />
    <glyph glyph-name="quoteright" unicode="&#x2019;" horiz-adv-x="302" 
d="M168 599q-11 3 -17.5 4.5t-13.5 3.5q-44 11 -53 53q-5 23 5 39.5t27 29.5t36.5 16t39.5 -2q28 -6 39 -34q13 -29 14.5 -60t-7.5 -59t-28.5 -51.5t-47.5 -37.5q-28 -12 -43 12q-3 5 -1 8.5t5 6.5q7 9 14 17.5t13 17.5q5 8 9 17t9 19z" />
    <glyph glyph-name="quotedblleft" unicode="&#x201c;" horiz-adv-x="517" 
d="M195 603q35 -18 32 -58q-3 -37 -44 -48q-27 -8 -51.5 -1.5t-49.5 16.5q-4 2 -7.5 6t-5.5 9q-7 12 -10 27q-5 18 -1 45t15 53t29.5 47t42.5 29q8 3 13.5 4.5t10.5 1.5t12.5 -2t19.5 -6q-11 -4 -23.5 -12t-22.5 -21t-15 -31t-2 -41q4 -2 12 -4t16.5 -4.5t16 -5t12.5 -4.5z
M399 606q37 -17 35 -57q-1 -20 -10.5 -31.5t-30.5 -18.5q-27 -9 -52 -3.5t-50 14.5q-8 3 -14 14q-4 6 -7 13t-5 14q-6 18 -3 44.5t13 53.5t27.5 49t41.5 31q8 3 13 4.5t10.5 1.5t12.5 -1.5t19 -4.5q-11 -5 -23 -13.5t-21 -22t-13 -31.5t0 -41q4 -2 12 -4t16.5 -3.5t16 -3.5
t12.5 -4z" />
    <glyph glyph-name="quotedblright" unicode="&#x201d;" horiz-adv-x="524" 
d="M327 614q-34 21 -29 60q3 20 14 30.5t33 15.5q27 6 51.5 -2t48.5 -19q4 -2 7.5 -6.5t5.5 -9.5q3 -7 4.5 -13.5t3.5 -14.5q4 -18 -1.5 -44.5t-18.5 -52t-32.5 -45.5t-43.5 -26q-9 -2 -14 -3.5t-10.5 -1t-12 2.5t-18.5 7q11 3 24 10.5t23.5 20t16.5 30t4 41.5
q-4 2 -11.5 4.5t-16 5t-16.5 5t-12 5.5zM118 608q-37 17 -35 57q1 20 10.5 31.5t30.5 18.5q27 9 52 4t50 -14q8 -3 14 -14q7 -14 12 -27q6 -18 3 -45t-13 -53.5t-27 -48.5t-41 -31q-8 -3 -13.5 -5t-10.5 -2t-12.5 1.5t-19.5 4.5q11 4 23 13t21 22.5t13 32t0 41.5
q-4 1 -11.5 3t-16 3.5t-16.5 3.5t-13 4z" />
    <glyph glyph-name="uni20BD" unicode="&#x20bd;" horiz-adv-x="964" 
d="M732 246q8 0 11 -3t5 -11q3 -11 4.5 -17t-0.5 -18q-2 -11 -6 -14t-16 -2q-7 0 -35 0.5t-68 0.5h-85.5h-87.5h-74h-45h-10.5t-10.5 -2q-3 -1 -6 -4t-3 -5q-1 -18 -0.5 -37.5t1.5 -37.5q0 -8 5 -10t11 -3q16 -2 31.5 -4t30.5 -4q12 -2 18.5 -4.5t10 -7t5 -12t4.5 -19.5
q5 -22 1 -27.5t-27 -5.5h-46.5t-58 0.5t-61.5 0.5t-57 0.5t-45 0.5h-24q-20 0 -25 0.5t-12 14.5q-2 6 -2 16.5t2 20.5q-2 11 2 15t15 5q23 2 45.5 4t45.5 5q14 2 17.5 5.5t3.5 18.5q1 28 0 57q-1 12 -4.5 16t-17.5 4q-6 0 -17.5 -0.5t-24.5 -1t-24.5 -1t-15.5 -0.5
q-21 1 -27 24q0 13 -1 20.5t0.5 11t8 4.5t20.5 1q20 0 38.5 0.5t38.5 0.5q18 1 21 4t4 21q-1 85 3 155t0 137q-2 15 -5 18t-18 5q-20 2 -45.5 11t-45.5 11q-11 -2 -17.5 5t-7.5 18v3q0 18 0.5 27.5t5 14.5t14 6.5t27.5 1.5q9 1 18 0.5t18 -1.5q18 -2 62.5 -2.5t102 -0.5
h120.5h117.5h93.5h48q44 0 88 -10.5t79 -33t57 -58t22 -86.5q0 -39 -14.5 -68.5t-36.5 -50.5t-49 -34.5t-52 -21.5t-45 -11t-29 -3q-11 0 -33 0.5t-49.5 0.5h-57.5t-56.5 -0.5t-47 -0.5h-27.5q-31 0 -61 -1t-60 -3q-17 0 -16 -16v-15q1 -11 4 -14t14 -4h29h70.5h93.5h97
h80.5h45.5zM714 396q23 2 48 12t44 26q14 13 20 30.5t3 35t-14 33t-30 23.5q-14 6 -34 9.5t-34 5.5q-4 0 -32 0.5t-67.5 1t-86 0.5h-87.5t-71.5 -0.5t-38.5 -1.5q-14 -1 -21.5 -2.5t-11.5 -5.5t-4.5 -12t-0.5 -22q0 -27 1.5 -53.5t-0.5 -53.5q0 -11 1 -17t4.5 -8t9 -2.5
t13.5 -0.5h27h65.5t87 -0.5t90.5 0t75.5 1t43.5 1.5z" />
    </font>
</defs>
</svg>
