<?xml version="1.0" standalone="no"?>
<!DOCTYPE svg PUBLIC "-//W3C//DTD SVG 1.1//EN" "http://www.w3.org/Graphics/SVG/1.1/DTD/svg11.dtd" >
<svg xmlns="http://www.w3.org/2000/svg" xmlns:xlink="http://www.w3.org/1999/xlink" version="1.1">
<metadata>
Created by FontForge 20170731 at Mon Oct 17 14:28:54 2022
 By Aleksey,,,
Copyright (c) 2017 by Svet Simov. All rights reserved.
</metadata>
<defs>
<font id="Colus-Regular" horiz-adv-x="1228" >
  <font-face 
    font-family="Colus"
    font-weight="400"
    font-stretch="normal"
    units-per-em="2048"
    panose-1="0 0 5 0 0 0 0 0 0 0"
    ascent="1638"
    descent="-410"
    x-height="1423"
    cap-height="1423"
    bbox="-983 -555 2351 2247"
    underline-thickness="102"
    underline-position="-307"
    unicode-range="U+0020-25CA"
  />
<missing-glyph horiz-adv-x="1024" 
d="M840 1638v-2048h-650v2048h650zM682 1501h-338v-67h133v-76h-135v-68h340v68h-135v76h135v67zM547 1237h-205v-213h340v70h-135v143zM477 1167v-73h-67v73h67zM682 969h-340v-68h135v-76h-135v-67h205v143h135v68zM682 846h-68v-135h-272v-70h340v205zM682 596h-205v-115
h70v47h67v-96h-204v164h-68v-231h340v231zM682 242h-340v-232h340v232zM614 174v-96h-204v96h204zM682 -37h-340v-67h143l-143 -97v-67h340v67h-209l143 97h66v67z" />
    <glyph glyph-name=".notdef" horiz-adv-x="1024" 
d="M840 1638v-2048h-650v2048h650zM682 1501h-338v-67h133v-76h-135v-68h340v68h-135v76h135v67zM547 1237h-205v-213h340v70h-135v143zM477 1167v-73h-67v73h67zM682 969h-340v-68h135v-76h-135v-67h205v143h135v68zM682 846h-68v-135h-272v-70h340v205zM682 596h-205v-115
h70v47h67v-96h-204v164h-68v-231h340v231zM682 242h-340v-232h340v232zM614 174v-96h-204v96h204zM682 -37h-340v-67h143l-143 -97v-67h340v67h-209l143 97h66v67z" />
    <glyph glyph-name=".null" horiz-adv-x="0" 
 />
    <glyph glyph-name="nonmarkingreturn" horiz-adv-x="682" 
 />
    <glyph glyph-name="space" unicode=" " horiz-adv-x="512" 
 />
    <glyph glyph-name="exclam" unicode="!" horiz-adv-x="552" 
d="M129 420v4q31 115 23 299l-29 543q-9 171 -64 293v4h426v-4q-54 -114 -63 -293l-31 -543q-8 -185 25 -299v-4h-287zM274 -20q-76 0 -129 52.5t-53 127.5t53.5 127.5t128.5 52.5t127 -52t52 -128q0 -75 -52 -127.5t-127 -52.5z" />
    <glyph glyph-name="quotedbl" unicode="&#x22;" horiz-adv-x="675" 
d="M63 975q3 58 -2 131l-18 244q-6 75 -16 112h249q-10 -37 -16 -112l-16 -244q-6 -91 -2 -131h-179zM436 975q3 58 -2 131l-18 244q-6 70 -17 112h250q-10 -37 -16 -112l-17 -244q-6 -91 -2 -131h-178z" />
    <glyph glyph-name="numbersign" unicode="#" horiz-adv-x="1558" 
d="M1473 856h-279l-66 -270h58q83 0 154 19t106 52l4 -2l-80 -266h-291l-32 -131q-47 -194 -23 -254l-4 -4h-338l-2 4q29 26 64.5 96.5t58.5 163.5l31 125h-289l-33 -131q-49 -189 -23 -254l-4 -4h-342l-2 4q32 25 68 95.5t59 164.5l31 125h-43q-164 0 -246 -86l-4 2l66 281
h274l68 270h-56q-163 0 -245 -86l-4 2l65 281h287l31 125q48 192 -7 241l2 4h359l2 -4q-64 -69 -109 -241l-30 -125h286l31 125q48 191 -2 241l2 4h354l2 -4q-37 -40 -61 -97t-47 -144l-31 -125h45q80 0 152 22.5t108 57.5l4 -3zM881 586l67 270h-289l-65 -270h287z" />
    <glyph glyph-name="dollar" unicode="$" horiz-adv-x="1056" 
d="M1022 393q0 -160 -108 -279.5t-283 -146.5v-10q0 -118 26 -160l-2 -4h-266l-2 4q31 45 31 160v8q-171 12 -309 72l-35 328l4 2q131 -197 442 -197q230 0 230 203q0 51 -22.5 91t-61 67t-88.5 49.5t-105 43.5t-110 45t-105 58t-88.5 77.5t-61 109t-22.5 147.5
q0 135 94 242t254 143v29q0 120 -31 159l3 4h266l2 -4q-27 -44 -27 -159v-17q118 -6 252 -35l25 -315h-4q-118 139 -355 139q-104 0 -158.5 -44t-54.5 -122q0 -63 37 -108.5t96 -73.5t130.5 -54t143 -60t130.5 -80t96 -125.5t37 -186.5z" />
    <glyph glyph-name="percent" unicode="%" horiz-adv-x="1607" 
d="M365 770q-145 0 -246 100.5t-101 245.5t101 245.5t246 100.5t245.5 -100.5t100.5 -245.5t-100.5 -245.5t-245.5 -100.5zM279 0v4q83 68 149 199l502 1014q59 119 90 206h297v-4q-64 -56 -123 -174l-537 -1091q-48 -94 -65 -154h-313zM367 963q60 0 98.5 42t38.5 111
t-38.5 111.5t-98.5 42.5q-62 0 -102 -43t-40 -111q0 -69 41 -111t101 -42zM1243 -39q-145 0 -245.5 100.5t-100.5 245.5t100.5 245.5t245.5 100.5t245.5 -100.5t100.5 -245.5t-100.5 -245.5t-245.5 -100.5zM1245 162q60 0 98.5 41t38.5 104q0 65 -38.5 106.5t-98.5 41.5
q-61 0 -101 -41.5t-40 -106.5q0 -63 40 -104t101 -41z" />
    <glyph glyph-name="ampersand" unicode="&#x26;" horiz-adv-x="1400" 
d="M649 -39q-260 0 -411.5 117.5t-151.5 318.5q0 108 60.5 211t154.5 148v4q-79 42 -122.5 116.5t-43.5 161.5q0 188 146 302t378 114q186 0 371 -61l31 -306l-4 -2q-48 64 -147.5 110t-217.5 46q-121 0 -193.5 -51.5t-72.5 -130.5q0 -97 73 -150t195 -53l428 2
q79 0 149.5 23t108.5 61l4 -2l-43 -287h-137v-247q0 -205 -149 -325t-406 -120zM659 172q132 0 208.5 65t76.5 181v235h-242q-149 0 -236 -62.5t-87 -172.5q0 -116 75.5 -181t204.5 -65z" />
    <glyph glyph-name="quotesingle" unicode="'" horiz-adv-x="303" 
d="M63 975q3 58 -2 131l-18 244q-6 75 -16 112h249q-10 -37 -16 -112l-16 -244q-6 -91 -2 -131h-179z" />
    <glyph glyph-name="parenleft" unicode="(" horiz-adv-x="643" 
d="M322 -365q-145 263 -205 511.5t-60 531.5t60 531t205 511l301 -96v-4q-304 -206 -304 -942t304 -942v-4z" />
    <glyph glyph-name="parenright" unicode=")" horiz-adv-x="643" 
d="M322 1720q145 -263 204.5 -510.5t59.5 -531.5t-59.5 -532t-204.5 -511l-302 97v4q304 206 304 942t-304 942v4z" />
    <glyph glyph-name="asterisk" unicode="*" horiz-adv-x="874" 
d="M317 731l-2 4q30 42 27 139l-2 99l-78 -51q-85 -51 -104 -97h-4l-123 207l2 4q49 -3 135 47l80 47l-80 44q-91 50 -133 47l-4 4l123 207h4q19 -46 104 -97l78 -45l2 92q3 95 -27 140l2 4h240l2 -4q-18 -25 -29 -140l-8 -90l88 45q42 22 69.5 47.5t37.5 47.5h4l123 -207
l-2 -4q-37 2 -137 -45l-97 -46l97 -49q91 -48 135 -45l4 -4l-123 -207h-4q-18 43 -107 95l-88 51l8 -97q11 -114 29 -139l-2 -4h-240z" />
    <glyph glyph-name="plus" unicode="+" horiz-adv-x="974" 
d="M924 563h-306v-162q0 -85 7.5 -119.5t27.5 -62.5l-2 -4h-325l-4 4q20 28 27 62.5t7 119.5v162h-106q-89 0 -138 -11.5t-83 -39.5l-4 2l30 254h301v172q0 85 -7 119.5t-27 62.5l2 4h327l2 -4q-20 -28 -27.5 -62.5t-7.5 -119.5v-172h111q152 0 217 53l4 -2z" />
    <glyph glyph-name="comma" unicode="," horiz-adv-x="481" 
d="M231 330q88 0 138.5 -64t50.5 -166q0 -216 -182 -407l-150 67v4q43 37 73.5 93.5t39.5 113.5q-66 11 -109 61.5t-43 117.5q0 75 53.5 127.5t128.5 52.5z" />
    <glyph glyph-name="hyphen" unicode="-" horiz-adv-x="786" 
d="M10 543l-4 2l39 233h578q87 0 153 31l4 -2l-32 -236h-566q-115 0 -172 -28z" />
    <glyph glyph-name="period" unicode="." horiz-adv-x="487" 
d="M246 -20q-76 0 -129.5 52.5t-53.5 127.5t54 127.5t129 52.5t126.5 -52t51.5 -128q0 -75 -51.5 -127.5t-126.5 -52.5z" />
    <glyph glyph-name="slash" unicode="/" horiz-adv-x="724" 
d="M-53 -213l-2 4q35 29 75 117t70 209l281 1138q30 132 29 195t-25 109l2 4h401l2 -4q-55 -60 -84.5 -127.5t-56.5 -176.5l-283 -1146q-56 -229 -6 -318l-2 -4h-401z" />
    <glyph glyph-name="zero" unicode="0" horiz-adv-x="1421" 
d="M698 -39q-281 0 -430 187.5t-149 525.5q0 342 157 529.5t441 187.5q282 0 434 -175t152 -518q0 -351 -160 -544t-445 -193zM713 164q138 0 216.5 134.5t78.5 383.5q0 508 -306 508q-137 0 -212.5 -130t-75.5 -370q0 -260 72.5 -393t226.5 -133z" />
    <glyph glyph-name="one" unicode="1" horiz-adv-x="796" 
d="M586 305q0 -114 31.5 -192t72.5 -109l-2 -4h-475l-2 4q41 31 72.5 110t31.5 193v815q-79 -3 -136 -26t-113 -76l-5 2l76 340q66 -12 277 -12h274l2 -4q-41 -31 -72.5 -110.5t-31.5 -193.5v-737z" />
    <glyph glyph-name="two" unicode="2" horiz-adv-x="1069" 
d="M1006 362l4 -2l-66 -372q-101 12 -305 12h-621v6l381 486q138 175 190.5 267.5t53.5 178.5q1 114 -62.5 171.5t-162.5 57.5q-92 0 -170 -35.5t-146 -130.5l-4 3l60 313q160 65 338 65q194 0 313 -112.5t119 -292.5q0 -123 -56.5 -233t-228.5 -302l-190 -215h266
q89 0 154 30t133 105z" />
    <glyph glyph-name="three" unicode="3" horiz-adv-x="1110" 
d="M649 836q168 -36 265.5 -141.5t97.5 -260.5q0 -207 -146.5 -337t-371.5 -130q-210 0 -363 76l-39 285l4 2q55 -88 140.5 -124t236.5 -36q109 0 181.5 65.5t72.5 178.5q0 118 -86 174.5t-235 56.5q-72 0 -117 -4v4l286 477h-198q-100 0 -165.5 -23t-111.5 -77l-4 2l72 338
q103 -12 301 -12h485v-4z" />
    <glyph glyph-name="four" unicode="4" horiz-adv-x="1138" 
d="M1083 305q-85 9 -172 12v-12q0 -114 32 -192t73 -109v-4h-451v4q41 31 73 110t32 193v10h-654v5l258 800q43 130 33 228h385v-4q-53 -45 -94.5 -123.5t-97.5 -227.5l-172 -475l342 -2v219q0 71 -10.5 136t-28.5 90l2 4l330 82l2 -5q-54 -57 -54 -227v-299q71 3 122.5 25
t90.5 73l4 -2z" />
    <glyph glyph-name="five" unicode="5" horiz-adv-x="1103" 
d="M481 856q253 0 396 -106t143 -316t-153.5 -338.5t-389.5 -128.5q-92 0 -184 20t-160 54l-39 287l4 2q91 -160 355 -160q131 0 206.5 66.5t75.5 177.5q0 117 -94.5 177t-241.5 60q-155 0 -258 -20l-4 2l51 719l402 -2q162 0 303 12l57 -358l-4 -3q-51 66 -118.5 92.5
t-184.5 26.5h-252l-18 -272q52 8 108 8z" />
    <glyph glyph-name="six" unicode="6" horiz-adv-x="1261" 
d="M643 -33q-243 0 -383.5 173.5t-140.5 506.5q0 347 165.5 541t450.5 194q152 0 281 -30l28 -285l-4 -2q-90 115 -305 115q-140 0 -244.5 -112t-119.5 -298l4 -2q65 74 140.5 107.5t176.5 33.5q92 0 176 -29t150 -83.5t105.5 -142t39.5 -195.5q0 -99 -35 -187.5
t-99.5 -156.5t-164 -108t-221.5 -40zM651 168q104 0 167 71.5t63 200.5q0 123 -63.5 195t-166.5 72q-101 0 -165 -72t-64 -195q0 -129 63 -200.5t166 -71.5z" />
    <glyph glyph-name="seven" unicode="7" horiz-adv-x="1046" 
d="M1008 1346l-367 -1061q-65 -191 16 -281v-4h-444v4q53 63 89 123t71 152l323 823h-370q-106 0 -173 -30.5t-110 -92.5l-4 2l63 381q98 -12 289 -12h617v-4z" />
    <glyph glyph-name="eight" unicode="8" horiz-adv-x="1193" 
d="M928 715q178 -94 178 -330q0 -193 -142 -305.5t-368 -112.5q-228 0 -370 110t-142 288q0 96 48 174.5t140 132.5q-149 105 -149 293q0 204 132 310.5t351 106.5q210 0 333.5 -108t123.5 -268q0 -174 -135 -291zM586 1180q-87 0 -141 -44t-54 -118q0 -33 9 -58.5t28.5 -45
t39.5 -33t55 -26t61 -20t70 -19.5t71 -21q37 41 59.5 93.5t22.5 96.5q0 86 -61 140.5t-160 54.5zM616 170q97 0 157.5 47.5t60.5 126.5q0 28 -9 51.5t-20.5 41t-36.5 33.5t-43.5 26t-55.5 22.5t-58.5 18.5t-67 18t-66.5 18q-117 -65 -117 -188q0 -95 72.5 -155t183.5 -60z
" />
    <glyph glyph-name="nine" unicode="9" horiz-adv-x="1247" 
d="M512 -29q-148 0 -281 31l-28 285l4 2q90 -115 305 -115q140 0 245 112t120 298l-5 2q-65 -74 -140.5 -108t-176.5 -34q-92 0 -176 29t-150 83.5t-105.5 142.5t-39.5 196q0 99 35 187.5t99.5 156.5t164 107.5t221.5 39.5q243 0 383.5 -173t140.5 -506
q0 -347 -165.5 -541.5t-450.5 -194.5zM594 647q96 0 163.5 75t67.5 191q0 123 -67 198t-164 75q-92 0 -159.5 -76t-67.5 -197q0 -115 68 -190.5t159 -75.5z" />
    <glyph glyph-name="colon" unicode=":" horiz-adv-x="475" 
d="M240 717q-76 0 -129.5 52.5t-53.5 127.5t54 127.5t129 52.5t126.5 -52t51.5 -128q0 -75 -51.5 -127.5t-126.5 -52.5zM240 -20q-76 0 -129.5 52.5t-53.5 127.5t54 127.5t129 52.5t126.5 -52t51.5 -128q0 -75 -51.5 -127.5t-126.5 -52.5z" />
    <glyph glyph-name="semicolon" unicode=";" horiz-adv-x="516" 
d="M250 698q-76 0 -129 53t-53 128t53.5 127.5t128.5 52.5t126.5 -52t51.5 -128q0 -75 -51.5 -128t-126.5 -53zM246 330q87 0 137.5 -64t50.5 -166q0 -216 -182 -407l-150 67v4q43 37 73.5 93.5t39.5 113.5q-66 11 -109 61.5t-43 117.5q0 75 54 127.5t129 52.5z" />
    <glyph glyph-name="less" unicode="&#x3c;" horiz-adv-x="778" 
d="M707 393l4 -4l-37 -315l-4 -2q-47 61 -127 106l-561 316v155l563 328q86 50 131 100l4 -2l27 -291l-5 -4q-35 3 -58.5 -3t-57.5 -27l-291 -168l297 -154q4 -2 13.5 -7t12.5 -6.5t10.5 -5.5t11 -5.5t10 -4t10.5 -3t10 -2t11.5 -2t12 -0.5t13.5 1z" />
    <glyph glyph-name="equal" unicode="=" horiz-adv-x="999" 
d="M43 662l-4 2l29 239h673q152 0 217 53l5 -2l-27 -252h-674q-155 0 -219 -40zM41 326l-4 2l31 256h673q142 0 215 41l5 -2l-25 -246h-674q-89 0 -138 -11.5t-83 -39.5z" />
    <glyph glyph-name="greater" unicode="&#x3e;" horiz-adv-x="811" 
d="M236 963l561 -316v-155l-564 -328q-84 -49 -131 -101l-4 3l-26 290l4 4q34 -3 58 3.5t59 27.5l290 168l-297 154q-4 2 -16.5 9t-14.5 7.5t-13.5 6.5t-12.5 5.5t-12.5 4t-13.5 2.5t-14.5 0.5t-16.5 -0.5l-4 4l36 315l5 2q47 -61 127 -106z" />
    <glyph glyph-name="question" unicode="?" horiz-adv-x="931" 
d="M360 410l-59 323q330 206 330 406q0 227 -228 227q-118 0 -198.5 -39.5t-151.5 -130.5l-4 2l49 291q161 88 351 88q198 0 326 -114.5t128 -291.5q0 -44 -8.5 -85.5t-19.5 -74t-34.5 -69.5t-40.5 -60t-51.5 -58.5t-53 -53.5t-58.5 -55q-4 -3 -28.5 -26t-30.5 -28
t-28.5 -26.5t-30 -29.5t-27.5 -28t-29.5 -31.5t-25.5 -30.5t-26.5 -34t-23 -34t-22.5 -37h-5zM432 -20q-76 0 -129 52.5t-53 127.5t53.5 127.5t128.5 52.5t126.5 -52t51.5 -128q0 -75 -51.5 -127.5t-126.5 -52.5z" />
    <glyph glyph-name="at" unicode="@" horiz-adv-x="1654" 
d="M838 -37q-166 0 -307.5 59t-237 160.5t-149.5 238.5t-54 292q0 154 54 290.5t149.5 237.5t237 160t307.5 59q329 0 528 -185.5t199 -494.5q0 -64 -12 -126t-39 -120t-66 -101.5t-97 -70t-128 -26.5q-99 0 -156.5 29t-89.5 88q-92 -123 -242 -123q-117 0 -193.5 82.5
t-76.5 230.5q0 191 101 321t261 130q110 0 168 -64l9 64h180v-4q-24 -19 -33 -72q-6 -39 -25 -197t-22 -192q-6 -60 23.5 -100t89.5 -40q55 0 94 39.5t56 97.5t17 126q0 250 -140 390t-406 140q-122 0 -226.5 -47t-174.5 -126t-109 -182t-39 -214q0 -254 149.5 -411
t399.5 -157q87 0 164 29t104 86h4l100 -197q-64 -41 -174 -70.5t-198 -29.5zM782 498q83 0 135 82t52 194q0 75 -36 116.5t-99 41.5q-60 0 -105.5 -45t-66.5 -104.5t-21 -118.5q0 -88 33 -127t108 -39z" />
    <glyph glyph-name="A" unicode="A" horiz-adv-x="1384" 
d="M1221 336q39 -111 96 -202t104 -130v-4h-463v4q29 23 32 83.5t-32 168.5l-18 49h-528l-19 -49q-25 -66 -30.5 -121t2.5 -85.5t24 -45.5v-4h-430v4q47 42 104 132.5t95 199.5l293 844q21 59 17 108.5t-18 81t-36 49.5v4h542v-4q-22 -20 -36 -51t-18 -80.5t18 -107.5z
M670 1151q-8 -73 -29.5 -157.5t-36.5 -129.5t-49 -141l-76 -217h393l-75 217q-3 7 -15.5 43.5t-16.5 47t-15 43.5t-15.5 48l-13.5 45t-14 50t-11 47.5t-10.5 52.5t-7.5 51h-8z" />
    <glyph glyph-name="B" unicode="B" horiz-adv-x="1314" 
d="M909 758q128 -15 219 -114.5t91 -223.5q0 -196 -133 -308t-347 -112h-622v4q49 37 85 114t36 201v787q0 119 -33.5 197.5t-87.5 115.5v4h565q232 0 347.5 -88t115.5 -270q0 -113 -71.5 -200t-164.5 -101v-6zM666 1223h-148v-369h148q91 0 140.5 50t49.5 147
q0 172 -190 172zM698 201q112 0 170 62t58 167q0 104 -58 164.5t-170 60.5h-180v-454h180z" />
    <glyph glyph-name="C" unicode="C" horiz-adv-x="1345" 
d="M811 -31q-163 0 -299 55.5t-228 153.5t-143 232.5t-51 291.5q0 345 209.5 547.5t560.5 202.5q188 0 361 -51l32 -354l-4 -3q-61 95 -164.5 144t-226.5 49q-216 0 -339.5 -138.5t-123.5 -375.5q0 -242 114 -389.5t322 -147.5q157 0 266 59t195 171l4 -2l-49 -367
q-219 -78 -436 -78z" />
    <glyph glyph-name="D" unicode="D" horiz-adv-x="1517" 
d="M121 0v4q44 30 77 108.5t33 194.5v809q0 107 -33.5 190.5t-76.5 112.5v4h594q326 0 519 -189.5t193 -520.5q0 -343 -186 -528t-559 -185h-561zM512 203h190q205 0 313.5 131t108.5 379q0 259 -106 383.5t-326 124.5h-180v-1018z" />
    <glyph glyph-name="E" unicode="E" 
d="M1147 393l4 -2l-57 -407q-101 16 -250 16h-723v4q44 30 77 108.5t33 194.5v809q0 118 -32.5 195.5t-77.5 107.5v4h735q140 0 217 17l35 -367l-4 -2q-74 152 -322 152h-270v-361h156q204 0 319 15l-59 -345h-4q-49 130 -224 130h-188v-461h223q135 0 240.5 49t171.5 143z
" />
    <glyph glyph-name="F" unicode="F" horiz-adv-x="1179" 
d="M1073 1440l37 -383l-4 -2q-100 164 -365 164h-229v-381h180q226 0 307 16l-65 -369h-4q-20 65 -83 106.5t-140 41.5h-195v-326q0 -118 32.5 -195.5t78.5 -107.5v-4h-502v4q44 30 77 108.5t33 194.5v809q0 138 -29 206t-79 97v4h686q168 0 264 17z" />
    <glyph glyph-name="G" unicode="G" horiz-adv-x="1437" 
d="M1030 762h356v-4q-35 -23 -51 -94t-16 -209v-338q-103 -66 -244 -107t-264 -41q-320 0 -520.5 201.5t-200.5 521.5q0 352 208.5 556t553.5 204q216 0 389 -55l31 -334l-4 -2q-156 176 -422 176q-214 0 -333.5 -140.5t-119.5 -383.5q0 -245 117 -386t321 -141
q130 0 226 45v334q-208 -4 -305 -106l-4 2l32 313q68 -12 250 -12z" />
    <glyph glyph-name="H" unicode="H" horiz-adv-x="1568" 
d="M1448 1419q-44 -31 -77.5 -109t-33.5 -194v-817q0 -112 33 -188.5t78 -106.5v-4h-496v4q41 31 73 108t32 187v358h-545v-350q0 -117 31 -195t73 -108v-4h-495v4q44 30 77 108.5t33 194.5v809q0 118 -32.5 195.5t-77.5 107.5v4h495v-4q-41 -31 -72.5 -109.5t-31.5 -193.5
v-254h545v254q0 117 -31 195t-74 108v4h496v-4z" />
    <glyph glyph-name="I" unicode="I" horiz-adv-x="745" 
d="M121 0v4q44 30 77 108.5t33 194.5v809q0 118 -32.5 195.5t-77.5 107.5v4h504v-4q-44 -31 -77.5 -109t-33.5 -194v-809q0 -118 32.5 -195.5t78.5 -107.5v-4h-504z" />
    <glyph glyph-name="J" unicode="J" horiz-adv-x="919" 
d="M238 -45q-84 0 -205 31l-21 317h4q8 -15 21.5 -32t38.5 -40t64 -38t85 -15q114 0 172 59t58 171v706q0 119 -32.5 197t-78.5 108v4h502v-4q-44 -31 -77.5 -109t-33.5 -194v-635q0 -273 -118.5 -399.5t-378.5 -126.5z" />
    <glyph glyph-name="K" unicode="K" horiz-adv-x="1392" 
d="M512 305q0 -116 29.5 -193.5t70.5 -107.5v-4h-491v4q44 30 77 108.5t33 194.5v817q0 112 -32.5 188.5t-77.5 106.5v4h491v-4q-40 -30 -70 -108.5t-30 -194.5v-811zM1233 231q54 -78 104 -122t123 -74v-4l-411 -70q-18 72 -101 195l-413 614l346 490q70 102 67 163h426v-4
q-115 -55 -241 -227l-289 -391z" />
    <glyph glyph-name="L" unicode="L" horiz-adv-x="1134" 
d="M1075 -16q-89 16 -227 16h-727v4q44 30 77 108.5t33 194.5v817q0 112 -32.5 188.5t-77.5 106.5v4h502v-4q-44 -31 -77.5 -109t-33.5 -194v-911h203q277 0 409 184l4 -2z" />
    <glyph glyph-name="M" unicode="M" horiz-adv-x="1961" 
d="M68 0l-2 4q54 59 84.5 127.5t37.5 169.5l54 795q7 97 -20 191t-91 132l2 4h469q-43 -54 33 -186l203 -348q103 -181 127 -338h8q21 85 55 157t96 181l201 354q73 128 31 180h473l2 -4q-64 -36 -95 -132t-24 -191l64 -795q7 -81 37.5 -163t82.5 -134l-2 -4h-469l-2 4
q33 30 54 97t14 157l-33 424q-12 149 12 352h-8q-55 -176 -157 -348l-228 -385q-86 -143 -96 -248h-16q-15 105 -103 246l-244 389q-94 150 -147 346h-8q19 -187 12 -352l-22 -424q-4 -91 15.5 -158t51.5 -96l-2 -4h-450z" />
    <glyph glyph-name="N" unicode="N" horiz-adv-x="1617" 
d="M121 0v4q44 30 77 108.5t33 194.5v819q0 91 -28 174t-82 119v4h465q3 -35 20 -76t64 -120l295 -496q89 -149 188 -405h8q-33 187 -33 422v368q0 119 -30 196.5t-74 106.5v4h473v-4q-45 -30 -78 -108.5t-33 -194.5v-809q0 -116 33 -194.5t78 -108.5v-4h-432
q-39 94 -102 195l-289 469q-73 117 -120 220.5t-93 245.5h-8q36 -213 36 -475v-348q0 -119 30.5 -196.5t74.5 -106.5v-4h-473z" />
    <glyph glyph-name="O" unicode="O" horiz-adv-x="1671" 
d="M819 -41q-224 0 -391 97.5t-252.5 264t-85.5 377.5q0 230 90.5 402.5t263.5 268t406 95.5q328 0 529.5 -203.5t201.5 -533.5q0 -226 -94.5 -400.5t-268 -271t-399.5 -96.5zM840 172q192 0 314 146t122 389q0 258 -118.5 401t-328.5 143q-201 0 -317.5 -145.5
t-116.5 -386.5q0 -257 114.5 -402t330.5 -145z" />
    <glyph glyph-name="P" unicode="P" horiz-adv-x="1257" 
d="M680 1423q245 0 380.5 -120.5t135.5 -341.5q0 -246 -133.5 -369t-382.5 -123h-168v-170q0 -112 33 -188.5t78 -106.5v-4h-502v4q44 30 77 108.5t33 194.5v817q0 112 -32.5 188.5t-77.5 106.5v4h559zM633 672q272 -3 272 274q0 141 -66.5 208t-205.5 67h-121v-547z" />
    <glyph glyph-name="Q" unicode="Q" horiz-adv-x="1671" 
d="M1282 84q69 -101 129.5 -153t159.5 -87v-4l-420 -65q-17 62 -28.5 88t-45.5 80l-28 45q-113 -29 -230 -29q-224 0 -391 97.5t-252.5 264t-85.5 377.5q0 230 90.5 402.5t263.5 268t406 95.5q328 0 529.5 -203.5t201.5 -533.5q0 -207 -79.5 -370.5t-225.5 -264.5zM840 172
q42 0 90 10l-90 148q-75 122 -178 184v4l344 25q12 -67 59 -137l72 -107q139 152 139 408q0 257 -118.5 400.5t-328.5 143.5q-200 0 -317 -146t-117 -386q0 -255 114.5 -401t330.5 -146z" />
    <glyph glyph-name="R" unicode="R" horiz-adv-x="1353" 
d="M1133 276q118 -189 266 -239v-4l-420 -76q-39 116 -105 227l-317 543h98q136 0 205.5 60.5t69.5 193.5q0 114 -72 178.5t-203 63.5l-143 -2v-922q0 -111 31 -187.5t71 -107.5v-4h-493v4q45 30 77.5 108t32.5 195v817q0 112 -32.5 188.5t-77.5 106.5v4h581
q244 0 381.5 -115.5t137.5 -316.5q0 -159 -73 -261t-206 -144z" />
    <glyph glyph-name="S" unicode="S" horiz-adv-x="1122" 
d="M547 -31q-271 -3 -414 82l-35 344l4 2q90 -117 192.5 -167.5t231.5 -47.5q238 6 238 185q0 41 -15.5 75.5t-36 57t-61 46.5t-69 37t-82.5 35q-39 16 -60.5 25.5t-58.5 27.5t-58.5 31.5t-52.5 36.5t-49 44.5t-39 52t-32.5 63t-19 74.5t-7.5 88q0 161 132 275t359 114
q157 0 322 -43l27 -336h-5q-61 94 -142 131t-181 37q-236 0 -236 -158q0 -35 14.5 -64t33 -48.5t57.5 -41.5t64.5 -33.5t78.5 -33.5l2 -1q152 -63 220 -112q174 -123 178 -348v-12q0 -179 -130.5 -297t-369.5 -121z" />
    <glyph glyph-name="T" unicode="T" horiz-adv-x="1212" 
d="M1137 1440l34 -375l-4 -2q-38 66 -108 108.5t-158 42.5h-153v-890q0 -126 35 -209t89 -111v-4h-530v4q50 30 87.5 114.5t37.5 205.5v890h-156q-88 0 -158 -42.5t-108 -108.5l-4 2l35 375q133 -17 280 -17h500q148 0 281 17z" />
    <glyph glyph-name="U" unicode="U" horiz-adv-x="1523" 
d="M752 -35q-277 0 -422.5 155.5t-145.5 465.5v530q0 116 -33 194.5t-77 108.5v4h497v-4q-42 -31 -73 -108.5t-31 -194.5v-553q0 -209 70 -296t237 -87q149 0 219 93t70 290v553q0 114 -32 192.5t-73 110.5v4h492v-4q-46 -30 -78.5 -107.5t-32.5 -195.5v-530
q0 -312 -145.5 -466.5t-441.5 -154.5z" />
    <glyph glyph-name="V" unicode="V" horiz-adv-x="1423" 
d="M461 0v4q21 21 33.5 58.5t10.5 98t-26 126.5l-309 858q-30 83 -78 157t-108 117v4h479v-4q-26 -31 -33 -83.5t12 -112.5l181 -521q82 -238 106 -419h8q41 229 107 422l172 514q20 62 17.5 116.5t-27.5 83.5v4h438v-4q-106 -63 -172 -256l-307 -876q-23 -67 -25.5 -127.5
t10 -97.5t33.5 -58v-4h-522z" />
    <glyph glyph-name="W" unicode="W" horiz-adv-x="2154" 
d="M344 0v4q102 111 47 315l-237 865q-51 186 -140 235v4h496v-4q-42 -36 -57 -103.5t4 -150.5l116 -456q42 -165 50 -371h8q48 197 143 391l219 449q76 158 101 258h12q41 -139 100 -256l199 -389q70 -140 104 -238.5t58 -214.5h8q13 211 63 418l101 409q20 87 5.5 151
t-56.5 103l2 4h454v-4q-51 -28 -86 -94.5t-53 -142.5l-207 -863q-24 -106 -12 -179t59 -136v-4h-479v4q28 40 25.5 110t-37.5 144l-150 320q-33 71 -60 158.5t-36 154.5h-8q-38 -152 -90 -266l-172 -367q-35 -76 -37.5 -144t26.5 -110v-4h-483z" />
    <glyph glyph-name="X" unicode="X" horiz-adv-x="1304" 
d="M1120 324q68 -99 143.5 -173.5t137.5 -115.5v-4l-428 -76q0 74 -129 272l-209 324l-225 -367q-41 -67 -41 -113.5t28 -66.5v-4h-483v4q54 25 122.5 96t131.5 168l317 490l-323 483q-42 63 -83.5 103.5t-101.5 74.5v4h478v-4q-9 -44 4.5 -87.5t50.5 -106.5l156 -260
l145 249q22 38 33.5 61.5t20 50t6 49t-14.5 44.5v4h451v-4q-110 -44 -236 -248l-252 -413z" />
    <glyph glyph-name="Y" unicode="Y" horiz-adv-x="1316" 
d="M944 1423h412v-4q-67 -51 -164 -209l-387 -639v-247q0 -126 35.5 -209t89.5 -111v-4h-531v4q50 30 87.5 114.5t37.5 205.5v237l-393 649q-93 153 -166 209v4h436v-4q-13 -39 1.5 -96.5t46.5 -112.5l157 -272q40 -64 64 -133h8q7 21 16 41.5t16 32.5t18 31.5t15 27.5
l156 272q32 55 45.5 112.5t-0.5 96.5v4z" />
    <glyph glyph-name="Z" unicode="Z" horiz-adv-x="1226" 
d="M1174 391l4 -2l-54 -405q-66 11 -112.5 13.5t-161.5 2.5h-830v4l699 1217h-256q-251 0 -350 -140l-4 2l55 353q101 -13 305 -13h674v-4l-699 -1216h314q138 0 246 49.5t170 138.5z" />
    <glyph glyph-name="bracketleft" unicode="[" horiz-adv-x="671" 
d="M449 -72q130 0 196 29l4 -4l-37 -244q-114 15 -227 15h-315q30 94 30 335v1301q0 206 -39 307h324q121 0 227 14l39 -249l-4 -2q-57 32 -198 32h-99v-1534h99z" />
    <glyph glyph-name="backslash" unicode="\" horiz-adv-x="684" 
d="M348 -213l-2 4q28 40 28 131t-26 195l-278 1138q-30 120 -62 186.5t-88 117.5l2 4h432l2 -4q-71 -71 -14 -304l276 -1138q27 -113 68.5 -204.5t77.5 -121.5l-2 -4h-414z" />
    <glyph glyph-name="bracketright" unicode="]" horiz-adv-x="671" 
d="M571 31q0 -206 39 -307h-323q-114 0 -228 -15l-39 250l5 2q59 -33 198 -33h99v1534h-99q-132 0 -196 -28l-4 4l36 243q106 -14 228 -14h315q-31 -98 -31 -336v-1300z" />
    <glyph glyph-name="asciicircum" unicode="^" horiz-adv-x="942" 
d="M809 1108q56 -82 98 -127v-4h-266q-2 53 -41 113l-133 217l-135 -217q-39 -60 -41 -113h-256v4q12 11 22 22t21.5 26t17 23t19.5 29l18 27l260 412h156z" />
    <glyph glyph-name="underscore" unicode="_" horiz-adv-x="1144" 
d="M16 -299l-4 2l47 297h797q147 0 248 49l4 -2l-35 -252h-809q-92 0 -147.5 -21.5t-100.5 -72.5z" />
    <glyph glyph-name="grave" unicode="`" 
d="M702 1509q-40 54 -127.5 142t-142.5 129l180 174l4 -2q10 -51 97.5 -172.5t154.5 -184.5z" />
    <glyph glyph-name="a" unicode="a" horiz-adv-x="1384" 
d="M1221 336q39 -111 96 -202t104 -130v-4h-463v4q29 23 32 83.5t-32 168.5l-18 49h-528l-19 -49q-25 -66 -30.5 -121t2.5 -85.5t24 -45.5v-4h-430v4q47 42 104 132.5t95 199.5l293 844q21 59 17 108.5t-18 81t-36 49.5v4h542v-4q-22 -20 -36 -51t-18 -80.5t18 -107.5z
M670 1151q-8 -73 -29.5 -157.5t-36.5 -129.5t-49 -141l-76 -217h393l-75 217q-3 7 -15.5 43.5t-16.5 47t-15 43.5t-15.5 48l-13.5 45t-14 50t-11 47.5t-10.5 52.5t-7.5 51h-8z" />
    <glyph glyph-name="b" unicode="b" horiz-adv-x="1314" 
d="M909 758q128 -15 219 -114.5t91 -223.5q0 -196 -133 -308t-347 -112h-622v4q49 37 85 114t36 201v787q0 119 -33.5 197.5t-87.5 115.5v4h565q232 0 347.5 -88t115.5 -270q0 -113 -71.5 -200t-164.5 -101v-6zM666 1223h-148v-369h148q91 0 140.5 50t49.5 147
q0 172 -190 172zM698 201q112 0 170 62t58 167q0 104 -58 164.5t-170 60.5h-180v-454h180z" />
    <glyph glyph-name="c" unicode="c" horiz-adv-x="1345" 
d="M811 -31q-163 0 -299 55.5t-228 153.5t-143 232.5t-51 291.5q0 345 209.5 547.5t560.5 202.5q188 0 361 -51l32 -354l-4 -3q-61 95 -164.5 144t-226.5 49q-216 0 -339.5 -138.5t-123.5 -375.5q0 -242 114 -389.5t322 -147.5q157 0 266 59t195 171l4 -2l-49 -367
q-219 -78 -436 -78z" />
    <glyph glyph-name="d" unicode="d" horiz-adv-x="1517" 
d="M121 0v4q44 30 77 108.5t33 194.5v809q0 107 -33.5 190.5t-76.5 112.5v4h594q326 0 519 -189.5t193 -520.5q0 -343 -186 -528t-559 -185h-561zM512 203h190q205 0 313.5 131t108.5 379q0 259 -106 383.5t-326 124.5h-180v-1018z" />
    <glyph glyph-name="e" unicode="e" 
d="M1147 393l4 -2l-57 -407q-101 16 -250 16h-723v4q44 30 77 108.5t33 194.5v809q0 118 -32.5 195.5t-77.5 107.5v4h735q140 0 217 17l35 -367l-4 -2q-74 152 -322 152h-270v-361h156q204 0 319 15l-59 -345h-4q-49 130 -224 130h-188v-461h223q135 0 240.5 49t171.5 143z
" />
    <glyph glyph-name="f" unicode="f" horiz-adv-x="1179" 
d="M1073 1440l37 -383l-4 -2q-100 164 -365 164h-229v-381h180q226 0 307 16l-65 -369h-4q-20 65 -83 106.5t-140 41.5h-195v-326q0 -118 32.5 -195.5t78.5 -107.5v-4h-502v4q44 30 77 108.5t33 194.5v809q0 138 -29 206t-79 97v4h686q168 0 264 17z" />
    <glyph glyph-name="g" unicode="g" horiz-adv-x="1437" 
d="M1030 762h356v-4q-35 -23 -51 -94t-16 -209v-338q-103 -66 -244 -107t-264 -41q-320 0 -520.5 201.5t-200.5 521.5q0 352 208.5 556t553.5 204q216 0 389 -55l31 -334l-4 -2q-156 176 -422 176q-214 0 -333.5 -140.5t-119.5 -383.5q0 -245 117 -386t321 -141
q130 0 226 45v334q-208 -4 -305 -106l-4 2l32 313q68 -12 250 -12z" />
    <glyph glyph-name="h" unicode="h" horiz-adv-x="1568" 
d="M1448 1419q-44 -31 -77.5 -109t-33.5 -194v-817q0 -112 33 -188.5t78 -106.5v-4h-496v4q41 31 73 108t32 187v358h-545v-350q0 -117 31 -195t73 -108v-4h-495v4q44 30 77 108.5t33 194.5v809q0 118 -32.5 195.5t-77.5 107.5v4h495v-4q-41 -31 -72.5 -109.5t-31.5 -193.5
v-254h545v254q0 117 -31 195t-74 108v4h496v-4z" />
    <glyph glyph-name="i" unicode="i" horiz-adv-x="745" 
d="M121 0v4q44 30 77 108.5t33 194.5v809q0 118 -32.5 195.5t-77.5 107.5v4h504v-4q-44 -31 -77.5 -109t-33.5 -194v-809q0 -118 32.5 -195.5t78.5 -107.5v-4h-504z" />
    <glyph glyph-name="j" unicode="j" horiz-adv-x="919" 
d="M238 -45q-84 0 -205 31l-21 317h4q8 -15 21.5 -32t38.5 -40t64 -38t85 -15q114 0 172 59t58 171v706q0 119 -32.5 197t-78.5 108v4h502v-4q-44 -31 -77.5 -109t-33.5 -194v-635q0 -273 -118.5 -399.5t-378.5 -126.5z" />
    <glyph glyph-name="k" unicode="k" horiz-adv-x="1392" 
d="M512 305q0 -116 29.5 -193.5t70.5 -107.5v-4h-491v4q44 30 77 108.5t33 194.5v817q0 112 -32.5 188.5t-77.5 106.5v4h491v-4q-40 -30 -70 -108.5t-30 -194.5v-811zM1233 231q54 -78 104 -122t123 -74v-4l-411 -70q-18 72 -101 195l-413 614l346 490q70 102 67 163h426v-4
q-115 -55 -241 -227l-289 -391z" />
    <glyph glyph-name="l" unicode="l" horiz-adv-x="1134" 
d="M1075 -16q-89 16 -227 16h-727v4q44 30 77 108.5t33 194.5v817q0 112 -32.5 188.5t-77.5 106.5v4h502v-4q-44 -31 -77.5 -109t-33.5 -194v-911h203q277 0 409 184l4 -2z" />
    <glyph glyph-name="m" unicode="m" horiz-adv-x="1961" 
d="M68 0l-2 4q54 59 84.5 127.5t37.5 169.5l54 795q7 97 -20 191t-91 132l2 4h469q-43 -54 33 -186l203 -348q103 -181 127 -338h8q21 85 55 157t96 181l201 354q73 128 31 180h473l2 -4q-64 -36 -95 -132t-24 -191l64 -795q7 -81 37.5 -163t82.5 -134l-2 -4h-469l-2 4
q33 30 54 97t14 157l-33 424q-12 149 12 352h-8q-55 -176 -157 -348l-228 -385q-86 -143 -96 -248h-16q-15 105 -103 246l-244 389q-94 150 -147 346h-8q19 -187 12 -352l-22 -424q-4 -91 15.5 -158t51.5 -96l-2 -4h-450z" />
    <glyph glyph-name="n" unicode="n" horiz-adv-x="1617" 
d="M121 0v4q44 30 77 108.5t33 194.5v819q0 91 -28 174t-82 119v4h465q3 -35 20 -76t64 -120l295 -496q89 -149 188 -405h8q-33 187 -33 422v368q0 119 -30 196.5t-74 106.5v4h473v-4q-45 -30 -78 -108.5t-33 -194.5v-809q0 -116 33 -194.5t78 -108.5v-4h-432
q-39 94 -102 195l-289 469q-73 117 -120 220.5t-93 245.5h-8q36 -213 36 -475v-348q0 -119 30.5 -196.5t74.5 -106.5v-4h-473z" />
    <glyph glyph-name="o" unicode="o" horiz-adv-x="1671" 
d="M819 -41q-224 0 -391 97.5t-252.5 264t-85.5 377.5q0 230 90.5 402.5t263.5 268t406 95.5q328 0 529.5 -203.5t201.5 -533.5q0 -226 -94.5 -400.5t-268 -271t-399.5 -96.5zM840 172q192 0 314 146t122 389q0 258 -118.5 401t-328.5 143q-201 0 -317.5 -145.5
t-116.5 -386.5q0 -257 114.5 -402t330.5 -145z" />
    <glyph glyph-name="p" unicode="p" horiz-adv-x="1257" 
d="M680 1423q245 0 380.5 -120.5t135.5 -341.5q0 -246 -133.5 -369t-382.5 -123h-168v-170q0 -112 33 -188.5t78 -106.5v-4h-502v4q44 30 77 108.5t33 194.5v817q0 112 -32.5 188.5t-77.5 106.5v4h559zM633 672q272 -3 272 274q0 141 -66.5 208t-205.5 67h-121v-547z" />
    <glyph glyph-name="q" unicode="q" horiz-adv-x="1671" 
d="M1282 84q69 -101 129.5 -153t159.5 -87v-4l-420 -65q-17 62 -28.5 88t-45.5 80l-28 45q-113 -29 -230 -29q-224 0 -391 97.5t-252.5 264t-85.5 377.5q0 230 90.5 402.5t263.5 268t406 95.5q328 0 529.5 -203.5t201.5 -533.5q0 -207 -79.5 -370.5t-225.5 -264.5zM840 172
q42 0 90 10l-90 148q-75 122 -178 184v4l344 25q12 -67 59 -137l72 -107q139 152 139 408q0 257 -118.5 400.5t-328.5 143.5q-200 0 -317 -146t-117 -386q0 -255 114.5 -401t330.5 -146z" />
    <glyph glyph-name="r" unicode="r" horiz-adv-x="1353" 
d="M1133 276q118 -189 266 -239v-4l-420 -76q-39 116 -105 227l-317 543h98q136 0 205.5 60.5t69.5 193.5q0 114 -72 178.5t-203 63.5l-143 -2v-922q0 -111 31 -187.5t71 -107.5v-4h-493v4q45 30 77.5 108t32.5 195v817q0 112 -32.5 188.5t-77.5 106.5v4h581
q244 0 381.5 -115.5t137.5 -316.5q0 -159 -73 -261t-206 -144z" />
    <glyph glyph-name="s" unicode="s" horiz-adv-x="1122" 
d="M547 -31q-271 -3 -414 82l-35 344l4 2q90 -117 192.5 -167.5t231.5 -47.5q238 6 238 185q0 41 -15.5 75.5t-36 57t-61 46.5t-69 37t-82.5 35q-39 16 -60.5 25.5t-58.5 27.5t-58.5 31.5t-52.5 36.5t-49 44.5t-39 52t-32.5 63t-19 74.5t-7.5 88q0 161 132 275t359 114
q157 0 322 -43l27 -336h-5q-61 94 -142 131t-181 37q-236 0 -236 -158q0 -35 14.5 -64t33 -48.5t57.5 -41.5t64.5 -33.5t78.5 -33.5l2 -1q152 -63 220 -112q174 -123 178 -348v-12q0 -179 -130.5 -297t-369.5 -121z" />
    <glyph glyph-name="t" unicode="t" horiz-adv-x="1212" 
d="M1137 1440l34 -375l-4 -2q-38 66 -108 108.5t-158 42.5h-153v-890q0 -126 35 -209t89 -111v-4h-530v4q50 30 87.5 114.5t37.5 205.5v890h-156q-88 0 -158 -42.5t-108 -108.5l-4 2l35 375q133 -17 280 -17h500q148 0 281 17z" />
    <glyph glyph-name="u" unicode="u" horiz-adv-x="1523" 
d="M752 -35q-277 0 -422.5 155.5t-145.5 465.5v530q0 116 -33 194.5t-77 108.5v4h497v-4q-42 -31 -73 -108.5t-31 -194.5v-553q0 -209 70 -296t237 -87q149 0 219 93t70 290v553q0 114 -32 192.5t-73 110.5v4h492v-4q-46 -30 -78.5 -107.5t-32.5 -195.5v-530
q0 -312 -145.5 -466.5t-441.5 -154.5z" />
    <glyph glyph-name="v" unicode="v" horiz-adv-x="1423" 
d="M461 0v4q21 21 33.5 58.5t10.5 98t-26 126.5l-309 858q-30 83 -78 157t-108 117v4h479v-4q-26 -31 -33 -83.5t12 -112.5l181 -521q82 -238 106 -419h8q41 229 107 422l172 514q20 62 17.5 116.5t-27.5 83.5v4h438v-4q-106 -63 -172 -256l-307 -876q-23 -67 -25.5 -127.5
t10 -97.5t33.5 -58v-4h-522z" />
    <glyph glyph-name="w" unicode="w" horiz-adv-x="2154" 
d="M344 0v4q102 111 47 315l-237 865q-51 186 -140 235v4h496v-4q-42 -36 -57 -103.5t4 -150.5l116 -456q42 -165 50 -371h8q48 197 143 391l219 449q76 158 101 258h12q41 -139 100 -256l199 -389q70 -140 104 -238.5t58 -214.5h8q13 211 63 418l101 409q20 87 5.5 151
t-56.5 103l2 4h454v-4q-51 -28 -86 -94.5t-53 -142.5l-207 -863q-24 -106 -12 -179t59 -136v-4h-479v4q28 40 25.5 110t-37.5 144l-150 320q-33 71 -60 158.5t-36 154.5h-8q-38 -152 -90 -266l-172 -367q-35 -76 -37.5 -144t26.5 -110v-4h-483z" />
    <glyph glyph-name="x" unicode="x" horiz-adv-x="1304" 
d="M1120 324q68 -99 143.5 -173.5t137.5 -115.5v-4l-428 -76q0 74 -129 272l-209 324l-225 -367q-41 -67 -41 -113.5t28 -66.5v-4h-483v4q54 25 122.5 96t131.5 168l317 490l-323 483q-42 63 -83.5 103.5t-101.5 74.5v4h478v-4q-9 -44 4.5 -87.5t50.5 -106.5l156 -260
l145 249q22 38 33.5 61.5t20 50t6 49t-14.5 44.5v4h451v-4q-110 -44 -236 -248l-252 -413z" />
    <glyph glyph-name="y" unicode="y" horiz-adv-x="1316" 
d="M944 1423h412v-4q-67 -51 -164 -209l-387 -639v-247q0 -126 35.5 -209t89.5 -111v-4h-531v4q50 30 87.5 114.5t37.5 205.5v237l-393 649q-93 153 -166 209v4h436v-4q-13 -39 1.5 -96.5t46.5 -112.5l157 -272q40 -64 64 -133h8q7 21 16 41.5t16 32.5t18 31.5t15 27.5
l156 272q32 55 45.5 112.5t-0.5 96.5v4z" />
    <glyph glyph-name="z" unicode="z" horiz-adv-x="1226" 
d="M1174 391l4 -2l-54 -405q-66 11 -112.5 13.5t-161.5 2.5h-830v4l699 1217h-256q-251 0 -350 -140l-4 2l55 353q101 -13 305 -13h674v-4l-699 -1216h314q138 0 246 49.5t170 138.5z" />
    <glyph glyph-name="braceleft" unicode="{" horiz-adv-x="681" 
d="M633 -358q-213 3 -322.5 94t-109.5 262v442q0 68 -36 110.5t-93 39.5v188q57 -3 93 39.5t36 110.5v442q0 171 109.5 262t322.5 94l29 -206l-5 -2q-41 24 -92 24q-49 0 -78.5 -35.5t-29.5 -101.5v-465q0 -96 -32.5 -163.5t-96.5 -88.5v-8q64 -21 96.5 -88.5t32.5 -163.5
v-463q0 -66 29.5 -101.5t78.5 -35.5t92 25l5 -3z" />
    <glyph glyph-name="bar" unicode="|" horiz-adv-x="499" 
d="M80 -109l-2 5q41 49 41 202v1211q0 88 -8 135.5t-29 71.5v4h340v-4q-25 -29 -33 -73.5t-8 -133.5v-1211q0 -85 7.5 -129.5t31.5 -72.5v-5h-340z" />
    <glyph glyph-name="braceright" unicode="}" horiz-adv-x="679" 
d="M49 1726q213 -3 322.5 -94t109.5 -262v-442q0 -68 36 -110.5t93 -39.5v-188q-57 3 -93 -39.5t-36 -110.5v-442q0 -171 -109.5 -262t-322.5 -94l-29 206l5 2q41 -24 92 -24q49 0 78.5 35.5t29.5 101.5v465q0 96 32.5 163.5t96.5 88.5v8q-64 21 -96.5 88.5t-32.5 163.5v463
q0 66 -29.5 101.5t-78.5 35.5q-51 0 -92 -24l-5 2z" />
    <glyph glyph-name="asciitilde" unicode="~" horiz-adv-x="913" 
d="M240 287l-209 59q-6 129 71 220t193 91q53 0 102 -16.5t79.5 -36.5t65.5 -36.5t62 -16.5q49 0 72 41.5t12 93.5l4 4l193 -59q11 -118 -72.5 -217t-196.5 -99q-53 0 -100.5 17.5t-76.5 39t-62.5 39t-61.5 17.5q-48 0 -67.5 -45.5t-3.5 -91.5z" />
    <glyph glyph-name="uni00A0" unicode="&#xa0;" horiz-adv-x="512" 
 />
    <glyph glyph-name="exclamdown" unicode="&#xa1;" horiz-adv-x="552" 
d="M279 1563q76 0 129 -53t53 -128t-53.5 -127.5t-128.5 -52.5t-127 52t-52 128q0 75 52 128t127 53zM424 1122v-4q-31 -115 -23 -299l29 -543q9 -170 64 -292v-4h-426v4q54 115 63 292l31 543q8 185 -25 299v4h287z" />
    <glyph glyph-name="cent" unicode="&#xa2;" horiz-adv-x="1112" 
d="M995 37q-108 -53 -252 -70v-10q0 -121 31 -160l-2 -4h-262l-2 4q31 45 31 160v16q-209 35 -330 189.5t-121 380.5q0 220 127.5 375t329.5 192v20q0 115 -31 160l2 4h262l2 -4q-30 -38 -30 -160v-14q130 -12 237 -61l27 -281l-4 -2q-70 65 -141 94t-164 29
q-160 0 -254.5 -95t-94.5 -255q0 -162 89 -260.5t241 -98.5q113 0 189 33t155 117l4 -2z" />
    <glyph glyph-name="sterling" unicode="&#xa3;" horiz-adv-x="1089" 
d="M1001 287l5 -2l-33 -285h-914l-2 4q117 142 165 263.5t48 238.5q0 22 -4 72q-195 -3 -254 -56l-4 2l55 254h166q-39 172 -39 275q0 182 125.5 295.5t317.5 113.5q141 0 258 -45l47 -313l-4 -2q-56 83 -120 116t-161 33q-95 0 -145.5 -57t-50.5 -164q0 -84 28 -252h306
q115 0 184 49l4 -2l-51 -247h-416q2 -16 2 -50q0 -164 -70 -329l351 2q133 0 206 86z" />
    <glyph glyph-name="currency" unicode="&#xa4;" horiz-adv-x="1196" 
d="M1026 414q80 -80 135 -92l2 -5l-194 -194l-4 2q-5 25 -26.5 55t-66.5 82l-26 33q-115 -72 -248 -72q-129 0 -246 70l-28 -31q-85 -92 -93 -139h-4l-194 194l2 5q59 13 135 92l31 32q-68 111 -68 242q0 132 70 244l-33 33q-81 81 -135 90l-2 4l194 196l4 -2q5 -47 93 -135
l32 -33q114 68 242 68t242 -68l32 33q88 88 93 135h4l194 -194l-2 -4q-54 -9 -135 -90l-33 -33q70 -112 70 -244q0 -133 -70 -242zM598 428q91 0 160 76.5t69 183.5q0 108 -69 185t-160 77q-92 0 -160.5 -76.5t-68.5 -185.5q0 -107 68.5 -183.5t160.5 -76.5z" />
    <glyph glyph-name="yen" unicode="&#xa5;" horiz-adv-x="1380" 
d="M969 1423h411q-54 -42 -163 -213l-308 -467h86q68 0 110.5 14t78.5 44l4 -2l-76 -254h-293l2 -119h174q69 0 111 13.5t78 43.5l4 -2l-76 -248h-281q11 -79 36.5 -148t52.5 -87h-443q28 19 53.5 88t34.5 147h-67q-220 0 -281 -55l-4 2l76 246h280v119h-71q-219 0 -281 -56
l-4 3l76 251h184l-309 467q-113 173 -164 213h418q-16 -43 -3 -101.5t48 -111.5l229 -342l232 342q36 53 49 112t-4 101z" />
    <glyph glyph-name="brokenbar" unicode="&#xa6;" horiz-adv-x="499" 
d="M78 834v4q41 49 41 202v269q0 88 -8 135.5t-29 71.5v4h340v-4q-25 -29 -33 -73.5t-8 -133.5v-269q0 -85 7.5 -129.5t31.5 -72.5v-4h-342zM78 -109v5q41 49 41 202v269q0 88 -8 135t-29 71v5h340v-5q-25 -29 -33 -73.5t-8 -132.5v-269q0 -85 7.5 -129.5t31.5 -72.5v-5
h-342z" />
    <glyph glyph-name="section" unicode="&#xa7;" horiz-adv-x="923" 
d="M844 670q0 -136 -94 -230q32 -62 32 -147q0 -143 -109 -237.5t-290 -94.5q-135 0 -252 43l-18 234h4q40 -59 116.5 -92t163.5 -33q89 0 130.5 38t41.5 117q0 46 -27 80.5t-70 56.5t-95 42t-104.5 46.5t-95.5 61.5t-70 94t-27 137q0 128 100 215q-39 67 -39 162
q0 123 101 211t262 88q119 0 244 -45l20 -223h-4q-75 104 -254 104q-78 0 -120 -32.5t-42 -87.5q0 -45 27.5 -78t71 -54t96.5 -40.5t106 -45t96.5 -60t71 -93.5t27.5 -137zM287 801q0 -39 19 -68.5t55.5 -50.5t73.5 -36t89.5 -35.5t87.5 -39.5q19 32 19 74q0 33 -14 60
t-36 44.5t-55.5 35.5t-65 30t-72.5 30t-71 34q-30 -27 -30 -78z" />
    <glyph glyph-name="dieresis" unicode="&#xa8;" horiz-adv-x="409" 
d="M492 1552q-51 0 -86 35.5t-35 85.5q0 51 35 86t86 35q49 0 82.5 -35t33.5 -86q0 -50 -33.5 -85.5t-82.5 -35.5zM811 1552q-51 0 -86 35.5t-35 85.5q0 51 35 86t86 35q49 0 83 -35t34 -86q0 -50 -34 -85.5t-83 -35.5z" />
    <glyph glyph-name="copyright" unicode="&#xa9;" horiz-adv-x="1746" 
d="M874 -39q-160 0 -305 59.5t-250 160.5t-167 239.5t-62 290.5q0 154 62 293.5t167.5 239.5t250.5 159t304 59t304 -59.5t250 -160t167 -239.5t62 -292q0 -203 -105 -375.5t-285.5 -273.5t-392.5 -101zM874 78q127 0 246 51t207 136t141.5 202.5t53.5 243.5
q0 169 -89.5 316t-239.5 233t-319 86q-171 0 -320.5 -85.5t-239 -232.5t-89.5 -317t89 -316t239 -231.5t321 -85.5zM872 246q-204 0 -328 130t-124 331q0 216 131.5 343.5t351.5 127.5q110 0 225 -31l21 -223h-6q-36 59 -100 89.5t-142 30.5q-134 0 -211.5 -87.5
t-77.5 -237.5q0 -152 71.5 -245t201.5 -93q99 0 166 36.5t118 106.5h7l-31 -229q-141 -49 -273 -49z" />
    <glyph glyph-name="guillemotleft" unicode="&#xab;" horiz-adv-x="1275" 
d="M571 332q80 -94 183 -168l-2 -4h-387q-23 59 -93 135l-292 336l292 336q70 76 93 135h354l2 -4q-80 -63 -170 -168l-244 -287zM1063 332q41 -48 83 -85.5t114 -82.5l-3 -4h-401q-24 61 -92 135l-293 336l293 336q68 74 92 135h361l2 -4q-79 -49 -181 -168l-241 -285z" />
    <glyph glyph-name="logicalnot" unicode="&#xac;" horiz-adv-x="952" 
d="M872 385q0 -85 7.5 -119.5t27.5 -62.5l-2 -4h-325l-5 4q20 28 27.5 62.5t7.5 119.5v98h-352q-89 0 -138 -11.5t-83 -39.5l-4 2l30 275h826l2 -4q-19 -50 -19 -187v-133z" />
    <glyph glyph-name="registered" unicode="&#xae;" horiz-adv-x="1189" 
d="M596 1513q149 0 275.5 -70.5t200 -192t73.5 -263.5q0 -143 -73.5 -264.5t-200 -192.5t-275.5 -71q-150 0 -277 71t-200.5 192.5t-73.5 264.5t74 264t201 191.5t276 70.5zM596 557q184 0 316 126.5t132 303.5q0 175 -132 301.5t-316 126.5q-182 0 -314 -126t-132 -302
q0 -178 131.5 -304t314.5 -126zM784 793q51 -85 115 -103v-4l-182 -33q-15 44 -45 99l-137 233v4h40q119 0 119 111q0 50 -31 78t-88 28l-63 -2v-401q0 -50 14.5 -83.5t34.5 -43.5v-4h-219v4q19 10 33 44.5t14 86.5v356q0 49 -14 82t-33 45v4h254q106 0 165.5 -51t59.5 -139
q0 -136 -121 -176z" />
    <glyph glyph-name="macron" unicode="&#xaf;" 
d="M379 1561l-4 2l33 211h471q99 0 139 24l4 -2l-31 -217l-481 -2q-88 0 -131 -16z" />
    <glyph glyph-name="degree" unicode="&#xb0;" horiz-adv-x="651" 
d="M326 889q-118 0 -202.5 84.5t-84.5 202.5t84 202t203 84q118 0 202 -84t84 -202q0 -119 -84 -203t-202 -84zM328 1049q53 0 85.5 35t32.5 92t-33 93t-85 36q-54 0 -87.5 -36t-33.5 -93t33.5 -92t87.5 -35z" />
    <glyph glyph-name="plusminus" unicode="&#xb1;" horiz-adv-x="974" 
d="M250 653q-89 0 -138 -11.5t-83 -39.5l-4 2l30 254h301v172q0 85 -7 119.5t-27 62.5l2 5h327l2 -5q-20 -28 -27.5 -62.5t-7.5 -119.5v-172h111q152 0 217 53l4 -2l-26 -256h-306v-161q0 -85 7.5 -120t27.5 -63l-2 -4h-325l-4 4q20 28 27 63t7 120v161h-106zM729 197
q152 0 217 53l4 -2l-26 -250h-674q-89 0 -138 -11.5t-83 -39.5l-4 2l30 248h674z" />
    <glyph glyph-name="acute" unicode="&#xb4;" 
d="M616 1509l-165 86q70 65 153.5 184t93.5 173l4 2l183 -174q-58 -42 -143.5 -129.5t-125.5 -141.5z" />
    <glyph glyph-name="paragraph" unicode="&#xb6;" horiz-adv-x="1353" 
d="M49 991q0 185 132.5 308.5t330.5 123.5h283v-4q-14 -27 -18.5 -61t-4.5 -121v-1257q0 -87 4.5 -121.5t18.5 -61.5v-4h-312v4q29 44 29 183v577q-201 0 -332 122.5t-131 311.5zM1223 1419q-20 -28 -27.5 -62.5t-7.5 -119.5v-1257q0 -84 7.5 -118.5t27.5 -64.5v-4h-316v4
q21 43 21 183v1257q0 131 -21 182v4h316v-4z" />
    <glyph glyph-name="periodcentered" unicode="&#xb7;" horiz-adv-x="454" 
d="M229 481q-76 0 -129 53t-53 128t53.5 127.5t128.5 52.5t127 -52t52 -128q0 -75 -52 -128t-127 -53z" />
    <glyph glyph-name="cedilla" unicode="&#xb8;" 
d="M702 -78q49 -5 89.5 -18t75 -37.5t54 -65t19.5 -94.5q0 -60 -24.5 -107.5t-65.5 -75.5t-89.5 -42t-101.5 -14q-103 0 -180 47l-18 178l4 2q87 -76 174 -76q55 0 86 24t31 62q0 42 -31 61t-96 19q-62 0 -103 -8l-4 4l66 313h145z" />
    <glyph glyph-name="guillemotright" unicode="&#xbb;" horiz-adv-x="1259" 
d="M496 967l292 -336l-292 -336q-70 -76 -93 -135h-360l-2 4q77 48 180 168l242 284l-266 314q-41 48 -83 85.5t-114 82.5l2 4h401q23 -59 93 -135zM987 967l293 -336l-293 -336q-68 -74 -92 -135h-354l-2 4q80 63 170 168l243 286l-264 312q-81 96 -182 168l2 4h387
q24 -61 92 -135z" />
    <glyph glyph-name="questiondown" unicode="&#xbf;" horiz-adv-x="911" 
d="M479 1573q76 0 129.5 -52.5t53.5 -127.5t-54 -128t-129 -53t-126.5 52.5t-51.5 128.5q0 75 51.5 127.5t126.5 52.5zM551 1143l59 -324q-329 -206 -329 -405q0 -228 227 -228q118 0 198.5 39.5t151.5 130.5l4 -2l-49 -291q-161 -88 -350 -88q-198 0 -326.5 114.5
t-128.5 291.5q0 61 16 117.5t36.5 96.5t62.5 89.5t69 76t82 77.5q5 5 31.5 29t34 31t31.5 29.5t34 33.5t30 32t32 35.5t28 35t28.5 40t23.5 39.5h4z" />
    <glyph glyph-name="Agrave" unicode="&#xc0;" horiz-adv-x="1384" 
d="M707 1509q-40 54 -128 142t-143 129l180 174l5 -2q10 -51 97.5 -172.5t153.5 -184.5zM1221 336q39 -111 96 -202t104 -130v-4h-463v4q29 23 32 83.5t-32 168.5l-18 49h-528l-19 -49q-25 -66 -30.5 -121t2.5 -85.5t24 -45.5v-4h-430v4q47 42 104 132.5t95 199.5l293 844
q21 59 17 108.5t-18 81t-36 49.5v4h542v-4q-22 -20 -36 -51t-18 -80.5t18 -107.5zM670 1151q-8 -73 -29.5 -157.5t-36.5 -129.5t-49 -141l-76 -217h393l-75 217q-3 7 -15.5 43.5t-16.5 47t-15 43.5t-15.5 48l-13.5 45t-14 50t-11 47.5t-10.5 52.5t-7.5 51h-8z" />
    <glyph glyph-name="Aacute" unicode="&#xc1;" horiz-adv-x="1384" 
d="M950 1780q-58 -41 -142.5 -128.5t-125.5 -142.5l-166 86q70 66 154 184.5t94 172.5l4 2zM1221 336q39 -111 96 -202t104 -130v-4h-463v4q29 23 32 83.5t-32 168.5l-18 49h-528l-19 -49q-25 -66 -30.5 -121t2.5 -85.5t24 -45.5v-4h-430v4q47 42 104 132.5t95 199.5
l293 844q21 59 17 108.5t-18 81t-36 49.5v4h542v-4q-22 -20 -36 -51t-18 -80.5t18 -107.5zM670 1151q-8 -73 -29.5 -157.5t-36.5 -129.5t-49 -141l-76 -217h393l-75 217q-3 7 -15.5 43.5t-16.5 47t-15 43.5t-15.5 48l-13.5 45t-14 50t-11 47.5t-10.5 52.5t-7.5 51h-8z" />
    <glyph glyph-name="Acircumflex" unicode="&#xc2;" horiz-adv-x="1384" 
d="M494 1493l-5 -2l-161 192q61 34 142 101t134 127h146q52 -60 131.5 -126t144.5 -102l-162 -192l-4 2q-11 34 -68 106.5t-116 133.5q-58 -60 -114.5 -132.5t-67.5 -107.5zM1221 336q39 -111 96 -202t104 -130v-4h-463v4q29 23 32 83.5t-32 168.5l-18 49h-528l-19 -49
q-25 -66 -30.5 -121t2.5 -85.5t24 -45.5v-4h-430v4q47 42 104 132.5t95 199.5l293 844q21 59 17 108.5t-18 81t-36 49.5v4h542v-4q-22 -20 -36 -51t-18 -80.5t18 -107.5zM670 1151q-8 -73 -29.5 -157.5t-36.5 -129.5t-49 -141l-76 -217h393l-75 217q-3 7 -15.5 43.5
t-16.5 47t-15 43.5t-15.5 48l-13.5 45t-14 50t-11 47.5t-10.5 52.5t-7.5 51h-8z" />
    <glyph glyph-name="Atilde" unicode="&#xc3;" horiz-adv-x="1384" 
d="M412 1532h-4l-105 154q65 69 127 100t137 31q49 0 91.5 -19t80.5 -38t76 -19q43 0 74 23t41 55h4l108 -170q-62 -56 -119 -80.5t-126 -24.5q-52 0 -96.5 20t-83.5 40t-78 20q-78 0 -127 -92zM1221 336q39 -111 96 -202t104 -130v-4h-463v4q29 23 32 83.5t-32 168.5
l-18 49h-528l-19 -49q-25 -66 -30.5 -121t2.5 -85.5t24 -45.5v-4h-430v4q47 42 104 132.5t95 199.5l293 844q21 59 17 108.5t-18 81t-36 49.5v4h542v-4q-22 -20 -36 -51t-18 -80.5t18 -107.5zM670 1151q-8 -73 -29.5 -157.5t-36.5 -129.5t-49 -141l-76 -217h393l-75 217
q-3 7 -15.5 43.5t-16.5 47t-15 43.5t-15.5 48l-13.5 45t-14 50t-11 47.5t-10.5 52.5t-7.5 51h-8z" />
    <glyph glyph-name="Adieresis" unicode="&#xc4;" horiz-adv-x="1384" 
d="M520 1552q-51 0 -86 35.5t-35 85.5q0 51 35 86t86 35q49 0 83 -35t34 -86q0 -50 -34 -85.5t-83 -35.5zM840 1552q-51 0 -86 35.5t-35 85.5q0 51 35 86t86 35q49 0 82.5 -35t33.5 -86q0 -50 -33.5 -85.5t-82.5 -35.5zM1221 336q39 -111 96 -202t104 -130v-4h-463v4
q29 23 32 83.5t-32 168.5l-18 49h-528l-19 -49q-25 -66 -30.5 -121t2.5 -85.5t24 -45.5v-4h-430v4q47 42 104 132.5t95 199.5l293 844q21 59 17 108.5t-18 81t-36 49.5v4h542v-4q-22 -20 -36 -51t-18 -80.5t18 -107.5zM670 1151q-8 -73 -29.5 -157.5t-36.5 -129.5t-49 -141
l-76 -217h393l-75 217q-3 7 -15.5 43.5t-16.5 47t-15 43.5t-15.5 48l-13.5 45t-14 50t-11 47.5t-10.5 52.5t-7.5 51h-8z" />
    <glyph glyph-name="Aring" unicode="&#xc5;" horiz-adv-x="1376" 
d="M1223 336q40 -113 96.5 -203t103.5 -129v-4h-462v4q29 22 31.5 83t-31.5 169l-17 49h-530l-19 -49q-36 -111 -33 -169.5t29 -82.5v-4h-430v4q49 42 106 131.5t95 200.5l291 844q13 38 18 62.5t1 53.5t-23 54q-54 75 -54 166q0 122 85.5 204t209.5 82q121 0 207 -83
t86 -203q0 -87 -49 -158q-30 -43 -31 -87.5t19 -90.5zM690 1622q-48 0 -76 -28t-28 -78t28 -77.5t76 -27.5q47 0 74 28t27 77q0 51 -26.5 78.5t-74.5 27.5zM674 1151q-8 -73 -30 -158t-36 -126t-51 -144l-78 -217h398l-74 209q-35 99 -51 145t-38.5 132t-31.5 159h-8z" />
    <glyph glyph-name="AE" unicode="&#xc6;" horiz-adv-x="1767" 
d="M1686 412l4 -2l-58 -426q-101 16 -250 16h-622v4q39 31 55 92.5t16 159.5v49h-415l-23 -49q-25 -68 -31.5 -123.5t0 -85t21.5 -43.5v-4h-424v4q67 62 197 332l403 844q39 79 30.5 141.5t-63.5 97.5v4h869q141 0 217 17l35 -383l-5 -2q-74 151 -321 151h-223v-344h108
q205 0 320 15l-60 -359h-4q-26 68 -80.5 98.5t-142.5 30.5h-141v-428h176q135 0 240.5 49.5t171.5 143.5zM516 506h315v651h-6q-5 -17 -20.5 -50t-34.5 -70.5t-25 -49.5z" />
    <glyph glyph-name="Ccedilla" unicode="&#xc7;" horiz-adv-x="1345" 
d="M1247 47q-184 -63 -364 -76l-13 -65q49 -5 89.5 -18t75 -37.5t54 -65t19.5 -94.5q0 -117 -84 -178.5t-197 -61.5q-103 0 -180 47l-18 178l4 2q86 -75 174 -75q55 0 86 24t31 62q0 42 -31 61t-96 19q-57 0 -103 -9l-4 4l43 209q-195 16 -342 115t-224 258t-77 356
q0 345 209.5 547.5t560.5 202.5q188 0 361 -51l32 -354l-4 -3q-61 95 -164.5 144t-226.5 49q-216 0 -339.5 -138.5t-123.5 -375.5q0 -242 114 -389.5t322 -147.5q157 0 266 59t195 171l4 -2z" />
    <glyph glyph-name="Egrave" unicode="&#xc8;" 
d="M674 1509q-40 54 -128 142t-143 129l181 174l4 -2q10 -51 97.5 -172.5t154.5 -184.5zM1147 393l4 -2l-57 -407q-101 16 -250 16h-723v4q44 30 77 108.5t33 194.5v809q0 118 -32.5 195.5t-77.5 107.5v4h735q140 0 217 17l35 -367l-4 -2q-74 152 -322 152h-270v-361h156
q204 0 319 15l-59 -345h-4q-49 130 -224 130h-188v-461h223q135 0 240.5 49t171.5 143z" />
    <glyph glyph-name="Eacute" unicode="&#xc9;" 
d="M918 1780q-58 -42 -143.5 -129.5t-125.5 -141.5l-166 86q70 66 154 184.5t94 172.5l4 2zM1147 393l4 -2l-57 -407q-101 16 -250 16h-723v4q44 30 77 108.5t33 194.5v809q0 118 -32.5 195.5t-77.5 107.5v4h735q140 0 217 17l35 -367l-4 -2q-74 152 -322 152h-270v-361h156
q204 0 319 15l-59 -345h-4q-49 130 -224 130h-188v-461h223q135 0 240.5 49t171.5 143z" />
    <glyph glyph-name="Ecircumflex" unicode="&#xca;" 
d="M461 1493l-4 -2l-162 192q61 34 142 101t134 127h146q52 -60 131.5 -126t144.5 -102l-162 -192l-4 2q-11 34 -68 106.5t-116 133.5q-58 -60 -114.5 -132.5t-67.5 -107.5zM1147 393l4 -2l-57 -407q-101 16 -250 16h-723v4q44 30 77 108.5t33 194.5v809q0 118 -32.5 195.5
t-77.5 107.5v4h735q140 0 217 17l35 -367l-4 -2q-74 152 -322 152h-270v-361h156q204 0 319 15l-59 -345h-4q-49 130 -224 130h-188v-461h223q135 0 240.5 49t171.5 143z" />
    <glyph glyph-name="Edieresis" unicode="&#xcb;" 
d="M487 1552q-51 0 -85.5 35.5t-34.5 85.5q0 51 34.5 86t85.5 35q49 0 83 -35t34 -86q0 -50 -34 -85.5t-83 -35.5zM807 1552q-51 0 -86 35.5t-35 85.5q0 51 35 86t86 35q49 0 83 -35t34 -86q0 -50 -34 -85.5t-83 -35.5zM1147 393l4 -2l-57 -407q-101 16 -250 16h-723v4
q44 30 77 108.5t33 194.5v809q0 118 -32.5 195.5t-77.5 107.5v4h735q140 0 217 17l35 -367l-4 -2q-74 152 -322 152h-270v-361h156q204 0 319 15l-59 -345h-4q-49 130 -224 130h-188v-461h223q135 0 240.5 49t171.5 143z" />
    <glyph glyph-name="Igrave" unicode="&#xcc;" horiz-adv-x="745" 
d="M401 1509q-40 54 -127.5 142t-142.5 129l180 174l4 -2q10 -51 97.5 -172.5t154.5 -184.5zM121 0v4q44 30 77 108.5t33 194.5v809q0 118 -32.5 195.5t-77.5 107.5v4h504v-4q-44 -31 -77.5 -109t-33.5 -194v-809q0 -118 32.5 -195.5t78.5 -107.5v-4h-504z" />
    <glyph glyph-name="Iacute" unicode="&#xcd;" horiz-adv-x="745" 
d="M377 1509l-166 86q70 66 154 184.5t94 172.5l4 2l182 -174q-58 -41 -142.5 -128.5t-125.5 -142.5zM121 0v4q44 30 77 108.5t33 194.5v809q0 118 -32.5 195.5t-77.5 107.5v4h504v-4q-44 -31 -77.5 -109t-33.5 -194v-809q0 -118 32.5 -195.5t78.5 -107.5v-4h-504z" />
    <glyph glyph-name="Icircumflex" unicode="&#xce;" horiz-adv-x="745" 
d="M188 1493l-4 -2l-161 192q61 34 142 101t134 127h145q52 -59 132 -125.5t145 -102.5l-162 -192l-4 2q-11 34 -68 106.5t-116 133.5q-59 -61 -115.5 -133t-67.5 -107zM121 1419v4h504v-4q-44 -31 -77.5 -109t-33.5 -194v-809q0 -118 32.5 -195.5t78.5 -107.5v-4h-504v4
q44 30 77 108.5t33 194.5v809q0 118 -32.5 195.5t-77.5 107.5z" />
    <glyph glyph-name="Idieresis" unicode="&#xcf;" horiz-adv-x="745" 
d="M215 1552q-51 0 -86 35.5t-35 85.5q0 51 35 86t86 35q49 0 83 -35t34 -86q0 -50 -34 -85.5t-83 -35.5zM535 1552q-51 0 -86 35.5t-35 85.5q0 51 35 86t86 35q49 0 82.5 -35t33.5 -86q0 -50 -33.5 -85.5t-82.5 -35.5zM121 0v4q44 30 77 108.5t33 194.5v809
q0 118 -32.5 195.5t-77.5 107.5v4h504v-4q-44 -31 -77.5 -109t-33.5 -194v-809q0 -118 32.5 -195.5t78.5 -107.5v-4h-504z" />
    <glyph glyph-name="Eth" unicode="&#xd0;" horiz-adv-x="1536" 
d="M733 1423q326 0 519.5 -189.5t193.5 -520.5q0 -343 -186.5 -528t-559.5 -185h-561v4q44 31 77.5 109t33.5 194v320h-33q-113 0 -162 -35l-4 2l35 217h164v305q0 107 -33.5 190.5t-77.5 112.5v4h594zM721 203q205 0 313.5 131t108.5 379q0 259 -106 383.5t-326 124.5h-181
v-410h101q91 0 145 29l4 -2l-28 -211h-222v-424h191z" />
    <glyph glyph-name="Ntilde" unicode="&#xd1;" horiz-adv-x="1617" 
d="M545 1532l-105 154q64 69 127 100t138 31q49 0 91 -19t80 -38t76 -19q43 0 74 23t41 55h4l109 -170q-62 -56 -119.5 -80.5t-126.5 -24.5q-52 0 -96.5 20t-83.5 40t-78 20q-78 0 -127 -92h-4zM121 0v4q44 30 77 108.5t33 194.5v819q0 91 -28 174t-82 119v4h465
q3 -35 20 -76t64 -120l295 -496q89 -149 188 -405h8q-33 187 -33 422v368q0 119 -30 196.5t-74 106.5v4h473v-4q-45 -30 -78 -108.5t-33 -194.5v-809q0 -116 33 -194.5t78 -108.5v-4h-432q-39 94 -102 195l-289 469q-73 117 -120 220.5t-93 245.5h-8q36 -213 36 -475v-348
q0 -119 30.5 -196.5t74.5 -106.5v-4h-473z" />
    <glyph glyph-name="Ograve" unicode="&#xd2;" horiz-adv-x="1671" 
d="M872 1526q-40 54 -127.5 141.5t-142.5 128.5l180 174l4 -2q10 -51 97.5 -172t154.5 -184zM819 -41q-224 0 -391 97.5t-252.5 264t-85.5 377.5q0 230 90.5 402.5t263.5 268t406 95.5q328 0 529.5 -203.5t201.5 -533.5q0 -226 -94.5 -400.5t-268 -271t-399.5 -96.5z
M840 172q192 0 314 146t122 389q0 258 -118.5 401t-328.5 143q-201 0 -317.5 -145.5t-116.5 -386.5q0 -257 114.5 -402t330.5 -145z" />
    <glyph glyph-name="Oacute" unicode="&#xd3;" horiz-adv-x="1671" 
d="M848 1526l-166 86q70 66 154 184t94 172l4 2l182 -174q-58 -42 -143 -129t-125 -141zM819 -41q-224 0 -391 97.5t-252.5 264t-85.5 377.5q0 230 90.5 402.5t263.5 268t406 95.5q328 0 529.5 -203.5t201.5 -533.5q0 -226 -94.5 -400.5t-268 -271t-399.5 -96.5zM840 172
q192 0 314 146t122 389q0 258 -118.5 401t-328.5 143q-201 0 -317.5 -145.5t-116.5 -386.5q0 -257 114.5 -402t330.5 -145z" />
    <glyph glyph-name="Ocircumflex" unicode="&#xd4;" horiz-adv-x="1671" 
d="M659 1509l-4 -2l-161 193q61 34 142 100.5t134 126.5h145q51 -59 131.5 -125t145.5 -102l-162 -193l-4 2q-11 34 -68 106.5t-116 133.5q-59 -61 -115.5 -133t-67.5 -107zM850 1464q328 0 529.5 -203.5t201.5 -533.5q0 -226 -94.5 -400.5t-268 -271t-399.5 -96.5
q-224 0 -391 97.5t-252.5 264t-85.5 377.5q0 230 90.5 402.5t263.5 268t406 95.5zM840 172q192 0 314 146t122 389q0 258 -118.5 401t-328.5 143q-201 0 -317.5 -145.5t-116.5 -386.5q0 -257 114.5 -402t330.5 -145z" />
    <glyph glyph-name="Otilde" unicode="&#xd5;" horiz-adv-x="1671" 
d="M573 1548l-104 154q65 69 127 100t137 31q49 0 91.5 -19t80.5 -38t76 -19q43 0 74 23t41 55h4l108 -170q-61 -55 -118.5 -79.5t-126.5 -24.5q-41 0 -78.5 12.5t-61 27t-55 27t-63.5 12.5q-78 0 -127 -92h-5zM819 -41q-224 0 -391 97.5t-252.5 264t-85.5 377.5
q0 230 90.5 402.5t263.5 268t406 95.5q328 0 529.5 -203.5t201.5 -533.5q0 -226 -94.5 -400.5t-268 -271t-399.5 -96.5zM840 172q192 0 314 146t122 389q0 258 -118.5 401t-328.5 143q-201 0 -317.5 -145.5t-116.5 -386.5q0 -257 114.5 -402t330.5 -145z" />
    <glyph glyph-name="Odieresis" unicode="&#xd6;" horiz-adv-x="1671" 
d="M686 1569q-51 0 -86 35.5t-35 85.5q0 51 35 85.5t86 34.5q50 0 83.5 -34.5t33.5 -85.5q0 -50 -34 -85.5t-83 -35.5zM1006 1569q-51 0 -86 35.5t-35 85.5q0 51 35 85.5t86 34.5q49 0 82.5 -34.5t33.5 -85.5q0 -50 -33.5 -85.5t-82.5 -35.5zM819 -41q-224 0 -391 97.5
t-252.5 264t-85.5 377.5q0 230 90.5 402.5t263.5 268t406 95.5q328 0 529.5 -203.5t201.5 -533.5q0 -226 -94.5 -400.5t-268 -271t-399.5 -96.5zM840 172q192 0 314 146t122 389q0 258 -118.5 401t-328.5 143q-201 0 -317.5 -145.5t-116.5 -386.5q0 -257 114.5 -402
t330.5 -145z" />
    <glyph glyph-name="multiply" unicode="&#xd7;" horiz-adv-x="952" 
d="M768 557q65 -62 93 -81t61 -25v-5l-224 -229h-4q-7 28 -29.5 60.5t-80.5 89.5l-115 112l-107 -112q-58 -61 -81 -92t-31 -56h-4l-217 207v4q35 7 64.5 26t88.5 81l113 114l-115 113q-59 59 -90.5 81t-58.5 29v5l217 227h4q9 -35 28 -64.5t80 -87.5l117 -114l103 106
q61 63 81 91t29 59h4l207 -203v-4q-59 -14 -149 -111l-101 -106z" />
    <glyph glyph-name="Oslash" unicode="&#xd8;" horiz-adv-x="1671" 
d="M1585 1423l-170 -202q166 -196 166 -494q0 -225 -95.5 -399.5t-269 -270.5t-397.5 -96q-222 0 -389 96l-49 -57q-76 -91 -111 -170l-4 -2l-180 174l170 201q-166 196 -166 495q0 347 204 555.5t556 208.5q214 0 389 -96l33 41q94 113 123 180l4 2zM829 1247
q-201 0 -317.5 -144t-116.5 -384q0 -178 58 -303l637 753q-107 78 -261 78zM840 178q192 0 314 144.5t122 384.5q0 179 -59 303l-639 -754q107 -78 262 -78z" />
    <glyph glyph-name="Ugrave" unicode="&#xd9;" horiz-adv-x="1523" 
d="M791 1509q-40 54 -128 142t-143 129l180 174l5 -2q10 -51 97.5 -172.5t153.5 -184.5zM752 -35q-277 0 -422.5 155.5t-145.5 465.5v530q0 116 -33 194.5t-77 108.5v4h497v-4q-42 -31 -73 -108.5t-31 -194.5v-553q0 -209 70 -296t237 -87q149 0 219 93t70 290v553
q0 114 -32 192.5t-73 110.5v4h492v-4q-46 -30 -78.5 -107.5t-32.5 -195.5v-530q0 -312 -145.5 -466.5t-441.5 -154.5z" />
    <glyph glyph-name="Uacute" unicode="&#xda;" horiz-adv-x="1523" 
d="M766 1509l-166 86q70 66 154 184.5t94 172.5l4 2l182 -174q-58 -41 -142.5 -128.5t-125.5 -142.5zM752 -35q-277 0 -422.5 155.5t-145.5 465.5v530q0 116 -33 194.5t-77 108.5v4h497v-4q-42 -31 -73 -108.5t-31 -194.5v-553q0 -209 70 -296t237 -87q149 0 219 93t70 290
v553q0 114 -32 192.5t-73 110.5v4h492v-4q-46 -30 -78.5 -107.5t-32.5 -195.5v-530q0 -312 -145.5 -466.5t-441.5 -154.5z" />
    <glyph glyph-name="Ucircumflex" unicode="&#xdb;" horiz-adv-x="1523" 
d="M578 1493l-5 -2l-161 192q61 34 142 101t134 127h146q52 -60 131.5 -126t144.5 -102l-162 -192l-4 2q-11 34 -68 106.5t-116 133.5q-58 -60 -114.5 -132.5t-67.5 -107.5zM958 1423h492v-4q-46 -30 -78.5 -107.5t-32.5 -195.5v-530q0 -312 -145.5 -466.5t-441.5 -154.5
q-277 0 -422.5 155.5t-145.5 465.5v530q0 116 -33 194.5t-77 108.5v4h497v-4q-42 -31 -73 -108.5t-31 -194.5v-553q0 -209 70 -296t237 -87q149 0 219 93t70 290v553q0 114 -32 192.5t-73 110.5v4z" />
    <glyph glyph-name="Udieresis" unicode="&#xdc;" horiz-adv-x="1523" 
d="M604 1552q-51 0 -86 35.5t-35 85.5q0 51 35 86t86 35q49 0 83 -35t34 -86q0 -50 -34 -85.5t-83 -35.5zM924 1552q-51 0 -86 35.5t-35 85.5q0 51 35 86t86 35q49 0 82.5 -35t33.5 -86q0 -50 -33.5 -85.5t-82.5 -35.5zM752 -35q-277 0 -422.5 155.5t-145.5 465.5v530
q0 116 -33 194.5t-77 108.5v4h497v-4q-42 -31 -73 -108.5t-31 -194.5v-553q0 -209 70 -296t237 -87q149 0 219 93t70 290v553q0 114 -32 192.5t-73 110.5v4h492v-4q-46 -30 -78.5 -107.5t-32.5 -195.5v-530q0 -312 -145.5 -466.5t-441.5 -154.5z" />
    <glyph glyph-name="Yacute" unicode="&#xdd;" horiz-adv-x="1316" 
d="M934 1780q-58 -41 -142.5 -128.5t-125.5 -142.5l-166 86q70 66 154 184.5t94 172.5l4 2zM944 1423h412v-4q-67 -51 -164 -209l-387 -639v-247q0 -126 35.5 -209t89.5 -111v-4h-531v4q50 30 87.5 114.5t37.5 205.5v237l-393 649q-93 153 -166 209v4h436v-4
q-13 -39 1.5 -96.5t46.5 -112.5l157 -272q40 -64 64 -133h8q7 21 16 41.5t16 32.5t18 31.5t15 27.5l156 272q32 55 45.5 112.5t-0.5 96.5v4z" />
    <glyph glyph-name="Thorn" unicode="&#xde;" horiz-adv-x="1251" 
d="M680 1184q512 0 512 -463q0 -228 -138.5 -348.5t-373.5 -120.5h-168q8 -190 94 -248v-4h-485v4q44 30 77 108.5t33 194.5v809q0 118 -32.5 195.5t-77.5 107.5v4h479v-4q-79 -52 -88 -235h168zM633 453q135 -1 203.5 65t68.5 193q0 140 -67 206t-205 64h-121v-526z" />
    <glyph glyph-name="germandbls" unicode="&#xdf;" horiz-adv-x="1495" 
d="M1055 872q159 -34 262.5 -154t103.5 -274q0 -95 -33.5 -182t-95 -154t-156.5 -107t-210 -40q-104 0 -203 27l-33 258l4 2q86 -74 193 -74q106 0 177 72t71 178q0 161 -121 234t-326 38v4l277 519h-453v-912q0 -117 31 -195t73 -108v-4h-495v4q44 30 77 108.5t33 194.5
v809q0 118 -32.5 195.5t-77.5 107.5v4h1243l2 -6z" />
    <glyph glyph-name="agrave" unicode="&#xe0;" horiz-adv-x="1384" 
d="M707 1509q-40 54 -128 142t-143 129l180 174l5 -2q10 -51 97.5 -172.5t153.5 -184.5zM1221 336q39 -111 96 -202t104 -130v-4h-463v4q29 23 32 83.5t-32 168.5l-18 49h-528l-19 -49q-25 -66 -30.5 -121t2.5 -85.5t24 -45.5v-4h-430v4q47 42 104 132.5t95 199.5l293 844
q21 59 17 108.5t-18 81t-36 49.5v4h542v-4q-22 -20 -36 -51t-18 -80.5t18 -107.5zM670 1151q-8 -73 -29.5 -157.5t-36.5 -129.5t-49 -141l-76 -217h393l-75 217q-3 7 -15.5 43.5t-16.5 47t-15 43.5t-15.5 48l-13.5 45t-14 50t-11 47.5t-10.5 52.5t-7.5 51h-8z" />
    <glyph glyph-name="aacute" unicode="&#xe1;" horiz-adv-x="1384" 
d="M950 1780q-58 -41 -142.5 -128.5t-125.5 -142.5l-166 86q70 66 154 184.5t94 172.5l4 2zM1221 336q39 -111 96 -202t104 -130v-4h-463v4q29 23 32 83.5t-32 168.5l-18 49h-528l-19 -49q-25 -66 -30.5 -121t2.5 -85.5t24 -45.5v-4h-430v4q47 42 104 132.5t95 199.5
l293 844q21 59 17 108.5t-18 81t-36 49.5v4h542v-4q-22 -20 -36 -51t-18 -80.5t18 -107.5zM670 1151q-8 -73 -29.5 -157.5t-36.5 -129.5t-49 -141l-76 -217h393l-75 217q-3 7 -15.5 43.5t-16.5 47t-15 43.5t-15.5 48l-13.5 45t-14 50t-11 47.5t-10.5 52.5t-7.5 51h-8z" />
    <glyph glyph-name="acircumflex" unicode="&#xe2;" horiz-adv-x="1384" 
d="M494 1493l-5 -2l-161 192q61 34 142 101t134 127h146q52 -60 131.5 -126t144.5 -102l-162 -192l-4 2q-11 34 -68 106.5t-116 133.5q-58 -60 -114.5 -132.5t-67.5 -107.5zM1221 336q39 -111 96 -202t104 -130v-4h-463v4q29 23 32 83.5t-32 168.5l-18 49h-528l-19 -49
q-25 -66 -30.5 -121t2.5 -85.5t24 -45.5v-4h-430v4q47 42 104 132.5t95 199.5l293 844q21 59 17 108.5t-18 81t-36 49.5v4h542v-4q-22 -20 -36 -51t-18 -80.5t18 -107.5zM670 1151q-8 -73 -29.5 -157.5t-36.5 -129.5t-49 -141l-76 -217h393l-75 217q-3 7 -15.5 43.5
t-16.5 47t-15 43.5t-15.5 48l-13.5 45t-14 50t-11 47.5t-10.5 52.5t-7.5 51h-8z" />
    <glyph glyph-name="atilde" unicode="&#xe3;" horiz-adv-x="1384" 
d="M412 1532h-4l-105 154q65 69 127 100t137 31q49 0 91.5 -19t80.5 -38t76 -19q43 0 74 23t41 55h4l108 -170q-62 -56 -119 -80.5t-126 -24.5q-52 0 -96.5 20t-83.5 40t-78 20q-78 0 -127 -92zM1221 336q39 -111 96 -202t104 -130v-4h-463v4q29 23 32 83.5t-32 168.5
l-18 49h-528l-19 -49q-25 -66 -30.5 -121t2.5 -85.5t24 -45.5v-4h-430v4q47 42 104 132.5t95 199.5l293 844q21 59 17 108.5t-18 81t-36 49.5v4h542v-4q-22 -20 -36 -51t-18 -80.5t18 -107.5zM670 1151q-8 -73 -29.5 -157.5t-36.5 -129.5t-49 -141l-76 -217h393l-75 217
q-3 7 -15.5 43.5t-16.5 47t-15 43.5t-15.5 48l-13.5 45t-14 50t-11 47.5t-10.5 52.5t-7.5 51h-8z" />
    <glyph glyph-name="adieresis" unicode="&#xe4;" horiz-adv-x="1384" 
d="M520 1552q-51 0 -86 35.5t-35 85.5q0 51 35 86t86 35q49 0 83 -35t34 -86q0 -50 -34 -85.5t-83 -35.5zM840 1552q-51 0 -86 35.5t-35 85.5q0 51 35 86t86 35q49 0 82.5 -35t33.5 -86q0 -50 -33.5 -85.5t-82.5 -35.5zM1221 336q39 -111 96 -202t104 -130v-4h-463v4
q29 23 32 83.5t-32 168.5l-18 49h-528l-19 -49q-25 -66 -30.5 -121t2.5 -85.5t24 -45.5v-4h-430v4q47 42 104 132.5t95 199.5l293 844q21 59 17 108.5t-18 81t-36 49.5v4h542v-4q-22 -20 -36 -51t-18 -80.5t18 -107.5zM670 1151q-8 -73 -29.5 -157.5t-36.5 -129.5t-49 -141
l-76 -217h393l-75 217q-3 7 -15.5 43.5t-16.5 47t-15 43.5t-15.5 48l-13.5 45t-14 50t-11 47.5t-10.5 52.5t-7.5 51h-8z" />
    <glyph glyph-name="aring" unicode="&#xe5;" horiz-adv-x="1376" 
d="M1223 336q40 -113 96.5 -203t103.5 -129v-4h-462v4q29 22 31.5 83t-31.5 169l-17 49h-530l-19 -49q-36 -111 -33 -169.5t29 -82.5v-4h-430v4q49 42 106 131.5t95 200.5l291 844q13 38 18 62.5t1 53.5t-23 54q-54 75 -54 166q0 122 85.5 204t209.5 82q121 0 207 -83
t86 -203q0 -87 -49 -158q-30 -43 -31 -87.5t19 -90.5zM690 1622q-48 0 -76 -28t-28 -78t28 -77.5t76 -27.5q47 0 74 28t27 77q0 51 -26.5 78.5t-74.5 27.5zM674 1151q-8 -73 -30 -158t-36 -126t-51 -144l-78 -217h398l-74 209q-35 99 -51 145t-38.5 132t-31.5 159h-8z" />
    <glyph glyph-name="ae" unicode="&#xe6;" horiz-adv-x="1767" 
d="M1686 412l4 -2l-58 -426q-101 16 -250 16h-622v4q39 31 55 92.5t16 159.5v49h-415l-23 -49q-25 -68 -31.5 -123.5t0 -85t21.5 -43.5v-4h-424v4q67 62 197 332l403 844q39 79 30.5 141.5t-63.5 97.5v4h869q141 0 217 17l35 -383l-5 -2q-74 151 -321 151h-223v-344h108
q205 0 320 15l-60 -359h-4q-26 68 -80.5 98.5t-142.5 30.5h-141v-428h176q135 0 240.5 49.5t171.5 143.5zM516 506h315v651h-6q-5 -17 -20.5 -50t-34.5 -70.5t-25 -49.5z" />
    <glyph glyph-name="ccedilla" unicode="&#xe7;" horiz-adv-x="1345" 
d="M1247 47q-184 -63 -364 -76l-13 -65q49 -5 89.5 -18t75 -37.5t54 -65t19.5 -94.5q0 -117 -84 -178.5t-197 -61.5q-103 0 -180 47l-18 178l4 2q86 -75 174 -75q55 0 86 24t31 62q0 42 -31 61t-96 19q-57 0 -103 -9l-4 4l43 209q-195 16 -342 115t-224 258t-77 356
q0 345 209.5 547.5t560.5 202.5q188 0 361 -51l32 -354l-4 -3q-61 95 -164.5 144t-226.5 49q-216 0 -339.5 -138.5t-123.5 -375.5q0 -242 114 -389.5t322 -147.5q157 0 266 59t195 171l4 -2z" />
    <glyph glyph-name="egrave" unicode="&#xe8;" 
d="M674 1509q-40 54 -128 142t-143 129l181 174l4 -2q10 -51 97.5 -172.5t154.5 -184.5zM1147 393l4 -2l-57 -407q-101 16 -250 16h-723v4q44 30 77 108.5t33 194.5v809q0 118 -32.5 195.5t-77.5 107.5v4h735q140 0 217 17l35 -367l-4 -2q-74 152 -322 152h-270v-361h156
q204 0 319 15l-59 -345h-4q-49 130 -224 130h-188v-461h223q135 0 240.5 49t171.5 143z" />
    <glyph glyph-name="eacute" unicode="&#xe9;" 
d="M918 1780q-58 -42 -143.5 -129.5t-125.5 -141.5l-166 86q70 66 154 184.5t94 172.5l4 2zM1147 393l4 -2l-57 -407q-101 16 -250 16h-723v4q44 30 77 108.5t33 194.5v809q0 118 -32.5 195.5t-77.5 107.5v4h735q140 0 217 17l35 -367l-4 -2q-74 152 -322 152h-270v-361h156
q204 0 319 15l-59 -345h-4q-49 130 -224 130h-188v-461h223q135 0 240.5 49t171.5 143z" />
    <glyph glyph-name="ecircumflex" unicode="&#xea;" 
d="M461 1493l-4 -2l-162 192q61 34 142 101t134 127h146q52 -60 131.5 -126t144.5 -102l-162 -192l-4 2q-11 34 -68 106.5t-116 133.5q-58 -60 -114.5 -132.5t-67.5 -107.5zM1147 393l4 -2l-57 -407q-101 16 -250 16h-723v4q44 30 77 108.5t33 194.5v809q0 118 -32.5 195.5
t-77.5 107.5v4h735q140 0 217 17l35 -367l-4 -2q-74 152 -322 152h-270v-361h156q204 0 319 15l-59 -345h-4q-49 130 -224 130h-188v-461h223q135 0 240.5 49t171.5 143z" />
    <glyph glyph-name="edieresis" unicode="&#xeb;" 
d="M487 1552q-51 0 -85.5 35.5t-34.5 85.5q0 51 34.5 86t85.5 35q49 0 83 -35t34 -86q0 -50 -34 -85.5t-83 -35.5zM807 1552q-51 0 -86 35.5t-35 85.5q0 51 35 86t86 35q49 0 83 -35t34 -86q0 -50 -34 -85.5t-83 -35.5zM1147 393l4 -2l-57 -407q-101 16 -250 16h-723v4
q44 30 77 108.5t33 194.5v809q0 118 -32.5 195.5t-77.5 107.5v4h735q140 0 217 17l35 -367l-4 -2q-74 152 -322 152h-270v-361h156q204 0 319 15l-59 -345h-4q-49 130 -224 130h-188v-461h223q135 0 240.5 49t171.5 143z" />
    <glyph glyph-name="igrave" unicode="&#xec;" horiz-adv-x="745" 
d="M401 1509q-40 54 -127.5 142t-142.5 129l180 174l4 -2q10 -51 97.5 -172.5t154.5 -184.5zM121 0v4q44 30 77 108.5t33 194.5v809q0 118 -32.5 195.5t-77.5 107.5v4h504v-4q-44 -31 -77.5 -109t-33.5 -194v-809q0 -118 32.5 -195.5t78.5 -107.5v-4h-504z" />
    <glyph glyph-name="iacute" unicode="&#xed;" horiz-adv-x="745" 
d="M377 1509l-166 86q70 66 154 184.5t94 172.5l4 2l182 -174q-58 -41 -142.5 -128.5t-125.5 -142.5zM121 0v4q44 30 77 108.5t33 194.5v809q0 118 -32.5 195.5t-77.5 107.5v4h504v-4q-44 -31 -77.5 -109t-33.5 -194v-809q0 -118 32.5 -195.5t78.5 -107.5v-4h-504z" />
    <glyph glyph-name="icircumflex" unicode="&#xee;" horiz-adv-x="745" 
d="M188 1493l-4 -2l-161 192q61 34 142 101t134 127h145q52 -59 132 -125.5t145 -102.5l-162 -192l-4 2q-11 34 -68 106.5t-116 133.5q-59 -61 -115.5 -133t-67.5 -107zM121 1419v4h504v-4q-44 -31 -77.5 -109t-33.5 -194v-809q0 -118 32.5 -195.5t78.5 -107.5v-4h-504v4
q44 30 77 108.5t33 194.5v809q0 118 -32.5 195.5t-77.5 107.5z" />
    <glyph glyph-name="idieresis" unicode="&#xef;" horiz-adv-x="745" 
d="M215 1552q-51 0 -86 35.5t-35 85.5q0 51 35 86t86 35q49 0 83 -35t34 -86q0 -50 -34 -85.5t-83 -35.5zM535 1552q-51 0 -86 35.5t-35 85.5q0 51 35 86t86 35q49 0 82.5 -35t33.5 -86q0 -50 -33.5 -85.5t-82.5 -35.5zM121 0v4q44 30 77 108.5t33 194.5v809
q0 118 -32.5 195.5t-77.5 107.5v4h504v-4q-44 -31 -77.5 -109t-33.5 -194v-809q0 -118 32.5 -195.5t78.5 -107.5v-4h-504z" />
    <glyph glyph-name="eth" unicode="&#xf0;" horiz-adv-x="1536" 
d="M733 1423q326 0 519.5 -189.5t193.5 -520.5q0 -343 -186.5 -528t-559.5 -185h-561v4q44 31 77.5 109t33.5 194v320h-33q-113 0 -162 -35l-4 2l35 217h164v305q0 107 -33.5 190.5t-77.5 112.5v4h594zM721 203q205 0 313.5 131t108.5 379q0 259 -106 383.5t-326 124.5h-181
v-410h101q91 0 145 29l4 -2l-28 -211h-222v-424h191z" />
    <glyph glyph-name="ntilde" unicode="&#xf1;" horiz-adv-x="1617" 
d="M545 1532l-105 154q64 69 127 100t138 31q49 0 91 -19t80 -38t76 -19q43 0 74 23t41 55h4l109 -170q-62 -56 -119.5 -80.5t-126.5 -24.5q-52 0 -96.5 20t-83.5 40t-78 20q-78 0 -127 -92h-4zM121 0v4q44 30 77 108.5t33 194.5v819q0 91 -28 174t-82 119v4h465
q3 -35 20 -76t64 -120l295 -496q89 -149 188 -405h8q-33 187 -33 422v368q0 119 -30 196.5t-74 106.5v4h473v-4q-45 -30 -78 -108.5t-33 -194.5v-809q0 -116 33 -194.5t78 -108.5v-4h-432q-39 94 -102 195l-289 469q-73 117 -120 220.5t-93 245.5h-8q36 -213 36 -475v-348
q0 -119 30.5 -196.5t74.5 -106.5v-4h-473z" />
    <glyph glyph-name="ograve" unicode="&#xf2;" horiz-adv-x="1671" 
d="M872 1526q-40 54 -127.5 141.5t-142.5 128.5l180 174l4 -2q10 -51 97.5 -172t154.5 -184zM819 -41q-224 0 -391 97.5t-252.5 264t-85.5 377.5q0 230 90.5 402.5t263.5 268t406 95.5q328 0 529.5 -203.5t201.5 -533.5q0 -226 -94.5 -400.5t-268 -271t-399.5 -96.5z
M840 172q192 0 314 146t122 389q0 258 -118.5 401t-328.5 143q-201 0 -317.5 -145.5t-116.5 -386.5q0 -257 114.5 -402t330.5 -145z" />
    <glyph glyph-name="oacute" unicode="&#xf3;" horiz-adv-x="1671" 
d="M848 1526l-166 86q70 66 154 184t94 172l4 2l182 -174q-58 -42 -143 -129t-125 -141zM819 -41q-224 0 -391 97.5t-252.5 264t-85.5 377.5q0 230 90.5 402.5t263.5 268t406 95.5q328 0 529.5 -203.5t201.5 -533.5q0 -226 -94.5 -400.5t-268 -271t-399.5 -96.5zM840 172
q192 0 314 146t122 389q0 258 -118.5 401t-328.5 143q-201 0 -317.5 -145.5t-116.5 -386.5q0 -257 114.5 -402t330.5 -145z" />
    <glyph glyph-name="ocircumflex" unicode="&#xf4;" horiz-adv-x="1671" 
d="M659 1509l-4 -2l-161 193q61 34 142 100.5t134 126.5h145q51 -59 131.5 -125t145.5 -102l-162 -193l-4 2q-11 34 -68 106.5t-116 133.5q-59 -61 -115.5 -133t-67.5 -107zM850 1464q328 0 529.5 -203.5t201.5 -533.5q0 -226 -94.5 -400.5t-268 -271t-399.5 -96.5
q-224 0 -391 97.5t-252.5 264t-85.5 377.5q0 230 90.5 402.5t263.5 268t406 95.5zM840 172q192 0 314 146t122 389q0 258 -118.5 401t-328.5 143q-201 0 -317.5 -145.5t-116.5 -386.5q0 -257 114.5 -402t330.5 -145z" />
    <glyph glyph-name="otilde" unicode="&#xf5;" horiz-adv-x="1671" 
d="M573 1548l-104 154q65 69 127 100t137 31q49 0 91.5 -19t80.5 -38t76 -19q43 0 74 23t41 55h4l108 -170q-61 -55 -118.5 -79.5t-126.5 -24.5q-41 0 -78.5 12.5t-61 27t-55 27t-63.5 12.5q-78 0 -127 -92h-5zM819 -41q-224 0 -391 97.5t-252.5 264t-85.5 377.5
q0 230 90.5 402.5t263.5 268t406 95.5q328 0 529.5 -203.5t201.5 -533.5q0 -226 -94.5 -400.5t-268 -271t-399.5 -96.5zM840 172q192 0 314 146t122 389q0 258 -118.5 401t-328.5 143q-201 0 -317.5 -145.5t-116.5 -386.5q0 -257 114.5 -402t330.5 -145z" />
    <glyph glyph-name="odieresis" unicode="&#xf6;" horiz-adv-x="1671" 
d="M686 1569q-51 0 -86 35.5t-35 85.5q0 51 35 85.5t86 34.5q50 0 83.5 -34.5t33.5 -85.5q0 -50 -34 -85.5t-83 -35.5zM1006 1569q-51 0 -86 35.5t-35 85.5q0 51 35 85.5t86 34.5q49 0 82.5 -34.5t33.5 -85.5q0 -50 -33.5 -85.5t-82.5 -35.5zM819 -41q-224 0 -391 97.5
t-252.5 264t-85.5 377.5q0 230 90.5 402.5t263.5 268t406 95.5q328 0 529.5 -203.5t201.5 -533.5q0 -226 -94.5 -400.5t-268 -271t-399.5 -96.5zM840 172q192 0 314 146t122 389q0 258 -118.5 401t-328.5 143q-201 0 -317.5 -145.5t-116.5 -386.5q0 -257 114.5 -402
t330.5 -145z" />
    <glyph glyph-name="divide" unicode="&#xf7;" horiz-adv-x="999" 
d="M520 897q-66 0 -110.5 44.5t-44.5 109.5q0 64 45 108.5t110 44.5t108.5 -43.5t43.5 -109.5q0 -65 -44 -109.5t-108 -44.5zM41 506l-4 2l31 254h673q152 0 217 53l5 -2l-27 -256h-674q-89 0 -138 -11.5t-83 -39.5zM520 98q-66 0 -110.5 44.5t-44.5 109.5q0 64 45 109
t110 45t108.5 -44t43.5 -110q0 -65 -44 -109.5t-108 -44.5z" />
    <glyph glyph-name="oslash" unicode="&#xf8;" horiz-adv-x="1671" 
d="M1585 1423l-170 -202q166 -196 166 -494q0 -225 -95.5 -399.5t-269 -270.5t-397.5 -96q-222 0 -389 96l-49 -57q-76 -91 -111 -170l-4 -2l-180 174l170 201q-166 196 -166 495q0 347 204 555.5t556 208.5q214 0 389 -96l33 41q94 113 123 180l4 2zM829 1247
q-201 0 -317.5 -144t-116.5 -384q0 -178 58 -303l637 753q-107 78 -261 78zM840 178q192 0 314 144.5t122 384.5q0 179 -59 303l-639 -754q107 -78 262 -78z" />
    <glyph glyph-name="ugrave" unicode="&#xf9;" horiz-adv-x="1523" 
d="M791 1509q-40 54 -128 142t-143 129l180 174l5 -2q10 -51 97.5 -172.5t153.5 -184.5zM752 -35q-277 0 -422.5 155.5t-145.5 465.5v530q0 116 -33 194.5t-77 108.5v4h497v-4q-42 -31 -73 -108.5t-31 -194.5v-553q0 -209 70 -296t237 -87q149 0 219 93t70 290v553
q0 114 -32 192.5t-73 110.5v4h492v-4q-46 -30 -78.5 -107.5t-32.5 -195.5v-530q0 -312 -145.5 -466.5t-441.5 -154.5z" />
    <glyph glyph-name="uacute" unicode="&#xfa;" horiz-adv-x="1523" 
d="M766 1509l-166 86q70 66 154 184.5t94 172.5l4 2l182 -174q-58 -41 -142.5 -128.5t-125.5 -142.5zM752 -35q-277 0 -422.5 155.5t-145.5 465.5v530q0 116 -33 194.5t-77 108.5v4h497v-4q-42 -31 -73 -108.5t-31 -194.5v-553q0 -209 70 -296t237 -87q149 0 219 93t70 290
v553q0 114 -32 192.5t-73 110.5v4h492v-4q-46 -30 -78.5 -107.5t-32.5 -195.5v-530q0 -312 -145.5 -466.5t-441.5 -154.5z" />
    <glyph glyph-name="ucircumflex" unicode="&#xfb;" horiz-adv-x="1523" 
d="M578 1493l-5 -2l-161 192q61 34 142 101t134 127h146q52 -60 131.5 -126t144.5 -102l-162 -192l-4 2q-11 34 -68 106.5t-116 133.5q-58 -60 -114.5 -132.5t-67.5 -107.5zM958 1423h492v-4q-46 -30 -78.5 -107.5t-32.5 -195.5v-530q0 -312 -145.5 -466.5t-441.5 -154.5
q-277 0 -422.5 155.5t-145.5 465.5v530q0 116 -33 194.5t-77 108.5v4h497v-4q-42 -31 -73 -108.5t-31 -194.5v-553q0 -209 70 -296t237 -87q149 0 219 93t70 290v553q0 114 -32 192.5t-73 110.5v4z" />
    <glyph glyph-name="udieresis" unicode="&#xfc;" horiz-adv-x="1523" 
d="M604 1552q-51 0 -86 35.5t-35 85.5q0 51 35 86t86 35q49 0 83 -35t34 -86q0 -50 -34 -85.5t-83 -35.5zM924 1552q-51 0 -86 35.5t-35 85.5q0 51 35 86t86 35q49 0 82.5 -35t33.5 -86q0 -50 -33.5 -85.5t-82.5 -35.5zM752 -35q-277 0 -422.5 155.5t-145.5 465.5v530
q0 116 -33 194.5t-77 108.5v4h497v-4q-42 -31 -73 -108.5t-31 -194.5v-553q0 -209 70 -296t237 -87q149 0 219 93t70 290v553q0 114 -32 192.5t-73 110.5v4h492v-4q-46 -30 -78.5 -107.5t-32.5 -195.5v-530q0 -312 -145.5 -466.5t-441.5 -154.5z" />
    <glyph glyph-name="yacute" unicode="&#xfd;" horiz-adv-x="1316" 
d="M934 1780q-58 -41 -142.5 -128.5t-125.5 -142.5l-166 86q70 66 154 184.5t94 172.5l4 2zM944 1423h412v-4q-67 -51 -164 -209l-387 -639v-247q0 -126 35.5 -209t89.5 -111v-4h-531v4q50 30 87.5 114.5t37.5 205.5v237l-393 649q-93 153 -166 209v4h436v-4
q-13 -39 1.5 -96.5t46.5 -112.5l157 -272q40 -64 64 -133h8q7 21 16 41.5t16 32.5t18 31.5t15 27.5l156 272q32 55 45.5 112.5t-0.5 96.5v4z" />
    <glyph glyph-name="thorn" unicode="&#xfe;" horiz-adv-x="1251" 
d="M680 1184q512 0 512 -463q0 -228 -138.5 -348.5t-373.5 -120.5h-168q8 -190 94 -248v-4h-485v4q44 30 77 108.5t33 194.5v809q0 118 -32.5 195.5t-77.5 107.5v4h479v-4q-79 -52 -88 -235h168zM633 453q135 -1 203.5 65t68.5 193q0 140 -67 206t-205 64h-121v-526z" />
    <glyph glyph-name="ydieresis" unicode="&#xff;" horiz-adv-x="1316" 
d="M504 1552q-51 0 -86 35.5t-35 85.5q0 51 35 86t86 35q49 0 83 -35t34 -86q0 -50 -34 -85.5t-83 -35.5zM823 1552q-51 0 -86 35.5t-35 85.5q0 51 35 86t86 35q49 0 83 -35t34 -86q0 -50 -34 -85.5t-83 -35.5zM944 1423h412v-4q-67 -51 -164 -209l-387 -639v-247
q0 -126 35.5 -209t89.5 -111v-4h-531v4q50 30 87.5 114.5t37.5 205.5v237l-393 649q-93 153 -166 209v4h436v-4q-13 -39 1.5 -96.5t46.5 -112.5l157 -272q40 -64 64 -133h8q7 21 16 41.5t16 32.5t18 31.5t15 27.5l156 272q32 55 45.5 112.5t-0.5 96.5v4z" />
    <glyph glyph-name="Amacron" unicode="&#x100;" horiz-adv-x="1384" 
d="M506 1597q-88 0 -131 -16l-4 2l32 211h471q98 0 140 25l4 -2l-31 -218zM1221 336q39 -111 96 -202t104 -130v-4h-463v4q29 23 32 83.5t-32 168.5l-18 49h-528l-19 -49q-25 -66 -30.5 -121t2.5 -85.5t24 -45.5v-4h-430v4q47 42 104 132.5t95 199.5l293 844q21 59 17 108.5
t-18 81t-36 49.5v4h542v-4q-22 -20 -36 -51t-18 -80.5t18 -107.5zM670 1151q-8 -73 -29.5 -157.5t-36.5 -129.5t-49 -141l-76 -217h393l-75 217q-3 7 -15.5 43.5t-16.5 47t-15 43.5t-15.5 48l-13.5 45t-14 50t-11 47.5t-10.5 52.5t-7.5 51h-8z" />
    <glyph glyph-name="amacron" unicode="&#x101;" horiz-adv-x="1384" 
d="M483 1577q-88 0 -131 -16l-4 2l33 211h471q98 0 139 24l4 -2l-30 -217zM1221 336q39 -111 96 -202t104 -130v-4h-463v4q29 23 32 83.5t-32 168.5l-18 49h-528l-19 -49q-25 -66 -30.5 -121t2.5 -85.5t24 -45.5v-4h-430v4q47 42 104 132.5t95 199.5l293 844q21 59 17 108.5
t-18 81t-36 49.5v4h542v-4q-22 -20 -36 -51t-18 -80.5t18 -107.5zM670 1151q-8 -73 -29.5 -157.5t-36.5 -129.5t-49 -141l-76 -217h393l-75 217q-3 7 -15.5 43.5t-16.5 47t-15 43.5t-15.5 48l-13.5 45t-14 50t-11 47.5t-10.5 52.5t-7.5 51h-8z" />
    <glyph glyph-name="Abreve" unicode="&#x102;" horiz-adv-x="1384" 
d="M678 1520q-149 0 -243.5 78.5t-119.5 211.5l209 70l2 -4q-22 -61 19 -115.5t133 -54.5t133.5 53t22.5 117l2 4l204 -68q-33 -135 -126.5 -213.5t-235.5 -78.5zM1221 336q39 -111 96 -202t104 -130v-4h-463v4q29 23 32 83.5t-32 168.5l-18 49h-528l-19 -49
q-25 -66 -30.5 -121t2.5 -85.5t24 -45.5v-4h-430v4q47 42 104 132.5t95 199.5l293 844q21 59 17 108.5t-18 81t-36 49.5v4h542v-4q-22 -20 -36 -51t-18 -80.5t18 -107.5zM670 1151q-8 -73 -29.5 -157.5t-36.5 -129.5t-49 -141l-76 -217h393l-75 217q-3 7 -15.5 43.5
t-16.5 47t-15 43.5t-15.5 48l-13.5 45t-14 50t-11 47.5t-10.5 52.5t-7.5 51h-8z" />
    <glyph glyph-name="abreve" unicode="&#x103;" horiz-adv-x="1384" 
d="M678 1520q-149 0 -243.5 78.5t-119.5 211.5l209 70l2 -4q-22 -61 19 -115.5t133 -54.5t133.5 53t22.5 117l2 4l204 -68q-33 -135 -126.5 -213.5t-235.5 -78.5zM1221 336q39 -111 96 -202t104 -130v-4h-463v4q29 23 32 83.5t-32 168.5l-18 49h-528l-19 -49
q-25 -66 -30.5 -121t2.5 -85.5t24 -45.5v-4h-430v4q47 42 104 132.5t95 199.5l293 844q21 59 17 108.5t-18 81t-36 49.5v4h542v-4q-22 -20 -36 -51t-18 -80.5t18 -107.5zM670 1151q-8 -73 -29.5 -157.5t-36.5 -129.5t-49 -141l-76 -217h393l-75 217q-3 7 -15.5 43.5
t-16.5 47t-15 43.5t-15.5 48l-13.5 45t-14 50t-11 47.5t-10.5 52.5t-7.5 51h-8z" />
    <glyph glyph-name="Aogonek" unicode="&#x104;" horiz-adv-x="1384" 
d="M1288 0q-198 -89 -198 -227q0 -80 63.5 -112.5t151.5 5.5l2 -4l-131 -199q-123 -6 -213.5 56.5t-90.5 175.5q0 171 211 305h-125v4q29 23 32 83.5t-32 168.5l-18 49h-528l-19 -49q-25 -66 -30.5 -121t2.5 -85.5t24 -45.5v-4h-430v4q47 42 104 132.5t95 199.5l293 844
q21 59 17 108.5t-18 81t-36 49.5v4h542v-4q-22 -20 -36 -51t-18 -80.5t18 -107.5l301 -844q39 -111 96 -202t104 -130v-4h-133zM670 1151q-8 -73 -29.5 -157.5t-36.5 -129.5t-49 -141l-76 -217h393l-75 217q-3 7 -15.5 43.5t-16.5 47t-15 43.5t-15.5 48l-13.5 45t-14 50
t-11 47.5t-10.5 52.5t-7.5 51h-8z" />
    <glyph glyph-name="aogonek" unicode="&#x105;" horiz-adv-x="1384" 
d="M1288 0q-198 -89 -198 -227q0 -80 63.5 -112.5t151.5 5.5l2 -4l-131 -199q-123 -6 -213.5 56.5t-90.5 175.5q0 171 211 305h-125v4q29 23 32 83.5t-32 168.5l-18 49h-528l-19 -49q-25 -66 -30.5 -121t2.5 -85.5t24 -45.5v-4h-430v4q47 42 104 132.5t95 199.5l293 844
q21 59 17 108.5t-18 81t-36 49.5v4h542v-4q-22 -20 -36 -51t-18 -80.5t18 -107.5l301 -844q39 -111 96 -202t104 -130v-4h-133zM670 1151q-8 -73 -29.5 -157.5t-36.5 -129.5t-49 -141l-76 -217h393l-75 217q-3 7 -15.5 43.5t-16.5 47t-15 43.5t-15.5 48l-13.5 45t-14 50
t-11 47.5t-10.5 52.5t-7.5 51h-8z" />
    <glyph glyph-name="Cacute" unicode="&#x106;" horiz-adv-x="1345" 
d="M842 1526l-166 86q70 66 154 184t94 172l4 2l182 -174q-58 -42 -143 -129t-125 -141zM811 -31q-163 0 -299 55.5t-228 153.5t-143 232.5t-51 291.5q0 345 209.5 547.5t560.5 202.5q188 0 361 -51l32 -354l-4 -3q-61 95 -164.5 144t-226.5 49q-216 0 -339.5 -138.5
t-123.5 -375.5q0 -242 114 -389.5t322 -147.5q157 0 266 59t195 171l4 -2l-49 -367q-219 -78 -436 -78z" />
    <glyph glyph-name="cacute" unicode="&#x107;" horiz-adv-x="1345" 
d="M842 1526l-166 86q70 66 154 184t94 172l4 2l182 -174q-58 -42 -143 -129t-125 -141zM811 -31q-163 0 -299 55.5t-228 153.5t-143 232.5t-51 291.5q0 345 209.5 547.5t560.5 202.5q188 0 361 -51l32 -354l-4 -3q-61 95 -164.5 144t-226.5 49q-216 0 -339.5 -138.5
t-123.5 -375.5q0 -242 114 -389.5t322 -147.5q157 0 266 59t195 171l4 -2l-49 -367q-219 -78 -436 -78z" />
    <glyph glyph-name="Ccircumflex" unicode="&#x108;" horiz-adv-x="1345" 
d="M653 1509l-4 -2l-162 193q62 34 143.5 100.5t133.5 126.5h145q51 -59 131.5 -125t145.5 -102l-162 -193l-4 2q-11 34 -68 106.5t-116 133.5q-59 -61 -115.5 -133t-67.5 -107zM1292 416l4 -2l-49 -367q-219 -78 -436 -78q-163 0 -299 55.5t-228 153.5t-143 232.5
t-51 291.5q0 345 209.5 547.5t560.5 202.5q188 0 361 -51l32 -354l-4 -3q-61 95 -164.5 144t-226.5 49q-216 0 -339.5 -138.5t-123.5 -375.5q0 -242 114 -389.5t322 -147.5q157 0 266 59t195 171z" />
    <glyph glyph-name="ccircumflex" unicode="&#x109;" horiz-adv-x="1345" 
d="M653 1509l-4 -2l-162 193q62 34 143.5 100.5t133.5 126.5h145q51 -59 131.5 -125t145.5 -102l-162 -193l-4 2q-11 34 -68 106.5t-116 133.5q-59 -61 -115.5 -133t-67.5 -107zM1292 416l4 -2l-49 -367q-219 -78 -436 -78q-163 0 -299 55.5t-228 153.5t-143 232.5
t-51 291.5q0 345 209.5 547.5t560.5 202.5q188 0 361 -51l32 -354l-4 -3q-61 95 -164.5 144t-226.5 49q-216 0 -339.5 -138.5t-123.5 -375.5q0 -242 114 -389.5t322 -147.5q157 0 266 59t195 171z" />
    <glyph glyph-name="Cdotaccent" unicode="&#x10a;" horiz-adv-x="1345" 
d="M838 1548q-61 0 -103.5 43t-42.5 103q0 62 42.5 104.5t103.5 42.5q60 0 101.5 -42.5t41.5 -104.5q0 -60 -41.5 -103t-101.5 -43zM811 -31q-163 0 -299 55.5t-228 153.5t-143 232.5t-51 291.5q0 345 209.5 547.5t560.5 202.5q188 0 361 -51l32 -354l-4 -3
q-61 95 -164.5 144t-226.5 49q-216 0 -339.5 -138.5t-123.5 -375.5q0 -242 114 -389.5t322 -147.5q157 0 266 59t195 171l4 -2l-49 -367q-219 -78 -436 -78z" />
    <glyph glyph-name="cdotaccent" unicode="&#x10b;" horiz-adv-x="1345" 
d="M838 1548q-61 0 -103.5 43t-42.5 103q0 62 42.5 104.5t103.5 42.5q60 0 101.5 -42.5t41.5 -104.5q0 -60 -41.5 -103t-101.5 -43zM811 -31q-163 0 -299 55.5t-228 153.5t-143 232.5t-51 291.5q0 345 209.5 547.5t560.5 202.5q188 0 361 -51l32 -354l-4 -3
q-61 95 -164.5 144t-226.5 49q-216 0 -339.5 -138.5t-123.5 -375.5q0 -242 114 -389.5t322 -147.5q157 0 266 59t195 171l4 -2l-49 -367q-219 -78 -436 -78z" />
    <glyph glyph-name="Ccaron" unicode="&#x10c;" horiz-adv-x="1345" 
d="M764 1528q-52 59 -134.5 126t-142.5 101l162 193l4 -2q11 -34 68 -106t117 -134q61 64 116.5 135.5t65.5 104.5l4 2l162 -193q-62 -34 -143.5 -100.5t-133.5 -126.5h-145zM1292 416l4 -2l-49 -367q-219 -78 -436 -78q-163 0 -299 55.5t-228 153.5t-143 232.5t-51 291.5
q0 345 209.5 547.5t560.5 202.5q188 0 361 -51l32 -354l-4 -3q-61 95 -164.5 144t-226.5 49q-216 0 -339.5 -138.5t-123.5 -375.5q0 -242 114 -389.5t322 -147.5q157 0 266 59t195 171z" />
    <glyph glyph-name="ccaron" unicode="&#x10d;" horiz-adv-x="1345" 
d="M1024 1948l162 -193q-62 -34 -143.5 -100.5t-133.5 -126.5h-145q-52 59 -134.5 126t-142.5 101l162 193l4 -2q11 -34 68 -106t117 -134q61 64 116.5 135.5t65.5 104.5zM811 -31q-163 0 -299 55.5t-228 153.5t-143 232.5t-51 291.5q0 345 209.5 547.5t560.5 202.5
q188 0 361 -51l32 -354l-4 -3q-61 95 -164.5 144t-226.5 49q-216 0 -339.5 -138.5t-123.5 -375.5q0 -242 114 -389.5t322 -147.5q157 0 266 59t195 171l4 -2l-49 -367q-219 -78 -436 -78z" />
    <glyph glyph-name="Dcaron" unicode="&#x10e;" horiz-adv-x="1517" 
d="M578 1511q-52 60 -135 127.5t-142 100.5l162 192l4 -2q11 -34 67.5 -105.5t116.5 -133.5q62 66 117.5 136.5t65.5 102.5l4 2l161 -192q-61 -34 -142 -101t-134 -127h-145zM715 1423q326 0 519 -189.5t193 -520.5q0 -343 -186 -528t-559 -185h-561v4q44 30 77 108.5
t33 194.5v809q0 107 -33.5 190.5t-76.5 112.5v4h594zM702 203q205 0 313.5 131t108.5 379q0 259 -106 383.5t-326 124.5h-180v-1018h190z" />
    <glyph glyph-name="dcaron" unicode="&#x10f;" horiz-adv-x="1517" 
d="M838 1931l161 -192q-61 -34 -142 -101t-134 -127h-145q-52 60 -135 127.5t-142 100.5l162 192l4 -2q11 -34 67.5 -105.5t116.5 -133.5q62 66 117.5 136.5t65.5 102.5zM121 0v4q44 30 77 108.5t33 194.5v809q0 107 -33.5 190.5t-76.5 112.5v4h594q326 0 519 -189.5
t193 -520.5q0 -343 -186 -528t-559 -185h-561zM512 203h190q205 0 313.5 131t108.5 379q0 259 -106 383.5t-326 124.5h-180v-1018z" />
    <glyph glyph-name="Dcroat" unicode="&#x110;" horiz-adv-x="1536" 
d="M733 1423q326 0 519.5 -189.5t193.5 -520.5q0 -343 -186.5 -528t-559.5 -185h-561v4q44 31 77.5 109t33.5 194v320h-33q-113 0 -162 -35l-4 2l35 217h164v305q0 107 -33.5 190.5t-77.5 112.5v4h594zM721 203q205 0 313.5 131t108.5 379q0 259 -106 383.5t-326 124.5h-181
v-410h101q91 0 145 29l4 -2l-28 -211h-222v-424h191z" />
    <glyph glyph-name="dcroat" unicode="&#x111;" horiz-adv-x="1536" 
d="M733 1423q326 0 519.5 -189.5t193.5 -520.5q0 -343 -186.5 -528t-559.5 -185h-561v4q44 31 77.5 109t33.5 194v320h-33q-113 0 -162 -35l-4 2l35 217h164v305q0 107 -33.5 190.5t-77.5 112.5v4h594zM721 203q205 0 313.5 131t108.5 379q0 259 -106 383.5t-326 124.5h-181
v-410h101q91 0 145 29l4 -2l-28 -211h-222v-424h191z" />
    <glyph glyph-name="Emacron" unicode="&#x112;" 
d="M451 1577q-89 0 -132 -16l-4 2l33 211h471q99 0 139 24l5 -2l-31 -217zM1147 393l4 -2l-57 -407q-101 16 -250 16h-723v4q44 30 77 108.5t33 194.5v809q0 118 -32.5 195.5t-77.5 107.5v4h735q140 0 217 17l35 -367l-4 -2q-74 152 -322 152h-270v-361h156q204 0 319 15
l-59 -345h-4q-49 130 -224 130h-188v-461h223q135 0 240.5 49t171.5 143z" />
    <glyph glyph-name="emacron" unicode="&#x113;" 
d="M451 1577q-89 0 -132 -16l-4 2l33 211h471q99 0 139 24l5 -2l-31 -217zM1147 393l4 -2l-57 -407q-101 16 -250 16h-723v4q44 30 77 108.5t33 194.5v809q0 118 -32.5 195.5t-77.5 107.5v4h735q140 0 217 17l35 -367l-4 -2q-74 152 -322 152h-270v-361h156q204 0 319 15
l-59 -345h-4q-49 130 -224 130h-188v-461h223q135 0 240.5 49t171.5 143z" />
    <glyph glyph-name="Ebreve" unicode="&#x114;" 
d="M645 1520q-148 0 -242.5 78.5t-119.5 211.5l209 70l2 -4q-22 -61 18.5 -115.5t132.5 -54.5t133.5 53t22.5 117l2 4l205 -68q-33 -135 -127 -213.5t-236 -78.5zM1147 393l4 -2l-57 -407q-101 16 -250 16h-723v4q44 30 77 108.5t33 194.5v809q0 118 -32.5 195.5
t-77.5 107.5v4h735q140 0 217 17l35 -367l-4 -2q-74 152 -322 152h-270v-361h156q204 0 319 15l-59 -345h-4q-49 130 -224 130h-188v-461h223q135 0 240.5 49t171.5 143z" />
    <glyph glyph-name="ebreve" unicode="&#x115;" 
d="M645 1520q-148 0 -242.5 78.5t-119.5 211.5l209 70l2 -4q-22 -61 18.5 -115.5t132.5 -54.5t133.5 53t22.5 117l2 4l205 -68q-33 -135 -127 -213.5t-236 -78.5zM1147 393l4 -2l-57 -407q-101 16 -250 16h-723v4q44 30 77 108.5t33 194.5v809q0 118 -32.5 195.5
t-77.5 107.5v4h735q140 0 217 17l35 -367l-4 -2q-74 152 -322 152h-270v-361h156q204 0 319 15l-59 -345h-4q-49 130 -224 130h-188v-461h223q135 0 240.5 49t171.5 143z" />
    <glyph glyph-name="Edotaccent" unicode="&#x116;" 
d="M645 1532q-61 0 -103 42.5t-42 102.5q0 62 42 105t103 43q60 0 101.5 -43t41.5 -105q0 -60 -41.5 -102.5t-101.5 -42.5zM1147 393l4 -2l-57 -407q-101 16 -250 16h-723v4q44 30 77 108.5t33 194.5v809q0 118 -32.5 195.5t-77.5 107.5v4h735q140 0 217 17l35 -367l-4 -2
q-74 152 -322 152h-270v-361h156q204 0 319 15l-59 -345h-4q-49 130 -224 130h-188v-461h223q135 0 240.5 49t171.5 143z" />
    <glyph glyph-name="edotaccent" unicode="&#x117;" 
d="M645 1532q-61 0 -103 42.5t-42 102.5q0 62 42 105t103 43q60 0 101.5 -43t41.5 -105q0 -60 -41.5 -102.5t-101.5 -42.5zM1147 393l4 -2l-57 -407q-101 16 -250 16h-723v4q44 30 77 108.5t33 194.5v809q0 118 -32.5 195.5t-77.5 107.5v4h735q140 0 217 17l35 -367l-4 -2
q-74 152 -322 152h-270v-361h156q204 0 319 15l-59 -345h-4q-49 130 -224 130h-188v-461h223q135 0 240.5 49t171.5 143z" />
    <glyph glyph-name="Eogonek" unicode="&#x118;" 
d="M997 -4q-188 -89 -188 -223q0 -80 63.5 -112.5t151.5 5.5l2 -4l-131 -199q-123 -6 -213 56.5t-90 175.5q0 171 211 305h-682v4q44 30 77 108.5t33 194.5v809q0 118 -32.5 195.5t-77.5 107.5v4h735q140 0 217 17l35 -367l-4 -2q-74 152 -322 152h-270v-361h156
q204 0 319 15l-59 -345h-4q-49 130 -224 130h-188v-461h223q135 0 240.5 49t171.5 143l4 -2l-57 -407q-51 9 -97 12z" />
    <glyph glyph-name="eogonek" unicode="&#x119;" 
d="M997 -4q-188 -89 -188 -223q0 -80 63.5 -112.5t151.5 5.5l2 -4l-131 -199q-123 -6 -213 56.5t-90 175.5q0 171 211 305h-682v4q44 30 77 108.5t33 194.5v809q0 118 -32.5 195.5t-77.5 107.5v4h735q140 0 217 17l35 -367l-4 -2q-74 152 -322 152h-270v-361h156
q204 0 319 15l-59 -345h-4q-49 130 -224 130h-188v-461h223q135 0 240.5 49t171.5 143l4 -2l-57 -407q-51 9 -97 12z" />
    <glyph glyph-name="Ecaron" unicode="&#x11a;" 
d="M571 1511q-53 60 -135 127.5t-141 100.5l162 192l4 -2q11 -34 67.5 -105.5t116.5 -133.5q61 65 116.5 135.5t65.5 103.5l4 2l162 -192q-61 -34 -142 -101t-134 -127h-146zM1147 393l4 -2l-57 -407q-101 16 -250 16h-723v4q44 30 77 108.5t33 194.5v809q0 118 -32.5 195.5
t-77.5 107.5v4h735q140 0 217 17l35 -367l-4 -2q-74 152 -322 152h-270v-361h156q204 0 319 15l-59 -345h-4q-49 130 -224 130h-188v-461h223q135 0 240.5 49t171.5 143z" />
    <glyph glyph-name="ecaron" unicode="&#x11b;" 
d="M571 1511q-53 60 -135 127.5t-141 100.5l162 192l4 -2q11 -34 67.5 -105.5t116.5 -133.5q61 65 116.5 135.5t65.5 103.5l4 2l162 -192q-61 -34 -142 -101t-134 -127h-146zM1147 393l4 -2l-57 -407q-101 16 -250 16h-723v4q44 30 77 108.5t33 194.5v809q0 118 -32.5 195.5
t-77.5 107.5v4h735q140 0 217 17l35 -367l-4 -2q-74 152 -322 152h-270v-361h156q204 0 319 15l-59 -345h-4q-49 130 -224 130h-188v-461h223q135 0 240.5 49t171.5 143z" />
    <glyph glyph-name="Gcircumflex" unicode="&#x11c;" horiz-adv-x="1437" 
d="M643 1509l-4 -2l-162 193q62 34 143.5 100.5t133.5 126.5h145q51 -59 131.5 -125t145.5 -102l-162 -193l-4 2q-11 34 -68 106t-117 134q-58 -60 -114.5 -132.5t-67.5 -107.5zM1030 762h356v-4q-35 -23 -51 -94t-16 -209v-338q-103 -66 -244 -107t-264 -41
q-320 0 -520.5 201.5t-200.5 521.5q0 352 208.5 556t553.5 204q216 0 389 -55l31 -334l-4 -2q-156 176 -422 176q-214 0 -333.5 -140.5t-119.5 -383.5q0 -245 117 -386t321 -141q130 0 226 45v334q-208 -4 -305 -106l-4 2l32 313q68 -12 250 -12z" />
    <glyph glyph-name="gcircumflex" unicode="&#x11d;" horiz-adv-x="1437" 
d="M643 1509l-4 -2l-162 193q62 34 143.5 100.5t133.5 126.5h145q51 -59 131.5 -125t145.5 -102l-162 -193l-4 2q-11 34 -68 106t-117 134q-58 -60 -114.5 -132.5t-67.5 -107.5zM1030 762h356v-4q-35 -23 -51 -94t-16 -209v-338q-103 -66 -244 -107t-264 -41
q-320 0 -520.5 201.5t-200.5 521.5q0 352 208.5 556t553.5 204q216 0 389 -55l31 -334l-4 -2q-156 176 -422 176q-214 0 -333.5 -140.5t-119.5 -383.5q0 -245 117 -386t321 -141q130 0 226 45v334q-208 -4 -305 -106l-4 2l32 313q68 -12 250 -12z" />
    <glyph glyph-name="Gbreve" unicode="&#x11e;" horiz-adv-x="1437" 
d="M827 1536q-148 0 -242 79t-120 212l209 69l2 -4q-22 -61 18.5 -115.5t132.5 -54.5t133.5 53t22.5 117l2 4l205 -67q-33 -135 -127 -214t-236 -79zM1030 762h356v-4q-35 -23 -51 -94t-16 -209v-338q-103 -66 -244 -107t-264 -41q-320 0 -520.5 201.5t-200.5 521.5
q0 352 208.5 556t553.5 204q216 0 389 -55l31 -334l-4 -2q-156 176 -422 176q-214 0 -333.5 -140.5t-119.5 -383.5q0 -245 117 -386t321 -141q130 0 226 45v334q-208 -4 -305 -106l-4 2l32 313q68 -12 250 -12z" />
    <glyph glyph-name="gbreve" unicode="&#x11f;" horiz-adv-x="1437" 
d="M827 1536q-148 0 -242 79t-120 212l209 69l2 -4q-22 -61 18.5 -115.5t132.5 -54.5t133.5 53t22.5 117l2 4l205 -67q-33 -135 -127 -214t-236 -79zM1030 762h356v-4q-35 -23 -51 -94t-16 -209v-338q-103 -66 -244 -107t-264 -41q-320 0 -520.5 201.5t-200.5 521.5
q0 352 208.5 556t553.5 204q216 0 389 -55l31 -334l-4 -2q-156 176 -422 176q-214 0 -333.5 -140.5t-119.5 -383.5q0 -245 117 -386t321 -141q130 0 226 45v334q-208 -4 -305 -106l-4 2l32 313q68 -12 250 -12z" />
    <glyph glyph-name="Gdotaccent" unicode="&#x120;" horiz-adv-x="1437" 
d="M827 1548q-61 0 -103 43t-42 103q0 62 42 104.5t103 42.5q60 0 102 -43t42 -104q0 -60 -42 -103t-102 -43zM1030 762h356v-4q-35 -23 -51 -94t-16 -209v-338q-103 -66 -244 -107t-264 -41q-320 0 -520.5 201.5t-200.5 521.5q0 352 208.5 556t553.5 204q216 0 389 -55
l31 -334l-4 -2q-156 176 -422 176q-214 0 -333.5 -140.5t-119.5 -383.5q0 -245 117 -386t321 -141q130 0 226 45v334q-208 -4 -305 -106l-4 2l32 313q68 -12 250 -12z" />
    <glyph glyph-name="gdotaccent" unicode="&#x121;" horiz-adv-x="1437" 
d="M827 1548q-61 0 -103 43t-42 103q0 62 42 104.5t103 42.5q60 0 102 -43t42 -104q0 -60 -42 -103t-102 -43zM1030 762h356v-4q-35 -23 -51 -94t-16 -209v-338q-103 -66 -244 -107t-264 -41q-320 0 -520.5 201.5t-200.5 521.5q0 352 208.5 556t553.5 204q216 0 389 -55
l31 -334l-4 -2q-156 176 -422 176q-214 0 -333.5 -140.5t-119.5 -383.5q0 -245 117 -386t321 -141q130 0 226 45v334q-208 -4 -305 -106l-4 2l32 313q68 -12 250 -12z" />
    <glyph glyph-name="uni0122" unicode="&#x122;" horiz-adv-x="1437" 
d="M1030 762h356v-4q-35 -23 -51 -94t-16 -209v-338q-103 -66 -244 -107t-264 -41q-320 0 -520.5 201.5t-200.5 521.5q0 352 208.5 556t553.5 204q216 0 389 -55l31 -334l-4 -2q-156 176 -422 176q-214 0 -333.5 -140.5t-119.5 -383.5q0 -245 117 -386t321 -141
q130 0 226 45v334q-208 -4 -305 -106l-4 2l32 313q68 -12 250 -12zM709 -106l266 -19l2 -4q-72 -103 -128 -220.5t-79 -205.5l-170 61q28 50 65.5 186.5t43.5 201.5z" />
    <glyph glyph-name="uni0123" unicode="&#x123;" horiz-adv-x="1437" 
d="M1030 762h356v-4q-35 -23 -51 -94t-16 -209v-338q-103 -66 -244 -107t-264 -41q-320 0 -520.5 201.5t-200.5 521.5q0 352 208.5 556t553.5 204q216 0 389 -55l31 -334l-4 -2q-156 176 -422 176q-214 0 -333.5 -140.5t-119.5 -383.5q0 -245 117 -386t321 -141
q130 0 226 45v334q-208 -4 -305 -106l-4 2l32 313q68 -12 250 -12zM709 -106l266 -19l2 -4q-72 -103 -128 -220.5t-79 -205.5l-170 61q28 50 65.5 186.5t43.5 201.5z" />
    <glyph glyph-name="Hcircumflex" unicode="&#x124;" horiz-adv-x="1568" 
d="M600 1493l-4 -2l-162 192q61 34 142.5 101t134.5 127h145q52 -59 132 -125.5t145 -102.5l-162 -192l-4 2q-11 34 -68 106t-117 134q-58 -60 -114.5 -132.5t-67.5 -107.5zM1448 1419q-44 -31 -77.5 -109t-33.5 -194v-817q0 -112 33 -188.5t78 -106.5v-4h-496v4
q41 31 73 108t32 187v358h-545v-350q0 -117 31 -195t73 -108v-4h-495v4q44 30 77 108.5t33 194.5v809q0 118 -32.5 195.5t-77.5 107.5v4h495v-4q-41 -31 -72.5 -109.5t-31.5 -193.5v-254h545v254q0 117 -31 195t-74 108v4h496v-4z" />
    <glyph glyph-name="hcircumflex" unicode="&#x125;" horiz-adv-x="1568" 
d="M600 1493l-4 -2l-162 192q61 34 142.5 101t134.5 127h145q52 -59 132 -125.5t145 -102.5l-162 -192l-4 2q-11 34 -68 106t-117 134q-58 -60 -114.5 -132.5t-67.5 -107.5zM1448 1419q-44 -31 -77.5 -109t-33.5 -194v-817q0 -112 33 -188.5t78 -106.5v-4h-496v4
q41 31 73 108t32 187v358h-545v-350q0 -117 31 -195t73 -108v-4h-495v4q44 30 77 108.5t33 194.5v809q0 118 -32.5 195.5t-77.5 107.5v4h495v-4q-41 -31 -72.5 -109.5t-31.5 -193.5v-254h545v254q0 117 -31 195t-74 108v4h496v-4z" />
    <glyph glyph-name="Hbar" unicode="&#x126;" horiz-adv-x="1615" 
d="M1552 1026h-196v-727q0 -112 32.5 -188.5t77.5 -106.5v-4h-495v4q41 31 72.5 108t31.5 187v358h-545v-350q0 -117 31 -195t74 -108v-4h-496v4q44 31 77.5 109t33.5 194v719h-74q-78 0 -137 -27l-4 2l33 203h176q-10 81 -39 135.5t-66 79.5v4h496v-4q-33 -25 -60.5 -80
t-37.5 -135h532q-19 159 -98 215v4h495v-4q-35 -24 -64 -79.5t-40 -135.5h70q66 0 145 29l4 -2zM1075 862v164h-545v-164h545z" />
    <glyph glyph-name="hbar" unicode="&#x127;" horiz-adv-x="1736" 
d="M1614 995h-205v-696q0 -114 33 -192.5t74 -106.5h-494q40 28 73 108t33 199v342h-544v-350q0 -115 33 -193t73 -106h-493q40 28 73 108t33 199v688h-65q-45 0 -86.5 -14t-61.5 -37l39 236h172q-11 183 -104 243h493q-92 -49 -104 -243h540q-11 183 -104 243h494
q-93 -49 -105 -243h82q39 0 82.5 12t71.5 31zM1128 866v129h-544v-129h544z" />
    <glyph glyph-name="Itilde" unicode="&#x128;" horiz-adv-x="745" 
d="M102 1532l-104 154q65 69 127 100t137 31q49 0 91.5 -19t80.5 -38t76 -19q43 0 74 23t41 55h4l108 -170q-62 -56 -119 -80.5t-126 -24.5q-52 0 -96.5 20t-84 40t-78.5 20q-78 0 -127 -92h-4zM121 0v4q44 30 77 108.5t33 194.5v809q0 118 -32.5 195.5t-77.5 107.5v4h504
v-4q-44 -31 -77.5 -109t-33.5 -194v-809q0 -118 32.5 -195.5t78.5 -107.5v-4h-504z" />
    <glyph glyph-name="itilde" unicode="&#x129;" horiz-adv-x="745" 
d="M102 1532l-104 154q65 69 127 100t137 31q49 0 91.5 -19t80.5 -38t76 -19q43 0 74 23t41 55h4l108 -170q-62 -56 -119 -80.5t-126 -24.5q-52 0 -96.5 20t-84 40t-78.5 20q-78 0 -127 -92h-4zM121 0v4q44 30 77 108.5t33 194.5v809q0 118 -32.5 195.5t-77.5 107.5v4h504
v-4q-44 -31 -77.5 -109t-33.5 -194v-809q0 -118 32.5 -195.5t78.5 -107.5v-4h-504z" />
    <glyph glyph-name="Imacron" unicode="&#x12a;" horiz-adv-x="745" 
d="M47 1561l-4 2l33 211h471q99 0 139 24l4 -2l-31 -217l-481 -2q-88 0 -131 -16zM121 0v4q44 30 77 108.5t33 194.5v809q0 118 -32.5 195.5t-77.5 107.5v4h504v-4q-44 -31 -77.5 -109t-33.5 -194v-809q0 -118 32.5 -195.5t78.5 -107.5v-4h-504z" />
    <glyph glyph-name="imacron" unicode="&#x12b;" horiz-adv-x="745" 
d="M47 1561l-4 2l33 211h471q99 0 139 24l4 -2l-31 -217l-481 -2q-88 0 -131 -16zM121 0v4q44 30 77 108.5t33 194.5v809q0 118 -32.5 195.5t-77.5 107.5v4h504v-4q-44 -31 -77.5 -109t-33.5 -194v-809q0 -118 32.5 -195.5t78.5 -107.5v-4h-504z" />
    <glyph glyph-name="Ibreve" unicode="&#x12c;" horiz-adv-x="745" 
d="M373 1520q-149 0 -243.5 78.5t-119.5 211.5l209 70l2 -4q-22 -61 19 -115.5t133 -54.5t133 53t22 117l2 4l205 -68q-33 -135 -126.5 -213.5t-235.5 -78.5zM121 0v4q44 30 77 108.5t33 194.5v809q0 118 -32.5 195.5t-77.5 107.5v4h504v-4q-44 -31 -77.5 -109t-33.5 -194
v-809q0 -118 32.5 -195.5t78.5 -107.5v-4h-504z" />
    <glyph glyph-name="ibreve" unicode="&#x12d;" horiz-adv-x="745" 
d="M373 1520q-149 0 -243.5 78.5t-119.5 211.5l209 70l2 -4q-22 -61 19 -115.5t133 -54.5t133 53t22 117l2 4l205 -68q-33 -135 -126.5 -213.5t-235.5 -78.5zM121 0v4q44 30 77 108.5t33 194.5v809q0 118 -32.5 195.5t-77.5 107.5v4h504v-4q-44 -31 -77.5 -109t-33.5 -194
v-809q0 -118 32.5 -195.5t78.5 -107.5v-4h-504z" />
    <glyph glyph-name="Iogonek" unicode="&#x12e;" horiz-adv-x="745" 
d="M625 1419q-44 -31 -77.5 -109t-33.5 -194v-809q0 -118 32.5 -195.5t78.5 -107.5v-4h-111q-199 -89 -199 -227q0 -80 63.5 -112.5t151.5 5.5l2 -4l-131 -199q-123 -6 -213 56.5t-90 175.5q0 171 211 305h-188v4q44 30 77 108.5t33 194.5v809q0 118 -32.5 195.5
t-77.5 107.5v4h504v-4z" />
    <glyph glyph-name="iogonek" unicode="&#x12f;" horiz-adv-x="745" 
d="M625 1419q-44 -31 -77.5 -109t-33.5 -194v-809q0 -118 32.5 -195.5t78.5 -107.5v-4h-111q-199 -89 -199 -227q0 -80 63.5 -112.5t151.5 5.5l2 -4l-131 -199q-123 -6 -213 56.5t-90 175.5q0 171 211 305h-188v4q44 30 77 108.5t33 194.5v809q0 118 -32.5 195.5
t-77.5 107.5v4h504v-4z" />
    <glyph glyph-name="Idotaccent" unicode="&#x130;" horiz-adv-x="745" 
d="M373 1532q-61 0 -103.5 42.5t-42.5 102.5q0 62 42.5 105t103.5 43q60 0 101.5 -43t41.5 -105q0 -60 -41.5 -102.5t-101.5 -42.5zM121 0v4q44 30 77 108.5t33 194.5v809q0 118 -32.5 195.5t-77.5 107.5v4h504v-4q-44 -31 -77.5 -109t-33.5 -194v-809q0 -118 32.5 -195.5
t78.5 -107.5v-4h-504z" />
    <glyph glyph-name="IJ" unicode="&#x132;" horiz-adv-x="1624" 
d="M121 0v4q44 30 77 108.5t33 194.5v809q0 118 -32.5 195.5t-77.5 107.5v4h504v-4q-44 -31 -77.5 -109t-33.5 -194v-809q0 -118 32.5 -195.5t78.5 -107.5v-4h-504zM942 -45q-84 0 -205 31l-20 317h4q8 -15 21.5 -32t38.5 -40t64 -38t85 -15q114 0 171.5 59t57.5 171v706
q0 119 -32.5 197t-77.5 108v4h501v-4q-44 -30 -77 -108.5t-33 -194.5v-635q0 -273 -119 -399.5t-379 -126.5z" />
    <glyph glyph-name="ij" unicode="&#x133;" horiz-adv-x="1624" 
d="M121 0v4q44 30 77 108.5t33 194.5v809q0 118 -32.5 195.5t-77.5 107.5v4h504v-4q-44 -31 -77.5 -109t-33.5 -194v-809q0 -118 32.5 -195.5t78.5 -107.5v-4h-504zM942 -45q-84 0 -205 31l-20 317h4q8 -15 21.5 -32t38.5 -40t64 -38t85 -15q114 0 171.5 59t57.5 171v706
q0 119 -32.5 197t-77.5 108v4h501v-4q-44 -30 -77 -108.5t-33 -194.5v-635q0 -273 -119 -399.5t-379 -126.5z" />
    <glyph glyph-name="Jcircumflex" unicode="&#x134;" horiz-adv-x="919" 
d="M387 1493l-4 -2l-162 192q61 34 142.5 101t134.5 127h145q52 -59 132 -125.5t145 -102.5l-162 -192l-4 2q-11 34 -68 106t-117 134q-58 -60 -114.5 -132.5t-67.5 -107.5zM344 1419v4h502v-4q-44 -31 -77.5 -109t-33.5 -194v-635q0 -273 -118.5 -399.5t-378.5 -126.5
q-84 0 -205 31l-21 317h4q8 -15 21.5 -32t38.5 -40t64 -38t85 -15q114 0 172 59t58 171v706q0 119 -32.5 197t-78.5 108z" />
    <glyph glyph-name="jcircumflex" unicode="&#x135;" horiz-adv-x="919" 
d="M387 1493l-4 -2l-162 192q61 34 142.5 101t134.5 127h145q52 -59 132 -125.5t145 -102.5l-162 -192l-4 2q-11 34 -68 106t-117 134q-58 -60 -114.5 -132.5t-67.5 -107.5zM344 1419v4h502v-4q-44 -31 -77.5 -109t-33.5 -194v-635q0 -273 -118.5 -399.5t-378.5 -126.5
q-84 0 -205 31l-21 317h4q8 -15 21.5 -32t38.5 -40t64 -38t85 -15q114 0 172 59t58 171v706q0 119 -32.5 197t-78.5 108z" />
    <glyph glyph-name="uni0136" unicode="&#x136;" horiz-adv-x="1392" 
d="M612 4v-4h-491v4q44 30 77 108.5t33 194.5v817q0 112 -32.5 188.5t-77.5 106.5v4h491v-4q-40 -30 -70 -108.5t-30 -194.5v-811q0 -116 29.5 -193.5t70.5 -107.5zM1233 231q54 -78 104 -122t123 -74v-4l-411 -70q-18 72 -101 195l-413 614l346 490q70 102 67 163h426v-4
q-115 -55 -241 -227l-289 -391zM666 -90l266 -19l2 -4q-72 -103 -128 -220.5t-79 -205.5l-170 62q28 50 65.5 186t43.5 201z" />
    <glyph glyph-name="uni0137" unicode="&#x137;" horiz-adv-x="1392" 
d="M612 4v-4h-491v4q44 30 77 108.5t33 194.5v817q0 112 -32.5 188.5t-77.5 106.5v4h491v-4q-40 -30 -70 -108.5t-30 -194.5v-811q0 -116 29.5 -193.5t70.5 -107.5zM1233 231q54 -78 104 -122t123 -74v-4l-411 -70q-18 72 -101 195l-413 614l346 490q70 102 67 163h426v-4
q-115 -55 -241 -227l-289 -391zM666 -90l266 -19l2 -4q-72 -103 -128 -220.5t-79 -205.5l-170 62q28 50 65.5 186t43.5 201z" />
    <glyph glyph-name="Lacute" unicode="&#x139;" horiz-adv-x="1134" 
d="M371 1509l-166 86q70 66 154 184.5t94 172.5l4 2l182 -174q-58 -41 -142.5 -128.5t-125.5 -142.5zM1075 -16q-89 16 -227 16h-727v4q44 30 77 108.5t33 194.5v817q0 112 -32.5 188.5t-77.5 106.5v4h502v-4q-44 -31 -77.5 -109t-33.5 -194v-911h203q277 0 409 184l4 -2z
" />
    <glyph glyph-name="lacute" unicode="&#x13a;" horiz-adv-x="1134" 
d="M371 1509l-166 86q70 66 154 184.5t94 172.5l4 2l182 -174q-58 -41 -142.5 -128.5t-125.5 -142.5zM1075 -16q-89 16 -227 16h-727v4q44 30 77 108.5t33 194.5v817q0 112 -32.5 188.5t-77.5 106.5v4h502v-4q-44 -31 -77.5 -109t-33.5 -194v-911h203q277 0 409 184l4 -2z
" />
    <glyph glyph-name="uni013B" unicode="&#x13b;" horiz-adv-x="1134" 
d="M1075 -16q-89 16 -227 16h-727v4q44 30 77 108.5t33 194.5v817q0 112 -32.5 188.5t-77.5 106.5v4h502v-4q-44 -31 -77.5 -109t-33.5 -194v-911h203q277 0 409 184l4 -2zM578 -539l-170 62q28 50 65 185.5t43 201.5l266 -19l2 -4q-72 -102 -127.5 -220t-78.5 -206z" />
    <glyph glyph-name="uni013C" unicode="&#x13c;" horiz-adv-x="1134" 
d="M1075 -16q-89 16 -227 16h-727v4q44 30 77 108.5t33 194.5v817q0 112 -32.5 188.5t-77.5 106.5v4h502v-4q-44 -31 -77.5 -109t-33.5 -194v-911h203q277 0 409 184l4 -2zM578 -539l-170 62q28 50 65 185.5t43 201.5l266 -19l2 -4q-72 -102 -127.5 -220t-78.5 -206z" />
    <glyph glyph-name="Lcaron" unicode="&#x13d;" horiz-adv-x="1134" 
d="M293 1511q-52 60 -135 127.5t-142 100.5l162 192l4 -2q11 -34 67.5 -105.5t117.5 -133.5q61 65 116.5 135.5t65.5 103.5l4 2l162 -192q-61 -34 -142.5 -101t-134.5 -127h-145zM1124 389l4 -2l-53 -403q-89 16 -227 16h-727v4q44 30 77 108.5t33 194.5v817
q0 112 -32.5 188.5t-77.5 106.5v4h502v-4q-44 -31 -77.5 -109t-33.5 -194v-911h203q277 0 409 184z" />
    <glyph glyph-name="lcaron" unicode="&#x13e;" horiz-adv-x="1134" 
d="M553 1931l162 -192q-61 -34 -142.5 -101t-134.5 -127h-145q-52 60 -135 127.5t-142 100.5l162 192l4 -2q11 -34 67.5 -105.5t117.5 -133.5q61 65 116.5 135.5t65.5 103.5zM1075 -16q-89 16 -227 16h-727v4q44 30 77 108.5t33 194.5v817q0 112 -32.5 188.5t-77.5 106.5v4
h502v-4q-44 -31 -77.5 -109t-33.5 -194v-911h203q277 0 409 184l4 -2z" />
    <glyph glyph-name="Ldot" unicode="&#x13f;" horiz-adv-x="1134" 
d="M1075 -16q-89 16 -227 16h-727v4q44 30 77 108.5t33 194.5v817q0 112 -32.5 188.5t-77.5 106.5v4h502v-4q-44 -31 -77.5 -109t-33.5 -194v-911h203q277 0 409 184l4 -2z" />
    <glyph glyph-name="ldot" unicode="&#x140;" horiz-adv-x="1134" 
d="M1075 -16q-89 16 -227 16h-727v4q44 30 77 108.5t33 194.5v817q0 112 -32.5 188.5t-77.5 106.5v4h502v-4q-44 -31 -77.5 -109t-33.5 -194v-911h203q277 0 409 184l4 -2z" />
    <glyph glyph-name="Lslash" unicode="&#x141;" horiz-adv-x="1165" 
d="M1155 389l4 -2l-53 -403q-89 16 -227 16h-727v4q44 30 77 108.5t33 194.5v189l-53 -29q-99 -52 -133 -113h-4l-45 203l235 127v440q0 112 -32.5 188.5t-77.5 106.5v4h501v-4q-44 -30 -77 -108.5t-33 -194.5v-280l145 77q48 26 91 62t57 61h4l55 -207l-352 -186v-438h202
q278 0 410 184z" />
    <glyph glyph-name="lslash" unicode="&#x142;" horiz-adv-x="1165" 
d="M1155 389l4 -2l-53 -403q-89 16 -227 16h-727v4q44 30 77 108.5t33 194.5v189l-53 -29q-99 -52 -133 -113h-4l-45 203l235 127v440q0 112 -32.5 188.5t-77.5 106.5v4h501v-4q-44 -30 -77 -108.5t-33 -194.5v-280l145 77q48 26 91 62t57 61h4l55 -207l-352 -186v-438h202
q278 0 410 184z" />
    <glyph glyph-name="Nacute" unicode="&#x143;" horiz-adv-x="1617" 
d="M819 1509l-166 86q70 66 154 184.5t94 172.5l4 2l182 -174q-58 -41 -142.5 -128.5t-125.5 -142.5zM121 0v4q44 30 77 108.5t33 194.5v819q0 91 -28 174t-82 119v4h465q3 -35 20 -76t64 -120l295 -496q89 -149 188 -405h8q-33 187 -33 422v368q0 119 -30 196.5t-74 106.5
v4h473v-4q-45 -30 -78 -108.5t-33 -194.5v-809q0 -116 33 -194.5t78 -108.5v-4h-432q-39 94 -102 195l-289 469q-73 117 -120 220.5t-93 245.5h-8q36 -213 36 -475v-348q0 -119 30.5 -196.5t74.5 -106.5v-4h-473z" />
    <glyph glyph-name="nacute" unicode="&#x144;" horiz-adv-x="1617" 
d="M819 1509l-166 86q70 66 154 184.5t94 172.5l4 2l182 -174q-58 -41 -142.5 -128.5t-125.5 -142.5zM121 0v4q44 30 77 108.5t33 194.5v819q0 91 -28 174t-82 119v4h465q3 -35 20 -76t64 -120l295 -496q89 -149 188 -405h8q-33 187 -33 422v368q0 119 -30 196.5t-74 106.5
v4h473v-4q-45 -30 -78 -108.5t-33 -194.5v-809q0 -116 33 -194.5t78 -108.5v-4h-432q-39 94 -102 195l-289 469q-73 117 -120 220.5t-93 245.5h-8q36 -213 36 -475v-348q0 -119 30.5 -196.5t74.5 -106.5v-4h-473z" />
    <glyph glyph-name="uni0145" unicode="&#x145;" horiz-adv-x="1617" 
d="M121 0v4q44 30 77 108.5t33 194.5v819q0 91 -28 174t-82 119v4h465q3 -35 20 -76t64 -120l295 -496q89 -149 188 -405h8q-33 187 -33 422v368q0 119 -30 196.5t-74 106.5v4h473v-4q-45 -30 -78 -108.5t-33 -194.5v-809q0 -116 33 -194.5t78 -108.5v-4h-432
q-39 94 -102 195l-289 469q-73 117 -120 220.5t-93 245.5h-8q36 -213 36 -475v-348q0 -119 30.5 -196.5t74.5 -106.5v-4h-473zM784 -539l-170 62q28 50 65.5 186t43.5 201l266 -19l2 -4q-72 -103 -128 -220.5t-79 -205.5z" />
    <glyph glyph-name="uni0146" unicode="&#x146;" horiz-adv-x="1617" 
d="M121 0v4q44 30 77 108.5t33 194.5v819q0 91 -28 174t-82 119v4h465q3 -35 20 -76t64 -120l295 -496q89 -149 188 -405h8q-33 187 -33 422v368q0 119 -30 196.5t-74 106.5v4h473v-4q-45 -30 -78 -108.5t-33 -194.5v-809q0 -116 33 -194.5t78 -108.5v-4h-432
q-39 94 -102 195l-289 469q-73 117 -120 220.5t-93 245.5h-8q36 -213 36 -475v-348q0 -119 30.5 -196.5t74.5 -106.5v-4h-473zM784 -539l-170 62q28 50 65.5 186t43.5 201l266 -19l2 -4q-72 -103 -128 -220.5t-79 -205.5z" />
    <glyph glyph-name="Ncaron" unicode="&#x147;" horiz-adv-x="1617" 
d="M741 1511q-53 60 -135 127.5t-141 100.5l162 192l4 -2q11 -34 67.5 -105.5t116.5 -133.5q61 65 116.5 135.5t65.5 103.5l4 2l162 -192q-61 -34 -142 -101t-134 -127h-146zM1497 1419q-45 -30 -78 -108.5t-33 -194.5v-809q0 -116 33 -194.5t78 -108.5v-4h-432
q-39 94 -102 195l-289 469q-73 117 -120 220.5t-93 245.5h-8q36 -213 36 -475v-348q0 -119 30.5 -196.5t74.5 -106.5v-4h-473v4q44 30 77 108.5t33 194.5v819q0 91 -28 174t-82 119v4h465q3 -35 20 -76t64 -120l295 -496q89 -149 188 -405h8q-33 187 -33 422v368
q0 119 -30 196.5t-74 106.5v4h473v-4z" />
    <glyph glyph-name="ncaron" unicode="&#x148;" horiz-adv-x="1617" 
d="M1001 1931l162 -192q-61 -34 -142 -101t-134 -127h-146q-53 60 -135 127.5t-141 100.5l162 192l4 -2q11 -34 67.5 -105.5t116.5 -133.5q61 65 116.5 135.5t65.5 103.5zM121 0v4q44 30 77 108.5t33 194.5v819q0 91 -28 174t-82 119v4h465q3 -35 20 -76t64 -120l295 -496
q89 -149 188 -405h8q-33 187 -33 422v368q0 119 -30 196.5t-74 106.5v4h473v-4q-45 -30 -78 -108.5t-33 -194.5v-809q0 -116 33 -194.5t78 -108.5v-4h-432q-39 94 -102 195l-289 469q-73 117 -120 220.5t-93 245.5h-8q36 -213 36 -475v-348q0 -119 30.5 -196.5t74.5 -106.5
v-4h-473z" />
    <glyph glyph-name="Eng" unicode="&#x14a;" horiz-adv-x="1617" 
d="M1004 -381q-94 0 -187 35l-29 250h5q57 -80 165 -80q71 0 109.5 36t38.5 87q-40 83 -143 248l-289 460q-70 112 -117 219.5t-96 255.5h-8q22 -145 29 -245.5t7 -253.5v-324q0 -119 30.5 -196.5t74.5 -106.5v-4h-473v4q44 30 77 108.5t33 194.5v819q0 91 -28 174t-82 119
v4h465q3 -35 20 -76t64 -120l295 -496q88 -148 188 -405h8q-33 207 -33 422l-2 368q0 120 -28.5 197t-71.5 106v4h471v-4q-45 -30 -78 -108.5t-33 -194.5v-1007q0 -490 -382 -490z" />
    <glyph glyph-name="eng" unicode="&#x14b;" horiz-adv-x="1617" 
d="M1004 -381q-94 0 -187 35l-29 250h5q57 -80 165 -80q71 0 109.5 36t38.5 87q-40 83 -143 248l-289 460q-70 112 -117 219.5t-96 255.5h-8q22 -145 29 -245.5t7 -253.5v-324q0 -119 30.5 -196.5t74.5 -106.5v-4h-473v4q44 30 77 108.5t33 194.5v819q0 91 -28 174t-82 119
v4h465q3 -35 20 -76t64 -120l295 -496q88 -148 188 -405h8q-33 207 -33 422l-2 368q0 120 -28.5 197t-71.5 106v4h471v-4q-45 -30 -78 -108.5t-33 -194.5v-1007q0 -490 -382 -490z" />
    <glyph glyph-name="Omacron" unicode="&#x14c;" horiz-adv-x="1671" 
d="M518 1577l-4 2l33 211h471q97 0 139 25l4 -3l-31 -217l-481 -2q-88 0 -131 -16zM819 -41q-224 0 -391 97.5t-252.5 264t-85.5 377.5q0 230 90.5 402.5t263.5 268t406 95.5q328 0 529.5 -203.5t201.5 -533.5q0 -226 -94.5 -400.5t-268 -271t-399.5 -96.5zM840 172
q192 0 314 146t122 389q0 258 -118.5 401t-328.5 143q-201 0 -317.5 -145.5t-116.5 -386.5q0 -257 114.5 -402t330.5 -145z" />
    <glyph glyph-name="omacron" unicode="&#x14d;" horiz-adv-x="1671" 
d="M518 1577l-4 2l33 211h471q97 0 139 25l4 -3l-31 -217l-481 -2q-88 0 -131 -16zM819 -41q-224 0 -391 97.5t-252.5 264t-85.5 377.5q0 230 90.5 402.5t263.5 268t406 95.5q328 0 529.5 -203.5t201.5 -533.5q0 -226 -94.5 -400.5t-268 -271t-399.5 -96.5zM840 172
q192 0 314 146t122 389q0 258 -118.5 401t-328.5 143q-201 0 -317.5 -145.5t-116.5 -386.5q0 -257 114.5 -402t330.5 -145z" />
    <glyph glyph-name="Obreve" unicode="&#x14e;" horiz-adv-x="1671" 
d="M844 1536q-148 0 -243 79t-120 212l209 69l2 -4q-22 -61 19 -115.5t133 -54.5t133 53t22 117l2 4l205 -67q-33 -135 -126.5 -214t-235.5 -79zM819 -41q-224 0 -391 97.5t-252.5 264t-85.5 377.5q0 230 90.5 402.5t263.5 268t406 95.5q328 0 529.5 -203.5t201.5 -533.5
q0 -226 -94.5 -400.5t-268 -271t-399.5 -96.5zM840 172q192 0 314 146t122 389q0 258 -118.5 401t-328.5 143q-201 0 -317.5 -145.5t-116.5 -386.5q0 -257 114.5 -402t330.5 -145z" />
    <glyph glyph-name="obreve" unicode="&#x14f;" horiz-adv-x="1671" 
d="M844 1536q-148 0 -243 79t-120 212l209 69l2 -4q-22 -61 19 -115.5t133 -54.5t133 53t22 117l2 4l205 -67q-33 -135 -126.5 -214t-235.5 -79zM819 -41q-224 0 -391 97.5t-252.5 264t-85.5 377.5q0 230 90.5 402.5t263.5 268t406 95.5q328 0 529.5 -203.5t201.5 -533.5
q0 -226 -94.5 -400.5t-268 -271t-399.5 -96.5zM840 172q192 0 314 146t122 389q0 258 -118.5 401t-328.5 143q-201 0 -317.5 -145.5t-116.5 -386.5q0 -257 114.5 -402t330.5 -145z" />
    <glyph glyph-name="Ohungarumlaut" unicode="&#x150;" horiz-adv-x="1671" 
d="M641 1532l-152 76q65 60 149.5 179t94.5 171l4 2l162 -162q-188 -179 -258 -266zM938 1522l-152 75q64 61 148.5 179.5t95.5 171.5l4 2l170 -166q-55 -40 -138.5 -124t-127.5 -138zM819 -41q-224 0 -391 97.5t-252.5 264t-85.5 377.5q0 230 90.5 402.5t263.5 268
t406 95.5q328 0 529.5 -203.5t201.5 -533.5q0 -226 -94.5 -400.5t-268 -271t-399.5 -96.5zM840 172q192 0 314 146t122 389q0 258 -118.5 401t-328.5 143q-201 0 -317.5 -145.5t-116.5 -386.5q0 -257 114.5 -402t330.5 -145z" />
    <glyph glyph-name="ohungarumlaut" unicode="&#x151;" horiz-adv-x="1671" 
d="M641 1532l-152 76q65 60 149.5 179t94.5 171l4 2l162 -162q-188 -179 -258 -266zM938 1522l-152 75q64 61 148.5 179.5t95.5 171.5l4 2l170 -166q-55 -40 -138.5 -124t-127.5 -138zM819 -41q-224 0 -391 97.5t-252.5 264t-85.5 377.5q0 230 90.5 402.5t263.5 268
t406 95.5q328 0 529.5 -203.5t201.5 -533.5q0 -226 -94.5 -400.5t-268 -271t-399.5 -96.5zM840 172q192 0 314 146t122 389q0 258 -118.5 401t-328.5 143q-201 0 -317.5 -145.5t-116.5 -386.5q0 -257 114.5 -402t330.5 -145z" />
    <glyph glyph-name="OE" unicode="&#x152;" horiz-adv-x="1974" 
d="M1892 412l4 -2l-57 -426q-101 16 -250 16h-549q-102 -18 -202 -18q-175 0 -317.5 56t-236 153.5t-144 227.5t-50.5 279q0 163 53 300t150.5 235t243.5 152.5t325 54.5q95 0 176 -17h564q140 0 217 17l34 -383l-4 -2q-74 151 -321 151h-225v-344h110q205 0 320 15
l-60 -359h-4q-26 68 -80.5 98.5t-142.5 30.5h-143v-428h178q135 0 240 49.5t171 143.5zM393 719q0 -241 118 -380.5t347 -139.5q110 0 178 22v973q-76 31 -194 31q-138 0 -241.5 -70t-155.5 -183.5t-52 -252.5z" />
    <glyph glyph-name="oe" unicode="&#x153;" horiz-adv-x="1974" 
d="M1892 412l4 -2l-57 -426q-101 16 -250 16h-549q-102 -18 -202 -18q-175 0 -317.5 56t-236 153.5t-144 227.5t-50.5 279q0 163 53 300t150.5 235t243.5 152.5t325 54.5q95 0 176 -17h564q140 0 217 17l34 -383l-4 -2q-74 151 -321 151h-225v-344h110q205 0 320 15
l-60 -359h-4q-26 68 -80.5 98.5t-142.5 30.5h-143v-428h178q135 0 240 49.5t171 143.5zM393 719q0 -241 118 -380.5t347 -139.5q110 0 178 22v973q-76 31 -194 31q-138 0 -241.5 -70t-155.5 -183.5t-52 -252.5z" />
    <glyph glyph-name="Racute" unicode="&#x154;" horiz-adv-x="1353" 
d="M889 1780q-58 -41 -142.5 -128.5t-125.5 -142.5l-166 86q70 65 153.5 184t93.5 173l5 2zM1133 276q118 -189 266 -239v-4l-420 -76q-39 116 -105 227l-317 543h98q136 0 205.5 60.5t69.5 193.5q0 114 -72 178.5t-203 63.5l-143 -2v-922q0 -111 31 -187.5t71 -107.5v-4
h-493v4q45 30 77.5 108t32.5 195v817q0 112 -32.5 188.5t-77.5 106.5v4h581q244 0 381.5 -115.5t137.5 -316.5q0 -159 -73 -261t-206 -144z" />
    <glyph glyph-name="racute" unicode="&#x155;" horiz-adv-x="1353" 
d="M889 1780q-58 -41 -142.5 -128.5t-125.5 -142.5l-166 86q70 65 153.5 184t93.5 173l5 2zM1133 276q118 -189 266 -239v-4l-420 -76q-39 116 -105 227l-317 543h98q136 0 205.5 60.5t69.5 193.5q0 114 -72 178.5t-203 63.5l-143 -2v-922q0 -111 31 -187.5t71 -107.5v-4
h-493v4q45 30 77.5 108t32.5 195v817q0 112 -32.5 188.5t-77.5 106.5v4h581q244 0 381.5 -115.5t137.5 -316.5q0 -159 -73 -261t-206 -144z" />
    <glyph glyph-name="uni0156" unicode="&#x156;" horiz-adv-x="1353" 
d="M1133 276q118 -189 266 -239v-4l-420 -76q-39 116 -105 227l-317 543h98q136 0 205.5 60.5t69.5 193.5q0 114 -72 178.5t-203 63.5l-143 -2v-922q0 -111 31 -187.5t71 -107.5v-4h-493v4q45 30 77.5 108t32.5 195v817q0 112 -32.5 188.5t-77.5 106.5v4h581
q244 0 381.5 -115.5t137.5 -316.5q0 -159 -73 -261t-206 -144zM653 -90l267 -19l2 -4q-72 -103 -128 -220.5t-79 -205.5l-170 62q28 50 65 185.5t43 201.5z" />
    <glyph glyph-name="uni0157" unicode="&#x157;" horiz-adv-x="1353" 
d="M1133 276q118 -189 266 -239v-4l-420 -76q-39 116 -105 227l-317 543h98q136 0 205.5 60.5t69.5 193.5q0 114 -72 178.5t-203 63.5l-143 -2v-922q0 -111 31 -187.5t71 -107.5v-4h-493v4q45 30 77.5 108t32.5 195v817q0 112 -32.5 188.5t-77.5 106.5v4h581
q244 0 381.5 -115.5t137.5 -316.5q0 -159 -73 -261t-206 -144zM653 -90l267 -19l2 -4q-72 -103 -128 -220.5t-79 -205.5l-170 62q28 50 65 185.5t43 201.5z" />
    <glyph glyph-name="Rcaron" unicode="&#x158;" horiz-adv-x="1353" 
d="M543 1511q-52 60 -135 127.5t-142 100.5l162 192l4 -2q11 -34 67.5 -105.5t116.5 -133.5q62 66 117.5 136.5t65.5 102.5l4 2l162 -192q-61 -34 -142.5 -101t-134.5 -127h-145zM1133 276q118 -189 266 -239v-4l-420 -76q-39 116 -105 227l-317 543h98q136 0 205.5 60.5
t69.5 193.5q0 114 -72 178.5t-203 63.5l-143 -2v-922q0 -111 31 -187.5t71 -107.5v-4h-493v4q45 30 77.5 108t32.5 195v817q0 112 -32.5 188.5t-77.5 106.5v4h581q244 0 381.5 -115.5t137.5 -316.5q0 -159 -73 -261t-206 -144z" />
    <glyph glyph-name="rcaron" unicode="&#x159;" horiz-adv-x="1353" 
d="M543 1511q-52 60 -135 127.5t-142 100.5l162 192l4 -2q11 -34 67.5 -105.5t116.5 -133.5q62 66 117.5 136.5t65.5 102.5l4 2l162 -192q-61 -34 -142.5 -101t-134.5 -127h-145zM1133 276q118 -189 266 -239v-4l-420 -76q-39 116 -105 227l-317 543h98q136 0 205.5 60.5
t69.5 193.5q0 114 -72 178.5t-203 63.5l-143 -2v-922q0 -111 31 -187.5t71 -107.5v-4h-493v4q45 30 77.5 108t32.5 195v817q0 112 -32.5 188.5t-77.5 106.5v4h581q244 0 381.5 -115.5t137.5 -316.5q0 -159 -73 -261t-206 -144z" />
    <glyph glyph-name="Sacute" unicode="&#x15a;" horiz-adv-x="1122" 
d="M608 1524l-166 86q70 66 154 184t94 172l4 2l183 -174q-58 -42 -143.5 -129t-125.5 -141zM547 -31q-271 -3 -414 82l-35 344l4 2q90 -117 192.5 -167.5t231.5 -47.5q238 6 238 185q0 41 -15.5 75.5t-36 57t-61 46.5t-69 37t-82.5 35q-39 16 -60.5 25.5t-58.5 27.5
t-58.5 31.5t-52.5 36.5t-49 44.5t-39 52t-32.5 63t-19 74.5t-7.5 88q0 161 132 275t359 114q157 0 322 -43l27 -336h-5q-61 94 -142 131t-181 37q-236 0 -236 -158q0 -35 14.5 -64t33 -48.5t57.5 -41.5t64.5 -33.5t78.5 -33.5l2 -1q152 -63 220 -112q174 -123 178 -348v-12
q0 -179 -130.5 -297t-369.5 -121z" />
    <glyph glyph-name="sacute" unicode="&#x15b;" horiz-adv-x="1122" 
d="M608 1524l-166 86q70 66 154 184t94 172l4 2l183 -174q-58 -42 -143.5 -129t-125.5 -141zM547 -31q-271 -3 -414 82l-35 344l4 2q90 -117 192.5 -167.5t231.5 -47.5q238 6 238 185q0 41 -15.5 75.5t-36 57t-61 46.5t-69 37t-82.5 35q-39 16 -60.5 25.5t-58.5 27.5
t-58.5 31.5t-52.5 36.5t-49 44.5t-39 52t-32.5 63t-19 74.5t-7.5 88q0 161 132 275t359 114q157 0 322 -43l27 -336h-5q-61 94 -142 131t-181 37q-236 0 -236 -158q0 -35 14.5 -64t33 -48.5t57.5 -41.5t64.5 -33.5t78.5 -33.5l2 -1q152 -63 220 -112q174 -123 178 -348v-12
q0 -179 -130.5 -297t-369.5 -121z" />
    <glyph glyph-name="Scircumflex" unicode="&#x15c;" horiz-adv-x="1122" 
d="M420 1507l-4 -2l-162 193q61 34 142 100.5t134 126.5h146q52 -59 131.5 -125t144.5 -102l-161 -193l-5 2q-11 34 -68 106.5t-116 133.5q-58 -60 -114.5 -132.5t-67.5 -107.5zM647 860l2 -1q152 -63 220 -112q174 -123 178 -348v-12q0 -179 -130.5 -297t-369.5 -121
q-271 -3 -414 82l-35 344l4 2q90 -117 192.5 -167.5t231.5 -47.5q238 6 238 185q0 41 -15.5 75.5t-36 57t-61 46.5t-69 37t-82.5 35q-39 16 -60.5 25.5t-58.5 27.5t-58.5 31.5t-52.5 36.5t-49 44.5t-39 52t-32.5 63t-19 74.5t-7.5 88q0 161 132 275t359 114q157 0 322 -43
l27 -336h-5q-61 94 -142 131t-181 37q-236 0 -236 -158q0 -35 14.5 -64t33 -48.5t57.5 -41.5t64.5 -33.5t78.5 -33.5z" />
    <glyph glyph-name="scircumflex" unicode="&#x15d;" horiz-adv-x="1122" 
d="M420 1507l-4 -2l-162 193q61 34 142 100.5t134 126.5h146q52 -59 131.5 -125t144.5 -102l-161 -193l-5 2q-11 34 -68 106.5t-116 133.5q-58 -60 -114.5 -132.5t-67.5 -107.5zM647 860l2 -1q152 -63 220 -112q174 -123 178 -348v-12q0 -179 -130.5 -297t-369.5 -121
q-271 -3 -414 82l-35 344l4 2q90 -117 192.5 -167.5t231.5 -47.5q238 6 238 185q0 41 -15.5 75.5t-36 57t-61 46.5t-69 37t-82.5 35q-39 16 -60.5 25.5t-58.5 27.5t-58.5 31.5t-52.5 36.5t-49 44.5t-39 52t-32.5 63t-19 74.5t-7.5 88q0 161 132 275t359 114q157 0 322 -43
l27 -336h-5q-61 94 -142 131t-181 37q-236 0 -236 -158q0 -35 14.5 -64t33 -48.5t57.5 -41.5t64.5 -33.5t78.5 -33.5z" />
    <glyph glyph-name="Scedilla" unicode="&#x15e;" horiz-adv-x="1122" 
d="M1047 387q0 -167 -114.5 -282.5t-326.5 -133.5l-10 -55q49 -5 89.5 -18t75 -37.5t54 -65t19.5 -94.5q0 -117 -84 -178.5t-197 -61.5q-103 0 -180 47l-19 179l4 2q87 -76 174 -76q55 0 86 24t31 62q0 42 -31 61t-96 19q-61 0 -102 -8l-4 4l41 196q-211 13 -324 80l-35 344
l4 2q90 -117 192.5 -167.5t231.5 -47.5q238 6 238 185q0 41 -15.5 75.5t-36 57t-61 46.5t-69 37t-82.5 35q-39 16 -60.5 25.5t-58.5 27.5t-58.5 31.5t-52.5 36.5t-49 44.5t-39 52t-32.5 63t-19 74.5t-7.5 88q0 161 132 275t359 114q157 0 322 -43l27 -336h-5
q-61 94 -142 131t-181 37q-236 0 -236 -158q0 -35 14.5 -64t33 -48.5t57.5 -41.5t64.5 -33.5t78.5 -33.5l2 -1q152 -63 220 -112q174 -123 178 -348v-12z" />
    <glyph glyph-name="scedilla" unicode="&#x15f;" horiz-adv-x="1122" 
d="M1047 387q0 -167 -114.5 -282.5t-326.5 -133.5l-10 -55q49 -5 89.5 -18t75 -37.5t54 -65t19.5 -94.5q0 -117 -84 -178.5t-197 -61.5q-103 0 -180 47l-19 179l4 2q87 -76 174 -76q55 0 86 24t31 62q0 42 -31 61t-96 19q-61 0 -102 -8l-4 4l41 196q-211 13 -324 80l-35 344
l4 2q90 -117 192.5 -167.5t231.5 -47.5q238 6 238 185q0 41 -15.5 75.5t-36 57t-61 46.5t-69 37t-82.5 35q-39 16 -60.5 25.5t-58.5 27.5t-58.5 31.5t-52.5 36.5t-49 44.5t-39 52t-32.5 63t-19 74.5t-7.5 88q0 161 132 275t359 114q157 0 322 -43l27 -336h-5
q-61 94 -142 131t-181 37q-236 0 -236 -158q0 -35 14.5 -64t33 -48.5t57.5 -41.5t64.5 -33.5t78.5 -33.5l2 -1q152 -63 220 -112q174 -123 178 -348v-12z" />
    <glyph glyph-name="Scaron" unicode="&#x160;" horiz-adv-x="1122" 
d="M791 1946l161 -193q-61 -34 -142 -100.5t-134 -126.5h-146q-52 60 -134.5 126.5t-141.5 100.5l162 193l4 -2q11 -34 68 -106.5t116 -133.5q61 64 116.5 135.5t65.5 104.5zM547 -31q-271 -3 -414 82l-35 344l4 2q90 -117 192.5 -167.5t231.5 -47.5q238 6 238 185
q0 41 -15.5 75.5t-36 57t-61 46.5t-69 37t-82.5 35q-39 16 -60.5 25.5t-58.5 27.5t-58.5 31.5t-52.5 36.5t-49 44.5t-39 52t-32.5 63t-19 74.5t-7.5 88q0 161 132 275t359 114q157 0 322 -43l27 -336h-5q-61 94 -142 131t-181 37q-236 0 -236 -158q0 -35 14.5 -64t33 -48.5
t57.5 -41.5t64.5 -33.5t78.5 -33.5l2 -1q152 -63 220 -112q174 -123 178 -348v-12q0 -179 -130.5 -297t-369.5 -121z" />
    <glyph glyph-name="scaron" unicode="&#x161;" horiz-adv-x="1122" 
d="M791 1946l161 -193q-61 -34 -142 -100.5t-134 -126.5h-146q-52 60 -134.5 126.5t-141.5 100.5l162 193l4 -2q11 -34 68 -106.5t116 -133.5q61 64 116.5 135.5t65.5 104.5zM547 -31q-271 -3 -414 82l-35 344l4 2q90 -117 192.5 -167.5t231.5 -47.5q238 6 238 185
q0 41 -15.5 75.5t-36 57t-61 46.5t-69 37t-82.5 35q-39 16 -60.5 25.5t-58.5 27.5t-58.5 31.5t-52.5 36.5t-49 44.5t-39 52t-32.5 63t-19 74.5t-7.5 88q0 161 132 275t359 114q157 0 322 -43l27 -336h-5q-61 94 -142 131t-181 37q-236 0 -236 -158q0 -35 14.5 -64t33 -48.5
t57.5 -41.5t64.5 -33.5t78.5 -33.5l2 -1q152 -63 220 -112q174 -123 178 -348v-12q0 -179 -130.5 -297t-369.5 -121z" />
    <glyph glyph-name="uni0162" unicode="&#x162;" horiz-adv-x="1212" 
d="M1137 1440l34 -375l-4 -2q-38 66 -108 108.5t-158 42.5h-153v-890q0 -126 35 -209t89 -111v-4h-190l-10 -53q49 -5 89.5 -18t75 -37.5t53.5 -65t19 -94.5q0 -117 -83.5 -178.5t-196.5 -61.5q-103 0 -180 47l-19 178l4 2q86 -75 174 -75q55 0 86 24t31 62q0 42 -31 61
t-96 19q-56 0 -102 -9l-4 4l40 195h-190v4q50 30 87.5 114.5t37.5 205.5v890h-156q-88 0 -158 -42.5t-108 -108.5l-4 2l35 375q133 -17 280 -17h500q148 0 281 17z" />
    <glyph glyph-name="uni0163" unicode="&#x163;" horiz-adv-x="1212" 
d="M1137 1440l34 -375l-4 -2q-38 66 -108 108.5t-158 42.5h-153v-890q0 -126 35 -209t89 -111v-4h-190l-10 -53q49 -5 89.5 -18t75 -37.5t53.5 -65t19 -94.5q0 -117 -83.5 -178.5t-196.5 -61.5q-103 0 -180 47l-19 178l4 2q86 -75 174 -75q55 0 86 24t31 62q0 42 -31 61
t-96 19q-56 0 -102 -9l-4 4l40 195h-190v4q50 30 87.5 114.5t37.5 205.5v890h-156q-88 0 -158 -42.5t-108 -108.5l-4 2l35 375q133 -17 280 -17h500q148 0 281 17z" />
    <glyph glyph-name="Tcaron" unicode="&#x164;" horiz-adv-x="1212" 
d="M532 1511q-53 60 -135 127.5t-141 100.5l162 192l4 -2q11 -34 67.5 -105.5t116.5 -133.5q61 65 116.5 135.5t65.5 103.5l5 2l161 -192q-61 -34 -142 -101t-134 -127h-146zM1137 1440l34 -375l-4 -2q-38 66 -108 108.5t-158 42.5h-153v-890q0 -126 35 -209t89 -111v-4
h-530v4q50 30 87.5 114.5t37.5 205.5v890h-156q-88 0 -158 -42.5t-108 -108.5l-4 2l35 375q133 -17 280 -17h500q148 0 281 17z" />
    <glyph glyph-name="tcaron" unicode="&#x165;" horiz-adv-x="1212" 
d="M532 1511q-53 60 -135 127.5t-141 100.5l162 192l4 -2q11 -34 67.5 -105.5t116.5 -133.5q61 65 116.5 135.5t65.5 103.5l5 2l161 -192q-61 -34 -142 -101t-134 -127h-146zM1137 1440l34 -375l-4 -2q-38 66 -108 108.5t-158 42.5h-153v-890q0 -126 35 -209t89 -111v-4
h-530v4q50 30 87.5 114.5t37.5 205.5v890h-156q-88 0 -158 -42.5t-108 -108.5l-4 2l35 375q133 -17 280 -17h500q148 0 281 17z" />
    <glyph glyph-name="Tbar" unicode="&#x166;" horiz-adv-x="1212" 
d="M1137 1440l34 -375l-4 -2q-38 66 -108 108.5t-158 42.5h-153v-444h102q88 0 149 41l5 -2l-33 -223h-223v-262q0 -126 35 -209t89 -111v-4h-530v4q50 30 87.5 114.5t37.5 205.5v262h-94q-41 0 -80.5 -12.5t-61.5 -32.5l-4 2l37 227h203v444h-156q-88 0 -158 -42.5
t-108 -108.5l-4 2l35 375q133 -17 280 -17h500q148 0 281 17z" />
    <glyph glyph-name="tbar" unicode="&#x167;" horiz-adv-x="1212" 
d="M1137 1440l34 -375l-4 -2q-38 66 -108 108.5t-158 42.5h-153v-444h102q88 0 149 41l5 -2l-33 -223h-223v-262q0 -126 35 -209t89 -111v-4h-530v4q50 30 87.5 114.5t37.5 205.5v262h-94q-41 0 -80.5 -12.5t-61.5 -32.5l-4 2l37 227h203v444h-156q-88 0 -158 -42.5
t-108 -108.5l-4 2l35 375q133 -17 280 -17h500q148 0 281 17z" />
    <glyph glyph-name="Utilde" unicode="&#x168;" horiz-adv-x="1523" 
d="M492 1532l-105 154q65 69 127 100t137 31q49 0 91.5 -19t80.5 -38t76 -19q43 0 74 23t41 55h4l108 -170q-62 -56 -119 -80.5t-126 -24.5q-52 0 -96.5 20t-83.5 40t-78 20q-78 0 -127 -92h-4zM752 -35q-277 0 -422.5 155.5t-145.5 465.5v530q0 116 -33 194.5t-77 108.5v4
h497v-4q-42 -31 -73 -108.5t-31 -194.5v-553q0 -209 70 -296t237 -87q149 0 219 93t70 290v553q0 114 -32 192.5t-73 110.5v4h492v-4q-46 -30 -78.5 -107.5t-32.5 -195.5v-530q0 -312 -145.5 -466.5t-441.5 -154.5z" />
    <glyph glyph-name="utilde" unicode="&#x169;" horiz-adv-x="1523" 
d="M492 1532l-105 154q65 69 127 100t137 31q49 0 91.5 -19t80.5 -38t76 -19q43 0 74 23t41 55h4l108 -170q-62 -56 -119 -80.5t-126 -24.5q-52 0 -96.5 20t-83.5 40t-78 20q-78 0 -127 -92h-4zM752 -35q-277 0 -422.5 155.5t-145.5 465.5v530q0 116 -33 194.5t-77 108.5v4
h497v-4q-42 -31 -73 -108.5t-31 -194.5v-553q0 -209 70 -296t237 -87q149 0 219 93t70 290v553q0 114 -32 192.5t-73 110.5v4h492v-4q-46 -30 -78.5 -107.5t-32.5 -195.5v-530q0 -312 -145.5 -466.5t-441.5 -154.5z" />
    <glyph glyph-name="Umacron" unicode="&#x16a;" horiz-adv-x="1523" 
d="M436 1561l-4 2l33 211h471q98 0 139 24l4 -2l-30 -217l-482 -2q-88 0 -131 -16zM752 -35q-277 0 -422.5 155.5t-145.5 465.5v530q0 116 -33 194.5t-77 108.5v4h497v-4q-42 -31 -73 -108.5t-31 -194.5v-553q0 -209 70 -296t237 -87q149 0 219 93t70 290v553
q0 114 -32 192.5t-73 110.5v4h492v-4q-46 -30 -78.5 -107.5t-32.5 -195.5v-530q0 -312 -145.5 -466.5t-441.5 -154.5z" />
    <glyph glyph-name="umacron" unicode="&#x16b;" horiz-adv-x="1523" 
d="M436 1561l-4 2l33 211h471q98 0 139 24l4 -2l-30 -217l-482 -2q-88 0 -131 -16zM752 -35q-277 0 -422.5 155.5t-145.5 465.5v530q0 116 -33 194.5t-77 108.5v4h497v-4q-42 -31 -73 -108.5t-31 -194.5v-553q0 -209 70 -296t237 -87q149 0 219 93t70 290v553
q0 114 -32 192.5t-73 110.5v4h492v-4q-46 -30 -78.5 -107.5t-32.5 -195.5v-530q0 -312 -145.5 -466.5t-441.5 -154.5z" />
    <glyph glyph-name="Uring" unicode="&#x16e;" horiz-adv-x="1523" 
d="M766 1440q-124 0 -209.5 80t-85.5 202t85.5 204.5t209.5 82.5q121 0 207 -83t86 -204q0 -119 -86 -200.5t-207 -81.5zM766 1618q47 0 73.5 27.5t26.5 76.5q0 51 -26.5 79t-73.5 28q-48 0 -76 -28.5t-28 -78.5t28 -77t76 -27zM752 -35q-277 0 -422.5 155.5t-145.5 465.5
v530q0 116 -33 194.5t-77 108.5v4h497v-4q-42 -31 -73 -108.5t-31 -194.5v-553q0 -209 70 -296t237 -87q149 0 219 93t70 290v553q0 114 -32 192.5t-73 110.5v4h492v-4q-46 -30 -78.5 -107.5t-32.5 -195.5v-530q0 -312 -145.5 -466.5t-441.5 -154.5z" />
    <glyph glyph-name="uring" unicode="&#x16f;" horiz-adv-x="1523" 
d="M766 1423q-124 0 -209.5 80.5t-85.5 202.5t85.5 204.5t209.5 82.5q121 0 207 -83t86 -204q0 -119 -86 -201t-207 -82zM766 1602q47 0 73.5 27.5t26.5 76.5q0 51 -26.5 78.5t-73.5 27.5q-48 0 -76 -28t-28 -78t28 -77t76 -27zM752 -35q-277 0 -422.5 155.5t-145.5 465.5
v530q0 116 -33 194.5t-77 108.5v4h497v-4q-42 -31 -73 -108.5t-31 -194.5v-553q0 -209 70 -296t237 -87q149 0 219 93t70 290v553q0 114 -32 192.5t-73 110.5v4h492v-4q-46 -30 -78.5 -107.5t-32.5 -195.5v-530q0 -312 -145.5 -466.5t-441.5 -154.5z" />
    <glyph glyph-name="Uhungarumlaut" unicode="&#x170;" horiz-adv-x="1523" 
d="M559 1516l-151 75q64 60 148.5 179.5t94.5 171.5l4 2l162 -162q-188 -179 -258 -266zM856 1505l-151 76q64 61 148 179t95 171l4 2l170 -166q-55 -40 -138.5 -124t-127.5 -138zM752 -35q-277 0 -422.5 155.5t-145.5 465.5v530q0 116 -33 194.5t-77 108.5v4h497v-4
q-42 -31 -73 -108.5t-31 -194.5v-553q0 -209 70 -296t237 -87q149 0 219 93t70 290v553q0 114 -32 192.5t-73 110.5v4h492v-4q-46 -30 -78.5 -107.5t-32.5 -195.5v-530q0 -312 -145.5 -466.5t-441.5 -154.5z" />
    <glyph glyph-name="uhungarumlaut" unicode="&#x171;" horiz-adv-x="1523" 
d="M559 1516l-151 75q64 60 148.5 179.5t94.5 171.5l4 2l162 -162q-188 -179 -258 -266zM856 1505l-151 76q64 61 148 179t95 171l4 2l170 -166q-55 -40 -138.5 -124t-127.5 -138zM752 -35q-277 0 -422.5 155.5t-145.5 465.5v530q0 116 -33 194.5t-77 108.5v4h497v-4
q-42 -31 -73 -108.5t-31 -194.5v-553q0 -209 70 -296t237 -87q149 0 219 93t70 290v553q0 114 -32 192.5t-73 110.5v4h492v-4q-46 -30 -78.5 -107.5t-32.5 -195.5v-530q0 -312 -145.5 -466.5t-441.5 -154.5z" />
    <glyph glyph-name="Uogonek" unicode="&#x172;" horiz-adv-x="1523" 
d="M958 1423h492v-4q-46 -30 -78.5 -107.5t-32.5 -195.5v-530q0 -411 -249 -547q-162 -119 -162 -266q0 -80 63.5 -112.5t151.5 5.5l2 -4l-131 -199q-123 -6 -213 56.5t-90 175.5q0 71 37.5 143t107.5 133q-50 -6 -104 -6q-277 0 -422.5 155.5t-145.5 465.5v530
q0 116 -33 194.5t-77 108.5v4h497v-4q-42 -31 -73 -108.5t-31 -194.5v-553q0 -209 70 -296t237 -87q149 0 219 93t70 290v553q0 114 -32 192.5t-73 110.5v4z" />
    <glyph glyph-name="uogonek" unicode="&#x173;" horiz-adv-x="1523" 
d="M958 1423h492v-4q-46 -30 -78.5 -107.5t-32.5 -195.5v-530q0 -473 -338 -586q-200 -85 -200 -227q0 -80 63.5 -112.5t151.5 5.5l2 -4l-131 -199q-123 -6 -213 56.5t-90 175.5q0 146 161 270q-273 2 -417 157.5t-144 463.5v530q0 116 -33 194.5t-77 108.5v4h497v-4
q-42 -31 -73 -108.5t-31 -194.5v-553q0 -209 70 -296t237 -87q149 0 219 93t70 290v553q0 114 -32 192.5t-73 110.5v4z" />
    <glyph glyph-name="Wcircumflex" unicode="&#x174;" horiz-adv-x="2154" 
d="M911 1493l-4 -2l-162 192q61 34 142.5 101t134.5 127h145q52 -59 132 -125.5t145 -102.5l-162 -192l-4 2q-11 34 -68 106.5t-116 133.5q-59 -61 -115.5 -133t-67.5 -107zM1690 1423h454v-4q-51 -28 -86 -94.5t-53 -142.5l-207 -863q-24 -106 -12 -179t59 -136v-4h-479v4
q28 40 25.5 110t-37.5 144l-150 320q-33 71 -60 158.5t-36 154.5h-8q-38 -152 -90 -266l-172 -367q-35 -76 -37.5 -144t26.5 -110v-4h-483v4q102 111 47 315l-237 865q-51 186 -140 235v4h496v-4q-42 -36 -57 -103.5t4 -150.5l116 -456q42 -165 50 -371h8q48 197 143 391
l219 449q76 158 101 258h12q41 -139 100 -256l199 -389q70 -140 104 -238.5t58 -214.5h8q13 211 63 418l101 409q20 87 5.5 151t-56.5 103z" />
    <glyph glyph-name="wcircumflex" unicode="&#x175;" horiz-adv-x="2154" 
d="M911 1493l-4 -2l-162 192q61 34 142.5 101t134.5 127h145q52 -59 132 -125.5t145 -102.5l-162 -192l-4 2q-11 34 -68 106.5t-116 133.5q-59 -61 -115.5 -133t-67.5 -107zM1690 1423h454v-4q-51 -28 -86 -94.5t-53 -142.5l-207 -863q-24 -106 -12 -179t59 -136v-4h-479v4
q28 40 25.5 110t-37.5 144l-150 320q-33 71 -60 158.5t-36 154.5h-8q-38 -152 -90 -266l-172 -367q-35 -76 -37.5 -144t26.5 -110v-4h-483v4q102 111 47 315l-237 865q-51 186 -140 235v4h496v-4q-42 -36 -57 -103.5t4 -150.5l116 -456q42 -165 50 -371h8q48 197 143 391
l219 449q76 158 101 258h12q41 -139 100 -256l199 -389q70 -140 104 -238.5t58 -214.5h8q13 211 63 418l101 409q20 87 5.5 151t-56.5 103z" />
    <glyph glyph-name="Ycircumflex" unicode="&#x176;" horiz-adv-x="1316" 
d="M477 1493l-4 -2l-162 192q61 34 142.5 101t134.5 127h145q52 -59 132 -125.5t145 -102.5l-162 -192l-4 2q-11 34 -68 106t-117 134q-58 -60 -114.5 -132.5t-67.5 -107.5zM944 1423h412v-4q-67 -51 -164 -209l-387 -639v-247q0 -126 35.5 -209t89.5 -111v-4h-531v4
q50 30 87.5 114.5t37.5 205.5v237l-393 649q-93 153 -166 209v4h436v-4q-13 -39 1.5 -96.5t46.5 -112.5l157 -272q40 -64 64 -133h8q7 21 16 41.5t16 32.5t18 31.5t15 27.5l156 272q32 55 45.5 112.5t-0.5 96.5v4z" />
    <glyph glyph-name="ycircumflex" unicode="&#x177;" horiz-adv-x="1316" 
d="M477 1493l-4 -2l-162 192q61 34 142.5 101t134.5 127h145q52 -59 132 -125.5t145 -102.5l-162 -192l-4 2q-11 34 -68 106t-117 134q-58 -60 -114.5 -132.5t-67.5 -107.5zM944 1423h412v-4q-67 -51 -164 -209l-387 -639v-247q0 -126 35.5 -209t89.5 -111v-4h-531v4
q50 30 87.5 114.5t37.5 205.5v237l-393 649q-93 153 -166 209v4h436v-4q-13 -39 1.5 -96.5t46.5 -112.5l157 -272q40 -64 64 -133h8q7 21 16 41.5t16 32.5t18 31.5t15 27.5l156 272q32 55 45.5 112.5t-0.5 96.5v4z" />
    <glyph glyph-name="Ydieresis" unicode="&#x178;" horiz-adv-x="1316" 
d="M504 1552q-51 0 -86 35.5t-35 85.5q0 51 35 86t86 35q49 0 83 -35t34 -86q0 -50 -34 -85.5t-83 -35.5zM823 1552q-51 0 -86 35.5t-35 85.5q0 51 35 86t86 35q49 0 83 -35t34 -86q0 -50 -34 -85.5t-83 -35.5zM944 1423h412v-4q-67 -51 -164 -209l-387 -639v-247
q0 -126 35.5 -209t89.5 -111v-4h-531v4q50 30 87.5 114.5t37.5 205.5v237l-393 649q-93 153 -166 209v4h436v-4q-13 -39 1.5 -96.5t46.5 -112.5l157 -272q40 -64 64 -133h8q7 21 16 41.5t16 32.5t18 31.5t15 27.5l156 272q32 55 45.5 112.5t-0.5 96.5v4z" />
    <glyph glyph-name="Zacute" unicode="&#x179;" horiz-adv-x="1226" 
d="M903 1780q-58 -41 -142.5 -128.5t-125.5 -142.5l-166 86q70 66 154 184.5t94 172.5l4 2zM1174 391l4 -2l-54 -405q-66 11 -112.5 13.5t-161.5 2.5h-830v4l699 1217h-256q-251 0 -350 -140l-4 2l55 353q101 -13 305 -13h674v-4l-699 -1216h314q138 0 246 49.5t170 138.5z
" />
    <glyph glyph-name="zacute" unicode="&#x17a;" horiz-adv-x="1226" 
d="M903 1780q-58 -41 -142.5 -128.5t-125.5 -142.5l-166 86q70 66 154 184.5t94 172.5l4 2zM1174 391l4 -2l-54 -405q-66 11 -112.5 13.5t-161.5 2.5h-830v4l699 1217h-256q-251 0 -350 -140l-4 2l55 353q101 -13 305 -13h674v-4l-699 -1216h314q138 0 246 49.5t170 138.5z
" />
    <glyph glyph-name="Zdotaccent" unicode="&#x17b;" horiz-adv-x="1226" 
d="M631 1532q-61 0 -103.5 42.5t-42.5 102.5q0 62 42.5 105t103.5 43q60 0 101.5 -43t41.5 -105q0 -60 -41.5 -102.5t-101.5 -42.5zM1174 391l4 -2l-54 -405q-66 11 -112.5 13.5t-161.5 2.5h-830v4l699 1217h-256q-251 0 -350 -140l-4 2l55 353q101 -13 305 -13h674v-4
l-699 -1216h314q138 0 246 49.5t170 138.5z" />
    <glyph glyph-name="zdotaccent" unicode="&#x17c;" horiz-adv-x="1226" 
d="M631 1532q-61 0 -103.5 42.5t-42.5 102.5q0 62 42.5 105t103.5 43q60 0 101.5 -43t41.5 -105q0 -60 -41.5 -102.5t-101.5 -42.5zM1174 391l4 -2l-54 -405q-66 11 -112.5 13.5t-161.5 2.5h-830v4l699 1217h-256q-251 0 -350 -140l-4 2l55 353q101 -13 305 -13h674v-4
l-699 -1216h314q138 0 246 49.5t170 138.5z" />
    <glyph glyph-name="Zcaron" unicode="&#x17d;" horiz-adv-x="1226" 
d="M557 1511q-53 60 -135 127.5t-141 100.5l161 192l4 -2q11 -34 67.5 -105.5t117.5 -133.5q61 65 116.5 135.5t65.5 103.5l4 2l162 -192q-61 -34 -142.5 -101t-134.5 -127h-145zM1174 391l4 -2l-54 -405q-66 11 -112.5 13.5t-161.5 2.5h-830v4l699 1217h-256
q-251 0 -350 -140l-4 2l55 353q101 -13 305 -13h674v-4l-699 -1216h314q138 0 246 49.5t170 138.5z" />
    <glyph glyph-name="zcaron" unicode="&#x17e;" horiz-adv-x="1226" 
d="M557 1511q-53 60 -135 127.5t-141 100.5l161 192l4 -2q11 -34 67.5 -105.5t117.5 -133.5q61 65 116.5 135.5t65.5 103.5l4 2l162 -192q-61 -34 -142.5 -101t-134.5 -127h-145zM1174 391l4 -2l-54 -405q-66 11 -112.5 13.5t-161.5 2.5h-830v4l699 1217h-256
q-251 0 -350 -140l-4 2l55 353q101 -13 305 -13h674v-4l-699 -1216h314q138 0 246 49.5t170 138.5z" />
    <glyph glyph-name="Aringacute" unicode="&#x1fa;" horiz-adv-x="1384" 
d="M891 2048q-61 -33 -157 -106.5t-146 -122.5l-152 108q78 55 177.5 160.5t117.5 157.5l4 2zM1221 336q40 -113 96.5 -203t103.5 -129v-4h-463v4q29 22 31.5 83t-31.5 169l-16 49h-530l-19 -49q-36 -111 -33 -169.5t29 -82.5v-4h-430v4q49 42 106 131.5t95 200.5l291 844
q13 38 18 62.5t0.5 53.5t-23.5 54q-53 74 -53 166q0 122 85.5 204t209.5 82q121 0 207 -83t86 -203q0 -87 -49 -158q-30 -43 -31 -87.5t19 -90.5zM688 1622q-48 0 -76 -28t-28 -78t28 -77.5t76 -27.5q47 0 73.5 27.5t26.5 77.5q0 51 -26.5 78.5t-73.5 27.5zM672 1151
q-8 -73 -30 -158t-36 -126t-51 -144l-78 -217h397l-73 209q-35 99 -51 145t-38.5 132t-31.5 159h-8z" />
    <glyph glyph-name="aringacute" unicode="&#x1fb;" horiz-adv-x="1384" 
d="M891 2048q-61 -33 -157 -106.5t-146 -122.5l-152 108q78 55 177.5 160.5t117.5 157.5l4 2zM1221 336q40 -113 96.5 -203t103.5 -129v-4h-463v4q29 22 31.5 83t-31.5 169l-16 49h-530l-19 -49q-36 -111 -33 -169.5t29 -82.5v-4h-430v4q49 42 106 131.5t95 200.5l291 844
q13 38 18 62.5t0.5 53.5t-23.5 54q-53 74 -53 166q0 122 85.5 204t209.5 82q121 0 207 -83t86 -203q0 -87 -49 -158q-30 -43 -31 -87.5t19 -90.5zM688 1622q-48 0 -76 -28t-28 -78t28 -77.5t76 -27.5q47 0 73.5 27.5t26.5 77.5q0 51 -26.5 78.5t-73.5 27.5zM672 1151
q-8 -73 -30 -158t-36 -126t-51 -144l-78 -217h397l-73 209q-35 99 -51 145t-38.5 132t-31.5 159h-8z" />
    <glyph glyph-name="AEacute" unicode="&#x1fc;" horiz-adv-x="1767" 
d="M1270 1780q-58 -42 -143.5 -129.5t-125.5 -141.5l-165 86q70 65 153.5 184t93.5 173l4 2zM1686 412l4 -2l-58 -426q-101 16 -250 16h-622v4q39 31 55 92.5t16 159.5v49h-415l-23 -49q-25 -68 -31.5 -123.5t0 -85t21.5 -43.5v-4h-424v4q67 62 197 332l403 844
q39 79 30.5 141.5t-63.5 97.5v4h869q141 0 217 17l35 -383l-5 -2q-74 151 -321 151h-223v-344h108q205 0 320 15l-60 -359h-4q-26 68 -80.5 98.5t-142.5 30.5h-141v-428h176q135 0 240.5 49.5t171.5 143.5zM516 506h315v651h-6q-5 -17 -20.5 -50t-34.5 -70.5t-25 -49.5z" />
    <glyph glyph-name="aeacute" unicode="&#x1fd;" horiz-adv-x="1767" 
d="M1270 1780q-58 -42 -143.5 -129.5t-125.5 -141.5l-165 86q70 65 153.5 184t93.5 173l4 2zM1686 412l4 -2l-58 -426q-101 16 -250 16h-622v4q39 31 55 92.5t16 159.5v49h-415l-23 -49q-25 -68 -31.5 -123.5t0 -85t21.5 -43.5v-4h-424v4q67 62 197 332l403 844
q39 79 30.5 141.5t-63.5 97.5v4h869q141 0 217 17l35 -383l-5 -2q-74 151 -321 151h-223v-344h108q205 0 320 15l-60 -359h-4q-26 68 -80.5 98.5t-142.5 30.5h-141v-428h176q135 0 240.5 49.5t171.5 143.5zM516 506h315v651h-6q-5 -17 -20.5 -50t-34.5 -70.5t-25 -49.5z" />
    <glyph glyph-name="Oslashacute" unicode="&#x1fe;" horiz-adv-x="1671" 
d="M1114 1780q-58 -41 -142.5 -128.5t-125.5 -142.5l-166 86q70 66 154 184.5t94 172.5l4 2zM1585 1423l-170 -202q166 -196 166 -494q0 -225 -95.5 -399.5t-269 -270.5t-397.5 -96q-222 0 -389 96l-49 -57q-76 -91 -111 -170l-4 -2l-180 174l170 201q-166 196 -166 495
q0 347 204 555.5t556 208.5q214 0 389 -96l33 41q94 113 123 180l4 2zM829 1247q-201 0 -317.5 -144t-116.5 -384q0 -178 58 -303l637 753q-107 78 -261 78zM840 178q192 0 314 144.5t122 384.5q0 179 -59 303l-639 -754q107 -78 262 -78z" />
    <glyph glyph-name="oslashacute" unicode="&#x1ff;" horiz-adv-x="1671" 
d="M1114 1780q-58 -41 -142.5 -128.5t-125.5 -142.5l-166 86q70 66 154 184.5t94 172.5l4 2zM1585 1423l-170 -202q166 -196 166 -494q0 -225 -95.5 -399.5t-269 -270.5t-397.5 -96q-222 0 -389 96l-49 -57q-76 -91 -111 -170l-4 -2l-180 174l170 201q-166 196 -166 495
q0 347 204 555.5t556 208.5q214 0 389 -96l33 41q94 113 123 180l4 2zM829 1247q-201 0 -317.5 -144t-116.5 -384q0 -178 58 -303l637 753q-107 78 -261 78zM840 178q192 0 314 144.5t122 384.5q0 179 -59 303l-639 -754q107 -78 262 -78z" />
    <glyph glyph-name="uni0218" unicode="&#x218;" horiz-adv-x="1122" 
d="M547 -31q-271 -3 -414 82l-35 344l4 2q90 -117 192.5 -167.5t231.5 -47.5q238 6 238 185q0 41 -15.5 75.5t-36 57t-61 46.5t-69 37t-82.5 35q-39 16 -60.5 25.5t-58.5 27.5t-58.5 31.5t-52.5 36.5t-49 44.5t-39 52t-32.5 63t-19 74.5t-7.5 88q0 161 132 275t359 114
q157 0 322 -43l27 -336h-5q-61 94 -142 131t-181 37q-236 0 -236 -158q0 -35 14.5 -64t33 -48.5t57.5 -41.5t64.5 -33.5t78.5 -33.5l2 -1q152 -63 220 -112q174 -123 178 -348v-12q0 -179 -130.5 -297t-369.5 -121zM487 -545l-170 62q28 50 65.5 186t43.5 201l266 -19l2 -4
q-72 -103 -128 -220.5t-79 -205.5z" />
    <glyph glyph-name="uni0219" unicode="&#x219;" horiz-adv-x="1122" 
d="M547 -31q-271 -3 -414 82l-35 344l4 2q90 -117 192.5 -167.5t231.5 -47.5q238 6 238 185q0 41 -15.5 75.5t-36 57t-61 46.5t-69 37t-82.5 35q-39 16 -60.5 25.5t-58.5 27.5t-58.5 31.5t-52.5 36.5t-49 44.5t-39 52t-32.5 63t-19 74.5t-7.5 88q0 161 132 275t359 114
q157 0 322 -43l27 -336h-5q-61 94 -142 131t-181 37q-236 0 -236 -158q0 -35 14.5 -64t33 -48.5t57.5 -41.5t64.5 -33.5t78.5 -33.5l2 -1q152 -63 220 -112q174 -123 178 -348v-12q0 -179 -130.5 -297t-369.5 -121zM487 -545l-170 62q28 50 65.5 186t43.5 201l266 -19l2 -4
q-72 -103 -128 -220.5t-79 -205.5z" />
    <glyph glyph-name="uni021A" unicode="&#x21a;" horiz-adv-x="1212" 
d="M1137 1440l34 -375l-4 -2q-38 66 -108 108.5t-158 42.5h-153v-890q0 -126 35 -209t89 -111v-4h-530v4q50 30 87.5 114.5t37.5 205.5v890h-156q-88 0 -158 -42.5t-108 -108.5l-4 2l35 375q133 -17 280 -17h500q148 0 281 17zM485 -66l267 -18l2 -4q-72 -103 -128 -220.5
t-79 -205.5l-170 61q28 50 65 185.5t43 201.5z" />
    <glyph glyph-name="uni021B" unicode="&#x21b;" horiz-adv-x="1212" 
d="M1137 1440l34 -375l-4 -2q-38 66 -108 108.5t-158 42.5h-153v-890q0 -126 35 -209t89 -111v-4h-530v4q50 30 87.5 114.5t37.5 205.5v890h-156q-88 0 -158 -42.5t-108 -108.5l-4 2l35 375q133 -17 280 -17h500q148 0 281 17zM485 -66l267 -18l2 -4q-72 -103 -128 -220.5
t-79 -205.5l-170 61q28 50 65 185.5t43 201.5z" />
    <glyph glyph-name="circumflex" unicode="&#x2c6;" 
d="M668 1911q52 -60 131.5 -126t144.5 -102l-162 -192l-4 2q-11 34 -68 106.5t-116 133.5q-58 -60 -114.5 -132.5t-67.5 -107.5l-4 -2l-162 192q61 34 142 101t134 127h146z" />
    <glyph glyph-name="caron" unicode="&#x2c7;" 
d="M809 1855l143 -157q-39 0 -78 -27l-190 -129h-176l-191 129q-39 27 -77 27l143 157l213 -174z" />
    <glyph glyph-name="breve" unicode="&#x2d8;" 
d="M694 1520q-148 0 -242.5 78.5t-119.5 211.5l209 70l2 -4q-22 -61 18.5 -115.5t132.5 -54.5t133.5 53t22.5 117l2 4l205 -68q-33 -135 -127 -213.5t-236 -78.5z" />
    <glyph glyph-name="dotaccent" unicode="&#x2d9;" 
d="M614 1532q-61 0 -103 42.5t-42 102.5q0 62 42 105t103 43q60 0 102 -43t42 -105q0 -60 -42 -102.5t-102 -42.5z" />
    <glyph glyph-name="ring" unicode="&#x2da;" 
d="M696 1423q-124 0 -209.5 80.5t-85.5 202.5t85.5 204.5t209.5 82.5q121 0 207 -83t86 -204q0 -119 -86 -201t-207 -82zM696 1602q47 0 74 27.5t27 76.5q0 51 -26.5 78.5t-74.5 27.5t-76 -28t-28 -78t28 -77t76 -27z" />
    <glyph glyph-name="ogonek" unicode="&#x2db;" 
d="M674 -537q-123 -6 -213 56.5t-90 175.5q0 184 241 323l185 5l14 -13q-223 -89 -223 -237q0 -80 63.5 -112.5t151.5 5.5l2 -4z" />
    <glyph glyph-name="tilde" unicode="&#x2dc;" 
d="M371 1532l-105 154q65 69 127 100t137 31q49 0 91.5 -19t80.5 -38t76 -19q43 0 74 23t41 55h4l109 -170q-62 -56 -119.5 -80.5t-126.5 -24.5q-52 0 -96.5 20t-83.5 40t-78 20q-78 0 -127 -92h-4z" />
    <glyph glyph-name="hungarumlaut" unicode="&#x2dd;" 
d="M588 1516l-152 75q65 60 149.5 179.5t94.5 171.5l4 2l162 -162q-188 -179 -258 -266zM885 1505l-152 76q64 61 148.5 179t95.5 171l4 2l170 -166q-55 -40 -138.5 -124t-127.5 -138z" />
    <glyph glyph-name="gravecomb" unicode="&#x300;" horiz-adv-x="0" 
d="M-526 1509q-40 54 -128 142t-143 129l181 174l4 -2q10 -51 97.5 -172.5t154.5 -184.5z" />
    <glyph glyph-name="acutecomb" unicode="&#x301;" horiz-adv-x="0" 
d="M-551 1509l-166 86q70 66 154 184.5t94 172.5l4 2l182 -174q-58 -41 -142.5 -128.5t-125.5 -142.5z" />
    <glyph glyph-name="uni0302" unicode="&#x302;" horiz-adv-x="0" 
d="M-561 1911q52 -60 131.5 -126t144.5 -102l-161 -192l-5 2q-11 34 -68 106.5t-116 133.5q-58 -60 -114.5 -132.5t-67.5 -107.5l-4 -2l-162 192q61 34 142 101t134 127h146z" />
    <glyph glyph-name="tildecomb" unicode="&#x303;" horiz-adv-x="0" 
d="M-858 1532l-105 154q64 69 127 100t138 31q49 0 91 -19t80 -38t76 -19q43 0 74 23t41 55h4l109 -170q-62 -56 -119.5 -80.5t-126.5 -24.5q-52 0 -96.5 20t-83.5 40t-78 20q-78 0 -127 -92h-4z" />
    <glyph glyph-name="uni0304" unicode="&#x304;" horiz-adv-x="0" 
d="M-850 1561l-4 2l33 211h471q99 0 139 24l4 -2l-31 -217l-481 -2q-88 0 -131 -16z" />
    <glyph glyph-name="uni0306" unicode="&#x306;" horiz-adv-x="0" 
d="M-535 1520q-148 0 -242.5 78.5t-119.5 211.5l209 70l2 -4q-22 -61 18.5 -115.5t132.5 -54.5t133.5 53t22.5 117l2 4l205 -68q-33 -135 -127 -213.5t-236 -78.5z" />
    <glyph glyph-name="uni0307" unicode="&#x307;" horiz-adv-x="0" 
d="M-614 1532q-61 0 -103.5 42.5t-42.5 102.5q0 62 42.5 105t103.5 43q60 0 101.5 -43t41.5 -105q0 -60 -41.5 -102.5t-101.5 -42.5z" />
    <glyph glyph-name="uni0308" unicode="&#x308;" horiz-adv-x="0" 
d="M-737 1552q-51 0 -86 35.5t-35 85.5q0 51 35 86t86 35q49 0 82.5 -35t33.5 -86q0 -50 -33.5 -85.5t-82.5 -35.5zM-418 1552q-51 0 -86 35.5t-35 85.5q0 51 35 86t86 35q49 0 83 -35t34 -86q0 -50 -34 -85.5t-83 -35.5z" />
    <glyph glyph-name="uni030A" unicode="&#x30a;" horiz-adv-x="0" 
d="M-532 1423q-124 0 -209.5 80.5t-85.5 202.5t85.5 204.5t209.5 82.5q121 0 206.5 -83t85.5 -204q0 -119 -85.5 -201t-206.5 -82zM-532 1602q47 0 73.5 27.5t26.5 76.5q0 51 -26.5 78.5t-73.5 27.5q-48 0 -76.5 -28t-28.5 -78t28.5 -77t76.5 -27z" />
    <glyph glyph-name="uni030B" unicode="&#x30b;" horiz-adv-x="0" 
d="M-641 1516l-152 75q65 60 149.5 179.5t94.5 171.5l4 2l162 -162q-188 -179 -258 -266zM-344 1505l-152 76q64 61 148.5 179t95.5 171l4 2l170 -166q-55 -40 -138.5 -124t-127.5 -138z" />
    <glyph glyph-name="uni030C" unicode="&#x30c;" horiz-adv-x="0" 
d="M-446 1931l161 -192q-61 -34 -142 -101t-134 -127h-146q-53 60 -135 127.5t-141 100.5l162 192l4 -2q11 -34 67.5 -105.5t116.5 -133.5q61 65 116.5 135.5t65.5 103.5z" />
    <glyph glyph-name="uni0312" unicode="&#x312;" horiz-adv-x="0" 
d="M-528 1544l-256 60l-2 4q68 68 128 177.5t91 205.5l168 -66q-30 -55 -74 -185.5t-55 -195.5z" />
    <glyph glyph-name="uni0326" unicode="&#x326;" horiz-adv-x="0" 
d="M-487 -539l-170 62q28 50 65 185.5t43 201.5l266 -19l2 -4q-72 -102 -127.5 -220t-78.5 -206z" />
    <glyph glyph-name="uni0327" unicode="&#x327;" horiz-adv-x="0" 
d="M-526 -78q49 -5 89.5 -18t75 -37.5t53.5 -65t19 -94.5q0 -117 -83.5 -178t-196.5 -61q-104 0 -181 47l-18 178l4 2q87 -76 174 -76q55 0 86 24t31 62q0 42 -31 61t-96 19q-61 0 -102 -8l-5 4l66 313h145z" />
    <glyph glyph-name="uni0328" unicode="&#x328;" horiz-adv-x="0" 
d="M-555 -537q-123 -6 -213 56.5t-90 175.5q0 183 242 323l184 5l14 -13q-223 -89 -223 -237q0 -80 63.5 -112.5t151.5 5.5l2 -4z" />
    <glyph glyph-name="uni0335" unicode="&#x335;" horiz-adv-x="0" 
 />
    <glyph glyph-name="uni0337" unicode="&#x337;" horiz-adv-x="0" 
 />
    <glyph glyph-name="uni0338" unicode="&#x338;" horiz-adv-x="0" 
 />
    <glyph glyph-name="uni0401" unicode="&#x401;" 
d="M487 1552q-51 0 -85.5 35.5t-34.5 85.5q0 51 34.5 86t85.5 35q49 0 83 -35t34 -86q0 -50 -34 -85.5t-83 -35.5zM807 1552q-51 0 -86 35.5t-35 85.5q0 51 35 86t86 35q49 0 83 -35t34 -86q0 -50 -34 -85.5t-83 -35.5zM1147 393l4 -2l-57 -407q-101 16 -250 16h-723v4
q44 30 77 108.5t33 194.5v809q0 118 -32.5 195.5t-77.5 107.5v4h735q140 0 217 17l35 -367l-4 -2q-74 152 -322 152h-270v-361h156q204 0 319 15l-59 -345h-4q-49 130 -224 130h-188v-461h223q135 0 240.5 49t171.5 143z" />
    <glyph glyph-name="uni0402" unicode="&#x402;" horiz-adv-x="1501" 
d="M885 905q261 0 405 -120.5t144 -342.5q0 -194 -98.5 -317t-299.5 -141l-84 237l4 2q34 -6 62 -6q46 0 76.5 18t45.5 51.5t21 68.5t6 81q0 271 -303 271q-56 0 -116 -13v-370q0 -256 59 -320v-4h-451v4q50 31 80.5 114t30.5 206v890h-156q-88 0 -158 -42.5t-108 -108.5
l-4 2l35 375q133 -17 280 -17h500q148 0 281 17l30 -357l-4 -2q-37 54 -107 93.5t-155 39.5h-153v-323q63 14 137 14z" />
    <glyph glyph-name="uni0403" unicode="&#x403;" horiz-adv-x="1075" 
d="M614 1509l-165 86q70 65 153.5 184t93.5 173l4 2l183 -174q-58 -42 -143.5 -129.5t-125.5 -141.5zM121 0v4q45 29 80 116t35 197v807q0 112 -33 188.5t-78 106.5v4h602q219 0 301 15l35 -367l-4 -2q-74 152 -322 152h-221v-912q0 -110 35.5 -194t89.5 -111v-4h-520z" />
    <glyph glyph-name="uni0404" unicode="&#x404;" horiz-adv-x="1363" 
d="M1292 416l4 -2l-49 -367q-219 -78 -436 -78q-163 0 -299 55.5t-228 153.5t-143 232.5t-51 291.5q0 345 209.5 547.5t560.5 202.5q188 0 361 -51l32 -354l-4 -3q-61 95 -164.5 144t-226.5 49q-188 0 -307 -105t-148 -292h388q209 0 317 12l-55 -324h-4q-55 111 -226 111
h-424q19 -207 131 -330t301 -123q157 0 266 59t195 171z" />
    <glyph glyph-name="uni0405" unicode="&#x405;" horiz-adv-x="1122" 
d="M547 -31q-271 -3 -414 82l-35 344l4 2q90 -117 192.5 -167.5t231.5 -47.5q238 6 238 185q0 41 -15.5 75.5t-36 57t-61 46.5t-69 37t-82.5 35q-39 16 -60.5 25.5t-58.5 27.5t-58.5 31.5t-52.5 36.5t-49 44.5t-39 52t-32.5 63t-19 74.5t-7.5 88q0 161 132 275t359 114
q157 0 322 -43l27 -336h-5q-61 94 -142 131t-181 37q-236 0 -236 -158q0 -35 14.5 -64t33 -48.5t57.5 -41.5t64.5 -33.5t78.5 -33.5l2 -1q152 -63 220 -112q174 -123 178 -348v-12q0 -179 -130.5 -297t-369.5 -121z" />
    <glyph glyph-name="uni0406" unicode="&#x406;" horiz-adv-x="745" 
d="M121 0v4q44 30 77 108.5t33 194.5v809q0 118 -32.5 195.5t-77.5 107.5v4h504v-4q-44 -31 -77.5 -109t-33.5 -194v-809q0 -118 32.5 -195.5t78.5 -107.5v-4h-504z" />
    <glyph glyph-name="uni0407" unicode="&#x407;" horiz-adv-x="745" 
d="M215 1552q-51 0 -86 35.5t-35 85.5q0 51 35 86t86 35q49 0 83 -35t34 -86q0 -50 -34 -85.5t-83 -35.5zM535 1552q-51 0 -86 35.5t-35 85.5q0 51 35 86t86 35q49 0 82.5 -35t33.5 -86q0 -50 -33.5 -85.5t-82.5 -35.5zM121 0v4q44 30 77 108.5t33 194.5v809
q0 118 -32.5 195.5t-77.5 107.5v4h504v-4q-44 -31 -77.5 -109t-33.5 -194v-809q0 -118 32.5 -195.5t78.5 -107.5v-4h-504z" />
    <glyph glyph-name="uni0408" unicode="&#x408;" horiz-adv-x="919" 
d="M238 -45q-84 0 -205 31l-21 317h4q8 -15 21.5 -32t38.5 -40t64 -38t85 -15q114 0 172 59t58 171v706q0 119 -32.5 197t-78.5 108v4h502v-4q-44 -31 -77.5 -109t-33.5 -194v-635q0 -273 -118.5 -399.5t-378.5 -126.5z" />
    <glyph glyph-name="uni0409" unicode="&#x409;" horiz-adv-x="1859" 
d="M1290 936q230 0 370 -118t140 -331q0 -156 -67.5 -268t-177 -165.5t-246.5 -53.5h-478v1157h-6q-5 -17 -20.5 -50t-34.5 -70.5t-25 -49.5l-329 -731q-29 -65 -36 -121.5t1.5 -86.5t24.5 -44v-4h-424v4q78 72 196 332l381 844q38 79 30 141.5t-63 97.5v4h688v-4
q-44 -30 -77 -108.5t-33 -194.5v-180h186zM1217 205q290 0 290 266q0 134 -70.5 198t-219.5 64h-113v-528h113z" />
    <glyph glyph-name="uni040A" unicode="&#x40a;" horiz-adv-x="2033" 
d="M1464 883q231 0 370.5 -109t139.5 -313q0 -211 -133 -336t-358 -125h-592v4q41 31 72.5 108t31.5 187v379h-483v-371q0 -117 31 -195t73 -108v-4h-495v4q44 30 77 108.5t33 194.5v809q0 118 -32.5 195.5t-77.5 107.5v4h495v-4q-41 -31 -72.5 -109.5t-31.5 -193.5v-233
h483v233q0 117 -31 195t-73 108v4h495v-4q-44 -30 -77 -108.5t-33 -194.5v-233h188zM1391 205q148 0 219 58.5t71 180.5q0 117 -75 175.5t-215 58.5h-115v-473h115z" />
    <glyph glyph-name="uni040B" unicode="&#x40b;" horiz-adv-x="1527" 
d="M1393 299q0 -113 28.5 -189.5t69.5 -105.5v-4h-463v4q37 28 60.5 104t23.5 191v139q0 118 -58.5 181t-164.5 63q-71 0 -141 -18v-340q0 -254 63 -320v-4h-455v4q50 31 80.5 114t30.5 206v890h-156q-88 0 -158 -42.5t-108 -108.5l-4 2l35 375q133 -17 280 -17h500
q148 0 281 17l30 -357l-4 -2q-37 54 -107 93.5t-155 39.5h-153v-348q84 19 161 19q232 0 358 -111t126 -319v-156z" />
    <glyph glyph-name="uni040C" unicode="&#x40c;" horiz-adv-x="1392" 
d="M1001 1780q-58 -41 -142.5 -128.5t-125.5 -142.5l-166 86q70 66 154 184.5t94 172.5l4 2zM512 305q0 -116 29.5 -193.5t70.5 -107.5v-4h-491v4q44 30 77 108.5t33 194.5v817q0 112 -32.5 188.5t-77.5 106.5v4h491v-4q-40 -30 -70 -108.5t-30 -194.5v-811zM1233 231
q54 -78 104 -122t123 -74v-4l-411 -70q-18 72 -101 195l-413 614l346 490q70 102 67 163h426v-4q-115 -55 -241 -227l-289 -391z" />
    <glyph glyph-name="uni040D" unicode="&#x40d;" horiz-adv-x="1628" 
d="M844 1509q-40 54 -127.5 142t-143.5 129l181 174l4 -2q10 -51 97.5 -172.5t154.5 -184.5zM127 0v4q41 31 72.5 109.5t31.5 193.5v809q0 118 -32.5 195.5t-77.5 107.5v4h500v-4q-42 -31 -74.5 -109.5t-32.5 -193.5v-360q0 -182 -45 -430h8q64 186 199 411l295 490
q47 79 64 120t20 76h452v-4q-39 -21 -80 -111t-41 -182v-819q0 -118 32.5 -195.5t78.5 -107.5v-4h-504v4q44 31 77.5 109t33.5 194v369q0 206 57 454h-8q-80 -232 -207 -436l-309 -499q-63 -101 -102 -195h-408z" />
    <glyph glyph-name="uni040E" unicode="&#x40e;" horiz-adv-x="1341" 
d="M674 1520q-149 0 -243.5 78.5t-119.5 211.5l209 70l2 -4q-15 -63 26 -122.5t126 -59.5q88 0 129 58t26 124l2 4l205 -68q-33 -135 -126.5 -213.5t-235.5 -78.5zM887 1423h448v-4q-138 -105 -211 -303l-288 -776q-48 -127 -47.5 -204t49.5 -132v-4h-488v4q124 124 199 324
l78 204h-191l-268 605q-49 108 -91.5 175t-96.5 107v4h479v-4q-34 -64 -32 -127t42 -155l205 -480l182 480q34 90 41 154t-10 132z" />
    <glyph glyph-name="uni040F" unicode="&#x40f;" horiz-adv-x="1544" 
d="M1425 1419q-44 -30 -77 -108.5t-33 -194.5v-809q0 -119 24.5 -197.5t65.5 -105.5v-4h-514q0 -79 11.5 -134.5t43.5 -115.5l-2 -4h-342l-2 4q32 60 43.5 115.5t11.5 134.5h-516v4q42 27 67 105.5t25 197.5v809q0 116 -32 194.5t-76 108.5v4h502v-4q-46 -30 -79.5 -108
t-33.5 -195v-911h522v911q0 118 -32.5 195.5t-77.5 107.5v4h501v-4z" />
    <glyph glyph-name="uni0410" unicode="&#x410;" horiz-adv-x="1384" 
d="M1221 336q39 -111 96 -202t104 -130v-4h-463v4q29 23 32 83.5t-32 168.5l-18 49h-528l-19 -49q-25 -66 -30.5 -121t2.5 -85.5t24 -45.5v-4h-430v4q47 42 104 132.5t95 199.5l293 844q21 59 17 108.5t-18 81t-36 49.5v4h542v-4q-22 -20 -36 -51t-18 -80.5t18 -107.5z
M670 1151q-8 -73 -29.5 -157.5t-36.5 -129.5t-49 -141l-76 -217h393l-75 217q-3 7 -15.5 43.5t-16.5 47t-15 43.5t-15.5 48l-13.5 45t-14 50t-11 47.5t-10.5 52.5t-7.5 51h-8z" />
    <glyph glyph-name="uni0411" unicode="&#x411;" horiz-adv-x="1302" 
d="M717 870q248 0 381 -111.5t133 -299.5q0 -211 -133 -335t-381 -124h-596v4q44 30 77 108.5t33 194.5v809q0 118 -32.5 195.5t-77.5 107.5v4h672q215 0 297 15l32 -365l-4 -2q-71 152 -319 152h-287v-353h205zM692 203q244 3 244 243q0 110 -60.5 169t-183.5 59l-180 -2
v-471z" />
    <glyph glyph-name="uni0412" unicode="&#x412;" horiz-adv-x="1314" 
d="M909 758q128 -15 219 -114.5t91 -223.5q0 -196 -133 -308t-347 -112h-622v4q49 37 85 114t36 201v787q0 119 -33.5 197.5t-87.5 115.5v4h565q232 0 347.5 -88t115.5 -270q0 -113 -71.5 -200t-164.5 -101v-6zM666 1223h-148v-369h148q91 0 140.5 50t49.5 147
q0 172 -190 172zM698 201q112 0 170 62t58 167q0 104 -58 164.5t-170 60.5h-180v-454h180z" />
    <glyph glyph-name="uni0413" unicode="&#x413;" horiz-adv-x="1075" 
d="M121 0v4q45 29 80 116t35 197v807q0 112 -33 188.5t-78 106.5v4h602q219 0 301 15l35 -367l-4 -2q-74 152 -322 152h-221v-912q0 -110 35.5 -194t89.5 -111v-4h-520z" />
    <glyph glyph-name="uni0414" unicode="&#x414;" horiz-adv-x="1406" 
d="M1290 203q120 4 178 8l-104 -420h-4q-20 96 -100 152.5t-195 56.5h-723q-116 0 -196 -57t-99 -152h-4l-104 420q62 -4 186 -8l319 932q34 110 26.5 179t-46.5 105v4h561v-4q-41 -36 -51 -102t20 -160zM573 715l-170 -512h586l-174 512q-70 208 -92 308q-15 70 -23 138h-8
q-4 -26 -9 -52t-9 -47.5t-11 -48.5t-11 -44t-13 -46t-12.5 -41.5t-13.5 -43.5t-13 -40t-14 -42.5t-13 -40.5z" />
    <glyph glyph-name="uni0415" unicode="&#x415;" 
d="M1147 393l4 -2l-57 -407q-101 16 -250 16h-723v4q44 30 77 108.5t33 194.5v809q0 118 -32.5 195.5t-77.5 107.5v4h735q140 0 217 17l35 -367l-4 -2q-74 152 -322 152h-270v-361h156q204 0 319 15l-59 -345h-4q-49 130 -224 130h-188v-461h223q135 0 240.5 49t171.5 143z
" />
    <glyph glyph-name="uni0416" unicode="&#x416;" horiz-adv-x="2011" 
d="M856 770l-410 -590q-77 -114 -57 -180h-446v4q67 30 116 80.5t117 146.5l371 525l-277 436q-46 73 -110.5 135t-128.5 92v4h458v-2q-1 -28 14.5 -64t53.5 -97zM1149 305q0 -116 33 -193.5t78 -107.5v-4h-492v4q44 31 77.5 109t33.5 194v817q0 112 -33 188.5t-78 106.5v4
h492v-4q-44 -31 -77.5 -109t-33.5 -194v-811zM1851 231q51 -77 102.5 -121.5t125.5 -74.5v-4l-424 -72q-15 84 -88 197l-396 614l326 490q71 110 68 161v2h430v-4q-64 -30 -130 -92.5t-114 -134.5l-270 -399z" />
    <glyph glyph-name="uni0417" unicode="&#x417;" horiz-adv-x="1099" 
d="M463 -33q-107 0 -203 19.5t-154 52.5l-28 319l4 2q109 -182 375 -182q127 0 195.5 65t68.5 179q0 110 -66 178t-180 68q-75 0 -127 -12t-115 -44l-4 2l39 267q62 -9 174 -9q116 0 174 55t58 146q0 79 -55 125.5t-162 46.5q-109 0 -199 -42t-149 -118l-5 2l48 308
q164 61 325 61q227 0 354 -96t127 -266q0 -105 -48 -186t-132 -130v-4q104 -43 169 -140.5t65 -227.5q0 -195 -142 -317t-407 -122z" />
    <glyph glyph-name="uni0418" unicode="&#x418;" horiz-adv-x="1628" 
d="M127 0v4q41 31 72.5 109.5t31.5 193.5v809q0 118 -32.5 195.5t-77.5 107.5v4h500v-4q-42 -31 -74.5 -109.5t-32.5 -193.5v-360q0 -182 -45 -430h8q64 186 199 411l295 490q47 79 64 120t20 76h452v-4q-39 -21 -80 -111t-41 -182v-819q0 -118 32.5 -195.5t78.5 -107.5v-4
h-504v4q44 31 77.5 109t33.5 194v369q0 206 57 454h-8q-80 -232 -207 -436l-309 -499q-63 -101 -102 -195h-408z" />
    <glyph glyph-name="uni0419" unicode="&#x419;" horiz-adv-x="1628" 
d="M815 1520q-148 0 -242.5 78.5t-119.5 211.5l209 70l2 -4q-15 -63 25.5 -122.5t125.5 -59.5q60 0 100 29.5t52.5 70.5t3.5 82l2 4l205 -68q-33 -135 -127 -213.5t-236 -78.5zM127 0v4q41 31 72.5 109.5t31.5 193.5v809q0 118 -32.5 195.5t-77.5 107.5v4h500v-4
q-42 -31 -74.5 -109.5t-32.5 -193.5v-360q0 -182 -45 -430h8q64 186 199 411l295 490q47 79 64 120t20 76h452v-4q-39 -21 -80 -111t-41 -182v-819q0 -118 32.5 -195.5t78.5 -107.5v-4h-504v4q44 31 77.5 109t33.5 194v369q0 206 57 454h-8q-80 -232 -207 -436l-309 -499
q-63 -101 -102 -195h-408z" />
    <glyph glyph-name="uni041A" unicode="&#x41a;" horiz-adv-x="1392" 
d="M512 305q0 -116 29.5 -193.5t70.5 -107.5v-4h-491v4q44 30 77 108.5t33 194.5v817q0 112 -32.5 188.5t-77.5 106.5v4h491v-4q-40 -30 -70 -108.5t-30 -194.5v-811zM1233 231q54 -78 104 -122t123 -74v-4l-411 -70q-18 72 -101 195l-413 614l346 490q70 102 67 163h426v-4
q-115 -55 -241 -227l-289 -391z" />
    <glyph glyph-name="uni041B" unicode="&#x41b;" horiz-adv-x="1357" 
d="M-41 0v4q50 43 107.5 132t93.5 200l266 809q29 94 18.5 165t-53.5 109v4h559v-4q-41 -35 -48.5 -104t22.5 -162l270 -817q36 -111 93.5 -200t107.5 -132v-4h-473v4q24 23 25.5 82t-29.5 170l-142 459q-80 262 -106 424h-8q-8 -66 -27.5 -149t-33 -127.5t-44.5 -147.5
l-141 -459q-31 -111 -29.5 -171t25.5 -81v-4h-453z" />
    <glyph glyph-name="uni041C" unicode="&#x41c;" horiz-adv-x="1961" 
d="M68 0l-2 4q54 59 84.5 127.5t37.5 169.5l54 795q7 97 -20 191t-91 132l2 4h469q-43 -54 33 -186l203 -348q103 -181 127 -338h8q21 85 55 157t96 181l201 354q73 128 31 180h473l2 -4q-64 -36 -95 -132t-24 -191l64 -795q7 -81 37.5 -163t82.5 -134l-2 -4h-469l-2 4
q33 30 54 97t14 157l-33 424q-12 149 12 352h-8q-55 -176 -157 -348l-228 -385q-86 -143 -96 -248h-16q-15 105 -103 246l-244 389q-94 150 -147 346h-8q19 -187 12 -352l-22 -424q-4 -91 15.5 -158t51.5 -96l-2 -4h-450z" />
    <glyph glyph-name="uni041D" unicode="&#x41d;" horiz-adv-x="1568" 
d="M1448 1419q-44 -31 -77.5 -109t-33.5 -194v-817q0 -112 33 -188.5t78 -106.5v-4h-496v4q41 31 73 108t32 187v358h-545v-350q0 -117 31 -195t73 -108v-4h-495v4q44 30 77 108.5t33 194.5v809q0 118 -32.5 195.5t-77.5 107.5v4h495v-4q-41 -31 -72.5 -109.5t-31.5 -193.5
v-254h545v254q0 117 -31 195t-74 108v4h496v-4z" />
    <glyph glyph-name="uni041E" unicode="&#x41e;" horiz-adv-x="1671" 
d="M819 -41q-224 0 -391 97.5t-252.5 264t-85.5 377.5q0 230 90.5 402.5t263.5 268t406 95.5q328 0 529.5 -203.5t201.5 -533.5q0 -226 -94.5 -400.5t-268 -271t-399.5 -96.5zM840 172q192 0 314 146t122 389q0 258 -118.5 401t-328.5 143q-201 0 -317.5 -145.5
t-116.5 -386.5q0 -257 114.5 -402t330.5 -145z" />
    <glyph glyph-name="uni041F" unicode="&#x41f;" horiz-adv-x="1544" 
d="M121 0v4q44 30 77 108.5t33 194.5v809q0 119 -24.5 197.5t-65.5 105.5v4h1266v-4q-42 -27 -67 -105.5t-25 -197.5v-809q0 -116 32 -194.5t76 -108.5v-4h-501v4q46 30 79 108t33 195v912h-522v-912q0 -118 32.5 -195.5t78.5 -107.5v-4h-502z" />
    <glyph glyph-name="uni0420" unicode="&#x420;" horiz-adv-x="1257" 
d="M680 1423q245 0 380.5 -120.5t135.5 -341.5q0 -246 -133.5 -369t-382.5 -123h-168v-170q0 -112 33 -188.5t78 -106.5v-4h-502v4q44 30 77 108.5t33 194.5v817q0 112 -32.5 188.5t-77.5 106.5v4h559zM633 672q272 -3 272 274q0 141 -66.5 208t-205.5 67h-121v-547z" />
    <glyph glyph-name="uni0421" unicode="&#x421;" horiz-adv-x="1345" 
d="M811 -31q-163 0 -299 55.5t-228 153.5t-143 232.5t-51 291.5q0 345 209.5 547.5t560.5 202.5q188 0 361 -51l32 -354l-4 -3q-61 95 -164.5 144t-226.5 49q-216 0 -339.5 -138.5t-123.5 -375.5q0 -242 114 -389.5t322 -147.5q157 0 266 59t195 171l4 -2l-49 -367
q-219 -78 -436 -78z" />
    <glyph glyph-name="uni0422" unicode="&#x422;" horiz-adv-x="1212" 
d="M1137 1440l34 -375l-4 -2q-38 66 -108 108.5t-158 42.5h-153v-890q0 -126 35 -209t89 -111v-4h-530v4q50 30 87.5 114.5t37.5 205.5v890h-156q-88 0 -158 -42.5t-108 -108.5l-4 2l35 375q133 -17 280 -17h500q148 0 281 17z" />
    <glyph glyph-name="uni0423" unicode="&#x423;" horiz-adv-x="1341" 
d="M887 1423h448v-4q-138 -105 -211 -303l-288 -776q-48 -127 -47.5 -204t49.5 -132v-4h-488v4q124 124 199 324l78 204h-191l-268 605q-49 108 -91.5 175t-96.5 107v4h479v-4q-34 -64 -32 -127t42 -155l205 -480l182 480q34 90 41 154t-10 132z" />
    <glyph glyph-name="uni0424" unicode="&#x424;" horiz-adv-x="1861" 
d="M1778 729q0 -203 -88 -366.5t-249 -260t-368 -104.5q7 -94 38 -158t71 -90v-4h-502v4q39 27 70 92t38 160q-329 14 -516.5 199t-187.5 495q0 197 87.5 357.5t247.5 257t365 106.5q-11 82 -39.5 136.5t-64.5 78.5v4h502v-4q-35 -25 -64.5 -79.5t-40.5 -135.5
q319 -17 510 -207.5t191 -480.5zM389 717q0 -213 113 -352t293 -154v997q-195 -12 -300.5 -144t-105.5 -347zM1067 209q184 10 295 147t111 353q0 207 -111.5 346.5t-294.5 152.5v-999z" />
    <glyph glyph-name="uni0425" unicode="&#x425;" horiz-adv-x="1304" 
d="M1120 324q68 -99 143.5 -173.5t137.5 -115.5v-4l-428 -76q0 74 -129 272l-209 324l-225 -367q-41 -67 -41 -113.5t28 -66.5v-4h-483v4q54 25 122.5 96t131.5 168l317 490l-323 483q-42 63 -83.5 103.5t-101.5 74.5v4h478v-4q-9 -44 4.5 -87.5t50.5 -106.5l156 -260
l145 249q22 38 33.5 61.5t20 50t6 49t-14.5 44.5v4h451v-4q-110 -44 -236 -248l-252 -413z" />
    <glyph glyph-name="uni0426" unicode="&#x426;" horiz-adv-x="1566" 
d="M1315 203q85 4 235 16l-106 -448h-4q-86 229 -316 229h-1003v4q44 30 77 108.5t33 194.5v809q0 118 -32.5 195.5t-77.5 107.5v4h495v-4q-41 -32 -72.5 -110t-31.5 -193v-911l522 -2v913q0 117 -31 194.5t-73 108.5v4h495v-4q-44 -30 -77 -108.5t-33 -194.5v-913z" />
    <glyph glyph-name="uni0427" unicode="&#x427;" horiz-adv-x="1411" 
d="M1290 1419q-44 -30 -77 -108.5t-33 -194.5v-809q0 -118 32.5 -195.5t77.5 -107.5v-4h-502v4q44 31 77.5 109t33.5 194v211q-93 -16 -201 -16q-149 0 -254.5 36.5t-167 107.5t-89 166.5t-27.5 223.5v80q0 117 -32.5 195t-76.5 108v4h484v-4q-40 -29 -67.5 -107t-27.5 -196
v-110q0 -149 82.5 -223t255.5 -74q65 0 121 10v397q0 118 -26 196.5t-68 106.5v4h485v-4z" />
    <glyph glyph-name="uni0428" unicode="&#x428;" horiz-adv-x="2222" 
d="M2101 1419q-45 -30 -77.5 -107.5t-32.5 -195.5v-809q0 -116 33 -194.5t77 -108.5v-4h-1980v4q44 30 77 108.5t33 194.5v809q0 118 -32.5 195.5t-77.5 107.5v4h489v-4q-41 -32 -72.5 -110t-31.5 -193v-913h469v913q0 114 -32 192.5t-73 110.5v4h482v-4q-42 -31 -73.5 -109
t-31.5 -194v-913h469v913q0 115 -31.5 193t-72.5 110v4h489v-4z" />
    <glyph glyph-name="uni0429" unicode="&#x429;" horiz-adv-x="2242" 
d="M1991 203q133 3 235 14l-106 -446h-4q-86 229 -316 229h-1679v4q44 30 77 108.5t33 194.5v809q0 118 -32.5 195.5t-77.5 107.5v4h489v-4q-41 -32 -72.5 -110t-31.5 -193v-913h469v913q0 114 -32 192.5t-73 110.5v4h482v-4q-42 -31 -73.5 -109t-31.5 -194v-913h469v913
q0 115 -31.5 193t-72.5 110v4h489v-4q-45 -30 -77.5 -107.5t-32.5 -195.5v-913z" />
    <glyph glyph-name="uni042A" unicode="&#x42a;" horiz-adv-x="1345" 
d="M764 915q253 0 392.5 -116t139.5 -324q0 -232 -138.5 -353.5t-393.5 -121.5h-559v4q45 30 77.5 108t32.5 195v897q-204 -29 -325 -225l-4 2l88 457q132 -15 350 -15h283v-4q-44 -31 -77.5 -109t-33.5 -194v-201h168zM715 205q149 0 219 60t70 192q0 134 -70 195t-219 61
h-119v-508h119z" />
    <glyph glyph-name="uni042B" unicode="&#x42b;" horiz-adv-x="1918" 
d="M705 936q230 0 369.5 -118t139.5 -331q0 -156 -67.5 -268t-177 -165.5t-246.5 -53.5h-602v4q44 30 77 108.5t33 194.5v817q0 112 -32.5 188.5t-77.5 106.5v4h502v-4q-44 -31 -77.5 -109t-33.5 -194v-180h193zM1798 1419q-44 -30 -77 -108.5t-33 -194.5v-809
q0 -118 32.5 -195.5t77.5 -107.5v-4h-504v4q44 31 77.5 109t33.5 194v809q0 118 -32.5 195.5t-78.5 107.5v4h504v-4zM631 205q291 0 291 266q0 134 -71 198t-220 64h-119v-528h119z" />
    <glyph glyph-name="uni042C" unicode="&#x42c;" horiz-adv-x="1273" 
d="M705 936q230 0 369.5 -118t139.5 -331q0 -156 -67.5 -268t-177 -165.5t-246.5 -53.5h-602v4q44 30 77 108.5t33 194.5v817q0 112 -32.5 188.5t-77.5 106.5v4h502v-4q-44 -31 -77.5 -109t-33.5 -194v-180h193zM631 205q291 0 291 266q0 134 -71 198t-220 64h-119v-528h119
z" />
    <glyph glyph-name="uni042D" unicode="&#x42d;" horiz-adv-x="1363" 
d="M545 1452q122 0 231.5 -30.5t200.5 -92t157.5 -147.5t103 -202t36.5 -251q0 -225 -95.5 -398t-268.5 -267.5t-396 -94.5q-96 0 -200.5 21t-188.5 57l-49 350l4 2q72 -106 186 -159.5t252 -53.5q110 0 196 36.5t139.5 101.5t83 148.5t34.5 184.5h-449q-102 0 -160 -19
t-108 -71l-4 2l47 299q92 -10 207 -10h457q-33 184 -148.5 281.5t-286.5 97.5q-136 0 -240.5 -44t-183.5 -142l-4 2l60 342q191 57 387 57z" />
    <glyph glyph-name="uni042E" unicode="&#x42e;" horiz-adv-x="2285" 
d="M1466 1464q215 0 381 -92.5t257 -260t91 -384.5q0 -226 -94.5 -400.5t-267.5 -271t-399 -96.5q-158 0 -289.5 52t-222 143.5t-143.5 216.5t-62 272h-205v-336q0 -118 30.5 -195.5t73.5 -107.5v-4h-495v4q44 30 77 108.5t33 194.5v809q0 118 -32.5 195.5t-77.5 107.5v4
h495v-4q-42 -30 -73 -108.5t-31 -194.5v-270h213q42 286 237 452t504 166zM1456 172q192 0 314 145t122 390q0 258 -118 401t-328 143q-201 0 -317.5 -145.5t-116.5 -386.5q0 -256 114 -401.5t330 -145.5z" />
    <glyph glyph-name="uni042F" unicode="&#x42f;" horiz-adv-x="1302" 
d="M1182 1419q-44 -31 -77.5 -109t-33.5 -194v-809q0 -118 32.5 -195.5t78.5 -107.5v-4h-490v4q39 31 69 109.5t30 193.5v914l-156 2q-133 2 -203 -62t-70 -194q0 -113 71.5 -176.5t201.5 -63.5h110l-303 -541q-69 -124 -98 -229l-389 76v4q60 17 124.5 79t115.5 150
l176 307q-137 42 -215 140.5t-78 234.5q0 233 132 354t390 121h582v-4z" />
    <glyph glyph-name="uni0430" unicode="&#x430;" horiz-adv-x="1384" 
d="M1221 336q39 -111 96 -202t104 -130v-4h-463v4q29 23 32 83.5t-32 168.5l-18 49h-528l-19 -49q-25 -66 -30.5 -121t2.5 -85.5t24 -45.5v-4h-430v4q47 42 104 132.5t95 199.5l293 844q21 59 17 108.5t-18 81t-36 49.5v4h542v-4q-22 -20 -36 -51t-18 -80.5t18 -107.5z
M670 1151q-8 -73 -29.5 -157.5t-36.5 -129.5t-49 -141l-76 -217h393l-75 217q-3 7 -15.5 43.5t-16.5 47t-15 43.5t-15.5 48l-13.5 45t-14 50t-11 47.5t-10.5 52.5t-7.5 51h-8z" />
    <glyph glyph-name="uni0431" unicode="&#x431;" horiz-adv-x="1302" 
d="M717 870q248 0 381 -111.5t133 -299.5q0 -211 -133 -335t-381 -124h-596v4q44 30 77 108.5t33 194.5v809q0 118 -32.5 195.5t-77.5 107.5v4h672q215 0 297 15l32 -365l-4 -2q-71 152 -319 152h-287v-353h205zM692 203q244 3 244 243q0 110 -60.5 169t-183.5 59l-180 -2
v-471z" />
    <glyph glyph-name="uni0432" unicode="&#x432;" horiz-adv-x="1314" 
d="M909 758q128 -15 219 -114.5t91 -223.5q0 -196 -133 -308t-347 -112h-622v4q49 37 85 114t36 201v787q0 119 -33.5 197.5t-87.5 115.5v4h565q232 0 347.5 -88t115.5 -270q0 -113 -71.5 -200t-164.5 -101v-6zM666 1223h-148v-369h148q91 0 140.5 50t49.5 147
q0 172 -190 172zM698 201q112 0 170 62t58 167q0 104 -58 164.5t-170 60.5h-180v-454h180z" />
    <glyph glyph-name="uni0433" unicode="&#x433;" horiz-adv-x="1075" 
d="M121 0v4q45 29 80 116t35 197v807q0 112 -33 188.5t-78 106.5v4h602q219 0 301 15l35 -367l-4 -2q-74 152 -322 152h-221v-912q0 -110 35.5 -194t89.5 -111v-4h-520z" />
    <glyph glyph-name="uni0434" unicode="&#x434;" horiz-adv-x="1406" 
d="M1290 203q120 4 178 8l-104 -420h-4q-20 96 -100 152.5t-195 56.5h-723q-116 0 -196 -57t-99 -152h-4l-104 420q62 -4 186 -8l319 932q34 110 26.5 179t-46.5 105v4h561v-4q-41 -36 -51 -102t20 -160zM573 715l-170 -512h586l-174 512q-70 208 -92 308q-15 70 -23 138h-8
q-4 -26 -9 -52t-9 -47.5t-11 -48.5t-11 -44t-13 -46t-12.5 -41.5t-13.5 -43.5t-13 -40t-14 -42.5t-13 -40.5z" />
    <glyph glyph-name="uni0435" unicode="&#x435;" 
d="M1147 393l4 -2l-57 -407q-101 16 -250 16h-723v4q44 30 77 108.5t33 194.5v809q0 118 -32.5 195.5t-77.5 107.5v4h735q140 0 217 17l35 -367l-4 -2q-74 152 -322 152h-270v-361h156q204 0 319 15l-59 -345h-4q-49 130 -224 130h-188v-461h223q135 0 240.5 49t171.5 143z
" />
    <glyph glyph-name="uni0436" unicode="&#x436;" horiz-adv-x="2011" 
d="M856 770l-410 -590q-77 -114 -57 -180h-446v4q67 30 116 80.5t117 146.5l371 525l-277 436q-46 73 -110.5 135t-128.5 92v4h458v-2q-1 -28 14.5 -64t53.5 -97zM1149 305q0 -116 33 -193.5t78 -107.5v-4h-492v4q44 31 77.5 109t33.5 194v817q0 112 -33 188.5t-78 106.5v4
h492v-4q-44 -31 -77.5 -109t-33.5 -194v-811zM1851 231q51 -77 102.5 -121.5t125.5 -74.5v-4l-424 -72q-15 84 -88 197l-396 614l326 490q71 110 68 161v2h430v-4q-64 -30 -130 -92.5t-114 -134.5l-270 -399z" />
    <glyph glyph-name="uni0437" unicode="&#x437;" horiz-adv-x="1099" 
d="M463 -33q-107 0 -203 19.5t-154 52.5l-28 319l4 2q109 -182 375 -182q127 0 195.5 65t68.5 179q0 110 -66 178t-180 68q-75 0 -127 -12t-115 -44l-4 2l39 267q62 -9 174 -9q116 0 174 55t58 146q0 79 -55 125.5t-162 46.5q-109 0 -199 -42t-149 -118l-5 2l48 308
q164 61 325 61q227 0 354 -96t127 -266q0 -105 -48 -186t-132 -130v-4q104 -43 169 -140.5t65 -227.5q0 -195 -142 -317t-407 -122z" />
    <glyph glyph-name="uni0438" unicode="&#x438;" horiz-adv-x="1628" 
d="M127 0v4q41 31 72.5 109.5t31.5 193.5v809q0 118 -32.5 195.5t-77.5 107.5v4h500v-4q-42 -31 -74.5 -109.5t-32.5 -193.5v-360q0 -182 -45 -430h8q64 186 199 411l295 490q47 79 64 120t20 76h452v-4q-39 -21 -80 -111t-41 -182v-819q0 -118 32.5 -195.5t78.5 -107.5v-4
h-504v4q44 31 77.5 109t33.5 194v369q0 206 57 454h-8q-80 -232 -207 -436l-309 -499q-63 -101 -102 -195h-408z" />
    <glyph glyph-name="uni0439" unicode="&#x439;" horiz-adv-x="1628" 
d="M815 1520q-148 0 -242.5 78.5t-119.5 211.5l209 70l2 -4q-15 -63 25.5 -122.5t125.5 -59.5q60 0 100 29.5t52.5 70.5t3.5 82l2 4l205 -68q-33 -135 -127 -213.5t-236 -78.5zM127 0v4q41 31 72.5 109.5t31.5 193.5v809q0 118 -32.5 195.5t-77.5 107.5v4h500v-4
q-42 -31 -74.5 -109.5t-32.5 -193.5v-360q0 -182 -45 -430h8q64 186 199 411l295 490q47 79 64 120t20 76h452v-4q-39 -21 -80 -111t-41 -182v-819q0 -118 32.5 -195.5t78.5 -107.5v-4h-504v4q44 31 77.5 109t33.5 194v369q0 206 57 454h-8q-80 -232 -207 -436l-309 -499
q-63 -101 -102 -195h-408z" />
    <glyph glyph-name="uni043A" unicode="&#x43a;" horiz-adv-x="1392" 
d="M512 305q0 -116 29.5 -193.5t70.5 -107.5v-4h-491v4q44 30 77 108.5t33 194.5v817q0 112 -32.5 188.5t-77.5 106.5v4h491v-4q-40 -30 -70 -108.5t-30 -194.5v-811zM1233 231q54 -78 104 -122t123 -74v-4l-411 -70q-18 72 -101 195l-413 614l346 490q70 102 67 163h426v-4
q-115 -55 -241 -227l-289 -391z" />
    <glyph glyph-name="uni043B" unicode="&#x43b;" horiz-adv-x="1357" 
d="M-41 0v4q50 43 107.5 132t93.5 200l266 809q29 94 18.5 165t-53.5 109v4h559v-4q-41 -35 -48.5 -104t22.5 -162l270 -817q36 -111 93.5 -200t107.5 -132v-4h-473v4q24 23 25.5 82t-29.5 170l-142 459q-80 262 -106 424h-8q-8 -66 -27.5 -149t-33 -127.5t-44.5 -147.5
l-141 -459q-31 -111 -29.5 -171t25.5 -81v-4h-453z" />
    <glyph glyph-name="uni043C" unicode="&#x43c;" horiz-adv-x="1961" 
d="M68 0l-2 4q54 59 84.5 127.5t37.5 169.5l54 795q7 97 -20 191t-91 132l2 4h469q-43 -54 33 -186l203 -348q103 -181 127 -338h8q21 85 55 157t96 181l201 354q73 128 31 180h473l2 -4q-64 -36 -95 -132t-24 -191l64 -795q7 -81 37.5 -163t82.5 -134l-2 -4h-469l-2 4
q33 30 54 97t14 157l-33 424q-12 149 12 352h-8q-55 -176 -157 -348l-228 -385q-86 -143 -96 -248h-16q-15 105 -103 246l-244 389q-94 150 -147 346h-8q19 -187 12 -352l-22 -424q-4 -91 15.5 -158t51.5 -96l-2 -4h-450z" />
    <glyph glyph-name="uni043D" unicode="&#x43d;" horiz-adv-x="1568" 
d="M1448 1419q-44 -31 -77.5 -109t-33.5 -194v-817q0 -112 33 -188.5t78 -106.5v-4h-496v4q41 31 73 108t32 187v358h-545v-350q0 -117 31 -195t73 -108v-4h-495v4q44 30 77 108.5t33 194.5v809q0 118 -32.5 195.5t-77.5 107.5v4h495v-4q-41 -31 -72.5 -109.5t-31.5 -193.5
v-254h545v254q0 117 -31 195t-74 108v4h496v-4z" />
    <glyph glyph-name="uni043E" unicode="&#x43e;" horiz-adv-x="1671" 
d="M819 -41q-224 0 -391 97.5t-252.5 264t-85.5 377.5q0 230 90.5 402.5t263.5 268t406 95.5q328 0 529.5 -203.5t201.5 -533.5q0 -226 -94.5 -400.5t-268 -271t-399.5 -96.5zM840 172q192 0 314 146t122 389q0 258 -118.5 401t-328.5 143q-201 0 -317.5 -145.5
t-116.5 -386.5q0 -257 114.5 -402t330.5 -145z" />
    <glyph glyph-name="uni043F" unicode="&#x43f;" horiz-adv-x="1544" 
d="M121 0v4q44 30 77 108.5t33 194.5v809q0 119 -24.5 197.5t-65.5 105.5v4h1266v-4q-42 -27 -67 -105.5t-25 -197.5v-809q0 -116 32 -194.5t76 -108.5v-4h-501v4q46 30 79 108t33 195v912h-522v-912q0 -118 32.5 -195.5t78.5 -107.5v-4h-502z" />
    <glyph glyph-name="uni0440" unicode="&#x440;" horiz-adv-x="1257" 
d="M680 1423q245 0 380.5 -120.5t135.5 -341.5q0 -246 -133.5 -369t-382.5 -123h-168v-170q0 -112 33 -188.5t78 -106.5v-4h-502v4q44 30 77 108.5t33 194.5v817q0 112 -32.5 188.5t-77.5 106.5v4h559zM633 672q272 -3 272 274q0 141 -66.5 208t-205.5 67h-121v-547z" />
    <glyph glyph-name="uni0441" unicode="&#x441;" horiz-adv-x="1345" 
d="M811 -31q-163 0 -299 55.5t-228 153.5t-143 232.5t-51 291.5q0 345 209.5 547.5t560.5 202.5q188 0 361 -51l32 -354l-4 -3q-61 95 -164.5 144t-226.5 49q-216 0 -339.5 -138.5t-123.5 -375.5q0 -242 114 -389.5t322 -147.5q157 0 266 59t195 171l4 -2l-49 -367
q-219 -78 -436 -78z" />
    <glyph glyph-name="uni0442" unicode="&#x442;" horiz-adv-x="1212" 
d="M1137 1440l34 -375l-4 -2q-38 66 -108 108.5t-158 42.5h-153v-890q0 -126 35 -209t89 -111v-4h-530v4q50 30 87.5 114.5t37.5 205.5v890h-156q-88 0 -158 -42.5t-108 -108.5l-4 2l35 375q133 -17 280 -17h500q148 0 281 17z" />
    <glyph glyph-name="uni0443" unicode="&#x443;" horiz-adv-x="1341" 
d="M887 1423h448v-4q-138 -105 -211 -303l-288 -776q-48 -127 -47.5 -204t49.5 -132v-4h-488v4q124 124 199 324l78 204h-191l-268 605q-49 108 -91.5 175t-96.5 107v4h479v-4q-34 -64 -32 -127t42 -155l205 -480l182 480q34 90 41 154t-10 132z" />
    <glyph glyph-name="uni0444" unicode="&#x444;" horiz-adv-x="1861" 
d="M1778 729q0 -203 -88 -366.5t-249 -260t-368 -104.5q7 -94 38 -158t71 -90v-4h-502v4q39 27 70 92t38 160q-329 14 -516.5 199t-187.5 495q0 197 87.5 357.5t247.5 257t365 106.5q-11 82 -39.5 136.5t-64.5 78.5v4h502v-4q-35 -25 -64.5 -79.5t-40.5 -135.5
q319 -17 510 -207.5t191 -480.5zM389 717q0 -213 113 -352t293 -154v997q-195 -12 -300.5 -144t-105.5 -347zM1067 209q184 10 295 147t111 353q0 207 -111.5 346.5t-294.5 152.5v-999z" />
    <glyph glyph-name="uni0445" unicode="&#x445;" horiz-adv-x="1304" 
d="M1120 324q68 -99 143.5 -173.5t137.5 -115.5v-4l-428 -76q0 74 -129 272l-209 324l-225 -367q-41 -67 -41 -113.5t28 -66.5v-4h-483v4q54 25 122.5 96t131.5 168l317 490l-323 483q-42 63 -83.5 103.5t-101.5 74.5v4h478v-4q-9 -44 4.5 -87.5t50.5 -106.5l156 -260
l145 249q22 38 33.5 61.5t20 50t6 49t-14.5 44.5v4h451v-4q-110 -44 -236 -248l-252 -413z" />
    <glyph glyph-name="uni0446" unicode="&#x446;" horiz-adv-x="1566" 
d="M1315 203q85 4 235 16l-106 -448h-4q-86 229 -316 229h-1003v4q44 30 77 108.5t33 194.5v809q0 118 -32.5 195.5t-77.5 107.5v4h495v-4q-41 -32 -72.5 -110t-31.5 -193v-911l522 -2v913q0 117 -31 194.5t-73 108.5v4h495v-4q-44 -30 -77 -108.5t-33 -194.5v-913z" />
    <glyph glyph-name="uni0447" unicode="&#x447;" horiz-adv-x="1411" 
d="M1290 1419q-44 -30 -77 -108.5t-33 -194.5v-809q0 -118 32.5 -195.5t77.5 -107.5v-4h-502v4q44 31 77.5 109t33.5 194v211q-93 -16 -201 -16q-149 0 -254.5 36.5t-167 107.5t-89 166.5t-27.5 223.5v80q0 117 -32.5 195t-76.5 108v4h484v-4q-40 -29 -67.5 -107t-27.5 -196
v-110q0 -149 82.5 -223t255.5 -74q65 0 121 10v397q0 118 -26 196.5t-68 106.5v4h485v-4z" />
    <glyph glyph-name="uni0448" unicode="&#x448;" horiz-adv-x="2222" 
d="M2101 1419q-45 -30 -77.5 -107.5t-32.5 -195.5v-809q0 -116 33 -194.5t77 -108.5v-4h-1980v4q44 30 77 108.5t33 194.5v809q0 118 -32.5 195.5t-77.5 107.5v4h489v-4q-41 -32 -72.5 -110t-31.5 -193v-913h469v913q0 114 -32 192.5t-73 110.5v4h482v-4q-42 -31 -73.5 -109
t-31.5 -194v-913h469v913q0 115 -31.5 193t-72.5 110v4h489v-4z" />
    <glyph glyph-name="uni0449" unicode="&#x449;" horiz-adv-x="2242" 
d="M1991 203q133 3 235 14l-106 -446h-4q-86 229 -316 229h-1679v4q44 30 77 108.5t33 194.5v809q0 118 -32.5 195.5t-77.5 107.5v4h489v-4q-41 -32 -72.5 -110t-31.5 -193v-913h469v913q0 114 -32 192.5t-73 110.5v4h482v-4q-42 -31 -73.5 -109t-31.5 -194v-913h469v913
q0 115 -31.5 193t-72.5 110v4h489v-4q-45 -30 -77.5 -107.5t-32.5 -195.5v-913z" />
    <glyph glyph-name="uni044A" unicode="&#x44a;" horiz-adv-x="1345" 
d="M764 915q253 0 392.5 -116t139.5 -324q0 -232 -138.5 -353.5t-393.5 -121.5h-559v4q45 30 77.5 108t32.5 195v897q-204 -29 -325 -225l-4 2l88 457q132 -15 350 -15h283v-4q-44 -31 -77.5 -109t-33.5 -194v-201h168zM715 205q149 0 219 60t70 192q0 134 -70 195t-219 61
h-119v-508h119z" />
    <glyph glyph-name="uni044B" unicode="&#x44b;" horiz-adv-x="1918" 
d="M705 936q230 0 369.5 -118t139.5 -331q0 -156 -67.5 -268t-177 -165.5t-246.5 -53.5h-602v4q44 30 77 108.5t33 194.5v817q0 112 -32.5 188.5t-77.5 106.5v4h502v-4q-44 -31 -77.5 -109t-33.5 -194v-180h193zM1798 1419q-44 -30 -77 -108.5t-33 -194.5v-809
q0 -118 32.5 -195.5t77.5 -107.5v-4h-504v4q44 31 77.5 109t33.5 194v809q0 118 -32.5 195.5t-78.5 107.5v4h504v-4zM631 205q291 0 291 266q0 134 -71 198t-220 64h-119v-528h119z" />
    <glyph glyph-name="uni044C" unicode="&#x44c;" horiz-adv-x="1273" 
d="M705 936q230 0 369.5 -118t139.5 -331q0 -156 -67.5 -268t-177 -165.5t-246.5 -53.5h-602v4q44 30 77 108.5t33 194.5v817q0 112 -32.5 188.5t-77.5 106.5v4h502v-4q-44 -31 -77.5 -109t-33.5 -194v-180h193zM631 205q291 0 291 266q0 134 -71 198t-220 64h-119v-528h119
z" />
    <glyph glyph-name="uni044D" unicode="&#x44d;" horiz-adv-x="1363" 
d="M545 1452q122 0 231.5 -30.5t200.5 -92t157.5 -147.5t103 -202t36.5 -251q0 -225 -95.5 -398t-268.5 -267.5t-396 -94.5q-96 0 -200.5 21t-188.5 57l-49 350l4 2q72 -106 186 -159.5t252 -53.5q110 0 196 36.5t139.5 101.5t83 148.5t34.5 184.5h-449q-102 0 -160 -19
t-108 -71l-4 2l47 299q92 -10 207 -10h457q-33 184 -148.5 281.5t-286.5 97.5q-136 0 -240.5 -44t-183.5 -142l-4 2l60 342q191 57 387 57z" />
    <glyph glyph-name="uni044E" unicode="&#x44e;" horiz-adv-x="2285" 
d="M1466 1464q215 0 381 -92.5t257 -260t91 -384.5q0 -226 -94.5 -400.5t-267.5 -271t-399 -96.5q-158 0 -289.5 52t-222 143.5t-143.5 216.5t-62 272h-205v-336q0 -118 30.5 -195.5t73.5 -107.5v-4h-495v4q44 30 77 108.5t33 194.5v809q0 118 -32.5 195.5t-77.5 107.5v4
h495v-4q-42 -30 -73 -108.5t-31 -194.5v-270h213q42 286 237 452t504 166zM1456 172q192 0 314 145t122 390q0 258 -118 401t-328 143q-201 0 -317.5 -145.5t-116.5 -386.5q0 -256 114 -401.5t330 -145.5z" />
    <glyph glyph-name="uni044F" unicode="&#x44f;" horiz-adv-x="1302" 
d="M1182 1419q-44 -31 -77.5 -109t-33.5 -194v-809q0 -118 32.5 -195.5t78.5 -107.5v-4h-490v4q39 31 69 109.5t30 193.5v914l-156 2q-133 2 -203 -62t-70 -194q0 -113 71.5 -176.5t201.5 -63.5h110l-303 -541q-69 -124 -98 -229l-389 76v4q60 17 124.5 79t115.5 150
l176 307q-137 42 -215 140.5t-78 234.5q0 233 132 354t390 121h582v-4z" />
    <glyph glyph-name="uni0451" unicode="&#x451;" 
d="M487 1552q-51 0 -85.5 35.5t-34.5 85.5q0 51 34.5 86t85.5 35q49 0 83 -35t34 -86q0 -50 -34 -85.5t-83 -35.5zM807 1552q-51 0 -86 35.5t-35 85.5q0 51 35 86t86 35q49 0 83 -35t34 -86q0 -50 -34 -85.5t-83 -35.5zM1147 393l4 -2l-57 -407q-101 16 -250 16h-723v4
q44 30 77 108.5t33 194.5v809q0 118 -32.5 195.5t-77.5 107.5v4h735q140 0 217 17l35 -367l-4 -2q-74 152 -322 152h-270v-361h156q204 0 319 15l-59 -345h-4q-49 130 -224 130h-188v-461h223q135 0 240.5 49t171.5 143z" />
    <glyph glyph-name="uni0452" unicode="&#x452;" horiz-adv-x="1501" 
d="M885 905q261 0 405 -120.5t144 -342.5q0 -194 -98.5 -317t-299.5 -141l-84 237l4 2q34 -6 62 -6q46 0 76.5 18t45.5 51.5t21 68.5t6 81q0 271 -303 271q-56 0 -116 -13v-370q0 -256 59 -320v-4h-451v4q50 31 80.5 114t30.5 206v890h-156q-88 0 -158 -42.5t-108 -108.5
l-4 2l35 375q133 -17 280 -17h500q148 0 281 17l30 -357l-4 -2q-37 54 -107 93.5t-155 39.5h-153v-323q63 14 137 14z" />
    <glyph glyph-name="uni0453" unicode="&#x453;" horiz-adv-x="1075" 
d="M614 1509l-165 86q70 65 153.5 184t93.5 173l4 2l183 -174q-58 -42 -143.5 -129.5t-125.5 -141.5zM121 0v4q45 29 80 116t35 197v807q0 112 -33 188.5t-78 106.5v4h602q219 0 301 15l35 -367l-4 -2q-74 152 -322 152h-221v-912q0 -110 35.5 -194t89.5 -111v-4h-520z" />
    <glyph glyph-name="uni0454" unicode="&#x454;" horiz-adv-x="1363" 
d="M1292 416l4 -2l-49 -367q-219 -78 -436 -78q-163 0 -299 55.5t-228 153.5t-143 232.5t-51 291.5q0 345 209.5 547.5t560.5 202.5q188 0 361 -51l32 -354l-4 -3q-61 95 -164.5 144t-226.5 49q-188 0 -307 -105t-148 -292h388q209 0 317 12l-55 -324h-4q-55 111 -226 111
h-424q19 -207 131 -330t301 -123q157 0 266 59t195 171z" />
    <glyph glyph-name="uni0455" unicode="&#x455;" horiz-adv-x="1122" 
d="M547 -31q-271 -3 -414 82l-35 344l4 2q90 -117 192.5 -167.5t231.5 -47.5q238 6 238 185q0 41 -15.5 75.5t-36 57t-61 46.5t-69 37t-82.5 35q-39 16 -60.5 25.5t-58.5 27.5t-58.5 31.5t-52.5 36.5t-49 44.5t-39 52t-32.5 63t-19 74.5t-7.5 88q0 161 132 275t359 114
q157 0 322 -43l27 -336h-5q-61 94 -142 131t-181 37q-236 0 -236 -158q0 -35 14.5 -64t33 -48.5t57.5 -41.5t64.5 -33.5t78.5 -33.5l2 -1q152 -63 220 -112q174 -123 178 -348v-12q0 -179 -130.5 -297t-369.5 -121z" />
    <glyph glyph-name="uni0456" unicode="&#x456;" horiz-adv-x="745" 
d="M121 0v4q44 30 77 108.5t33 194.5v809q0 118 -32.5 195.5t-77.5 107.5v4h504v-4q-44 -31 -77.5 -109t-33.5 -194v-809q0 -118 32.5 -195.5t78.5 -107.5v-4h-504z" />
    <glyph glyph-name="uni0457" unicode="&#x457;" horiz-adv-x="745" 
d="M215 1552q-51 0 -86 35.5t-35 85.5q0 51 35 86t86 35q49 0 83 -35t34 -86q0 -50 -34 -85.5t-83 -35.5zM535 1552q-51 0 -86 35.5t-35 85.5q0 51 35 86t86 35q49 0 82.5 -35t33.5 -86q0 -50 -33.5 -85.5t-82.5 -35.5zM121 0v4q44 30 77 108.5t33 194.5v809
q0 118 -32.5 195.5t-77.5 107.5v4h504v-4q-44 -31 -77.5 -109t-33.5 -194v-809q0 -118 32.5 -195.5t78.5 -107.5v-4h-504z" />
    <glyph glyph-name="uni0458" unicode="&#x458;" horiz-adv-x="919" 
d="M238 -45q-84 0 -205 31l-21 317h4q8 -15 21.5 -32t38.5 -40t64 -38t85 -15q114 0 172 59t58 171v706q0 119 -32.5 197t-78.5 108v4h502v-4q-44 -31 -77.5 -109t-33.5 -194v-635q0 -273 -118.5 -399.5t-378.5 -126.5z" />
    <glyph glyph-name="uni0459" unicode="&#x459;" horiz-adv-x="1859" 
d="M1290 936q230 0 370 -118t140 -331q0 -156 -67.5 -268t-177 -165.5t-246.5 -53.5h-478v1157h-6q-5 -17 -20.5 -50t-34.5 -70.5t-25 -49.5l-329 -731q-29 -65 -36 -121.5t1.5 -86.5t24.5 -44v-4h-424v4q78 72 196 332l381 844q38 79 30 141.5t-63 97.5v4h688v-4
q-44 -30 -77 -108.5t-33 -194.5v-180h186zM1217 205q290 0 290 266q0 134 -70.5 198t-219.5 64h-113v-528h113z" />
    <glyph glyph-name="uni045A" unicode="&#x45a;" horiz-adv-x="2033" 
d="M1464 883q231 0 370.5 -109t139.5 -313q0 -211 -133 -336t-358 -125h-592v4q41 31 72.5 108t31.5 187v379h-483v-371q0 -117 31 -195t73 -108v-4h-495v4q44 30 77 108.5t33 194.5v809q0 118 -32.5 195.5t-77.5 107.5v4h495v-4q-41 -31 -72.5 -109.5t-31.5 -193.5v-233
h483v233q0 117 -31 195t-73 108v4h495v-4q-44 -30 -77 -108.5t-33 -194.5v-233h188zM1391 205q148 0 219 58.5t71 180.5q0 117 -75 175.5t-215 58.5h-115v-473h115z" />
    <glyph glyph-name="uni045B" unicode="&#x45b;" horiz-adv-x="1527" 
d="M1393 299q0 -113 28.5 -189.5t69.5 -105.5v-4h-463v4q37 28 60.5 104t23.5 191v139q0 118 -58.5 181t-164.5 63q-71 0 -141 -18v-340q0 -254 63 -320v-4h-455v4q50 31 80.5 114t30.5 206v890h-156q-88 0 -158 -42.5t-108 -108.5l-4 2l35 375q133 -17 280 -17h500
q148 0 281 17l30 -357l-4 -2q-37 54 -107 93.5t-155 39.5h-153v-348q84 19 161 19q232 0 358 -111t126 -319v-156z" />
    <glyph glyph-name="uni045C" unicode="&#x45c;" horiz-adv-x="1392" 
d="M1001 1780q-58 -41 -142.5 -128.5t-125.5 -142.5l-166 86q70 66 154 184.5t94 172.5l4 2zM512 305q0 -116 29.5 -193.5t70.5 -107.5v-4h-491v4q44 30 77 108.5t33 194.5v817q0 112 -32.5 188.5t-77.5 106.5v4h491v-4q-40 -30 -70 -108.5t-30 -194.5v-811zM1233 231
q54 -78 104 -122t123 -74v-4l-411 -70q-18 72 -101 195l-413 614l346 490q70 102 67 163h426v-4q-115 -55 -241 -227l-289 -391z" />
    <glyph glyph-name="uni045D" unicode="&#x45d;" horiz-adv-x="1628" 
d="M844 1509q-40 54 -127.5 142t-143.5 129l181 174l4 -2q10 -51 97.5 -172.5t154.5 -184.5zM127 0v4q41 31 72.5 109.5t31.5 193.5v809q0 118 -32.5 195.5t-77.5 107.5v4h500v-4q-42 -31 -74.5 -109.5t-32.5 -193.5v-360q0 -182 -45 -430h8q64 186 199 411l295 490
q47 79 64 120t20 76h452v-4q-39 -21 -80 -111t-41 -182v-819q0 -118 32.5 -195.5t78.5 -107.5v-4h-504v4q44 31 77.5 109t33.5 194v369q0 206 57 454h-8q-80 -232 -207 -436l-309 -499q-63 -101 -102 -195h-408z" />
    <glyph glyph-name="uni045E" unicode="&#x45e;" horiz-adv-x="1341" 
d="M674 1520q-149 0 -243.5 78.5t-119.5 211.5l209 70l2 -4q-15 -63 26 -122.5t126 -59.5q88 0 129 58t26 124l2 4l205 -68q-33 -135 -126.5 -213.5t-235.5 -78.5zM887 1423h448v-4q-138 -105 -211 -303l-288 -776q-48 -127 -47.5 -204t49.5 -132v-4h-488v4q124 124 199 324
l78 204h-191l-268 605q-49 108 -91.5 175t-96.5 107v4h479v-4q-34 -64 -32 -127t42 -155l205 -480l182 480q34 90 41 154t-10 132z" />
    <glyph glyph-name="uni045F" unicode="&#x45f;" horiz-adv-x="1544" 
d="M1425 1419q-44 -30 -77 -108.5t-33 -194.5v-809q0 -119 24.5 -197.5t65.5 -105.5v-4h-514q0 -79 11.5 -134.5t43.5 -115.5l-2 -4h-342l-2 4q32 60 43.5 115.5t11.5 134.5h-516v4q42 27 67 105.5t25 197.5v809q0 116 -32 194.5t-76 108.5v4h502v-4q-46 -30 -79.5 -108
t-33.5 -195v-911h522v911q0 118 -32.5 195.5t-77.5 107.5v4h501v-4z" />
    <glyph glyph-name="uni0490" unicode="&#x490;" horiz-adv-x="1075" 
d="M782 1653l305 18q-36 -87 -36 -209v-297l-4 -2q-54 36 -118 47t-192 11h-221v-912q0 -110 35.5 -194t89.5 -111v-4h-520v4q45 29 80 116t35 197v807q0 112 -33 188.5t-78 106.5v4h690v39q0 104 -33 191z" />
    <glyph glyph-name="uni0491" unicode="&#x491;" horiz-adv-x="1075" 
d="M782 1653l305 18q-36 -87 -36 -209v-297l-4 -2q-54 36 -118 47t-192 11h-221v-912q0 -110 35.5 -194t89.5 -111v-4h-520v4q45 29 80 116t35 197v807q0 112 -33 188.5t-78 106.5v4h690v39q0 104 -33 191z" />
    <glyph glyph-name="Wgrave" unicode="&#x1e80;" horiz-adv-x="2154" 
d="M1124 1509q-40 54 -127.5 142t-142.5 129l180 174l4 -2q10 -51 97.5 -172.5t154.5 -184.5zM344 0v4q102 111 47 315l-237 865q-51 186 -140 235v4h496v-4q-42 -36 -57 -103.5t4 -150.5l116 -456q42 -165 50 -371h8q48 197 143 391l219 449q76 158 101 258h12
q41 -139 100 -256l199 -389q70 -140 104 -238.5t58 -214.5h8q13 211 63 418l101 409q20 87 5.5 151t-56.5 103l2 4h454v-4q-51 -28 -86 -94.5t-53 -142.5l-207 -863q-24 -106 -12 -179t59 -136v-4h-479v4q28 40 25.5 110t-37.5 144l-150 320q-33 71 -60 158.5t-36 154.5h-8
q-38 -152 -90 -266l-172 -367q-35 -76 -37.5 -144t26.5 -110v-4h-483z" />
    <glyph glyph-name="wgrave" unicode="&#x1e81;" horiz-adv-x="2154" 
d="M1124 1509q-40 54 -127.5 142t-142.5 129l180 174l4 -2q10 -51 97.5 -172.5t154.5 -184.5zM344 0v4q102 111 47 315l-237 865q-51 186 -140 235v4h496v-4q-42 -36 -57 -103.5t4 -150.5l116 -456q42 -165 50 -371h8q48 197 143 391l219 449q76 158 101 258h12
q41 -139 100 -256l199 -389q70 -140 104 -238.5t58 -214.5h8q13 211 63 418l101 409q20 87 5.5 151t-56.5 103l2 4h454v-4q-51 -28 -86 -94.5t-53 -142.5l-207 -863q-24 -106 -12 -179t59 -136v-4h-479v4q28 40 25.5 110t-37.5 144l-150 320q-33 71 -60 158.5t-36 154.5h-8
q-38 -152 -90 -266l-172 -367q-35 -76 -37.5 -144t26.5 -110v-4h-483z" />
    <glyph glyph-name="Wacute" unicode="&#x1e82;" horiz-adv-x="2154" 
d="M1100 1509l-166 86q70 66 154 184.5t94 172.5l4 2l182 -174q-58 -41 -142.5 -128.5t-125.5 -142.5zM344 0v4q102 111 47 315l-237 865q-51 186 -140 235v4h496v-4q-42 -36 -57 -103.5t4 -150.5l116 -456q42 -165 50 -371h8q48 197 143 391l219 449q76 158 101 258h12
q41 -139 100 -256l199 -389q70 -140 104 -238.5t58 -214.5h8q13 211 63 418l101 409q20 87 5.5 151t-56.5 103l2 4h454v-4q-51 -28 -86 -94.5t-53 -142.5l-207 -863q-24 -106 -12 -179t59 -136v-4h-479v4q28 40 25.5 110t-37.5 144l-150 320q-33 71 -60 158.5t-36 154.5h-8
q-38 -152 -90 -266l-172 -367q-35 -76 -37.5 -144t26.5 -110v-4h-483z" />
    <glyph glyph-name="wacute" unicode="&#x1e83;" horiz-adv-x="2154" 
d="M1100 1509l-166 86q70 66 154 184.5t94 172.5l4 2l182 -174q-58 -41 -142.5 -128.5t-125.5 -142.5zM344 0v4q102 111 47 315l-237 865q-51 186 -140 235v4h496v-4q-42 -36 -57 -103.5t4 -150.5l116 -456q42 -165 50 -371h8q48 197 143 391l219 449q76 158 101 258h12
q41 -139 100 -256l199 -389q70 -140 104 -238.5t58 -214.5h8q13 211 63 418l101 409q20 87 5.5 151t-56.5 103l2 4h454v-4q-51 -28 -86 -94.5t-53 -142.5l-207 -863q-24 -106 -12 -179t59 -136v-4h-479v4q28 40 25.5 110t-37.5 144l-150 320q-33 71 -60 158.5t-36 154.5h-8
q-38 -152 -90 -266l-172 -367q-35 -76 -37.5 -144t26.5 -110v-4h-483z" />
    <glyph glyph-name="Wdieresis" unicode="&#x1e84;" horiz-adv-x="2154" 
d="M938 1552q-51 0 -86 35.5t-35 85.5q0 51 35 86t86 35q49 0 83 -35t34 -86q0 -50 -34 -85.5t-83 -35.5zM1257 1552q-51 0 -85.5 35.5t-34.5 85.5q0 51 34.5 86t85.5 35q49 0 83 -35t34 -86q0 -50 -34 -85.5t-83 -35.5zM344 0v4q102 111 47 315l-237 865q-51 186 -140 235
v4h496v-4q-42 -36 -57 -103.5t4 -150.5l116 -456q42 -165 50 -371h8q48 197 143 391l219 449q76 158 101 258h12q41 -139 100 -256l199 -389q70 -140 104 -238.5t58 -214.5h8q13 211 63 418l101 409q20 87 5.5 151t-56.5 103l2 4h454v-4q-51 -28 -86 -94.5t-53 -142.5
l-207 -863q-24 -106 -12 -179t59 -136v-4h-479v4q28 40 25.5 110t-37.5 144l-150 320q-33 71 -60 158.5t-36 154.5h-8q-38 -152 -90 -266l-172 -367q-35 -76 -37.5 -144t26.5 -110v-4h-483z" />
    <glyph glyph-name="wdieresis" unicode="&#x1e85;" horiz-adv-x="2154" 
d="M938 1552q-51 0 -86 35.5t-35 85.5q0 51 35 86t86 35q49 0 83 -35t34 -86q0 -50 -34 -85.5t-83 -35.5zM1257 1552q-51 0 -85.5 35.5t-34.5 85.5q0 51 34.5 86t85.5 35q49 0 83 -35t34 -86q0 -50 -34 -85.5t-83 -35.5zM344 0v4q102 111 47 315l-237 865q-51 186 -140 235
v4h496v-4q-42 -36 -57 -103.5t4 -150.5l116 -456q42 -165 50 -371h8q48 197 143 391l219 449q76 158 101 258h12q41 -139 100 -256l199 -389q70 -140 104 -238.5t58 -214.5h8q13 211 63 418l101 409q20 87 5.5 151t-56.5 103l2 4h454v-4q-51 -28 -86 -94.5t-53 -142.5
l-207 -863q-24 -106 -12 -179t59 -136v-4h-479v4q28 40 25.5 110t-37.5 144l-150 320q-33 71 -60 158.5t-36 154.5h-8q-38 -152 -90 -266l-172 -367q-35 -76 -37.5 -144t26.5 -110v-4h-483z" />
    <glyph glyph-name="uni1E9E" unicode="&#x1e9e;" horiz-adv-x="1495" 
d="M1055 872q159 -34 262.5 -154t103.5 -274q0 -95 -33.5 -182t-95 -154t-156.5 -107t-210 -40q-104 0 -203 27l-33 258l4 2q86 -74 193 -74q106 0 177 72t71 178q0 161 -121 234t-326 38v4l277 519h-453v-912q0 -117 31 -195t73 -108v-4h-495v4q44 30 77 108.5t33 194.5
v809q0 118 -32.5 195.5t-77.5 107.5v4h1243l2 -6z" />
    <glyph glyph-name="Ygrave" unicode="&#x1ef2;" horiz-adv-x="1316" 
d="M690 1509q-40 54 -127.5 142t-142.5 129l180 174l4 -2q10 -51 97.5 -172.5t154.5 -184.5zM944 1423h412v-4q-67 -51 -164 -209l-387 -639v-247q0 -126 35.5 -209t89.5 -111v-4h-531v4q50 30 87.5 114.5t37.5 205.5v237l-393 649q-93 153 -166 209v4h436v-4
q-13 -39 1.5 -96.5t46.5 -112.5l157 -272q40 -64 64 -133h8q7 21 16 41.5t16 32.5t18 31.5t15 27.5l156 272q32 55 45.5 112.5t-0.5 96.5v4z" />
    <glyph glyph-name="ygrave" unicode="&#x1ef3;" horiz-adv-x="1316" 
d="M690 1509q-40 54 -127.5 142t-142.5 129l180 174l4 -2q10 -51 97.5 -172.5t154.5 -184.5zM944 1423h412v-4q-67 -51 -164 -209l-387 -639v-247q0 -126 35.5 -209t89.5 -111v-4h-531v4q50 30 87.5 114.5t37.5 205.5v237l-393 649q-93 153 -166 209v4h436v-4
q-13 -39 1.5 -96.5t46.5 -112.5l157 -272q40 -64 64 -133h8q7 21 16 41.5t16 32.5t18 31.5t15 27.5l156 272q32 55 45.5 112.5t-0.5 96.5v4z" />
    <glyph glyph-name="endash" unicode="&#x2013;" horiz-adv-x="1034" 
d="M10 543l-4 2l39 233h825q88 0 154 31l4 -2l-33 -236h-813q-115 0 -172 -28z" />
    <glyph glyph-name="emdash" unicode="&#x2014;" horiz-adv-x="1421" 
d="M10 541l-4 2l39 233h1212q88 0 154 31l4 -2l-33 -236h-1200q-115 0 -172 -28z" />
    <glyph glyph-name="quoteleft" unicode="&#x2018;" horiz-adv-x="460" 
d="M260 1210q66 -11 109 -61t43 -117q0 -75 -54 -127.5t-129 -52.5q-88 0 -138 63.5t-50 165.5q0 217 182 408l150 -68v-4q-43 -37 -73.5 -93.5t-39.5 -113.5z" />
    <glyph glyph-name="quoteright" unicode="&#x2019;" horiz-adv-x="479" 
d="M231 1524q88 0 138.5 -64t50.5 -166q0 -216 -182 -407l-150 67v4q43 37 73.5 93.5t39.5 113.5q-66 11 -109 61t-43 117q0 75 53.5 128t128.5 53z" />
    <glyph glyph-name="quotesinglbase" unicode="&#x201a;" horiz-adv-x="483" 
d="M231 330q88 0 138.5 -64t50.5 -166q0 -216 -182 -407l-150 67v4q43 37 73.5 93.5t39.5 113.5q-66 11 -109 61.5t-43 117.5q0 75 53.5 127.5t128.5 52.5z" />
    <glyph glyph-name="quotedblleft" unicode="&#x201c;" horiz-adv-x="868" 
d="M283 1253q66 -11 108.5 -61t42.5 -117q0 -75 -53.5 -127.5t-128.5 -52.5q-88 0 -138.5 63.5t-50.5 165.5q0 216 183 408l149 -68v-4q-43 -37 -73 -93.5t-39 -113.5zM692 1253q66 -11 109 -61t43 -117q0 -75 -53.5 -127.5t-128.5 -52.5q-88 0 -138.5 63.5t-50.5 165.5
q0 217 182 408l150 -68v-4q-43 -37 -73.5 -93.5t-39.5 -113.5z" />
    <glyph glyph-name="quotedblright" unicode="&#x201d;" horiz-adv-x="905" 
d="M227 1524q88 0 138.5 -64t50.5 -166q0 -215 -183 -407l-149 67v4q43 37 73.5 93.5t39.5 113.5q-66 11 -109 61t-43 117q0 75 53.5 128t128.5 53zM637 1524q87 0 137.5 -64t50.5 -166q0 -216 -182 -407l-149 67v4q43 37 73 93.5t39 113.5q-66 11 -108.5 61t-42.5 117
q0 75 53.5 128t128.5 53z" />
    <glyph glyph-name="quotedblbase" unicode="&#x201e;" horiz-adv-x="931" 
d="M231 330q88 0 138.5 -64t50.5 -166q0 -216 -182 -407l-150 67v4q43 37 73.5 93.5t39.5 113.5q-66 11 -109 61.5t-43 117.5q0 75 53.5 127.5t128.5 52.5zM682 330q87 0 137.5 -64t50.5 -166q0 -216 -182 -407l-149 67v4q43 37 73 93.5t39 113.5q-66 10 -108.5 60.5
t-42.5 118.5q0 75 53.5 127.5t128.5 52.5z" />
    <glyph glyph-name="dagger" unicode="&#x2020;" horiz-adv-x="1038" 
d="M965 961h-316v-863q0 -85 7.5 -129.5t31.5 -72.5v-5h-342v5q41 49 41 202v863h-115q-88 0 -136.5 -9.5t-82.5 -33.5h-4l29 268h309v123q0 88 -8 135.5t-29 71.5v4h340v-4q-25 -29 -33 -73.5t-8 -133.5v-123h121q151 0 215 43h4z" />
    <glyph glyph-name="daggerdbl" unicode="&#x2021;" horiz-adv-x="1038" 
d="M770 557q151 0 215 43h4l-24 -268h-316v-234q0 -85 7.5 -129.5t31.5 -72.5v-5h-342v5q41 49 41 202v234h-115q-88 0 -136.5 -9.5t-82.5 -33.5h-4l29 268h309v404h-115q-88 0 -136.5 -9.5t-82.5 -33.5h-4l29 268h309v123q0 88 -8 135.5t-29 71.5v4h340v-4
q-25 -29 -33 -73.5t-8 -133.5v-123h121q151 0 215 43h4l-24 -268h-316v-404h121z" />
    <glyph glyph-name="bullet" unicode="&#x2022;" horiz-adv-x="815" 
d="M412 315q-148 0 -249.5 100.5t-101.5 246.5q0 144 103 245t248 101t243.5 -99.5t98.5 -246.5q0 -146 -98.5 -246.5t-243.5 -100.5z" />
    <glyph glyph-name="ellipsis" unicode="&#x2026;" horiz-adv-x="1449" 
d="M229 -18q-72 0 -122 51t-50 125q0 75 50.5 126.5t121.5 51.5q72 0 121 -51.5t49 -126.5q0 -74 -49 -125t-121 -51zM725 -18q-72 0 -122 51t-50 125q0 75 50.5 126.5t121.5 51.5q72 0 121 -51.5t49 -126.5q0 -74 -49 -125t-121 -51zM1223 -18q-72 0 -122 51t-50 125
q0 75 50.5 126.5t121.5 51.5q72 0 121 -51.5t49 -126.5q0 -74 -49 -125t-121 -51z" />
    <glyph glyph-name="perthousand" unicode="&#x2030;" horiz-adv-x="2369" 
d="M365 770q-145 0 -246 100.5t-101 245.5t101 245.5t246 100.5t245.5 -100.5t100.5 -245.5t-100.5 -245.5t-245.5 -100.5zM279 0v4q83 68 149 199l502 1014q59 119 90 206h297v-4q-64 -56 -123 -174l-537 -1091q-48 -94 -65 -154h-313zM367 963q60 0 98.5 42t38.5 111
t-38.5 111.5t-98.5 42.5q-62 0 -102 -43t-40 -111q0 -69 41 -111t101 -42zM1243 -39q-145 0 -245.5 100.5t-100.5 245.5t100.5 245.5t245.5 100.5t245.5 -100.5t100.5 -245.5t-100.5 -245.5t-245.5 -100.5zM2005 -39q-145 0 -245.5 100.5t-100.5 245.5t100.5 245.5
t245.5 100.5t245.5 -100.5t100.5 -245.5t-100.5 -245.5t-245.5 -100.5zM1245 162q60 0 98.5 41t38.5 104q0 65 -38.5 106.5t-98.5 41.5q-61 0 -101 -41.5t-40 -106.5q0 -63 40 -104t101 -41zM2007 162q60 0 98.5 41t38.5 104q0 65 -38.5 106.5t-98.5 41.5q-61 0 -101 -41.5
t-40 -106.5q0 -63 40 -104t101 -41z" />
    <glyph glyph-name="guilsinglleft" unicode="&#x2039;" horiz-adv-x="768" 
d="M571 332q41 -48 83 -85.5t114 -82.5l-2 -4h-401q-23 59 -93 135l-292 336l292 336q70 76 93 135h358l2 -4q-77 -48 -180 -168l-242 -283z" />
    <glyph glyph-name="guilsinglright" unicode="&#x203a;" horiz-adv-x="768" 
d="M496 967l292 -336l-292 -336q-70 -76 -93 -135h-358l-2 4q77 48 180 168l242 282l-268 316q-41 48 -83 85.5t-114 82.5l2 4h401q23 -59 93 -135z" />
    <glyph glyph-name="fraction" unicode="&#x2044;" horiz-adv-x="1089" 
d="M-37 -29l-2 4q86 72 168 224l535 989q69 126 57 207h412l2 -4q-59 -40 -91.5 -83t-72.5 -118l-508 -942q-49 -92 -65 -154.5t-5 -122.5h-430z" />
    <glyph glyph-name="Euro" unicode="&#x20ac;" horiz-adv-x="1456" 
d="M1413 399l4 -2l-51 -358q-219 -78 -432 -78q-237 0 -416.5 128t-253.5 345h-35q-217 0 -278 -49l-4 2l73 252h201q-2 25 -2 74v39q-206 0 -268 -50l-4 3l73 251h232q68 234 256.5 370t449.5 136q211 0 381 -53l29 -326h-4q-59 77 -166 117.5t-252 40.5q-146 0 -250.5 -75
t-154.5 -210h561q111 0 184 48l4 -3l-71 -249h-719v-39q0 -24 4 -74h598q113 0 184 47l4 -2l-71 -250h-666q54 -120 155 -187t242 -67q140 0 252.5 53t210.5 166z" />
    <glyph glyph-name="trademark" unicode="&#x2122;" horiz-adv-x="1374" 
d="M385 1423q51 0 123 7l16 -175h-4q-41 66 -114 66h-68v-381q0 -112 55 -137v-4h-233v4q23 12 39 47.5t16 89.5v381h-70q-73 0 -114 -66h-4l14 175q75 -7 125 -7h219zM1296 930q7 -80 54 -127v-4h-209v4q36 28 30 108l-16 187q-2 23 1 70t3 61h-6q-2 -6 -9.5 -26t-11 -29.5
t-11 -24.5t-15.5 -27l-111 -192q-36 -58 -45 -113h-6q-9 55 -45 113l-108 184q-13 21 -30 62.5t-22 52.5h-2q0 -14 0.5 -41.5t0.5 -49.5t-1 -40l-12 -187q-3 -40 6.5 -68t24.5 -40v-4h-205v4q50 54 55 127l27 348q3 39 -10 81t-39 60v4h207v-4q-14 -22 16 -78l100 -176
q27 -44 37 -100h4q13 42 41 90l109 188q33 50 16 76v4h205v-4q-29 -18 -41.5 -58.5t-9.5 -82.5z" />
    <glyph glyph-name="product" unicode="&#x220f;" horiz-adv-x="1185" 
d="M1137 1198h-136v-1012q0 -86 8 -120t31 -62l-2 -4h-323l-2 4q28 45 28 182v1012h-286v-1012q0 -84 7 -119t25 -63l-2 -4h-315l-4 4q29 47 29 182v1010q-116 -6 -168 -49l-4 2l30 274h889q151 0 217 54l4 -2z" />
    <glyph glyph-name="summation" unicode="&#x2211;" horiz-adv-x="952" 
d="M930 307h4l-41 -307h-832v4l357 711l-340 704v4h811l-35 -290h-4q-43 67 -178 67h-205l233 -487l-237 -488h250q76 0 125 21t92 61z" />
    <glyph glyph-name="minus" unicode="&#x2212;" horiz-adv-x="974" 
d="M29 524l-4 2l30 248h674q152 0 217 53l4 -2l-26 -250h-674q-89 0 -138 -11.5t-83 -39.5z" />
    <glyph glyph-name="radical" unicode="&#x221a;" horiz-adv-x="1251" 
d="M1268 1423l-37 -295h-4q-34 91 -176 91h-95l-323 -1217h-342l-211 676q-35 111 -113 174v4h352q-4 -24 0 -46.5t21 -80.5l1.5 -4.5t1 -4.5t1.5 -5l100 -363q12 -42 15 -92h10q3 38 14 92l262 1071h523z" />
    <glyph glyph-name="integral" unicode="&#x222b;" horiz-adv-x="657" 
d="M-61 -31l43 254h4q18 -30 49 -31.5t58.5 27t35.5 76.5l143 915q7 43 19 78t35 70.5t56 58t81 40.5t111 18.5t145 -9.5l-53 -258h-4q-35 32 -81 14t-55 -73l-145 -924q-7 -46 -19.5 -82.5t-35 -72t-55 -57t-80 -38.5t-109.5 -16.5t-143 10.5z" />
    <glyph glyph-name="approxequal" unicode="&#x2248;" horiz-adv-x="913" 
d="M240 492l-209 59q-6 129 71 220t193 91q53 0 102 -16.5t79.5 -36.5t65.5 -36.5t62 -16.5q49 0 72 41.5t12 93.5l4 4l193 -59q11 -119 -67.5 -217.5t-190.5 -98.5q-56 0 -106.5 17.5t-80 39t-63.5 39t-62 17.5q-48 0 -67.5 -45.5t-3.5 -91.5zM240 61l-209 60
q-6 129 71 220t193 91q53 0 102 -16.5t79.5 -36.5t65.5 -36.5t62 -16.5q49 0 72 41.5t12 93.5l4 4l193 -59q11 -118 -69 -217t-189 -99q-56 0 -106.5 17.5t-80 39t-63.5 39t-62 17.5q-48 0 -67.5 -45.5t-3.5 -91.5z" />
    <glyph glyph-name="notequal" unicode="&#x2260;" horiz-adv-x="1019" 
d="M752 600q142 0 215 41l4 -2l-25 -256h-395l-21 -74q-23 -79 -26.5 -117t10.5 -65l-2 -4h-317l-2 4q34 29 56 70t42 112l20 74h-39q-89 0 -138 -11.5t-83 -39.5l-4 2l31 266h297l35 121h-138q-154 0 -219 -41l-4 2l29 254h393l12 41q40 134 17 182l2 4h321l2 -4
q-62 -40 -104 -182l-12 -41h43q152 0 217 53l4 -2l-27 -266h-299l-33 -121h138z" />
    <glyph glyph-name="lessequal" unicode="&#x2264;" horiz-adv-x="817" 
d="M705 287q-47 61 -127 106l-562 316v155l564 328q86 50 131 100l4 -2l26 -291l-4 -4q-35 3 -58.5 -3t-57.5 -27l-291 -168l297 -154q4 -2 16.5 -9t14.5 -7.5t13.5 -6.5t12.5 -5.5t12.5 -4t13.5 -2.5t14.5 -0.5t16.5 0.5l4 -4l-36 -315zM768 254l4 -2l-24 -252h-498
q-89 0 -138 -11.5t-83 -39.5l-4 2l30 262h498q142 0 215 41z" />
    <glyph glyph-name="greaterequal" unicode="&#x2265;" horiz-adv-x="813" 
d="M176 930q-4 2 -13.5 7t-12.5 6.5t-10.5 5.5t-11 5.5t-10 4t-10.5 3t-10 2t-11.5 2t-12 0.5t-13.5 -1l-4 4l37 315l4 2q47 -61 127 -106l561 -316v-155l-563 -328q-86 -50 -131 -100l-4 2l-27 290l5 5q35 -3 58.5 3t57.5 27l291 168zM788 252l5 -2l-25 -250h-498
q-89 0 -138 -11.5t-83 -39.5l-4 2l31 260h497q142 0 215 41z" />
    <glyph glyph-name="lozenge" unicode="&#x25ca;" horiz-adv-x="1093" 
d="M612 1397l455 -699l-455 -698h-131l-454 698l454 699h131zM563 338l219 336l-252 385l-219 -336z" />
    <glyph glyph-name="zero.osf" horiz-adv-x="1376" 
d="M678 -39q-174 0 -303.5 75t-195.5 203.5t-66 292.5q0 169 69 302t202 209.5t310 76.5q253 0 411.5 -157t158.5 -410q0 -262 -160 -427t-426 -165zM694 164q130 0 202.5 98.5t72.5 269.5q0 182 -74 285t-217 103q-127 0 -198.5 -95t-71.5 -272q0 -184 73.5 -286.5
t212.5 -102.5z" />
    <glyph glyph-name="one.osf" horiz-adv-x="763" 
d="M668 1075q-41 -31 -73 -110t-32 -193v-467q0 -114 32 -192t73 -109v-4h-480v4q41 31 73 110t32 193v545q-79 -3 -136.5 -26t-113.5 -76l-4 2l76 340q72 -13 276 -13h277v-4z" />
    <glyph glyph-name="two.osf" horiz-adv-x="1050" 
d="M967 354l4 -2l-60 -364q-101 12 -305 12h-555l-4 4q253 281 471 526q84 96 84 189q0 75 -55 130.5t-150 55.5q-50 0 -99.5 -13.5t-106 -52.5t-97.5 -100l-4 2l60 312q162 65 327 65q183 0 297.5 -101t114.5 -263q0 -156 -129 -297l-213 -230h153q85 0 144 30.5t123 96.5z
" />
    <glyph glyph-name="three.osf" horiz-adv-x="1017" 
d="M596 567q164 -31 260 -138t96 -265q0 -222 -192.5 -361t-530.5 -139l-151 250l2 4q168 -46 298.5 -31t209 84t78.5 172q0 114 -78 174t-213 60q-67 0 -133 -4l-2 4l286 477h-198q-100 0 -165.5 -23t-111.5 -77l-4 2l72 338q102 -15 280 -15h498z" />
    <glyph glyph-name="four.osf" horiz-adv-x="1138" 
d="M1094 35q-85 9 -172 12v-39q0 -114 31.5 -192t72.5 -109v-4h-451v4q41 31 73 110t32 193v37h-653v4l258 801q42 128 32 227h385v-4q-53 -45 -95 -123t-97 -227l-172 -475l342 -2v219q0 71 -10.5 135.5t-28.5 89.5l2 4l330 82l2 -4q-53 -56 -53 -227v-299q71 3 122.5 25
t90.5 73l4 -2z" />
    <glyph glyph-name="five.osf" horiz-adv-x="1009" 
d="M430 584q238 0 382 -106.5t144 -311.5q0 -155 -93.5 -269.5t-260 -173.5t-385.5 -59l-151 250l2 4q116 -34 226.5 -36.5t193.5 24t133.5 82.5t50.5 133q0 75 -26.5 127t-76.5 80t-109.5 39.5t-137.5 11.5q-136 0 -242 -25l-4 2l49 721h401q168 0 303 15l58 -361l-4 -2
q-51 66 -118.5 92.5t-184.5 26.5h-252l-19 -270q61 6 121 6z" />
    <glyph glyph-name="six.osf" horiz-adv-x="1241" 
d="M633 -33q-239 0 -379.5 170t-140.5 486q0 148 39.5 274t108 216.5t161.5 157t199 101.5t221 43l151 -250l-2 -4q-116 40 -226 19t-196.5 -78.5t-141.5 -146t-60 -183.5l4 -2q62 71 141 105t188 34q92 0 172.5 -27t145 -80.5t102 -141.5t37.5 -201q0 -98 -35 -186.5
t-99.5 -157t-165.5 -108.5t-224 -40zM643 168q106 0 168.5 73.5t62.5 198.5q0 124 -62 195.5t-169 71.5q-105 0 -166 -72t-61 -195q0 -126 61.5 -199t165.5 -73z" />
    <glyph glyph-name="seven.osf" horiz-adv-x="991" 
d="M602 -12q-66 -195 23 -281l-2 -4h-443l-2 4q50 59 83.5 118.5t70.5 156.5l330 849h-371q-106 0 -173.5 -30t-109.5 -92l-4 2l64 381q107 -13 288 -13h615l2 -4z" />
    <glyph glyph-name="eight.osf" horiz-adv-x="1189" 
d="M928 715q178 -94 178 -330q0 -193 -142 -305.5t-368 -112.5q-228 0 -370 110t-142 288q0 96 48 174.5t140 132.5q-149 105 -149 293q0 204 132 310.5t351 106.5q210 0 333.5 -108t123.5 -268q0 -174 -135 -291zM586 1180q-87 0 -141 -44t-54 -118q0 -33 9 -58.5t28.5 -45
t39.5 -33t55 -26t61 -20t70 -19.5t71 -21q37 41 59.5 93.5t22.5 96.5q0 86 -61 140.5t-160 54.5zM616 170q97 0 157.5 47.5t60.5 126.5q0 28 -9 51.5t-20.5 41t-36.5 33.5t-43.5 26t-55.5 22.5t-58.5 18.5t-67 18t-66.5 18q-117 -65 -117 -188q0 -95 72.5 -155t183.5 -60z
" />
    <glyph glyph-name="nine.osf" horiz-adv-x="1214" 
d="M582 1116q239 0 379.5 -169.5t140.5 -485.5q0 -148 -39.5 -274t-108 -217t-161.5 -157.5t-199 -101.5t-221 -43l-152 250l2 4q116 -40 226 -19t197 78.5t142 146t60 183.5l-4 2q-62 -71 -141.5 -105t-188.5 -34q-92 0 -172.5 27.5t-145 81t-102 141.5t-37.5 201
q0 98 35 186.5t100 156.5t166 108t224 40zM571 915q-106 0 -168.5 -73.5t-62.5 -198.5q0 -124 62 -195t169 -71q106 0 167 71.5t61 194.5q0 126 -61.5 199t-166.5 73z" />
    <glyph glyph-name="period.ss02" horiz-adv-x="487" 
d="M137 -70l-4 4q-6 60 -26.5 124.5t-67.5 174.5q142 69 295 158l4 -4q3 -51 23.5 -109.5t84.5 -207.5q-50 -21 -157.5 -70.5t-151.5 -69.5z" />
    <glyph glyph-name="comma.ss02" horiz-adv-x="481" 
d="M231 330q88 0 138.5 -64t50.5 -166q0 -95 -54 -204t-139 -195l-129 59v4q44 34 74 88.5t37 116.5q-69 7 -114.5 58.5t-45.5 122.5q0 75 53.5 127.5t128.5 52.5z" />
    <glyph glyph-name="ampersand.ss01" horiz-adv-x="1421" 
d="M1470 143l3 -4l-322 -198q-29 45 -123 139q-150 -119 -399 -119q-244 0 -393.5 118.5t-149.5 317.5q0 121 56 221.5t167 155.5q-71 79 -102 152t-31 170q0 166 138.5 262t373.5 96q139 0 324 -51l28 -299l-4 -2q-53 66 -151.5 104.5t-216.5 38.5q-211 0 -211 -164
q0 -97 98 -192l369 -354v198q0 114 -39 182v5h364v-5q-42 -25 -55.5 -75t-13.5 -148v-286q0 -53 -13 -107q97 -93 167.5 -127t135.5 -29zM365 418q0 -116 78 -183t196 -67q141 0 217 76l-387 372q-104 -71 -104 -198z" />
    <glyph glyph-name="brevecombcy" horiz-adv-x="0" 
d="M-535 1520q-148 0 -242.5 78.5t-119.5 211.5l209 70l2 -4q-15 -63 25.5 -122.5t125.5 -59.5q60 0 100 29.5t52.5 70.5t3.5 82l2 4l205 -68q-33 -135 -127 -213.5t-236 -78.5z" />
    </font>
</defs>
</svg>
