<?xml version="1.0" standalone="no"?>
<!DOCTYPE svg PUBLIC "-//W3C//DTD SVG 1.1//EN" "http://www.w3.org/Graphics/SVG/1.1/DTD/svg11.dtd" >
<svg xmlns="http://www.w3.org/2000/svg" xmlns:xlink="http://www.w3.org/1999/xlink" version="1.1">
<metadata>
Created by FontForge 20170731 at Sat Mar 16 10:33:28 2019
 By Aleksey,,,
Pomidorko (c) (Sidachova Antonina). &#60;2019&#62;. All Rights Reserved
</metadata>
<defs>
<font id="Pomidorko" horiz-adv-x="1014" >
  <font-face 
    font-family="Pomidorko"
    font-weight="400"
    font-stretch="normal"
    units-per-em="2048"
    panose-1="1 0 5 0 0 0 0 0 0 0"
    ascent="1638"
    descent="-410"
    x-height="1153"
    cap-height="1430"
    bbox="-342 -418 2082 1716"
    underline-thickness="150"
    underline-position="-742"
    unicode-range="U+001D-F002"
  />
<missing-glyph horiz-adv-x="1500" 
 />
    <glyph glyph-name=".notdef" horiz-adv-x="1500" 
 />
    <glyph glyph-name=".null" horiz-adv-x="0" 
 />
    <glyph glyph-name=".null" horiz-adv-x="0" 
 />
    <glyph glyph-name="nonmarkingreturn" horiz-adv-x="508" 
 />
    <glyph glyph-name="space" unicode=" " horiz-adv-x="508" 
 />
    <glyph glyph-name="space" unicode="&#xa0;" horiz-adv-x="508" 
 />
    <glyph glyph-name="exclam" unicode="!" horiz-adv-x="583" 
d="M360 1340q-3 35 20 33l18 -3q10 -1 13 4q16 27 4 46q-293 9 -290 -13q4 -28 15 -30l25 3q45 -544 8 -938q-3 -31 191 -22q18 611 -4 920zM262 0q-50 0 -90 34q-42 36 -42 83q0 101 116 101q117 0 117 -101q0 -117 -101 -117z" />
    <glyph glyph-name="quotedbl" unicode="&#x22;" horiz-adv-x="672" 
d="M197 1108h-30l-62 359q-4 23 -4 33q0 37 20.5 57t59.5 20t60.5 -19.5t21.5 -56.5q0 -8 -4 -34zM509 1108h-30l-62 359q-4 23 -4 33q0 37 20.5 57t59.5 20t60.5 -19.5t21.5 -56.5q0 -8 -4 -34z" />
    <glyph glyph-name="numbersign" unicode="#" horiz-adv-x="1556" 
d="M127 888q1 -8 7 -13q5 -6 12 -5q141 14 655 27q525 14 669 5q18 -1 14 109q-3 56 -9 111q-1042 -16 -1331 -37q-20 -2 -28 -18q-7 -15 -2 -40q5 -21 7 -60v-16l1 -15q1 -17 3 -29zM67 346q1 -8 7 -13q6 -6 13 -5q140 14 654 27q525 14 669 5q19 -1 14 109q-2 56 -8 111
q-1042 -16 -1332 -37q-20 -2 -28 -18q-7 -15 -2 -40q5 -21 7 -60l1 -15v-16q1 -17 3 -29zM504 24q8 0 14 6q6 5 6 12q-4 141 19 651q24 522 43 665q1 10 -33 15q-27 5 -75 6q-55 2 -111 0q-58 -1036 -58 -1324q0 -20 16 -29q15 -9 40 -5q21 3 60 2h16l15 -1q17 0 29 1z
M1109 5q8 0 14 5q6 6 6 13q-4 145 19 671q24 537 43 684q1 11 -33 16q-27 5 -75 6q-55 2 -111 0q-58 -1067 -58 -1364q0 -21 16 -30q15 -9 40 -5q21 3 60 2h15h16q17 0 29 1zM1374 1539q5 20 22 28t36 -1q19 -8 29 -29t5 -41t-22 -28q-18 -8 -37 0q-19 9 -29 30q-9 20 -4 41
z" />
    <glyph glyph-name="dollar" unicode="$" 
d="M577 1552v-102q68 -8 141 -35q10 -6 19 -6q25 0 41 45h50l103 -282h-49q-60 134 -168 179q-74 30 -137 39v-540q241 -93 322.5 -183t81.5 -264q0 -197 -119.5 -300t-284.5 -120v-239h-73v237q-188 3 -266 38q-10 6 -19 6q-25 0 -41 -45h-50v331h49q50 -183 152.5 -226
t174.5 -43v635q-214 67 -299 153q-92 91 -92 249q0 166 125 271q105 88 266 102v100h73zM577 655v-610q125 17 211.5 96t86.5 219q0 116 -69 183q-62 59 -229 112zM504 873v520q-119 -5 -199 -72q-86 -73 -86 -182q0 -98 55 -153q52 -54 230 -113z" />
    <glyph glyph-name="percent" unicode="%" horiz-adv-x="1610" 
d="M389 1070q-33 -7 -60 12q-28 18 -34 50q-7 32 11 59q17 27 47 29q28 3 57 -16q28 -19 37 -46q9 -29 -8 -55q-18 -27 -50 -33zM329 1357q-88 -8 -140 -86q-54 -80 -34 -175t102 -149q82 -55 177 -36q95 18 149 98q52 78 24 162q-25 80 -110 137q-85 56 -168 49zM1120 304
q-32 -6 -59 12q-26 18 -33 49t11 58q17 25 46 28q28 2 55 -16q28 -19 37 -45q9 -28 -8 -53q-18 -27 -49 -33zM1062 584q-87 -8 -137 -83q-52 -78 -33 -171q20 -93 99 -146q80 -53 173 -35t145 96q50 76 24 158q-25 78 -107 133q-83 55 -164 48zM1191 1462q-6 4 -17 -1
q-10 -4 -18 -15q-178 -249 -473 -637q-334 -441 -504 -644q-23 -27 55 -99q39 -36 83 -66q162 210 366 477q178 234 322 424q180 238 295 395q23 31 22 55q-1 22 -24 32q-19 8 -47 33l-11 9l-11 10q-13 11 -23 17q-7 4 -15 10z" />
    <glyph glyph-name="ampersand" unicode="&#x26;" horiz-adv-x="1683" 
d="M1051 196l-554 683q-118 0 -179.5 -86t-61.5 -204q0 -91 35.5 -181.5t101.5 -164.5q72 -83 165 -127t194 -44q88 0 169 33.5t130 90.5zM1394 0q-56 0 -139 25t-167 132q-67 -74 -175 -123.5t-241 -49.5q-229 0 -374.5 150.5t-145.5 385.5q0 161 76 266.5t225 151.5
q-42 61 -62.5 116t-20.5 111q0 105 77 197t182 92q68 0 142 -39q9 -6 18 -6q23 0 38 45h46l96 -281h-46q-55 133 -155 178q-85 37 -141 37q-65 0 -106 -45.5t-41 -117.5q0 -131 102 -267l531 -670q98 146 121 244q17 78 17 130q0 97 -62 97h-90v50h443v-50h-90
q-95 0 -145 -227q-31 -132 -155 -292q109 -136 248 -136h16q143 17 192 128l49 -1l-103 -231h-160z" />
    <glyph glyph-name="quotesingle" unicode="'" horiz-adv-x="557" 
d="M274 1501q-39 3 -79 -19q-45 -26 -62 -65q-17 -42 6 -84q23 -41 69 -55q45 -14 88 7q17 -49 -18 -91q-7 -7 -2 -16q5 -8 15 -6q39 7 66 44q25 34 33 83t-5 94q-13 47 -46 74q-25 30 -65 34z" />
    <glyph glyph-name="parenleft" unicode="(" horiz-adv-x="758" 
d="M252 601q2 277 99.5 530t268.5 442h80q-172 -242 -230 -438q-57 -193 -57 -523v-22q0 -330 57 -522q58 -196 230 -438h-80q-171 189 -268.5 441.5t-99.5 529.5z" />
    <glyph glyph-name="parenright" unicode=")" horiz-adv-x="758" 
d="M138 -370h-80q172 242 230 438q57 192 57 522v22q0 330 -57 523q-58 196 -230 438h80q171 -189 268.5 -442t99.5 -530q-2 -277 -99.5 -529.5t-268.5 -441.5z" />
    <glyph glyph-name="asterisk" unicode="*" horiz-adv-x="1024" 
d="M498 1294q-4 71 -37 130q-37 66 -37 84q0 32 23.5 51.5t62.5 19.5q37 0 61.5 -18t24.5 -47q0 -21 -36 -89q-33 -61 -37 -130q66 25 113 75q51 55 69 61q11 3 21 3q18 0 35 -10q26 -17 38 -53q6 -19 6 -36q0 -15 -4 -28q-10 -30 -38 -38q-6 -2 -19 -2q-25 0 -76 9
q-28 5 -55 5q-41 0 -81 -11q44 -55 105 -83q68 -32 79 -47q13 -18 13 -38q0 -9 -2 -17q-8 -30 -39 -53q-29 -22 -59 -22q-1 0 -1 1q-31 0 -48 23q-12 17 -22 94q-10 67 -47 125q-38 -58 -46 -124q-9 -75 -20 -90q-19 -25 -49 -27h-5q-28 0 -57 21q-30 21 -39 51q-4 10 -4 20
q0 17 11 32q13 17 83 51q61 29 105 82q-41 11 -80 11q-27 0 -53 -5q-54 -11 -78 -11q-9 0 -14 2q-30 9 -41 38q-6 13 -6 29q0 17 6 36q11 35 36 53q17 12 34 12q9 0 18 -3q20 -6 74 -62q47 -49 112 -75z" />
    <glyph glyph-name="plus" unicode="+" 
d="M437 647h-350v140h350v369l1 1h139v-370h349l1 -1v-139h-350v-370h-140v370z" />
    <glyph glyph-name="comma" unicode="," horiz-adv-x="557" 
d="M209 190q-91 -50 -48 -128q46 -84 135 -41q14 -42 -16 -78q-6 -7 -1 -14q4 -7 12 -6q70 13 85 110q16 97 -43 144q-46 56 -124 13z" />
    <glyph glyph-name="hyphen" unicode="-" horiz-adv-x="902" 
d="M782 661q-1 16 -19 16q-368 -18 -612 0q-32 3 -20 -183q304 -4 621 5q46 1 36 47l-2 49l-2 50z" />
    <glyph glyph-name="hyphen" unicode="&#xad;" horiz-adv-x="902" 
d="M782 661q-1 16 -19 16q-368 -18 -612 0q-32 3 -20 -183q304 -4 621 5q46 1 36 47l-2 49l-2 50z" />
    <glyph glyph-name="period" unicode="." horiz-adv-x="557" 
d="M258 217q113 15 128 -96q13 -95 -99 -111q-113 -15 -126 80q-15 111 97 127z" />
    <glyph glyph-name="slash" unicode="/" horiz-adv-x="1053" 
d="M221 -149q8 -3 15 0q8 2 12 10q71 150 362 680q297 541 389 683q7 10 -20 31q-21 17 -62 40q-48 27 -97 50q-150 -268 -319 -573q-338 -610 -433 -801q-11 -21 -2 -38q9 -16 33 -23q20 -6 53 -25l13 -7l13 -7q15 -8 26 -13z" />
    <glyph glyph-name="zero" unicode="0" horiz-adv-x="1358" 
d="M1048 703q0 -262 -62 -362q-87 -141 -255 -141q-232 0 -330 160q-112 183 -112 319q0 305 80 416q50 70 160 114q98 39 190 39q191 0 286 -184q31 -59 39 -169l4 -98v-94zM930 1395q-115 35 -258 35q-272 0 -425 -159q-176 -183 -176 -570q0 -187 124 -410
q86 -154 243 -246t317 -81q249 18 403 306q104 193 104 473q0 387 -114 520q-77 90 -218 132z" />
    <glyph glyph-name="one" unicode="1" horiz-adv-x="774" 
d="M639 45q40 762 34 1007q0 17 2 57l5 77q7 108 4 147l1 33q1 15 -4 18q-16 7 -75 11l-45 4q-44 1 -56 6q-14 6 -34 -13q-163 -151 -400 -357q-15 9 -19 4q-5 -6 -3 -26l150 -113q5 10 8 14q6 9 -8 19q133 130 269 232q-9 -413 -73 -1070q-5 -43 -24 -41l-14 4q-8 1 -12 -5
q-19 -33 -5 -57l86 -2l71 -4q97 -4 123 -4q72 -1 69 27q-5 34 -19 36zM122 635l-10 -24l-2 -19l-43 50l34 -2zM168 580l-10 -22l-7 -20l-28 38l1 15l3 17l4 14l3 6v1q24 -12 43 -31zM215 444l-16 25l3 13q4 23 10 40l5 13q12 -35 4 -72zM147 469l28 -8l9 -3l3 -1l3 -1
l13 -23q-24 -1 -44 4q-36 7 -60 31q14 9 48 1zM91 477q-17 21 -26 51q14 3 43 -5l28 -9q7 -3 13 -6l7 -2l1 1l21 -32l-28 8l-32 4q-18 -1 -28 -8zM192 505l-5 -20l-25 38l4 14l6 16q6 19 15 34l24 -36q-6 -6 -12 -25zM58 573v-2l6 1l9 -2l26 -7l10 -3l3 -2l8 -3l22 -29
l-31 10q-35 9 -50 5l-2 9zM56 586q0 20 2 40l44 -49l-26 7l-17 2h-3zM47 653v-5l-1 -2l-1 -7l-2 -22q-3 -36 3 -69q7 -45 30 -76q30 -39 80 -49h1q23 -6 53 -4q9 -17 19 -28q9 -10 14 -9q5 0 1 11q-5 13 -19 36l10 32q17 83 -46 146q-38 38 -85 48q-29 6 -53 -1z" />
    <glyph glyph-name="two" unicode="2" horiz-adv-x="1022" 
d="M946 211l-17 -10q-290 56 -491 5l-7 -1l-16 -2l-22 -3l-24 -2q-65 -2 -42 30q55 165 380 429q51 42 115 144q62 98 78 160q54 204 -85 337q-120 114 -310 123q-246 11 -363 -179q-59 -95 -69 -193q-10 -1 -13 -3q-7 -4 3 -21q55 -26 197 -27q15 14 14 20q-2 7 -21 14
q24 256 293 205q131 -25 160 -118q30 -99 -68 -235q-35 -49 -145 -154l-94 -89l-95 -100q-229 -263 -210 -537q4 -8 88 -10l96 1q42 1 141 12l85 10l88 8q217 18 295 -21l21 -21l16 -2q18 191 52 208z" />
    <glyph glyph-name="three" unicode="3" horiz-adv-x="1124" 
d="M479 652q-23 97 -40 144q-3 7 40 8q300 70 317 257q15 179 -176 191q-132 9 -217 -25q-67 -26 -102 -78q-40 -59 -33 -120l24 -9v-26q-189 7 -237 33l13 24l22 -1q2 90 61 183q118 185 402 198q214 10 340 -134q128 -148 68 -350q-15 -50 -33 -85q-26 -51 -64 -87l-11 -9
l-11 -7q-12 -7 -10 -17q1 -1 29 -14q36 -16 73 -45q85 -66 116 -164q40 -130 -21 -298q-35 -99 -137 -176q-204 -155 -538 -51q-114 35 -202 131q-30 32 -55 70l-17 26l-10 16h-39l-8 21q206 93 237 109q9 6 11 -24l-13 -23q28 -107 148 -154q113 -43 235 -16
q149 35 194 170q56 173 -75 265q-49 35 -121 56q-55 16 -118 23q-46 5 -42 -12z" />
    <glyph glyph-name="four" unicode="4" horiz-adv-x="1120" 
d="M1035 46q-15 6 -17 20q-29 329 -22 824q2 172 9 338q2 64 5 116q2 46 4 69q1 8 16 8q7 26 4 25q-65 -13 -242 -10q0 -22 7 -32t22 -10q-2 -355 -22 -525q-2 -24 -189 -22q-67 1 -153 5l-69 4l-54 3l-41 3q-11 11 -2 60l-14 504q21 -2 28 19q6 20 -6 19q-114 8 -233 6
l-7 -20l23 -12q0 -5 2 -24l1 -21l2 -26q2 -34 3 -67l4 -83q10 -240 4 -460q-1 -14 12 -32l11 -14l8 -11q10 -15 88 -37q120 -16 311 -20q184 -3 267 8q7 -316 27 -590q2 -32 -20 -22l-2 -39h235v46z" />
    <glyph glyph-name="five" unicode="5" horiz-adv-x="1148" 
d="M686 941q-174 30 -344 -21q-11 80 -16 177q-5 87 -2 124l63 6q26 1 52 0l21 -2l14 -1l14 -2q202 -50 494 6l18 -11l30 22q-35 17 -53 179l-15 -2l-22 -21q-78 -39 -297 -21l-88 8l-85 9q-99 12 -143 13h-89q-77 -1 -81 -9q-14 -187 -5 -378q10 -229 47 -325q138 6 185 40
l-4 9q49 49 194 43q207 -8 257 -162q47 -145 -67 -304q-102 -142 -274 -141q-152 2 -191 82q-19 38 24 20l10 32l-270 8q-36 -35 0 -44q5 -2 14 -15q9 -12 8 -14v-6l1 -10q2 -14 8 -31q17 -48 53 -87q114 -122 367 -111q330 14 471 296q133 266 -11 482q-87 129 -288 162z
M783 1599q36 17 56 -26q21 -43 -15 -60t-56 25q-21 43 15 61z" />
    <glyph glyph-name="six" unicode="6" horiz-adv-x="1315" 
d="M791 189q-68 -10 -143 3q-65 12 -93 30q-124 83 -143 188q-18 97 54 179q79 90 233 108q78 -2 154 -39q66 -33 102 -88q44 -68 38 -167q-13 -186 -202 -214zM722 872q-261 17 -362 -137l1 25l1 18q0 8 0 7q38 455 307 460q249 4 216 -153q1 -39 -20 -31l4 -39l205 29
l4 43q-19 -18 -27 19q-13 68 -55 136q-110 189 -337 176q-244 -14 -382 -278q-118 -225 -108 -492q9 -231 105 -423q121 -241 457 -232q223 6 346 154q74 88 87 273q12 190 -117 315q-118 116 -325 130z" />
    <glyph glyph-name="seven" unicode="7" horiz-adv-x="1157" 
d="M165 1448l10 19l-44 11q-46 -215 -85 -227l34 -35l32 25q367 -38 624 -14q25 4 48 -1q-3 -34 -10 -59q-28 -140 -107 -350l-67 -175l-69 -168q-137 -364 -150 -402l-52 -21l5 -38l311 -9l11 38l-47 17q202 642 377 1143q17 61 27 116q23 99 8 103q-734 -61 -856 27z
M920 490q37 18 59 -27q21 -46 -16 -64q-38 -17 -60 28q-21 45 17 63z" />
    <glyph glyph-name="eight" unicode="8" horiz-adv-x="1158" 
d="M818 248q-68 -67 -198 -67q-181 0 -257 76q-88 86 -88 150q0 144 62 196q40 33 125 54q77 18 148 18q149 0 223 -86q60 -71 60 -171q0 -98 -75 -170zM586 1289q48 1 91 -25q31 -18 70 -57q80 -80 52 -150q-32 -80 -85 -111q-118 -68 -189 -66q-116 4 -180 86
q-81 106 -20 194q21 30 59 57l29 20l23 13q65 38 150 39zM840 810l15 10q80 81 115 160q79 180 -96 345q-127 120 -339 104q-152 -12 -252 -74q-136 -85 -159 -228q-23 -145 78 -254q48 -52 100 -84q-10 -4 -23 -9l-33 -18q-44 -26 -79 -64q-100 -110 -99 -286
q1 -105 105 -229q167 -196 475 -182q212 10 343 171q88 107 88 264q0 119 -52 212q-66 118 -203 154z" />
    <glyph glyph-name="nine" unicode="9" horiz-adv-x="1162" 
d="M394 764q-160 73 -151 250q8 182 194 228q66 16 143 11q63 -3 99 -17q172 -63 193 -218q13 -103 -63 -188q-89 -99 -255 -103q-81 1 -160 37zM517 1430q-248 -7 -382 -158q-43 -48 -60 -130l-10 -75l-5 -74q-4 -96 40 -188q37 -77 98 -134q116 -107 334 -120
q227 -13 333 98q8 10 16 9q9 0 8 -18q-2 -24 -5 -49l-11 -60q-16 -76 -45 -135q-80 -165 -240 -183q-217 -26 -252 63q-3 39 21 31l-5 40l-241 -44q-32 -39 -6 -43q21 -4 27 -6q69 -220 384 -239q332 -20 481 266q104 199 100 503q-4 276 -82 411q-140 244 -498 235z" />
    <glyph glyph-name="colon" unicode=":" horiz-adv-x="557" 
d="M393 90q-16 -52 -64 -79q-48 -26 -100 -12q-53 15 -79 62q-25 46 -6 92q17 43 67 71t97 20q49 -9 74 -54q26 -48 11 -100zM311 749q-59 -12 -109 22q-51 34 -63 92q-12 59 21 109q32 48 86 53q52 4 105 -30q52 -35 68 -85q17 -52 -15 -100q-33 -50 -93 -61z" />
    <glyph glyph-name="semicolon" unicode=";" horiz-adv-x="557" 
d="M215 773q-119 79 -41 195q67 101 186 22q118 -79 51 -180q-77 -116 -196 -37zM224 240q-113 -62 -60 -158q58 -105 168 -52q18 -51 -20 -97q-7 -8 -2 -17q6 -9 16 -7q87 16 106 137q19 120 -54 178q-57 70 -154 16z" />
    <glyph glyph-name="semicolon" unicode="&#x37e;" horiz-adv-x="557" 
d="M215 773q-119 79 -41 195q67 101 186 22q118 -79 51 -180q-77 -116 -196 -37zM224 240q-113 -62 -60 -158q58 -105 168 -52q18 -51 -20 -97q-7 -8 -2 -17q6 -9 16 -7q87 16 106 137q19 120 -54 178q-57 70 -154 16z" />
    <glyph glyph-name="less" unicode="&#x3c;" 
d="M927 1074l-625 -359l625 -355v-167l-840 481v83l840 484v-167z" />
    <glyph glyph-name="equal" unicode="=" 
d="M87 631h840v-140h-840v140zM87 943h840v-140h-840v140z" />
    <glyph glyph-name="greater" unicode="&#x3e;" 
d="M87 1241l840 -484v-83l-840 -481v167l625 355l-625 359v167z" />
    <glyph glyph-name="question" unicode="?" horiz-adv-x="950" 
d="M264 1361q-69 -46 -115 -119q-51 -84 -59 -163l-25 1l-13 -26q53 -25 214 -31v26l-26 9q59 210 254 196q131 -10 165 -123q36 -118 -88 -219h1q-218 -141 -212 -453l-24 -3l-9 -27q57 -17 250 3l-5 26l-27 4q17 243 167 326q108 60 146 201q53 202 -85 336
q-127 122 -304 105q-119 -11 -205 -69zM491 0q-114 6 -109 120q6 99 120 93t108 -120q-5 -99 -119 -93z" />
    <glyph glyph-name="at" unicode="@" horiz-adv-x="2019" 
d="M972 622q-83 -10 -151 -80t-68 -199q0 -107 64 -194t183 -87q97 5 126 167v476q-54 -63 -154 -83zM1360 29q-63 1 -100.5 18t-61.5 54q-29 -37 -82 -64.5t-133 -27.5q-144 0 -256.5 100.5t-112.5 233.5q1 87 53 166.5t132.5 115t173.5 49.5q67 16 110 42.5t43 74.5
q-2 69 -41 125t-129 56q-72 0 -121.5 -59t-50.5 -125h-45v159q0 20 72 40q73 20 178 20q109 -2 193.5 -64.5t84.5 -157.5v-589q0 -117 94 -117q185 35 267 191.5t82 382.5q-20 335 -232 540q-197 188 -480 188q-205 0 -392.5 -137.5t-269.5 -355.5q-67 -178 -67 -361
q0 -313 129.5 -511.5t305 -290.5t318.5 -92q274 0 575 208v-75q-263 -184 -571 -184q-240 0 -461 122.5t-343 342t-122 461.5t124 464.5t345.5 342t456.5 119.5q362 0 609 -230t247 -566q0 -270 -176 -439q-175 -168 -346 -170z" />
    <glyph glyph-name="A" unicode="A" horiz-adv-x="1540" 
 />
    <glyph glyph-name="B" unicode="B" horiz-adv-x="1219" 
 />
    <glyph glyph-name="C" unicode="C" horiz-adv-x="1399" 
 />
    <glyph glyph-name="D" unicode="D" horiz-adv-x="1518" 
 />
    <glyph glyph-name="E" unicode="E" horiz-adv-x="1151" 
 />
    <glyph glyph-name="F" unicode="F" horiz-adv-x="1079" 
 />
    <glyph glyph-name="G" unicode="G" horiz-adv-x="1479" 
 />
    <glyph glyph-name="H" unicode="H" horiz-adv-x="1579" 
 />
    <glyph glyph-name="I" unicode="I" horiz-adv-x="657" 
 />
    <glyph glyph-name="J" unicode="J" horiz-adv-x="657" 
 />
    <glyph glyph-name="K" unicode="K" horiz-adv-x="1382" 
 />
    <glyph glyph-name="L" unicode="L" horiz-adv-x="1128" 
 />
    <glyph glyph-name="M" unicode="M" horiz-adv-x="1798" 
 />
    <glyph glyph-name="N" unicode="N" horiz-adv-x="1554" 
 />
    <glyph glyph-name="O" unicode="O" horiz-adv-x="1614" 
 />
    <glyph glyph-name="P" unicode="P" horiz-adv-x="1120" 
 />
    <glyph glyph-name="Q" unicode="Q" horiz-adv-x="1614" 
 />
    <glyph glyph-name="R" unicode="R" horiz-adv-x="1283" 
 />
    <glyph glyph-name="S" unicode="S" horiz-adv-x="1085" 
 />
    <glyph glyph-name="T" unicode="T" horiz-adv-x="1350" 
 />
    <glyph glyph-name="U" unicode="U" horiz-adv-x="1501" 
 />
    <glyph glyph-name="V" unicode="V" horiz-adv-x="1456" 
 />
    <glyph glyph-name="W" unicode="W" horiz-adv-x="2030" 
 />
    <glyph glyph-name="X" unicode="X" horiz-adv-x="1350" 
 />
    <glyph glyph-name="Y" unicode="Y" horiz-adv-x="1233" 
 />
    <glyph glyph-name="Z" unicode="Z" horiz-adv-x="1124" 
 />
    <glyph glyph-name="bracketleft" unicode="[" horiz-adv-x="758" 
 />
    <glyph glyph-name="backslash" unicode="\" horiz-adv-x="569" 
 />
    <glyph glyph-name="bracketright" unicode="]" horiz-adv-x="758" 
 />
    <glyph glyph-name="asciicircum" unicode="^" 
 />
    <glyph glyph-name="underscore" unicode="_" horiz-adv-x="1024" 
d="M1011 -69q-1 5 -7 9t-15 4q-184 -7 -477 -8q-333 -1 -493 8q-22 1 -24 -72q-1 -37 3 -74q160 -1 362 -1q177 0 321 1q180 1 297 3q23 0 34 11q9 10 5 27q-4 14 -4 40v10v10q0 11 -1 19z" />
    <glyph glyph-name="grave" unicode="`" horiz-adv-x="1024" 
d="M673 1079h-69l-330 202q-31 20 -46.5 40t-15.5 42q0 31 20.5 51t53.5 20q20 0 40.5 -12t55.5 -47z" />
    <glyph glyph-name="a" unicode="a" horiz-adv-x="922" 
 />
    <glyph glyph-name="b" unicode="b" horiz-adv-x="995" 
 />
    <glyph glyph-name="c" unicode="c" horiz-adv-x="905" 
 />
    <glyph glyph-name="d" unicode="d" horiz-adv-x="1040" 
 />
    <glyph glyph-name="e" unicode="e" horiz-adv-x="909" 
 />
    <glyph glyph-name="f" unicode="f" horiz-adv-x="559" 
 />
    <glyph glyph-name="g" unicode="g" horiz-adv-x="899" 
 />
    <glyph glyph-name="h" unicode="h" horiz-adv-x="1104" 
 />
    <glyph glyph-name="i" unicode="i" horiz-adv-x="514" 
 />
    <glyph glyph-name="j" unicode="j" horiz-adv-x="510" 
 />
    <glyph glyph-name="k" unicode="k" horiz-adv-x="1026" 
 />
    <glyph glyph-name="l" unicode="l" horiz-adv-x="522" 
 />
    <glyph glyph-name="m" unicode="m" horiz-adv-x="1569" 
 />
    <glyph glyph-name="n" unicode="n" horiz-adv-x="1108" 
 />
    <glyph glyph-name="o" unicode="o" horiz-adv-x="1010" 
 />
    <glyph glyph-name="p" unicode="p" horiz-adv-x="1010" 
 />
    <glyph glyph-name="q" unicode="q" horiz-adv-x="1024" 
 />
    <glyph glyph-name="r" unicode="r" horiz-adv-x="692" 
 />
    <glyph glyph-name="s" unicode="s" horiz-adv-x="702" 
 />
    <glyph glyph-name="t" unicode="t" horiz-adv-x="674" 
 />
    <glyph glyph-name="u" unicode="u" horiz-adv-x="1059" 
 />
    <glyph glyph-name="v" unicode="v" horiz-adv-x="993" 
 />
    <glyph glyph-name="w" unicode="w" horiz-adv-x="1415" 
 />
    <glyph glyph-name="x" unicode="x" horiz-adv-x="1010" 
 />
    <glyph glyph-name="y" unicode="y" horiz-adv-x="868" 
 />
    <glyph glyph-name="z" unicode="z" horiz-adv-x="727" 
 />
    <glyph glyph-name="braceleft" unicode="{" 
d="M240 698q172 5 223 71t51 133v468q0 74 77 141.5t185 67.5h108v-50h-90q-61 0 -107 -33.5t-47 -91.5v-500q0 -83 -60.5 -158.5t-142.5 -76.5v-2q82 -1 143 -76t61 -158l-1 -500q1 -58 47 -91.5t107 -33.5h90v-50h-108q-108 0 -184.5 67.5t-77.5 141.5v468q0 66 -51 132
t-223 71v60z" />
    <glyph glyph-name="bar" unicode="|" 
d="M427 1577h160v-1995h-160v1995z" />
    <glyph glyph-name="braceright" unicode="}" 
d="M774 638q-172 -5 -223 -71t-51 -132v-468q-1 -74 -77.5 -141.5t-184.5 -67.5h-108v50h90q61 0 107 33.5t47 91.5l-1 500q0 83 61 158t144 76v2q-83 1 -143.5 76.5t-60.5 158.5v500q-1 58 -47 91.5t-107 33.5h-90v50h108q108 0 185 -67.5t77 -141.5v-468q0 -67 51 -133
t223 -71v-60z" />
    <glyph glyph-name="asciitilde" unicode="~" horiz-adv-x="1522" 
d="M129 609q12 50 73 69q63 21 188 -39q22 -11 72 -37l44 -22l47 -22q128 -64 255 -119q383 -165 557 -36q65 49 87 130q18 70 0 131q-36 108 -149 133q-108 24 -176 -45q-67 -66 -39 -135q28 -64 87 -49q89 25 40 104q53 19 89 -10q52 -44 22 -110q-34 -77 -173 -74
q-42 1 -547 238q-321 150 -498 50q-156 -91 -89 -265q56 -141 212 -108q159 33 111 186q-11 33 -42 45q-29 12 -58 -2q-25 -12 -29 -44q-6 -34 21 -45q-15 -15 -42 -17q-28 -3 -44 16q-30 32 -19 77zM444 564l51 -28l113 -58q137 -68 250 -107q306 -105 490 -19q5 1 2 6
l-7 2q-179 -84 -485 22q-112 39 -248 107l-111 58l-51 27l-48 25l-4 2l-2 -3l-2 -4l3 -3zM1350 349q-8 0 -8 10q0 9 8 9q10 0 10 -9q0 -10 -10 -10zM48 757q-10 0 -10 10q0 9 10 9q9 0 9 -9q0 -10 -9 -10zM290 833q59 -5 129 -23q54 -15 116 -38l87 -37l88 -48
q115 -63 197 -88q5 -1 7 4q2 6 -3 7q-59 20 -132 56l-126 62q-157 75 -277 101q-92 19 -172 10q-101 -10 -155 -63l-3 -4l3 -4l4 -1l4 1q80 77 233 65z" />
    <glyph glyph-name="exclamdown" unicode="&#xa1;" horiz-adv-x="672" 
 />
    <glyph glyph-name="cent" unicode="&#xa2;" horiz-adv-x="1139" 
 />
    <glyph glyph-name="sterling" unicode="&#xa3;" 
d="M748 1347q-72 31 -160 31h-2q-100 0 -190 -101q-84 -93 -84 -241q0 -15 1 -30q0 -135 53 -273h360v-60h-334q14 -30 31 -60q35 -63 35 -138q0 -161 -162 -375h402q130 0 189 132l49 -1l-103 -231h-719l1 50q187 238 187 418q0 77 -34 143q-17 32 -31 62h-161v60h135
q-58 143 -58 253q0 226 123.5 347t306.5 121h4q75 0 185.5 -14t110.5 -34v-161h-58q-5 61 -77 102z" />
    <glyph glyph-name="currency" unicode="&#xa4;" 
d="M350 560q41 -40 99 -57q29 -8 58 -8t58 8q58 17 99 57q40 41 57 99q9 29 9 58t-9 58q-17 58 -57 99q-41 40 -100 57q-29 8 -58 8t-58 -9q-58 -17 -98 -56q-39 -40 -56 -98q-10 -30 -10 -60q0 -28 9 -56q16 -59 57 -100zM240 903l-118 118l80 81l118 -118q44 30 99 46
q44 14 89 14q41 0 83 -12q57 -17 102 -48l118 118l80 -81l-117 -117q31 -46 48 -102q12 -42 12 -85q0 -42 -12 -85q-17 -56 -48 -102l117 -117l-80 -81l-118 118q-45 -32 -101 -48q-42 -12 -85 -12q-42 0 -85 12q-57 16 -102 48l-118 -118l-80 81l118 117q-32 46 -48 103
q-12 42 -12 84q0 44 13 87q16 55 47 99z" />
    <glyph glyph-name="yen" unicode="&#xa5;" horiz-adv-x="1262" 
d="M547 225l-2 242q0 19 -1.5 35t-4.5 32l-484 1q-14 0 -21 6.5t-7 19.5t6.5 19t21.5 6h467l-121 172h-344q-17 0 -23.5 5.5t-6.5 18.5q0 14 6 19.5t22 5.5h307q-43 57 -108 155q-131 197 -227 197q-7 0 -13 5.5t-6 11.5q0 19 10.5 27.5t32.5 8.5q27 0 123 -8t164 -8h88
q33 0 41 -6.5t8 -26.5q0 -8 -15 -14t-38 -6q-6 0 -18.5 2t-18.5 2q-24 0 -37.5 -9.5t-13.5 -25.5q0 -18 16.5 -52t46.5 -77l158 -221q13 -19 33 -53q41 -70 71 -70q9 0 16.5 5t14.5 15l277 396q8 12 13 26.5t5 24.5q0 18 -10 27t-37 14q-15 2 -41 4q-47 3 -47 25
q0 15 8 22.5t25 7.5q3 0 15 -1q56 -7 108 -7h139q30 0 65 1t37 1q11 0 18.5 -4.5t8.5 -11.5q0 -28 -38 -34q-18 -3 -27 -5q-63 -15 -147 -117q-7 -9 -12 -15l-169 -206h323q15 0 24 -6t9 -17q0 -15 -6 -20.5t-23 -5.5h-366q-46 -57 -96.5 -112.5t-52.5 -59.5h511
q18 0 25.5 -5.5t7.5 -17.5q0 -14 -7 -21t-22 -7h-530q0 -11 -1 -30.5t-1 -29.5l2 -215q0 -114 5.5 -150t20.5 -44q30 -17 107.5 -19t77.5 -31q0 -12 -10 -20t-25 -8q-2 0 -35.5 4t-64.5 4q-91 0 -208.5 -4t-142.5 -4q-31 0 -40 4t-9 16t8 18.5t37 12.5q9 2 25 5q74 16 92 32
q17 13 24 47t7 102z" />
    <glyph glyph-name="brokenbar" unicode="&#xa6;" 
d="M427 371h160v-789h-160v789zM427 1578h160v-789h-160v789z" />
    <glyph glyph-name="section" unicode="&#xa7;" 
d="M545 321q56 16 97 53q73 65 73 166q0 5 -1 10h-2q-1 14 -4 27q-22 61 -113 127q-59 29 -126 29q-78 0 -125 -44.5t-47 -117.5q0 -123 248 -250zM466 -346q113 6 185 69q72 64 72 165q0 125 -316 276q-123 64 -175.5 137t-52.5 177q0 148 89 237q67 65 170 82l-40 19
q-123 64 -175.5 137t-52.5 177q0 148 89 237q82 79 216 86q8 1 17 1h3q66 0 163 -16.5t97 -41.5v-194h-51q-5 81 -80 132q-70 47 -149 51h-15q-78 0 -125 -44.5t-47 -117.5q0 -132 287 -269q149 -67 204.5 -143.5t55.5 -187.5q0 -171 -101 -282q-47 -39 -99 -64
q108 -56 154 -118q55 -77 55 -187q0 -171 -101 -283q-124 -102 -277 -105v1q-6 -1 -13 -1h-3q-66 0 -163 16.5t-97 41.5v194h51q5 -81 80 -132q68 -45 145 -50z" />
    <glyph glyph-name="dieresis" unicode="&#xa8;" horiz-adv-x="1024" 
d="M223 1289l71 72q13 12 25 12q11 0 27 -14l69 -73q10 -14 10 -25q0 -13 -12 -27l-69 -75q-17 -17 -25 -17q-14 0 -25 12l-76 86q-9 12 -9 23q0 13 14 26zM588 1289l71 72q13 12 25 12q11 0 27 -13l69 -74q10 -14 10 -25q0 -13 -12 -26l-69 -76q-17 -17 -25 -17
q-14 0 -25 12l-76 87q-9 11 -9 22q0 13 14 26z" />
    <glyph glyph-name="copyright" unicode="&#xa9;" horiz-adv-x="1674" 
d="M840 1456q145 0 280 -56.5t239 -160.5q102 -101 158.5 -238t56.5 -283q0 -147 -56.5 -282t-162.5 -240q-105 -105 -239 -159.5t-283 -54.5q-146 0 -278 55.5t-238 160.5q-106 104 -161.5 237.5t-55.5 282.5q0 148 55.5 283t159.5 238q102 104 238.5 160.5t286.5 56.5z
M357 1197q-95 -96 -146 -219.5t-51 -259.5q0 -137 51 -259t148 -219q98 -96 219 -147t256 -51q137 0 259.5 50.5t219.5 145.5q97 98 149 221.5t52 258.5q0 134 -52 259.5t-145 219.5q-96 96 -220 147.5t-258 51.5q-137 0 -262 -51.5t-220 -147.5zM865 223q-142 0 -264 68
t-186 185t-64 243t65.5 244t187.5 184.5t254 66.5q38 0 75 -6.5t76 -20.5q5 -1 9 -1q19 0 26 30h42l72 -198h-44q-52 94 -131 124q-72 26 -147 26h-15q-86 -8 -166.5 -71t-121.5 -177q-33 -90 -33 -184q0 -25 2 -50q11 -121 69.5 -224t149.5 -152q72 -40 166 -42
q124 0 194 56t70 126h53v-100q0 -46 -96.5 -86.5t-242.5 -40.5z" />
    <glyph glyph-name="ordfeminine" unicode="&#xaa;" horiz-adv-x="648" 
 />
    <glyph glyph-name="guillemotleft" unicode="&#xab;" horiz-adv-x="944" 
d="M174 479l342 303h14v-37l-205 -266l205 -266v-37h-14zM487 479l342 303h14v-37l-205 -266l205 -266v-37h-14z" />
    <glyph glyph-name="logicalnot" unicode="&#xac;" 
d="M87 767h840v-491l-1 -1h-98v392h-741v100z" />
    <glyph glyph-name="registered" unicode="&#xae;" horiz-adv-x="1674" 
d="M751 1099v-374l3 -8q23 -56 56 -81q29 -22 56 -22h6q31 4 61.5 38.5t46.5 97.5q13 50 13 103q0 13 -1 27q-4 67 -28 124.5t-56.5 76t-63.5 18.5h-93zM984 576l82 -116q100 -141 150 -141h34v-50h-346v50h45q30 0 30 22q0 29 -69 114l-75 102q-42 0 -84 42v-159
q0 -121 36 -121h53v-50h-316v50h43q37 0 37 121v538q0 121 -37 121h-43v70h356q64 -1 125 -42q60 -41 92.5 -114t32.5 -152q0 -78 -32 -150.5t-114 -134.5zM840 1456q145 0 280 -56.5t239 -160.5q102 -101 158.5 -238t56.5 -283q0 -147 -56.5 -282t-162.5 -240
q-105 -105 -239 -159.5t-283 -54.5q-146 0 -278 55.5t-238 160.5q-106 104 -161.5 237.5t-55.5 282.5q0 148 55.5 283t159.5 238q102 104 238.5 160.5t286.5 56.5zM357 1197q-95 -96 -146 -219.5t-51 -259.5q0 -137 51 -259t148 -219q98 -96 219 -147t256 -51
q137 0 259.5 50.5t219.5 145.5q97 98 149 221.5t52 258.5q0 134 -52 259.5t-145 219.5q-96 96 -220 147.5t-258 51.5q-137 0 -262 -51.5t-220 -147.5z" />
    <glyph glyph-name="macron" unicode="&#xaf;" horiz-adv-x="670" 
 />
    <glyph glyph-name="degree" unicode="&#xb0;" horiz-adv-x="674" 
d="M339 1372q-86 0 -147.5 -61t-61.5 -148t61 -147t148 -60t147 60t60 147t-60.5 148t-146.5 61zM339 1442q115 0 196 -81.5t81 -196.5q0 -114 -82 -196t-197 -82q-117 0 -197 81t-80 197t81.5 197t197.5 81z" />
    <glyph glyph-name="plusminus" unicode="&#xb1;" 
 />
    <glyph glyph-name="uni00B2" unicode="&#xb2;" 
 />
    <glyph glyph-name="uni00B3" unicode="&#xb3;" 
 />
    <glyph glyph-name="acute" unicode="&#xb4;" horiz-adv-x="1024" 
d="M607 1375q35 35 55.5 47t40.5 12q33 0 53.5 -20t20.5 -51q0 -22 -15.5 -42t-46.5 -40l-330 -203h-69z" />
    <glyph glyph-name="mu" unicode="&#xb5;" horiz-adv-x="1180" 
 />
    <glyph glyph-name="paragraph" unicode="&#xb6;" horiz-adv-x="1024" 
d="M929 1435v-70h-127v-1365h-82v1365h-166v-1365h-84v738q-174 8 -275.5 102.5t-101.5 245.5q0 157 107.5 253t285.5 96h443z" />
    <glyph glyph-name="periodcentered" unicode="&#xb7;" horiz-adv-x="508" 
d="M396 711q10 -46 -5 -122q12 6 26 26q27 39 30 106q1 29 -8 57q-10 31 -31 55q-51 56 -147 56q-88 -1 -141 -48q-47 -42 -56 -107q-8 -62 21 -113q30 -54 88 -67q72 -16 130 15q65 35 72 90q2 24 -7 45t-27 35q-23 17 -49 22q-27 4 -50 -7q-27 -14 -37 -40q-12 -29 7 -59
q3 -5 -8 5q-10 11 -19 21q-21 24 -7 59q12 31 37 46q24 16 52 19q32 3 61 -11q55 -26 68 -83z" />
    <glyph glyph-name="periodcentered" unicode="&#x2219;" horiz-adv-x="508" 
d="M396 711q10 -46 -5 -122q12 6 26 26q27 39 30 106q1 29 -8 57q-10 31 -31 55q-51 56 -147 56q-88 -1 -141 -48q-47 -42 -56 -107q-8 -62 21 -113q30 -54 88 -67q72 -16 130 15q65 35 72 90q2 24 -7 45t-27 35q-23 17 -49 22q-27 4 -50 -7q-27 -14 -37 -40q-12 -29 7 -59
q3 -5 -8 5q-10 11 -19 21q-21 24 -7 59q12 31 37 46q24 16 52 19q32 3 61 -11q55 -26 68 -83z" />
    <glyph glyph-name="cedilla" unicode="&#xb8;" horiz-adv-x="1024" 
d="M360 -290q85 -52 152 -52q66 0 94.5 21.5t28.5 66.5t-49 64q-40 16 -102 16q-16 0 -34 -2l48 176h63l-37 -104q32 4 62 5q86 0 134 -40.5t48 -113.5q0 -76 -58.5 -120.5t-160.5 -44.5q-109 0 -189 32v96z" />
    <glyph glyph-name="uni00B9" unicode="&#xb9;" 
 />
    <glyph glyph-name="ordmasculine" unicode="&#xba;" horiz-adv-x="718" 
 />
    <glyph glyph-name="guillemotright" unicode="&#xbb;" horiz-adv-x="944" 
d="M115 176h-14v37l205 266l-205 266v37h14l342 -303zM428 176h-14v37l205 266l-205 266v37h14l342 -303z" />
    <glyph glyph-name="onequarter" unicode="&#xbc;" horiz-adv-x="1708" 
 />
    <glyph glyph-name="onehalf" unicode="&#xbd;" horiz-adv-x="1964" 
 />
    <glyph glyph-name="threequarters" unicode="&#xbe;" horiz-adv-x="1708" 
 />
    <glyph glyph-name="questiondown" unicode="&#xbf;" horiz-adv-x="748" 
 />
    <glyph glyph-name="Agrave" unicode="&#xc0;" horiz-adv-x="1540" 
 />
    <glyph glyph-name="Aacute" unicode="&#xc1;" horiz-adv-x="1540" 
 />
    <glyph glyph-name="Acircumflex" unicode="&#xc2;" horiz-adv-x="1540" 
 />
    <glyph glyph-name="Atilde" unicode="&#xc3;" horiz-adv-x="1540" 
 />
    <glyph glyph-name="Adieresis" unicode="&#xc4;" horiz-adv-x="1540" 
 />
    <glyph glyph-name="Aring" unicode="&#xc5;" horiz-adv-x="1540" 
 />
    <glyph glyph-name="AE" unicode="&#xc6;" horiz-adv-x="2118" 
 />
    <glyph glyph-name="Ccedilla" unicode="&#xc7;" horiz-adv-x="1399" 
 />
    <glyph glyph-name="Egrave" unicode="&#xc8;" horiz-adv-x="1151" 
 />
    <glyph glyph-name="Eacute" unicode="&#xc9;" horiz-adv-x="1151" 
 />
    <glyph glyph-name="Ecircumflex" unicode="&#xca;" horiz-adv-x="1151" 
 />
    <glyph glyph-name="Edieresis" unicode="&#xcb;" horiz-adv-x="1151" 
 />
    <glyph glyph-name="Igrave" unicode="&#xcc;" horiz-adv-x="657" 
 />
    <glyph glyph-name="Iacute" unicode="&#xcd;" horiz-adv-x="657" 
 />
    <glyph glyph-name="Icircumflex" unicode="&#xce;" horiz-adv-x="657" 
 />
    <glyph glyph-name="Idieresis" unicode="&#xcf;" horiz-adv-x="657" 
 />
    <glyph glyph-name="Eth" unicode="&#xd0;" horiz-adv-x="1518" 
 />
    <glyph glyph-name="Ntilde" unicode="&#xd1;" horiz-adv-x="1554" 
 />
    <glyph glyph-name="Ograve" unicode="&#xd2;" horiz-adv-x="1614" 
 />
    <glyph glyph-name="Oacute" unicode="&#xd3;" horiz-adv-x="1614" 
 />
    <glyph glyph-name="Ocircumflex" unicode="&#xd4;" horiz-adv-x="1614" 
 />
    <glyph glyph-name="Otilde" unicode="&#xd5;" horiz-adv-x="1614" 
 />
    <glyph glyph-name="Odieresis" unicode="&#xd6;" horiz-adv-x="1614" 
 />
    <glyph glyph-name="multiply" unicode="&#xd7;" 
d="M507 618l-247 -247l-99 99l247 247l-247 248l99 98l247 -247l248 247l98 -99l-247 -247l247 -247l-99 -99z" />
    <glyph glyph-name="Oslash" unicode="&#xd8;" horiz-adv-x="1614" 
 />
    <glyph glyph-name="Ugrave" unicode="&#xd9;" horiz-adv-x="1501" 
 />
    <glyph glyph-name="Uacute" unicode="&#xda;" horiz-adv-x="1501" 
 />
    <glyph glyph-name="Ucircumflex" unicode="&#xdb;" horiz-adv-x="1501" 
 />
    <glyph glyph-name="Udieresis" unicode="&#xdc;" horiz-adv-x="1501" 
 />
    <glyph glyph-name="Yacute" unicode="&#xdd;" horiz-adv-x="1233" 
 />
    <glyph glyph-name="Thorn" unicode="&#xde;" horiz-adv-x="1120" 
 />
    <glyph glyph-name="germandbls" unicode="&#xdf;" horiz-adv-x="1251" 
 />
    <glyph glyph-name="agrave" unicode="&#xe0;" horiz-adv-x="922" 
 />
    <glyph glyph-name="aacute" unicode="&#xe1;" horiz-adv-x="922" 
 />
    <glyph glyph-name="acircumflex" unicode="&#xe2;" horiz-adv-x="922" 
 />
    <glyph glyph-name="atilde" unicode="&#xe3;" horiz-adv-x="922" 
 />
    <glyph glyph-name="adieresis" unicode="&#xe4;" horiz-adv-x="922" 
 />
    <glyph glyph-name="aring" unicode="&#xe5;" horiz-adv-x="922" 
 />
    <glyph glyph-name="ae" unicode="&#xe6;" horiz-adv-x="1454" 
 />
    <glyph glyph-name="ccedilla" unicode="&#xe7;" horiz-adv-x="905" 
 />
    <glyph glyph-name="egrave" unicode="&#xe8;" horiz-adv-x="909" 
 />
    <glyph glyph-name="eacute" unicode="&#xe9;" horiz-adv-x="909" 
 />
    <glyph glyph-name="ecircumflex" unicode="&#xea;" horiz-adv-x="909" 
 />
    <glyph glyph-name="edieresis" unicode="&#xeb;" horiz-adv-x="909" 
 />
    <glyph glyph-name="igrave" unicode="&#xec;" horiz-adv-x="514" 
 />
    <glyph glyph-name="iacute" unicode="&#xed;" horiz-adv-x="514" 
 />
    <glyph glyph-name="icircumflex" unicode="&#xee;" horiz-adv-x="514" 
 />
    <glyph glyph-name="idieresis" unicode="&#xef;" horiz-adv-x="540" 
 />
    <glyph glyph-name="eth" unicode="&#xf0;" horiz-adv-x="1139" 
 />
    <glyph glyph-name="ntilde" unicode="&#xf1;" horiz-adv-x="1108" 
 />
    <glyph glyph-name="ograve" unicode="&#xf2;" horiz-adv-x="1010" 
 />
    <glyph glyph-name="oacute" unicode="&#xf3;" horiz-adv-x="1010" 
 />
    <glyph glyph-name="ocircumflex" unicode="&#xf4;" horiz-adv-x="1010" 
 />
    <glyph glyph-name="otilde" unicode="&#xf5;" horiz-adv-x="1010" 
 />
    <glyph glyph-name="odieresis" unicode="&#xf6;" horiz-adv-x="1010" 
 />
    <glyph glyph-name="divide" unicode="&#xf7;" 
d="M87 647v140h839l1 -1v-139h-840zM398 408l82 84q15 14 29 14q13 0 31 -16l80 -86q12 -16 12 -29q0 -15 -14 -31l-80 -88q-20 -20 -29 -20q-16 0 -29 14l-88 101q-10 13 -10 26q0 15 16 31zM398 1101l82 84q15 14 29 14q13 0 31 -16l80 -86q12 -16 12 -29q0 -15 -14 -31
l-80 -88q-20 -20 -29 -20q-16 0 -29 14l-88 101q-10 13 -10 26q0 15 16 31z" />
    <glyph glyph-name="oslash" unicode="&#xf8;" horiz-adv-x="1010" 
 />
    <glyph glyph-name="ugrave" unicode="&#xf9;" horiz-adv-x="1059" 
 />
    <glyph glyph-name="uacute" unicode="&#xfa;" horiz-adv-x="1059" 
 />
    <glyph glyph-name="ucircumflex" unicode="&#xfb;" horiz-adv-x="1059" 
 />
    <glyph glyph-name="udieresis" unicode="&#xfc;" horiz-adv-x="1059" 
 />
    <glyph glyph-name="yacute" unicode="&#xfd;" horiz-adv-x="868" 
 />
    <glyph glyph-name="thorn" unicode="&#xfe;" horiz-adv-x="1010" 
 />
    <glyph glyph-name="ydieresis" unicode="&#xff;" horiz-adv-x="868" 
 />
    <glyph glyph-name="dotlessi" unicode="&#x131;" horiz-adv-x="514" 
d="M328 223q0 -173 100 -173h46v-50h-442v50h46q100 0 100 173v432q0 77 -111 77h-48v44q222 69 261 182h48v-735z" />
    <glyph glyph-name="circumflex" unicode="&#x2c6;" horiz-adv-x="1024" 
d="M221 1079l232 355h118l232 -355h-58l-233 216l-233 -216h-58z" />
    <glyph glyph-name="caron" unicode="&#x2c7;" horiz-adv-x="1024" 
d="M221 1434h58l233 -214l233 214h58l-232 -356h-118z" />
    <glyph glyph-name="uni02C9" unicode="&#x2c9;" horiz-adv-x="1024" 
d="M254 1195v125h516v-125h-516z" />
    <glyph glyph-name="breve" unicode="&#x2d8;" horiz-adv-x="1024" 
d="M219 1349h51q17 -73 75 -107t167 -34t166 33.5t74 107.5h51q-20 -133 -94 -201.5t-197 -68.5q-122 0 -197 69t-96 201z" />
    <glyph glyph-name="dotaccent" unicode="&#x2d9;" horiz-adv-x="1024" 
d="M422 1289l69 72q6 6 13 9t14 3q6 0 12.5 -3t12.5 -9l71 -76q5 -4 7 -10t2 -14q-1 -9 -3 -15t-8 -12l-71 -76q-12 -11 -16 -13.5t-7 -2.5q-10 0 -16.5 2.5t-10.5 8.5l-75 87q-4 4 -6 9.5t-2 13.5q0 6 3 12.5t11 13.5z" />
    <glyph glyph-name="ring" unicode="&#x2da;" horiz-adv-x="1024" 
d="M411 1257q0 -42 29 -71t71 -29t71 29t29 71q0 40 -29.5 69.5t-70.5 29.5t-70.5 -29.5t-29.5 -69.5zM335 1257q0 75 51 126t125 51q76 0 127.5 -51.5t51.5 -125.5q0 -75 -51.5 -126.5t-127.5 -51.5q-74 0 -125 51.5t-51 126.5z" />
    <glyph glyph-name="ogonek" unicode="&#x2db;" horiz-adv-x="1024" 
d="M640 0q-71 -62 -110.5 -119.5t-39.5 -112.5q0 -47 27 -75t73 -28q40 0 69.5 15.5t49.5 48.5l28 -16q-36 -63 -90.5 -97t-119.5 -34q-70 0 -114 35.5t-44 90.5q0 76 60.5 156.5t161.5 135.5h49z" />
    <glyph glyph-name="tilde" unicode="&#x2dc;" horiz-adv-x="1024" 
d="M808 1382q-20 -103 -68.5 -154t-126.5 -51h-4q-50 0 -113 23q-66 24 -114 24q-39 0 -60.5 -20.5t-33.5 -71.5h-54q19 106 68 158.5t129 52.5q46 -1 113 -24q64 -23 112 -23h4q36 0 58 20t36 66h54z" />
    <glyph glyph-name="hungarumlaut" unicode="&#x2dd;" horiz-adv-x="1024" 
d="M217 1079l144 273q24 44 45.5 63t46.5 19q28 0 48 -20t20 -47q0 -16 -10.5 -35t-30.5 -41l-205 -212h-58zM502 1079l144 273q24 44 45.5 63t46.5 19q28 0 48 -20t20 -47q0 -16 -10.5 -35t-30.5 -41l-205 -212h-58z" />
    <glyph glyph-name="uni0401" unicode="&#x401;" horiz-adv-x="1078" 
d="M1008 248l-32 -22q-366 -1 -711 -1q-6 79 2 205l1 23l2 23q1 26 2 43q2 46 0 76q320 10 519 -11q2 -1 5 -5q2 -4 4 -9q1 -5 0 -8q0 -3 -4 -1q49 -20 49 5q0 143 13 250l-25 9l-24 -18q-268 17 -530 16q0 29 -1 82l-1 42v43q-1 104 8 203q228 32 585 -1q10 -1 12 -6v-3
l1 -2q1 -3 4 -6q11 -9 36 -7q-8 226 12 251l-33 8l-6 -19q-296 11 -612 13q-31 3 -87 -2l-23 -2l-21 -2q-24 -2 -38 -2q-49 -23 -49 -62q-1 -46 4 -245q3 -98 4 -166q1 -98 1 -181q0 -71 -2 -164l-2 -81l-1 -39l-1 -39q-5 -187 -2 -270q5 -110 71 -148q47 -27 130 -18
q147 15 357 18q221 4 362 -9q5 -1 5 -9v-7q0 -3 2 -3q14 -7 27 -2q5 49 4 249zM414 1576q-18 -22 -45 -22q-26 0 -44 22q-19 23 -19 54q0 32 19 54q18 22 44 22q27 0 45 -22q19 -22 19 -54q0 -31 -19 -54zM585 1602q7 28 30 40q24 11 50 -1q27 -12 40 -41q14 -28 7 -56
q-8 -28 -31 -40q-24 -11 -50 1q-27 12 -40 41q-14 28 -6 56z" />
    <glyph glyph-name="uni0404" unicode="&#x404;" horiz-adv-x="1340" 
d="M394 1357q144 74 311 69q169 -5 298 -89q140 -91 190 -251q11 -35 28 -34q9 0 15 7v-66l-285 -52l9 48q5 -3 9 2q3 4 4 13q2 12 0 33q6 44 -29 87q-32 38 -91 59q-74 26 -189 24q-384 -7 -393 -365q44 -39 163 -41q45 -1 106 3q22 2 52 4l25 3l24 2q8 1 17 16l3 5l3 5
q4 5 8 5q24 3 25 -22l5 -170q5 -9 -3 -22q-8 -14 -25 -17q-4 -1 -12 11l-3 4l-3 4q-4 3 -6 3q-53 -11 -137 -17l-32 -2q-18 -1 -30 -2q-32 -3 -53 -7q-54 -9 -74 -33q-24 -29 -13 -86q26 -128 124 -197q83 -58 205 -66q106 -6 200 27q92 32 112 79q14 35 -5 35q-10 1 -22 -6
l-10 45l327 -1q10 -9 14 -20q9 -21 -16 -31q-6 -3 -17 -14t-10 -15t-4 -19q-5 -19 -15 -40q-28 -60 -79 -111q-154 -156 -443 -154q-231 1 -382 128q-132 112 -189 306q-50 174 -30 372q19 190 93 330q76 143 230 221z" />
    <glyph glyph-name="uni0406" unicode="&#x406;" horiz-adv-x="560" 
d="M60 1380l80 -33q-33 -823 0 -1198q2 -18 -23 -24l-10 -2l-9 -2q-11 -3 -15 -9q-19 -34 -5 -94q72 -2 155 -9q12 -1 30 -3l14 -1l14 -1q29 -3 45 -3q43 -2 62 4q22 7 32 29q10 21 9 37q0 13 -7 22q-8 11 -20 15l-31 -4q-13 184 -21 429q-7 214 -5 396q2 227 17 392
q2 12 15 23q5 3 13 8l14 8q34 18 19 37q-27 34 -362 19z" />
    <glyph glyph-name="uni0407" unicode="&#x407;" horiz-adv-x="560" 
d="M60 1380l80 -33q-33 -823 0 -1198q2 -18 -23 -24l-10 -2l-9 -2q-11 -3 -15 -9q-19 -34 -5 -94q72 -2 155 -9q12 -1 30 -3l14 -1l14 -1q29 -3 45 -3q43 -2 62 4q22 7 32 29q10 21 9 37q0 13 -7 22q-8 11 -20 15l-31 -4q-13 184 -21 429q-7 214 -5 396q2 227 17 392
q2 12 15 23q5 3 13 8l14 8q34 18 19 37q-27 34 -362 19zM366 1631q7 30 32 41q24 12 51 -1q28 -12 42 -42q14 -29 6 -58q-7 -29 -32 -41q-24 -12 -51 1q-28 12 -42 42q-14 29 -6 58zM19 1628q7 29 32 40q24 12 51 -1q28 -12 42 -42q14 -29 6 -58q-7 -29 -32 -41
q-24 -12 -52 1q-27 12 -41 42q-14 29 -6 59z" />
    <glyph glyph-name="uni0410" unicode="&#x410;" horiz-adv-x="1533" 
d="M659 1020q37 148 43 175q0 4 25 8q28 4 70 5q46 1 129 -387l-322 -13q17 58 55 212zM1402 168q-29 49 -104 253q-29 78 -72 198q-15 43 -38 107l-39 109q-200 561 -230 579q-38 21 -182 7q-53 -5 -99 -13q-44 -7 -48 -12q-25 -24 -52 -108q-5 -16 -12 -38l-12 -41
q-16 -53 -27 -85q-75 -219 -338 -1006q-10 -6 -43 -17q-19 -7 19 -66q14 6 62 9q112 8 273 -39l16 51q1 20 -48 44q35 202 72 320q7 20 13 37q5 13 10 23q2 5 4 8q1 3 2 5l1 2l1 1l1 1q21 75 43 100l138 5q110 2 163 4q5 1 13 2l13 3q17 3 30 -1q37 -13 75 -100
q131 -303 172 -413q-8 -21 -32 -38q-15 -10 25 -59l315 98q1 53 -13 50q-53 -11 -72 20zM470 1364l-1 2q-1 4 -4 6q-3 1 -7 2h-1l-1 -1q-7 -1 -10 -6l-3 -4l-2 -4l-2 -3l-2 -3l-2 -4l-4 -5l1 -1q-56 -128 -159 -434q-36 -108 -78 -235q-15 -47 -31 -98q-6 -19 -13 -40
q-4 -14 -11 -34q-8 -27 -18 -59l-9 -27l-8 -26q-19 -62 -27 -87q-13 -39 -20 -57q-3 -9 -6 -14l-1 -2q-9 -3 -14 -9q-4 -6 -4 -13l1 -1q0 -18 11 -24q7 -3 15 -4q28 0 28 23v3q-1 6 -3 11q-2 3 -5 7q1 5 4 12l6 20q9 26 17 51q22 71 31 99q23 75 62 195q47 144 91 276
q121 360 171 463l-3 2l3 -1l1 1l1 2l2 5q4 8 4 14v2z" />
    <glyph glyph-name="uni0411" unicode="&#x411;" horiz-adv-x="1216" 
d="M650 638q319 -28 275 -229q-22 -98 -124 -143q-81 -37 -210 -38q-148 -1 -287 34q4 106 8 155q5 46 9 208q169 27 329 13zM756 1453l-9 -35q-109 -38 -599 -42q-23 0 -40 -15q-11 -11 -12 -17q-2 -8 0 -42q3 -55 7 -116q4 -77 7 -154q9 -201 9 -368q3 -471 -55 -573
q-6 -12 34 -28q41 -16 113 -29q174 -33 361 -25q234 11 381 87q181 94 204 278q53 411 -364 478q-130 21 -297 5q-29 -2 -58 -6q-22 -3 -46 -6l-46 -7q-26 0 -35 348q99 -9 215 -6q231 7 314 71q6 4 16 -16l5 -8l4 -7q6 -7 10 -8q17 -4 53 39q-97 167 -114 198q-18 32 -58 4
z" />
    <glyph glyph-name="uni0412" unicode="&#x412;" horiz-adv-x="1382" 
d="M401 681q35 -5 165 14l26 3l28 4q31 5 56 7q64 7 113 8q279 0 263 -240q-6 -94 -105 -156q-78 -49 -212 -76q-152 -30 -303 -25zM372 1236q13 -3 95 4q43 4 71 5q42 2 75 0q189 -11 158 -153q-25 -114 -202 -168q-89 -27 -172 -31zM977 1067q22 104 -33 192
q-65 101 -216 144q-178 49 -453 9q-22 -3 -43 -27q-13 -15 -16 -23q-4 -12 -5 -54q-4 -103 -6 -212q-2 -150 -1 -296q3 -394 30 -698q5 -54 132 -82q127 -29 292 -14q185 17 327 84q167 77 237 207q52 97 57 202t-37 194q-45 94 -133 150q-95 61 -227 70q74 56 95 154z
M137 1374l-2 3q-3 3 -7 4t-8 -1h-1l-2 -1q-6 -4 -9 -12l-1 -5l-1 -5l-1 -5v-4h-1v-6l-2 -7h1q-9 -173 -1 -481q3 -112 9 -244q2 -49 4 -106q1 -21 2 -46l1 -22l1 -20q2 -35 4 -75l2 -36l2 -33q4 -80 5 -112q3 -51 2 -74q0 -13 -1 -20v-2q-9 -6 -12 -16q-2 -9 1 -17h1v-1
q8 -20 22 -23q10 -1 18 2h1q13 5 19 16q7 11 3 22l-1 4q-3 5 -9 10q-3 4 -8 7q0 7 -1 16q0 12 -1 25q-1 35 -3 66q-4 92 -6 127q-5 96 -10 224q-7 156 -11 297q-10 378 2 519l-3 1h3l1 4v3v4q1 11 -1 18z" />
    <glyph glyph-name="uni0413" unicode="&#x413;" horiz-adv-x="1037" 
d="M465 1364q150 6 254 22q129 21 179 57l-12 22l53 13q13 -49 33 -100q17 -45 33 -72q19 -34 35 -39l-41 -43l-15 19q-87 -32 -205 -61q-238 -59 -399 -45q14 -144 8 -567q-6 -441 -29 -475l62 -25l-7 -45l-348 -16l-13 44l56 28q65 688 33 1046q-1 8 -3 27l-1 16l-2 18
q-5 46 -6 77q-6 95 11 100q153 -7 324 -1z" />
    <glyph glyph-name="uni0414" unicode="&#x414;" horiz-adv-x="1470" 
d="M543 486l-25 709q-2 36 18 59q9 11 85 15l261 9q33 -5 41 -12q24 -23 13 -60l-51 -726zM1338 39q70 305 88 376q11 44 -158 53q-84 5 -171 0q48 609 50 870q1 64 -15 92l-1 3l-2 4q-3 5 -7 9q-14 11 -39 12q-120 1 -354 -4q-258 -7 -359 -16q-29 -2 -40 -9q-4 -3 -8 -7
l-3 -4l-3 -4q-20 -27 -14 -60l51 -880l-290 -33q-17 -16 -22 -24q-7 -12 -6 -18q1 -3 4 -13l1 -4l2 -6q2 -8 4 -15q8 -25 25 -67l13 -34l13 -35q30 -84 22 -158l-26 -12v-53l330 -6v71l-35 6q-10 -13 -24 0q-13 11 -25 43q-16 39 -30 109q-12 60 852 12l-39 -174l-53 -12
l18 -60h307l6 48h-62z" />
    <glyph glyph-name="uni0415" unicode="&#x415;" horiz-adv-x="1167" 
d="M1051 258l-32 -22q-366 -1 -711 -1q-6 79 2 205l1 23l2 23q1 26 2 43q2 46 0 76q320 10 519 -11q2 -1 5 -5q2 -4 4 -9q1 -5 0 -8q0 -3 -4 -1q49 -20 49 5q0 143 13 250l-25 9l-24 -18q-268 17 -530 16q0 29 -1 82l-1 42v43q-1 104 8 203q228 32 585 -1q10 -1 12 -6v-3
l1 -2q1 -3 4 -6q11 -9 36 -7q-8 226 12 251l-33 8l-6 -19q-296 11 -612 13q-31 3 -87 -2l-23 -2l-21 -2q-24 -2 -38 -2q-49 -23 -49 -62q-1 -46 4 -245q3 -98 4 -166q1 -98 1 -181q0 -71 -2 -164l-2 -81l-1 -39l-1 -39q-5 -187 -2 -270q5 -110 71 -148q47 -27 130 -18
q147 15 357 18q221 4 362 -9q5 -1 5 -9v-7q0 -3 2 -3q14 -7 27 -2q5 49 4 249z" />
    <glyph glyph-name="uni0416" unicode="&#x416;" horiz-adv-x="1903" 
d="M1778 286q-207 -20 -317 178q-40 73 -61 166q-17 74 -18 137q-4 243 174 343q90 50 179 52q16 -51 32 -52q15 -2 30 9t12 21q-56 146 -63 285l-40 -14l-5 -39q-250 -52 -382 -198q-119 -132 -136 -334q-22 1 -69 -8q-24 -5 -37 -7q-21 -3 -38 -2q-1 146 2 253
q3 142 13 239q1 12 14 22q5 4 13 8l13 8q32 17 17 36q-25 32 -348 18l-10 -35l76 -32q-7 -253 -10 -520q-12 0 -38 8q-31 10 -72 29q-37 416 -512 515l-6 39l-40 14q-7 -139 -62 -285q-4 -10 11 -21t31 -9q15 1 31 52q90 -2 179 -52q78 -43 122 -117q55 -92 53 -226
q-1 -63 -18 -137q-22 -93 -62 -166q-109 -198 -316 -178q-18 20 -31 24q-12 4 -37 -20l40 -276l61 -3l13 47q101 7 214 64q100 50 170 128q88 97 125 234q18 65 29 130q45 12 69 10l10 -1l9 -2q12 -1 24 -1q0 -280 14 -433q2 -18 -22 -23l-10 -2l-9 -2q-10 -3 -14 -9
q-19 -32 -5 -90q70 -2 149 -9q12 -1 30 -3l13 -1l13 -1q28 -2 44 -3q41 -2 60 4q21 7 30 28q10 20 9 36q-1 12 -7 21q-8 11 -19 14l-30 -3q-15 213 -22 482q81 -1 152 -4q11 -68 30 -138q37 -137 125 -234q71 -78 170 -128q114 -57 214 -64l13 -47l62 3l39 276
q-25 24 -37 20t-30 -24z" />
    <glyph glyph-name="uni0417" unicode="&#x417;" horiz-adv-x="1208" 
d="M416 630q-32 98 -54 145q-4 8 42 11q162 48 250 129q75 70 81 151q6 73 -46 126t-134 55q-67 2 -121 -31q-42 -25 -74 -71q-36 -53 -48 -106l26 -7l2 -26q-161 -3 -215 20l12 26h24q4 79 51 166q41 75 108 124q83 62 201 79q81 12 164 -11q84 -24 147 -79q67 -58 94 -138
q29 -88 5 -190q-20 -83 -112 -179q-4 -5 -12 -10l-6 -4l-5 -4q-12 -9 -9 -18q2 -7 3 -7l3 1q3 0 6 -1q8 -1 20 -6q40 -14 83 -41q95 -62 136 -161q53 -131 -1 -309q-33 -92 -132 -171q-87 -70 -202 -96q-145 -33 -328 3q-125 25 -210 114q-27 29 -51 65q-4 6 -8 13l-4 7
l-3 5q-8 13 -11 16l-42 -3l-10 22q216 109 247 129q11 6 15 -25l-13 -24q7 -18 23 -41q13 -19 31 -34q21 -19 47 -30q118 -52 240 -30q151 28 194 169q35 112 -7 187q-34 61 -116 93q-65 25 -144 26q-70 1 -93 -14q-41 -27 -44 -15zM1074 671q-7 0 -11 -4q-6 -5 -6 -11
q0 -4 3 -8q68 -99 68 -233q0 -100 -38 -209q-77 -223 -381 -285q-7 9 -18 9q-24 0 -24 -27t24 -27q15 0 22 15q308 61 403 294q44 110 44 225q0 146 -73 254q-5 7 -13 7z" />
    <glyph glyph-name="uni0418" unicode="&#x418;" horiz-adv-x="1450" 
d="M66 1381q20 0 35 -15q13 -12 16 -48q3 -46 -10 -126q-34 -204 -33 -645q1 -474 55 -515q36 -28 174 92q111 96 282 281q196 211 378 432q62 -756 39 -756q-16 0 -32 -18l21 -65l316 49q12 34 1 44q-10 7 -54 10q-58 1008 -46 1266q-116 0 -142 -11q-30 -14 -107 -116
q-29 -39 -80 -110l-22 -31l-23 -32q-29 -41 -48 -69q-128 -178 -226 -300q-139 -173 -265 -292l29 923q47 22 65 10q6 -4 11 4q5 7 7 20t0 22q-3 11 -10 11q-12 0 -161 15l-28 3l-26 2q-30 3 -49 5q-47 5 -52 5zM1283 1173l2 3q1 3 5 5q3 1 6 1h1l2 -1q5 -3 7 -9l2 -6l1 -4
q2 -4 2 -8h1l1 -5q18 -421 30 -618q2 -33 4 -71l2 -33l2 -32q4 -76 6 -106q3 -47 6 -69q1 -12 3 -19v-2q8 -4 11 -13q2 -8 1 -16l-1 -1q-4 -20 -15 -25q-8 -3 -15 -1q-26 5 -22 32l1 3q2 6 6 11l6 8q0 3 -1 6v9l-2 24q-2 33 -4 62q-5 87 -7 120q-3 62 -8 174l-2 48l-3 48
l-4 99q-11 243 -22 356v4l-2 7q-1 10 0 17v2z" />
    <glyph glyph-name="uni0419" unicode="&#x419;" horiz-adv-x="1398" 
d="M45 1377q20 0 36 -14q31 -28 8 -175q-32 -207 -26 -651q6 -477 62 -518q67 -49 460 381q197 216 379 440q73 -760 50 -760q-17 0 -33 -19l22 -65l301 53q12 35 0 44q-9 8 -54 10q-72 1014 -63 1274q-98 -2 -124 -13q-31 -14 -108 -118q-29 -39 -79 -111l-22 -32l-24 -33
q-28 -41 -48 -70q-128 -181 -226 -305q-140 -175 -267 -297l19 930q47 23 66 11q6 -4 12 4q5 8 6 21q2 13 0 22q-3 10 -11 10q-12 0 -164 14l-28 2l-27 2q-31 3 -49 5q-49 4 -53 4zM1235 1191l2 3q1 4 5 5q2 2 6 1h1l2 -1q5 -3 8 -9l1 -5l2 -4l2 -8l1 -6q24 -417 38 -612
q3 -33 5 -71l3 -33l2 -31q5 -76 7 -106q4 -47 7 -68q1 -12 3 -18v-3q8 -4 11 -13q3 -7 1 -15v-1q-5 -20 -16 -25q-7 -3 -14 -2q-26 5 -22 32l1 3q2 6 5 11l6 8q0 3 -1 6v9q-1 12 -2 23q-3 33 -5 63q-6 86 -9 118q-4 61 -10 173l-3 47l-3 48l-5 98q-15 241 -26 354l-1 4l-1 6
q-2 10 -1 17v2zM704 1581q-115 -58 -157 -74q-5 17 -16 10l-4 -4l-4 -3q-5 -4 -8 -3q9 -30 14 -39q15 -32 77 -120l23 -32q21 -10 16 9q-7 27 32 47q7 4 18 9l21 9q26 11 41 20q136 77 233 143q3 2 12 2l8 1h8q16 2 -2 14q-11 6 -52 44q-30 27 -84 79q-3 4 -8 -8l-2 -6
l-2 -5q-3 -5 -6 -7q-40 -26 -158 -86z" />
    <glyph glyph-name="uni041A" unicode="&#x41a;" horiz-adv-x="1313" 
d="M95 1349q-17 -188 22 -1294q-33 1 -33 -20q1 -30 12 -35q260 22 332 21q23 0 21 27q0 10 -4 19q-4 10 -8 12q-12 8 -59 9l-26 541q80 16 136 60q74 -1 144 -53q71 -53 96 -128l5 -15l6 -17q7 -22 12 -37q16 -47 31 -85q43 -106 92 -176q140 -199 341 -126q8 -8 19 -14
q8 -5 15 -7q9 -2 25 5q18 7 15 14q-11 24 -20 71q-8 37 -15 86q-3 19 -5 38q-2 16 -4 31q-1 5 -1 11q-1 4 -1 7v2v1v-1q-29 -4 -34 -11q-4 -4 -3 -23q-32 -15 -74 -5q-84 20 -136 145q-12 29 -29 74l-14 35l-14 35q-32 80 -59 127q-75 127 -214 172q114 105 181 183
q67 91 90 117q44 52 109 60l11 -17q42 15 39 28q-2 9 -14 31l-5 10l-6 11q-8 14 -13 25q-35 70 -42 133q-1 8 -33 -2l-9 -31q-46 -8 -103 -41q-84 -50 -178 -189q-90 -120 -213 -224q-48 -39 -89 -63q-38 -21 -34 -11q7 23 -35 483q17 40 45 37q27 -3 1 45
q-180 -28 -214 -26q-35 2 -89 26l-11 -22q44 -30 41 -59zM1007 734q0 9 1 21q-1 9 -1 20l34 -29q0 -7 -1 -14q-1 -9 -1 -17q-1 -19 -7 -36q-17 13 -31 28q4 7 6 27zM992 789q1 -7 1 -14q1 -23 0 -40q0 -7 -2 -15q-20 32 -22 68q0 9 1 21zM1042 801h-16q-6 0 -13 1
q-5 -1 -9 0h-3l-1 1h-3l-17 18q23 6 42 7q36 2 64 -14q-10 -12 -44 -13zM1093 760h-16l-14 2h-9h-3l-1 1l-9 1l1 -2q-14 12 -29 26q15 -2 29 -1q19 1 31 4q17 5 26 14l-1 2q20 -16 36 -42q-13 -6 -41 -5zM1152 724l-1 2l-2 -1l-3 -1q-5 -2 -10 -2q-6 0 -13 1l-13 1h-6h-4
l-3 1h-1l-8 2l-28 21l14 -2h18q35 1 49 7l3 -7q5 -11 8 -22zM1107 650q2 7 3 24q-1 9 -2 20q27 -20 53 -38q-15 -7 -33 -7q-10 -1 -21 1zM1094 691q1 -10 2 -18q0 -7 -1 -14q-1 -6 -2 -6l1 -1q-27 6 -49 19q2 7 5 20l1 11l2 11q0 10 2 22l36 -29q2 -8 3 -15zM1157 712
q5 -19 9 -39q-30 19 -54 36q14 -1 25 -1q11 1 17 3zM1128 635q29 1 51 15l3 2v4l-1 2v3v3q-1 11 -4 22q-6 36 -20 65q-18 41 -48 65q-37 29 -87 27h-1q-24 -2 -52 -10q-12 13 -25 21q-11 8 -15 6q-4 -1 1 -11q8 -11 28 -29q-3 -17 -3 -33q4 -83 81 -128v-1v1q46 -26 92 -24z
" />
    <glyph glyph-name="uni041B" unicode="&#x41b;" horiz-adv-x="1275" 
d="M434 1301q6 67 35 97q24 25 96 20l579 19q18 -2 30 -17q8 -11 6 -56q-3 -92 -8 -286q-5 -215 -9 -413q-10 -534 0 -557q16 -38 45 -42l-6 -50l-310 -5q-26 57 -9 58q25 3 36 36l22 1100l-302 -10q-9 -239 -28 -485q-26 -323 -136 -485q-123 -181 -364 -184
q-17 -9 -20 -32q-1 -12 -47 8l16 257l4 18l30 7l17 -36q17 -6 42 -2q22 3 44 14q27 14 51 40q62 66 101 203q48 172 59 444q3 90 26 339zM335 1309q-10 4 -15 -19q-13 -68 -12 -184l1 -47v-47q0 -53 -3 -93l-1 -14l-2 -16q-1 -19 -3 -33q-3 -40 -7 -72q-11 -89 -27 -156
q-43 -186 -132 -247q-4 6 -16 6q-27 0 -27 -28q0 -12 9 -21q9 -7 20 -7q21 0 22 28q82 55 127 204q16 56 29 129q5 28 10 63l4 29l4 28q7 52 10 119l1 60v61q2 156 16 238q2 14 -8 19z" />
    <glyph glyph-name="uni041C" unicode="&#x41c;" horiz-adv-x="2109" 
d="M42 21l35 -19l56 39q41 -22 103 -21q125 2 230 119q132 145 200 558q30 -118 86 -238q49 -106 103 -168q67 -79 136 -86q90 -9 168 55q61 52 112 148q58 110 84 223q-26 -141 0 -284q22 -125 87 -198q81 -91 223 -95q75 -2 145 26q56 22 108 62q58 46 90 93l59 8l15 43
l-197 200l-28 -39l12 -32q-23 -40 -57 -78q-31 -34 -61 -50q-37 -21 -72 -14q-48 10 -78 74q-29 65 -47 195q-27 205 -40 815q0 6 61 24l5 54l-338 -20l-13 -42l42 -8q-7 -211 -40 -425q-29 -186 -72 -295q-53 -136 -126 -143q-33 -2 -79 79q-44 77 -87 205
q-99 296 -108 552q-1 27 37 29l-3 53h-336l-5 -45l47 -50q-2 -221 -29 -463q-53 -484 -179 -588q-23 -19 -48 -27q-20 -6 -41 -5q-23 1 -38 9l-10 61l-48 7zM1886 879q-12 1 -25 1h-26l38 44q7 0 17 -1l21 -2q24 -3 46 -10q-17 -23 -37 -40q-8 5 -34 8zM1794 832l24 29h18
q29 2 49 0q9 -2 18 -3q-39 -26 -84 -28q-10 0 -25 2zM1804 926v-21q-1 -8 -1 -17v-8l-2 -4v-4v-1v-4l-24 -22q-8 31 -8 56q-1 49 20 86q14 -14 15 -61zM1856 992l-2 -21q0 -8 -1 -18q0 -6 -2 -13v-3v-1l-1 -10h1l-30 -38q1 20 0 39q0 25 -5 41q-4 23 -18 34v-2q18 28 52 49
q8 -18 6 -57zM1902 1072l-2 -2l2 -2l1 -4v-13q2 -23 -3 -54l-3 -11l-26 -36q0 10 2 20v22q1 47 -8 65l11 5zM1964 1013q-10 0 -24 -1q26 35 47 69q8 -21 8 -43q1 -13 -2 -28q-7 3 -29 3zM1943 994q12 2 21 2t18 -2q7 -2 7 -3l1 1q-6 -34 -24 -65q-9 4 -25 7l-27 5
q-12 1 -28 3l37 49q11 1 20 3zM1917 1077q24 8 49 11l-46 -71q2 21 2 34q0 14 -4 22zM1981 916q34 60 32 122q-2 39 -17 66l-3 5h-4h-3h-4h-4q-14 -2 -28 -5q-44 -8 -80 -26q-54 -23 -83 -61q-38 -49 -36 -116v-1q1 -33 12 -70q-18 -16 -29 -32q-9 -15 -6 -20q2 -6 14 2
q13 10 36 36q23 -5 41 -4q104 4 162 104z" />
    <glyph glyph-name="uni041D" unicode="&#x41d;" horiz-adv-x="1375" 
d="M66 1366l41 -12q-7 24 6 -77q2 -17 4 -28q2 -17 4 -32q4 -38 8 -72q11 -92 19 -177q22 -235 25 -436q3 -260 -26 -458q-4 -24 -42 -22l4 -43l342 -5q20 38 11 53q-7 12 -53 19q-3 425 -3 470q0 30 64 38q50 5 155 -1l45 -3l47 -3q61 -5 92 -7q105 -6 157 1q31 4 49 -245
q6 -91 8 -178q2 -83 -2 -95q-9 -31 -57 -23l1 -40l358 7l-5 46q-58 6 -58 19q-2 66 -6 322q-2 120 -3 200q-2 114 -5 206q-13 504 -38 580q-2 8 47 23l6 41l-346 -32q6 -37 15 -47q10 -10 49 -20q42 -235 -7 -514q-8 -45 -587 -13l-8 555q44 -1 50 20t-11 34
q-222 -12 -367 -18zM909 -280q6 23 25 32t40 0q21 -10 32 -33t6 -46q-6 -23 -25 -32q-20 -9 -41 1t-32 33t-5 45z" />
    <glyph glyph-name="uni041E" unicode="&#x41e;" horiz-adv-x="1295" 
d="M963 748q0 -236 -55 -327q-46 -77 -96 -103q-45 -24 -128 -24q-205 0 -290 144q-51 86 -69 131q-30 75 -30 158q0 276 70 376q44 63 141 103q86 35 167 35q90 0 146 -35q59 -38 106 -131q27 -53 34 -153q3 -38 4 -88v-44v-42zM879 1400q-108 33 -243 33q-257 0 -401 -154
q-167 -178 -167 -554q0 -114 33 -215q25 -74 85 -184q81 -150 229 -240q148 -89 299 -78q126 9 213 76q89 68 168 221q98 188 98 460q0 222 -9 284q-19 127 -98 222q-74 87 -207 129zM1260 1585q-7 6 -25 12q-9 2 -21 5q31 21 58 42q2 -18 -4 -37q-3 -10 -8 -22zM1196 1539
l-11 6l-11 6q-10 4 -23 9l44 29q9 -1 17 -3q11 -2 19 -4t15 -6q6 -3 5 -5l2 1q-15 -25 -38 -45q-7 6 -19 12zM1044 1498l29 16l7 -2l8 -2q25 -7 42 -14q7 -3 14 -7q-40 -10 -78 0q-9 3 -22 9zM1077 1570l-5 -16q-2 -7 -5 -14l-3 -6l-2 -4l-1 -2v-1l-1 -3l-26 -12q1 26 7 47
q12 39 39 63q9 -15 -3 -52zM1091 1631q23 17 57 24q2 -16 -10 -46l-6 -16q-2 -7 -6 -14q-2 -6 -4 -10l-1 -3l-1 -1l-3 -8h1q-17 -11 -36 -21q6 15 10 30q6 21 7 34q1 19 -7 32zM1114 1518q-10 3 -22 7l43 25l14 -6q10 -4 18 -7q20 -9 36 -20q-20 -14 -41 -23q-6 6 -26 16
q-10 4 -22 8zM1198 1660l-2 -1v-2v-4q-1 -5 -2 -11q-2 -6 -5 -14q-3 -6 -6 -13l-2 -6l-2 -4l-2 -3v-1l-5 -9l-32 -21q3 7 6 15q4 9 7 18q12 38 10 54l10 1q12 1 25 1zM1256 1655q-30 -24 -57 -43q6 15 10 26q3 12 3 19v3q22 -1 44 -5zM1285 1665l-5 1l-1 1h-1l-3 1h-4
q-12 3 -24 5q-40 5 -76 1q-50 -4 -85 -27q-44 -29 -60 -83q-7 -26 -8 -59q-19 -9 -32 -18q-11 -9 -11 -14q0 -6 12 -2q15 3 40 17q18 -9 35 -14q89 -25 163 40q44 38 58 88q9 32 3 59z" />
    <glyph glyph-name="uni041F" unicode="&#x41f;" horiz-adv-x="1323" 
d="M475 1160l-1 2q-2 4 -6 5q-2 1 -6 0h-1l-1 -1q-5 -4 -7 -10l-1 -5l-1 -4q0 -4 -1 -8l-1 -6l-1 -6h1q-26 -423 -20 -620q1 -31 2 -69l1 -32l1 -30q3 -74 3 -103q2 -45 1 -67q0 -12 -1 -18v-2q-7 -5 -9 -14q-2 -8 0 -15v-1h1q6 -19 17 -23q7 -2 14 0q24 8 18 33l-2 3
q-2 6 -6 11l-6 6v15l-1 11v12q-1 34 -2 61q-2 84 -3 116q-13 363 19 730h-3h3v4l1 7q0 9 -1 16zM116 707q7 238 19 459q11 206 17 222q10 31 445 39q136 3 322 3h197q88 1 96 -658q4 -330 -9 -660q27 2 40 8q15 7 17 -18q3 -24 -9 -39q-13 -17 -155 -42q-142 -26 -170 -16
q-10 3 -3 61q29 3 39 23q6 13 0 467q0 69 -2 179l-1 44v42q-1 49 -1 82q-3 179 -3 231q0 5 -4 39q-5 35 -6 39q-5 12 -54 8l-19 -2l-18 -2q-21 -2 -26 -2q-11 -1 -36 -1h-24h-26q-71 0 -121 -1q-160 -2 -206 -7q-11 -1 -21 -3q-11 -2 -14 -5q-5 -6 -9 -31l-21 -1072
q42 -7 50 -19q9 -14 -9 -49l-350 -12q-11 42 -3 53q8 10 49 10q20 315 29 630z" />
    <glyph glyph-name="uni0420" unicode="&#x420;" horiz-adv-x="1204" 
d="M824 850q-61 -37 -161 -47q-113 -12 -222 8q-15 103 -22 209q-5 92 1 148q7 69 32 75q43 12 117 12q91 0 165 -21q208 -58 179 -251q-12 -86 -89 -133zM199 1285l25 -1226l-64 -15l23 -41l326 -3l8 67l-71 22l-16 484q351 -33 547 127q92 75 131 184q39 111 18 242
q-35 222 -338 282q-110 22 -260 23q-56 0 -124 -2q-26 -1 -57 -2l-26 -2l-26 -1q-13 -1 -28 -1h-24q-26 0 -34 -1q-26 -2 -30 -22q-12 -65 20 -115zM83 1284l2 3q2 4 6 5q3 1 7 1v-1h1l1 -1q6 -3 9 -10l2 -6l1 -4q1 -5 2 -9l1 -6l2 -7h-1q20 -160 22 -389q1 -40 1 -93v-45
v-44q1 -107 2 -166q1 -35 2 -76l1 -35l1 -33q2 -81 3 -112q2 -50 4 -74q1 -13 2 -19l1 -3q8 -5 11 -14q2 -9 0 -17v-1q-6 -21 -18 -25q-9 -2 -16 0q-29 7 -23 35l1 4q2 6 6 11q3 4 7 7v17q-1 11 -1 25q-1 34 -2 66q-3 91 -4 126q-1 52 -2 197q-1 72 -2 115q0 66 -2 120
q-6 295 -26 427h4h-4v4l-1 3v4q-2 11 0 18v2z" />
    <glyph glyph-name="uni0421" unicode="&#x421;" horiz-adv-x="1334" 
d="M943 1132q-30 49 -87 72q-71 30 -181 19q-115 -11 -188 -99q-67 -80 -91 -208q-23 -121 -3 -254q19 -133 74 -236q55 -102 136 -152q70 -43 151 -41q71 1 131 35q57 33 76 80q8 19 6 28q-2 7 -10 7q-9 0 -21 -6l-9 44l329 26q9 -12 13 -25q8 -28 -16 -38q-6 -3 -17 -21
q-10 -17 -10 -20q1 -5 -2 -21q-4 -20 -13 -43q-24 -65 -70 -120q-141 -170 -420 -168q-183 1 -325 119q-130 109 -199 294q-68 180 -59 380q9 207 98 377q72 138 212 207q124 61 275 59q140 -1 251 -54q113 -53 142 -133q45 -73 69 -173q4 -20 16 -28q9 -7 22 -6q16 0 29 8
v-66l-327 -66l8 61q11 -3 22 2q20 9 17 45q6 60 -29 115zM1181 146q-9 -11 -9 -26q0 -8 3 -16q-86 -118 -263 -155q-150 -32 -314 0q-175 34 -309 191q-116 135 -175 325q-69 225 -27 478q49 294 232 407q6 4 7 10q0 5 -2 10q-3 5 -8 6q-6 2 -11 -1q-112 -70 -184 -241
q-76 -179 -74 -388q1 -204 75 -388q72 -178 205 -296q142 -126 322 -150q157 -21 298 16q164 44 248 156q5 -2 8 -2q13 0 22 11q10 11 10 27q0 15 -10 26q-9 12 -22 12t-22 -12z" />
    <glyph glyph-name="uni0422" unicode="&#x422;" horiz-adv-x="1291" 
d="M64 1132q0 -7 29 0l11 36q80 12 165 17q170 9 198 -24q32 -38 35 -570q2 -265 -2 -523l-44 -22l11 -40l329 -6q9 50 -7 65q-9 9 -51 0q-36 1103 -8 1119q102 55 427 12l14 -38l47 -5v272l-43 -8v-21q-731 16 -1043 0q-8 0 -14 15l-2 7l-2 6q-3 6 -5 8q-8 8 -37 -4
q-4 -193 -8 -296zM404 1066l1 2q2 3 5 4t6 0h1l1 -1q5 -2 7 -8l1 -4l1 -4l1 -3l1 -4l1 -4l1 -6h-1q15 -126 15 -306v-73v-35l-1 -35v-131q1 -27 1 -59l1 -28v-26q1 -63 2 -88q1 -40 2 -58q1 -10 2 -15v-2q7 -4 9 -12q2 -6 0 -13v-1q-5 -16 -15 -20q-7 -1 -13 0q-24 6 -18 28
v3q2 5 6 9q2 3 6 6q-1 5 -1 12v20q-1 28 -1 52q-2 72 -2 100q-1 40 0 154v91q0 52 -1 94q-2 232 -17 336h2h-2v1l-1 2l-1 6q0 9 1 14v2z" />
    <glyph glyph-name="uni0423" unicode="&#x423;" horiz-adv-x="1164" 
d="M82 866q6 -100 70 -190q63 -88 146 -122q5 3 12 3h5l4 -1q6 -1 11 -8t3 -15q-3 -8 -13 -12t-20 -1q-6 1 -10 6q-6 6 -4 12l-1 1h-1q-196 99 -219 327l-1 14l-2 15q-1 19 -1 32q0 37 13 43q4 2 6 -13q1 -5 1 -11q1 -5 0 -7q-1 -25 1 -73zM853 1418q-18 11 -3 -21l28 -4
l5 -619q-114 -20 -237 -15q-107 5 -179 33q-88 34 -114 103q-57 151 -43 462l28 10q1 29 -8 30q-3 0 -44 -3l-10 -1l-10 -1l-22 -2q-27 -1 -49 -3q-130 -8 -146 -1l-3 -19l50 -13q27 -68 18 -186q-12 -155 18 -290q34 -159 116 -224q171 -135 599 -104l33 2l2 -30l3 -28
q2 -33 3 -53q1 -58 -17 -107q-30 -86 -94 -126q-54 -34 -125 -30q-62 4 -116 35q-52 29 -69 66q-11 28 4 28q8 0 18 -5l8 35l-276 -13q-7 -28 -1 -27q6 2 14 -4q8 -5 7 -8q0 -4 3 -17q3 -17 11 -35q21 -55 60 -100q120 -140 353 -137q265 4 364 198q73 144 69 454
q-1 0 -22 736q4 16 27 24q23 9 1 21q-237 -23 -254 -11z" />
    <glyph glyph-name="uni0424" unicode="&#x424;" horiz-adv-x="1577" 
d="M1210 667q-50 -41 -138 -57q-99 -17 -198 -1l-5 451q9 27 56 48q55 26 127 19q101 -9 155 -66q75 -79 70 -252q-3 -90 -67 -142zM420 633q-100 46 -140 124q-52 99 8 229q20 45 85 84q57 35 106 42q84 13 155 -15l-5 -507q-103 -6 -209 43zM879 1367l30 3q7 43 -6 53
q-29 22 -136 -4l-41 -11q-27 -7 -41 -10q-44 -11 -64 -10l-4 -45l26 -2v-32q-159 20 -311 -33q-134 -47 -204 -147q-88 -124 -72 -325q23 -275 298 -363q137 -44 270 -33l4 -288l-44 -61l-2 -57l328 4l2 118l-52 9l4 275q162 -36 325 1q326 74 329 438q3 333 -245 441
q-94 41 -209 41q-98 1 -174 -27q-12 -5 -11 65z" />
    <glyph glyph-name="uni0425" unicode="&#x425;" horiz-adv-x="1315" 
d="M1181 270q-86 10 -167 71q-163 120 -143 372l1 13l2 13q1 17 2 30q4 35 8 65q13 79 38 139q69 166 243 203q18 -21 31 -24q21 -6 50 24l-38 230q-28 19 -35 -3q-2 -8 -11 -17q-97 -1 -204 -51q-93 -45 -157 -120q-79 -94 -107 -232q-6 52 -27 103q-28 65 -77 118
q-130 139 -388 174l-6 39l-40 14q-7 -138 -61 -283q-4 -9 11 -20t30 -10q16 2 31 52q89 -1 177 -51q177 -99 173 -340q-1 -61 -18 -135q-21 -93 -61 -164q-108 -196 -313 -177q-17 21 -30 25q-11 3 -37 -21l40 -273l60 -3l14 47q115 4 236 58q105 48 171 126q82 98 96 237
q40 -208 168 -320q116 -102 326 -140q14 -32 21 -36q16 -11 66 19q-10 21 -16 64q-13 86 10 197q2 9 -19 12q-8 1 -18 1q-9 0 -17 -1q-16 -1 -15 -25zM144 889q4 18 20 26q15 7 33 -1q17 -8 26 -26q9 -19 4 -37q-5 -19 -20 -26q-16 -8 -33 0t-26 27t-4 37z" />
    <glyph glyph-name="uni0426" unicode="&#x426;" horiz-adv-x="1400" 
d="M81 1364l36 -10q-28 -1302 -26 -1320q1 -18 969 6l13 -113l-46 -33l9 -53l311 7q26 63 13 78q-10 13 -66 2q20 72 14 149q-11 156 -136 190q-126 33 -133 22q-3 -6 19 -18l-2 1100q49 2 59 21q9 18 -27 38q-160 -40 -292 -18q-21 4 15 -44l24 -5l-12 -1071l-501 -25
l-6 1069l54 3q21 62 2 59q-90 -15 -281 1z" />
    <glyph glyph-name="uni0427" unicode="&#x427;" horiz-adv-x="1367" 
d="M48 1405l52 -13q28 -76 18 -206q-13 -196 7 -317q29 -175 133 -250q140 -100 597 -96q-4 -118 26 -245q26 -111 76 -183q63 -90 159 -113q10 -22 9 -34h34q92 118 136 192q7 11 -9 14q-15 2 -24 -11q-3 -3 -13 -4t-24 3q-36 10 -66 45q-90 108 -73 384l40 816q5 18 29 27
t0 23q-247 -26 -265 -13q-19 13 -3 -22l30 -5l-52 -646q-104 -22 -219 -16q-100 5 -167 36q-84 38 -111 114q-59 166 -45 510l30 11q1 32 -9 32q-3 1 -46 -3l-10 -1h-11l-23 -2q-28 -2 -50 -4q-137 -9 -154 -1zM781 322q6 -106 71 -203q63 -94 147 -129q5 3 12 3l5 -1h4
q6 -2 11 -9q5 -8 3 -16q-2 -9 -13 -13q-10 -4 -20 -1q-6 1 -11 7t-3 13h-1l-1 1q-198 105 -221 348l-1 15l-2 16q-1 20 -1 34q0 39 13 45q4 2 6 -13q1 -5 1 -11v-8q-1 -27 1 -78z" />
    <glyph glyph-name="uni0428" unicode="&#x428;" horiz-adv-x="1867" 
d="M412 1415l-2 -51l-50 14l12 -1089l425 10l37 969l-35 90l265 -22l-28 -76l-11 -975l400 17l80 1053l-57 2l27 50l330 1l-2 -38l-57 -17l-71 -1321q-1025 43 -1547 -8l-36 1332l-49 21l14 38h355z" />
    <glyph glyph-name="uni0429" unicode="&#x429;" horiz-adv-x="2094" 
d="M1958 -120q25 73 25 155q-1 71 -27 121q-33 61 -104 85q-13 4 -195 29l13 1099l56 17l2 39l-325 -1l-27 -51l56 -2l-24 -1077l-450 -18l13 1029l27 77l-261 22l34 -92l-37 -1021l-419 -11l45 1113l50 -15l2 52h-350l-14 -38l49 -22l-23 -1361q515 53 1365 18l-8 -4
q164 -7 290 -12l6 -118l-49 -32l6 -56l324 -12q31 64 19 81q-10 14 -69 6z" />
    <glyph glyph-name="uni042A" unicode="&#x42a;" horiz-adv-x="1240" 
d="M479 287q-9 52 -7 139q2 99 14 197q103 30 213 24q221 -12 261 -189q45 -201 -163 -245q-70 -14 -164 -9q-34 2 -68 6q-25 3 -46 7q-28 6 -40 70zM552 -19q142 -3 256 14q311 48 345 236q54 304 -114 459q-173 160 -538 119l-29 509q-3 45 -14 55q-5 5 -20 5l-328 3
q4 7 3 15q0 6 -6 9q-7 4 -21 3q-9 -1 -5 -36l-9 -135q-8 -23 16 -28q8 -1 19 23l130 -12l-9 -1085q3 -79 18 -98q15 -18 29 -24q17 -8 67 -15q99 -14 210 -17zM1166 -138q-6 6 -25 12q-9 3 -21 5q31 21 59 43q1 -18 -4 -38q-3 -10 -9 -22zM1102 -184l-11 6l-12 5
q-10 5 -22 10l44 29q9 -1 17 -3q11 -2 19 -4t15 -6q6 -3 6 -5l1 1q-15 -26 -38 -46q-7 6 -19 13zM949 -226l29 16l7 -2l8 -2q25 -7 42 -14q7 -3 14 -7q-39 -10 -78 1q-10 2 -22 8zM982 -153l-5 -17l-6 -14l-2 -5l-2 -4l-1 -3v-1l-2 -2l-26 -13q2 27 8 48q11 39 39 64
q9 -16 -3 -53zM996 -92q24 17 57 24q2 -15 -9 -46l-6 -16q-3 -7 -6 -15q-4 -8 -6 -13l-4 -8l1 -1q-16 -10 -36 -21q6 16 10 31q6 21 7 34q1 20 -7 32zM1019 -205q-10 3 -22 6l43 26q8 -3 15 -6l18 -8q19 -8 36 -20q-20 -14 -41 -22q-6 6 -27 15q-10 4 -22 9zM1104 -62v-1
l-2 -1v-5q-1 -6 -2 -11q-2 -6 -5 -14l-6 -14l-2 -5l-2 -5l-2 -3v-1l-5 -9l-33 -22q4 8 7 16q4 9 7 18q12 38 10 54l10 2q12 1 25 1zM1162 -67q-30 -24 -57 -44q6 15 10 27q3 11 3 19v3q22 -1 44 -5zM1191 -57l-4 1h-1l-2 1h-3l-4 1q-11 3 -24 4q-40 6 -76 2q-50 -5 -86 -28
q-44 -29 -60 -83v-1q-8 -26 -9 -59q-19 -8 -32 -18q-11 -9 -11 -14q0 -6 12 -2q15 3 41 17q17 -9 34 -14q90 -25 165 40v1q44 38 59 89q9 31 2 58z" />
    <glyph glyph-name="uni042B" unicode="&#x42b;" horiz-adv-x="1482" 
d="M334 425q2 92 14 182q83 18 171 6q77 -10 125 -45q61 -43 73 -123q28 -179 -120 -217q-52 -13 -122 -9q-25 2 -53 6l-22 4q-8 1 -18 3q-51 9 -48 193zM413 2q126 -5 224 12q260 46 286 236q39 288 -113 434q-152 144 -475 130l-32 512l61 17l-8 62l-289 -27l-19 -37
l56 -16l-4 -1186q3 -61 19 -80q14 -18 29 -24q18 -8 69 -15q102 -15 196 -18zM1024 1362l77 -33q-32 -804 1 -1170q2 -18 -23 -23l-9 -2l-10 -2q-10 -3 -14 -10q-19 -32 -5 -91q71 -2 152 -9q11 -1 29 -2l14 -2l13 -1q28 -2 44 -3q42 -2 61 4q22 7 31 29q17 36 2 58
q-8 10 -19 13l-31 -3q-52 721 -8 1189q1 12 14 22q5 4 13 8l14 8q32 18 17 37q-25 32 -353 18zM1335 1582q4 18 20 26q15 7 32 -1q18 -8 27 -27q8 -18 4 -37q-5 -18 -20 -25q-16 -8 -33 0t-26 27q-9 18 -4 37z" />
    <glyph glyph-name="uni042C" unicode="&#x42c;" horiz-adv-x="1109" 
d="M336 430q2 97 14 191q99 28 205 23q94 -5 155 -42q76 -47 98 -141q44 -194 -157 -236q-68 -14 -159 -9q-33 1 -66 6q-24 3 -44 6q-50 10 -46 202zM428 0q142 -3 256 14q310 48 344 235q54 304 -114 459q-173 159 -537 118l-29 508l60 18l-8 61l-321 -28l-20 -37l55 -16
l-9 -1178q3 -79 18 -98q14 -18 29 -24q17 -8 67 -15q99 -14 209 -17z" />
    <glyph glyph-name="uni042D" unicode="&#x42d;" horiz-adv-x="1311" 
d="M934 1366q-144 73 -312 68q-169 -5 -298 -89q-140 -91 -191 -251q-11 -35 -28 -35q-9 1 -16 8l1 -67l285 -52l-8 49q-5 -3 -9 1t-5 14q-2 12 0 32q-6 45 30 88q71 87 280 83q385 -7 394 -366q-44 -39 -164 -41q-44 -1 -105 3q-23 2 -53 5l-25 2l-24 2q-7 1 -17 16l-3 5
l-3 5q-4 5 -8 6q-24 3 -25 -22l-5 -171q-5 -9 3 -22q8 -14 25 -18q4 0 12 12l6 8q4 3 6 3q53 -11 138 -17l31 -2l30 -2q33 -3 54 -7q53 -9 74 -34q24 -28 13 -85q-26 -129 -124 -198q-84 -58 -205 -65q-107 -7 -201 26q-92 32 -112 80q-15 34 5 35q9 0 22 -7l9 45l-328 -1
q-9 -9 -13 -19t-2 -17q4 -9 18 -15q6 -3 17 -14t10 -14q-1 -5 4 -20q5 -18 15 -40q28 -60 79 -111q154 -156 444 -154q231 1 382 128q133 112 190 306q51 175 31 374q-19 190 -94 330q-76 144 -230 222z" />
    <glyph glyph-name="uni042E" unicode="&#x42e;" horiz-adv-x="2050" 
d="M1819 1131q101 -88 122 -344q20 -236 -34 -416q-95 -317 -421 -399q-15 -4 -21 -23t9 -16q178 25 292 134q95 91 162 260q77 194 55 456q-23 274 -140 380q6 32 -16 38q-10 3 -20 -5q-11 -8 -15 -23t0 -28q4 -12 14 -15q6 -2 13 1zM1455 260q-85 -36 -164 -37
q-90 -2 -146 32q-59 36 -107 126q-28 52 -37 150q-4 36 -5 86l-1 43l-1 41q-4 232 49 322q45 76 94 103q44 24 127 25q203 4 290 -136q52 -83 71 -127q30 -74 32 -155q5 -270 -63 -369q-43 -64 -139 -104zM1849 949q-25 73 -86 180q-84 145 -232 230q-149 86 -298 72
q-125 -11 -210 -78q-88 -69 -164 -220q-70 -139 -86 -343q-150 -12 -413 -5l-23 559q39 0 45 20q5 21 -9 33q-195 -18 -323 -28l14 -32l34 -9q1 -7 7 -56q3 -25 6 -45q4 -29 7 -57q19 -160 30 -310q33 -472 -19 -789q-4 -24 -37 -23l2 -42l300 5q19 38 12 52q-6 12 -47 17
q11 425 12 469q1 43 140 43q39 0 129 -4q45 -2 67 -3q37 -1 64 -1q3 -145 20 -218q24 -100 94 -179q74 -85 207 -123q109 -31 243 -29q254 4 395 159q162 177 156 546q-2 111 -37 209z" />
    <glyph glyph-name="uni042F" unicode="&#x42f;" horiz-adv-x="1474" 
d="M220 1040q-10 -107 44 -214q52 -103 135 -152q6 2 13 1q3 0 6 -1l2 -1h2q6 -3 10 -11t1 -17q-4 -8 -13 -12q-10 -3 -19 1q-6 2 -13 10q-7 9 -4 15l-1 1h-1q-192 137 -180 383v7l1 7q0 10 1 17q1 20 3 34q6 39 21 43q5 1 5 -14q0 -5 -1 -12q-1 -5 -1 -7q-6 -27 -11 -78z
M1019 837q-97 -21 -182 -21q-118 1 -194 45q-95 55 -117 174q-18 95 49 153q56 48 167 68q89 16 199 11q91 -4 147 -18q37 -9 28 -201q-4 -96 -16 -190q-32 -11 -81 -21zM1356 53l-16 1206q7 41 1 84q-12 84 -82 87q-30 1 -69 3l-35 2l-36 2q-96 6 -147 8q-175 6 -289 -12
q-149 -23 -239 -91q-105 -80 -138 -226q-37 -161 26 -282q74 -142 279 -218q-57 -219 -101 -307q-54 -112 -129 -121q-43 -5 -50 21q-4 12 1 26q3 4 3 10t-4 12q-5 9 -15 18q-9 7 -52 -13q-38 -19 -88 -53q-49 -33 -82 -63q-36 -32 -34 -45q4 -22 25 -24q11 -1 21 2
q34 -29 90 -57q49 -24 100 -38q63 -16 125 -14q116 3 195 74q64 59 110 170q18 43 35 100q7 23 15 52l7 25l7 25q35 126 59 175q14 1 51 3h8h8l17 1q20 1 35 2q90 5 123 9l12 -522l-51 -47v-43l360 2l-5 36z" />
    <glyph glyph-name="uni0430" unicode="&#x430;" 
d="M565 305q-1 -31 -18 -59q-17 -26 -45 -41q-118 -60 -189 -44q-53 13 -81 56q-36 57 -12 149q18 71 87 95q25 9 57 12q12 1 26 1h12l10 1q9 0 19 -2q59 -10 97 -58q38 -47 37 -107v-3zM985 51q9 11 11 14q-19 22 -29 34q-9 9 -23 34q-11 19 -21 38q-11 -8 -27 -9v-24
q-11 -9 -27 -17q-34 -15 -63 -5q-62 20 -75 68q-10 39 2 161q3 29 8 62q3 21 10 60q13 79 17 119q15 141 -24 278q-26 92 -121 138q-76 37 -163 33q-33 -2 -72 -11q-30 -6 -64 -18q-12 -4 -26 -9q-5 -2 -12 -4l-5 -2l-5 -2q-21 -8 -25 -8q-14 0 -16 19l-7 -1q-6 -8 -15 -13
q25 -41 37 -100q1 -10 3 -23l2 -11l1 -11q4 -25 7 -36q2 1 7 3t9 3q13 4 16 3l-2 13q11 11 31 25q41 26 89 34q73 12 124 -11q49 -23 63 -70q12 -38 12 -85q-1 -38 -8 -80q-9 -49 -22 -83q-27 18 -68 36q-83 34 -153 28q-149 -12 -241 -141q-41 -58 -52 -150
q-13 -110 29 -207q41 -94 160 -117q45 -9 97 -7q43 2 80 11q85 22 167 97q6 -17 22 -39q33 -43 85 -65q48 -21 126 -2q28 6 57 17q11 4 23 8l8 4q3 1 7 3q20 8 43 0l3 3z" />
    <glyph glyph-name="uni0431" unicode="&#x431;" horiz-adv-x="875" 
d="M466 465q101 -9 152 -43q64 -42 46 -121q-28 -129 -231 -135q-101 -3 -197 19q-2 101 -2 136q0 36 -3 135q121 19 235 9zM547 1057q-9 -2 -16 -7l-6 -25q-20 -7 -83 -14q-56 -6 -132 -10q-95 -5 -215 -6q-17 0 -29 -11q-8 -8 -9 -12q-1 -6 0 -30q4 -59 7 -196
q1 -89 4 -267q4 -366 8 -423q1 -10 31 -21q31 -12 80 -20q119 -22 244 -12q155 12 252 69q119 71 136 203q21 162 -63 251q-67 71 -198 92q-94 16 -214 4q-20 -2 -41 -4q-16 -2 -33 -5l-33 -5q-19 0 -25 250q55 -5 125 -4q140 3 213 37q5 2 13 -12l3 -6l3 -5q4 -5 7 -5
q12 -3 38 28q-29 134 -42 157q-8 14 -25 9z" />
    <glyph glyph-name="uni0432" unicode="&#x432;" horiz-adv-x="922" 
d="M228 477q24 -4 109 9l17 2l18 3q20 2 37 4q42 5 74 5q84 0 126 -31q52 -38 46 -126q-7 -112 -207 -152q-100 -20 -199 -17zM201 896q9 -2 65 3q29 2 48 3q29 1 51 0q129 -8 108 -103q-17 -76 -138 -112q-60 -18 -117 -20zM625 772q16 75 -24 138q-47 73 -156 104
q-128 36 -326 7q-15 -2 -31 -19q-9 -11 -11 -17q-3 -9 -4 -39q-3 -74 -4 -153q-2 -108 -1 -213q2 -283 22 -502q4 -39 95 -60q91 -20 210 -9q133 12 236 60q120 56 170 149q38 70 41 146q4 75 -27 139q-32 67 -95 108q-69 44 -164 51q54 40 69 110z" />
    <glyph glyph-name="uni0433" unicode="&#x433;" horiz-adv-x="811" 
d="M683 1022l-9 17l39 9q11 -37 25 -75q30 -67 51 -73l-30 -32l-12 14q-260 -50 -454 -34q28 -161 17 -466q-11 -284 -32 -317l46 -19l-5 -34l-241 -12l-10 34l19 26q14 107 25 248q22 283 7 451q-1 18 -2 59q0 44 1 86q3 101 16 105q412 16 549 13z" />
    <glyph glyph-name="uni0434" unicode="&#x434;" horiz-adv-x="1180" 
d="M703 315l-265 4l-19 549q-2 28 13 46q8 9 66 12l202 7q26 -4 32 -10q19 -17 11 -46zM1054 -27q54 236 68 291q5 19 -34 30q-31 8 -88 12q-66 3 -133 0q37 471 39 673q0 50 -11 72l-1 2l-2 3q-2 4 -6 7q-10 9 -30 9q-93 1 -274 -3q-200 -5 -278 -12q-23 -2 -31 -7
q-4 -2 -6 -5l-2 -4l-3 -3q-16 -21 -11 -46l40 -682l-225 -26q-13 -12 -17 -19q-5 -8 -5 -13q1 -3 3 -10l1 -4l2 -4q1 -6 3 -11q6 -20 19 -53l10 -26q6 -16 11 -27q22 -65 17 -122l-21 -9v-42l256 -4v55l-27 4q-8 -10 -19 0q-23 20 -42 118q-10 46 660 9l-30 -135l-42 -9
l14 -46h238l5 37h-48z" />
    <glyph glyph-name="uni0435" unicode="&#x435;" horiz-adv-x="979" 
d="M280 713q34 66 84 105q62 48 145 50q160 4 219 -76q24 -32 39 -86q6 -21 13 -52l5 -27l6 -27q-49 -3 -559 -39q9 75 48 152zM315 954q-166 -93 -222 -288q-56 -198 14 -379q34 -87 94 -152q62 -67 144 -100q78 -32 172 -35q76 -2 159 14q95 18 163 48l41 -30l22 36
q-72 94 -105 172q0 8 -42 2l5 -38q-24 -14 -61 -28q-33 -12 -66 -20q-40 -9 -79 -10q-97 -4 -171 45q-92 60 -140 198l648 42q9 0 18 8q8 7 13 20q5 15 5 38q0 5 2 39q0 16 1 28v33q0 90 -15 160q-45 217 -223 250q-213 40 -377 -53z" />
    <glyph glyph-name="uni0436" unicode="&#x436;" horiz-adv-x="1388" 
d="M1293 197q-79 -8 -140 31q-51 33 -86 97q-29 52 -44 119q-13 53 -13 97q-2 96 38 163q31 52 87 84q64 36 128 37q3 -10 7 -19q9 -18 16 -19q10 -1 21 7t9 15q-40 104 -45 204l-29 -10l-4 -28q-179 -37 -273 -142q-86 -95 -98 -239q-15 1 -49 -6q-17 -3 -27 -5
q-14 -2 -27 -2q0 105 2 182q2 102 9 171q0 9 10 16q3 3 9 6l5 3l5 2q11 6 14 11q5 7 -2 15q-18 24 -250 13l-7 -25l55 -23q-5 -181 -8 -372q-8 0 -27 5q-22 7 -51 21q-13 143 -96 233q-92 99 -271 136l-4 28l-29 10q-1 -25 -8 -63q-12 -76 -37 -141q-2 -7 9 -15t21 -7
q11 1 23 38q16 -1 40 -5q21 -5 41 -11q25 -9 47 -21q56 -32 87 -84q40 -67 38 -163q0 -44 -13 -97q-15 -67 -44 -119q-35 -64 -86 -97q-61 -39 -140 -31q-13 15 -22 18q-9 2 -27 -15l28 -198l44 -2l10 34q18 1 46 7q56 13 107 39q71 35 122 91q63 70 90 168q12 47 20 93
q33 9 50 7q3 0 7 -1h3l3 -1q9 -1 17 0q1 -201 11 -311q1 -13 -16 -16l-4 -1l-3 -1q-4 0 -7 -1q-7 -2 -10 -7q-13 -23 -4 -64q50 -2 108 -7q8 0 20 -1l10 -1l9 -1q20 -2 32 -2q29 -2 43 3q15 5 22 20q6 14 6 25q-1 9 -5 16q-6 7 -14 9l-21 -2q-11 153 -16 345q58 0 109 -2
q8 -49 21 -99q27 -98 90 -168q51 -56 122 -91q81 -41 153 -46l10 -34l43 2l29 198q-18 17 -27 15q-9 -3 -22 -18zM1143 1183q3 13 14 18t23 0q12 -6 18 -19t3 -25q-4 -13 -14 -18q-11 -5 -23 0q-12 6 -18 18q-6 13 -3 26z" />
    <glyph glyph-name="uni0437" unicode="&#x437;" horiz-adv-x="856" 
d="M340 438q-5 -1 -5 2q-24 73 -41 109q-2 5 32 8q122 36 187 96q56 53 61 114q4 55 -35 94q-39 40 -100 42q-92 2 -146 -77q-28 -39 -37 -79l20 -6l2 -19q-121 -3 -162 15l9 19h18q1 15 6 38q11 46 33 87q31 56 81 93q62 46 150 59q61 9 123 -9q63 -18 110 -58
q51 -44 71 -104q22 -66 4 -143q-15 -62 -84 -134q-3 -3 -9 -7l-4 -3q-3 -2 -4 -3q-9 -6 -7 -14q1 -1 1 -3v-1q0 -1 1 -1l1 1h2q1 0 4 -1q6 -1 15 -4q30 -11 62 -31q72 -47 102 -121q40 -98 -1 -231q-6 -18 -21 -42q-31 -50 -78 -87q-65 -52 -151 -72q-109 -24 -246 3
q-94 18 -157 85q-20 22 -38 49q-3 5 -7 10q-1 2 -3 5l-1 2l-1 2l-8 12l-31 -2l-8 16q162 82 185 96q3 2 5 -1q2 -2 3 -6q2 -5 3 -11l-9 -19q5 -13 16 -30q11 -14 24 -25q16 -15 35 -23q39 -17 84 -23q51 -8 96 1q52 9 88 38q41 33 58 89q26 83 -5 139q-26 46 -87 70
q-50 19 -109 20q-52 0 -69 -11q-19 -12 -28 -13z" />
    <glyph glyph-name="uni0438" unicode="&#x438;" horiz-adv-x="1048" 
d="M244 951q-14 -156 -19 -324q-5 -147 2 -243q9 -119 35 -152q37 -73 123 -75q80 -5 146 71q65 75 86 171q15 75 36 219q20 148 25 313l-35 22v37q76 -9 100 -4q24 4 107 2l-2 -24l-22 -11q-15 -586 20 -701q18 -62 60 -51q21 5 38 22l2 37l39 7l5 -216l8 -57l-41 3
q-1 10 -8 19q-13 19 -40 17q-35 -4 -79 13q-48 18 -65 44q-31 48 -39 124q-17 -36 -46 -79q-57 -84 -119 -112q-17 -8 -39 -16q-28 -10 -57 -16q-76 -18 -141 -13q-186 16 -230 215q-67 308 11 740l-37 18l4 37q68 -9 98 -2q31 6 103 8l2 -34z" />
    <glyph glyph-name="uni0439" unicode="&#x439;" horiz-adv-x="997" 
d="M56 1000q14 0 26 -11q22 -21 4 -128q-25 -150 -24 -473q0 -153 9 -250q11 -112 31 -128q48 -36 335 274q143 155 277 317q11 -139 21 -277q18 -278 8 -278q-12 1 -24 -13l15 -47l232 36q3 6 4 13q1 6 0 11q0 5 -3 7q-7 6 -40 8q-10 185 -20 393q-8 183 -12 311
q-4 160 -1 225q-86 0 -104 -9q-23 -9 -79 -85q-21 -28 -58 -80q-7 -9 -17 -23l-8 -12l-9 -12l-35 -50q-94 -131 -166 -220q-102 -127 -194 -214l21 677q9 4 19 7q9 2 16 3q8 0 13 -3q4 -3 8 3t5 15q2 9 0 16q-2 8 -8 8q-8 0 -117 11l-21 2q-12 1 -19 2q-22 2 -36 4
q-35 3 -38 3zM414 1144q0 -24 4 -50l-2 -40h21l6 17q61 1 109 33q48 31 99 99l7 10l25 -13l23 35q-55 42 -64 72q-8 30 -22 37l-16 -14l8 -17q-76 -92 -147 -115q-27 -8 -34 -6q-3 1 -5 9l-1 3l-1 3q-1 3 -3 4q-12 4 -27 -14q20 -30 20 -53z" />
    <glyph glyph-name="uni043A" unicode="&#x43a;" horiz-adv-x="1001" 
d="M52 989q8 -6 16 -14q15 -15 14 -28q-5 -87 16 -526q11 -220 23 -423q-6 0 -12 -2q-5 -1 -8 -4q-3 -4 -3 -9q1 -22 9 -26q186 21 238 22q16 0 15 20q-1 7 -4 14t-5 8q-9 6 -43 6l-28 396q14 3 33 10q38 15 63 36q53 0 104 -36q52 -38 71 -93q2 -4 4 -11l2 -6l3 -6
q5 -16 9 -27q12 -34 24 -61q32 -77 69 -128q104 -144 247 -87q6 -6 14 -10q6 -3 11 -5q6 -1 18 4q12 6 10 11q-8 18 -16 52q-6 27 -12 62q-2 14 -5 29q-1 11 -3 22q0 4 -1 8q0 3 -1 5v2q-20 -4 -24 -9q-3 -3 -2 -17q-5 -3 -15 -5q-8 -2 -16 -2q-11 0 -21 2q-61 13 -101 104
q-9 21 -22 54l-5 13l-5 12q-7 15 -11 26q-24 58 -45 92q-27 45 -62 73q-39 33 -94 49q96 72 129 121q28 41 64 111q7 18 22 38q13 17 30 28q22 14 47 17l9 -11q7 2 14 6q6 4 10 7q4 4 3 7q-2 7 -10 23q-2 2 -5 7l-2 4l-2 4q-6 10 -10 18q-26 51 -32 97q-1 6 -24 -2l-5 -23
q-33 -6 -74 -32q-80 -51 -117 -147q-37 -98 -168 -201q-48 -35 -77 -53q-12 -7 -19 -10q-6 -2 -5 1q5 17 -34 353q3 8 8 15q11 14 23 13q13 -1 8 16q-3 8 -7 17q-129 -23 -154 -22t-64 17z" />
    <glyph glyph-name="uni043B" unicode="&#x43b;" horiz-adv-x="966" 
d="M325 931q4 49 26 71q11 12 43 14q15 2 29 1l435 13q13 -1 22 -12q6 -8 5 -41q-3 -68 -6 -211q-4 -158 -7 -304q-7 -394 0 -410q7 -18 21 -26q7 -4 13 -5l-5 -37l-232 -4q-5 11 -9 21q-6 21 2 22q12 1 20 14q5 7 7 13l16 810l-227 -8q-6 -176 -21 -357q-19 -238 -102 -357
q-92 -134 -273 -135q-12 -8 -15 -24q0 -3 -6 -3q-4 0 -12 3q-8 2 -17 6l12 189l3 13l22 5l13 -26q13 -5 32 -2q16 2 33 11q20 10 38 29q46 49 76 150q36 126 44 327q3 66 20 250zM408 1187q-4 4 -15 8q-6 1 -13 2q19 13 36 27q0 -12 -3 -23q-2 -6 -5 -14zM369 1159l-6 4
l-7 3l-14 6q13 9 27 18l10 -2q6 -1 11 -3q5 -1 9 -3t4 -3h1q-9 -15 -23 -27q-4 3 -12 7zM277 1134l17 10q2 -1 4 -1q3 -1 5 -2q15 -4 26 -8l8 -4q-24 -7 -47 0q-6 2 -13 5zM297 1178q-1 -5 -3 -10l-4 -8q0 -2 -1 -4q-1 -1 -1 -2l-1 -1v-1l-1 -2q-6 -3 -16 -7q1 16 5 29
q7 23 23 38q6 -9 -1 -32zM305 1215q14 11 35 15q1 -10 -6 -28l-4 -10q-1 -4 -3 -9t-4 -8l-2 -5h1q-11 -6 -22 -13q4 10 6 19q4 12 4 21q1 11 -4 19zM319 1147q-6 2 -13 4q13 7 26 15q4 -2 9 -3q5 -3 10 -5q12 -5 22 -12q-11 -9 -25 -14q-3 4 -16 10q-5 2 -13 5zM370 1233
l-1 -1v-1v-2q0 -3 -1 -7q-1 -3 -3 -8l-4 -8q0 -2 -1 -4q-1 -1 -1 -2l-1 -1v-1v-1h-1l-2 -5q-9 -7 -20 -13q2 4 4 9q2 6 4 11q8 23 6 33h6q7 1 15 1zM406 1230q-19 -14 -35 -27q4 10 6 17t2 11v1v1q13 -1 27 -3zM423 1236l-3 1h-1q-1 0 -2 1h-2q-7 2 -15 3q-24 3 -46 1
q-30 -3 -52 -17q-27 -17 -36 -51q-5 -16 -5 -36q-12 -5 -20 -11q-7 -5 -7 -8t8 -1q9 2 24 10q11 -5 21 -8q28 -8 55 0q24 6 45 24q26 23 35 54q6 19 2 35z" />
    <glyph glyph-name="uni043C" unicode="&#x43c;" horiz-adv-x="1549" 
d="M100 225l-45 -211l25 -14l40 28q29 -16 73 -15q88 1 163 84q58 64 99 221q20 78 29 144q16 -73 50 -148q30 -66 65 -107q44 -51 93 -60q75 -14 137 36q50 40 89 119q44 90 61 185q-3 -30 -3 -73q-1 -88 14 -162q21 -103 70 -163q61 -75 162 -77q95 -3 176 53q40 28 61 57
l42 6l10 30l-139 141l-20 -27l8 -22q-15 -29 -40 -56q-49 -54 -94 -45q-34 7 -57 59t-37 153q-26 177 -35 597q0 5 35 19l3 38l-215 -11l-8 -30l13 -10q-14 -148 -46 -299q-28 -131 -63 -208q-44 -96 -95 -100q-23 -2 -50 55q-26 53 -50 145q-52 198 -58 388q-1 12 13 18
q6 2 13 3l-3 37h-237l-3 -32l32 -35q-1 -156 -20 -327q-16 -150 -44 -251q-34 -125 -83 -166q-16 -13 -33 -18q-15 -5 -29 -4q-17 1 -28 6l-7 43z" />
    <glyph glyph-name="uni043D" unicode="&#x43d;" horiz-adv-x="973" 
d="M52 975l29 -8q-4 11 -2 -3q0 -9 6 -52q2 -12 3 -20q1 -12 2 -23q4 -26 7 -51q7 -65 13 -125q16 -166 18 -309q2 -184 -19 -324q-1 -6 -6 -10q-4 -3 -10 -4q-7 -2 -13 -2l2 -30l242 -4q4 7 7 15q2 7 3 12q1 7 -1 10q-6 9 -38 14q-2 301 -2 333q0 21 45 27q35 4 110 -1
q13 -1 32 -2l33 -2q43 -3 65 -5q75 -4 111 1q22 3 35 -174q4 -64 6 -126q1 -59 -2 -67q-2 -8 -9 -12q-5 -4 -13 -5q-10 -1 -18 0l1 -28l253 5l-3 33q-10 1 -21 3q-9 2 -14 4q-6 3 -6 6q-2 47 -5 228q-1 85 -2 142q-2 81 -3 146q-9 357 -27 410q-2 6 33 17l4 29l-245 -23
q4 -26 11 -33t34 -14q8 -42 11 -108q6 -133 -15 -256q-6 -32 -416 -10l-6 394q8 -1 16 1t12 4q6 4 8 9q1 5 0 10q-1 4 -3 7q-2 4 -5 7q-157 -9 -260 -13z" />
    <glyph glyph-name="uni043E" unicode="&#x43e;" horiz-adv-x="999" 
d="M731 425q-9 -67 -35 -112q-35 -57 -72 -77q-34 -18 -96 -18q-66 0 -120 24q-63 28 -96 84q-38 64 -52 98q-22 56 -22 118q0 96 9 153q11 81 43 127q33 48 106 77q64 26 124 26q68 0 109 -26q44 -28 79 -97q20 -40 26 -115q2 -28 3 -66v-32v-16v-15q0 -89 -6 -133z
M671 1044q-81 25 -182 25q-191 0 -299 -116q-124 -133 -124 -413q0 -85 25 -160q18 -56 63 -138q60 -112 171 -178q110 -67 223 -59q94 7 159 57q66 51 126 165q35 67 54 161q19 90 19 182q0 166 -7 212q-15 95 -74 165q-54 66 -154 97z" />
    <glyph glyph-name="uni043F" unicode="&#x43f;" horiz-adv-x="920" 
d="M107 499q5 169 14 326q8 145 12 157q7 22 315 27q97 2 228 2h47h21h19h53q62 1 68 -466q2 -146 -2 -321q-2 -88 -5 -146q19 1 29 5q5 3 9 -1q3 -4 3 -11q2 -17 -7 -28q-9 -12 -109 -30q-101 -18 -121 -11q-7 2 -2 43q6 0 12 3q5 2 9 5q5 4 7 9q4 8 0 330q-1 49 -2 127v31
v30q-1 35 -1 58q-2 127 -2 163q0 4 -3 28q-4 25 -5 28q-3 8 -37 6q-6 -1 -14 -2h-7l-6 -1q-14 -2 -18 -2h-26h-8h-9h-18q-51 -1 -86 -1q-113 -1 -146 -5q-8 -1 -14 -2q-9 -2 -10 -4q-4 -4 -7 -22l-15 -759q30 -5 36 -14q6 -10 -7 -35l-248 -8q-7 30 -2 38q6 7 35 7
q14 223 20 446zM24 1133q3 14 15 20q13 6 26 0q14 -6 21 -21t3 -29t-16 -20t-26 0q-13 6 -20 21t-3 29z" />
    <glyph glyph-name="uni0440" unicode="&#x440;" horiz-adv-x="814" 
d="M539 614q-44 -27 -116 -35q-82 -8 -160 6q-11 75 -16 151q-4 67 0 107q6 50 24 54q31 8 84 9q66 0 119 -15q67 -19 101 -59q40 -48 29 -123q-9 -62 -65 -95zM72 978q2 -14 6 -27q4 -14 10 -23l18 -886l-46 -11l17 -29l235 -2l6 48l-51 16l-12 349q126 -12 228 13
q99 24 167 79q66 54 94 133q29 80 13 175q-25 160 -243 203q-80 16 -189 17q-40 0 -89 -2q-18 0 -41 -1q-8 -1 -19 -1l-9 -1h-9q-10 -1 -21 -1h-17h-25q-10 -1 -15 -5q-5 -3 -6 -11q-3 -17 -2 -33z" />
    <glyph glyph-name="uni0441" unicode="&#x441;" horiz-adv-x="953" 
d="M658 755q-4 31 -20 56q-22 35 -63 52q-52 22 -131 14q-82 -8 -136 -72q-48 -57 -65 -150q-16 -87 -2 -183t53 -170q40 -74 98 -110q51 -31 109 -30q52 1 95 26q41 24 55 58q6 13 4 20q-1 5 -7 5q-7 0 -16 -5l-6 32l237 19q7 -8 10 -18q6 -20 -11 -28q-5 -1 -13 -14
q-7 -13 -7 -15q1 -4 -2 -15q-3 -15 -9 -31q-17 -47 -50 -87q-45 -54 -111 -84q-82 -38 -192 -37q-133 1 -235 86q-94 79 -144 212q-49 130 -42 274q6 150 70 272q52 100 154 150q89 44 198 42q101 -1 181 -39q81 -38 102 -96q33 -52 50 -125q3 -14 12 -20q6 -5 16 -5
q11 1 21 6l-1 -47l-236 -48l7 44q8 -2 15 2q15 6 13 32q1 11 -1 27z" />
    <glyph glyph-name="uni0442" unicode="&#x442;" horiz-adv-x="970" 
d="M68 824q0 -5 21 0l8 27q58 8 120 12q54 3 89 0q44 -4 55 -17q23 -29 26 -415q1 -194 -2 -381l-32 -16l8 -30l250 -4q1 9 1 20q1 21 -6 28q-7 6 -37 0q-7 201 -11 403q-3 177 -3 279q1 128 8 132q36 20 130 21q72 1 170 -12l11 -28l34 -4v198l-31 -5v-16q-133 3 -295 5
q-141 1 -250 1q-137 -1 -215 -5q-5 -1 -10 11l-2 4l-1 5q-2 4 -3 5q-6 7 -28 -2q-3 -140 -5 -216zM771 474q-11 1 -28 1q10 10 21 23q4 -1 9 -1l12 -2q13 -1 24 -5q-8 -11 -19 -20q-5 2 -19 4zM720 450l14 15h10q15 0 27 -1q4 0 9 -1q-21 -13 -45 -14q-7 0 -15 1zM726 498
v-10v-9q-1 -2 -1 -4v-3v-1v-1l-1 -2l-12 -12q-5 16 -5 29q-1 25 11 44q8 -7 8 -31zM755 533q-1 -6 -1 -11t-1 -10v-6q-1 -1 -1 -2v-1l-1 -5h2q-9 -9 -18 -19q1 10 1 20q-1 13 -3 21q-3 11 -10 17v-1q10 15 29 25q4 -9 3 -28zM780 573l-1 -1l1 -1v-2q1 -3 1 -7q0 -11 -2 -27
l-1 -6q-8 -9 -15 -19q0 5 1 10v12q0 25 -4 33l6 3q6 3 14 5zM813 543q-6 0 -13 -1q14 18 26 36q5 -10 5 -23q0 -6 -1 -14q-5 2 -17 2zM802 533q7 1 12 1t9 -1q5 -1 5 -2v1q-4 -17 -13 -33q-5 2 -13 3l-8 2l-8 1q-7 1 -15 2q10 11 21 24zM788 576q13 4 27 5q-13 -19 -25 -36
q1 10 0 18q0 7 -1 11zM840 556q0 19 -9 34l-1 2h-3h-1h-1h-4q-7 -1 -15 -2q-24 -4 -44 -13q-29 -12 -45 -32q-21 -25 -20 -60q1 -16 7 -36q-10 -8 -16 -16q-5 -8 -4 -11t8 1q8 5 20 18q13 -2 23 -2q28 1 52 17q22 14 36 37q18 31 17 63z" />
    <glyph glyph-name="uni0443" unicode="&#x443;" horiz-adv-x="872" 
d="M633 1040q-8 5 -6 -5q1 -5 4 -10l21 -4l3 -453q-83 -14 -173 -10q-79 3 -131 24q-65 25 -84 76q-41 109 -31 337l21 7q1 22 -6 22q-2 0 -33 -2l-7 -1h-7q-9 -1 -17 -1q-19 -2 -35 -3q-96 -6 -107 -1l-2 -14l37 -9q4 -12 9 -36q3 -20 4 -43q2 -28 0 -57q-9 -113 13 -212
q25 -117 84 -164q55 -43 152 -63q118 -25 287 -13l24 1q1 -9 2 -22v-10l1 -10q2 -24 2 -39q1 -42 -11 -78q-23 -63 -69 -92q-40 -25 -92 -22q-45 3 -85 25q-38 22 -50 49q-5 11 -3 16q1 4 6 4q6 0 13 -4l5 26l-201 -10q-5 -20 -1 -19t10 -3t6 -6q-1 -3 1 -12q3 -12 8 -26
q16 -40 44 -73q39 -45 96 -70q70 -31 163 -30q102 2 170 41q61 35 96 104q30 60 42 151q10 73 9 181q-1 -1 -17 538q4 12 21 18q5 2 7 5q1 2 -1 5t-6 5q-173 -17 -186 -8z" />
    <glyph glyph-name="uni0444" unicode="&#x444;" horiz-adv-x="1192" 
d="M912 496q-38 -31 -103 -43q-74 -12 -148 -1l-3 337q6 20 41 36q41 18 95 14q75 -7 115 -50q56 -59 52 -187q-2 -68 -49 -106zM479 438q-19 -1 -49 3q-58 7 -107 29q-75 35 -105 93q-38 74 6 170q16 34 63 63q43 26 80 32q62 9 115 -12zM668 975q-2 6 -3 17v25l22 2
q1 8 2 17q0 18 -6 23q-13 10 -42 8q-22 -2 -59 -11l-16 -4l-16 -4q-19 -6 -29 -8q-33 -8 -48 -7l-3 -34l19 -1v-24q-30 4 -74 3q-87 -3 -158 -28q-99 -35 -152 -109q-65 -93 -53 -242q9 -113 77 -184q55 -58 144 -87q103 -33 202 -24l2 -215l-32 -45l-2 -43l245 3l1 88
l-39 6l4 206q30 -7 75 -10q91 -7 167 11q106 24 167 92q77 85 78 234q1 132 -53 218q-46 74 -130 111q-70 30 -155 30q-73 0 -130 -20q-3 -2 -5 6z" />
    <glyph glyph-name="uni0445" unicode="&#x445;" horiz-adv-x="950" 
d="M862 210q-2 -3 -3 -6q-2 -5 -2 -9q-15 2 -38 9q-46 15 -83 42q-51 38 -78 96q-33 73 -25 173l1 10l1 10q1 11 2 21q2 25 6 47q9 57 27 101q50 120 176 147q13 -16 22 -18q10 -2 24 7q7 5 13 11l-28 166q-5 3 -11 5q-11 3 -14 -7q-2 -6 -8 -13q-18 0 -45 -4
q-54 -10 -103 -33q-67 -32 -113 -86q-58 -68 -78 -168q-4 38 -20 74q-19 47 -55 86q-94 101 -281 126l-4 28l-29 10q-1 -25 -8 -63q-12 -76 -37 -141q-2 -7 9 -15t21 -7q11 1 23 37q16 0 40 -5q21 -4 41 -11q25 -8 47 -20q56 -32 87 -85q40 -66 38 -162q0 -44 -13 -98
q-15 -66 -44 -119q-35 -64 -86 -96q-61 -39 -140 -31q-13 15 -22 18q-9 2 -27 -15l28 -198l44 -2l10 34q21 0 53 6q28 5 54 13q34 10 64 23q76 35 124 91q59 71 70 172q28 -151 121 -232q84 -74 236 -101q10 -23 15 -26q7 -5 28 4q11 4 20 9q-8 15 -12 47q-9 62 8 142
q1 7 -14 9h-13h-13q-4 0 -6 -3z" />
    <glyph glyph-name="uni0446" unicode="&#x446;" horiz-adv-x="1019" 
d="M47 979l27 -7q-21 -948 -20 -961q1 -9 353 -3q177 2 353 7l9 -83l-33 -23l7 -39l226 5q5 11 8 24q7 26 2 33q-8 9 -49 2q15 51 11 108q-4 50 -24 83q-25 42 -76 55q-91 24 -96 16q-3 -4 13 -13l-1 801q9 0 19 2q8 2 14 5q7 4 10 9q4 8 -7 18q-6 6 -12 9q-29 -7 -71 -12
q-82 -11 -142 -1q-10 2 0 -15q4 -9 11 -17l17 -4l-9 -780l-365 -18l-4 779l39 2q4 11 6 22q2 10 2 15q-1 7 -6 6q-65 -11 -205 0z" />
    <glyph glyph-name="uni0447" unicode="&#x447;" horiz-adv-x="1048" 
d="M52 1014l40 -11q5 -14 10 -41q9 -54 4 -116q-10 -150 5 -243q23 -134 102 -191q107 -77 457 -74q-3 -90 20 -188q21 -85 59 -140q48 -68 121 -86q8 -17 7 -27h26q71 91 105 148q2 4 0 6q-2 3 -7 4q-12 2 -19 -8q-2 -3 -9 -3q-9 -1 -19 2q-27 7 -50 35q-69 82 -56 294
l30 625q4 14 22 21q12 4 7 11q-2 3 -7 6q-189 -20 -203 -10q-9 7 -6 -5q1 -5 4 -12l23 -4l-40 -494q-80 -17 -168 -13q-76 4 -128 28q-64 29 -85 88q-45 127 -34 390l23 8q1 25 -7 25q-2 1 -36 -2l-7 -1h-8q-10 -1 -18 -2q-21 -1 -39 -3q-104 -7 -117 -1z" />
    <glyph glyph-name="uni0448" unicode="&#x448;" horiz-adv-x="1261" 
d="M51 1003h238l-2 -37l-36 11l9 -785l308 7l-2 615l-25 66l192 -16l-21 -55l21 -620l290 12l-9 759l-41 1l20 36l219 1l-1 -28l-42 -12l16 -953q-542 24 -709 23q-123 -2 -373 -28l-26 961l-36 15z" />
    <glyph glyph-name="uni0449" unicode="&#x449;" horiz-adv-x="1509" 
d="M1424 -97q18 51 17 109q0 49 -19 84q-22 34 -72 50q-9 3 -136 20l9 807l39 12l1 27l-218 -1l-19 -36h40l-17 -792l-315 -12l10 643l18 54l-183 16l24 -65l-25 -638l-294 -8l32 817l34 -11l2 37h-236l-9 -27l34 -15l-16 -981q352 38 946 13l-3 -2l-3 -1q105 -4 193 -8
l5 -83l-35 -22l4 -40l227 -8q6 11 11 24q8 25 2 33q-6 10 -48 4z" />
    <glyph glyph-name="uni044A" unicode="&#x44a;" horiz-adv-x="901" 
d="M334 317q1 71 10 141q73 21 152 17q68 -4 113 -31q57 -34 72 -104q18 -78 -19 -123q-30 -37 -96 -51q-50 -11 -117 -7q-24 2 -49 5q-18 2 -32 5q-37 7 -34 148zM402 0q104 -2 188 11q104 16 167 54q73 45 87 119q19 110 -2 196t-82 142q-62 57 -160 80q-102 23 -236 7
l-21 375q-2 33 -11 40q-3 4 -14 4l-241 2q3 6 2 11q-1 11 -20 9q-7 -1 -4 -27l-6 -99q-1 -4 -1 -9q1 -4 3 -7q4 -3 10 -4q5 -1 14 16l95 -9l-6 -797q2 -59 13 -73q10 -13 21 -17q13 -6 49 -11q73 -10 155 -13z" />
    <glyph glyph-name="uni044B" unicode="&#x44b;" horiz-adv-x="1105" 
d="M269 303q1 69 10 136q62 13 127 4q57 -8 94 -33q45 -33 54 -92q20 -133 -90 -162q-38 -9 -90 -6q-19 1 -40 4q-8 1 -16 3q-6 1 -14 2q-38 7 -35 144zM328 -12q93 -3 166 10q194 33 213 175q29 214 -84 322t-353 97l-24 381l45 13l-6 46l-215 -20l-14 -28l41 -12l-2 -882
q2 -45 14 -59q11 -14 21 -18q14 -6 51 -11q77 -11 147 -14zM781 1000l58 -24q-6 -150 -9 -334q-5 -367 10 -537q1 -13 -17 -17l-4 -1h-3q-5 -1 -7 -2q-8 -2 -11 -7q-14 -24 -4 -68q53 -2 113 -7q9 0 22 -2h10l10 -1q21 -2 33 -3q31 -1 45 4q16 5 24 21q6 15 6 26q0 10 -5 17
q-6 8 -15 10l-22 -3q-10 134 -16 312q-5 155 -3 288q1 165 12 285q1 8 11 16q4 3 10 6l5 3l5 3q12 6 15 11q5 7 -2 16q-19 25 -263 14z" />
    <glyph glyph-name="uni044C" unicode="&#x44c;" horiz-adv-x="830" 
d="M254 315q2 71 10 140q73 21 151 16q68 -3 113 -30q56 -34 72 -103q17 -78 -19 -123q-31 -37 -96 -50q-50 -11 -116 -7q-24 1 -49 5q-17 2 -32 5q-37 6 -34 147zM322 0q103 -2 187 11q103 15 165 53q74 45 87 119q19 109 -2 194q-21 86 -82 142t-159 78q-100 23 -234 8
l-21 372l44 13l-6 45l-235 -21l-14 -27l40 -11l-7 -863q2 -58 14 -72q10 -13 21 -18q12 -5 49 -10q72 -11 153 -13zM491 1070q-21 -4 -38 8q-18 12 -22 32t7 38q11 16 30 18q18 1 36 -11q19 -12 24 -29q6 -18 -5 -35q-12 -17 -32 -21z" />
    <glyph glyph-name="uni044D" unicode="&#x44d;" horiz-adv-x="954" 
d="M667 975q-104 53 -224 50q-121 -4 -214 -64q-101 -66 -137 -181q-4 -14 -10 -20q-5 -5 -10 -4q-6 0 -11 5v-48l205 -37l-6 35q-4 -2 -7 1q-2 3 -3 10q-1 8 0 23q-1 8 1 20q2 10 6 20q6 12 14 23q52 62 201 59q131 -2 201 -60q78 -65 82 -202q-32 -28 -118 -30
q-32 0 -75 3q-17 1 -38 3q-7 1 -18 2h-8l-9 1q-6 1 -12 11l-3 4l-2 4q-3 3 -5 4q-6 0 -11 -2q-3 -2 -5 -5q-2 -5 -2 -9l-4 -122q-3 -7 2 -16q6 -10 18 -13q3 -1 9 8l2 3q1 2 2 3q3 3 5 2q37 -8 98 -12l11 -1h12q13 -1 21 -2q23 -2 39 -5q38 -6 53 -24q17 -20 9 -61
q-19 -93 -89 -142q-60 -42 -147 -47q-77 -5 -144 19q-66 23 -80 57q-6 14 -4 20q1 5 7 5q7 0 16 -4l7 32l-235 -1q-7 -6 -10 -14q-7 -15 11 -23q5 -1 13 -10q8 -8 7 -10q-1 -3 2 -14q4 -13 11 -29q21 -43 57 -79q49 -50 119 -77q86 -35 200 -34q165 1 274 92q95 80 135 220
q37 125 23 267q-14 137 -68 237q-54 103 -164 159z" />
    <glyph glyph-name="uni044E" unicode="&#x44e;" horiz-adv-x="1391" 
d="M1045 234q-51 -22 -110 -23q-72 -1 -118 20q-57 25 -90 88q-21 39 -28 89q-3 27 -4 103q-2 77 3 107q6 42 32 87q33 56 70 76q32 18 93 19q65 1 118 -21q62 -26 96 -80q38 -61 50 -89q21 -50 22 -109q1 -82 -4 -110q-7 -38 -39 -85q-32 -46 -91 -72zM1318 666
q-14 40 -58 117q-59 103 -167 153q-101 47 -216 36q-103 -9 -158 -41q-71 -41 -124 -145q-30 -59 -42 -96q-16 -50 -21 -113q-69 -6 -134 -5q-62 0 -110 1l-17 411q7 0 15 2q6 2 11 5t7 9q2 9 -2 17q-2 5 -5 7q-143 -14 -237 -21l10 -23l25 -7q0 -5 5 -41q3 -18 4 -34
q3 -21 6 -41q14 -118 22 -229q24 -347 -14 -580q-2 -11 -15 -15q-6 -2 -12 -2l1 -31l221 4q14 27 9 38q-5 9 -35 13q8 312 9 344q0 18 30 26q24 6 59 5q27 -2 49 -2q33 -1 49 -2q27 -1 47 -1q2 -97 15 -138q16 -50 69 -111q56 -63 157 -97q88 -29 182 -27q88 1 159 35
q67 32 124 94q63 69 85 151q20 71 18 194q-2 82 -21 140z" />
    <glyph glyph-name="uni044F" unicode="&#x44f;" horiz-adv-x="1030" 
d="M718 587q-68 -15 -127 -14q-82 0 -135 31q-66 38 -82 121q-12 66 34 106q39 34 116 48q63 11 139 7q64 -2 103 -12q26 -7 19 -140q-3 -67 -11 -132q-23 -8 -56 -15zM952 58l-11 839q5 29 1 59q-9 59 -58 60q-20 1 -47 3l-25 1l-25 2q-67 4 -102 5q-122 4 -201 -8
q-104 -16 -167 -64q-73 -55 -96 -157q-25 -112 19 -196q51 -99 194 -152q-40 -152 -70 -214q-39 -77 -91 -84q-30 -3 -35 15q-2 8 1 18q3 2 2 7q0 4 -2 8q-4 6 -11 12q-6 6 -36 -9q-26 -13 -61 -36q-35 -24 -57 -44q-25 -23 -24 -31q3 -16 18 -17q7 -1 14 1q24 -20 63 -39
q34 -17 69 -27q44 -11 87 -10q81 2 136 52q45 41 76 118q13 30 25 70q5 16 11 36l4 17l5 18q25 88 41 121q10 1 36 2l5 1h6l12 1q14 0 24 1q63 3 86 6l8 -363l-36 -33v-30l251 2l-3 24zM594 1211q-13 1 -33 1q12 12 24 27q6 -1 11 -1q8 -1 14 -2q15 -1 29 -6
q-10 -14 -23 -24q-5 3 -22 5zM534 1183l17 17q5 0 11 1q18 0 31 -1q6 0 12 -2q-25 -15 -54 -16q-7 0 -17 1zM541 1240q1 -6 0 -13v-11q-1 -2 -1 -4v-3v-1v-1v-1h-1v-2q-6 -6 -15 -14q-5 19 -5 34q-1 30 13 52q9 -9 9 -36zM575 1280q0 -6 -1 -13q0 -5 -1 -11q0 -4 -1 -8v-2
l-1 -7h1q-9 -11 -20 -22q1 12 1 23q-1 15 -4 25q-3 13 -11 20l-1 -1q13 17 34 29q5 -10 4 -33zM604 1327l-1 -1q1 0 1 -1t1 -3v-7q1 -14 -2 -32l-1 -7l-18 -22q1 6 1 11q1 8 1 14q0 29 -5 39l6 3q8 3 17 6zM644 1292q-7 0 -16 -1q16 21 31 42q5 -12 5 -27q0 -7 -1 -16
q-6 2 -19 2zM630 1280q8 1 14 1t11 -1t5 -2l1 1q-5 -20 -16 -39q-6 3 -15 4l-9 2l-9 1q-8 1 -18 2q12 14 24 29zM614 1330q16 5 31 7q-15 -23 -29 -42q1 11 1 20q-1 9 -2 14zM675 1307q0 23 -11 40l-1 3h-4h-2q-2 -1 -4 -1l-18 -2q-28 -5 -52 -15q-33 -14 -52 -38
q-24 -29 -23 -70q0 -19 7 -42q-11 -10 -18 -19q-6 -9 -5 -12q1 -4 9 1q9 6 24 21q14 -3 26 -2q34 1 62 19q25 16 41 43h1v1q21 35 20 73z" />
    <glyph glyph-name="uni0451" unicode="&#x451;" horiz-adv-x="801" 
d="M748 177l-23 -16q-267 -1 -518 -1q-4 58 1 149l1 17l2 17q0 19 1 31q1 34 0 56q233 7 378 -8q2 -1 4 -4q1 -3 3 -7v-5q0 -3 -3 -1q35 -15 35 4q0 104 10 182l-18 6l-18 -13q-195 12 -386 12q0 21 -1 59v31v31q-1 76 5 148q167 24 427 0q7 -1 8 -5v-2l1 -1q1 -3 3 -5
q8 -6 26 -5q-6 165 9 183l-24 6l-4 -14q-216 8 -446 9q-23 3 -64 -1l-16 -2l-16 -1q-17 -1 -27 -1q-36 -17 -36 -46q-1 -33 3 -178q2 -72 3 -121q1 -71 1 -132q0 -52 -2 -119l-1 -59l-1 -29l-1 -28q-4 -136 -1 -197q3 -80 51 -108q35 -19 95 -13q107 11 260 13q161 3 264 -6
q4 -1 4 -7v-5q0 -2 1 -2q10 -5 20 -2q3 36 3 182zM324 1202q-15 -19 -37 -19t-37 19q-16 18 -16 45q0 26 16 44q15 19 37 19t37 -19q16 -18 16 -44q0 -27 -16 -45zM452 1207q6 24 26 33q20 10 42 0q22 -11 33 -34q11 -24 5 -48q-6 -23 -26 -32q-19 -10 -41 0t-34 34
q-11 24 -5 47z" />
    <glyph glyph-name="uni0454" unicode="&#x454;" horiz-adv-x="988" 
d="M301 976q104 52 224 49q121 -4 214 -64q101 -66 137 -180q8 -26 20 -25q6 0 11 6v-49l-205 -37l6 35q4 -2 6 1q3 3 4 10q1 9 0 23q4 32 -21 63q-23 27 -66 42q-53 19 -135 18q-277 -5 -283 -263q31 -28 117 -30q32 0 76 3q17 1 38 3l18 2l17 1q5 1 12 12l2 4l3 3q3 4 5 4
q18 2 18 -16l4 -122q3 -7 -2 -16q-6 -10 -18 -13q-3 0 -9 8l-2 3l-2 3q-3 3 -5 2q-37 -7 -98 -12l-23 -1q-13 -1 -21 -2q-24 -2 -39 -4q-38 -7 -53 -25q-17 -20 -9 -61q18 -93 89 -142q60 -42 147 -47q76 -5 144 19q66 23 80 57q11 25 -3 25q-7 1 -16 -4l-7 32l235 -1
q7 -6 10 -14q7 -15 -11 -23q-5 -1 -13 -10q-8 -8 -7 -10q1 -3 -2 -14q-4 -13 -11 -28q-21 -44 -57 -80q-111 -112 -319 -111q-166 1 -274 92q-95 80 -136 220q-36 125 -22 268q14 136 67 237q55 103 165 159z" />
    <glyph glyph-name="uni0456" unicode="&#x456;" horiz-adv-x="444" 
d="M74 1012l59 -24q-24 -604 0 -879q1 -13 -17 -17l-7 -1l-7 -2q-8 -2 -11 -7q-14 -25 -4 -69q54 -1 114 -7q9 0 22 -1l11 -1l9 -1q22 -2 34 -3q31 -1 46 4q16 5 23 21q7 15 6 27q0 9 -5 16q-6 8 -14 11l-23 -3q-10 136 -16 315q-5 157 -4 290q2 167 13 288q1 9 11 16
q4 3 10 7l10 5q25 14 14 28q-20 25 -266 14zM173 1206q5 21 23 30q18 8 38 -1t31 -31q10 -21 5 -43q-6 -21 -24 -30q-18 -8 -38 1t-30 31q-11 21 -5 43z" />
    <glyph glyph-name="uni0457" unicode="&#x457;" horiz-adv-x="540" 
d="M105 1012l59 -24q-24 -604 0 -879q1 -13 -17 -17l-7 -1l-7 -2q-8 -2 -11 -7q-14 -25 -4 -69q54 -1 114 -7q9 0 22 -1l11 -1l9 -1q22 -2 34 -3q31 -1 46 4q16 5 23 21q7 15 6 27q0 9 -5 16q-6 8 -14 11l-23 -3q-10 136 -16 315q-5 157 -4 290q2 167 13 288q1 9 11 16
q4 3 10 7l10 5q25 14 14 28q-20 25 -266 14zM329 1197q6 21 24 30q18 8 38 -1t30 -31q11 -22 5 -43q-5 -21 -23 -30q-18 -8 -38 1t-31 31q-10 21 -5 43zM75 1194q5 21 23 30q18 8 38 -1t31 -31q10 -21 5 -43q-6 -21 -24 -30q-18 -8 -38 1t-30 31q-11 21 -5 43z" />
    <glyph glyph-name="endash" unicode="&#x2013;" horiz-adv-x="1108" 
d="M920 697q-1 15 -15 14q-132 -7 -341 -8q-238 -1 -353 9q-24 2 -15 -160q458 -5 700 3q36 1 28 41l-2 44l-1 44z" />
    <glyph glyph-name="emdash" unicode="&#x2014;" horiz-adv-x="1712" 
d="M1518 741q-2 16 -28 15q-242 -7 -628 -8q-439 -2 -650 9q-45 2 -28 -177q844 -5 1291 3q65 1 51 46l-4 49l-2 48z" />
    <glyph glyph-name="quoteright" unicode="&#x2019;" horiz-adv-x="557" 
d="M274 1501q-39 3 -79 -19q-45 -26 -62 -65q-17 -42 6 -84q23 -41 69 -55q45 -14 88 7q17 -49 -18 -91q-7 -7 -2 -16q5 -8 15 -6q39 7 66 44q25 34 33 83t-5 94q-13 47 -46 74q-25 30 -65 34z" />
    <glyph glyph-name="quotedblleft" unicode="&#x201c;" horiz-adv-x="910" 
d="M319 1016q-44 0 -88.5 65.5t-44.5 151.5q0 109 71 226.5t139 117.5v-43q-73 -43 -87 -190q0 -119 129 -161v-42zM672 1016q-44 0 -88.5 65.5t-44.5 151.5q0 109 71 226.5t139 117.5v-43q-73 -43 -87 -190q0 -119 129 -161v-42z" />
    <glyph glyph-name="quotedblright" unicode="&#x201d;" horiz-adv-x="910" 
d="M238 1577q44 0 88.5 -65.5t44.5 -151.5q0 -109 -71 -226.5t-139 -117.5v43q73 43 87 190q0 119 -129 161v42zM591 1577q44 0 88.5 -65.5t44.5 -151.5q0 -109 -71 -226.5t-139 -117.5v43q73 43 87 190q0 119 -129 161v42z" />
    <glyph glyph-name="quotedblbase" unicode="&#x201e;" horiz-adv-x="910" 
d="M238 281q44 0 88.5 -65.5t44.5 -151.5q0 -109 -71 -226.5t-139 -117.5v43q73 43 87 190q0 119 -129 161v42zM591 281q44 0 88.5 -65.5t44.5 -151.5q0 -109 -71 -226.5t-139 -117.5v43q73 43 87 190q0 119 -129 161v42z" />
    <glyph glyph-name="dagger" unicode="&#x2020;" 
d="M486 1022q-8 97 -54 178q-57 101 -57 129q0 49 36 78.5t96 29.5q57 0 94.5 -27.5t37.5 -71.5q0 -32 -55 -137q-46 -85 -55 -179q96 8 177 54q101 57 129 57q49 0 79 -36t30 -96q0 -57 -27.5 -94.5t-72.5 -37.5q-32 0 -136 55q-85 46 -179 57q8 -176 110 -277
q-106 -460 -112 -974h-38q-6 514 -114 974q102 101 111 277q-96 -10 -178 -55q-101 -57 -129 -57q-49 0 -78.5 36t-29.5 96q0 57 27.5 94.5t71.5 37.5q32 0 137 -56q85 -46 179 -55z" />
    <glyph glyph-name="daggerdbl" unicode="&#x2021;" 
d="M528 186q94 11 179 57q104 55 136 55q45 0 72.5 -37.5t27.5 -94.5q0 -60 -30 -96t-79 -36q-28 0 -129 57q-81 46 -177 54q9 -94 55 -179q55 -105 55 -137q0 -44 -37.5 -71.5t-94.5 -27.5q-60 0 -96 29.5t-36 78.5q0 28 57 129q46 81 54 178q-94 -9 -179 -55
q-105 -56 -137 -56q-44 0 -71.5 37.5t-27.5 94.5q0 60 29.5 96t78.5 36q28 0 129 -57q82 -45 178 -55q-9 226 -111 398q102 171 111 397q-96 -10 -178 -55q-101 -57 -129 -57q-49 0 -78.5 36t-29.5 96q0 57 27.5 94.5t71.5 37.5q32 0 137 -56q85 -46 179 -55q-8 97 -54 178
q-57 101 -57 129q0 49 36 78.5t96 29.5q57 0 94.5 -27.5t37.5 -71.5q0 -32 -55 -137q-46 -85 -55 -179q96 8 177 54q101 57 129 57q49 0 79 -36t30 -96q0 -57 -27.5 -94.5t-72.5 -37.5q-32 0 -136 55q-85 46 -179 57q8 -226 110 -397q-102 -172 -110 -398z" />
    <glyph glyph-name="bullet" unicode="&#x2022;" horiz-adv-x="1024" 
d="M441 642q32 36 138 39q23 1 48 0l40 -2l16 -2q7 0 13 -1l4 -1h4h2v0l8 -2q23 -22 53 -56q-70 -19 -129 -21q-112 -4 -197 46zM425 806q23 0 49 -2q20 -1 41 -3q16 -1 29 -3q5 0 9 -1h2h1l23 -3v5q42 -36 86 -77q-46 3 -88 2q-59 -3 -95 -13q-51 -14 -77 -44l4 -4
q-64 48 -111 129q40 18 127 14zM384 1143q-9 -22 -9 -74q1 -27 5 -59q-81 62 -161 115q47 19 102 21q28 1 63 -3zM205 1073q88 -58 163 -111q-45 4 -78 3t-52 -8l-7 -3q-17 58 -26 119zM242 917h1l4 -3v0q1 1 5 2q4 2 10 3q14 3 29 3q18 1 41 0q19 -1 40 -4q8 0 16 -1
q7 -1 13 -2l5 -1h4l2 -1h1l27 -4q42 -32 84 -66q-23 3 -44 4q-29 2 -54 2q-109 0 -148 -20l-12 25q-13 30 -24 63zM541 882q-55 46 -111 89q-4 25 -7 47q-4 29 -5 52q-2 23 2 44q4 18 7 18l-2 4q78 -17 149 -60q-9 -22 -16 -59q-2 -14 -5 -34l-6 -35q-3 -32 -6 -66zM686 884
q-2 -29 -3 -65q0 -29 1 -61v0q-48 43 -103 89q2 23 4 43q2 28 5 53q5 58 21 109q54 -38 93 -86q-11 -20 -18 -82zM729 717q-1 21 -2 43q-2 70 2 120q1 22 6 43q59 -94 64 -203q1 -27 -3 -64zM841 721q-5 128 -74 233q-63 95 -167 158l-1 1h-1q-136 81 -278 76
q-90 -4 -154 -43l-11 -7l1 -13v0v-1v-3v-3q1 -3 1 -7q0 -6 1 -11q4 -32 10 -66q20 -108 59 -198q55 -127 145 -199q112 -91 267 -85v0q74 3 161 29q38 -43 74 -67q33 -22 46 -18q14 4 -5 34q-22 34 -80 89q8 53 6 101z" />
    <glyph glyph-name="ellipsis" unicode="&#x2026;" horiz-adv-x="2048" 
d="M145 167l82 84q15 14 29 14q13 0 31 -16l80 -86q12 -16 12 -29q0 -15 -14 -31l-80 -88q-20 -20 -29 -20q-16 0 -29 14l-88 101q-10 13 -10 26q0 15 16 31zM828 167l82 84q15 14 29 14q13 0 31 -16l80 -86q12 -16 12 -29q0 -15 -14 -31l-80 -88q-20 -20 -29 -20
q-16 0 -29 14l-88 101q-10 13 -10 26q0 15 16 31zM1511 167l82 84q15 14 29 14q13 0 31 -16l80 -86q12 -16 12 -29q0 -15 -14 -31l-80 -88q-20 -20 -29 -20q-16 0 -29 14l-88 101q-10 13 -10 26q0 15 16 31z" />
    <glyph glyph-name="guilsinglleft" unicode="&#x2039;" horiz-adv-x="631" 
d="M174 479l342 303h14v-37l-205 -266l205 -266v-37h-14z" />
    <glyph glyph-name="guilsinglright" unicode="&#x203a;" horiz-adv-x="631" 
d="M115 176h-14v37l205 266l-205 266v37h14l342 -303z" />
    <glyph glyph-name="fraction" unicode="&#x2044;" horiz-adv-x="342" 
d="M-342 -29l940 1461h84l-938 -1461h-86z" />
    <glyph glyph-name="fraction" unicode="&#x2215;" horiz-adv-x="342" 
d="M-342 -29l940 1461h84l-938 -1461h-86z" />
    <glyph glyph-name="franc" unicode="&#x20a3;" 
d="M247 357h-194v60h194v732q0 235 -103 235h-96v50h915l103 -231h-49q-59 182 -190 182l-316 -1q-102 0 -102 -235v-352h361q100 0 100 63v58h50v-342h-50v60q0 62 -100 62h-361v-281h194v-60h-194v-72q0 -235 102 -235h97v-50h-560v50h96q103 0 103 235v72z" />
    <glyph glyph-name="lira" unicode="&#x20a4;" 
d="M748 1347q-72 31 -160 31h-2q-100 0 -190 -101q-84 -93 -84 -241q0 -15 1 -30q0 -106 33 -213h380v-60h-360q12 -30 26 -60h352v-60h-321q35 -63 35 -138q0 -161 -162 -375h402q130 0 189 132l49 -1l-103 -231h-719l1 50q187 238 187 418q0 77 -34 143l-2 2h-172v60h143
q-14 31 -26 60h-135v60h113q-36 107 -36 193q0 226 123.5 347t310.5 121q75 0 185.5 -14t110.5 -34v-161h-58q-5 61 -77 102z" />
    <glyph glyph-name="peseta" unicode="&#x20a7;" horiz-adv-x="2028" 
d="M409 1384v-662q3 -9 7 -17q41 -102 108 -153q57 -44 116 -44q10 0 19 1q68 8 127 75t87 177q22 87 22 179q0 24 -1 47q-7 116 -49.5 218.5t-108.5 144.5q-56 35 -112 35q-10 0 -21 -1h-194zM1496 908h-179v-685q0 -81 34 -119q28 -31 81 -37l-71 192l49 1
q55 -130 114 -174q57 -44 127 -44h7q92 0 151 52q59 53 59 136q0 102 -259 226q-101 52 -144 112t-43 145q0 121 73 194zM1039 910q-7 -101 -48 -194q-50 -114 -141 -177.5t-190 -63.5q-100 0 -191 64q-33 22 -60 51v-305q0 -235 102 -235h97v-50h-560v50h96q103 0 103 235
v864q0 235 -103 235h-96v50h618q92 -2 181 -62q91 -62 143 -177q50 -113 51 -237h10q216 0 216 355h50v-355h259q42 19 110 20h2q54 0 133.5 -13.5t79.5 -33.5v-159h-42q-4 66 -65.5 108t-133.5 42q-64 0 -102.5 -36.5t-38.5 -96.5q0 -108 235 -220q122 -55 167.5 -117.5
t45.5 -153.5q0 -140 -83 -231q-102 -84 -228 -86q-58 0 -105 11q-28 6 -56 6q-18 0 -36 -3q-28 -5 -59 -5q-124 0 -173.5 57t-57.5 176h-1v687h-129z" />
    <glyph glyph-name="Euro" unicode="&#x20ac;" 
d="M140 372q-62 135 -76 281h-108l17 60h87v29q0 16 1 31h-71l17 60h58q14 145 76 281q81 178 226 274t298 96q43 0 87 -8q40 -10 82 -29q8 -6 16 -6q20 0 34 45h41l84 -281l-40 -1q-49 134 -138 178q-43 22 -81 32v3q-50 16 -101 16q-17 0 -34 -2q-120 -12 -226 -113.5
t-157 -273.5q-32 -104 -39 -211h706l-17 -60h-692q0 -30 2 -60h674l-17 -60h-652q17 -158 83 -298q74 -157 193 -236q102 -68 216 -69q186 3 256 91q74 91 74 185h48v-143q0 -70 -111 -127q-105 -54 -267 -56q-181 0 -325.5 98t-223.5 274z" />
    <glyph glyph-name="uni2116" unicode="&#x2116;" horiz-adv-x="2271" 
 />
    <glyph glyph-name="trademark" unicode="&#x2122;" horiz-adv-x="1497" 
 />
    <glyph glyph-name="partialdiff" unicode="&#x2202;" 
d="M232 537q0 -41 5 -79q14 -122 61.5 -230t118.5 -165q64 -53 128 -53q6 0 13 1q70 5 127.5 70.5t80.5 179.5q16 73 16 149q0 42 -5 85q-14 122 -62.5 231.5t-119.5 165.5q-65 50 -128 50h-11q-68 -5 -126 -69.5t-82 -178.5q-16 -84 -16 -157zM937 477q0 -132 -56.5 -251
t-159 -185t-214.5 -66t-214.5 66t-159 185t-56.5 251q0 131 58 251t161 185t211 65q109 0 212 -65q29 -18 54 -41q-84 235 -233.5 377t-326.5 155v55q306 0 515 -285t209 -697z" />
    <glyph glyph-name="Delta" unicode="&#x2206;" horiz-adv-x="1081" 
d="M514 1195l-406 -1072h801zM547 1434l526 -1434h-1067z" />
    <glyph glyph-name="product" unicode="&#x220f;" horiz-adv-x="1515" 
d="M511 1384q-102 0 -102 -235v-1281q0 -235 102 -235h97v-51h-560v51h96q103 0 103 235v1281q0 235 -103 235h-96v50h1419v-50h-97q-102 0 -102 -235v-1281q0 -235 102 -235h97v-50h-560v50h96q103 0 103 235v1281q0 235 -103 235h-492z" />
    <glyph glyph-name="summation" unicode="&#x2211;" horiz-adv-x="1206" 
d="M1059 548l-788 -914h635q130 0 189 182h49l-103 -232h-921v50q62 0 106 53l663 781l-663 859q-44 57 -106 57v50h921l103 -232h-49q-59 182 -189 182h-485z" />
    <glyph glyph-name="minus" unicode="&#x2212;" horiz-adv-x="1067" 
d="M960 792q-2 8 -8 12q-8 5 -18 5q-476 -18 -794 1q-25 1 -28 -96q-1 -48 3 -97q395 -6 805 3q28 1 41 15q12 13 5 35q-4 19 -4 53v14v13q0 15 -1 26z" />
    <glyph glyph-name="radical" unicode="&#x221a;" 
d="M181 0l-164 359l74 35l85 -185l728 1470h150v-60h-72z" />
    <glyph glyph-name="infinity" unicode="&#x221e;" 
d="M439 755q-15 103 -74 133q-46 22 -84 22q-12 0 -23 -2q-49 -10 -92.5 -44.5t-65.5 -84.5q-20 -46 -20 -90v-8q2 -48 27.5 -89t71.5 -58q29 -11 61 -11q16 0 33 3q47 10 90.5 43.5t75.5 185.5zM466 687q12 -96 94 -153q69 -48 123 -48q11 0 21 2q62 12 117.5 52t84.5 101
q26 54 26 108v11q-2 60 -35.5 108.5t-91.5 68.5q-37 13 -76 13q-22 0 -44 -4q-67 -9 -127 -62t-92 -197zM450 827q9 35 21 69q34 88 95 137t128 49t128 -48t95 -135t34 -182t-34 -182t-95 -135t-128 -48t-128 49t-95 136q-12 35 -21 70q-5 -21 -12 -41q-27 -73 -74 -113
t-99 -40t-100 41t-73.5 113.5t-25.5 149.5q0 76 25.5 149t73.5 114t100 41t99 -40t74 -112q7 -21 12 -42z" />
    <glyph glyph-name="integral" unicode="&#x222b;" horiz-adv-x="665" 
d="M-12 -281q-60 0 -60 29v159h36q1 -43 34.5 -64.5t63.5 -21.5h1q82 0 115 162q32 162 40 316l70 734l8 62q27 238 135 429.5t234 191.5q60 0 60 -29v-159h-36q-1 43 -35 64.5t-63 21.5q-71 0 -116 -155.5t-49 -363.5l-73 -767q-20 -231 -130.5 -420t-234.5 -189z" />
    <glyph glyph-name="approxequal" unicode="&#x2248;" 
d="M923 1053v-156q-63 -72 -122 -97.5t-116 -25.5q-60 0 -177.5 48.5t-176.5 48.5q-51 0 -107.5 -28t-129.5 -112v156q64 73 123 99t114 26q64 0 181.5 -49.5t172.5 -49.5q52 0 108.5 28t129.5 112zM923 705v-156q-63 -72 -122 -97.5t-116 -25.5q-60 0 -177.5 48.5
t-176.5 48.5q-51 0 -107.5 -28t-129.5 -112v156q64 73 123 99t114 26q64 0 181.5 -49.5t172.5 -49.5q52 0 108.5 28t129.5 112z" />
    <glyph glyph-name="lessequal" unicode="&#x2264;" 
d="M927 1074l-625 -359l625 -355v-167l-840 481v83l840 484v-167zM87 1v140h839l1 -1v-139h-840z" />
    <glyph glyph-name="greaterequal" unicode="&#x2265;" 
d="M87 1241l840 -484v-83l-840 -481v167l625 355l-625 359v167zM87 2v140h839l1 -1v-139h-840z" />
    <glyph glyph-name="uniF001" unicode="&#xf001;" horiz-adv-x="1073" 
 />
    <glyph glyph-name="uniF001" unicode="&#xfb01;" horiz-adv-x="1073" 
 />
    <glyph glyph-name="uniF002" unicode="&#xf002;" horiz-adv-x="1081" 
 />
    <glyph glyph-name="uniF002" unicode="&#xfb02;" horiz-adv-x="1081" 
 />
    </font>
</defs>
</svg>
