<?xml version="1.0" standalone="no"?>
<!DOCTYPE svg PUBLIC "-//W3C//DTD SVG 20010904//EN"
 "http://www.w3.org/TR/2001/REC-SVG-20010904/DTD/svg10.dtd">
<svg version="1.0" xmlns="http://www.w3.org/2000/svg"
 width="512.000000pt" height="512.000000pt" viewBox="0 0 512.000000 512.000000"
 preserveAspectRatio="xMidYMid meet">
<metadata>
Created by potrace 1.14, written by Peter Selinger 2001-2017
</metadata>
<g transform="translate(0.000000,512.000000) scale(0.100000,-0.100000)"
fill="#000000" stroke="none">
<path d="M474 5101 c-148 -40 -276 -132 -356 -255 -105 -162 -119 -406 -33
-575 47 -94 126 -178 687 -737 l573 -570 65 -20 65 -19 5 -107 5 -108 80 -80
c114 -115 113 -115 280 50 l131 130 64 -66 65 -66 -184 -180 c-267 -260 -418
-375 -669 -510 l-117 -62 -120 -2 c-154 -2 -267 -29 -401 -94 -204 -99 -412
-303 -504 -495 -65 -136 -84 -220 -84 -370 1 -124 12 -185 55 -299 28 -77 57
-106 105 -106 35 0 51 14 273 235 259 256 285 274 383 275 141 0 248 -107 248
-250 0 -31 -7 -75 -16 -96 -11 -26 -95 -118 -255 -280 -225 -227 -239 -243
-239 -278 0 -48 29 -77 106 -105 116 -44 175 -54 304 -55 241 0 422 77 609
258 162 157 248 284 300 444 34 102 55 262 45 340 -6 51 -5 55 66 185 145 264
257 411 513 672 l176 180 720 -720 c397 -396 721 -725 721 -732 0 -6 31 -74
69 -151 l70 -138 198 -132 c141 -94 207 -132 228 -132 24 0 54 25 173 144 125
123 145 148 145 175 0 23 -34 82 -131 229 l-132 198 -100 49 c-55 27 -100 54
-100 59 0 6 -338 349 -751 762 l-751 751 159 153 c251 243 415 366 664 498
l116 62 112 0 c189 0 351 48 506 149 84 54 258 221 326 311 62 83 123 221 145
329 32 161 8 375 -57 502 -28 56 -46 69 -91 69 -40 0 -46 -5 -277 -234 -252
-250 -285 -275 -372 -276 -174 -1 -297 167 -244 331 16 49 40 76 255 294 253
256 267 276 233 324 -66 91 -356 146 -554 107 -174 -35 -301 -104 -448 -242
-164 -154 -265 -308 -317 -479 -21 -73 -27 -117 -31 -230 l-5 -140 -64 -124
c-125 -237 -246 -399 -489 -649 l-158 -163 -66 65 -65 66 126 127 c69 71 129
138 132 150 4 14 1 36 -9 57 -20 41 -123 142 -160 156 -14 5 -66 10 -116 10
l-89 0 -17 63 -16 62 -551 554 c-589 592 -665 662 -748 703 -137 67 -285 84
-414 49z m258 -172 c27 -6 74 -28 105 -49 35 -23 283 -264 629 -611 l570 -574
18 -72 c12 -47 27 -81 44 -98 24 -24 30 -25 142 -25 197 0 210 25 -205 -390
-306 -306 -356 -352 -369 -341 -13 11 -16 35 -16 118 0 160 -12 177 -157 213
-50 13 -68 30 -641 604 -552 554 -590 595 -617 656 -50 115 -44 253 16 372 30
59 116 138 186 171 99 46 175 52 295 26z m3546 -35 c20 -6 5 -24 -156 -188
-98 -100 -190 -202 -205 -226 -71 -123 -76 -278 -13 -404 44 -89 111 -155 204
-199 63 -30 74 -32 177 -32 105 0 114 2 180 34 59 29 99 63 257 218 l186 184
11 -51 c40 -187 -21 -395 -165 -565 -186 -217 -378 -322 -610 -333 -364 -16
-671 208 -770 563 -25 86 -29 239 -10 333 35 174 103 287 273 453 99 97 131
122 203 157 114 56 190 72 315 67 55 -2 110 -7 123 -11z m-930 -1354 c84 -112
200 -212 324 -280 l72 -39 -33 -18 c-73 -40 -261 -169 -351 -241 -52 -42 -168
-148 -258 -236 l-163 -160 -177 177 -176 176 165 168 c215 219 336 370 449
561 l43 73 39 -73 c22 -40 52 -89 66 -108z m957 -2700 l-60 -60 -1075 1075
-1075 1075 60 60 60 60 1075 -1075 1075 -1075 -60 -60z m-1908 1181 c-236
-240 -352 -385 -467 -578 -23 -40 -45 -73 -49 -73 -4 0 -17 21 -30 47 -65 133
-181 265 -310 351 -47 32 -101 64 -118 71 -18 7 -33 16 -33 20 0 4 28 23 63
43 200 118 375 260 607 492 l165 166 177 -177 177 -177 -182 -185z m-1192
-291 c269 -69 478 -279 546 -550 26 -103 28 -254 4 -356 -24 -105 -93 -237
-174 -331 -218 -253 -434 -348 -704 -310 l-59 9 179 181 c185 188 220 234 247
326 91 308 -201 609 -510 527 -100 -26 -153 -65 -337 -245 -97 -96 -179 -172
-182 -169 -14 14 -24 165 -15 236 22 172 74 270 228 425 155 157 247 216 403
257 103 27 269 27 374 0z m3366 -1000 l80 -41 90 -136 c49 -75 89 -139 89
-142 0 -4 -30 -37 -68 -74 l-67 -67 -143 95 -142 95 -41 81 -41 82 73 73 c41
41 77 74 81 74 5 0 45 -18 89 -40z"/>
</g>
</svg>
