<?xml version="1.0" standalone="no"?>
<!DOCTYPE svg PUBLIC "-//W3C//DTD SVG 20010904//EN"
 "http://www.w3.org/TR/2001/REC-SVG-20010904/DTD/svg10.dtd">
<svg version="1.0" xmlns="http://www.w3.org/2000/svg"
 width="512.000000pt" height="512.000000pt" viewBox="0 0 512.000000 512.000000"
 preserveAspectRatio="xMidYMid meet">
<metadata>
Created by potrace 1.14, written by Peter Selinger 2001-2017
</metadata>
<g transform="translate(0.000000,512.000000) scale(0.100000,-0.100000)"
fill="#000000" stroke="none">
<path d="M3528 4884 c-369 -73 -662 -300 -833 -644 -94 -188 -147 -401 -170
-675 -12 -144 -88 -361 -177 -500 -14 -22 -439 -455 -944 -963 -505 -508 -933
-944 -951 -970 -66 -97 -105 -243 -96 -362 29 -398 422 -646 802 -506 97 36
173 99 283 238 88 110 962 1214 1063 1343 232 294 240 303 360 399 117 95 209
147 322 185 222 74 382 99 592 94 145 -4 183 3 233 45 58 49 73 131 43 242 -8
30 -15 55 -15 56 0 0 37 24 83 52 197 120 388 289 477 422 115 170 154 376
105 545 -33 113 -64 155 -113 155 -23 0 -157 -62 -510 -237 -139 -69 -255
-124 -257 -122 -12 14 -95 360 -95 398 0 60 38 141 81 174 19 14 72 43 119 65
313 147 499 242 509 260 35 66 -9 114 -187 201 -108 54 -208 86 -332 108 -64
12 -329 10 -392 -3z"/>
<path d="M2681 1504 c-22 -9 -65 -76 -197 -305 -93 -161 -172 -304 -176 -317
-4 -16 -1 -36 9 -56 53 -103 337 -583 350 -593 13 -10 104 -13 373 -13 269 0
360 3 373 13 16 11 87 122 87 136 0 3 9 17 19 30 l18 24 53 -92 c29 -51 61
-96 71 -101 29 -16 720 -12 741 3 14 11 168 269 260 437 17 30 36 62 43 70 6
8 24 39 38 68 22 45 24 58 15 85 -6 18 -14 37 -19 42 -6 9 -38 63 -132 225
-11 19 -29 51 -39 71 -11 19 -52 89 -91 155 -67 110 -75 119 -107 124 -19 3
-185 5 -369 5 l-333 -1 -23 -26 c-13 -15 -42 -61 -65 -103 -48 -87 -38 -89
-108 31 -22 39 -48 77 -57 84 -22 18 -692 22 -734 4z"/>
</g>
</svg>
